solid Falla3d_ver2~
facet normal -1.8608498187391342e-08 -4.687873851460088e-09 0.9999999999999998
outer loop
vertex 1337.1647496986002 -91.88429684362967 69.79888826414638
vertex 1338.9647496555483 -90.78429695312583 69.79888829833429
vertex 1338.364749655548 -90.78429695312583 69.79888829054767
endloop
endfacet
facet normal -1.8608498187391342e-08 -4.687873851460088e-09 0.9999999999999998
outer loop
vertex 1338.9647496555483 -90.78429695312583 69.79888829833429
vertex 1337.1647496986002 -91.88429684362967 69.79888826414638
vertex 1337.7647496986 -91.88429684363003 69.79888827502546
endloop
endfacet
facet normal -1.8608498187391342e-08 -4.687873851460088e-09 0.9999999999999998
outer loop
vertex 1337.7647496986 -91.88429684363003 69.79888827502546
vertex 1337.1647496986002 -91.88429684362967 69.79888826414638
vertex 1336.0647498080962 -93.08429680057708 69.79888821863665
endloop
endfacet
facet normal -1.8608498187391342e-08 -4.687873851460088e-09 0.9999999999999998
outer loop
vertex 1337.7647496986 -91.88429684363003 69.79888827502546
vertex 1336.0647498080962 -93.08429680057708 69.79888821863665
vertex 1337.1647496986002 -92.48429684362951 69.79888826213033
endloop
endfacet
facet normal -1.8608498187391342e-08 -4.687873851460088e-09 0.9999999999999998
outer loop
vertex 1337.7647496986 -91.88429684363003 69.79888827502546
vertex 1337.1647496986002 -92.48429684362951 69.79888826213033
vertex 1342.5647495263897 -91.88429684363003 69.79888836457661
endloop
endfacet
facet normal -1.8608498187391342e-08 -4.687873851460088e-09 0.9999999999999998
outer loop
vertex 1337.1647496986002 -92.48429684362951 69.79888826213033
vertex 1336.0647498080962 -93.08429680057708 69.79888821863665
vertex 1336.0647498080962 -93.68429680057746 69.79888821780241
endloop
endfacet
facet normal -1.8608498187391342e-08 -4.687873851460088e-09 0.9999999999999998
outer loop
vertex 1337.1647496986 -97.28429667141907 69.79888822310348
vertex 1337.7647496980367 -92.48429684386646 69.79888834600595
vertex 1337.1647496986002 -92.48429684362951 69.79888826213033
endloop
endfacet
facet normal -1.8608498187391342e-08 -4.687873851460088e-09 0.9999999999999998
outer loop
vertex 1337.7647496980367 -92.48429684386646 69.79888834600595
vertex 1337.1647496986 -97.28429667141907 69.79888822310348
vertex 1337.7647496980367 -99.48429701607016 69.7988882857323
endloop
endfacet
facet normal -1.8608498187391342e-08 -4.687873851460088e-09 0.9999999999999998
outer loop
vertex 1337.7647496980367 -99.48429701607016 69.7988882857323
vertex 1337.1647496986 -97.28429667141907 69.79888822310348
vertex 1337.1647496985997 -97.88429667141907 69.79888821853997
endloop
endfacet
facet normal -1.8608498187391342e-08 -4.687873851460088e-09 0.9999999999999998
outer loop
vertex 1337.7647496980367 -99.48429701607016 69.7988882857323
vertex 1337.1647496985997 -97.88429667141907 69.79888821853997
vertex 1337.1647496986 -99.48429701607016 69.79888824418633
endloop
endfacet
facet normal -1.8608498187391342e-08 -4.687873851460088e-09 0.9999999999999998
outer loop
vertex 1337.7647496980367 -99.48429701607016 69.7988882857323
vertex 1337.1647496986 -99.48429701607016 69.79888824418633
vertex 1336.0647498080964 -100.68429697301775 69.79888819916664
endloop
endfacet
facet normal -1.8608498187391342e-08 -4.687873851460088e-09 0.9999999999999998
outer loop
vertex 1337.7647496980367 -99.48429701607016 69.7988882857323
vertex 1336.0647498080964 -100.68429697301775 69.79888819916664
vertex 1337.1647496986004 -100.08429701607015 69.79888824261056
endloop
endfacet
facet normal -1.8608498187391342e-08 -4.687873851460088e-09 0.9999999999999998
outer loop
vertex 1337.7647496980367 -99.48429701607016 69.7988882857323
vertex 1337.1647496986004 -100.08429701607015 69.79888824261056
vertex 1340.764749698037 -99.48429701607016 69.79888834335168
endloop
endfacet
facet normal -1.8608498187391342e-08 -4.687873851460088e-09 0.9999999999999998
outer loop
vertex 1337.1647496986004 -100.08429701607015 69.79888824261056
vertex 1336.0647498080964 -100.68429697301775 69.79888819916664
vertex 1336.0647498080964 -101.28429697301813 69.7988881987727
endloop
endfacet
facet normal -1.8608498187391342e-08 -4.687873851460088e-09 0.9999999999999998
outer loop
vertex 1336.064749808097 -106.68429695587477 69.79888816233762
vertex 1337.7647496980367 -105.48429684385971 69.79888823406908
vertex 1337.1647496986 -105.48429684385971 69.79888820298281
endloop
endfacet
facet normal -1.8608498187391342e-08 -4.687873851460088e-09 0.9999999999999998
outer loop
vertex 1337.7647496980367 -105.48429684385971 69.79888823406908
vertex 1336.064749808097 -106.68429695587477 69.79888816233762
vertex 1337.164749698601 -106.08429699892719 69.79888820578154
endloop
endfacet
facet normal -1.8608498187391342e-08 -4.687873851460088e-09 0.9999999999999998
outer loop
vertex 1337.164749698601 -106.08429699892719 69.79888820578154
vertex 1336.064749808097 -106.68429695587477 69.79888816233762
vertex 1336.064749808097 -107.28429695587516 69.79888816194368
endloop
endfacet
facet normal -1.8608498187391342e-08 -4.687873851460088e-09 0.9999999999999998
outer loop
vertex 1336.0647498080968 -110.28429686976894 69.79888815203674
vertex 1337.164749698601 -110.88429682671674 69.798888170277
vertex 1336.0647498080968 -109.6842968697686 69.79888815306757
endloop
endfacet
facet normal -1.8608498187391342e-08 -4.687873851460088e-09 0.9999999999999998
outer loop
vertex 1337.164749698601 -110.88429682671674 69.798888170277
vertex 1336.0647498080968 -110.28429686976894 69.79888815203674
vertex 1337.1647496986004 -111.48429682671674 69.7988881617509
endloop
endfacet
facet normal -1.8608498187391342e-08 -4.687873851460088e-09 0.9999999999999998
outer loop
vertex 1337.164749698601 -106.08429699892719 69.79888820578154
vertex 1337.764749698601 -111.48429684385293 69.79888817667766
vertex 1337.7647496980367 -105.48429684385971 69.79888823406908
endloop
endfacet
facet normal -1.8608498187391342e-08 -4.687873851460088e-09 0.9999999999999998
outer loop
vertex 1337.764749698601 -111.48429684385293 69.79888817667766
vertex 1337.164749698601 -106.08429699892719 69.79888820578154
vertex 1337.164749698601 -110.88429682671674 69.798888170277
endloop
endfacet
facet normal -1.8608498187391342e-08 -4.687873851460088e-09 0.9999999999999998
outer loop
vertex 1337.764749698601 -111.48429684385293 69.79888817667766
vertex 1337.164749698601 -110.88429682671674 69.798888170277
vertex 1337.1647496986004 -111.48429682671674 69.7988881617509
endloop
endfacet
facet normal -1.8608498187391342e-08 -4.687873851460088e-09 0.9999999999999998
outer loop
vertex 1336.0647498080962 -104.28429688691192 69.79888818886576
vertex 1337.1647496986004 -104.88429684385972 69.79888820710602
vertex 1336.0647498080962 -103.68429688691158 69.79888818989659
endloop
endfacet
facet normal -1.8608498187391342e-08 -4.687873851460088e-09 0.9999999999999998
outer loop
vertex 1337.1647496986004 -104.88429684385972 69.79888820710602
vertex 1336.0647498080962 -104.28429688691192 69.79888818886576
vertex 1337.1647496986 -105.48429684385971 69.79888820298281
endloop
endfacet
facet normal -1.8608498187391342e-08 -4.687873851460088e-09 0.9999999999999998
outer loop
vertex 1337.1647496986004 -104.88429684385972 69.79888820710602
vertex 1337.1647496986 -105.48429684385971 69.79888820298281
vertex 1340.164749698036 -104.88429684385972 69.7988882770647
endloop
endfacet
facet normal -1.8608498187391342e-08 -4.687873851460088e-09 0.9999999999999998
outer loop
vertex 1340.764749698037 -99.48429701607016 69.79888834335168
vertex 1340.1647496980354 -100.08429701607015 69.79888831615676
vertex 1340.764749698037 -105.48429684385971 69.79888829168844
endloop
endfacet
facet normal -1.8608498187391342e-08 -4.687873851460088e-09 0.9999999999999998
outer loop
vertex 1340.1647496980354 -100.08429701607015 69.79888831615676
vertex 1340.764749698037 -99.48429701607016 69.79888834335168
vertex 1337.1647496986004 -100.08429701607015 69.79888824261056
endloop
endfacet
facet normal -1.8608498187391342e-08 -4.687873851460088e-09 0.9999999999999998
outer loop
vertex 1340.764749698037 -105.48429684385971 69.79888829168844
vertex 1340.1647496980354 -100.08429701607015 69.79888831615676
vertex 1340.164749698036 -104.88429684385972 69.7988882770647
endloop
endfacet
facet normal -1.8608498187391342e-08 -4.687873851460088e-09 0.9999999999999998
outer loop
vertex 1340.764749698037 -105.48429684385971 69.79888829168844
vertex 1340.164749698036 -104.88429684385972 69.7988882770647
vertex 1337.1647496986 -105.48429684385971 69.79888820298281
endloop
endfacet
facet normal -1.8608498187391342e-08 -4.687873851460088e-09 0.9999999999999998
outer loop
vertex 1340.764749698037 -105.48429684385971 69.79888829168844
vertex 1337.1647496986 -105.48429684385971 69.79888820298281
vertex 1337.7647496980367 -105.48429684385971 69.79888823406908
endloop
endfacet
facet normal -1.8608498187391342e-08 -4.687873851460088e-09 0.9999999999999998
outer loop
vertex 1336.0647498080957 -96.68429671447124 69.79888820569403
vertex 1337.1647496986 -97.28429667141907 69.79888822310348
vertex 1336.0647498080957 -96.08429671447091 69.79888820716513
endloop
endfacet
facet normal -1.8608498187391342e-08 -4.687873851460088e-09 0.9999999999999998
outer loop
vertex 1337.1647496986 -97.28429667141907 69.79888822310348
vertex 1336.0647498080957 -96.68429671447124 69.79888820569403
vertex 1337.1647496985997 -97.88429667141907 69.79888821853997
endloop
endfacet
facet normal -1.8608498187391342e-08 -4.687873851460088e-09 0.9999999999999998
outer loop
vertex 1342.5647495263897 -91.88429684363003 69.79888836457661
vertex 1341.9647495694421 -90.78429695312602 69.7988883413835
vertex 1341.3647495694418 -90.78429695312602 69.79888833423372
endloop
endfacet
facet normal -1.8608498187391342e-08 -4.687873851460088e-09 0.9999999999999998
outer loop
vertex 1341.9647495694421 -90.78429695312602 69.7988883413835
vertex 1342.5647495263897 -91.88429684363003 69.79888836457661
vertex 1343.1647495263896 -91.88429684362967 69.79888837290822
endloop
endfacet
facet normal -1.8608498187391342e-08 -4.687873851460088e-09 0.9999999999999998
outer loop
vertex 1343.1647495263896 -91.88429684362967 69.79888837290822
vertex 1342.5647495263897 -91.88429684363003 69.79888836457661
vertex 1345.364749698048 -91.88429684362967 69.79888843216834
endloop
endfacet
facet normal -1.8608498187391342e-08 -4.687873851460088e-09 0.9999999999999998
outer loop
vertex 1345.364749698048 -91.88429684362967 69.79888843216834
vertex 1342.5647495263897 -91.88429684363003 69.79888836457661
vertex 1344.7647496980492 -92.48429684386646 69.7988884503142
endloop
endfacet
facet normal -1.8608498187391342e-08 -4.687873851460088e-09 0.9999999999999998
outer loop
vertex 1345.364749698048 -91.88429684362967 69.79888843216834
vertex 1344.7647496980492 -92.48429684386646 69.7988884503142
vertex 1345.3647496980482 -94.8842968438665 69.7988884454435
endloop
endfacet
facet normal -1.8608498187391342e-08 -4.687873851460088e-09 0.9999999999999998
outer loop
vertex 1344.7647496980492 -92.48429684386646 69.7988884503142
vertex 1342.5647495263897 -91.88429684363003 69.79888836457661
vertex 1337.1647496986002 -92.48429684362951 69.79888826213033
endloop
endfacet
facet normal -1.8608498187391342e-08 -4.687873851460088e-09 0.9999999999999998
outer loop
vertex 1344.7647496980492 -92.48429684386646 69.7988884503142
vertex 1337.1647496986002 -92.48429684362951 69.79888826213033
vertex 1337.7647496980367 -92.48429684386646 69.79888834600595
endloop
endfacet
facet normal -1.8608498187391342e-08 -4.687873851460088e-09 0.9999999999999998
outer loop
vertex 1345.3647496980482 -94.8842968438665 69.7988884454435
vertex 1344.7647496980492 -92.48429684386646 69.7988884503142
vertex 1344.7647496980492 -95.48429684386649 69.79888843739839
endloop
endfacet
facet normal -1.8608498187391342e-08 -4.687873851460088e-09 0.9999999999999998
outer loop
vertex 1345.3647496980482 -94.8842968438665 69.7988884454435
vertex 1344.7647496980492 -95.48429684386649 69.79888843739839
vertex 1350.1647498702594 -94.8842968438665 69.79888851851523
endloop
endfacet
facet normal -1.8608498187391342e-08 -4.687873851460088e-09 0.9999999999999998
outer loop
vertex 1350.1647498702591 -91.88429684362967 69.79888850947671
vertex 1349.56474956889 -90.78429695312565 69.7988884985264
vertex 1348.9647495688896 -90.78429695312565 69.79888849137664
endloop
endfacet
facet normal -1.8608498187391342e-08 -4.687873851460088e-09 0.9999999999999998
outer loop
vertex 1349.56474956889 -90.78429695312565 69.7988884985264
vertex 1350.1647498702591 -91.88429684362967 69.79888850947671
vertex 1350.764749859744 -91.88429684362967 69.79888851163994
endloop
endfacet
facet normal -1.8608498187391342e-08 -4.687873851460088e-09 0.9999999999999998
outer loop
vertex 1350.764749859744 -91.88429684362967 69.79888851163994
vertex 1350.1647498702591 -91.88429684362967 69.79888850947671
vertex 1350.1647498702594 -94.8842968438665 69.79888851851523
endloop
endfacet
facet normal -1.8608498187391342e-08 -4.687873851460088e-09 0.9999999999999998
outer loop
vertex 1350.764749859744 -91.88429684362967 69.79888851163994
vertex 1350.1647498702594 -94.8842968438665 69.79888851851523
vertex 1350.7647498702602 -92.48429684386646 69.79888853972129
endloop
endfacet
facet normal -1.8608498187391342e-08 -4.687873851460088e-09 0.9999999999999998
outer loop
vertex 1350.764749859744 -91.88429684362967 69.79888851163994
vertex 1350.7647498702602 -92.48429684386646 69.79888853972129
vertex 1351.364749859744 -91.88429684363003 69.79888852251896
endloop
endfacet
facet normal -1.8608498187391342e-08 -4.687873851460088e-09 0.9999999999999998
outer loop
vertex 1351.364749859744 -91.88429684363003 69.79888852251896
vertex 1350.7647498702602 -92.48429684386646 69.79888853972129
vertex 1356.1647496875335 -91.88429684363003 69.79888861207016
endloop
endfacet
facet normal -1.8608498187391342e-08 -4.687873851460088e-09 0.9999999999999998
outer loop
vertex 1356.1647496875335 -91.88429684363003 69.79888861207016
vertex 1350.7647498702602 -92.48429684386646 69.79888853972129
vertex 1356.7647496980617 -92.48429684362966 69.7988886234623
endloop
endfacet
facet normal -1.8608498187391342e-08 -4.687873851460088e-09 0.9999999999999998
outer loop
vertex 1350.7647498702602 -92.48429684386646 69.79888853972129
vertex 1350.1647498702594 -94.8842968438665 69.79888851851523
vertex 1350.7647498702602 -95.48429684386649 69.79888852680548
endloop
endfacet
facet normal -1.8608498187391342e-08 -4.687873851460088e-09 0.9999999999999998
outer loop
vertex 1350.7647498702602 -95.48429684386649 69.79888852680548
vertex 1350.1647498702594 -94.8842968438665 69.79888851851523
vertex 1344.7647496980492 -95.48429684386649 69.79888843739839
endloop
endfacet
facet normal -1.8608498187391342e-08 -4.687873851460088e-09 0.9999999999999998
outer loop
vertex 1356.1647496875335 -91.88429684363003 69.79888861207016
vertex 1355.5647497305858 -90.78429695312602 69.79888858887703
vertex 1354.9647497305855 -90.78429695312602 69.79888858172725
endloop
endfacet
facet normal -1.8608498187391342e-08 -4.687873851460088e-09 0.9999999999999998
outer loop
vertex 1355.5647497305858 -90.78429695312602 69.79888858887703
vertex 1356.1647496875335 -91.88429684363003 69.79888861207016
vertex 1356.7647496875336 -91.88429684362967 69.79888862040173
endloop
endfacet
facet normal -1.8608498187391342e-08 -4.687873851460088e-09 0.9999999999999998
outer loop
vertex 1356.7647496875336 -91.88429684362967 69.79888862040173
vertex 1356.1647496875335 -91.88429684363003 69.79888861207016
vertex 1356.7647496980617 -92.48429684362966 69.7988886234623
endloop
endfacet
facet normal -1.8608498187391342e-08 -4.687873851460088e-09 0.9999999999999998
outer loop
vertex 1350.764749859744 -91.88429684362967 69.79888851163994
vertex 1352.5647498166923 -90.78429695312583 69.79888854582781
vertex 1351.9647498166917 -90.78429695312583 69.79888853804115
endloop
endfacet
facet normal -1.8608498187391342e-08 -4.687873851460088e-09 0.9999999999999998
outer loop
vertex 1352.5647498166923 -90.78429695312583 69.79888854582781
vertex 1350.764749859744 -91.88429684362967 69.79888851163994
vertex 1351.364749859744 -91.88429684363003 69.79888852251896
endloop
endfacet
facet normal -1.8608498187391342e-08 -4.687873851460088e-09 0.9999999999999998
outer loop
vertex 1344.764749698048 -91.8842968436293 69.79888842128928
vertex 1346.5647496549961 -90.78429695312548 69.79888845547723
vertex 1345.9647496549958 -90.78429695312548 69.79888844769054
endloop
endfacet
facet normal -1.8608498187391342e-08 -4.687873851460088e-09 0.9999999999999998
outer loop
vertex 1346.5647496549961 -90.78429695312548 69.79888845547723
vertex 1344.764749698048 -91.8842968436293 69.79888842128928
vertex 1345.364749698048 -91.88429684362967 69.79888843216834
endloop
endfacet
facet normal -1.8608498187391342e-08 -4.687873851460088e-09 0.9999999999999998
outer loop
vertex 1345.364749698048 -91.88429684362967 69.79888843216834
vertex 1344.764749698048 -91.8842968436293 69.79888842128928
vertex 1343.1647495263896 -91.88429684362967 69.79888837290822
endloop
endfacet
facet normal 0.7371541616296098 -0.6757246051403982 1.0549620173286715e-08
outer loop
vertex 1336.0647498080962 -93.68429680057746 69.79888821780241
vertex 1337.1647501414823 -92.48429673205813 45.998888265371065
vertex 1337.1647496986002 -92.48429684362951 69.79888826213033
endloop
endfacet
facet normal 0.7371541616296098 -0.6757246051403982 1.0549620173286715e-08
outer loop
vertex 1337.1647501414823 -92.48429673205813 45.998888265371065
vertex 1336.0647498080962 -93.68429680057746 69.79888821780241
vertex 1336.0647502509782 -93.68429668900608 45.99888822104315
endloop
endfacet
facet normal -0.6757246051403843 -0.7371541616296226 -1.6029905808729077e-08
outer loop
vertex 1356.1647496875335 -91.88429684363003 69.79888861207016
vertex 1354.9647501734676 -90.78429684155462 45.99888858496799
vertex 1356.1647501304155 -91.88429673205864 45.99888861531088
endloop
endfacet
facet normal -0.6757246051403843 -0.7371541616296226 -1.6029905808729077e-08
outer loop
vertex 1354.9647501734676 -90.78429684155462 45.99888858496799
vertex 1356.1647496875335 -91.88429684363003 69.79888861207016
vertex 1354.9647497305855 -90.78429695312602 69.79888858172725
endloop
endfacet
facet normal -6.083813808238233e-17 1.0 4.687873851460092e-09
outer loop
vertex 1345.964750097878 -90.78429684155408 45.998888450931275
vertex 1346.5647496549961 -90.78429695312548 69.79888845547723
vertex 1346.5647500978785 -90.78429684155408 45.998888458717936
endloop
endfacet
facet normal -6.083813808238233e-17 1.0 4.687873851460092e-09
outer loop
vertex 1346.5647496549961 -90.78429695312548 69.79888845547723
vertex 1345.964750097878 -90.78429684155408 45.998888450931275
vertex 1345.9647496549958 -90.78429695312548 69.79888844769054
endloop
endfacet
facet normal -0.7371541616294579 0.6757246051405639 -1.0549620173283112e-08
outer loop
vertex 1337.1647501414823 -91.88429673205827 45.99888826738712
vertex 1336.0647498080962 -93.08429680057708 69.79888821863665
vertex 1337.1647496986002 -91.88429684362967 69.79888826414638
endloop
endfacet
facet normal -0.7371541616294579 0.6757246051405639 -1.0549620173283112e-08
outer loop
vertex 1336.0647498080962 -93.08429680057708 69.79888821863665
vertex 1337.1647501414823 -91.88429673205827 45.99888826738712
vertex 1336.0647502509782 -93.0842966890057 45.998888221877394
endloop
endfacet
facet normal 0.6757246051403896 -0.7371541616296179 9.1185343711322e-09
outer loop
vertex 1338.9647496555483 -90.78429695312583 69.79888829833429
vertex 1337.7647501414824 -91.88429673205864 45.99888827826619
vertex 1338.9647500984306 -90.78429684155445 45.99888830157502
endloop
endfacet
facet normal 0.6757246051403896 -0.7371541616296179 9.1185343711322e-09
outer loop
vertex 1337.7647501414824 -91.88429673205864 45.99888827826619
vertex 1338.9647496555483 -90.78429695312583 69.79888829833429
vertex 1337.7647496986 -91.88429684363003 69.79888827502546
endloop
endfacet
facet normal -0.9999999999999998 2.5873141886091615e-17 -1.8608498187391346e-08
outer loop
vertex 1336.0647502509782 -93.0842966890057 45.998888221877394
vertex 1336.0647498080962 -93.68429680057746 69.79888821780241
vertex 1336.0647498080962 -93.08429680057708 69.79888821863665
endloop
endfacet
facet normal -0.9999999999999998 2.5873141886091615e-17 -1.8608498187391346e-08
outer loop
vertex 1336.0647498080962 -93.68429680057746 69.79888821780241
vertex 1336.0647502509782 -93.0842966890057 45.998888221877394
vertex 1336.0647502509782 -93.68429668900608 45.99888822104315
endloop
endfacet
facet normal -1.0931914933378682e-16 1.0 4.687873851460092e-09
outer loop
vertex 1337.1647501414825 -104.88429673228835 45.99888821034676
vertex 1340.164749698036 -104.88429684385972 69.7988882770647
vertex 1340.1647501409182 -104.88429673228835 45.99888828030544
endloop
endfacet
facet normal -1.0931914933378682e-16 1.0 4.687873851460092e-09
outer loop
vertex 1340.164749698036 -104.88429684385972 69.7988882770647
vertex 1337.1647501414825 -104.88429673228835 45.99888821034676
vertex 1337.1647496986004 -104.88429684385972 69.79888820710602
endloop
endfacet
facet normal -0.7371542051246289 0.6757245576912804 -1.0549621205099178e-08
outer loop
vertex 1337.1647501414823 -105.48429673228834 45.99888820622354
vertex 1336.064749808097 -106.68429695587477 69.79888816233762
vertex 1337.1647496986 -105.48429684385971 69.79888820298281
endloop
endfacet
facet normal -0.7371542051246289 0.6757245576912804 -1.0549621205099178e-08
outer loop
vertex 1336.064749808097 -106.68429695587477 69.79888816233762
vertex 1337.1647501414823 -105.48429673228834 45.99888820622354
vertex 1336.0647502509792 -106.6842968443034 45.998888165578364
endloop
endfacet
facet normal -0.6757246051403843 -0.7371541616296226 -1.6029905808729077e-08
outer loop
vertex 1342.5647495263897 -91.88429684363003 69.79888836457661
vertex 1341.3647500123238 -90.78429684155462 45.99888833747447
vertex 1342.5647499692718 -91.88429673205864 45.998888367817344
endloop
endfacet
facet normal -0.6757246051403843 -0.7371541616296226 -1.6029905808729077e-08
outer loop
vertex 1341.3647500123238 -90.78429684155462 45.99888833747447
vertex 1342.5647495263897 -91.88429684363003 69.79888836457661
vertex 1341.3647495694418 -90.78429695312602 69.79888833423372
endloop
endfacet
facet normal -0.9999999999999998 3.19700768598739e-17 -1.8608498187391346e-08
outer loop
vertex 1336.0647502509782 -103.68429677534021 45.99888819313732
vertex 1336.0647498080962 -104.28429688691192 69.79888818886576
vertex 1336.0647498080962 -103.68429688691158 69.79888818989659
endloop
endfacet
facet normal -0.9999999999999998 3.19700768598739e-17 -1.8608498187391346e-08
outer loop
vertex 1336.0647498080962 -104.28429688691192 69.79888818886576
vertex 1336.0647502509782 -103.68429677534021 45.99888819313732
vertex 1336.0647502509782 -104.28429677534055 45.9988881921065
endloop
endfacet
facet normal 6.985484317299662e-17 -1.0 -4.687873851460093e-09
outer loop
vertex 1350.7647498702602 -95.48429684386649 69.79888852680548
vertex 1344.7647501409315 -95.4842967322951 45.99888844063912
vertex 1350.7647503131425 -95.4842967322951 45.998888530046194
endloop
endfacet
facet normal 6.985484317299662e-17 -1.0 -4.687873851460093e-09
outer loop
vertex 1344.7647501409315 -95.4842967322951 45.99888844063912
vertex 1350.7647498702602 -95.48429684386649 69.79888852680548
vertex 1344.7647496980492 -95.48429684386649 69.79888843739839
endloop
endfacet
facet normal 6.985483636473559e-17 -1.0 -4.687873851460093e-09
outer loop
vertex 1344.7647496980492 -92.48429684386646 69.7988884503142
vertex 1337.764750140919 -92.48429673229506 45.99888834924669
vertex 1344.7647501409315 -92.48429673229506 45.998888453554926
endloop
endfacet
facet normal 6.985483636473559e-17 -1.0 -4.687873851460093e-09
outer loop
vertex 1337.764750140919 -92.48429673229506 45.99888834924669
vertex 1344.7647496980492 -92.48429684386646 69.7988884503142
vertex 1337.7647496980367 -92.48429684386646 69.79888834600595
endloop
endfacet
facet normal 3.9464557494964915e-11 -1.0 -4.687873850725718e-09
outer loop
vertex 1356.7647496980617 -92.48429684362966 69.7988886234623
vertex 1350.7647503131425 -92.48429673229506 45.998888542962
vertex 1356.7647501409438 -92.48429673205828 45.99888862670306
endloop
endfacet
facet normal 3.9464557494964915e-11 -1.0 -4.687873850725718e-09
outer loop
vertex 1350.7647503131425 -92.48429673229506 45.998888542962
vertex 1356.7647496980617 -92.48429684362966 69.7988886234623
vertex 1350.7647498702602 -92.48429684386646 69.79888853972129
endloop
endfacet
facet normal 0.7371541616296053 0.6757246051404031 1.6885043587738393e-08
outer loop
vertex 1337.1647501414825 -104.88429673228835 45.99888821034676
vertex 1336.0647498080962 -103.68429688691158 69.79888818989659
vertex 1337.1647496986004 -104.88429684385972 69.79888820710602
endloop
endfacet
facet normal 0.7371541616296053 0.6757246051404031 1.6885043587738393e-08
outer loop
vertex 1336.0647498080962 -103.68429688691158 69.79888818989659
vertex 1337.1647501414825 -104.88429673228835 45.99888821034676
vertex 1336.0647502509782 -103.68429677534021 45.99888819313732
endloop
endfacet
facet normal 0.6757246051403896 -0.7371541616296179 9.1185343711322e-09
outer loop
vertex 1352.5647498166923 -90.78429695312583 69.79888854582781
vertex 1351.3647503026261 -91.88429673205864 45.998888525759725
vertex 1352.5647502595743 -90.78429684155445 45.99888854906855
endloop
endfacet
facet normal 0.6757246051403896 -0.7371541616296179 9.1185343711322e-09
outer loop
vertex 1351.3647503026261 -91.88429673205864 45.998888525759725
vertex 1352.5647498166923 -90.78429695312583 69.79888854582781
vertex 1351.364749859744 -91.88429684363003 69.79888852251896
endloop
endfacet
facet normal -0.9999999999999998 -1.2037463428718801e-13 -1.860849818739191e-08
outer loop
vertex 1350.1647498702591 -91.88429684362967 69.79888850947671
vertex 1350.1647503131417 -94.88429673229511 45.998888521755966
vertex 1350.1647498702594 -94.8842968438665 69.79888851851523
endloop
endfacet
facet normal -0.9999999999999998 -1.2037463428718801e-13 -1.860849818739191e-08
outer loop
vertex 1350.1647503131417 -94.88429673229511 45.998888521755966
vertex 1350.1647498702591 -91.88429684362967 69.79888850947671
vertex 1350.1647503131412 -91.88429673205827 45.99888851271746
endloop
endfacet
facet normal -7.136479732322289e-17 1.0 4.687873851460093e-09
outer loop
vertex 1345.3647501409305 -94.88429673229511 45.99888844868424
vertex 1350.1647498702594 -94.8842968438665 69.79888851851523
vertex 1350.1647503131417 -94.88429673229511 45.998888521755966
endloop
endfacet
facet normal -7.136479732322289e-17 1.0 4.687873851460093e-09
outer loop
vertex 1350.1647498702594 -94.8842968438665 69.79888851851523
vertex 1345.3647501409305 -94.88429673229511 45.99888844868424
vertex 1345.3647496980482 -94.8842968438665 69.7988884454435
endloop
endfacet
facet normal -9.003741265624241e-17 1.0 4.687873851460094e-09
outer loop
vertex 1337.764750140919 -99.48429690449876 45.99888828897304
vertex 1340.764749698037 -99.48429701607016 69.79888834335168
vertex 1340.764750140919 -99.48429690449876 45.998888346592395
endloop
endfacet
facet normal -9.003741265624241e-17 1.0 4.687873851460094e-09
outer loop
vertex 1340.764749698037 -99.48429701607016 69.79888834335168
vertex 1337.764750140919 -99.48429690449876 45.99888828897304
vertex 1337.7647496980367 -99.48429701607016 69.7988882857323
endloop
endfacet
facet normal -5.586191037664852e-17 1.0 4.687873851460092e-09
outer loop
vertex 1348.9647500117717 -90.78429684155427 45.998888494617375
vertex 1349.56474956889 -90.78429695312565 69.7988884985264
vertex 1349.564750011772 -90.78429684155427 45.998888501767134
endloop
endfacet
facet normal -5.586191037664852e-17 1.0 4.687873851460092e-09
outer loop
vertex 1349.56474956889 -90.78429695312565 69.7988884985264
vertex 1348.9647500117717 -90.78429684155427 45.998888494617375
vertex 1348.9647495688896 -90.78429695312565 69.79888849137664
endloop
endfacet
facet normal -0.9999999999999998 1.2217658768893888e-17 -1.8608498187391346e-08
outer loop
vertex 1336.0647502509792 -106.6842968443034 45.998888165578364
vertex 1336.064749808097 -107.28429695587516 69.79888816194368
vertex 1336.064749808097 -106.68429695587477 69.79888816233762
endloop
endfacet
facet normal -0.9999999999999998 1.2217658768893888e-17 -1.8608498187391346e-08
outer loop
vertex 1336.064749808097 -107.28429695587516 69.79888816194368
vertex 1336.0647502509792 -106.6842968443034 45.998888165578364
vertex 1336.0647502509792 -107.2842968443038 45.998888165184425
endloop
endfacet
facet normal 1.1492510815155433e-16 -1.0 -4.687873851460092e-09
outer loop
vertex 1340.1647496980354 -100.08429701607015 69.79888831615676
vertex 1337.1647501414825 -100.08429690449877 45.99888824585129
vertex 1340.1647501409175 -100.08429690449877 45.998888319397494
endloop
endfacet
facet normal 1.1492510815155433e-16 -1.0 -4.687873851460092e-09
outer loop
vertex 1337.1647501414825 -100.08429690449877 45.99888824585129
vertex 1340.1647496980354 -100.08429701607015 69.79888831615676
vertex 1337.1647496986004 -100.08429701607015 69.79888824261056
endloop
endfacet
facet normal 0.9999999999999998 6.024162856197301e-14 1.860849818739163e-08
outer loop
vertex 1345.3647501409305 -94.88429673229511 45.99888844868424
vertex 1345.364749698048 -91.88429684362967 69.79888843216834
vertex 1345.3647496980482 -94.8842968438665 69.7988884454435
endloop
endfacet
facet normal 0.9999999999999998 6.024162856197301e-14 1.860849818739163e-08
outer loop
vertex 1345.364749698048 -91.88429684362967 69.79888843216834
vertex 1345.3647501409305 -94.88429673229511 45.99888844868424
vertex 1345.3647501409303 -91.88429673205827 45.99888843540908
endloop
endfacet
facet normal -8.745929377037234e-17 1.0 4.687873851460095e-09
outer loop
vertex 1351.3647503026261 -91.88429673205864 45.998888525759725
vertex 1356.1647496875335 -91.88429684363003 69.79888861207016
vertex 1356.1647501304155 -91.88429673205864 45.99888861531088
endloop
endfacet
facet normal -8.745929377037234e-17 1.0 4.687873851460095e-09
outer loop
vertex 1356.1647496875335 -91.88429684363003 69.79888861207016
vertex 1351.3647503026261 -91.88429673205864 45.998888525759725
vertex 1351.364749859744 -91.88429684363003 69.79888852251896
endloop
endfacet
facet normal -0.7371541616296209 -0.6757246051403861 -1.6885043587738602e-08
outer loop
vertex 1336.0647502509782 -104.28429677534055 45.9988881921065
vertex 1337.1647496986 -105.48429684385971 69.79888820298281
vertex 1336.0647498080962 -104.28429688691192 69.79888818886576
endloop
endfacet
facet normal -0.7371541616296209 -0.6757246051403861 -1.6885043587738602e-08
outer loop
vertex 1337.1647496986 -105.48429684385971 69.79888820298281
vertex 1336.0647502509782 -104.28429677534055 45.9988881921065
vertex 1337.1647501414823 -105.48429673228834 45.99888820622354
endloop
endfacet
facet normal -5.586208663861033e-17 1.0 4.687873851460092e-09
outer loop
vertex 1341.3647500123238 -90.78429684155462 45.99888833747447
vertex 1341.9647495694421 -90.78429695312602 69.7988883413835
vertex 1341.9647500123242 -90.78429684155462 45.998888344624234
endloop
endfacet
facet normal -5.586208663861033e-17 1.0 4.687873851460092e-09
outer loop
vertex 1341.9647495694421 -90.78429695312602 69.7988883413835
vertex 1341.3647500123238 -90.78429684155462 45.99888833747447
vertex 1341.3647495694418 -90.78429695312602 69.79888833423372
endloop
endfacet
facet normal 0.9999999999999998 -8.011459314782424e-17 1.8608498187391346e-08
outer loop
vertex 1350.7647498702602 -95.48429684386649 69.79888852680548
vertex 1350.7647503131425 -92.48429673229506 45.998888542962
vertex 1350.7647498702602 -92.48429684386646 69.79888853972129
endloop
endfacet
facet normal 0.9999999999999998 -8.011459314782424e-17 1.8608498187391346e-08
outer loop
vertex 1350.7647503131425 -92.48429673229506 45.998888542962
vertex 1350.7647498702602 -95.48429684386649 69.79888852680548
vertex 1350.7647503131425 -95.4842967322951 45.998888530046194
endloop
endfacet
facet normal 0.9999999999999998 9.402878439950513e-11 1.860849818783214e-08
outer loop
vertex 1337.764749698601 -111.48429684385293 69.79888817667766
vertex 1337.764750140919 -105.48429673228834 45.998888237309814
vertex 1337.7647496980367 -105.48429684385971 69.79888823406908
endloop
endfacet
facet normal 0.9999999999999998 9.402878439950513e-11 1.860849818783214e-08
outer loop
vertex 1337.764750140919 -105.48429673228834 45.998888237309814
vertex 1337.764749698601 -111.48429684385293 69.79888817667766
vertex 1337.764750141483 -111.48429673228156 45.998888179918396
endloop
endfacet
facet normal -0.6757246051403795 0.7371541616296271 -9.11853437113197e-09
outer loop
vertex 1337.1647501414823 -91.88429673205827 45.99888826738712
vertex 1338.364749655548 -90.78429695312583 69.79888829054767
vertex 1338.3647500984302 -90.78429684155445 45.99888829378838
endloop
endfacet
facet normal -0.6757246051403795 0.7371541616296271 -9.11853437113197e-09
outer loop
vertex 1338.364749655548 -90.78429695312583 69.79888829054767
vertex 1337.1647501414823 -91.88429673205827 45.99888826738712
vertex 1337.1647496986002 -91.88429684362967 69.79888826414638
endloop
endfacet
facet normal -0.9999999999999998 8.011459314782424e-17 -1.8608498187391346e-08
outer loop
vertex 1344.7647501409315 -92.48429673229506 45.998888453554926
vertex 1344.7647496980492 -95.48429684386649 69.79888843739839
vertex 1344.7647496980492 -92.48429684386646 69.7988884503142
endloop
endfacet
facet normal -0.9999999999999998 8.011459314782424e-17 -1.8608498187391346e-08
outer loop
vertex 1344.7647496980492 -95.48429684386649 69.79888843739839
vertex 1344.7647501409315 -92.48429673229506 45.998888453554926
vertex 1344.7647501409315 -95.4842967322951 45.99888844063912
endloop
endfacet
facet normal -2.2573904707497587e-13 1.0 4.687873851455895e-09
outer loop
vertex 1343.164749969272 -91.88429673205827 45.99888837614896
vertex 1344.764749698048 -91.8842968436293 69.79888842128928
vertex 1344.7647501409301 -91.88429673205792 45.998888424530016
endloop
endfacet
facet normal -2.2573904707497587e-13 1.0 4.687873851455895e-09
outer loop
vertex 1344.764749698048 -91.8842968436293 69.79888842128928
vertex 1343.164749969272 -91.88429673205827 45.99888837614896
vertex 1343.1647495263896 -91.88429684362967 69.79888837290822
endloop
endfacet
facet normal 0.6757246051403742 0.7371541616296318 1.6029905808728928e-08
outer loop
vertex 1341.9647500123242 -90.78429684155462 45.998888344624234
vertex 1343.1647495263896 -91.88429684362967 69.79888837290822
vertex 1343.164749969272 -91.88429673205827 45.99888837614896
endloop
endfacet
facet normal 0.6757246051403742 0.7371541616296318 1.6029905808728928e-08
outer loop
vertex 1343.1647495263896 -91.88429684362967 69.79888837290822
vertex 1341.9647500123242 -90.78429684155462 45.998888344624234
vertex 1341.9647495694421 -90.78429695312602 69.7988883413835
endloop
endfacet
facet normal -5.586208663861033e-17 1.0 4.687873851460092e-09
outer loop
vertex 1354.9647501734676 -90.78429684155462 45.99888858496799
vertex 1355.5647497305858 -90.78429695312602 69.79888858887703
vertex 1355.5647501734682 -90.78429684155462 45.99888859211777
endloop
endfacet
facet normal -5.586208663861033e-17 1.0 4.687873851460092e-09
outer loop
vertex 1355.5647497305858 -90.78429695312602 69.79888858887703
vertex 1354.9647501734676 -90.78429684155462 45.99888858496799
vertex 1354.9647497305855 -90.78429695312602 69.79888858172725
endloop
endfacet
facet normal 0.9999999999999998 -1.6022886250423744e-16 1.8608498187391346e-08
outer loop
vertex 1337.7647496980367 -99.48429701607016 69.7988882857323
vertex 1337.764750140919 -92.48429673229506 45.99888834924669
vertex 1337.7647496980367 -92.48429684386646 69.79888834600595
endloop
endfacet
facet normal 0.9999999999999998 -1.6022886250423744e-16 1.8608498187391346e-08
outer loop
vertex 1337.764750140919 -92.48429673229506 45.99888834924669
vertex 1337.7647496980367 -99.48429701607016 69.7988882857323
vertex 1337.764750140919 -99.48429690449876 45.99888828897304
endloop
endfacet
facet normal -6.083796182042052e-17 1.0 4.687873851460092e-09
outer loop
vertex 1338.3647500984302 -90.78429684155445 45.99888829378838
vertex 1338.9647496555483 -90.78429695312583 69.79888829833429
vertex 1338.9647500984306 -90.78429684155445 45.99888830157502
endloop
endfacet
facet normal -6.083796182042052e-17 1.0 4.687873851460092e-09
outer loop
vertex 1338.9647496555483 -90.78429695312583 69.79888829833429
vertex 1338.3647500984302 -90.78429684155445 45.99888829378838
vertex 1338.364749655548 -90.78429695312583 69.79888829054767
endloop
endfacet
facet normal -0.6757244997513376 -0.7371542582362287 -1.602990430047677e-08
outer loop
vertex 1350.1647498702591 -91.88429684362967 69.79888850947671
vertex 1348.9647500117717 -90.78429684155427 45.998888494617375
vertex 1350.1647503131412 -91.88429673205827 45.99888851271746
endloop
endfacet
facet normal -0.6757244997513376 -0.7371542582362287 -1.602990430047677e-08
outer loop
vertex 1348.9647500117717 -90.78429684155427 45.998888494617375
vertex 1350.1647498702591 -91.88429684362967 69.79888850947671
vertex 1348.9647495688896 -90.78429695312565 69.79888849137664
endloop
endfacet
facet normal 0.9999999999999997 1.75469595359273e-08 1.8608498269649276e-08
outer loop
vertex 1356.7647501409438 -92.48429673205828 45.99888862670306
vertex 1356.7647496875336 -91.88429684362967 69.79888862040173
vertex 1356.7647496980617 -92.48429684362966 69.7988886234623
endloop
endfacet
facet normal 0.9999999999999997 1.75469595359273e-08 1.8608498269649276e-08
outer loop
vertex 1356.7647496875336 -91.88429684362967 69.79888862040173
vertex 1356.7647501409438 -92.48429673205828 45.99888862670306
vertex 1356.7647501304157 -91.88429673205827 45.99888862364248
endloop
endfacet
facet normal 0.6757245029689724 0.7371542552867312 1.602990434652525e-08
outer loop
vertex 1349.564750011772 -90.78429684155427 45.998888501767134
vertex 1350.764749859744 -91.88429684362967 69.79888851163994
vertex 1350.7647503026262 -91.88429673205827 45.99888851488066
endloop
endfacet
facet normal 0.6757245029689724 0.7371542552867312 1.602990434652525e-08
outer loop
vertex 1350.764749859744 -91.88429684362967 69.79888851163994
vertex 1349.564750011772 -90.78429684155427 45.998888501767134
vertex 1349.56474956889 -90.78429695312565 69.7988884985264
endloop
endfacet
facet normal -0.9999999999999998 3.19700768598739e-17 -1.8608498187391346e-08
outer loop
vertex 1336.0647502509792 -109.68429675819723 45.9988881563083
vertex 1336.0647498080968 -110.28429686976894 69.79888815203674
vertex 1336.0647498080968 -109.6842968697686 69.79888815306757
endloop
endfacet
facet normal -0.9999999999999998 3.19700768598739e-17 -1.8608498187391346e-08
outer loop
vertex 1336.0647498080968 -110.28429686976894 69.79888815203674
vertex 1336.0647502509792 -109.68429675819723 45.9988881563083
vertex 1336.0647502509792 -110.28429675819758 45.99888815527748
endloop
endfacet
facet normal -0.6757246051403795 0.7371541616296271 -9.11853437113197e-09
outer loop
vertex 1350.7647503026262 -91.88429673205827 45.99888851488066
vertex 1351.9647498166917 -90.78429695312583 69.79888853804115
vertex 1351.964750259574 -90.78429684155445 45.9988885412819
endloop
endfacet
facet normal -0.6757246051403795 0.7371541616296271 -9.11853437113197e-09
outer loop
vertex 1351.9647498166917 -90.78429695312583 69.79888853804115
vertex 1350.7647503026262 -91.88429673205827 45.99888851488066
vertex 1350.764749859744 -91.88429684362967 69.79888851163994
endloop
endfacet
facet normal 9.003741265624241e-17 -1.0 -4.687873851460094e-09
outer loop
vertex 1340.764749698037 -105.48429684385971 69.79888829168844
vertex 1337.764750140919 -105.48429673228834 45.998888237309814
vertex 1340.764750140919 -105.48429673228834 45.998888294929166
endloop
endfacet
facet normal 9.003741265624241e-17 -1.0 -4.687873851460094e-09
outer loop
vertex 1337.764750140919 -105.48429673228834 45.998888237309814
vertex 1340.764749698037 -105.48429684385971 69.79888829168844
vertex 1337.7647496980367 -105.48429684385971 69.79888823406908
endloop
endfacet
facet normal -0.7371541616296761 -0.6757246051403258 -1.688504358773935e-08
outer loop
vertex 1336.0647502509792 -110.28429675819758 45.99888815527748
vertex 1337.1647496986004 -111.48429682671674 69.7988881617509
vertex 1336.0647498080968 -110.28429686976894 69.79888815203674
endloop
endfacet
facet normal -0.7371541616296761 -0.6757246051403258 -1.688504358773935e-08
outer loop
vertex 1337.1647496986004 -111.48429682671674 69.7988881617509
vertex 1336.0647502509792 -110.28429675819758 45.99888815527748
vertex 1337.1647501414827 -111.48429671514538 45.99888816499163
endloop
endfacet
facet normal 0.9999999999999998 -1.6022919089450744e-16 1.860849818739135e-08
outer loop
vertex 1340.764749698037 -105.48429684385971 69.79888829168844
vertex 1340.764750140919 -99.48429690449876 45.998888346592395
vertex 1340.764749698037 -99.48429701607016 69.79888834335168
endloop
endfacet
facet normal 0.9999999999999998 -1.6022919089450744e-16 1.860849818739135e-08
outer loop
vertex 1340.764750140919 -99.48429690449876 45.998888346592395
vertex 1340.764749698037 -105.48429684385971 69.79888829168844
vertex 1340.764750140919 -105.48429673228834 45.998888294929166
endloop
endfacet
facet normal -0.6757246051403795 0.7371541616296271 -9.11853437113197e-09
outer loop
vertex 1344.7647501409301 -91.88429673205792 45.998888424530016
vertex 1345.9647496549958 -90.78429695312548 69.79888844769054
vertex 1345.964750097878 -90.78429684155408 45.998888450931275
endloop
endfacet
facet normal -0.6757246051403795 0.7371541616296271 -9.11853437113197e-09
outer loop
vertex 1345.9647496549958 -90.78429695312548 69.79888844769054
vertex 1344.7647501409301 -91.88429673205792 45.998888424530016
vertex 1344.764749698048 -91.8842968436293 69.79888842128928
endloop
endfacet
facet normal -2.8560319622176327e-08 -0.9999999999999998 -4.687874382924751e-09
outer loop
vertex 1337.764749698601 -111.48429684385293 69.79888817667766
vertex 1337.1647501414827 -111.48429671514538 45.99888816499163
vertex 1337.764750141483 -111.48429673228156 45.998888179918396
endloop
endfacet
facet normal -2.8560319622176327e-08 -0.9999999999999998 -4.687874382924751e-09
outer loop
vertex 1337.1647501414827 -111.48429671514538 45.99888816499163
vertex 1337.764749698601 -111.48429684385293 69.79888817667766
vertex 1337.1647496986004 -111.48429682671674 69.7988881617509
endloop
endfacet
facet normal 1.8608498187391342e-08 4.687873851460088e-09 -0.9999999999999998
outer loop
vertex 1356.7647501304157 -91.88429673205827 45.99888862364248
vertex 1354.9647501734676 -90.78429684155462 45.99888858496799
vertex 1355.5647501734682 -90.78429684155462 45.99888859211777
endloop
endfacet
facet normal 1.8608498187391342e-08 4.687873851460088e-09 -0.9999999999999998
outer loop
vertex 1354.9647501734676 -90.78429684155462 45.99888858496799
vertex 1356.7647501304157 -91.88429673205827 45.99888862364248
vertex 1356.1647501304155 -91.88429673205864 45.99888861531088
endloop
endfacet
facet normal 1.8608498187391342e-08 4.687873851460088e-09 -0.9999999999999998
outer loop
vertex 1356.1647501304155 -91.88429673205864 45.99888861531088
vertex 1356.7647501304157 -91.88429673205827 45.99888862364248
vertex 1356.7647501409438 -92.48429673205828 45.99888862670306
endloop
endfacet
facet normal 1.8608498187391342e-08 4.687873851460088e-09 -0.9999999999999998
outer loop
vertex 1356.1647501304155 -91.88429673205864 45.99888861531088
vertex 1356.7647501409438 -92.48429673205828 45.99888862670306
vertex 1351.3647503026261 -91.88429673205864 45.998888525759725
endloop
endfacet
facet normal 1.8608498187391342e-08 4.687873851460088e-09 -0.9999999999999998
outer loop
vertex 1351.3647503026261 -91.88429673205864 45.998888525759725
vertex 1351.964750259574 -90.78429684155445 45.9988885412819
vertex 1352.5647502595743 -90.78429684155445 45.99888854906855
endloop
endfacet
facet normal 1.8608498187391342e-08 4.687873851460088e-09 -0.9999999999999998
outer loop
vertex 1351.964750259574 -90.78429684155445 45.9988885412819
vertex 1351.3647503026261 -91.88429673205864 45.998888525759725
vertex 1350.7647503026262 -91.88429673205827 45.99888851488066
endloop
endfacet
facet normal 1.8608498187391342e-08 4.687873851460088e-09 -0.9999999999999998
outer loop
vertex 1350.7647503026262 -91.88429673205827 45.99888851488066
vertex 1351.3647503026261 -91.88429673205864 45.998888525759725
vertex 1350.1647503131412 -91.88429673205827 45.99888851271746
endloop
endfacet
facet normal 1.8608498187391342e-08 4.687873851460088e-09 -0.9999999999999998
outer loop
vertex 1350.1647503131412 -91.88429673205827 45.99888851271746
vertex 1351.3647503026261 -91.88429673205864 45.998888525759725
vertex 1350.7647503131425 -92.48429673229506 45.998888542962
endloop
endfacet
facet normal 1.8608498187391342e-08 4.687873851460088e-09 -0.9999999999999998
outer loop
vertex 1350.1647503131412 -91.88429673205827 45.99888851271746
vertex 1350.7647503131425 -92.48429673229506 45.998888542962
vertex 1350.1647503131417 -94.88429673229511 45.998888521755966
endloop
endfacet
facet normal 1.8608498187391342e-08 4.687873851460088e-09 -0.9999999999999998
outer loop
vertex 1350.7647503131425 -92.48429673229506 45.998888542962
vertex 1351.3647503026261 -91.88429673205864 45.998888525759725
vertex 1356.7647501409438 -92.48429673205828 45.99888862670306
endloop
endfacet
facet normal 1.8608498187391342e-08 4.687873851460088e-09 -0.9999999999999998
outer loop
vertex 1350.1647503131417 -94.88429673229511 45.998888521755966
vertex 1350.7647503131425 -92.48429673229506 45.998888542962
vertex 1350.7647503131425 -95.4842967322951 45.998888530046194
endloop
endfacet
facet normal 1.8608498187391342e-08 4.687873851460088e-09 -0.9999999999999998
outer loop
vertex 1350.1647503131417 -94.88429673229511 45.998888521755966
vertex 1350.7647503131425 -95.4842967322951 45.998888530046194
vertex 1345.3647501409305 -94.88429673229511 45.99888844868424
endloop
endfacet
facet normal 1.8608498187391342e-08 4.687873851460088e-09 -0.9999999999999998
outer loop
vertex 1345.3647501409303 -91.88429673205827 45.99888843540908
vertex 1345.964750097878 -90.78429684155408 45.998888450931275
vertex 1346.5647500978785 -90.78429684155408 45.998888458717936
endloop
endfacet
facet normal 1.8608498187391342e-08 4.687873851460088e-09 -0.9999999999999998
outer loop
vertex 1345.964750097878 -90.78429684155408 45.998888450931275
vertex 1345.3647501409303 -91.88429673205827 45.99888843540908
vertex 1344.7647501409301 -91.88429673205792 45.998888424530016
endloop
endfacet
facet normal 1.8608498187391342e-08 4.687873851460088e-09 -0.9999999999999998
outer loop
vertex 1344.7647501409301 -91.88429673205792 45.998888424530016
vertex 1345.3647501409303 -91.88429673205827 45.99888843540908
vertex 1343.164749969272 -91.88429673205827 45.99888837614896
endloop
endfacet
facet normal 1.8608498187391342e-08 4.687873851460088e-09 -0.9999999999999998
outer loop
vertex 1343.164749969272 -91.88429673205827 45.99888837614896
vertex 1345.3647501409303 -91.88429673205827 45.99888843540908
vertex 1344.7647501409315 -92.48429673229506 45.998888453554926
endloop
endfacet
facet normal 1.8608498187391342e-08 4.687873851460088e-09 -0.9999999999999998
outer loop
vertex 1344.7647501409315 -92.48429673229506 45.998888453554926
vertex 1345.3647501409303 -91.88429673205827 45.99888843540908
vertex 1345.3647501409305 -94.88429673229511 45.99888844868424
endloop
endfacet
facet normal 1.8608498187391342e-08 4.687873851460088e-09 -0.9999999999999998
outer loop
vertex 1343.164749969272 -91.88429673205827 45.99888837614896
vertex 1344.7647501409315 -92.48429673229506 45.998888453554926
vertex 1342.5647499692718 -91.88429673205864 45.998888367817344
endloop
endfacet
facet normal 1.8608498187391342e-08 4.687873851460088e-09 -0.9999999999999998
outer loop
vertex 1342.5647499692718 -91.88429673205864 45.998888367817344
vertex 1344.7647501409315 -92.48429673229506 45.998888453554926
vertex 1337.7647501414824 -91.88429673205864 45.99888827826619
endloop
endfacet
facet normal 1.8608498187391342e-08 4.687873851460088e-09 -0.9999999999999998
outer loop
vertex 1337.7647501414824 -91.88429673205864 45.99888827826619
vertex 1344.7647501409315 -92.48429673229506 45.998888453554926
vertex 1337.1647501414823 -92.48429673205813 45.998888265371065
endloop
endfacet
facet normal 1.8608498187391342e-08 4.687873851460088e-09 -0.9999999999999998
outer loop
vertex 1344.7647501409315 -92.48429673229506 45.998888453554926
vertex 1345.3647501409305 -94.88429673229511 45.99888844868424
vertex 1344.7647501409315 -95.4842967322951 45.99888844063912
endloop
endfacet
facet normal 1.8608498187391342e-08 4.687873851460088e-09 -0.9999999999999998
outer loop
vertex 1344.7647501409315 -95.4842967322951 45.99888844063912
vertex 1345.3647501409305 -94.88429673229511 45.99888844868424
vertex 1350.7647503131425 -95.4842967322951 45.998888530046194
endloop
endfacet
facet normal 1.8608498187391342e-08 4.687873851460088e-09 -0.9999999999999998
outer loop
vertex 1337.1647501414823 -92.48429673205813 45.998888265371065
vertex 1337.764750140919 -92.48429673229506 45.99888834924669
vertex 1337.1647501414823 -97.28429655984768 45.99888822634422
endloop
endfacet
facet normal 1.8608498187391342e-08 4.687873851460088e-09 -0.9999999999999998
outer loop
vertex 1337.764750140919 -92.48429673229506 45.99888834924669
vertex 1337.1647501414823 -92.48429673205813 45.998888265371065
vertex 1344.7647501409315 -92.48429673229506 45.998888453554926
endloop
endfacet
facet normal 1.8608498187391342e-08 4.687873851460088e-09 -0.9999999999999998
outer loop
vertex 1337.1647501414823 -97.28429655984768 45.99888822634422
vertex 1337.764750140919 -92.48429673229506 45.99888834924669
vertex 1337.764750140919 -99.48429690449876 45.99888828897304
endloop
endfacet
facet normal 1.8608498187391342e-08 4.687873851460088e-09 -0.9999999999999998
outer loop
vertex 1337.1647501414823 -97.28429655984768 45.99888822634422
vertex 1337.764750140919 -99.48429690449876 45.99888828897304
vertex 1337.1647501414818 -97.88429655984768 45.99888822178071
endloop
endfacet
facet normal 1.8608498187391342e-08 4.687873851460088e-09 -0.9999999999999998
outer loop
vertex 1337.1647501414818 -97.88429655984768 45.99888822178071
vertex 1337.764750140919 -99.48429690449876 45.99888828897304
vertex 1337.1647501414823 -99.48429690449876 45.99888824742707
endloop
endfacet
facet normal 1.8608498187391342e-08 4.687873851460088e-09 -0.9999999999999998
outer loop
vertex 1337.1647501414823 -97.28429655984768 45.99888822634422
vertex 1336.064750250978 -96.68429660289986 45.99888820893476
vertex 1336.064750250978 -96.08429660289953 45.998888210405866
endloop
endfacet
facet normal 1.8608498187391342e-08 4.687873851460088e-09 -0.9999999999999998
outer loop
vertex 1336.064750250978 -96.68429660289986 45.99888820893476
vertex 1337.1647501414823 -97.28429655984768 45.99888822634422
vertex 1337.1647501414818 -97.88429655984768 45.99888822178071
endloop
endfacet
facet normal 1.8608498187391342e-08 4.687873851460088e-09 -0.9999999999999998
outer loop
vertex 1340.764750140919 -99.48429690449876 45.998888346592395
vertex 1340.1647501409175 -100.08429690449877 45.998888319397494
vertex 1337.764750140919 -99.48429690449876 45.99888828897304
endloop
endfacet
facet normal 1.8608498187391342e-08 4.687873851460088e-09 -0.9999999999999998
outer loop
vertex 1340.1647501409175 -100.08429690449877 45.998888319397494
vertex 1340.764750140919 -99.48429690449876 45.998888346592395
vertex 1340.764750140919 -105.48429673228834 45.998888294929166
endloop
endfacet
facet normal 1.8608498187391342e-08 4.687873851460088e-09 -0.9999999999999998
outer loop
vertex 1337.764750140919 -99.48429690449876 45.99888828897304
vertex 1340.1647501409175 -100.08429690449877 45.998888319397494
vertex 1337.1647501414823 -99.48429690449876 45.99888824742707
endloop
endfacet
facet normal 1.8608498187391342e-08 4.687873851460088e-09 -0.9999999999999998
outer loop
vertex 1340.1647501409175 -100.08429690449877 45.998888319397494
vertex 1340.764750140919 -105.48429673228834 45.998888294929166
vertex 1340.1647501409182 -104.88429673228835 45.99888828030544
endloop
endfacet
facet normal 1.8608498187391342e-08 4.687873851460088e-09 -0.9999999999999998
outer loop
vertex 1340.1647501409182 -104.88429673228835 45.99888828030544
vertex 1340.764750140919 -105.48429673228834 45.998888294929166
vertex 1337.1647501414825 -104.88429673228835 45.99888821034676
endloop
endfacet
facet normal 1.8608498187391342e-08 4.687873851460088e-09 -0.9999999999999998
outer loop
vertex 1337.1647501414825 -104.88429673228835 45.99888821034676
vertex 1336.0647502509782 -104.28429677534055 45.9988881921065
vertex 1336.0647502509782 -103.68429677534021 45.99888819313732
endloop
endfacet
facet normal 1.8608498187391342e-08 4.687873851460088e-09 -0.9999999999999998
outer loop
vertex 1336.0647502509782 -104.28429677534055 45.9988881921065
vertex 1337.1647501414825 -104.88429673228835 45.99888821034676
vertex 1337.1647501414823 -105.48429673228834 45.99888820622354
endloop
endfacet
facet normal 1.8608498187391342e-08 4.687873851460088e-09 -0.9999999999999998
outer loop
vertex 1337.1647501414823 -105.48429673228834 45.99888820622354
vertex 1337.1647501414825 -104.88429673228835 45.99888821034676
vertex 1340.764750140919 -105.48429673228834 45.998888294929166
endloop
endfacet
facet normal 1.8608498187391342e-08 4.687873851460088e-09 -0.9999999999999998
outer loop
vertex 1337.1647501414823 -105.48429673228834 45.99888820622354
vertex 1340.764750140919 -105.48429673228834 45.998888294929166
vertex 1337.764750140919 -105.48429673228834 45.998888237309814
endloop
endfacet
facet normal 1.8608498187391342e-08 4.687873851460088e-09 -0.9999999999999998
outer loop
vertex 1337.1647501414823 -105.48429673228834 45.99888820622354
vertex 1337.764750140919 -105.48429673228834 45.998888237309814
vertex 1337.764750141483 -111.48429673228156 45.998888179918396
endloop
endfacet
facet normal 1.8608498187391342e-08 4.687873851460088e-09 -0.9999999999999998
outer loop
vertex 1337.1647501414823 -105.48429673228834 45.99888820622354
vertex 1337.764750141483 -111.48429673228156 45.998888179918396
vertex 1337.1647501414832 -106.08429688735582 45.99888820902227
endloop
endfacet
facet normal 1.8608498187391342e-08 4.687873851460088e-09 -0.9999999999999998
outer loop
vertex 1337.1647501414832 -106.08429688735582 45.99888820902227
vertex 1337.764750141483 -111.48429673228156 45.998888179918396
vertex 1337.1647501414832 -110.88429671514537 45.99888817351774
endloop
endfacet
facet normal 1.8608498187391342e-08 4.687873851460088e-09 -0.9999999999999998
outer loop
vertex 1337.1647501414832 -110.88429671514537 45.99888817351774
vertex 1337.764750141483 -111.48429673228156 45.998888179918396
vertex 1337.1647501414827 -111.48429671514538 45.99888816499163
endloop
endfacet
facet normal 1.8608498187391342e-08 4.687873851460088e-09 -0.9999999999999998
outer loop
vertex 1337.1647501414832 -110.88429671514537 45.99888817351774
vertex 1336.0647502509792 -110.28429675819758 45.99888815527748
vertex 1336.0647502509792 -109.68429675819723 45.9988881563083
endloop
endfacet
facet normal 1.8608498187391342e-08 4.687873851460088e-09 -0.9999999999999998
outer loop
vertex 1336.0647502509792 -110.28429675819758 45.99888815527748
vertex 1337.1647501414832 -110.88429671514537 45.99888817351774
vertex 1337.1647501414827 -111.48429671514538 45.99888816499163
endloop
endfacet
facet normal 1.8608498187391342e-08 4.687873851460088e-09 -0.9999999999999998
outer loop
vertex 1337.1647501414832 -106.08429688735582 45.99888820902227
vertex 1336.0647502509792 -106.6842968443034 45.998888165578364
vertex 1337.1647501414823 -105.48429673228834 45.99888820622354
endloop
endfacet
facet normal 1.8608498187391342e-08 4.687873851460088e-09 -0.9999999999999998
outer loop
vertex 1336.0647502509792 -106.6842968443034 45.998888165578364
vertex 1337.1647501414832 -106.08429688735582 45.99888820902227
vertex 1336.0647502509792 -107.2842968443038 45.998888165184425
endloop
endfacet
facet normal 1.8608498187391342e-08 4.687873851460088e-09 -0.9999999999999998
outer loop
vertex 1337.1647501414823 -99.48429690449876 45.99888824742707
vertex 1337.1647501414825 -100.08429690449877 45.99888824585129
vertex 1336.0647502509785 -100.68429686144636 45.998888202407386
endloop
endfacet
facet normal 1.8608498187391342e-08 4.687873851460088e-09 -0.9999999999999998
outer loop
vertex 1337.1647501414825 -100.08429690449877 45.99888824585129
vertex 1337.1647501414823 -99.48429690449876 45.99888824742707
vertex 1340.1647501409175 -100.08429690449877 45.998888319397494
endloop
endfacet
facet normal 1.8608498187391342e-08 4.687873851460088e-09 -0.9999999999999998
outer loop
vertex 1336.0647502509785 -100.68429686144636 45.998888202407386
vertex 1337.1647501414825 -100.08429690449877 45.99888824585129
vertex 1336.0647502509785 -101.28429686144675 45.99888820201345
endloop
endfacet
facet normal 1.8608498187391342e-08 4.687873851460088e-09 -0.9999999999999998
outer loop
vertex 1337.7647501414824 -91.88429673205864 45.99888827826619
vertex 1338.3647500984302 -90.78429684155445 45.99888829378838
vertex 1338.9647500984306 -90.78429684155445 45.99888830157502
endloop
endfacet
facet normal 1.8608498187391342e-08 4.687873851460088e-09 -0.9999999999999998
outer loop
vertex 1338.3647500984302 -90.78429684155445 45.99888829378838
vertex 1337.7647501414824 -91.88429673205864 45.99888827826619
vertex 1337.1647501414823 -91.88429673205827 45.99888826738712
endloop
endfacet
facet normal 1.8608498187391342e-08 4.687873851460088e-09 -0.9999999999999998
outer loop
vertex 1337.1647501414823 -91.88429673205827 45.99888826738712
vertex 1337.7647501414824 -91.88429673205864 45.99888827826619
vertex 1336.0647502509782 -93.0842966890057 45.998888221877394
endloop
endfacet
facet normal 1.8608498187391342e-08 4.687873851460088e-09 -0.9999999999999998
outer loop
vertex 1336.0647502509782 -93.0842966890057 45.998888221877394
vertex 1337.7647501414824 -91.88429673205864 45.99888827826619
vertex 1337.1647501414823 -92.48429673205813 45.998888265371065
endloop
endfacet
facet normal 1.8608498187391342e-08 4.687873851460088e-09 -0.9999999999999998
outer loop
vertex 1336.0647502509782 -93.0842966890057 45.998888221877394
vertex 1337.1647501414823 -92.48429673205813 45.998888265371065
vertex 1336.0647502509782 -93.68429668900608 45.99888822104315
endloop
endfacet
facet normal 1.8608498187391342e-08 4.687873851460088e-09 -0.9999999999999998
outer loop
vertex 1343.164749969272 -91.88429673205827 45.99888837614896
vertex 1341.3647500123238 -90.78429684155462 45.99888833747447
vertex 1341.9647500123242 -90.78429684155462 45.998888344624234
endloop
endfacet
facet normal 1.8608498187391342e-08 4.687873851460088e-09 -0.9999999999999998
outer loop
vertex 1341.3647500123238 -90.78429684155462 45.99888833747447
vertex 1343.164749969272 -91.88429673205827 45.99888837614896
vertex 1342.5647499692718 -91.88429673205864 45.998888367817344
endloop
endfacet
facet normal 1.8608498187391342e-08 4.687873851460088e-09 -0.9999999999999998
outer loop
vertex 1350.7647503026262 -91.88429673205827 45.99888851488066
vertex 1348.9647500117717 -90.78429684155427 45.998888494617375
vertex 1349.564750011772 -90.78429684155427 45.998888501767134
endloop
endfacet
facet normal 1.8608498187391342e-08 4.687873851460088e-09 -0.9999999999999998
outer loop
vertex 1348.9647500117717 -90.78429684155427 45.998888494617375
vertex 1350.7647503026262 -91.88429673205827 45.99888851488066
vertex 1350.1647503131412 -91.88429673205827 45.99888851271746
endloop
endfacet
facet normal 0.6757246051403896 -0.7371541616296179 9.1185343711322e-09
outer loop
vertex 1346.5647496549961 -90.78429695312548 69.79888845547723
vertex 1345.3647501409303 -91.88429673205827 45.99888843540908
vertex 1346.5647500978785 -90.78429684155408 45.998888458717936
endloop
endfacet
facet normal 0.6757246051403896 -0.7371541616296179 9.1185343711322e-09
outer loop
vertex 1345.3647501409303 -91.88429673205827 45.99888843540908
vertex 1346.5647496549961 -90.78429695312548 69.79888845547723
vertex 1345.364749698048 -91.88429684362967 69.79888843216834
endloop
endfacet
facet normal 0.7371541616296161 -0.6757246051403913 1.0549620173286864e-08
outer loop
vertex 1336.064749808097 -107.28429695587516 69.79888816194368
vertex 1337.1647501414832 -106.08429688735582 45.99888820902227
vertex 1337.164749698601 -106.08429699892719 69.79888820578154
endloop
endfacet
facet normal 0.7371541616296161 -0.6757246051403913 1.0549620173286864e-08
outer loop
vertex 1337.1647501414832 -106.08429688735582 45.99888820902227
vertex 1336.064749808097 -107.28429695587516 69.79888816194368
vertex 1336.0647502509792 -107.2842968443038 45.998888165184425
endloop
endfacet
facet normal -0.9999999999999998 -1.5024666686491245e-13 -1.8608498187392047e-08
outer loop
vertex 1340.1647501409175 -100.08429690449877 45.998888319397494
vertex 1340.164749698036 -104.88429684385972 69.7988882770647
vertex 1340.1647496980354 -100.08429701607015 69.79888831615676
endloop
endfacet
facet normal -0.9999999999999998 -1.5024666686491245e-13 -1.8608498187392047e-08
outer loop
vertex 1340.164749698036 -104.88429684385972 69.7988882770647
vertex 1340.1647501409175 -100.08429690449877 45.998888319397494
vertex 1340.1647501409182 -104.88429673228835 45.99888828030544
endloop
endfacet
facet normal -0.9999999999999998 -2.258955450311611e-13 -1.86084981873924e-08
outer loop
vertex 1337.1647496985997 -97.88429667141907 69.79888821853997
vertex 1337.1647501414823 -99.48429690449876 45.99888824742707
vertex 1337.1647496986 -99.48429701607016 69.79888824418633
endloop
endfacet
facet normal -0.9999999999999998 -2.258955450311611e-13 -1.86084981873924e-08
outer loop
vertex 1337.1647501414823 -99.48429690449876 45.99888824742707
vertex 1337.1647496985997 -97.88429667141907 69.79888821853997
vertex 1337.1647501414818 -97.88429655984768 45.99888822178071
endloop
endfacet
facet normal -0.737154161629619 0.6757246051403882 -1.0549620173286933e-08
outer loop
vertex 1337.1647501414823 -99.48429690449876 45.99888824742707
vertex 1336.0647498080964 -100.68429697301775 69.79888819916664
vertex 1337.1647496986 -99.48429701607016 69.79888824418633
endloop
endfacet
facet normal -0.737154161629619 0.6757246051403882 -1.0549620173286933e-08
outer loop
vertex 1336.0647498080964 -100.68429697301775 69.79888819916664
vertex 1337.1647501414823 -99.48429690449876 45.99888824742707
vertex 1336.0647502509785 -100.68429686144636 45.998888202407386
endloop
endfacet
facet normal -8.745927173762632e-17 1.0 4.687873851460095e-09
outer loop
vertex 1337.7647501414824 -91.88429673205864 45.99888827826619
vertex 1342.5647495263897 -91.88429684363003 69.79888836457661
vertex 1342.5647499692718 -91.88429673205864 45.998888367817344
endloop
endfacet
facet normal -8.745927173762632e-17 1.0 4.687873851460095e-09
outer loop
vertex 1342.5647495263897 -91.88429684363003 69.79888836457661
vertex 1337.7647501414824 -91.88429673205864 45.99888827826619
vertex 1337.7647496986 -91.88429684363003 69.79888827502546
endloop
endfacet
facet normal -0.9999999999999998 1.3764291230964944e-16 -1.8608498187391342e-08
outer loop
vertex 1337.1647501414832 -106.08429688735582 45.99888820902227
vertex 1337.164749698601 -110.88429682671674 69.798888170277
vertex 1337.164749698601 -106.08429699892719 69.79888820578154
endloop
endfacet
facet normal -0.9999999999999998 1.3764291230964944e-16 -1.8608498187391342e-08
outer loop
vertex 1337.164749698601 -110.88429682671674 69.798888170277
vertex 1337.1647501414832 -106.08429688735582 45.99888820902227
vertex 1337.1647501414832 -110.88429671514537 45.99888817351774
endloop
endfacet
facet normal 0.7371541616296053 0.6757246051404031 1.6885043587738393e-08
outer loop
vertex 1337.1647501414832 -110.88429671514537 45.99888817351774
vertex 1336.0647498080968 -109.6842968697686 69.79888815306757
vertex 1337.164749698601 -110.88429682671674 69.798888170277
endloop
endfacet
facet normal 0.7371541616296053 0.6757246051404031 1.6885043587738393e-08
outer loop
vertex 1336.0647498080968 -109.6842968697686 69.79888815306757
vertex 1337.1647501414832 -110.88429671514537 45.99888817351774
vertex 1336.0647502509792 -109.68429675819723 45.9988881563083
endloop
endfacet
facet normal 0.7371541616296117 0.6757246051403962 1.688504358773848e-08
outer loop
vertex 1337.1647496986 -97.28429667141907 69.79888822310348
vertex 1336.064750250978 -96.08429660289953 45.998888210405866
vertex 1336.0647498080957 -96.08429671447091 69.79888820716513
endloop
endfacet
facet normal 0.7371541616296117 0.6757246051403962 1.688504358773848e-08
outer loop
vertex 1336.064750250978 -96.08429660289953 45.998888210405866
vertex 1337.1647496986 -97.28429667141907 69.79888822310348
vertex 1337.1647501414823 -97.28429655984768 45.99888822634422
endloop
endfacet
facet normal -0.9999999999999998 4.5625210141464775e-17 -1.8608498187391346e-08
outer loop
vertex 1336.064750250978 -96.08429660289953 45.998888210405866
vertex 1336.0647498080957 -96.68429671447124 69.79888820569403
vertex 1336.0647498080957 -96.08429671447091 69.79888820716513
endloop
endfacet
facet normal -0.9999999999999998 4.5625210141464775e-17 -1.8608498187391346e-08
outer loop
vertex 1336.0647498080957 -96.68429671447124 69.79888820569403
vertex 1336.064750250978 -96.08429660289953 45.998888210405866
vertex 1336.064750250978 -96.68429660289986 45.99888820893476
endloop
endfacet
facet normal -0.7371541616296272 -0.6757246051403792 -1.6885043587738688e-08
outer loop
vertex 1336.064750250978 -96.68429660289986 45.99888820893476
vertex 1337.1647496985997 -97.88429667141907 69.79888821853997
vertex 1336.0647498080957 -96.68429671447124 69.79888820569403
endloop
endfacet
facet normal -0.7371541616296272 -0.6757246051403792 -1.6885043587738688e-08
outer loop
vertex 1337.1647496985997 -97.88429667141907 69.79888821853997
vertex 1336.064750250978 -96.68429660289986 45.99888820893476
vertex 1337.1647501414818 -97.88429655984768 45.99888822178071
endloop
endfacet
facet normal -6.083804995140145e-17 1.0 4.687873851460092e-09
outer loop
vertex 1351.964750259574 -90.78429684155445 45.9988885412819
vertex 1352.5647498166923 -90.78429695312583 69.79888854582781
vertex 1352.5647502595743 -90.78429684155445 45.99888854906855
endloop
endfacet
facet normal -6.083804995140145e-17 1.0 4.687873851460092e-09
outer loop
vertex 1352.5647498166923 -90.78429695312583 69.79888854582781
vertex 1351.964750259574 -90.78429684155445 45.9988885412819
vertex 1351.9647498166917 -90.78429695312583 69.79888853804115
endloop
endfacet
facet normal -0.9999999999999998 3.775085258314449e-14 -1.8608498187391167e-08
outer loop
vertex 1337.1647501414823 -92.48429673205813 45.998888265371065
vertex 1337.1647496986 -97.28429667141907 69.79888822310348
vertex 1337.1647496986002 -92.48429684362951 69.79888826213033
endloop
endfacet
facet normal -0.9999999999999998 3.775085258314449e-14 -1.8608498187391167e-08
outer loop
vertex 1337.1647496986 -97.28429667141907 69.79888822310348
vertex 1337.1647501414823 -92.48429673205813 45.998888265371065
vertex 1337.1647501414823 -97.28429655984768 45.99888822634422
endloop
endfacet
facet normal 0.6757246051403742 0.7371541616296318 1.6029905808728928e-08
outer loop
vertex 1355.5647501734682 -90.78429684155462 45.99888859211777
vertex 1356.7647496875336 -91.88429684362967 69.79888862040173
vertex 1356.7647501304157 -91.88429673205827 45.99888862364248
endloop
endfacet
facet normal 0.6757246051403742 0.7371541616296318 1.6029905808728928e-08
outer loop
vertex 1356.7647496875336 -91.88429684362967 69.79888862040173
vertex 1355.5647501734682 -90.78429684155462 45.99888859211777
vertex 1355.5647497305858 -90.78429695312602 69.79888858887703
endloop
endfacet
facet normal -0.9999999999999998 1.2217658768893888e-17 -1.8608498187391346e-08
outer loop
vertex 1336.0647502509785 -100.68429686144636 45.998888202407386
vertex 1336.0647498080964 -101.28429697301813 69.7988881987727
vertex 1336.0647498080964 -100.68429697301775 69.79888819916664
endloop
endfacet
facet normal -0.9999999999999998 1.2217658768893888e-17 -1.8608498187391346e-08
outer loop
vertex 1336.0647498080964 -101.28429697301813 69.7988881987727
vertex 1336.0647502509785 -100.68429686144636 45.998888202407386
vertex 1336.0647502509785 -101.28429686144675 45.99888820201345
endloop
endfacet
facet normal 0.7371541616296161 -0.6757246051403913 1.0549620173286864e-08
outer loop
vertex 1336.0647498080964 -101.28429697301813 69.7988881987727
vertex 1337.1647501414825 -100.08429690449877 45.99888824585129
vertex 1337.1647496986004 -100.08429701607015 69.79888824261056
endloop
endfacet
facet normal 0.7371541616296161 -0.6757246051403913 1.0549620173286864e-08
outer loop
vertex 1337.1647501414825 -100.08429690449877 45.99888824585129
vertex 1336.0647498080964 -101.28429697301813 69.7988881987727
vertex 1336.0647502509785 -101.28429686144675 45.99888820201345
endloop
endfacet
endsolid Falla3d_ver2~
