  0
SECTION
  2
HEADER
  9
$ACADVER
  1
AC1027
  9
$ACADMAINTVER
 70
     8
  9
$DWGCODEPAGE
  3
ANSI_1252
  9
$LASTSAVEDBY
  1
iFala
  9
$REQUIREDVERSIONS
160
                 0
  9
$INSBASE
 10
0.0
 20
0.0
 30
0.0
  9
$EXTMIN
 10
1.830135209906671
 20
1.121241172891501
 30
0.0
  9
$EXTMAX
 10
91.83013520990668
 20
61.12124117289152
 30
0.4000234215950846
  9
$LIMMIN
 10
0.0
 20
0.0
  9
$LIMMAX
 10
12.0
 20
9.0
  9
$ORTHOMODE
 70
     0
  9
$REGENMODE
 70
     1
  9
$FILLMODE
 70
     1
  9
$QTEXTMODE
 70
     0
  9
$MIRRTEXT
 70
     0
  9
$LTSCALE
 40
1.0
  9
$ATTMODE
 70
     1
  9
$TEXTSIZE
 40
0.2
  9
$TRACEWID
 40
0.05
  9
$TEXTSTYLE
  7
Standard
  9
$CLAYER
  8
0
  9
$CELTYPE
  6
ByLayer
  9
$CECOLOR
 62
   256
  9
$CELTSCALE
 40
1.0
  9
$DISPSILH
 70
     0
  9
$DIMSCALE
 40
1.0
  9
$DIMASZ
 40
0.18
  9
$DIMEXO
 40
0.0625
  9
$DIMDLI
 40
0.38
  9
$DIMRND
 40
0.0
  9
$DIMDLE
 40
0.0
  9
$DIMEXE
 40
0.18
  9
$DIMTP
 40
0.0
  9
$DIMTM
 40
0.0
  9
$DIMTXT
 40
0.18
  9
$DIMCEN
 40
0.09
  9
$DIMTSZ
 40
0.0
  9
$DIMTOL
 70
     0
  9
$DIMLIM
 70
     0
  9
$DIMTIH
 70
     1
  9
$DIMTOH
 70
     1
  9
$DIMSE1
 70
     0
  9
$DIMSE2
 70
     0
  9
$DIMTAD
 70
     0
  9
$DIMZIN
 70
     0
  9
$DIMBLK
  1

  9
$DIMASO
 70
     1
  9
$DIMSHO
 70
     1
  9
$DIMPOST
  1

  9
$DIMAPOST
  1

  9
$DIMALT
 70
     0
  9
$DIMALTD
 70
     2
  9
$DIMALTF
 40
25.4
  9
$DIMLFAC
 40
1.0
  9
$DIMTOFL
 70
     0
  9
$DIMTVP
 40
0.0
  9
$DIMTIX
 70
     0
  9
$DIMSOXD
 70
     0
  9
$DIMSAH
 70
     0
  9
$DIMBLK1
  1

  9
$DIMBLK2
  1

  9
$DIMSTYLE
  2
Standard
  9
$DIMCLRD
 70
     0
  9
$DIMCLRE
 70
     0
  9
$DIMCLRT
 70
     0
  9
$DIMTFAC
 40
1.0
  9
$DIMGAP
 40
0.09
  9
$DIMJUST
 70
     0
  9
$DIMSD1
 70
     0
  9
$DIMSD2
 70
     0
  9
$DIMTOLJ
 70
     1
  9
$DIMTZIN
 70
     0
  9
$DIMALTZ
 70
     0
  9
$DIMALTTZ
 70
     0
  9
$DIMUPT
 70
     0
  9
$DIMDEC
 70
     4
  9
$DIMTDEC
 70
     4
  9
$DIMALTU
 70
     2
  9
$DIMALTTD
 70
     2
  9
$DIMTXSTY
  7
Standard
  9
$DIMAUNIT
 70
     0
  9
$DIMADEC
 70
     0
  9
$DIMALTRND
 40
0.0
  9
$DIMAZIN
 70
     0
  9
$DIMDSEP
 70
    46
  9
$DIMATFIT
 70
     3
  9
$DIMFRAC
 70
     0
  9
$DIMLDRBLK
  1

  9
$DIMLUNIT
 70
     2
  9
$DIMLWD
 70
    -2
  9
$DIMLWE
 70
    -2
  9
$DIMTMOVE
 70
     0
  9
$DIMFXL
 40
1.0
  9
$DIMFXLON
 70
     0
  9
$DIMJOGANG
 40
0.7853981633974483
  9
$DIMTFILL
 70
     0
  9
$DIMTFILLCLR
 70
     0
  9
$DIMARCSYM
 70
     0
  9
$DIMLTYPE
  6

  9
$DIMLTEX1
  6

  9
$DIMLTEX2
  6

  9
$DIMTXTDIRECTION
 70
     0
  9
$LUNITS
 70
     2
  9
$LUPREC
 70
     4
  9
$SKETCHINC
 40
0.1
  9
$FILLETRAD
 40
0.0
  9
$AUNITS
 70
     0
  9
$AUPREC
 70
     0
  9
$MENU
  1
.
  9
$ELEVATION
 40
0.0
  9
$PELEVATION
 40
0.0
  9
$THICKNESS
 40
0.0
  9
$LIMCHECK
 70
     0
  9
$CHAMFERA
 40
0.0
  9
$CHAMFERB
 40
0.0
  9
$CHAMFERC
 40
0.0
  9
$CHAMFERD
 40
0.0
  9
$SKPOLY
 70
     0
  9
$TDCREATE
 40
2456807.629544352
  9
$TDUCREATE
 40
2456807.546211019
  9
$TDUPDATE
 40
2456854.394320012
  9
$TDUUPDATE
 40
2456854.310986678
  9
$TDINDWG
 40
0.0792698843
  9
$TDUSRTIMER
 40
0.0792698843
  9
$USRTIMER
 70
     1
  9
$ANGBASE
 50
0.0
  9
$ANGDIR
 70
     0
  9
$PDMODE
 70
     0
  9
$PDSIZE
 40
0.0
  9
$PLINEWID
 40
0.0
  9
$SPLFRAME
 70
     0
  9
$SPLINETYPE
 70
     6
  9
$SPLINESEGS
 70
     8
  9
$HANDSEED
  5
4B8
  9
$SURFTAB1
 70
     6
  9
$SURFTAB2
 70
     6
  9
$SURFTYPE
 70
     6
  9
$SURFU
 70
     6
  9
$SURFV
 70
     6
  9
$UCSBASE
  2

  9
$UCSNAME
  2

  9
$UCSORG
 10
0.0
 20
0.0
 30
0.0
  9
$UCSXDIR
 10
1.0
 20
0.0
 30
0.0
  9
$UCSYDIR
 10
0.0
 20
1.0
 30
0.0
  9
$UCSORTHOREF
  2

  9
$UCSORTHOVIEW
 70
     0
  9
$UCSORGTOP
 10
0.0
 20
0.0
 30
0.0
  9
$UCSORGBOTTOM
 10
0.0
 20
0.0
 30
0.0
  9
$UCSORGLEFT
 10
0.0
 20
0.0
 30
0.0
  9
$UCSORGRIGHT
 10
0.0
 20
0.0
 30
0.0
  9
$UCSORGFRONT
 10
0.0
 20
0.0
 30
0.0
  9
$UCSORGBACK
 10
0.0
 20
0.0
 30
0.0
  9
$PUCSBASE
  2

  9
$PUCSNAME
  2

  9
$PUCSORG
 10
0.0
 20
0.0
 30
0.0
  9
$PUCSXDIR
 10
1.0
 20
0.0
 30
0.0
  9
$PUCSYDIR
 10
0.0
 20
1.0
 30
0.0
  9
$PUCSORTHOREF
  2

  9
$PUCSORTHOVIEW
 70
     0
  9
$PUCSORGTOP
 10
0.0
 20
0.0
 30
0.0
  9
$PUCSORGBOTTOM
 10
0.0
 20
0.0
 30
0.0
  9
$PUCSORGLEFT
 10
0.0
 20
0.0
 30
0.0
  9
$PUCSORGRIGHT
 10
0.0
 20
0.0
 30
0.0
  9
$PUCSORGFRONT
 10
0.0
 20
0.0
 30
0.0
  9
$PUCSORGBACK
 10
0.0
 20
0.0
 30
0.0
  9
$USERI1
 70
     0
  9
$USERI2
 70
     0
  9
$USERI3
 70
     0
  9
$USERI4
 70
     0
  9
$USERI5
 70
     0
  9
$USERR1
 40
0.0
  9
$USERR2
 40
0.0
  9
$USERR3
 40
0.0
  9
$USERR4
 40
0.0
  9
$USERR5
 40
0.0
  9
$WORLDVIEW
 70
     1
  9
$SHADEDGE
 70
     3
  9
$SHADEDIF
 70
    70
  9
$TILEMODE
 70
     1
  9
$MAXACTVP
 70
    64
  9
$PINSBASE
 10
0.0
 20
0.0
 30
0.0
  9
$PLIMCHECK
 70
     0
  9
$PEXTMIN
 10
1.000000000000000E+20
 20
1.000000000000000E+20
 30
1.000000000000000E+20
  9
$PEXTMAX
 10
-1.000000000000000E+20
 20
-1.000000000000000E+20
 30
-1.000000000000000E+20
  9
$PLIMMIN
 10
0.0
 20
0.0
  9
$PLIMMAX
 10
12.0
 20
9.0
  9
$UNITMODE
 70
     0
  9
$VISRETAIN
 70
     1
  9
$PLINEGEN
 70
     0
  9
$PSLTSCALE
 70
     1
  9
$TREEDEPTH
 70
  3020
  9
$CMLSTYLE
  2
Standard
  9
$CMLJUST
 70
     0
  9
$CMLSCALE
 40
1.0
  9
$PROXYGRAPHICS
 70
     1
  9
$MEASUREMENT
 70
     0
  9
$CELWEIGHT
370
    -1
  9
$ENDCAPS
280
     0
  9
$JOINSTYLE
280
     0
  9
$LWDISPLAY
290
     0
  9
$INSUNITS
 70
     0
  9
$HYPERLINKBASE
  1

  9
$STYLESHEET
  1

  9
$XEDIT
290
     1
  9
$CEPSNTYPE
380
     0
  9
$PSTYLEMODE
290
     1
  9
$FINGERPRINTGUID
  2
{A9089380-E62A-8944-ACE3-6856760178C3}
  9
$VERSIONGUID
  2
{F2847692-D1F1-7C44-B760-FFF5151DCE75}
  9
$EXTNAMES
290
     1
  9
$PSVPSCALE
 40
0.0
  9
$OLESTARTUP
290
     0
  9
$SORTENTS
280
   127
  9
$INDEXCTL
280
     0
  9
$HIDETEXT
280
     0
  9
$XCLIPFRAME
280
     2
  9
$HALOGAP
280
     0
  9
$OBSCOLOR
 70
   257
  9
$OBSLTYPE
280
     0
  9
$INTERSECTIONDISPLAY
280
     0
  9
$INTERSECTIONCOLOR
 70
   257
  9
$DIMASSOC
280
     1
  9
$PROJECTNAME
  1

  9
$CAMERADISPLAY
290
     0
  9
$LENSLENGTH
 40
50.0
  9
$CAMERAHEIGHT
 40
0.0
  9
$STEPSPERSEC
 40
2.0
  9
$STEPSIZE
 40
6.0
  9
$3DDWFPREC
 40
2.0
  9
$PSOLWIDTH
 40
0.25
  9
$PSOLHEIGHT
 40
4.0
  9
$LOFTANG1
 40
1.570796326794896
  9
$LOFTANG2
 40
1.570796326794896
  9
$LOFTMAG1
 40
0.0
  9
$LOFTMAG2
 40
0.0
  9
$LOFTPARAM
 70
     7
  9
$LOFTNORMALS
280
     1
  9
$LATITUDE
 40
37.795
  9
$LONGITUDE
 40
-122.394
  9
$NORTHDIRECTION
 40
0.0
  9
$TIMEZONE
 70
 -8000
  9
$LIGHTGLYPHDISPLAY
280
     1
  9
$TILEMODELIGHTSYNCH
280
     1
  9
$CMATERIAL
347
11
  9
$SOLIDHIST
280
     0
  9
$SHOWHIST
280
     1
  9
$DWFFRAME
280
     2
  9
$DGNFRAME
280
     0
  9
$REALWORLDSCALE
290
     1
  9
$INTERFERECOLOR
 62
     1
  9
$INTERFEREOBJVS
345
33
  9
$INTERFEREVPVS
346
30
  9
$CSHADOW
280
     0
  9
$SHADOWPLANELOCATION
 40
0.0
  0
ENDSEC
  0
SECTION
  2
CLASSES
  0
CLASS
  1
ACDBDICTIONARYWDFLT
  2
AcDbDictionaryWithDefault
  3
ObjectDBX Classes
 90
        0
 91
        1
280
     0
281
     0
  0
CLASS
  1
MATERIAL
  2
AcDbMaterial
  3
ObjectDBX Classes
 90
     1153
 91
        3
280
     0
281
     0
  0
CLASS
  1
VISUALSTYLE
  2
AcDbVisualStyle
  3
ObjectDBX Classes
 90
     4095
 91
       24
280
     0
281
     0
  0
CLASS
  1
SCALE
  2
AcDbScale
  3
ObjectDBX Classes
 90
     1153
 91
       17
280
     0
281
     0
  0
CLASS
  1
TABLESTYLE
  2
AcDbTableStyle
  3
ObjectDBX Classes
 90
     4095
 91
        1
280
     0
281
     0
  0
CLASS
  1
MLEADERSTYLE
  2
AcDbMLeaderStyle
  3
ACDB_MLEADERSTYLE_CLASS
 90
     4095
 91
        1
280
     0
281
     0
  0
CLASS
  1
ACDBSECTIONVIEWSTYLE
  2
AcDbSectionViewStyle
  3
ObjectDBX Classes
 90
     1025
 91
        1
280
     0
281
     0
  0
CLASS
  1
ACDBDETAILVIEWSTYLE
  2
AcDbDetailViewStyle
  3
ObjectDBX Classes
 90
     1025
 91
        1
280
     0
281
     0
  0
CLASS
  1
DICTIONARYVAR
  2
AcDbDictionaryVar
  3
ObjectDBX Classes
 90
        0
 91
       11
280
     0
281
     0
  0
CLASS
  1
PLOTSETTINGS
  2
AcDbPlotSettings
  3
ObjectDBX Classes
 90
        0
 91
        1
280
     0
281
     0
  0
CLASS
  1
CELLSTYLEMAP
  2
AcDbCellStyleMap
  3
ObjectDBX Classes
 90
     1152
 91
        1
280
     0
281
     0
  0
ENDSEC
  0
SECTION
  2
TABLES
  0
TABLE
  2
VPORT
  5
8
330
0
100
AcDbSymbolTable
 70
     1
  0
VPORT
  5
1C1
330
8
100
AcDbSymbolTableRecord
100
AcDbViewportTableRecord
  2
*Active
 70
     0
 10
0.0
 20
0.0
 11
1.0
 21
1.0
 12
32.36903972749634
 22
33.47708270152216
 13
0.0
 23
0.0
 14
1.0
 24
1.0
 15
0.0
 25
0.0
 16
0.0
 26
0.0
 36
1.0
 17
0.0
 27
0.0
 37
0.0
 40
120.8697480891963
 41
1.537330316742081
 42
50.0
 43
0.0
 44
0.0
 50
0.0
 51
0.0
 71
     0
 72
  1000
 73
     1
 74
     3
 75
     0
 76
     1
 77
     0
 78
     0
281
     0
 65
     1
110
0.0
120
0.0
130
0.0
111
1.0
121
0.0
131
0.0
112
0.0
122
1.0
132
0.0
 79
     0
146
0.0
348
2F
 60
     3
 61
     5
292
     1
282
     1
141
0.0
142
0.0
 63
   250
421
  3355443
1001
ACAD_NAV_VCDISPLAY
1070
     1
  0
ENDTAB
  0
TABLE
  2
LTYPE
  5
5
330
0
100
AcDbSymbolTable
 70
     2
  0
LTYPE
  5
5A
330
5
100
AcDbSymbolTableRecord
100
AcDbLinetypeTableRecord
  2
ByBlock
 70
     0
  3

 72
    65
 73
     0
 40
0.0
  0
LTYPE
  5
5B
330
5
100
AcDbSymbolTableRecord
100
AcDbLinetypeTableRecord
  2
ByLayer
 70
     0
  3

 72
    65
 73
     0
 40
0.0
  0
LTYPE
  5
5C
330
5
100
AcDbSymbolTableRecord
100
AcDbLinetypeTableRecord
  2
Continuous
 70
     0
  3
Solid line
 72
    65
 73
     0
 40
0.0
  0
LTYPE
  5
68
330
5
100
AcDbSymbolTableRecord
100
AcDbLinetypeTableRecord
  2
PHANTOM2
 70
     0
  3
Phantom (.5x) ___ _ _ ___ _ _ ___ _ _ ___ _ _
 72
    65
 73
     6
 40
1.25
 49
0.625
 74
     0
 49
-0.125
 74
     0
 49
0.125
 74
     0
 49
-0.125
 74
     0
 49
0.125
 74
     0
 49
-0.125
 74
     0
  0
ENDTAB
  0
TABLE
  2
LAYER
  5
2
102
{ACAD_XDICTIONARY
360
1D1
102
}
330
0
100
AcDbSymbolTable
 70
     2
  0
LAYER
  5
54
102
{ACAD_XDICTIONARY
360
1CA
102
}
330
2
100
AcDbSymbolTableRecord
100
AcDbLayerTableRecord
  2
0
 70
     0
 62
     7
  6
Continuous
370
    -3
390
F
347
21
348
0
  0
LAYER
  5
74
102
{ACAD_XDICTIONARY
360
1CC
102
}
330
2
100
AcDbSymbolTableRecord
100
AcDbLayerTableRecord
  2
Group#1
 70
     0
 62
     7
  6
Continuous
370
    -3
390
F
347
21
348
0
  0
ENDTAB
  0
TABLE
  2
STYLE
  5
3
330
0
100
AcDbSymbolTable
 70
     2
  0
STYLE
  5
55
330
3
100
AcDbSymbolTableRecord
100
AcDbTextStyleTableRecord
  2
Standard
 70
     0
 40
0.0
 41
1.0
 50
0.0
 71
     0
 42
0.2
  3
txt
  4

  0
STYLE
  5
59
330
3
100
AcDbSymbolTableRecord
100
AcDbTextStyleTableRecord
  2
Annotative
 70
     0
 40
0.0
 41
1.0
 50
0.0
 71
     0
 42
0.2
  3
txt
  4

1001
AcadAnnotative
1000
AnnotativeData
1002
{
1070
     1
1070
     1
1002
}
  0
ENDTAB
  0
TABLE
  2
VIEW
  5
6
330
0
100
AcDbSymbolTable
 70
     1
  0
ENDTAB
  0
TABLE
  2
UCS
  5
7
330
0
100
AcDbSymbolTable
 70
     0
  0
ENDTAB
  0
TABLE
  2
APPID
  5
9
330
0
100
AcDbSymbolTable
 70
     5
  0
APPID
  5
56
330
9
100
AcDbSymbolTableRecord
100
AcDbRegAppTableRecord
  2
ACAD
 70
     0
  0
APPID
  5
5D
330
9
100
AcDbSymbolTableRecord
100
AcDbRegAppTableRecord
  2
AcadAnnotative
 70
     0
  0
APPID
  5
1C0
330
9
100
AcDbSymbolTableRecord
100
AcDbRegAppTableRecord
  2
ACAD_NAV_VCDISPLAY
 70
     0
  0
APPID
  5
1C3
330
9
100
AcDbSymbolTableRecord
100
AcDbRegAppTableRecord
  2
ACAD_EXEMPT_FROM_CAD_STANDARDS
 70
     0
  0
APPID
  5
1E5
330
9
100
AcDbSymbolTableRecord
100
AcDbRegAppTableRecord
  2
ACAD_PSEXT
 70
     0
  0
ENDTAB
  0
TABLE
  2
DIMSTYLE
  5
A
330
0
100
AcDbSymbolTable
 70
     2
100
AcDbDimStyleTable
 71
     1
340
57
  0
DIMSTYLE
105
57
330
A
100
AcDbSymbolTableRecord
100
AcDbDimStyleTableRecord
  2
Standard
 70
     0
340
55
  0
DIMSTYLE
105
58
330
A
100
AcDbSymbolTableRecord
100
AcDbDimStyleTableRecord
  2
Annotative
 70
     0
340
55
1001
AcadAnnotative
1000
AnnotativeData
1002
{
1070
     1
1070
     1
1002
}
  0
ENDTAB
  0
TABLE
  2
BLOCK_RECORD
  5
1
330
0
100
AcDbSymbolTable
 70
     0
  0
BLOCK_RECORD
  5
70
330
1
100
AcDbSymbolTableRecord
100
AcDbBlockTableRecord
  2
*Model_Space
340
73
 70
     0
280
     1
281
     0
  0
BLOCK_RECORD
  5
6C
330
1
100
AcDbSymbolTableRecord
100
AcDbBlockTableRecord
  2
*Paper_Space
340
6F
 70
     0
280
     1
281
     0
  0
ENDTAB
  0
ENDSEC
  0
SECTION
  2
BLOCKS
  0
BLOCK
  5
71
330
70
100
AcDbEntity
  8
0
100
AcDbBlockBegin
  2
*Model_Space
 70
     0
 10
0.0
 20
0.0
 30
0.0
  3
*Model_Space
  1

  0
ENDBLK
  5
72
330
70
100
AcDbEntity
  8
0
100
AcDbBlockEnd
  0
BLOCK
  5
6D
330
6C
100
AcDbEntity
 67
     1
  8
0
100
AcDbBlockBegin
  2
*Paper_Space
 70
     0
 10
0.0
 20
0.0
 30
0.0
  3
*Paper_Space
  1

  0
ENDBLK
  5
6E
330
6C
100
AcDbEntity
 67
     1
  8
0
100
AcDbBlockEnd
  0
ENDSEC
  0
SECTION
  2
ENTITIES
  0
LINE
  5
75
330
70
100
AcDbEntity
  8
Group#1
 48
0.1
100
AcDbLine
 10
6.110809463522304
 20
57.08655394000422
 30
0.4000168667860875
 11
5.981399940971057
 21
57.06951685314874
 31
0.400016792874757
  0
LINE
  5
76
330
70
100
AcDbEntity
  8
Group#1
 48
0.1
100
AcDbLine
 10
6.240218986073482
 20
57.06951685314874
 30
0.4000169116536402
 11
6.110809463522304
 21
57.08655394000422
 31
0.4000168667860875
  0
LINE
  5
77
330
70
100
AcDbEntity
  8
Group#1
 48
0.1
100
AcDbLine
 10
6.564362704695888
 20
28.85011112117519
 30
0.4000046542827313
 11
6.460809314102624
 21
28.92957043247414
 31
0.4000047267512045
  0
LINE
  5
78
330
70
100
AcDbEntity
  8
Group#1
 48
0.1
100
AcDbLine
 10
9.205805333339242
 20
57.79155276220624
 30
0.4000171033560537
 11
6.70580533333916
 21
59.68579430206204
 31
0.4000179155542724
  0
LINE
  5
79
330
70
100
AcDbEntity
  8
Group#1
 48
0.1
100
AcDbLine
 10
36.56580449508053
 20
56.84155809378296
 30
0.4000228810960162
 11
36.56035267206316
 21
56.8001470406723
 31
0.400022824550364
  0
LINE
  5
7A
330
70
100
AcDbEntity
  8
Group#1
 48
0.1
100
AcDbLine
 10
36.56035267206316
 20
56.8001470406723
 30
0.400022824550364
 11
36.54436864618768
 21
56.76155807060627
 31
0.4000227696270635
  0
LINE
  5
7B
330
70
100
AcDbEntity
  8
Group#1
 48
0.1
100
AcDbLine
 10
36.54436864618768
 20
56.76155807060627
 30
0.4000227696270635
 11
36.5424955142414
 21
56.75911695206167
 31
0.4000234215950846
  0
LINE
  5
7C
330
70
100
AcDbEntity
  8
Group#1
 48
0.1
100
AcDbLine
 10
4.160353607786746
 20
56.88296380942386
 30
0.4000140088344308
 11
4.165805475580471
 21
56.84155276220746
 31
0.4000139918211895
  0
LINE
  5
7D
330
70
100
AcDbEntity
  8
Group#1
 48
0.1
100
AcDbLine
 10
4.165805475580471
 20
56.84155276220746
 30
0.4000139918211895
 11
4.16035360778671
 21
56.80014171499113
 31
0.4000139724918218
  0
LINE
  5
7E
330
70
100
AcDbEntity
  8
Group#1
 48
0.1
100
AcDbLine
 10
35.40580449514872
 20
54.09153321295121
 30
0.4000208809032111
 11
35.40580917959136
 21
31.09152622889129
 31
0.4000116411338749
  0
LINE
  5
7F
330
70
100
AcDbEntity
  8
Group#1
 48
0.1
100
AcDbLine
 10
5.005810491915838
 20
31.59155360039884
 30
0.4000048954474832
 11
5.005805807473208
 21
53.59155276220963
 31
0.4000140956474374
  0
LINE
  5
80
330
70
100
AcDbEntity
  8
Group#1
 48
0.1
100
AcDbLine
 10
3.867246340876729
 20
28.42155345057334
 30
0.400003540310343
 11
3.86911947282277
 21
28.42399456911735
 31
0.4000041951862773
  0
LINE
  5
81
330
70
100
AcDbEntity
  8
Group#1
 48
0.1
100
AcDbLine
 10
3.86911947282277
 20
28.42399456911735
 30
0.4000041951862773
 11
3.892673284661977
 21
28.45469056305601
 31
0.4000035302260346
  0
LINE
  5
82
330
70
100
AcDbEntity
  8
Group#1
 48
0.1
100
AcDbLine
 10
3.892673284661977
 20
28.45469056305601
 30
0.4000035302260346
 11
3.925810342157941
 21
28.48011757850128
 31
0.4000035255578937
  0
LINE
  5
83
330
70
100
AcDbEntity
  8
Group#1
 48
0.1
100
AcDbLine
 10
3.925810342157941
 20
28.48011757850128
 30
0.4000035255578937
 11
3.964399277657912
 21
28.49610168782671
 31
0.4000035266240666
  0
LINE
  5
84
330
70
100
AcDbEntity
  8
Group#1
 48
0.1
100
AcDbLine
 10
34.70080567294642
 20
56.686553790582
 30
0.4000232566636461
 11
34.68376858609095
 21
56.81596331313324
 31
0.4000232709509319
  0
LINE
  5
85
330
70
100
AcDbEntity
  8
Group#1
 48
0.1
100
AcDbLine
 10
33.71784275980204
 20
56.55714426803097
 30
0.4000225867287208
 11
33.76779297105431
 21
56.43655379058216
 31
0.4000225957557448
  0
LINE
  5
86
330
70
100
AcDbEntity
  8
Group#1
 48
0.1
100
AcDbLine
 10
6.094369311441212
 20
58.87155291196427
 30
0.4000170989802417
 11
6.110353420766632
 21
58.83296397646432
 31
0.4000170715787493
  0
LINE
  5
87
330
70
100
AcDbEntity
  8
Group#1
 48
0.1
100
AcDbLine
 10
6.110353420766632
 20
58.83296397646432
 30
0.4000170715787493
 11
6.115805333336695
 21
58.7915529351435
 31
0.4000170502398418
  0
LINE
  5
88
330
70
100
AcDbEntity
  8
Group#1
 48
0.1
100
AcDbLine
 10
6.115805333336695
 20
58.7915529351435
 30
0.4000170502398418
 11
6.110353510319418
 21
58.7501418820328
 31
0.4000170364177287
  0
LINE
  5
89
330
70
100
AcDbEntity
  8
Group#1
 48
0.1
100
AcDbLine
 10
6.110353510319418
 20
58.7501418820328
 30
0.4000170364177287
 11
6.094369484443891
 21
58.71155291196676
 31
0.400017031054378
  0
LINE
  5
8A
330
70
100
AcDbEntity
  8
Group#1
 48
0.1
100
AcDbLine
 10
6.094369484443891
 20
58.71155291196676
 30
0.400017031054378
 11
6.068942540658678
 21
58.6784157994841
 31
0.4000170345152845
  0
LINE
  5
8B
330
70
100
AcDbEntity
  8
Group#1
 48
0.1
100
AcDbLine
 10
6.068942540658678
 20
58.6784157994841
 30
0.4000170345152845
 11
6.038246326762283
 21
58.65486171339814
 31
0.400017640588933
  0
LINE
  5
8C
330
70
100
AcDbEntity
  8
Group#1
 48
0.1
100
AcDbLine
 10
34.45580449514901
 20
58.63155777854032
 30
0.4000212704630365
 11
34.4143934479326
 21
58.63700964633412
 31
0.400021263779752
  0
LINE
  5
8D
330
70
100
AcDbEntity
  8
Group#1
 48
0.1
100
AcDbLine
 10
34.4143934479326
 20
58.63700964633412
 30
0.400021263779752
 11
34.37580449514903
 21
58.65299371393487
 31
0.4000212623140101
  0
LINE
  5
8E
330
70
100
AcDbEntity
  8
Group#1
 48
0.1
100
AcDbLine
 10
34.37580449514903
 20
58.65299371393487
 30
0.4000212623140101
 11
34.37336848421209
 21
58.65486293086971
 31
0.4000221420154134
  0
LINE
  5
8F
330
70
100
AcDbEntity
  8
Group#1
 48
0.1
100
AcDbLine
 10
34.37336848421209
 20
58.65486293086971
 30
0.4000221420154134
 11
34.34266741015921
 21
58.67842069355053
 31
0.4000212661657143
  0
LINE
  5
90
330
70
100
AcDbEntity
  8
Group#1
 48
0.1
100
AcDbLine
 10
34.34266741015921
 20
58.67842069355053
 30
0.4000212661657143
 11
34.31724043054355
 21
58.71155777854035
 31
0.4000212750723596
  0
LINE
  5
91
330
70
100
AcDbEntity
  8
Group#1
 48
0.1
100
AcDbLine
 10
34.6543589141202
 20
28.24300419056128
 30
0.4000109802659767
 11
34.73381822541919
 21
28.34655758115459
 31
0.4000109802659767
  0
LINE
  5
92
330
70
100
AcDbEntity
  8
Group#1
 48
0.1
100
AcDbLine
 10
33.81784261038247
 20
28.72596710370584
 30
0.4000109802659767
 11
33.80080552352699
 21
28.59655758115456
 31
0.4000109802659767
  0
LINE
  5
93
330
70
100
AcDbEntity
  8
Group#1
 48
0.1
100
AcDbLine
 10
35.2058044951492
 20
59.6857948092065
 30
0.4000215911968649
 11
35.2058044951484
 21
57.59155792078039
 31
0.4000221717073053
  0
LINE
  5
94
330
70
100
AcDbEntity
  8
Group#1
 48
0.1
100
AcDbLine
 10
34.05080552352693
 20
29.0295702830468
 30
0.4000109802659767
 11
33.9472521329337
 21
28.95011097174783
 31
0.4000109802659767
  0
LINE
  5
95
330
70
100
AcDbEntity
  8
Group#1
 48
0.1
100
AcDbLine
 10
34.33021519549772
 20
57.16951670372657
 30
0.4000231086959622
 11
34.20080567294646
 21
57.18655379058207
 31
0.4000230272004738
  0
LINE
  5
96
330
70
100
AcDbEntity
  8
Group#1
 48
0.1
100
AcDbLine
 10
34.55435906353971
 20
57.04010718117531
 30
0.4000232301977599
 11
34.45080567294649
 21
57.11956649247423
 31
0.4000231779345586
  0
LINE
  5
97
330
70
100
AcDbEntity
  8
Group#1
 48
0.1
100
AcDbLine
 10
6.71080931410264
 20
28.49655773058199
 30
0.4000043936671231
 11
6.693772227247137
 21
28.62596725313323
 31
0.4000044818657303
  0
LINE
  5
98
330
70
100
AcDbEntity
  8
Group#1
 48
0.1
100
AcDbLine
 10
34.78376843667144
 20
28.72596710370584
 30
0.4000109802659767
 11
34.73381822541919
 21
28.84655758115457
 31
0.4000109802659767
  0
LINE
  5
99
330
70
100
AcDbEntity
  8
Group#1
 48
0.1
100
AcDbLine
 10
34.68376858609095
 20
56.55714426803076
 30
0.4000232200357197
 11
34.70080567294642
 21
56.686553790582
 31
0.4000232566636461
  0
LINE
  5
9A
330
70
100
AcDbEntity
  8
Group#1
 48
0.1
100
AcDbLine
 10
35.20580965372513
 20
27.59155875897377
 30
0.4000090975719434
 11
35.20580965372513
 21
25.4857952587344
 31
0.4000153360555813
  0
LINE
  5
9B
330
70
100
AcDbEntity
  8
Group#1
 48
0.1
100
AcDbLine
 10
36.54437357609015
 20
28.26155875897381
 30
0.4000084638477249
 11
36.51894659647451
 21
28.22842167398399
 31
0.4000084438098282
  0
LINE
  5
9C
330
70
100
AcDbEntity
  8
Group#1
 48
0.1
100
AcDbLine
 10
36.51894659647451
 20
28.22842167398399
 30
0.4000084438098282
 11
36.48580951148467
 21
28.20299469436833
 31
0.4000084254515938
  0
LINE
  5
9D
330
70
100
AcDbEntity
  8
Group#1
 48
0.1
100
AcDbLine
 10
36.48580951148467
 20
28.20299469436833
 30
0.4000084254515938
 11
36.4472205587011
 21
28.18701062676762
 31
0.4000084100241121
  0
LINE
  5
9E
330
70
100
AcDbEntity
  8
Group#1
 48
0.1
100
AcDbLine
 10
36.4472205587011
 20
28.18701062676762
 30
0.4000084100241121
 11
36.40580951148471
 21
28.18155875897389
 31
0.4000083985787389
  0
LINE
  5
9F
330
70
100
AcDbEntity
  8
Group#1
 48
0.1
100
AcDbLine
 10
36.26724051698102
 20
56.76155777095683
 30
0.4000227129209215
 11
36.25125640765553
 21
56.80014670645675
 31
0.4000227613028834
  0
LINE
  5
A0
330
70
100
AcDbEntity
  8
Group#1
 48
0.1
100
AcDbLine
 10
36.2691134463405
 20
56.75911692735685
 30
0.4000233049488899
 11
36.26724051698102
 21
56.76155777095683
 31
0.4000227129209215
  0
LINE
  5
A1
330
70
100
AcDbEntity
  8
Group#1
 48
0.1
100
AcDbLine
 10
36.40580951148471
 20
28.18155875897389
 30
0.4000083985787389
 11
36.36439846426836
 21
28.18701062676765
 31
0.4000083918954635
  0
LINE
  5
A2
330
70
100
AcDbEntity
  8
Group#1
 48
0.1
100
AcDbLine
 10
6.035805183513275
 20
58.93011691324549
 30
0.4000171642156318
 11
6.038246302057427
 21
58.92824378129905
 31
0.4000178173563798
  0
LINE
  5
A3
330
70
100
AcDbEntity
  8
Group#1
 48
0.1
100
AcDbLine
 10
6.038246302057427
 20
58.92824378129905
 30
0.4000178173563798
 11
6.068942295995931
 21
58.90468996946023
 31
0.4000171305769599
  0
LINE
  5
A4
330
70
100
AcDbEntity
  8
Group#1
 48
0.1
100
AcDbLine
 10
5.997221539132532
 20
26.23700561043478
 30
0.4000012035017213
 11
5.955810491916199
 21
26.23155374264101
 31
0.4000011924482468
  0
LINE
  5
A5
330
70
100
AcDbEntity
  8
Group#1
 48
0.1
100
AcDbLine
 10
5.955810491916199
 20
26.23155374264101
 30
0.4000011924482468
 11
5.914399444699794
 21
26.23700561043481
 31
0.4000011860245527
  0
LINE
  5
A6
330
70
100
AcDbEntity
  8
Group#1
 48
0.1
100
AcDbLine
 10
5.914399444699794
 20
26.23700561043481
 30
0.4000011860245527
 11
5.875810491916254
 21
26.25298967803555
 31
0.4000011846684059
  0
LINE
  5
A7
330
70
100
AcDbEntity
  8
Group#1
 48
0.1
100
AcDbLine
 10
5.875810491916254
 20
26.25298967803555
 30
0.4000011846684059
 11
5.842673406926365
 21
26.27841665765122
 31
0.4000011884722113
  0
LINE
  5
A8
330
70
100
AcDbEntity
  8
Group#1
 48
0.1
100
AcDbLine
 10
5.842673406926365
 20
26.27841665765122
 30
0.4000011884722113
 11
5.817246427310777
 21
26.31155374264102
 31
0.4000011971767666
  0
LINE
  5
A9
330
70
100
AcDbEntity
  8
Group#1
 48
0.1
100
AcDbLine
 10
5.817246427310777
 20
26.31155374264102
 30
0.4000011971767666
 11
5.801262359709996
 21
26.35014269542461
 31
0.4000012101888499
  0
LINE
  5
AA
330
70
100
AcDbEntity
  8
Group#1
 48
0.1
100
AcDbLine
 10
37.3036498935719
 20
57.59155792078001
 30
0.4000225944868411
 11
37.30364989347295
 21
56.08579480918422
 31
0.4000215735831558
  0
LINE
  5
AB
330
70
100
AcDbEntity
  8
Group#1
 48
0.1
100
AcDbLine
 10
6.08139979155154
 20
28.01359481743757
 30
0.4000042008318772
 11
6.210809314102753
 21
27.9965577305821
 31
0.4000041642039417
  0
LINE
  5
AC
330
70
100
AcDbEntity
  8
Group#1
 48
0.1
100
AcDbLine
 10
34.63381837483863
 20
56.93655379058201
 30
0.400023261923908
 11
34.55435906353971
 21
57.04010718117531
 31
0.4000232301977599
  0
LINE
  5
AD
330
70
100
AcDbEntity
  8
Group#1
 48
0.1
100
AcDbLine
 10
34.68376858609095
 20
56.81596331313324
 30
0.4000232709509319
 11
34.63381837483863
 21
56.93655379058201
 31
0.400023261923908
  0
LINE
  5
AE
330
70
100
AcDbEntity
  8
Group#1
 48
0.1
100
AcDbLine
 10
5.67779676163011
 20
56.83655394000435
 30
0.4000164549729094
 11
5.627846550377812
 21
56.71596346255558
 31
0.4000163292618537
  0
LINE
  5
AF
330
70
100
AcDbEntity
  8
Group#1
 48
0.1
100
AcDbLine
 10
5.757256072929026
 20
56.94010733059759
 30
0.4000165797045659
 11
5.67779676163011
 21
56.83655394000435
 31
0.4000164549729094
  0
LINE
  5
B0
330
70
100
AcDbEntity
  8
Group#1
 48
0.1
100
AcDbLine
 10
33.86779282163472
 20
28.34655758115459
 30
0.4000109802659767
 11
33.9472521329337
 21
28.24300419056128
 31
0.4000109802659767
  0
LINE
  5
B1
330
70
100
AcDbEntity
  8
Group#1
 48
0.1
100
AcDbLine
 10
5.627846550377812
 20
56.71596346255558
 30
0.4000163292618537
 11
5.610809463522347
 21
56.5865539400044
 31
0.4000162111384299
  0
LINE
  5
B2
330
70
100
AcDbEntity
  8
Group#1
 48
0.1
100
AcDbLine
 10
34.30080552352695
 20
29.09655758115455
 30
0.4000109802659767
 11
34.1713960009757
 21
29.07952049429909
 31
0.4000109802659767
  0
LINE
  5
B3
330
70
100
AcDbEntity
  8
Group#1
 48
0.1
100
AcDbLine
 10
34.4302150460782
 20
29.07952049429909
 30
0.4000109802659767
 11
34.30080552352695
 21
29.09655758115455
 31
0.4000109802659767
  0
LINE
  5
B4
330
70
100
AcDbEntity
  8
Group#1
 48
0.1
100
AcDbLine
 10
34.55080552352696
 20
29.0295702830468
 30
0.4000109802659767
 11
34.4302150460782
 21
29.07952049429909
 31
0.4000109802659767
  0
LINE
  5
B5
330
70
100
AcDbEntity
  8
Group#1
 48
0.1
100
AcDbLine
 10
34.30080552352695
 20
28.09655758115457
 30
0.4000109802659767
 11
34.4302150460782
 21
28.11359466801004
 31
0.4000109802659767
  0
LINE
  5
B6
330
70
100
AcDbEntity
  8
Group#1
 48
0.1
100
AcDbLine
 10
36.5424955142414
 20
56.75911695206167
 30
0.4000234215950846
 11
36.51894170240243
 21
56.72842095812365
 31
0.4000227200690718
  0
LINE
  5
B7
330
70
100
AcDbEntity
  8
Group#1
 48
0.1
100
AcDbLine
 10
6.564362704695923
 20
28.1430043399888
 30
0.400004190669837
 11
6.643822015994874
 21
28.24655773058204
 31
0.4000042429330293
  0
LINE
  5
B8
330
70
100
AcDbEntity
  8
Group#1
 48
0.1
100
AcDbLine
 10
6.460809314102659
 20
28.06354502868982
 30
0.4000041589436801
 11
6.564362704695923
 21
28.1430043399888
 31
0.400004190669837
  0
LINE
  5
B9
330
70
100
AcDbEntity
  8
Group#1
 48
0.1
100
AcDbLine
 10
6.340218836654001
 20
28.01359481743757
 30
0.400004149916656
 11
6.460809314102659
 21
28.06354502868982
 31
0.4000041589436801
  0
LINE
  5
BA
330
70
100
AcDbEntity
  8
Group#1
 48
0.1
100
AcDbLine
 10
6.210809314102753
 20
27.9965577305821
 30
0.4000041642039417
 11
6.340218836654001
 21
28.01359481743757
 31
0.400004149916656
  0
LINE
  5
BB
330
70
100
AcDbEntity
  8
Group#1
 48
0.1
100
AcDbLine
 10
5.981399940971057
 20
56.10359102685999
 30
0.4000159695495822
 11
6.110809463522304
 21
56.08655394000452
 31
0.400016014417144
  0
LINE
  5
BC
330
70
100
AcDbEntity
  8
Group#1
 48
0.1
100
AcDbLine
 10
5.86080946352229
 20
56.15354123811233
 30
0.400015956783445
 11
5.981399940971057
 21
56.10359102685999
 31
0.4000159695495822
  0
LINE
  5
BD
330
70
100
AcDbEntity
  8
Group#1
 48
0.1
100
AcDbLine
 10
5.757256072929061
 20
56.23300054941123
 30
0.400015976988717
 11
5.86080946352229
 21
56.15354123811233
 31
0.400015956783445
  0
LINE
  5
BE
330
70
100
AcDbEntity
  8
Group#1
 48
0.1
100
AcDbLine
 10
5.67779676163011
 20
56.33655394000453
 30
0.4000160287884331
 11
5.757256072929061
 21
56.23300054941123
 31
0.400015976988717
  0
LINE
  5
BF
330
70
100
AcDbEntity
  8
Group#1
 48
0.1
100
AcDbLine
 10
5.627846550377812
 20
56.45714441745315
 30
0.4000161086525459
 11
5.67779676163011
 21
56.33655394000453
 31
0.4000160287884331
  0
LINE
  5
C0
330
70
100
AcDbEntity
  8
Group#1
 48
0.1
100
AcDbLine
 10
5.610809463522347
 20
56.5865539400044
 30
0.4000162111384299
 11
5.627846550377812
 21
56.45714441745315
 31
0.4000161086525459
  0
LINE
  5
C1
330
70
100
AcDbEntity
  8
Group#1
 48
0.1
100
AcDbLine
 10
6.693772227247173
 20
28.36714820803077
 30
0.4000043121716258
 11
6.71080931410264
 21
28.49655773058199
 31
0.4000043936671231
  0
LINE
  5
C2
330
70
100
AcDbEntity
  8
Group#1
 48
0.1
100
AcDbLine
 10
6.593772376666761
 20
56.45714441745315
 30
0.4000165519413688
 11
6.610809463522226
 21
56.58655394000433
 31
0.4000166700647926
  0
LINE
  5
C3
330
70
100
AcDbEntity
  8
Group#1
 48
0.1
100
AcDbLine
 10
6.543822165414464
 20
56.33655394000446
 30
0.4000164262303221
 11
6.593772376666761
 21
56.45714441745315
 31
0.4000165519413688
  0
LINE
  5
C4
330
70
100
AcDbEntity
  8
Group#1
 48
0.1
100
AcDbLine
 10
5.801262359710033
 20
26.43296478985738
 30
0.4000012453555105
 11
5.817246427310777
 21
26.47155374264097
 31
0.4000012651135402
  0
LINE
  5
C5
330
70
100
AcDbEntity
  8
Group#1
 48
0.1
100
AcDbLine
 10
5.817246427310777
 20
26.47155374264097
 30
0.4000012651135402
 11
5.842673406926438
 21
26.50469082763077
 31
0.4000012845493176
  0
LINE
  5
C6
330
70
100
AcDbEntity
  8
Group#1
 48
0.1
100
AcDbLine
 10
5.842673406926438
 20
26.50469082763077
 30
0.4000012845493176
 11
5.875810491916254
 21
26.5301178072464
 31
0.400001302338343
  0
LINE
  5
C7
330
70
100
AcDbEntity
  8
Group#1
 48
0.1
100
AcDbLine
 10
5.875810491916254
 20
26.5301178072464
 30
0.400001302338343
 11
5.91439944469983
 21
26.54610187484714
 31
0.4000013172683194
  0
LINE
  5
C8
330
70
100
AcDbEntity
  8
Group#1
 48
0.1
100
AcDbLine
 10
5.91439944469983
 20
26.54610187484714
 30
0.4000013172683194
 11
5.95581049191627
 21
26.55155374264086
 31
0.4000013283217939
  0
LINE
  5
C9
330
70
100
AcDbEntity
  8
Group#1
 48
0.1
100
AcDbLine
 10
5.95581049191627
 20
26.55155374264086
 30
0.4000013283217939
 11
5.997221539132642
 21
26.54610187484711
 31
0.4000013347454881
  0
LINE
  5
CA
330
70
100
AcDbEntity
  8
Group#1
 48
0.1
100
AcDbLine
 10
5.997221539132642
 20
26.54610187484711
 30
0.4000013347454881
 11
6.035810491916182
 21
26.53011780724637
 31
0.4000013361016439
  0
LINE
  5
CB
330
70
100
AcDbEntity
  8
Group#1
 48
0.1
100
AcDbLine
 10
5.801262359709996
 20
26.35014269542461
 30
0.4000012101888499
 11
5.795810491916308
 21
26.39155374264101
 31
0.4000012266217286
  0
LINE
  5
CC
330
70
100
AcDbEntity
  8
Group#1
 48
0.1
100
AcDbLine
 10
5.795810491916308
 20
26.39155374264101
 30
0.4000012266217286
 11
5.801262359710033
 21
26.43296478985738
 31
0.4000012453555105
  0
LINE
  5
CD
330
70
100
AcDbEntity
  8
Group#1
 48
0.1
100
AcDbLine
 10
5.960809314102775
 20
28.92957043247414
 30
0.4000048251118522
 11
5.85725592350951
 21
28.85011112117519
 31
0.4000047933856951
  0
LINE
  5
CE
330
70
100
AcDbEntity
  8
Group#1
 48
0.1
100
AcDbLine
 10
6.464362854115512
 20
56.23300054941116
 30
0.4000163014986566
 11
6.543822165414464
 21
56.33655394000446
 31
0.4000164262303221
  0
LINE
  5
CF
330
70
100
AcDbEntity
  8
Group#1
 48
0.1
100
AcDbLine
 10
6.360809463522283
 20
56.15354123811224
 30
0.4000161862466264
 11
6.464362854115512
 21
56.23300054941116
 31
0.4000163014986566
  0
LINE
  5
D0
330
70
100
AcDbEntity
  8
Group#1
 48
0.1
100
AcDbLine
 10
6.240218986073518
 20
56.10359102685999
 30
0.4000160883284655
 11
6.360809463522283
 21
56.15354123811224
 31
0.4000161862466264
  0
LINE
  5
D1
330
70
100
AcDbEntity
  8
Group#1
 48
0.1
100
AcDbLine
 10
6.110809463522304
 20
56.08655394000452
 30
0.400016014417144
 11
6.240218986073518
 21
56.10359102685999
 31
0.4000160883284655
  0
LINE
  5
D2
330
70
100
AcDbEntity
  8
Group#1
 48
0.1
100
AcDbLine
 10
34.55435906353971
 20
56.33300039998876
 30
0.4000230910947961
 11
34.63381837483863
 21
56.43655379058199
 31
0.4000231635632603
  0
LINE
  5
D3
330
70
100
AcDbEntity
  8
Group#1
 48
0.1
100
AcDbLine
 10
5.85725592350951
 20
28.85011112117519
 30
0.4000047933856951
 11
5.777796612210595
 21
28.74655773058193
 31
0.4000047411224937
  0
LINE
  5
D4
330
70
100
AcDbEntity
  8
Group#1
 48
0.1
100
AcDbLine
 10
34.49722053383315
 20
26.54610693601907
 30
0.4000092389249607
 11
34.5358095038992
 21
26.53012291014351
 31
0.4000092749620026
  0
LINE
  5
D5
330
70
100
AcDbEntity
  8
Group#1
 48
0.1
100
AcDbLine
 10
37.30365040061744
 20
27.5905252295733
 30
0.4000215913424383
 11
35.20580965372513
 21
27.59155875897377
 31
0.4000090975719434
  0
LINE
  5
D6
330
70
100
AcDbEntity
  8
Group#1
 48
0.1
100
AcDbLine
 10
34.73381822541919
 20
28.34655758115459
 30
0.4000109802659767
 11
34.78376843667144
 21
28.46714805860332
 31
0.4000109802659767
  0
LINE
  5
D7
330
70
100
AcDbEntity
  8
Group#1
 48
0.1
100
AcDbLine
 10
35.40580449514872
 20
54.09153321295121
 30
0.4000208809032111
 11
37.30364989347295
 21
56.08579480918422
 31
0.4000215735831558
  0
LINE
  5
D8
330
70
100
AcDbEntity
  8
Group#1
 48
0.1
100
AcDbLine
 10
5.205810491916334
 20
25.4815536004013
 30
0.3999999999999542
 11
5.205810491916441
 21
27.5915536003999
 31
0.4000024981855751
  0
LINE
  5
D9
330
70
100
AcDbEntity
  8
Group#1
 48
0.1
100
AcDbLine
 10
3.103650344197653
 20
57.5923174650495
 30
0.4000215883658532
 11
5.205805333339647
 21
57.59155276220649
 31
0.4000155723209369
  0
LINE
  5
DA
330
70
100
AcDbEntity
  8
Group#1
 48
0.1
100
AcDbLine
 10
3.10580561781964
 20
56.09155276220971
 30
0.4000144837750178
 11
3.103650344197653
 21
57.5923174650495
 31
0.4000215883658532
  0
LINE
  5
DB
330
70
100
AcDbEntity
  8
Group#1
 48
0.1
100
AcDbLine
 10
3.10580561781964
 20
56.09155276220971
 30
0.4000144837750178
 11
5.005805807473208
 21
53.59155276220963
 31
0.4000140956474374
  0
LINE
  5
DC
330
70
100
AcDbEntity
  8
Group#1
 48
0.1
100
AcDbLine
 10
5.005810491915838
 20
31.59155360039884
 30
0.4000048954474832
 11
3.103650325990127
 21
29.08579475171094
 31
0.4000215735831558
  0
LINE
  5
DD
330
70
100
AcDbEntity
  8
Group#1
 48
0.1
100
AcDbLine
 10
3.103650325990127
 20
29.08579475171094
 30
0.4000215735831558
 11
3.10365032589193
 21
27.59155360039946
 31
0.4000122737674658
  0
LINE
  5
DE
330
70
100
AcDbEntity
  8
Group#1
 48
0.1
100
AcDbLine
 10
5.205810491916441
 20
27.5915536003999
 30
0.4000024981855751
 11
3.10365032589193
 21
27.59155360039946
 31
0.4000122737674658
  0
LINE
  5
DF
330
70
100
AcDbEntity
  8
Group#1
 48
0.1
100
AcDbLine
 10
6.705810491913501
 20
25.48579475168863
 30
0.4000020615045338
 11
5.205810491916334
 21
25.4815536004013
 31
0.3999999999999542
  0
LINE
  5
E0
330
70
100
AcDbEntity
  8
Group#1
 48
0.1
100
AcDbLine
 10
6.705810491913501
 20
25.48579475168863
 30
0.4000020615045338
 11
13.6686292667915
 21
31.09041789561999
 31
0.4000171607222122
  0
LINE
  5
E1
330
70
100
AcDbEntity
  8
Group#1
 48
0.1
100
AcDbLine
 10
20.16862926679151
 20
31.09041789561999
 30
0.4000171607222122
 11
13.6686292667915
 21
31.09041789561999
 31
0.4000171607222122
  0
LINE
  5
E2
330
70
100
AcDbEntity
  8
Group#1
 48
0.1
100
AcDbLine
 10
26.66862926679151
 20
31.09041789561999
 30
0.4000171607222122
 11
20.16862926679151
 21
31.09041789561999
 31
0.4000171607222122
  0
LINE
  5
E3
330
70
100
AcDbEntity
  8
Group#1
 48
0.1
100
AcDbLine
 10
26.66862926679151
 20
31.09041789561999
 30
0.4000171607222122
 11
33.70580965372518
 21
25.48579525883311
 31
0.4000086788083465
  0
LINE
  5
E4
330
70
100
AcDbEntity
  8
Group#1
 48
0.1
100
AcDbLine
 10
33.70580965372518
 20
25.48579525883311
 30
0.4000086788083465
 11
35.20580965372513
 21
25.4857952587344
 31
0.4000153360555813
  0
LINE
  5
E5
330
70
100
AcDbEntity
  8
Group#1
 48
0.1
100
AcDbLine
 10
37.30580936924518
 20
29.09155875897069
 30
0.4000100823571101
 11
37.30365040061744
 21
27.5905252295733
 31
0.4000215913424383
  0
LINE
  5
E6
330
70
100
AcDbEntity
  8
Group#1
 48
0.1
100
AcDbLine
 10
37.30580936924518
 20
29.09155875897069
 30
0.4000100823571101
 11
35.40580917959136
 21
31.09152622889129
 31
0.4000116411338749
  0
LINE
  5
E7
330
70
100
AcDbEntity
  8
Group#1
 48
0.1
100
AcDbLine
 10
35.2058044951484
 20
57.59155792078039
 30
0.4000221717073053
 11
37.3036498935719
 21
57.59155792078001
 31
0.4000225944868411
  0
LINE
  5
E8
330
70
100
AcDbEntity
  8
Group#1
 48
0.1
100
AcDbLine
 10
33.70364989363853
 20
59.6857948092065
 30
0.4000215936145012
 11
35.2058044951492
 21
59.6857948092065
 31
0.4000215911968649
  0
LINE
  5
E9
330
70
100
AcDbEntity
  8
Group#1
 48
0.1
100
AcDbLine
 10
33.70364989363853
 20
59.6857948092065
 30
0.4000215936145012
 11
31.2058044951513
 21
57.79155744664731
 31
0.4000215353326612
  0
LINE
  5
EA
330
70
100
AcDbEntity
  8
Group#1
 48
0.1
100
AcDbLine
 10
9.205805333339242
 20
57.79155276220624
 30
0.4000171033560537
 11
31.2058044951513
 21
57.79155744664731
 31
0.4000215353326612
  0
LINE
  5
EB
330
70
100
AcDbEntity
  8
Group#1
 48
0.1
100
AcDbLine
 10
6.70580533333916
 20
59.68579430206204
 30
0.4000179155542724
 11
5.205805333339213
 21
59.68579430216047
 31
0.4000195321987347
  0
LINE
  5
EC
330
70
100
AcDbEntity
  8
Group#1
 48
0.1
100
AcDbLine
 10
5.205805333339647
 20
57.59155276220649
 30
0.4000155723209369
 11
5.205805333339213
 21
59.68579430216047
 31
0.4000195321987347
  0
LINE
  5
ED
330
70
100
AcDbEntity
  8
Group#1
 48
0.1
100
AcDbLine
 10
34.6543589141202
 20
28.95011097174783
 30
0.4000109802659767
 11
34.55080552352696
 21
29.0295702830468
 31
0.4000109802659767
  0
LINE
  5
EE
330
70
100
AcDbEntity
  8
Group#1
 48
0.1
100
AcDbLine
 10
34.73381822541919
 20
28.84655758115457
 30
0.4000109802659767
 11
34.6543589141202
 21
28.95011097174783
 31
0.4000109802659767
  0
LINE
  5
EF
330
70
100
AcDbEntity
  8
Group#1
 48
0.1
100
AcDbLine
 10
34.80080552352691
 20
28.59655758115456
 30
0.4000109802659767
 11
34.78376843667144
 21
28.72596710370584
 31
0.4000109802659767
  0
LINE
  5
F0
330
70
100
AcDbEntity
  8
Group#1
 48
0.1
100
AcDbLine
 10
34.78376843667144
 20
28.46714805860332
 30
0.4000109802659767
 11
34.80080552352691
 21
28.59655758115456
 31
0.4000109802659767
  0
LINE
  5
F1
330
70
100
AcDbEntity
  8
Group#1
 48
0.1
100
AcDbLine
 10
34.55080552352696
 20
28.16354487926236
 30
0.4000109802659767
 11
34.6543589141202
 21
28.24300419056128
 31
0.4000109802659767
  0
LINE
  5
F2
330
70
100
AcDbEntity
  8
Group#1
 48
0.1
100
AcDbLine
 10
34.4302150460782
 20
28.11359466801004
 30
0.4000109802659767
 11
34.55080552352696
 21
28.16354487926236
 31
0.4000109802659767
  0
LINE
  5
F3
330
70
100
AcDbEntity
  8
Group#1
 48
0.1
100
AcDbLine
 10
34.1713960009757
 20
28.11359466801004
 30
0.4000109802659767
 11
34.30080552352695
 21
28.09655758115457
 31
0.4000109802659767
  0
LINE
  5
F4
330
70
100
AcDbEntity
  8
Group#1
 48
0.1
100
AcDbLine
 10
34.05080552352693
 20
28.16354487926236
 30
0.4000109802659767
 11
34.1713960009757
 21
28.11359466801004
 31
0.4000109802659767
  0
LINE
  5
F5
330
70
100
AcDbEntity
  8
Group#1
 48
0.1
100
AcDbLine
 10
33.9472521329337
 20
28.24300419056128
 30
0.4000109802659767
 11
34.05080552352693
 21
28.16354487926236
 31
0.4000109802659767
  0
LINE
  5
F6
330
70
100
AcDbEntity
  8
Group#1
 48
0.1
100
AcDbLine
 10
33.81784261038247
 20
28.46714805860332
 30
0.4000109802659767
 11
33.86779282163472
 21
28.34655758115459
 31
0.4000109802659767
  0
LINE
  5
F7
330
70
100
AcDbEntity
  8
Group#1
 48
0.1
100
AcDbLine
 10
33.80080552352699
 20
28.59655758115456
 30
0.4000109802659767
 11
33.81784261038247
 21
28.46714805860332
 31
0.4000109802659767
  0
LINE
  5
F8
330
70
100
AcDbEntity
  8
Group#1
 48
0.1
100
AcDbLine
 10
33.86779282163472
 20
28.84655758115457
 30
0.4000109802659767
 11
33.81784261038247
 21
28.72596710370584
 31
0.4000109802659767
  0
LINE
  5
F9
330
70
100
AcDbEntity
  8
Group#1
 48
0.1
100
AcDbLine
 10
33.9472521329337
 20
28.95011097174783
 30
0.4000109802659767
 11
33.86779282163472
 21
28.84655758115457
 31
0.4000109802659767
  0
LINE
  5
FA
330
70
100
AcDbEntity
  8
Group#1
 48
0.1
100
AcDbLine
 10
34.1713960009757
 20
29.07952049429909
 30
0.4000109802659767
 11
34.05080552352693
 21
29.0295702830468
 31
0.4000109802659767
  0
LINE
  5
FB
330
70
100
AcDbEntity
  8
Group#1
 48
0.1
100
AcDbLine
 10
34.20080567294646
 20
57.18655379058207
 30
0.4000230272004738
 11
34.07139615039522
 21
57.16951670372663
 31
0.4000229390018666
  0
LINE
  5
FC
330
70
100
AcDbEntity
  8
Group#1
 48
0.1
100
AcDbLine
 10
34.45080567294649
 20
57.11956649247423
 30
0.4000231779345586
 11
34.33021519549772
 21
57.16951670372657
 31
0.4000231086959622
  0
LINE
  5
FD
330
70
100
AcDbEntity
  8
Group#1
 48
0.1
100
AcDbLine
 10
34.63381837483863
 20
56.43655379058199
 30
0.4000231635632603
 11
34.68376858609095
 21
56.55714426803076
 31
0.4000232200357197
  0
LINE
  5
FE
330
70
100
AcDbEntity
  8
Group#1
 48
0.1
100
AcDbLine
 10
34.45080567294649
 20
56.25354108868984
 30
0.400023007568923
 11
34.55435906353971
 21
56.33300039998876
 31
0.4000230910947961
  0
LINE
  5
FF
330
70
100
AcDbEntity
  8
Group#1
 48
0.1
100
AcDbLine
 10
34.33021519549779
 20
56.20359087743757
 30
0.4000229186777861
 11
34.45080567294649
 21
56.25354108868984
 31
0.400023007568923
  0
LINE
  5
100
330
70
100
AcDbEntity
  8
Group#1
 48
0.1
100
AcDbLine
 10
34.20080567294654
 20
56.18655379058212
 30
0.4000228304791789
 11
34.33021519549779
 21
56.20359087743757
 31
0.4000229186777861
  0
LINE
  5
101
330
70
100
AcDbEntity
  8
Group#1
 48
0.1
100
AcDbLine
 10
34.07139615039529
 20
56.20359087743757
 30
0.4000227489836906
 11
34.20080567294654
 21
56.18655379058212
 31
0.4000228304791789
  0
LINE
  5
102
330
70
100
AcDbEntity
  8
Group#1
 48
0.1
100
AcDbLine
 10
33.95080567294659
 20
56.25354108868991
 30
0.4000226797451032
 11
34.07139615039529
 21
56.20359087743757
 31
0.4000227489836906
  0
LINE
  5
103
330
70
100
AcDbEntity
  8
Group#1
 48
0.1
100
AcDbLine
 10
33.84725228235329
 20
56.3330003999889
 30
0.4000226274819018
 11
33.95080567294659
 21
56.25354108868991
 31
0.4000226797451032
  0
LINE
  5
104
330
70
100
AcDbEntity
  8
Group#1
 48
0.1
100
AcDbLine
 10
33.76779297105431
 20
56.43655379058216
 30
0.4000225957557448
 11
33.84725228235329
 21
56.3330003999889
 31
0.4000226274819018
  0
LINE
  5
105
330
70
100
AcDbEntity
  8
Group#1
 48
0.1
100
AcDbLine
 10
33.7008056729465
 20
56.68655379058215
 30
0.4000226010160066
 11
33.71784275980204
 21
56.55714426803097
 31
0.4000225867287208
  0
LINE
  5
106
330
70
100
AcDbEntity
  8
Group#1
 48
0.1
100
AcDbLine
 10
33.71784275980197
 20
56.8159633131334
 30
0.400022637643933
 11
33.7008056729465
 21
56.68655379058215
 31
0.4000226010160066
  0
LINE
  5
107
330
70
100
AcDbEntity
  8
Group#1
 48
0.1
100
AcDbLine
 10
33.76779297105431
 20
56.93655379058215
 30
0.4000226941163925
 11
33.71784275980197
 21
56.8159633131334
 31
0.400022637643933
  0
LINE
  5
108
330
70
100
AcDbEntity
  8
Group#1
 48
0.1
100
AcDbLine
 10
33.84725228235323
 20
57.04010718117539
 30
0.4000227665848567
 11
33.76779297105431
 21
56.93655379058215
 31
0.4000226941163925
  0
LINE
  5
109
330
70
100
AcDbEntity
  8
Group#1
 48
0.1
100
AcDbLine
 10
33.95080567294652
 20
57.11956649247437
 30
0.4000228501107297
 11
33.84725228235323
 21
57.04010718117539
 31
0.4000227665848567
  0
LINE
  5
10A
330
70
100
AcDbEntity
  8
Group#1
 48
0.1
100
AcDbLine
 10
34.07139615039522
 20
57.16951670372663
 30
0.4000229390018666
 11
33.95080567294652
 21
57.11956649247437
 31
0.4000228501107297
  0
LINE
  5
10B
330
70
100
AcDbEntity
  8
Group#1
 48
0.1
100
AcDbLine
 10
6.360809463522247
 20
57.01956664189641
 30
0.4000169244197774
 11
6.240218986073482
 21
57.06951685314874
 31
0.4000169116536402
  0
LINE
  5
10C
330
70
100
AcDbEntity
  8
Group#1
 48
0.1
100
AcDbLine
 10
6.464362854115512
 20
56.9401073305975
 30
0.4000169042145055
 11
6.360809463522247
 21
57.01956664189641
 31
0.4000169244197774
  0
LINE
  5
10D
330
70
100
AcDbEntity
  8
Group#1
 48
0.1
100
AcDbLine
 10
6.543822165414464
 20
56.83655394000428
 30
0.4000168524147893
 11
6.464362854115512
 21
56.9401073305975
 31
0.4000169042145055
  0
LINE
  5
10E
330
70
100
AcDbEntity
  8
Group#1
 48
0.1
100
AcDbLine
 10
6.593772376666761
 20
56.71596346255551
 30
0.4000167725506766
 11
6.543822165414464
 21
56.83655394000428
 31
0.4000168524147893
  0
LINE
  5
10F
330
70
100
AcDbEntity
  8
Group#1
 48
0.1
100
AcDbLine
 10
6.610809463522226
 20
56.58655394000433
 30
0.4000166700647926
 11
6.593772376666761
 21
56.71596346255551
 31
0.4000167725506766
  0
LINE
  5
110
330
70
100
AcDbEntity
  8
Group#1
 48
0.1
100
AcDbLine
 10
5.86080946352229
 20
57.01956664189649
 30
0.4000166949566051
 11
5.757256072929026
 21
56.94010733059759
 31
0.4000165797045659
  0
LINE
  5
111
330
70
100
AcDbEntity
  8
Group#1
 48
0.1
100
AcDbLine
 10
5.981399940971057
 20
57.06951685314874
 30
0.400016792874757
 11
5.86080946352229
 21
57.01956664189649
 31
0.4000166949566051
  0
LINE
  5
112
330
70
100
AcDbEntity
  8
Group#1
 48
0.1
100
AcDbLine
 10
6.210809314102718
 20
28.99655773058187
 30
0.4000048198515903
 11
6.081399791551504
 21
28.97952064372643
 31
0.4000048341388671
  0
LINE
  5
113
330
70
100
AcDbEntity
  8
Group#1
 48
0.1
100
AcDbLine
 10
6.340218836653892
 20
28.97952064372643
 30
0.4000047832236547
 11
6.210809314102718
 21
28.99655773058187
 31
0.4000048198515903
  0
LINE
  5
114
330
70
100
AcDbEntity
  8
Group#1
 48
0.1
100
AcDbLine
 10
6.460809314102624
 20
28.92957043247414
 30
0.4000047267512045
 11
6.340218836653892
 21
28.97952064372643
 31
0.4000047832236547
  0
LINE
  5
115
330
70
100
AcDbEntity
  8
Group#1
 48
0.1
100
AcDbLine
 10
6.643822015994839
 20
28.74655773058196
 30
0.4000045707568581
 11
6.564362704695888
 21
28.85011112117519
 31
0.4000046542827313
  0
LINE
  5
116
330
70
100
AcDbEntity
  8
Group#1
 48
0.1
100
AcDbLine
 10
6.693772227247137
 20
28.62596725313323
 30
0.4000044818657303
 11
6.643822015994839
 21
28.74655773058196
 31
0.4000045707568581
  0
LINE
  5
117
330
70
100
AcDbEntity
  8
Group#1
 48
0.1
100
AcDbLine
 10
6.643822015994874
 20
28.24655773058204
 30
0.4000042429330293
 11
6.693772227247173
 21
28.36714820803077
 31
0.4000043121716258
  0
LINE
  5
118
330
70
100
AcDbEntity
  8
Group#1
 48
0.1
100
AcDbLine
 10
5.96080931410281
 20
28.06354502868986
 30
0.4000042573043275
 11
6.08139979155154
 21
28.01359481743757
 31
0.4000042008318772
  0
LINE
  5
119
330
70
100
AcDbEntity
  8
Group#1
 48
0.1
100
AcDbLine
 10
5.857255923509582
 20
28.14300433998878
 30
0.4000043297727917
 11
5.96080931410281
 21
28.06354502868986
 31
0.4000042573043275
  0
LINE
  5
11A
330
70
100
AcDbEntity
  8
Group#1
 48
0.1
100
AcDbLine
 10
5.777796612210631
 20
28.246557730582
 30
0.4000044132986739
 11
5.857255923509582
 21
28.14300433998878
 31
0.4000043297727917
  0
LINE
  5
11B
330
70
100
AcDbEntity
  8
Group#1
 48
0.1
100
AcDbLine
 10
5.727846400958334
 20
28.36714820803077
 30
0.4000045021898017
 11
5.777796612210631
 21
28.246557730582
 31
0.4000044132986739
  0
LINE
  5
11C
330
70
100
AcDbEntity
  8
Group#1
 48
0.1
100
AcDbLine
 10
5.710809314102867
 20
28.49655773058206
 30
0.400004590388409
 11
5.727846400958334
 21
28.36714820803077
 31
0.4000045021898017
  0
LINE
  5
11D
330
70
100
AcDbEntity
  8
Group#1
 48
0.1
100
AcDbLine
 10
5.727846400958297
 20
28.6259672531332
 30
0.4000046718838972
 11
5.710809314102867
 21
28.49655773058206
 31
0.400004590388409
  0
LINE
  5
11E
330
70
100
AcDbEntity
  8
Group#1
 48
0.1
100
AcDbLine
 10
5.777796612210595
 20
28.74655773058193
 30
0.4000047411224937
 11
5.727846400958297
 21
28.6259672531332
 31
0.4000046718838972
  0
LINE
  5
11F
330
70
100
AcDbEntity
  8
Group#1
 48
0.1
100
AcDbLine
 10
6.081399791551504
 20
28.97952064372643
 30
0.4000048341388671
 11
5.960809314102775
 21
28.92957043247414
 31
0.4000048251118522
  0
LINE
  5
120
330
70
100
AcDbEntity
  8
Group#1
 48
0.1
100
AcDbLine
 10
34.59437380482982
 20
26.31155890886478
 30
0.4000092420200656
 11
34.56894686104458
 21
26.27842179638212
 31
0.4000091985794881
  0
LINE
  5
121
330
70
100
AcDbEntity
  8
Group#1
 48
0.1
100
AcDbLine
 10
34.56894686104458
 20
26.27842179638212
 30
0.4000091985794881
 11
34.53580980354861
 21
26.25299478093685
 31
0.4000091499756467
  0
LINE
  5
122
330
70
100
AcDbEntity
  8
Group#1
 48
0.1
100
AcDbLine
 10
34.53580980354861
 20
26.25299478093685
 30
0.4000091499756467
 11
34.49722086804875
 21
26.23701067161143
 31
0.4000090995207974
  0
LINE
  5
123
330
70
100
AcDbEntity
  8
Group#1
 48
0.1
100
AcDbLine
 10
34.49722086804875
 20
26.23701067161143
 30
0.4000090995207974
 11
34.4558098267279
 21
26.23155875904141
 31
0.4000090506533501
  0
LINE
  5
124
330
70
100
AcDbEntity
  8
Group#1
 48
0.1
100
AcDbLine
 10
34.4558098267279
 20
26.23155875904141
 30
0.4000090506533501
 11
34.41439877361724
 21
26.23701058205867
 31
0.4000090067035634
  0
LINE
  5
125
330
70
100
AcDbEntity
  8
Group#1
 48
0.1
100
AcDbLine
 10
34.41439877361724
 20
26.23701058205867
 30
0.4000090067035634
 11
34.37580980355125
 21
26.25299460793424
 31
0.4000089706665213
  0
LINE
  5
126
330
70
100
AcDbEntity
  8
Group#1
 48
0.1
100
AcDbLine
 10
34.37580980355125
 20
26.25299460793424
 30
0.4000089706665213
 11
34.34267269106859
 21
26.27842155171949
 31
0.4000089449981036
  0
LINE
  5
127
330
70
100
AcDbEntity
  8
Group#1
 48
0.1
100
AcDbLine
 10
34.34267269106859
 20
26.27842155171949
 30
0.4000089449981036
 11
34.31724567562324
 21
26.31155860921545
 31
0.4000089314475554
  0
LINE
  5
128
330
70
100
AcDbEntity
  8
Group#1
 48
0.1
100
AcDbLine
 10
34.31724567562324
 20
26.31155860921545
 30
0.4000089314475554
 11
34.30126156629782
 21
26.35014754471543
 31
0.4000089309383373
  0
LINE
  5
129
330
70
100
AcDbEntity
  8
Group#1
 48
0.1
100
AcDbLine
 10
34.30126156629782
 20
26.35014754471543
 30
0.4000089309383373
 11
34.29580965372779
 21
26.39155858603627
 31
0.4000089435051457
  0
LINE
  5
12A
330
70
100
AcDbEntity
  8
Group#1
 48
0.1
100
AcDbLine
 10
34.29580965372779
 20
26.39155858603627
 30
0.4000089435051457
 11
34.30126147674505
 21
26.43296963914693
 31
0.4000089682915682
  0
LINE
  5
12B
330
70
100
AcDbEntity
  8
Group#1
 48
0.1
100
AcDbLine
 10
34.30126147674505
 20
26.43296963914693
 30
0.4000089682915682
 11
34.31724550262064
 21
26.47155860921297
 31
0.4000090036084674
  0
LINE
  5
12C
330
70
100
AcDbEntity
  8
Group#1
 48
0.1
100
AcDbLine
 10
34.31724550262064
 20
26.47155860921297
 30
0.4000090036084674
 11
34.34267244640581
 21
26.50469572169561
 31
0.4000090470490358
  0
LINE
  5
12D
330
70
100
AcDbEntity
  8
Group#1
 48
0.1
100
AcDbLine
 10
34.34267244640581
 20
26.50469572169561
 30
0.4000090470490358
 11
34.37580950390177
 21
26.5301227371409
 31
0.4000090956528863
  0
LINE
  5
12E
330
70
100
AcDbEntity
  8
Group#1
 48
0.1
100
AcDbLine
 10
34.37580950390177
 20
26.5301227371409
 30
0.4000090956528863
 11
34.4143984394017
 21
26.54610684646632
 31
0.4000091461077357
  0
LINE
  5
12F
330
70
100
AcDbEntity
  8
Group#1
 48
0.1
100
AcDbLine
 10
34.4143984394017
 20
26.54610684646632
 30
0.4000091461077357
 11
34.45580948072248
 21
26.55155875903634
 31
0.4000091949751739
  0
LINE
  5
130
330
70
100
AcDbEntity
  8
Group#1
 48
0.1
100
AcDbLine
 10
34.45580948072248
 20
26.55155875903634
 30
0.4000091949751739
 11
34.49722053383315
 21
26.54610693601907
 31
0.4000092389249607
  0
LINE
  5
131
330
70
100
AcDbEntity
  8
Group#1
 48
0.1
100
AcDbLine
 10
34.5358095038992
 20
26.53012291014351
 30
0.4000092749620026
 11
34.56894661638187
 21
26.50469596635826
 31
0.4000093006304295
  0
LINE
  5
132
330
70
100
AcDbEntity
  8
Group#1
 48
0.1
100
AcDbLine
 10
34.56894661638187
 20
26.50469596635826
 30
0.4000093006304295
 11
34.59437363182707
 21
26.47155890886229
 31
0.4000093141809776
  0
LINE
  5
133
330
70
100
AcDbEntity
  8
Group#1
 48
0.1
100
AcDbLine
 10
34.59437363182707
 20
26.47155890886229
 30
0.4000093141809776
 11
34.61035774115249
 21
26.43296997336232
 31
0.4000093146901958
  0
LINE
  5
134
330
70
100
AcDbEntity
  8
Group#1
 48
0.1
100
AcDbLine
 10
34.61035774115249
 20
26.43296997336232
 30
0.4000093146901958
 11
34.6158096537226
 21
26.39155893204152
 31
0.4000093021233874
  0
LINE
  5
135
330
70
100
AcDbEntity
  8
Group#1
 48
0.1
100
AcDbLine
 10
34.6158096537226
 20
26.39155893204152
 30
0.4000093021233874
 11
34.61035783070531
 21
26.35014787893084
 31
0.4000092773369559
  0
LINE
  5
136
330
70
100
AcDbEntity
  8
Group#1
 48
0.1
100
AcDbLine
 10
34.61035783070531
 20
26.35014787893084
 30
0.4000092773369559
 11
34.59437380482982
 21
26.31155890886478
 31
0.4000092420200656
  0
LINE
  5
137
330
70
100
AcDbEntity
  8
Group#1
 48
0.1
100
AcDbLine
 10
36.2672454468793
 20
28.4215587589738
 30
0.4000084730663713
 11
36.29267242649497
 21
28.45469584396362
 31
0.400008493104268
  0
LINE
  5
138
330
70
100
AcDbEntity
  8
Group#1
 48
0.1
100
AcDbLine
 10
36.29267242649497
 20
28.45469584396362
 30
0.400008493104268
 11
36.32580951148479
 21
28.48012282357924
 31
0.4000085114624935
  0
LINE
  5
139
330
70
100
AcDbEntity
  8
Group#1
 48
0.1
100
AcDbLine
 10
36.32580951148479
 20
28.48012282357924
 30
0.4000085114624935
 11
36.36439846426836
 21
28.49610689117998
 31
0.4000085268899751
  0
LINE
  5
13A
330
70
100
AcDbEntity
  8
Group#1
 48
0.1
100
AcDbLine
 10
36.36439846426836
 20
28.49610689117998
 30
0.4000085268899751
 11
36.40580951148478
 21
28.50155875897371
 31
0.4000085383353483
  0
LINE
  5
13B
330
70
100
AcDbEntity
  8
Group#1
 48
0.1
100
AcDbLine
 10
36.40580951148478
 20
28.50155875897371
 30
0.4000085383353483
 11
36.44722055870118
 21
28.49610689117995
 31
0.4000085450186328
  0
LINE
  5
13C
330
70
100
AcDbEntity
  8
Group#1
 48
0.1
100
AcDbLine
 10
36.44722055870118
 20
28.49610689117995
 30
0.4000085450186328
 11
36.48580951148475
 21
28.48012282357921
 31
0.4000085464843657
  0
LINE
  5
13D
330
70
100
AcDbEntity
  8
Group#1
 48
0.1
100
AcDbLine
 10
36.48580951148475
 20
28.48012282357921
 30
0.4000085464843657
 11
36.51894659647458
 21
28.45469584396355
 31
0.4000085426326704
  0
LINE
  5
13E
330
70
100
AcDbEntity
  8
Group#1
 48
0.1
100
AcDbLine
 10
36.51894659647458
 20
28.45469584396355
 30
0.4000085426326704
 11
36.54437357609015
 21
28.42155875897369
 31
0.4000085337260251
  0
LINE
  5
13F
330
70
100
AcDbEntity
  8
Group#1
 48
0.1
100
AcDbLine
 10
36.54437357609015
 20
28.42155875897369
 30
0.4000085337260251
 11
36.56035764369098
 21
28.38296980619012
 31
0.4000085203714129
  0
LINE
  5
140
330
70
100
AcDbEntity
  8
Group#1
 48
0.1
100
AcDbLine
 10
36.56035764369098
 20
28.38296980619012
 30
0.4000085203714129
 11
36.56580951148466
 21
28.34155875897375
 31
0.4000085034789202
  0
LINE
  5
141
330
70
100
AcDbEntity
  8
Group#1
 48
0.1
100
AcDbLine
 10
36.56580951148466
 20
28.34155875897375
 30
0.4000085034789202
 11
36.56035764369089
 21
28.30014771175738
 31
0.4000084841997433
  0
LINE
  5
142
330
70
100
AcDbEntity
  8
Group#1
 48
0.1
100
AcDbLine
 10
36.56035764369089
 20
28.30014771175738
 30
0.4000084841997433
 11
36.54437357609015
 21
28.26155875897381
 31
0.4000084638477249
  0
LINE
  5
143
330
70
100
AcDbEntity
  8
Group#1
 48
0.1
100
AcDbLine
 10
36.36439846426836
 20
28.18701062676765
 30
0.4000083918954635
 11
36.32580951148479
 21
28.2029946943684
 31
0.4000083904297215
  0
LINE
  5
144
330
70
100
AcDbEntity
  8
Group#1
 48
0.1
100
AcDbLine
 10
36.32580951148479
 20
28.2029946943684
 30
0.4000083904297215
 11
36.2926724264949
 21
28.22842167398406
 31
0.4000083942814169
  0
LINE
  5
145
330
70
100
AcDbEntity
  8
Group#1
 48
0.1
100
AcDbLine
 10
36.2926724264949
 20
28.22842167398406
 30
0.4000083942814169
 11
36.26724544687924
 21
28.26155875897388
 31
0.4000084031880621
  0
LINE
  5
146
330
70
100
AcDbEntity
  8
Group#1
 48
0.1
100
AcDbLine
 10
36.26724544687924
 20
28.26155875897388
 30
0.4000084031880621
 11
36.25126137927857
 21
28.30014771175745
 31
0.4000084165426744
  0
LINE
  5
147
330
70
100
AcDbEntity
  8
Group#1
 48
0.1
100
AcDbLine
 10
36.25126137927857
 20
28.30014771175745
 30
0.4000084165426744
 11
36.24580951148481
 21
28.34155875897385
 31
0.400008433435176
  0
LINE
  5
148
330
70
100
AcDbEntity
  8
Group#1
 48
0.1
100
AcDbLine
 10
36.24580951148481
 20
28.34155875897385
 30
0.400008433435176
 11
36.25126137927857
 21
28.38296980619022
 31
0.4000084527143529
  0
LINE
  5
149
330
70
100
AcDbEntity
  8
Group#1
 48
0.1
100
AcDbLine
 10
36.25126137927857
 20
28.38296980619022
 30
0.4000084527143529
 11
36.2672454468793
 21
28.4215587589738
 31
0.4000084730663713
  0
LINE
  5
14A
330
70
100
AcDbEntity
  8
Group#1
 48
0.1
100
AcDbLine
 10
36.25125640765553
 20
56.80014670645675
 30
0.4000227613028834
 11
36.24580449508549
 21
56.84155774777753
 31
0.4000228156174141
  0
LINE
  5
14B
330
70
100
AcDbEntity
  8
Group#1
 48
0.1
100
AcDbLine
 10
36.24580449508549
 20
56.84155774777753
 30
0.4000228156174141
 11
36.2512563181027
 21
56.88296880088819
 31
0.4000228721630662
  0
LINE
  5
14C
330
70
100
AcDbEntity
  8
Group#1
 48
0.1
100
AcDbLine
 10
36.2512563181027
 20
56.88296880088819
 30
0.4000228721630662
 11
36.26724034397827
 21
56.92155777095419
 31
0.4000229270863667
  0
LINE
  5
14D
330
70
100
AcDbEntity
  8
Group#1
 48
0.1
100
AcDbLine
 10
36.26724034397827
 20
56.92155777095419
 30
0.4000229270863667
 11
36.29266728776345
 21
56.95469488343684
 31
0.4000229766443674
  0
LINE
  5
14E
330
70
100
AcDbEntity
  8
Group#1
 48
0.1
100
AcDbLine
 10
36.29266728776345
 20
56.95469488343684
 30
0.4000229766443674
 11
36.32580434525948
 21
56.98012189888212
 31
0.4000230174597772
  0
LINE
  5
14F
330
70
100
AcDbEntity
  8
Group#1
 48
0.1
100
AcDbLine
 10
36.32580434525948
 20
56.98012189888212
 30
0.4000230174597772
 11
36.36439328075942
 21
56.99610600820754
 31
0.4000230467510895
  0
LINE
  5
150
330
70
100
AcDbEntity
  8
Group#1
 48
0.1
100
AcDbLine
 10
36.36439328075942
 20
56.99610600820754
 30
0.4000230467510895
 11
36.40580432208026
 21
57.00155792077757
 31
0.4000230625221558
  0
LINE
  5
151
330
70
100
AcDbEntity
  8
Group#1
 48
0.1
100
AcDbLine
 10
36.40580432208026
 20
57.00155792077757
 30
0.4000230625221558
 11
36.44721537519094
 21
56.9961060977603
 31
0.4000230636982037
  0
LINE
  5
152
330
70
100
AcDbEntity
  8
Group#1
 48
0.1
100
AcDbLine
 10
36.44721537519094
 20
56.9961060977603
 30
0.4000230636982037
 11
36.48580434525693
 21
56.9801220718848
 31
0.4000230501990827
  0
LINE
  5
153
330
70
100
AcDbEntity
  8
Group#1
 48
0.1
100
AcDbLine
 10
36.48580434525693
 20
56.9801220718848
 30
0.4000230501990827
 11
36.51894145773966
 21
56.95469512809956
 31
0.4000230229447338
  0
LINE
  5
154
330
70
100
AcDbEntity
  8
Group#1
 48
0.1
100
AcDbLine
 10
36.51894145773966
 20
56.95469512809956
 30
0.4000230229447338
 11
36.54436847318493
 21
56.92155807060359
 31
0.4000229837925088
  0
LINE
  5
155
330
70
100
AcDbEntity
  8
Group#1
 48
0.1
100
AcDbLine
 10
36.54436847318493
 20
56.92155807060359
 30
0.4000229837925088
 11
36.56035258251042
 21
56.88296913510374
 31
0.4000229354105559
  0
LINE
  5
156
330
70
100
AcDbEntity
  8
Group#1
 48
0.1
100
AcDbLine
 10
36.56035258251042
 20
56.88296913510374
 30
0.4000229354105559
 11
36.56580449508053
 21
56.84155809378296
 31
0.4000228810960162
  0
LINE
  5
157
330
70
100
AcDbEntity
  8
Group#1
 48
0.1
100
AcDbLine
 10
36.51894170240243
 20
56.72842095812365
 30
0.4000227200690718
 11
36.48580464490647
 21
56.70299394267836
 31
0.4000226792536621
  0
LINE
  5
158
330
70
100
AcDbEntity
  8
Group#1
 48
0.1
100
AcDbLine
 10
36.48580464490647
 20
56.70299394267836
 30
0.4000226792536621
 11
36.44721570940653
 21
56.68700983335295
 31
0.4000226499623408
  0
LINE
  5
159
330
70
100
AcDbEntity
  8
Group#1
 48
0.1
100
AcDbLine
 10
36.44721570940653
 20
56.68700983335295
 30
0.4000226499623408
 11
36.40580466808578
 21
56.68155792078287
 31
0.4000226341912744
  0
LINE
  5
15A
330
70
100
AcDbEntity
  8
Group#1
 48
0.1
100
AcDbLine
 10
36.40580466808578
 20
56.68155792078287
 30
0.4000226341912744
 11
36.36439361497501
 21
56.68700974380016
 31
0.4000226330152266
  0
LINE
  5
15B
330
70
100
AcDbEntity
  8
Group#1
 48
0.1
100
AcDbLine
 10
36.36439361497501
 20
56.68700974380016
 30
0.4000226330152266
 11
36.32580464490897
 21
56.70299376967569
 31
0.4000226465143474
  0
LINE
  5
15C
330
70
100
AcDbEntity
  8
Group#1
 48
0.1
100
AcDbLine
 10
36.32580464490897
 20
56.70299376967569
 30
0.4000226465143474
 11
36.29266753242631
 21
56.7284207134609
 31
0.4000226737686964
  0
LINE
  5
15D
330
70
100
AcDbEntity
  8
Group#1
 48
0.1
100
AcDbLine
 10
36.29266753242631
 20
56.7284207134609
 30
0.4000226737686964
 11
36.2691134463405
 21
56.75911692735685
 31
0.4000233049488899
  0
LINE
  5
15E
330
70
100
AcDbEntity
  8
Group#1
 48
0.1
100
AcDbLine
 10
6.038245007099437
 20
26.25485774723775
 30
0.4000020647960618
 11
6.035810491916144
 21
26.25298967803548
 31
0.4000012184316978
  0
LINE
  5
15F
330
70
100
AcDbEntity
  8
Group#1
 48
0.1
100
AcDbLine
 10
6.035810491916144
 20
26.25298967803548
 30
0.4000012184316978
 11
5.997221539132532
 21
26.23700561043478
 31
0.4000012035017213
  0
LINE
  5
160
330
70
100
AcDbEntity
  8
Group#1
 48
0.1
100
AcDbLine
 10
6.035810491916182
 20
26.53011780724637
 30
0.4000013361016439
 11
6.038246502852757
 21
26.52824859031067
 31
0.400002215240263
  0
LINE
  5
161
330
70
100
AcDbEntity
  8
Group#1
 48
0.1
100
AcDbLine
 10
6.038246502852757
 20
26.52824859031067
 30
0.400002215240263
 11
6.068947576906069
 21
26.5046908276307
 31
0.4000013322978293
  0
LINE
  5
162
330
70
100
AcDbEntity
  8
Group#1
 48
0.1
100
AcDbLine
 10
6.068947576906069
 20
26.5046908276307
 30
0.4000013322978293
 11
6.094374556521659
 21
26.4715537426409
 31
0.4000013235932832
  0
LINE
  5
163
330
70
100
AcDbEntity
  8
Group#1
 48
0.1
100
AcDbLine
 10
6.094374556521659
 20
26.4715537426409
 30
0.4000013235932832
 11
6.110358624122401
 21
26.43296478985731
 31
0.4000013105811908
  0
LINE
  5
164
330
70
100
AcDbEntity
  8
Group#1
 48
0.1
100
AcDbLine
 10
6.110358624122401
 20
26.43296478985731
 30
0.4000013105811908
 11
6.115810491916127
 21
26.39155374264091
 31
0.4000012941483212
  0
LINE
  5
165
330
70
100
AcDbEntity
  8
Group#1
 48
0.1
100
AcDbLine
 10
6.115810491916127
 20
26.39155374264091
 30
0.4000012941483212
 11
6.110358624122365
 21
26.35014269542454
 31
0.4000012754145303
  0
LINE
  5
166
330
70
100
AcDbEntity
  8
Group#1
 48
0.1
100
AcDbLine
 10
6.110358624122365
 20
26.35014269542454
 30
0.4000012754145303
 11
6.094374556521659
 21
26.31155374264095
 31
0.4000012556565097
  0
LINE
  5
167
330
70
100
AcDbEntity
  8
Group#1
 48
0.1
100
AcDbLine
 10
6.094374556521659
 20
26.31155374264095
 30
0.4000012556565097
 11
6.06894757690596
 21
26.27841665765111
 31
0.4000012362207231
  0
LINE
  5
168
330
70
100
AcDbEntity
  8
Group#1
 48
0.1
100
AcDbLine
 10
6.06894757690596
 20
26.27841665765111
 30
0.4000012362207231
 11
6.038245007099437
 21
26.25485774723775
 31
0.4000020647960618
  0
LINE
  5
169
330
70
100
AcDbEntity
  8
Group#1
 48
0.1
100
AcDbLine
 10
3.851262315001202
 20
28.38296448050729
 30
0.4000035551236043
 11
3.867246340876729
 21
28.42155345057334
 31
0.400003540310343
  0
LINE
  5
16A
330
70
100
AcDbEntity
  8
Group#1
 48
0.1
100
AcDbLine
 10
3.964399277657912
 20
28.49610168782671
 30
0.4000035266240666
 11
4.005810318978719
 21
28.50155360039676
 31
0.4000035333518839
  0
LINE
  5
16B
330
70
100
AcDbEntity
  8
Group#1
 48
0.1
100
AcDbLine
 10
4.005810318978719
 20
28.50155360039676
 30
0.4000035333518839
 11
4.047221372089422
 21
28.49610177737945
 31
0.4000035452828507
  0
LINE
  5
16C
330
70
100
AcDbEntity
  8
Group#1
 48
0.1
100
AcDbLine
 10
4.047221372089422
 20
28.49610177737945
 30
0.4000035452828507
 11
4.085810342155451
 21
28.48011775150397
 31
0.4000035616039143
  0
LINE
  5
16D
330
70
100
AcDbEntity
  8
Group#1
 48
0.1
100
AcDbLine
 10
4.085810342155451
 20
28.48011775150397
 30
0.4000035616039143
 11
4.118947454638144
 21
28.45469080771872
 31
0.4000035812027897
  0
LINE
  5
16E
330
70
100
AcDbEntity
  8
Group#1
 48
0.1
100
AcDbLine
 10
4.118947454638144
 20
28.45469080771872
 30
0.4000035812027897
 11
4.142501540723667
 21
28.42399459382221
 31
0.4000041960690486
  0
LINE
  5
16F
330
70
100
AcDbEntity
  8
Group#1
 48
0.1
100
AcDbLine
 10
4.142501540723667
 20
28.42399459382221
 30
0.4000041960690486
 11
4.144374470083388
 21
28.42155375022276
 31
0.4000036027438594
  0
LINE
  5
170
330
70
100
AcDbEntity
  8
Group#1
 48
0.1
100
AcDbLine
 10
4.144374470083388
 20
28.42155375022276
 30
0.4000036027438594
 11
4.160358579408843
 21
28.38296481472281
 31
0.4000036247591438
  0
LINE
  5
171
330
70
100
AcDbEntity
  8
Group#1
 48
0.1
100
AcDbLine
 10
4.160358579408843
 20
28.38296481472281
 30
0.4000036247591438
 11
4.165810491978943
 21
28.34155377340201
 31
0.4000036457483302
  0
LINE
  5
172
330
70
100
AcDbEntity
  8
Group#1
 48
0.1
100
AcDbLine
 10
4.165810491978943
 20
28.34155377340201
 30
0.4000036457483302
 11
4.160358668961631
 21
28.30014272029131
 31
0.4000036642810417
  0
LINE
  5
173
330
70
100
AcDbEntity
  8
Group#1
 48
0.1
100
AcDbLine
 10
4.160358668961631
 20
28.30014272029131
 30
0.4000036642810417
 11
4.144374643086102
 21
28.26155375022525
 31
0.4000036790942941
  0
LINE
  5
174
330
70
100
AcDbEntity
  8
Group#1
 48
0.1
100
AcDbLine
 10
4.144374643086102
 20
28.26155375022525
 30
0.4000036790942941
 11
4.118947699300854
 21
28.22841663774259
 31
0.4000036891786115
  0
LINE
  5
175
330
70
100
AcDbEntity
  8
Group#1
 48
0.1
100
AcDbLine
 10
4.118947699300854
 20
28.22841663774259
 30
0.4000036891786115
 11
4.085810641804854
 21
28.20298962229731
 31
0.4000036938467435
  0
LINE
  5
176
330
70
100
AcDbEntity
  8
Group#1
 48
0.1
100
AcDbLine
 10
4.085810641804854
 20
28.20298962229731
 30
0.4000036938467435
 11
4.04722170630492
 21
28.18700551297188
 31
0.4000036927805705
  0
LINE
  5
177
330
70
100
AcDbEntity
  8
Group#1
 48
0.1
100
AcDbLine
 10
4.04722170630492
 20
28.18700551297188
 30
0.4000036927805705
 11
4.005810664984077
 21
28.18155360040183
 31
0.4000036860527531
  0
LINE
  5
178
330
70
100
AcDbEntity
  8
Group#1
 48
0.1
100
AcDbLine
 10
4.005810664984077
 20
28.18155360040183
 30
0.4000036860527531
 11
3.964399611873409
 21
28.1870054234191
 31
0.4000036741217862
  0
LINE
  5
179
330
70
100
AcDbEntity
  8
Group#1
 48
0.1
100
AcDbLine
 10
3.964399611873409
 20
28.1870054234191
 30
0.4000036741217862
 11
3.925810641807382
 21
28.20298944929462
 31
0.4000036578007317
  0
LINE
  5
17A
330
70
100
AcDbEntity
  8
Group#1
 48
0.1
100
AcDbLine
 10
3.925810641807382
 20
28.20298944929462
 30
0.4000036578007317
 11
3.892673529324689
 21
28.22841639307984
 31
0.4000036382018474
  0
LINE
  5
17B
330
70
100
AcDbEntity
  8
Group#1
 48
0.1
100
AcDbLine
 10
3.892673529324689
 20
28.22841639307984
 30
0.4000036382018474
 11
3.867246513879408
 21
28.26155345057583
 31
0.4000036166607776
  0
LINE
  5
17C
330
70
100
AcDbEntity
  8
Group#1
 48
0.1
100
AcDbLine
 10
3.867246513879408
 20
28.26155345057583
 30
0.4000036166607776
 11
3.851262404553953
 21
28.30014238607578
 31
0.4000035946454932
  0
LINE
  5
17D
330
70
100
AcDbEntity
  8
Group#1
 48
0.1
100
AcDbLine
 10
3.851262404553953
 20
28.30014238607578
 30
0.4000035946454932
 11
3.84581049198389
 21
28.34155342739662
 31
0.4000035736563067
  0
LINE
  5
17E
330
70
100
AcDbEntity
  8
Group#1
 48
0.1
100
AcDbLine
 10
3.84581049198389
 20
28.34155342739662
 30
0.4000035736563067
 11
3.851262315001202
 21
28.38296448050729
 31
0.4000035551236043
  0
LINE
  5
17F
330
70
100
AcDbEntity
  8
Group#1
 48
0.1
100
AcDbLine
 10
6.038246326762283
 20
58.65486171339814
 30
0.400017640588933
 11
6.035805483162715
 21
58.65298878403883
 31
0.4000170465645907
  0
LINE
  5
180
330
70
100
AcDbEntity
  8
Group#1
 48
0.1
100
AcDbLine
 10
6.035805483162715
 20
58.65298878403883
 30
0.4000170465645907
 11
5.99721654766278
 21
58.63700467471332
 31
0.4000170663811675
  0
LINE
  5
181
330
70
100
AcDbEntity
  8
Group#1
 48
0.1
100
AcDbLine
 10
5.99721654766278
 20
58.63700467471332
 30
0.4000170663811675
 11
5.955805506341974
 21
58.63155276214323
 31
0.4000170926145261
  0
LINE
  5
182
330
70
100
AcDbEntity
  8
Group#1
 48
0.1
100
AcDbLine
 10
5.955805506341974
 20
58.63155276214323
 30
0.4000170926145261
 11
5.914394453231269
 21
58.63700458516051
 31
0.400017123476925
  0
LINE
  5
183
330
70
100
AcDbEntity
  8
Group#1
 48
0.1
100
AcDbLine
 10
5.914394453231269
 20
58.63700458516051
 30
0.400017123476925
 11
5.875805483165242
 21
58.65298861103608
 31
0.4000171568651297
  0
LINE
  5
184
330
70
100
AcDbEntity
  8
Group#1
 48
0.1
100
AcDbLine
 10
5.875805483165242
 20
58.65298861103608
 30
0.4000171568651297
 11
5.842668370682549
 21
58.67841555482124
 31
0.4000171905038105
  0
LINE
  5
185
330
70
100
AcDbEntity
  8
Group#1
 48
0.1
100
AcDbLine
 10
5.842668370682549
 20
58.67841555482124
 30
0.4000171905038105
 11
5.817241355237268
 21
58.71155261231725
 31
0.4000172221005288
  0
LINE
  5
186
330
70
100
AcDbEntity
  8
Group#1
 48
0.1
100
AcDbLine
 10
5.817241355237268
 20
58.71155261231725
 30
0.4000172221005288
 11
5.80125724591185
 21
58.75014154781715
 31
0.4000172495020213
  0
LINE
  5
187
330
70
100
AcDbEntity
  8
Group#1
 48
0.1
100
AcDbLine
 10
5.80125724591185
 20
58.75014154781715
 30
0.4000172495020213
 11
5.795805333341785
 21
58.79155258913799
 31
0.4000172708409198
  0
LINE
  5
188
330
70
100
AcDbEntity
  8
Group#1
 48
0.1
100
AcDbLine
 10
5.795805333341785
 20
58.79155258913799
 30
0.4000172708409198
 11
5.801257156359064
 21
58.83296364224865
 31
0.4000172846630329
  0
LINE
  5
189
330
70
100
AcDbEntity
  8
Group#1
 48
0.1
100
AcDbLine
 10
5.801257156359064
 20
58.83296364224865
 30
0.4000172846630329
 11
5.817241182234591
 21
58.87155261231473
 31
0.4000172900263835
  0
LINE
  5
18A
330
70
100
AcDbEntity
  8
Group#1
 48
0.1
100
AcDbLine
 10
5.817241182234591
 20
58.87155261231473
 30
0.4000172900263835
 11
5.842668126019802
 21
58.90468972479737
 31
0.400017286565477
  0
LINE
  5
18B
330
70
100
AcDbEntity
  8
Group#1
 48
0.1
100
AcDbLine
 10
5.842668126019802
 20
58.90468972479737
 30
0.400017286565477
 11
5.875805183515803
 21
58.93011674024272
 31
0.4000172745161707
  0
LINE
  5
18C
330
70
100
AcDbEntity
  8
Group#1
 48
0.1
100
AcDbLine
 10
5.875805183515803
 20
58.93011674024272
 30
0.4000172745161707
 11
5.9143941190157
 21
58.94610084956815
 31
0.4000172546996029
  0
LINE
  5
18D
330
70
100
AcDbEntity
  8
Group#1
 48
0.1
100
AcDbLine
 10
5.9143941190157
 20
58.94610084956815
 30
0.4000172546996029
 11
5.955805160336543
 21
58.95155276213825
 31
0.4000172284662355
  0
LINE
  5
18E
330
70
100
AcDbEntity
  8
Group#1
 48
0.1
100
AcDbLine
 10
5.955805160336543
 20
58.95155276213825
 30
0.4000172284662355
 11
5.997216213447211
 21
58.94610093912098
 31
0.4000171976038455
  0
LINE
  5
18F
330
70
100
AcDbEntity
  8
Group#1
 48
0.1
100
AcDbLine
 10
5.997216213447211
 20
58.94610093912098
 30
0.4000171976038455
 11
6.035805183513275
 21
58.93011691324549
 31
0.4000171642156318
  0
LINE
  5
190
330
70
100
AcDbEntity
  8
Group#1
 48
0.1
100
AcDbLine
 10
6.068942295995931
 20
58.90468996946023
 30
0.4000171305769599
 11
6.094369311441212
 21
58.87155291196427
 31
0.4000170989802417
  0
LINE
  5
191
330
70
100
AcDbEntity
  8
Group#1
 48
0.1
100
AcDbLine
 10
3.869109480177529
 20
56.75911824702379
 30
0.4000147376831213
 11
3.867241410975085
 21
56.76155276220761
 31
0.4000138932971464
  0
LINE
  5
192
330
70
100
AcDbEntity
  8
Group#1
 48
0.1
100
AcDbLine
 10
3.867241410975085
 20
56.76155276220761
 30
0.4000138932971464
 11
3.85125734337434
 21
56.80014171499118
 31
0.4000139068348355
  0
LINE
  5
193
330
70
100
AcDbEntity
  8
Group#1
 48
0.1
100
AcDbLine
 10
3.85125734337434
 20
56.80014171499118
 30
0.4000139068348355
 11
3.845805475580617
 21
56.8415527622076
 31
0.4000139238480768
  0
LINE
  5
194
330
70
100
AcDbEntity
  8
Group#1
 48
0.1
100
AcDbLine
 10
3.845805475580617
 20
56.8415527622076
 30
0.4000139238480768
 11
3.851257343374378
 21
56.88296380942393
 31
0.4000139431774536
  0
LINE
  5
195
330
70
100
AcDbEntity
  8
Group#1
 48
0.1
100
AcDbLine
 10
3.851257343374378
 20
56.88296380942393
 30
0.4000139431774536
 11
3.86724141097512
 21
56.92155276220751
 31
0.400013963505685
  0
LINE
  5
196
330
70
100
AcDbEntity
  8
Group#1
 48
0.1
100
AcDbLine
 10
3.86724141097512
 20
56.92155276220751
 30
0.400013963505685
 11
3.892668390590783
 21
56.95468984719735
 31
0.4000139834474413
  0
LINE
  5
197
330
70
100
AcDbEntity
  8
Group#1
 48
0.1
100
AcDbLine
 10
3.892668390590783
 20
56.95468984719735
 30
0.4000139834474413
 11
3.925805475580597
 21
56.98011682681299
 31
0.4000140016437329
  0
LINE
  5
198
330
70
100
AcDbEntity
  8
Group#1
 48
0.1
100
AcDbLine
 10
3.925805475580597
 20
56.98011682681299
 30
0.4000140016437329
 11
3.964394428364174
 21
56.99610089441373
 31
0.4000140168545058
  0
LINE
  5
199
330
70
100
AcDbEntity
  8
Group#1
 48
0.1
100
AcDbLine
 10
3.964394428364174
 20
56.99610089441373
 30
0.4000140168545058
 11
4.005805475580579
 21
57.00155276220742
 31
0.4000140280431763
  0
LINE
  5
19A
330
70
100
AcDbEntity
  8
Group#1
 48
0.1
100
AcDbLine
 10
4.005805475580579
 20
57.00155276220742
 30
0.4000140280431763
 11
4.047216522796949
 21
56.99610089441366
 31
0.4000140344472434
  0
LINE
  5
19B
330
70
100
AcDbEntity
  8
Group#1
 48
0.1
100
AcDbLine
 10
4.047216522796949
 20
56.99610089441366
 30
0.4000140344472434
 11
4.085805475580526
 21
56.98011682681292
 31
0.4000140356302849
  0
LINE
  5
19C
330
70
100
AcDbEntity
  8
Group#1
 48
0.1
100
AcDbLine
 10
4.085805475580526
 20
56.98011682681292
 30
0.4000140356302849
 11
4.118942560570378
 21
56.95468984719726
 31
0.4000140315116899
  0
LINE
  5
19D
330
70
100
AcDbEntity
  8
Group#1
 48
0.1
100
AcDbLine
 10
4.118942560570378
 20
56.95468984719726
 30
0.4000140315116899
 11
4.144369540186003
 21
56.92155276220744
 31
0.4000140223721289
  0
LINE
  5
19E
330
70
100
AcDbEntity
  8
Group#1
 48
0.1
100
AcDbLine
 10
4.144369540186003
 20
56.92155276220744
 30
0.4000140223721289
 11
4.160353607786746
 21
56.88296380942386
 31
0.4000140088344308
  0
LINE
  5
19F
330
70
100
AcDbEntity
  8
Group#1
 48
0.1
100
AcDbLine
 10
4.16035360778671
 20
56.80014171499113
 30
0.4000139724918218
 11
4.144369540185966
 21
56.76155276220754
 31
0.4000139521635904
  0
LINE
  5
1A0
330
70
100
AcDbEntity
  8
Group#1
 48
0.1
100
AcDbLine
 10
4.144369540185966
 20
56.76155276220754
 30
0.4000139521635904
 11
4.142500323250486
 21
56.75911675127038
 31
0.4000148301158565
  0
LINE
  5
1A1
330
70
100
AcDbEntity
  8
Group#1
 48
0.1
100
AcDbLine
 10
4.142500323250486
 20
56.75911675127038
 30
0.4000148301158565
 11
4.118942560570305
 21
56.72841567721765
 31
0.4000139322218251
  0
LINE
  5
1A2
330
70
100
AcDbEntity
  8
Group#1
 48
0.1
100
AcDbLine
 10
4.118942560570305
 20
56.72841567721765
 30
0.4000139322218251
 11
4.085805475580489
 21
56.70298869760206
 31
0.4000139140255334
  0
LINE
  5
1A3
330
70
100
AcDbEntity
  8
Group#1
 48
0.1
100
AcDbLine
 10
4.085805475580489
 20
56.70298869760206
 30
0.4000139140255334
 11
4.047216522796913
 21
56.68700463000132
 31
0.4000138988147696
  0
LINE
  5
1A4
330
70
100
AcDbEntity
  8
Group#1
 48
0.1
100
AcDbLine
 10
4.047216522796913
 20
56.68700463000132
 30
0.4000138988147696
 11
4.005805475580508
 21
56.68155276220762
 31
0.4000138876260991
  0
LINE
  5
1A5
330
70
100
AcDbEntity
  8
Group#1
 48
0.1
100
AcDbLine
 10
4.005805475580508
 20
56.68155276220762
 30
0.4000138876260991
 11
3.964394428364139
 21
56.68700463000139
 31
0.400013881222032
  0
LINE
  5
1A6
330
70
100
AcDbEntity
  8
Group#1
 48
0.1
100
AcDbLine
 10
3.964394428364139
 20
56.68700463000139
 30
0.400013881222032
 11
3.925805475580562
 21
56.70298869760213
 31
0.4000138800389815
  0
LINE
  5
1A7
330
70
100
AcDbEntity
  8
Group#1
 48
0.1
100
AcDbLine
 10
3.925805475580562
 20
56.70298869760213
 30
0.4000138800389815
 11
3.89266839059071
 21
56.72841567721779
 31
0.4000138841575854
  0
LINE
  5
1A8
330
70
100
AcDbEntity
  8
Group#1
 48
0.1
100
AcDbLine
 10
3.89266839059071
 20
56.72841567721779
 30
0.4000138841575854
 11
3.869109480177529
 21
56.75911824702379
 31
0.4000147376831213
  0
LINE
  5
1A9
330
70
100
AcDbEntity
  8
Group#1
 48
0.1
100
AcDbLine
 10
34.37336997996541
 20
58.92825377394268
 30
0.4000222270554867
 11
34.37580449514903
 21
58.93012184314571
 31
0.4000213833467912
  0
LINE
  5
1AA
330
70
100
AcDbEntity
  8
Group#1
 48
0.1
100
AcDbLine
 10
34.37580449514903
 20
58.93012184314571
 30
0.4000213833467912
 11
34.41439344793268
 21
58.94610591074645
 31
0.4000213987742728
  0
LINE
  5
1AB
330
70
100
AcDbEntity
  8
Group#1
 48
0.1
100
AcDbLine
 10
34.41439344793268
 20
58.94610591074645
 30
0.4000213987742728
 11
34.45580449514901
 21
58.95155777854014
 31
0.4000214102196459
  0
LINE
  5
1AC
330
70
100
AcDbEntity
  8
Group#1
 48
0.1
100
AcDbLine
 10
34.45580449514901
 20
58.95155777854014
 30
0.4000214102196459
 11
34.49721554236541
 21
58.94610591074638
 31
0.4000214169029304
  0
LINE
  5
1AD
330
70
100
AcDbEntity
  8
Group#1
 48
0.1
100
AcDbLine
 10
34.49721554236541
 20
58.94610591074638
 30
0.4000214169029304
 11
34.53580449514898
 21
58.93012184314564
 31
0.4000214183686632
  0
LINE
  5
1AE
330
70
100
AcDbEntity
  8
Group#1
 48
0.1
100
AcDbLine
 10
34.53580449514898
 20
58.93012184314564
 30
0.4000214183686632
 11
34.56894158013881
 21
58.90469486352998
 31
0.4000214145169679
  0
LINE
  5
1AF
330
70
100
AcDbEntity
  8
Group#1
 48
0.1
100
AcDbLine
 10
34.56894158013881
 20
58.90469486352998
 30
0.4000214145169679
 11
34.59436855975447
 21
58.87155777854016
 31
0.4000214056103227
  0
LINE
  5
1B0
330
70
100
AcDbEntity
  8
Group#1
 48
0.1
100
AcDbLine
 10
34.59436855975447
 20
58.87155777854016
 30
0.4000214056103227
 11
34.61035262735521
 21
58.83296882575661
 31
0.4000213922557014
  0
LINE
  5
1B1
330
70
100
AcDbEntity
  8
Group#1
 48
0.1
100
AcDbLine
 10
34.61035262735521
 20
58.83296882575661
 30
0.4000213922557014
 11
34.61580449514897
 21
58.79155777854018
 31
0.4000213753632088
  0
LINE
  5
1B2
330
70
100
AcDbEntity
  8
Group#1
 48
0.1
100
AcDbLine
 10
34.61580449514897
 20
58.79155777854018
 30
0.4000213753632088
 11
34.61035262735521
 21
58.75014673132385
 31
0.4000213560840319
  0
LINE
  5
1B3
330
70
100
AcDbEntity
  8
Group#1
 48
0.1
100
AcDbLine
 10
34.61035262735521
 20
58.75014673132385
 30
0.4000213560840319
 11
34.5943685597544
 21
58.71155777854028
 31
0.4000213357320134
  0
LINE
  5
1B4
330
70
100
AcDbEntity
  8
Group#1
 48
0.1
100
AcDbLine
 10
34.5943685597544
 20
58.71155777854028
 30
0.4000213357320134
 11
34.56894158013881
 21
58.67842069355038
 31
0.4000213156941168
  0
LINE
  5
1B5
330
70
100
AcDbEntity
  8
Group#1
 48
0.1
100
AcDbLine
 10
34.56894158013881
 20
58.67842069355038
 30
0.4000213156941168
 11
34.53580449514898
 21
58.65299371393479
 31
0.4000212973358823
  0
LINE
  5
1B6
330
70
100
AcDbEntity
  8
Group#1
 48
0.1
100
AcDbLine
 10
34.53580449514898
 20
58.65299371393479
 30
0.4000212973358823
 11
34.49721554236541
 21
58.63700964633406
 31
0.4000212819084096
  0
LINE
  5
1B7
330
70
100
AcDbEntity
  8
Group#1
 48
0.1
100
AcDbLine
 10
34.49721554236541
 20
58.63700964633406
 30
0.4000212819084096
 11
34.45580449514901
 21
58.63155777854032
 31
0.4000212704630365
  0
LINE
  5
1B8
330
70
100
AcDbEntity
  8
Group#1
 48
0.1
100
AcDbLine
 10
34.31724043054355
 20
58.71155777854035
 30
0.4000212750723596
 11
34.30125636294281
 21
58.75014673132392
 31
0.4000212884269719
  0
LINE
  5
1B9
330
70
100
AcDbEntity
  8
Group#1
 48
0.1
100
AcDbLine
 10
34.30125636294281
 20
58.75014673132392
 30
0.4000212884269719
 11
34.29580449514904
 21
58.79155777854032
 31
0.4000213053194645
  0
LINE
  5
1BA
330
70
100
AcDbEntity
  8
Group#1
 48
0.1
100
AcDbLine
 10
34.29580449514904
 20
58.79155777854032
 30
0.4000213053194645
 11
34.30125636294281
 21
58.83296882575667
 31
0.4000213245986505
  0
LINE
  5
1BB
330
70
100
AcDbEntity
  8
Group#1
 48
0.1
100
AcDbLine
 10
34.30125636294281
 20
58.83296882575667
 30
0.4000213245986505
 11
34.31724043054362
 21
58.87155777854025
 31
0.4000213449506599
  0
LINE
  5
1BC
330
70
100
AcDbEntity
  8
Group#1
 48
0.1
100
AcDbLine
 10
34.31724043054362
 20
58.87155777854025
 30
0.4000213449506599
 11
34.34266741015921
 21
58.90469486353005
 31
0.4000213649885656
  0
LINE
  5
1BD
330
70
100
AcDbEntity
  8
Group#1
 48
0.1
100
AcDbLine
 10
34.34266741015921
 20
58.90469486353005
 30
0.4000213649885656
 11
34.37336997996541
 21
58.92825377394268
 31
0.4000222270554867
  0
LINE
  5
1F2
330
70
100
AcDbEntity
  8
0
 48
0.1
100
AcDbLine
 10
1.830135209906682
 20
61.1212411728915
 30
0.0
 11
1.830135209906671
 21
1.121241172891501
 31
0.0
  0
LINE
  5
1F3
330
70
100
AcDbEntity
  8
0
 48
0.1
100
AcDbLine
 10
1.830135209906671
 20
1.121241172891501
 30
0.0
 11
91.83013520990668
 21
1.121241172891501
 31
0.0
  0
LINE
  5
1F4
330
70
100
AcDbEntity
  8
0
 48
0.1
100
AcDbLine
 10
91.83013520990668
 20
1.121241172891501
 30
0.0
 11
91.83013520990668
 21
61.12124117289152
 31
0.0
  0
LINE
  5
1F5
330
70
100
AcDbEntity
  8
0
 48
0.1
100
AcDbLine
 10
91.83013520990668
 20
61.12124117289152
 30
0.0
 11
91.83013520990668
 21
61.12124117289152
 31
0.0
  0
LINE
  5
1F6
330
70
100
AcDbEntity
  8
0
 48
0.1
100
AcDbLine
 10
91.83013520990668
 20
61.12124117289152
 30
0.0
 11
1.830135209906682
 21
61.1212411728915
 31
0.0
  0
ENDSEC
  0
SECTION
  2
OBJECTS
  0
DICTIONARY
  5
C
330
0
100
AcDbDictionary
281
     1
  3
ACAD_CIP_PREVIOUS_PRODUCT_INFO
350
1C2
  3
ACAD_COLOR
350
62
  3
ACAD_DETAILVIEWSTYLE
350
6A
  3
ACAD_GROUP
350
D
  3
ACAD_LAYOUT
350
61
  3
ACAD_MATERIAL
350
10
  3
ACAD_MLEADERSTYLE
350
65
  3
ACAD_MLINESTYLE
350
5E
  3
ACAD_PLOTSETTINGS
350
60
  3
ACAD_PLOTSTYLENAME
350
E
  3
ACAD_SCALELIST
350
42
  3
ACAD_SECTIONVIEWSTYLE
350
67
  3
ACAD_TABLESTYLE
350
63
  3
ACAD_VISUALSTYLE
350
29
  3
ACDB_RECOMPOSE_DATA
350
4B7
  3
AcDbVariableDictionary
350
1D7
  0
DICTIONARY
  5
1D1
330
2
100
AcDbDictionary
280
     1
281
     1
  3
ACAD_LAYERSTATES
360
1D2
  0
DICTIONARY
  5
1CA
330
54
100
AcDbDictionary
280
     1
281
     1
  3
ADSK_XREC_LAYER_RECONCILED
360
1CB
  0
DICTIONARY
  5
1CC
330
74
100
AcDbDictionary
280
     1
281
     1
  3
ADSK_XREC_LAYER_RECONCILED
360
1CD
  0
XRECORD
  5
1C2
102
{ACAD_REACTORS
330
C
102
}
330
C
100
AcDbXrecord
280
     1
300
ACDMAC
300
2013
300

  0
DICTIONARY
  5
62
102
{ACAD_REACTORS
330
C
102
}
330
C
100
AcDbDictionary
281
     1
  0
DICTIONARY
  5
6A
102
{ACAD_REACTORS
330
C
102
}
330
C
100
AcDbDictionary
281
     1
  3
Imperial24
350
6B
  0
DICTIONARY
  5
D
102
{ACAD_REACTORS
330
C
102
}
330
C
100
AcDbDictionary
281
     1
  0
DICTIONARY
  5
61
102
{ACAD_REACTORS
330
C
102
}
330
C
100
AcDbDictionary
281
     1
  3
Layout1
350
6F
  3
Model
350
73
  0
DICTIONARY
  5
10
102
{ACAD_REACTORS
330
C
102
}
330
C
100
AcDbDictionary
281
     1
  3
ByBlock
350
19
  3
ByLayer
350
11
  3
Global
350
21
  0
DICTIONARY
  5
65
102
{ACAD_REACTORS
330
C
102
}
330
C
100
AcDbDictionary
281
     1
  3
Standard
350
66
  0
DICTIONARY
  5
5E
102
{ACAD_REACTORS
330
C
102
}
330
C
100
AcDbDictionary
281
     1
  3
Standard
350
5F
  0
DICTIONARY
  5
60
102
{ACAD_REACTORS
330
C
102
}
330
C
100
AcDbDictionary
281
     1
  0
ACDBDICTIONARYWDFLT
  5
E
102
{ACAD_REACTORS
330
C
102
}
330
C
100
AcDbDictionary
281
     1
  3
Normal
350
F
100
AcDbDictionaryWithDefault
340
F
  0
DICTIONARY
  5
42
102
{ACAD_REACTORS
330
C
102
}
330
C
100
AcDbDictionary
281
     1
  3
A0
350
43
  3
A1
350
44
  3
A2
350
45
  3
A3
350
46
  3
A4
350
47
  3
A5
350
48
  3
A6
350
49
  3
A7
350
4A
  3
A8
350
4B
  3
A9
350
4C
  3
B0
350
4D
  3
B1
350
4E
  3
B2
350
4F
  3
B3
350
50
  3
B4
350
51
  3
B5
350
52
  3
B6
350
53
  0
DICTIONARY
  5
67
102
{ACAD_REACTORS
330
C
102
}
330
C
100
AcDbDictionary
281
     1
  3
Imperial24
350
69
  0
DICTIONARY
  5
63
102
{ACAD_REACTORS
330
C
102
}
330
C
100
AcDbDictionary
281
     1
  3
Standard
350
64
  0
DICTIONARY
  5
29
102
{ACAD_REACTORS
330
C
102
}
330
C
100
AcDbDictionary
281
     1
  3
2dWireframe
350
2F
  3
Basic
350
2E
  3
Brighten
350
35
  3
ColorChange
350
39
  3
Conceptual
350
32
  3
Dim
350
34
  3
EdgeColorOff
350
41
  3
Facepattern
350
38
  3
Flat
350
2A
  3
FlatWithEdges
350
2B
  3
Gouraud
350
2C
  3
GouraudWithEdges
350
2D
  3
Hidden
350
31
  3
JitterOff
350
3F
  3
Linepattern
350
37
  3
OverhangOff
350
40
  3
Realistic
350
33
  3
Shaded
350
3E
  3
Shaded with edges
350
3D
  3
Shades of Gray
350
3A
  3
Sketchy
350
3B
  3
Thicken
350
36
  3
Wireframe
350
30
  3
X-Ray
350
3C
  0
XRECORD
  5
4B7
102
{ACAD_REACTORS
330
C
102
}
330
C
100
AcDbXrecord
280
     1
 90
        1
330
64
  0
DICTIONARY
  5
1D7
102
{ACAD_REACTORS
330
C
102
}
330
C
100
AcDbDictionary
281
     1
  3
CANNOSCALE
350
1DD
  3
CMLEADERSTYLE
350
1D9
  3
CTABLESTYLE
350
1D8
  3
CVIEWDETAILSTYLE
350
1DA
  3
CVIEWSECTIONSTYLE
350
1DB
  3
EXPORTMODELSPACE
350
1E9
  3
EXPORTPAGESETUP
350
492
  3
LAYEREVAL
350
1DF
  3
LAYERNOTIFY
350
1E0
  3
LIGHTINGUNITS
350
1DE
  3
MSLTSCALE
350
1DC
  0
DICTIONARY
  5
1D2
102
{ACAD_REACTORS
330
1D1
102
}
330
1D1
100
AcDbDictionary
281
     1
  0
XRECORD
  5
1CB
102
{ACAD_REACTORS
330
1CA
102
}
330
1CA
100
AcDbXrecord
280
     1
290
     1
  0
XRECORD
  5
1CD
102
{ACAD_REACTORS
330
1CC
102
}
330
1CC
100
AcDbXrecord
280
     1
290
     1
  0
ACDBDETAILVIEWSTYLE
  5
6B
102
{ACAD_REACTORS
330
6A
102
}
330
6A
100
AcDbModelDocViewStyle
 70
     0
  3
Imperial24
290
     0
100
AcDbDetailViewStyle
 70
     0
 71
     0
 90
        3
 71
     1
340
55
 62
   256
 40
0.24
340
0
 62
   256
 40
0.24
300

 40
0.36
280
     3
 71
     2
340
5C
 90
       25
 62
   256
 71
     3
340
55
 62
   256
 40
0.24
 90
        1
 40
0.75
 90
        1
300
%<\AcVar ViewType \f "%tc1">% %<\AcVar ViewDetailId>%\PSCALE %<\AcVar ViewScale \f "%sn">%
 71
     4
340
5C
 90
       25
 62
   256
340
5C
 90
       25
 62
   256
280
     0
  0
LAYOUT
  5
6F
102
{ACAD_REACTORS
330
61
102
}
330
61
100
AcDbPlotSettings
  1

  2
None
  4

  6

 40
0.0
 41
0.0
 42
0.0
 43
0.0
 44
0.0
 45
0.0
 46
0.0
 47
0.0
 48
0.0
 49
0.0
140
0.0
141
0.0
142
1.0
143
1.0
 70
   688
 72
     0
 73
     0
 74
     5
  7

 75
    16
147
1.0
 76
     0
 77
     2
 78
   300
148
0.0
149
0.0
100
AcDbLayout
  1
Layout1
 70
     1
 71
     1
 10
0.0
 20
0.0
 11
12.0
 21
9.0
 12
0.0
 22
0.0
 32
0.0
 14
1.000000000000000E+20
 24
1.000000000000000E+20
 34
1.000000000000000E+20
 15
-1.000000000000000E+20
 25
-1.000000000000000E+20
 35
-1.000000000000000E+20
146
0.0
 13
0.0
 23
0.0
 33
0.0
 16
1.0
 26
0.0
 36
0.0
 17
0.0
 27
1.0
 37
0.0
 76
     0
330
6C
  0
LAYOUT
  5
73
102
{ACAD_XDICTIONARY
360
1E6
102
}
102
{ACAD_REACTORS
330
61
102
}
330
61
100
AcDbPlotSettings
  1

  2
none_device
  4
A4
  6

 40
6.349999904632568
 41
14.46388912200928
 42
6.349990844726562
 43
6.3499755859375
 44
209.9027709960938
 45
297.0388793945312
 46
0.0
 47
0.0
 48
0.0
 49
0.0
140
0.0
141
0.0
142
1.0
143
8.099537970786183
 70
 11952
 72
     0
 73
     1
 74
     0
  7

 75
     0
147
0.1234638325799385
 76
     0
 77
     2
 78
   300
148
795.0627192397948
149
405.6838719672858
100
AcDbLayout
  1
Model
 70
     1
 71
     0
 10
0.0
 20
0.0
 11
12.0
 21
9.0
 12
0.0
 22
0.0
 32
0.0
 14
0.0
 24
0.0
 34
0.0
 15
0.0
 25
0.0
 35
0.0
146
0.0
 13
0.0
 23
0.0
 33
0.0
 16
1.0
 26
0.0
 36
0.0
 17
0.0
 27
1.0
 37
0.0
 76
     0
330
70
331
1C1
1001
ACAD_PSEXT
1000
None
1000
None
1000
Not applicable
1000
The layout will not be plotted unless a new plotter configuration name is selected.
1070
     0
  0
MATERIAL
  5
19
102
{ACAD_XDICTIONARY
360
1A
102
}
102
{ACAD_REACTORS
330
10
102
}
330
10
100
AcDbMaterial
  1
ByBlock
 72
     0
 43
0.0208333333333333
 43
0.0
 43
0.0
 43
0.0
 43
0.0
 43
0.0208333333333333
 43
0.0
 43
0.0
 43
0.0
 43
0.0
 43
1.0
 43
0.0
 43
0.0
 43
0.0
 43
0.0
 43
1.0
 77
     0
 47
0.0208333333333333
 47
0.0
 47
0.0
 47
0.0
 47
0.0
 47
0.0208333333333333
 47
0.0
 47
0.0
 47
0.0
 47
0.0
 47
1.0
 47
0.0
 47
0.0
 47
0.0
 47
0.0
 47
1.0
171
     0
 49
0.0208333333333333
 49
0.0
 49
0.0
 49
0.0
 49
0.0
 49
0.0208333333333333
 49
0.0
 49
0.0
 49
0.0
 49
0.0
 49
1.0
 49
0.0
 49
0.0
 49
0.0
 49
0.0
 49
1.0
175
     0
142
0.0208333333333333
142
0.0
142
0.0
142
0.0
142
0.0
142
0.0208333333333333
142
0.0
142
0.0
142
0.0
142
0.0
142
1.0
142
0.0
142
0.0
142
0.0
142
0.0
142
1.0
179
     0
144
0.0208333333333333
144
0.0
144
0.0
144
0.0
144
0.0
144
0.0208333333333333
144
0.0
144
0.0
144
0.0
144
0.0
144
1.0
144
0.0
144
0.0
144
0.0
144
0.0
144
1.0
147
0.0208333333333333
147
0.0
147
0.0
147
0.0
147
0.0
147
0.0208333333333333
147
0.0
147
0.0
147
0.0
147
0.0
147
1.0
147
0.0
147
0.0
147
0.0
147
0.0
147
1.0
  0
MATERIAL
  5
11
102
{ACAD_XDICTIONARY
360
12
102
}
102
{ACAD_REACTORS
330
10
102
}
330
10
100
AcDbMaterial
  1
ByLayer
 72
     0
 43
0.0208333333333333
 43
0.0
 43
0.0
 43
0.0
 43
0.0
 43
0.0208333333333333
 43
0.0
 43
0.0
 43
0.0
 43
0.0
 43
1.0
 43
0.0
 43
0.0
 43
0.0
 43
0.0
 43
1.0
 77
     0
 47
0.0208333333333333
 47
0.0
 47
0.0
 47
0.0
 47
0.0
 47
0.0208333333333333
 47
0.0
 47
0.0
 47
0.0
 47
0.0
 47
1.0
 47
0.0
 47
0.0
 47
0.0
 47
0.0
 47
1.0
171
     0
 49
0.0208333333333333
 49
0.0
 49
0.0
 49
0.0
 49
0.0
 49
0.0208333333333333
 49
0.0
 49
0.0
 49
0.0
 49
0.0
 49
1.0
 49
0.0
 49
0.0
 49
0.0
 49
0.0
 49
1.0
175
     0
142
0.0208333333333333
142
0.0
142
0.0
142
0.0
142
0.0
142
0.0208333333333333
142
0.0
142
0.0
142
0.0
142
0.0
142
1.0
142
0.0
142
0.0
142
0.0
142
0.0
142
1.0
179
     0
144
0.0208333333333333
144
0.0
144
0.0
144
0.0
144
0.0
144
0.0208333333333333
144
0.0
144
0.0
144
0.0
144
0.0
144
1.0
144
0.0
144
0.0
144
0.0
144
0.0
144
1.0
147
0.0208333333333333
147
0.0
147
0.0
147
0.0
147
0.0
147
0.0208333333333333
147
0.0
147
0.0
147
0.0
147
0.0
147
1.0
147
0.0
147
0.0
147
0.0
147
0.0
147
1.0
  0
MATERIAL
  5
21
102
{ACAD_XDICTIONARY
360
22
102
}
102
{ACAD_REACTORS
330
10
102
}
330
10
100
AcDbMaterial
  1
Global
 72
     0
 43
0.0208333333333333
 43
0.0
 43
0.0
 43
0.0
 43
0.0
 43
0.0208333333333333
 43
0.0
 43
0.0
 43
0.0
 43
0.0
 43
1.0
 43
0.0
 43
0.0
 43
0.0
 43
0.0
 43
1.0
 77
     0
 47
0.0208333333333333
 47
0.0
 47
0.0
 47
0.0
 47
0.0
 47
0.0208333333333333
 47
0.0
 47
0.0
 47
0.0
 47
0.0
 47
1.0
 47
0.0
 47
0.0
 47
0.0
 47
0.0
 47
1.0
171
     0
 49
0.0208333333333333
 49
0.0
 49
0.0
 49
0.0
 49
0.0
 49
0.0208333333333333
 49
0.0
 49
0.0
 49
0.0
 49
0.0
 49
1.0
 49
0.0
 49
0.0
 49
0.0
 49
0.0
 49
1.0
175
     0
142
0.0208333333333333
142
0.0
142
0.0
142
0.0
142
0.0
142
0.0208333333333333
142
0.0
142
0.0
142
0.0
142
0.0
142
1.0
142
0.0
142
0.0
142
0.0
142
0.0
142
1.0
179
     0
144
0.0208333333333333
144
0.0
144
0.0
144
0.0
144
0.0
144
0.0208333333333333
144
0.0
144
0.0
144
0.0
144
0.0
144
1.0
144
0.0
144
0.0
144
0.0
144
0.0
144
1.0
147
0.0208333333333333
147
0.0
147
0.0
147
0.0
147
0.0
147
0.0208333333333333
147
0.0
147
0.0
147
0.0
147
0.0
147
1.0
147
0.0
147
0.0
147
0.0
147
0.0
147
1.0
  0
MLEADERSTYLE
  5
66
102
{ACAD_REACTORS
330
65
102
}
330
65
100
AcDbMLeaderStyle
179
     2
170
     2
171
     1
172
     0
 90
        2
 40
0.0
 41
0.0
173
     1
 91
-1056964608
340
5A
 92
       -2
290
     1
 42
0.09
291
     1
 43
0.36
  3
Standard
 44
0.18
300

342
55
174
     1
178
     6
175
     1
176
     0
 93
-1056964608
 45
0.18
292
     0
297
     0
 46
0.18
 94
-1056964608
 47
1.0
 49
1.0
140
1.0
293
     1
141
0.0
294
     1
177
     0
142
1.0
295
     0
296
     0
143
0.125
271
     0
272
     9
273
     9
298
     0
  0
MLINESTYLE
  5
5F
102
{ACAD_REACTORS
330
5E
102
}
330
5E
100
AcDbMlineStyle
  2
STANDARD
 70
     0
  3

 62
   256
 51
90.0
 52
90.0
 71
     2
 49
0.5
 62
   256
  6
BYLAYER
 49
-0.5
 62
   256
  6
BYLAYER
  0
ACDBPLACEHOLDER
  5
F
102
{ACAD_REACTORS
330
E
102
}
330
E
  0
SCALE
  5
43
102
{ACAD_REACTORS
330
42
102
}
330
42
100
AcDbScale
 70
     0
300
1:1
140
1.0
141
1.0
290
     1
  0
SCALE
  5
44
102
{ACAD_REACTORS
330
42
102
}
330
42
100
AcDbScale
 70
     0
300
1/128" = 1'-0"
140
0.0078125
141
12.0
290
     0
  0
SCALE
  5
45
102
{ACAD_REACTORS
330
42
102
}
330
42
100
AcDbScale
 70
     0
300
1/64" = 1'-0"
140
0.015625
141
12.0
290
     0
  0
SCALE
  5
46
102
{ACAD_REACTORS
330
42
102
}
330
42
100
AcDbScale
 70
     0
300
1/32" = 1'-0"
140
0.03125
141
12.0
290
     0
  0
SCALE
  5
47
102
{ACAD_REACTORS
330
42
102
}
330
42
100
AcDbScale
 70
     0
300
1/16" = 1'-0"
140
0.0625
141
12.0
290
     0
  0
SCALE
  5
48
102
{ACAD_REACTORS
330
42
102
}
330
42
100
AcDbScale
 70
     0
300
3/32" = 1'-0"
140
0.09375
141
12.0
290
     0
  0
SCALE
  5
49
102
{ACAD_REACTORS
330
42
102
}
330
42
100
AcDbScale
 70
     0
300
1/8" = 1'-0"
140
0.125
141
12.0
290
     0
  0
SCALE
  5
4A
102
{ACAD_REACTORS
330
42
102
}
330
42
100
AcDbScale
 70
     0
300
3/16" = 1'-0"
140
0.1875
141
12.0
290
     0
  0
SCALE
  5
4B
102
{ACAD_REACTORS
330
42
102
}
330
42
100
AcDbScale
 70
     0
300
1/4" = 1'-0"
140
0.25
141
12.0
290
     0
  0
SCALE
  5
4C
102
{ACAD_REACTORS
330
42
102
}
330
42
100
AcDbScale
 70
     0
300
3/8" = 1'-0"
140
0.375
141
12.0
290
     0
  0
SCALE
  5
4D
102
{ACAD_REACTORS
330
42
102
}
330
42
100
AcDbScale
 70
     0
300
1/2" = 1'-0"
140
0.5
141
12.0
290
     0
  0
SCALE
  5
4E
102
{ACAD_REACTORS
330
42
102
}
330
42
100
AcDbScale
 70
     0
300
3/4" = 1'-0"
140
0.75
141
12.0
290
     0
  0
SCALE
  5
4F
102
{ACAD_REACTORS
330
42
102
}
330
42
100
AcDbScale
 70
     0
300
1" = 1'-0"
140
1.0
141
12.0
290
     0
  0
SCALE
  5
50
102
{ACAD_REACTORS
330
42
102
}
330
42
100
AcDbScale
 70
     0
300
1-1/2" = 1'-0"
140
1.5
141
12.0
290
     0
  0
SCALE
  5
51
102
{ACAD_REACTORS
330
42
102
}
330
42
100
AcDbScale
 70
     0
300
3" = 1'-0"
140
3.0
141
12.0
290
     0
  0
SCALE
  5
52
102
{ACAD_REACTORS
330
42
102
}
330
42
100
AcDbScale
 70
     0
300
6" = 1'-0"
140
6.0
141
12.0
290
     0
  0
SCALE
  5
53
102
{ACAD_REACTORS
330
42
102
}
330
42
100
AcDbScale
 70
     0
300
1'-0" = 1'-0"
140
12.0
141
12.0
290
     0
  0
ACDBSECTIONVIEWSTYLE
  5
69
102
{ACAD_REACTORS
330
67
102
}
330
67
100
AcDbModelDocViewStyle
 70
     0
  3
Imperial24
290
     0
100
AcDbSectionViewStyle
 70
     0
 71
     0
 90
       78
 71
     1
340
55
 62
   256
 40
0.24
340
0
340
0
 62
   256
 40
0.24
300
I, O, Q, S, X, Z
 40
0.48
 90
        3
 40
0.18
 90
        1
 71
     2
340
68
 90
       25
 62
   256
340
5C
 90
       50
 62
   256
 40
0.24
 40
0.0
 40
0.24
 71
     3
340
55
 62
   256
 40
0.24
 90
        1
 40
0.75
 90
        1
300
%<\AcVar ViewType \f "%tc1">% %<\AcVar ViewSectionStartId>%-%<\AcVar ViewSectionEndId>%\PSCALE %<\AcVar ViewScale \f "%sn">%
 71
     4
 62
   256
 62
   257
300
ANSI31
 40
1.0
 90
        0
290
     0
290
     0
 90
        6
 40
0.0
 40
1.570796326794896
 40
0.2617993877991494
 40
1.308996938995747
 40
-0.2617993877991494
 40
1.832595714594046
  0
TABLESTYLE
  5
64
102
{ACAD_XDICTIONARY
360
4B5
102
}
102
{ACAD_REACTORS
330
63
102
}
330
63
100
AcDbTableStyle
280
     0
  3
Standard
 70
     0
 71
     0
 40
0.06
 41
0.06
280
     0
281
     0
  7
Standard
140
0.18
170
     2
 62
     0
 63
     7
283
     0
 90
      512
 91
        0
  1

274
    -2
284
     1
 64
     0
275
    -2
285
     1
 65
     0
276
    -2
286
     1
 66
     0
277
    -2
287
     1
 67
     0
278
    -2
288
     1
 68
     0
279
    -2
289
     1
 69
     0
  7
Standard
140
0.25
170
     5
 62
     0
 63
     7
283
     0
 90
      512
 91
        0
  1

274
    -2
284
     1
 64
     0
275
    -2
285
     1
 65
     0
276
    -2
286
     1
 66
     0
277
    -2
287
     1
 67
     0
278
    -2
288
     1
 68
     0
279
    -2
289
     1
 69
     0
  7
Standard
140
0.18
170
     5
 62
     0
 63
     7
283
     0
 90
      512
 91
        0
  1

274
    -2
284
     1
 64
     0
275
    -2
285
     1
 65
     0
276
    -2
286
     1
 66
     0
277
    -2
287
     1
 67
     0
278
    -2
288
     1
 68
     0
279
    -2
289
     1
 69
     0
  0
VISUALSTYLE
  5
2F
102
{ACAD_REACTORS
330
29
102
}
330
29
100
AcDbVisualStyle
  2
2dWireframe
 70
     4
177
     3
291
     0
 70
    58
 90
        0
176
     1
 90
        2
176
     1
 90
        0
176
     1
 90
        0
176
     1
 40
0.6
176
     1
 40
30.0
176
     1
 62
     7
420
 16777215
176
     1
 90
        1
176
     1
 90
        4
176
     1
 62
     7
176
     1
 62
   257
176
     1
 90
        1
176
     1
 90
        1
176
     1
 40
1.0
176
     1
 90
        0
176
     1
 62
   257
176
     1
 40
1.0
176
     1
 90
        1
176
     1
 90
        6
176
     1
 90
        2
176
     1
 62
     7
176
     1
 90
        5
176
     1
 90
        0
176
     1
 90
        0
176
     1
290
     0
176
     1
 90
        1
176
     1
 40
0.0
176
     1
 90
        0
176
     1
290
     1
176
     1
290
     1
176
     1
290
     0
176
     1
290
     0
176
     1
290
     0
176
     1
290
     0
176
     1
290
     0
176
     1
290
     0
176
     1
290
     0
176
     1
 90
       50
176
     1
 40
0.0
176
     1
 40
1.0
176
     1
 90
        0
176
     1
 62
    18
420
        0
176
     1
 90
       50
176
     1
 90
        3
176
     1
 62
     5
420
      255
176
     1
290
     0
176
     1
 90
       50
176
     1
 90
       50
176
     1
 90
       50
176
     1
290
     0
176
     1
 90
       50
176
     1
 62
   256
176
     0
 40
1.0
176
     0
 90
        2
176
     1
  1
strokes_ogs.tif
176
     1
290
     0
176
     1
 40
1.0
176
     1
 40
1.0
176
     1
  0
VISUALSTYLE
  5
2E
102
{ACAD_REACTORS
330
29
102
}
330
29
100
AcDbVisualStyle
  2
Basic
 70
     7
177
     3
291
     1
 70
    58
 90
        1
176
     1
 90
        0
176
     1
 90
        1
176
     1
 90
        0
176
     1
 40
0.6
176
     1
 40
30.0
176
     1
 62
     7
420
 16777215
176
     1
 90
        0
176
     1
 90
        4
176
     1
 62
     7
176
     1
 62
   257
176
     1
 90
        1
176
     1
 90
        1
176
     1
 40
1.0
176
     1
 90
        8
176
     1
 62
     7
176
     1
 40
1.0
176
     1
 90
        1
176
     1
 90
        6
176
     1
 90
        2
176
     1
 62
     7
176
     1
 90
        5
176
     1
 90
        0
176
     1
 90
        0
176
     1
290
     0
176
     1
 90
        1
176
     1
 40
0.0
176
     1
 90
        0
176
     1
290
     0
176
     1
290
     1
176
     1
290
     1
176
     1
290
     0
176
     1
290
     0
176
     1
290
     0
176
     1
290
     0
176
     1
290
     0
176
     1
290
     0
176
     1
 90
       50
176
     1
 40
0.0
176
     1
 40
1.0
176
     1
 90
        0
176
     1
 62
    18
420
        0
176
     1
 90
       50
176
     1
 90
        3
176
     1
 62
     5
420
      255
176
     1
290
     0
176
     1
 90
       50
176
     1
 90
       50
176
     1
 90
       50
176
     1
290
     0
176
     1
 90
       50
176
     1
 62
   256
176
     0
 40
1.0
176
     0
 90
        2
176
     1
  1
strokes_ogs.tif
176
     1
290
     0
176
     1
 40
1.0
176
     1
 40
1.0
176
     1
  0
VISUALSTYLE
  5
35
102
{ACAD_REACTORS
330
29
102
}
330
29
100
AcDbVisualStyle
  2
Brighten
 70
    12
177
     3
291
     1
 70
    58
 90
        2
176
     1
 90
        2
176
     1
 90
        0
176
     1
 90
        0
176
     1
 40
0.6
176
     1
 40
30.0
176
     1
 62
     7
420
 16777215
176
     1
 90
        1
176
     1
 90
        4
176
     1
 62
     7
176
     1
 62
   257
176
     1
 90
        1
176
     1
 90
        1
176
     1
 40
1.0
176
     1
 90
        8
176
     1
 62
     7
176
     1
 40
1.0
176
     1
 90
        1
176
     1
 90
        6
176
     1
 90
        2
176
     1
 62
     7
176
     1
 90
        5
176
     1
 90
        0
176
     1
 90
        0
176
     1
290
     0
176
     1
 90
        1
176
     1
 40
50.0
176
     1
 90
        0
176
     1
290
     0
176
     1
290
     1
176
     1
290
     1
176
     1
290
     0
176
     1
290
     0
176
     1
290
     0
176
     1
290
     0
176
     1
290
     0
176
     1
290
     0
176
     1
 90
       50
176
     1
 40
0.0
176
     1
 40
1.0
176
     1
 90
        0
176
     1
 62
    18
420
        0
176
     1
 90
       50
176
     1
 90
        3
176
     1
 62
     5
420
      255
176
     1
290
     0
176
     1
 90
       50
176
     1
 90
       50
176
     1
 90
       50
176
     1
290
     0
176
     1
 90
       50
176
     1
 62
   256
176
     0
 40
1.0
176
     0
 90
        2
176
     1
  1
strokes_ogs.tif
176
     1
290
     0
176
     1
 40
1.0
176
     1
 40
1.0
176
     1
  0
VISUALSTYLE
  5
39
102
{ACAD_REACTORS
330
29
102
}
330
29
100
AcDbVisualStyle
  2
ColorChange
 70
    16
177
     3
291
     1
 70
    58
 90
        2
176
     1
 90
        2
176
     1
 90
        3
176
     1
 90
        0
176
     1
 40
0.6
176
     1
 40
30.0
176
     1
 62
     8
420
  8421504
176
     1
 90
        1
176
     1
 90
        4
176
     1
 62
     7
176
     1
 62
   257
176
     1
 90
        1
176
     1
 90
        1
176
     1
 40
1.0
176
     1
 90
        8
176
     1
 62
     8
420
  8421504
176
     1
 40
1.0
176
     1
 90
        1
176
     1
 90
        6
176
     1
 90
        2
176
     1
 62
     7
176
     1
 90
        5
176
     1
 90
        0
176
     1
 90
        0
176
     1
290
     0
176
     1
 90
        1
176
     1
 40
0.0
176
     1
 90
        0
176
     1
290
     0
176
     1
290
     1
176
     1
290
     1
176
     1
290
     0
176
     1
290
     0
176
     1
290
     0
176
     1
290
     0
176
     1
290
     0
176
     1
290
     0
176
     1
 90
       50
176
     1
 40
0.0
176
     1
 40
1.0
176
     1
 90
        0
176
     1
 62
    18
420
        0
176
     1
 90
       50
176
     1
 90
        3
176
     1
 62
     5
420
      255
176
     1
290
     0
176
     1
 90
       50
176
     1
 90
       50
176
     1
 90
       50
176
     1
290
     0
176
     1
 90
       50
176
     1
 62
   256
176
     0
 40
1.0
176
     0
 90
        2
176
     1
  1
strokes_ogs.tif
176
     1
290
     0
176
     1
 40
1.0
176
     1
 40
1.0
176
     1
  0
VISUALSTYLE
  5
32
102
{ACAD_REACTORS
330
29
102
}
330
29
100
AcDbVisualStyle
  2
Conceptual
 70
     9
177
     3
291
     0
 70
    58
 90
        3
176
     1
 90
        2
176
     1
 90
        0
176
     1
 90
        0
176
     1
 40
0.6
176
     1
 40
30.0
176
     1
 62
     7
420
 16777215
176
     1
 90
        2
176
     1
 90
        2
176
     1
 62
     7
176
     1
 62
   257
176
     1
 90
        1
176
     1
 90
        1
176
     1
 40
179.0
176
     1
 90
        8
176
     1
 62
     7
176
     1
 40
1.0
176
     1
 90
        1
176
     1
 90
        6
176
     1
 90
        2
176
     1
 62
     7
176
     1
 90
        3
176
     1
 90
        0
176
     1
 90
        0
176
     1
290
     0
176
     1
 90
        1
176
     1
 40
0.0
176
     1
 90
        0
176
     1
290
     0
176
     1
290
     1
176
     1
290
     1
176
     1
290
     0
176
     1
290
     0
176
     1
290
     0
176
     1
290
     0
176
     1
290
     0
176
     1
290
     0
176
     1
 90
       50
176
     1
 40
0.0
176
     1
 40
1.0
176
     1
 90
        0
176
     1
 62
    18
420
        0
176
     1
 90
       50
176
     1
 90
        3
176
     1
 62
     5
420
      255
176
     1
290
     0
176
     1
 90
       50
176
     1
 90
       50
176
     1
 90
       50
176
     1
290
     0
176
     1
 90
       50
176
     1
 62
   256
176
     0
 40
1.0
176
     0
 90
        2
176
     1
  1
strokes_ogs.tif
176
     1
290
     0
176
     1
 40
1.0
176
     1
 40
1.0
176
     1
  0
VISUALSTYLE
  5
34
102
{ACAD_REACTORS
330
29
102
}
330
29
100
AcDbVisualStyle
  2
Dim
 70
    11
177
     3
291
     1
 70
    58
 90
        2
176
     1
 90
        2
176
     1
 90
        0
176
     1
 90
        0
176
     1
 40
0.6
176
     1
 40
30.0
176
     1
 62
     7
420
 16777215
176
     1
 90
        1
176
     1
 90
        4
176
     1
 62
     7
176
     1
 62
   257
176
     1
 90
        1
176
     1
 90
        1
176
     1
 40
1.0
176
     1
 90
        8
176
     1
 62
     7
176
     1
 40
1.0
176
     1
 90
        1
176
     1
 90
        6
176
     1
 90
        2
176
     1
 62
     7
176
     1
 90
        5
176
     1
 90
        0
176
     1
 90
        0
176
     1
290
     0
176
     1
 90
        1
176
     1
 40
-50.0
176
     1
 90
        0
176
     1
290
     0
176
     1
290
     1
176
     1
290
     1
176
     1
290
     0
176
     1
290
     0
176
     1
290
     0
176
     1
290
     0
176
     1
290
     0
176
     1
290
     0
176
     1
 90
       50
176
     1
 40
0.0
176
     1
 40
1.0
176
     1
 90
        0
176
     1
 62
    18
420
        0
176
     1
 90
       50
176
     1
 90
        3
176
     1
 62
     5
420
      255
176
     1
290
     0
176
     1
 90
       50
176
     1
 90
       50
176
     1
 90
       50
176
     1
290
     0
176
     1
 90
       50
176
     1
 62
   256
176
     0
 40
1.0
176
     0
 90
        2
176
     1
  1
strokes_ogs.tif
176
     1
290
     0
176
     1
 40
1.0
176
     1
 40
1.0
176
     1
  0
VISUALSTYLE
  5
41
102
{ACAD_REACTORS
330
29
102
}
330
29
100
AcDbVisualStyle
  2
EdgeColorOff
 70
    22
177
     3
291
     1
 70
    58
 90
        2
176
     0
 90
        2
176
     0
 90
        0
176
     0
 90
        0
176
     0
 40
0.6
176
     0
 40
30.0
176
     0
 62
     7
420
 16777215
176
     0
 90
        1
176
     0
 90
        4
176
     0
 62
     7
176
     0
 62
   257
176
     0
 90
        1
176
     0
 90
        1
176
     0
 40
1.0
176
     0
 90
        8
176
     2
 62
     7
176
     0
 40
1.0
176
     0
 90
        1
176
     0
 90
        6
176
     0
 90
        2
176
     0
 62
     7
176
     0
 90
        5
176
     0
 90
        0
176
     0
 90
        0
176
     0
290
     0
176
     0
 90
        1
176
     0
 40
0.0
176
     0
 90
        0
176
     0
290
     0
176
     1
290
     1
176
     1
290
     1
176
     1
290
     0
176
     1
290
     0
176
     1
290
     0
176
     1
290
     0
176
     1
290
     0
176
     1
290
     0
176
     1
 90
       50
176
     0
 40
0.0
176
     0
 40
1.0
176
     0
 90
        0
176
     0
 62
    18
420
        0
176
     0
 90
       50
176
     0
 90
        3
176
     0
 62
     5
420
      255
176
     0
290
     0
176
     1
 90
       50
176
     0
 90
       50
176
     0
 90
       50
176
     0
290
     0
176
     1
 90
       50
176
     0
 62
   256
176
     0
 40
1.0
176
     0
 90
        2
176
     0
  1
strokes_ogs.tif
176
     0
290
     0
176
     1
 40
1.0
176
     0
 40
1.0
176
     0
  0
VISUALSTYLE
  5
38
102
{ACAD_REACTORS
330
29
102
}
330
29
100
AcDbVisualStyle
  2
Facepattern
 70
    15
177
     3
291
     1
 70
    58
 90
        2
176
     1
 90
        2
176
     1
 90
        0
176
     1
 90
        0
176
     1
 40
0.6
176
     1
 40
30.0
176
     1
 62
     7
420
 16777215
176
     1
 90
        1
176
     1
 90
        4
176
     1
 62
     7
176
     1
 62
   257
176
     1
 90
        1
176
     1
 90
        1
176
     1
 40
1.0
176
     1
 90
        8
176
     1
 62
     7
176
     1
 40
1.0
176
     1
 90
        1
176
     1
 90
        6
176
     1
 90
        2
176
     1
 62
     7
176
     1
 90
        5
176
     1
 90
        0
176
     1
 90
        0
176
     1
290
     0
176
     1
 90
        1
176
     1
 40
0.0
176
     1
 90
        0
176
     1
290
     0
176
     1
290
     1
176
     1
290
     1
176
     1
290
     0
176
     1
290
     0
176
     1
290
     0
176
     1
290
     0
176
     1
290
     0
176
     1
290
     0
176
     1
 90
       50
176
     1
 40
0.0
176
     1
 40
1.0
176
     1
 90
        0
176
     1
 62
    18
420
        0
176
     1
 90
       50
176
     1
 90
        3
176
     1
 62
     5
420
      255
176
     1
290
     0
176
     1
 90
       50
176
     1
 90
       50
176
     1
 90
       50
176
     1
290
     0
176
     1
 90
       50
176
     1
 62
   256
176
     0
 40
1.0
176
     0
 90
        2
176
     1
  1
strokes_ogs.tif
176
     1
290
     0
176
     1
 40
1.0
176
     1
 40
1.0
176
     1
  0
VISUALSTYLE
  5
2A
102
{ACAD_REACTORS
330
29
102
}
330
29
100
AcDbVisualStyle
  2
Flat
 70
     0
177
     3
291
     1
 70
    58
 90
        2
176
     1
 90
        1
176
     1
 90
        1
176
     1
 90
        2
176
     1
 40
0.6
176
     1
 40
30.0
176
     1
 62
     7
420
 16777215
176
     1
 90
        0
176
     1
 90
        0
176
     1
 62
     7
176
     1
 62
   257
176
     1
 90
        1
176
     1
 90
        1
176
     1
 40
1.0
176
     1
 90
        8
176
     1
 62
     7
176
     1
 40
1.0
176
     1
 90
        1
176
     1
 90
        6
176
     1
 90
        2
176
     1
 62
     7
176
     1
 90
        5
176
     1
 90
        0
176
     1
 90
        0
176
     1
290
     0
176
     1
 90
       13
176
     1
 40
0.0
176
     1
 90
        0
176
     1
290
     0
176
     1
290
     1
176
     1
290
     1
176
     1
290
     0
176
     1
290
     0
176
     1
290
     0
176
     1
290
     0
176
     1
290
     0
176
     1
290
     0
176
     1
 90
       50
176
     1
 40
0.0
176
     1
 40
1.0
176
     1
 90
        0
176
     1
 62
    18
420
        0
176
     1
 90
       50
176
     1
 90
        3
176
     1
 62
     5
420
      255
176
     1
290
     0
176
     1
 90
       50
176
     1
 90
       50
176
     1
 90
       50
176
     1
290
     0
176
     1
 90
       50
176
     1
 62
   256
176
     0
 40
1.0
176
     0
 90
        2
176
     1
  1
strokes_ogs.tif
176
     1
290
     0
176
     1
 40
1.0
176
     1
 40
1.0
176
     1
  0
VISUALSTYLE
  5
2B
102
{ACAD_REACTORS
330
29
102
}
330
29
100
AcDbVisualStyle
  2
FlatWithEdges
 70
     1
177
     3
291
     1
 70
    58
 90
        2
176
     1
 90
        1
176
     1
 90
        1
176
     1
 90
        2
176
     1
 40
0.6
176
     1
 40
30.0
176
     1
 62
     7
420
 16777215
176
     1
 90
        1
176
     1
 90
        0
176
     1
 62
     7
176
     1
 62
   257
176
     1
 90
        1
176
     1
 90
        1
176
     1
 40
1.0
176
     1
 90
        0
176
     1
 62
   257
176
     1
 40
1.0
176
     1
 90
        1
176
     1
 90
        6
176
     1
 90
        2
176
     1
 62
     7
176
     1
 90
        5
176
     1
 90
        0
176
     1
 90
        0
176
     1
290
     0
176
     1
 90
       13
176
     1
 40
0.0
176
     1
 90
        0
176
     1
290
     0
176
     1
290
     1
176
     1
290
     1
176
     1
290
     0
176
     1
290
     0
176
     1
290
     0
176
     1
290
     0
176
     1
290
     0
176
     1
290
     0
176
     1
 90
       50
176
     1
 40
0.0
176
     1
 40
1.0
176
     1
 90
        0
176
     1
 62
    18
420
        0
176
     1
 90
       50
176
     1
 90
        3
176
     1
 62
     5
420
      255
176
     1
290
     0
176
     1
 90
       50
176
     1
 90
       50
176
     1
 90
       50
176
     1
290
     0
176
     1
 90
       50
176
     1
 62
   256
176
     0
 40
1.0
176
     0
 90
        2
176
     1
  1
strokes_ogs.tif
176
     1
290
     0
176
     1
 40
1.0
176
     1
 40
1.0
176
     1
  0
VISUALSTYLE
  5
2C
102
{ACAD_REACTORS
330
29
102
}
330
29
100
AcDbVisualStyle
  2
Gouraud
 70
     2
177
     3
291
     1
 70
    58
 90
        2
176
     1
 90
        2
176
     1
 90
        1
176
     1
 90
        2
176
     1
 40
0.6
176
     1
 40
30.0
176
     1
 62
     7
420
 16777215
176
     1
 90
        0
176
     1
 90
        0
176
     1
 62
     7
176
     1
 62
   257
176
     1
 90
        1
176
     1
 90
        1
176
     1
 40
1.0
176
     1
 90
        0
176
     1
 62
     7
176
     1
 40
1.0
176
     1
 90
        1
176
     1
 90
        6
176
     1
 90
        2
176
     1
 62
     7
176
     1
 90
        5
176
     1
 90
        0
176
     1
 90
        0
176
     1
290
     0
176
     1
 90
       13
176
     1
 40
0.0
176
     1
 90
        0
176
     1
290
     0
176
     1
290
     1
176
     1
290
     1
176
     1
290
     0
176
     1
290
     0
176
     1
290
     0
176
     1
290
     0
176
     1
290
     0
176
     1
290
     0
176
     1
 90
       50
176
     1
 40
0.0
176
     1
 40
1.0
176
     1
 90
        0
176
     1
 62
    18
420
        0
176
     1
 90
       50
176
     1
 90
        3
176
     1
 62
     5
420
      255
176
     1
290
     0
176
     1
 90
       50
176
     1
 90
       50
176
     1
 90
       50
176
     1
290
     0
176
     1
 90
       50
176
     1
 62
   256
176
     0
 40
1.0
176
     0
 90
        2
176
     1
  1
strokes_ogs.tif
176
     1
290
     0
176
     1
 40
1.0
176
     1
 40
1.0
176
     1
  0
VISUALSTYLE
  5
2D
102
{ACAD_REACTORS
330
29
102
}
330
29
100
AcDbVisualStyle
  2
GouraudWithEdges
 70
     3
177
     3
291
     1
 70
    58
 90
        2
176
     1
 90
        2
176
     1
 90
        1
176
     1
 90
        2
176
     1
 40
0.6
176
     1
 40
30.0
176
     1
 62
     7
420
 16777215
176
     1
 90
        1
176
     1
 90
        0
176
     1
 62
     7
176
     1
 62
   257
176
     1
 90
        1
176
     1
 90
        1
176
     1
 40
1.0
176
     1
 90
        0
176
     1
 62
   257
176
     1
 40
1.0
176
     1
 90
        1
176
     1
 90
        6
176
     1
 90
        2
176
     1
 62
     7
176
     1
 90
        5
176
     1
 90
        0
176
     1
 90
        0
176
     1
290
     0
176
     1
 90
       13
176
     1
 40
0.0
176
     1
 90
        0
176
     1
290
     0
176
     1
290
     1
176
     1
290
     1
176
     1
290
     0
176
     1
290
     0
176
     1
290
     0
176
     1
290
     0
176
     1
290
     0
176
     1
290
     0
176
     1
 90
       50
176
     1
 40
0.0
176
     1
 40
1.0
176
     1
 90
        0
176
     1
 62
    18
420
        0
176
     1
 90
       50
176
     1
 90
        3
176
     1
 62
     5
420
      255
176
     1
290
     0
176
     1
 90
       50
176
     1
 90
       50
176
     1
 90
       50
176
     1
290
     0
176
     1
 90
       50
176
     1
 62
   256
176
     0
 40
1.0
176
     0
 90
        2
176
     1
  1
strokes_ogs.tif
176
     1
290
     0
176
     1
 40
1.0
176
     1
 40
1.0
176
     1
  0
VISUALSTYLE
  5
31
102
{ACAD_REACTORS
330
29
102
}
330
29
100
AcDbVisualStyle
  2
Hidden
 70
     6
177
     3
291
     0
 70
    58
 90
        1
176
     1
 90
        2
176
     1
 90
        2
176
     1
 90
        0
176
     1
 40
0.6
176
     1
 40
30.0
176
     1
 62
     7
420
 16777215
176
     1
 90
        2
176
     1
 90
        2
176
     1
 62
     7
176
     1
 62
   257
176
     1
 90
        2
176
     1
 90
        1
176
     1
 40
40.0
176
     1
 90
        0
176
     1
 62
   257
176
     1
 40
1.0
176
     1
 90
        1
176
     1
 90
        6
176
     1
 90
        2
176
     1
 62
     7
176
     1
 90
        3
176
     1
 90
        0
176
     1
 90
        0
176
     1
290
     0
176
     1
 90
        1
176
     1
 40
0.0
176
     1
 90
        0
176
     1
290
     0
176
     1
290
     1
176
     1
290
     1
176
     1
290
     0
176
     1
290
     0
176
     1
290
     0
176
     1
290
     0
176
     1
290
     0
176
     1
290
     0
176
     1
 90
       50
176
     1
 40
0.0
176
     1
 40
1.0
176
     1
 90
        0
176
     1
 62
    18
420
        0
176
     1
 90
       50
176
     1
 90
        3
176
     1
 62
     5
420
      255
176
     1
290
     0
176
     1
 90
       50
176
     1
 90
       50
176
     1
 90
       50
176
     1
290
     0
176
     1
 90
       50
176
     1
 62
   256
176
     0
 40
1.0
176
     0
 90
        2
176
     1
  1
strokes_ogs.tif
176
     1
290
     0
176
     1
 40
1.0
176
     1
 40
1.0
176
     1
  0
VISUALSTYLE
  5
3F
102
{ACAD_REACTORS
330
29
102
}
330
29
100
AcDbVisualStyle
  2
JitterOff
 70
    20
177
     3
291
     1
 70
    58
 90
        2
176
     0
 90
        2
176
     0
 90
        0
176
     0
 90
        0
176
     0
 40
0.6
176
     0
 40
30.0
176
     0
 62
     7
420
 16777215
176
     0
 90
        1
176
     0
 90
        4
176
     0
 62
     7
176
     0
 62
   257
176
     0
 90
        1
176
     0
 90
        1
176
     0
 40
1.0
176
     0
 90
       10
176
     2
 62
     7
176
     0
 40
1.0
176
     0
 90
        1
176
     0
 90
        6
176
     0
 90
        2
176
     0
 62
     7
176
     0
 90
        5
176
     0
 90
        0
176
     0
 90
        0
176
     0
290
     0
176
     0
 90
        1
176
     0
 40
0.0
176
     0
 90
        0
176
     0
290
     0
176
     1
290
     1
176
     1
290
     1
176
     1
290
     0
176
     1
290
     0
176
     1
290
     0
176
     1
290
     0
176
     1
290
     0
176
     1
290
     0
176
     1
 90
       50
176
     0
 40
0.0
176
     0
 40
1.0
176
     0
 90
        0
176
     0
 62
    18
420
        0
176
     0
 90
       50
176
     0
 90
        3
176
     0
 62
     5
420
      255
176
     0
290
     0
176
     1
 90
       50
176
     0
 90
       50
176
     0
 90
       50
176
     0
290
     0
176
     1
 90
       50
176
     0
 62
   256
176
     0
 40
1.0
176
     0
 90
        2
176
     0
  1
strokes_ogs.tif
176
     0
290
     0
176
     1
 40
1.0
176
     0
 40
1.0
176
     0
  0
VISUALSTYLE
  5
37
102
{ACAD_REACTORS
330
29
102
}
330
29
100
AcDbVisualStyle
  2
Linepattern
 70
    14
177
     3
291
     1
 70
    58
 90
        2
176
     1
 90
        2
176
     1
 90
        0
176
     1
 90
        0
176
     1
 40
0.6
176
     1
 40
30.0
176
     1
 62
     7
420
 16777215
176
     1
 90
        1
176
     1
 90
        4
176
     1
 62
     7
176
     1
 62
   257
176
     1
 90
        7
176
     1
 90
        7
176
     1
 40
1.0
176
     1
 90
        8
176
     1
 62
     7
176
     1
 40
1.0
176
     1
 90
        1
176
     1
 90
        6
176
     1
 90
        2
176
     1
 62
     7
176
     1
 90
        5
176
     1
 90
        0
176
     1
 90
        0
176
     1
290
     0
176
     1
 90
        1
176
     1
 40
0.0
176
     1
 90
        0
176
     1
290
     0
176
     1
290
     1
176
     1
290
     1
176
     1
290
     0
176
     1
290
     0
176
     1
290
     0
176
     1
290
     0
176
     1
290
     0
176
     1
290
     0
176
     1
 90
       50
176
     1
 40
0.0
176
     1
 40
1.0
176
     1
 90
        0
176
     1
 62
    18
420
        0
176
     1
 90
       50
176
     1
 90
        3
176
     1
 62
     5
420
      255
176
     1
290
     0
176
     1
 90
       50
176
     1
 90
       50
176
     1
 90
       50
176
     1
290
     0
176
     1
 90
       50
176
     1
 62
   256
176
     0
 40
1.0
176
     0
 90
        2
176
     1
  1
strokes_ogs.tif
176
     1
290
     0
176
     1
 40
1.0
176
     1
 40
1.0
176
     1
  0
VISUALSTYLE
  5
40
102
{ACAD_REACTORS
330
29
102
}
330
29
100
AcDbVisualStyle
  2
OverhangOff
 70
    21
177
     3
291
     1
 70
    58
 90
        2
176
     0
 90
        2
176
     0
 90
        0
176
     0
 90
        0
176
     0
 40
0.6
176
     0
 40
30.0
176
     0
 62
     7
420
 16777215
176
     0
 90
        1
176
     0
 90
        4
176
     0
 62
     7
176
     0
 62
   257
176
     0
 90
        1
176
     0
 90
        1
176
     0
 40
1.0
176
     0
 90
        9
176
     2
 62
     7
176
     0
 40
1.0
176
     0
 90
        1
176
     0
 90
        6
176
     0
 90
        2
176
     0
 62
     7
176
     0
 90
        5
176
     0
 90
        0
176
     0
 90
        0
176
     0
290
     0
176
     0
 90
        1
176
     0
 40
0.0
176
     0
 90
        0
176
     0
290
     0
176
     1
290
     1
176
     1
290
     1
176
     1
290
     0
176
     1
290
     0
176
     1
290
     0
176
     1
290
     0
176
     1
290
     0
176
     1
290
     0
176
     1
 90
       50
176
     0
 40
0.0
176
     0
 40
1.0
176
     0
 90
        0
176
     0
 62
    18
420
        0
176
     0
 90
       50
176
     0
 90
        3
176
     0
 62
     5
420
      255
176
     0
290
     0
176
     1
 90
       50
176
     0
 90
       50
176
     0
 90
       50
176
     0
290
     0
176
     1
 90
       50
176
     0
 62
   256
176
     0
 40
1.0
176
     0
 90
        2
176
     0
  1
strokes_ogs.tif
176
     0
290
     0
176
     1
 40
1.0
176
     0
 40
1.0
176
     0
  0
VISUALSTYLE
  5
33
102
{ACAD_REACTORS
330
29
102
}
330
29
100
AcDbVisualStyle
  2
Realistic
 70
     8
177
     3
291
     0
 70
    58
 90
        2
176
     1
 90
        3
176
     1
 90
        0
176
     1
 90
        2
176
     1
 40
0.6
176
     1
 40
30.0
176
     1
 62
     7
420
 16777215
176
     1
 90
        0
176
     1
 90
        0
176
     1
 62
     7
176
     1
 62
   257
176
     1
 90
        1
176
     1
 90
        1
176
     1
 40
1.0
176
     1
 90
        8
176
     1
 62
   257
176
     1
 40
1.0
176
     1
 90
        1
176
     1
 90
        6
176
     1
 90
        2
176
     1
 62
     7
176
     1
 90
        3
176
     1
 90
        0
176
     1
 90
        0
176
     1
290
     0
176
     1
 90
       13
176
     1
 40
0.0
176
     1
 90
        0
176
     1
290
     0
176
     1
290
     1
176
     1
290
     1
176
     1
290
     0
176
     1
290
     0
176
     1
290
     0
176
     1
290
     0
176
     1
290
     0
176
     1
290
     0
176
     1
 90
       50
176
     1
 40
0.0
176
     1
 40
1.0
176
     1
 90
        0
176
     1
 62
    18
420
        0
176
     1
 90
       50
176
     1
 90
        3
176
     1
 62
     5
420
      255
176
     1
290
     0
176
     1
 90
       50
176
     1
 90
       50
176
     1
 90
       50
176
     1
290
     0
176
     1
 90
       50
176
     1
 62
   256
176
     0
 40
1.0
176
     0
 90
        2
176
     1
  1
strokes_ogs.tif
176
     1
290
     0
176
     1
 40
1.0
176
     1
 40
1.0
176
     1
  0
VISUALSTYLE
  5
3E
102
{ACAD_REACTORS
330
29
102
}
330
29
100
AcDbVisualStyle
  2
Shaded
 70
    27
177
     3
291
     0
 70
    58
 90
        2
176
     1
 90
        2
176
     1
 90
        1
176
     1
 90
        2
176
     1
 40
0.6
176
     1
 40
30.0
176
     1
 62
     7
420
 16777215
176
     1
 90
        0
176
     1
 90
        4
176
     1
 62
     7
176
     1
 62
   257
176
     1
 90
        1
176
     1
 90
        1
176
     1
 40
1.0
176
     1
 90
        8
176
     1
 62
   257
176
     1
 40
1.0
176
     1
 90
        1
176
     1
 90
        6
176
     1
 90
        2
176
     1
 62
     8
420
  7895160
176
     1
 90
        3
176
     1
 90
        0
176
     1
 90
        0
176
     1
290
     0
176
     1
 90
        5
176
     1
 40
0.0
176
     1
 90
        0
176
     1
290
     0
176
     1
290
     1
176
     1
290
     1
176
     1
290
     0
176
     1
290
     0
176
     1
290
     0
176
     1
290
     0
176
     1
290
     0
176
     1
290
     0
176
     1
 90
       50
176
     1
 40
0.0
176
     1
 40
1.0
176
     1
 90
        0
176
     1
 62
    18
420
        0
176
     1
 90
       50
176
     1
 90
        3
176
     1
 62
     5
420
      255
176
     1
290
     0
176
     1
 90
       50
176
     1
 90
       50
176
     1
 90
       50
176
     1
290
     0
176
     1
 90
       50
176
     1
 62
   256
176
     0
 40
1.0
176
     0
 90
        2
176
     1
  1
strokes_ogs.tif
176
     1
290
     0
176
     1
 40
1.0
176
     1
 40
1.0
176
     1
  0
VISUALSTYLE
  5
3D
102
{ACAD_REACTORS
330
29
102
}
330
29
100
AcDbVisualStyle
  2
Shaded with edges
 70
    26
177
     3
291
     0
 70
    58
 90
        2
176
     1
 90
        2
176
     1
 90
        1
176
     1
 90
        2
176
     1
 40
0.6
176
     1
 40
30.0
176
     1
 62
     7
420
 16777215
176
     1
 90
        1
176
     1
 90
       10
176
     1
 62
     7
176
     1
 62
   257
176
     1
 90
        2
176
     1
 90
        1
176
     1
 40
1.0
176
     1
 90
        8
176
     1
 62
   257
176
     1
 40
1.0
176
     1
 90
        1
176
     1
 90
        6
176
     1
 90
        2
176
     1
 62
     7
176
     1
 90
        3
176
     1
 90
        0
176
     1
 90
        0
176
     1
290
     0
176
     1
 90
        5
176
     1
 40
0.0
176
     1
 90
        0
176
     1
290
     0
176
     1
290
     1
176
     1
290
     1
176
     1
290
     0
176
     1
290
     0
176
     1
290
     0
176
     1
290
     0
176
     1
290
     0
176
     1
290
     0
176
     1
 90
       50
176
     1
 40
0.0
176
     1
 40
1.0
176
     1
 90
        0
176
     1
 62
    18
420
        0
176
     1
 90
       50
176
     1
 90
        3
176
     1
 62
     5
420
      255
176
     1
290
     0
176
     1
 90
       50
176
     1
 90
       50
176
     1
 90
       50
176
     1
290
     0
176
     1
 90
       50
176
     1
 62
   256
176
     0
 40
1.0
176
     0
 90
        2
176
     1
  1
strokes_ogs.tif
176
     1
290
     0
176
     1
 40
1.0
176
     1
 40
1.0
176
     1
  0
VISUALSTYLE
  5
3A
102
{ACAD_REACTORS
330
29
102
}
330
29
100
AcDbVisualStyle
  2
Shades of Gray
 70
    23
177
     3
291
     0
 70
    58
 90
        2
176
     1
 90
        2
176
     1
 90
        3
176
     1
 90
        0
176
     1
 40
0.6
176
     1
 40
30.0
176
     1
 62
     7
420
 16777215
176
     1
 90
        2
176
     1
 90
        2
176
     1
 62
     7
176
     1
 62
     7
176
     1
 90
        1
176
     1
 90
        1
176
     1
 40
40.0
176
     1
 90
        8
176
     1
 62
     7
176
     1
 40
1.0
176
     1
 90
        1
176
     1
 90
        6
176
     1
 90
        2
176
     1
 62
     7
176
     1
 90
        3
176
     1
 90
        0
176
     1
 90
        0
176
     1
290
     0
176
     1
 90
        1
176
     1
 40
0.0
176
     1
 90
        0
176
     1
290
     0
176
     1
290
     1
176
     1
290
     1
176
     1
290
     0
176
     1
290
     0
176
     1
290
     0
176
     1
290
     0
176
     1
290
     0
176
     1
290
     0
176
     1
 90
       50
176
     1
 40
0.0
176
     1
 40
1.0
176
     1
 90
        0
176
     1
 62
    18
420
        0
176
     1
 90
       50
176
     1
 90
        3
176
     1
 62
     5
420
      255
176
     1
290
     0
176
     1
 90
       50
176
     1
 90
       50
176
     1
 90
       50
176
     1
290
     0
176
     1
 90
       50
176
     1
 62
   256
176
     0
 40
1.0
176
     0
 90
        2
176
     1
  1
strokes_ogs.tif
176
     1
290
     0
176
     1
 40
1.0
176
     1
 40
1.0
176
     1
  0
VISUALSTYLE
  5
3B
102
{ACAD_REACTORS
330
29
102
}
330
29
100
AcDbVisualStyle
  2
Sketchy
 70
    24
177
     3
291
     0
 70
    58
 90
        1
176
     1
 90
        2
176
     1
 90
        2
176
     1
 90
        0
176
     1
 40
0.6
176
     1
 40
30.0
176
     1
 62
     7
420
 16777215
176
     1
 90
        2
176
     1
 90
        2
176
     1
 62
     7
176
     1
 62
     7
176
     1
 90
        1
176
     1
 90
        1
176
     1
 40
40.0
176
     1
 90
       11
176
     1
 62
     7
176
     1
 40
1.0
176
     1
 90
        1
176
     1
 90
        6
176
     1
 90
        2
176
     1
 62
     7
176
     1
 90
        6
176
     1
 90
        0
176
     1
 90
        0
176
     1
290
     0
176
     1
 90
        1
176
     1
 40
0.0
176
     1
 90
        0
176
     1
290
     0
176
     1
290
     1
176
     1
290
     1
176
     1
290
     0
176
     1
290
     0
176
     1
290
     0
176
     1
290
     0
176
     1
290
     0
176
     1
290
     0
176
     1
 90
       50
176
     1
 40
0.0
176
     1
 40
1.0
176
     1
 90
        0
176
     1
 62
    18
420
        0
176
     1
 90
       50
176
     1
 90
        3
176
     1
 62
     5
420
      255
176
     1
290
     0
176
     1
 90
       50
176
     1
 90
       50
176
     1
 90
       50
176
     1
290
     0
176
     1
 90
       50
176
     1
 62
   256
176
     0
 40
1.0
176
     0
 90
        2
176
     1
  1
strokes_ogs.tif
176
     1
290
     0
176
     1
 40
1.0
176
     1
 40
1.0
176
     1
  0
VISUALSTYLE
  5
36
102
{ACAD_REACTORS
330
29
102
}
330
29
100
AcDbVisualStyle
  2
Thicken
 70
    13
177
     3
291
     1
 70
    58
 90
        2
176
     1
 90
        2
176
     1
 90
        0
176
     1
 90
        0
176
     1
 40
0.6
176
     1
 40
30.0
176
     1
 62
     7
420
 16777215
176
     1
 90
        1
176
     1
 90
        4
176
     1
 62
     7
176
     1
 62
   257
176
     1
 90
        1
176
     1
 90
        1
176
     1
 40
1.0
176
     1
 90
       12
176
     1
 62
     7
176
     1
 40
1.0
176
     1
 90
        1
176
     1
 90
        6
176
     1
 90
        2
176
     1
 62
     7
176
     1
 90
        5
176
     1
 90
        0
176
     1
 90
        0
176
     1
290
     0
176
     1
 90
        1
176
     1
 40
0.0
176
     1
 90
        0
176
     1
290
     0
176
     1
290
     1
176
     1
290
     1
176
     1
290
     0
176
     1
290
     0
176
     1
290
     0
176
     1
290
     0
176
     1
290
     0
176
     1
290
     0
176
     1
 90
       50
176
     1
 40
0.0
176
     1
 40
1.0
176
     1
 90
        0
176
     1
 62
    18
420
        0
176
     1
 90
       50
176
     1
 90
        3
176
     1
 62
     5
420
      255
176
     1
290
     0
176
     1
 90
       50
176
     1
 90
       50
176
     1
 90
       50
176
     1
290
     0
176
     1
 90
       50
176
     1
 62
   256
176
     0
 40
1.0
176
     0
 90
        2
176
     1
  1
strokes_ogs.tif
176
     1
290
     0
176
     1
 40
1.0
176
     1
 40
1.0
176
     1
  0
VISUALSTYLE
  5
30
102
{ACAD_REACTORS
330
29
102
}
330
29
100
AcDbVisualStyle
  2
Wireframe
 70
     5
177
     3
291
     0
 70
    58
 90
        0
176
     1
 90
        2
176
     1
 90
        0
176
     1
 90
        0
176
     1
 40
0.6
176
     1
 40
30.0
176
     1
 62
     7
420
 16777215
176
     1
 90
        1
176
     1
 90
        4
176
     1
 62
     7
176
     1
 62
   257
176
     1
 90
        1
176
     1
 90
        1
176
     1
 40
1.0
176
     1
 90
        0
176
     1
 62
   257
176
     1
 40
1.0
176
     1
 90
        1
176
     1
 90
        6
176
     1
 90
        2
176
     1
 62
     7
176
     1
 90
        3
176
     1
 90
        0
176
     1
 90
        0
176
     1
290
     0
176
     1
 90
        1
176
     1
 40
0.0
176
     1
 90
        0
176
     1
290
     0
176
     1
290
     1
176
     1
290
     1
176
     1
290
     0
176
     1
290
     0
176
     1
290
     0
176
     1
290
     0
176
     1
290
     0
176
     1
290
     0
176
     1
 90
       50
176
     1
 40
0.0
176
     1
 40
1.0
176
     1
 90
        0
176
     1
 62
    18
420
        0
176
     1
 90
       50
176
     1
 90
        3
176
     1
 62
     5
420
      255
176
     1
290
     0
176
     1
 90
       50
176
     1
 90
       50
176
     1
 90
       50
176
     1
290
     0
176
     1
 90
       50
176
     1
 62
   256
176
     0
 40
1.0
176
     0
 90
        2
176
     1
  1
strokes_ogs.tif
176
     1
290
     0
176
     1
 40
1.0
176
     1
 40
1.0
176
     1
  0
VISUALSTYLE
  5
3C
102
{ACAD_REACTORS
330
29
102
}
330
29
100
AcDbVisualStyle
  2
X-Ray
 70
    25
177
     3
291
     0
 70
    58
 90
        2
176
     1
 90
        2
176
     1
 90
        1
176
     1
 90
        1
176
     1
 40
0.5
176
     1
 40
30.0
176
     1
 62
     7
420
 16777215
176
     1
 90
        1
176
     1
 90
        0
176
     1
 62
     7
176
     1
 62
   257
176
     1
 90
        1
176
     1
 90
        1
176
     1
 40
1.0
176
     1
 90
        8
176
     1
 62
     7
176
     1
 40
1.0
176
     1
 90
        1
176
     1
 90
        6
176
     1
 90
        2
176
     1
 62
     7
176
     1
 90
        3
176
     1
 90
        0
176
     1
 90
        0
176
     1
290
     0
176
     1
 90
       13
176
     1
 40
0.0
176
     1
 90
        0
176
     1
290
     0
176
     1
290
     1
176
     1
290
     1
176
     1
290
     0
176
     1
290
     0
176
     1
290
     0
176
     1
290
     0
176
     1
290
     0
176
     1
290
     0
176
     1
 90
       50
176
     1
 40
0.0
176
     1
 40
1.0
176
     1
 90
        0
176
     1
 62
    18
420
        0
176
     1
 90
       50
176
     1
 90
        3
176
     1
 62
     5
420
      255
176
     1
290
     0
176
     1
 90
       50
176
     1
 90
       50
176
     1
 90
       50
176
     1
290
     0
176
     1
 90
       50
176
     1
 62
   256
176
     0
 40
1.0
176
     0
 90
        2
176
     1
  1
strokes_ogs.tif
176
     1
290
     0
176
     1
 40
1.0
176
     1
 40
1.0
176
     1
  0
DICTIONARYVAR
  5
1DD
102
{ACAD_REACTORS
330
1D7
102
}
330
1D7
100
DictionaryVariables
280
     0
  1
1:1
  0
DICTIONARYVAR
  5
1D9
102
{ACAD_REACTORS
330
1D7
102
}
330
1D7
100
DictionaryVariables
280
     0
  1
STANDARD
  0
DICTIONARYVAR
  5
1D8
102
{ACAD_REACTORS
330
1D7
102
}
330
1D7
100
DictionaryVariables
280
     0
  1
STANDARD
  0
DICTIONARYVAR
  5
1DA
102
{ACAD_REACTORS
330
1D7
102
}
330
1D7
100
DictionaryVariables
280
     0
  1
Imperial24
  0
DICTIONARYVAR
  5
1DB
102
{ACAD_REACTORS
330
1D7
102
}
330
1D7
100
DictionaryVariables
280
     0
  1
Imperial24
  0
DICTIONARYVAR
  5
1E9
102
{ACAD_REACTORS
330
1D7
102
}
330
1D7
100
DictionaryVariables
280
     0
  1
1
  0
DICTIONARYVAR
  5
492
102
{ACAD_REACTORS
330
1D7
102
}
330
1D7
100
DictionaryVariables
280
     0
  1
1
  0
DICTIONARYVAR
  5
1DF
102
{ACAD_REACTORS
330
1D7
102
}
330
1D7
100
DictionaryVariables
280
     0
  1
1
  0
DICTIONARYVAR
  5
1E0
102
{ACAD_REACTORS
330
1D7
102
}
330
1D7
100
DictionaryVariables
280
     0
  1
15
  0
DICTIONARYVAR
  5
1DE
102
{ACAD_REACTORS
330
1D7
102
}
330
1D7
100
DictionaryVariables
280
     0
  1
0
  0
DICTIONARYVAR
  5
1DC
102
{ACAD_REACTORS
330
1D7
102
}
330
1D7
100
DictionaryVariables
280
     0
  1
0
  0
DICTIONARY
  5
1E6
330
73
100
AcDbDictionary
280
     1
281
     1
  3
AcPublish_PlotSettingsOverride
360
1E7
  0
DICTIONARY
  5
1A
330
19
100
AcDbDictionary
280
     1
281
     1
  3
BUMPTILE
360
1C
  3
DIFFUSETILE
360
1B
  3
OPACITYTILE
360
1F
  3
REFLECTIONTILE
360
1E
  3
REFRACTIONTILE
360
20
  3
SPECULARTILE
360
1D
  0
DICTIONARY
  5
12
330
11
100
AcDbDictionary
280
     1
281
     1
  3
BUMPTILE
360
14
  3
DIFFUSETILE
360
13
  3
OPACITYTILE
360
17
  3
REFLECTIONTILE
360
16
  3
REFRACTIONTILE
360
18
  3
SPECULARTILE
360
15
  0
DICTIONARY
  5
22
330
21
100
AcDbDictionary
280
     1
281
     1
  3
BUMPTILE
360
24
  3
DIFFUSETILE
360
23
  3
OPACITYTILE
360
27
  3
REFLECTIONTILE
360
26
  3
REFRACTIONTILE
360
28
  3
SPECULARTILE
360
25
  0
DICTIONARY
  5
4B5
330
64
100
AcDbDictionary
280
     1
281
     1
  3
ACAD_ROUNDTRIP_2008_TABLESTYLE_CELLSTYLEMAP
360
4B6
  0
PLOTSETTINGS
  5
1E7
102
{ACAD_REACTORS
330
1E6
102
}
330
1E6
100
AcDbPlotSettings
  1

  2
none_device
  4
Untitled
  6

 40
0.0
 41
0.0
 42
0.0
 43
0.0
 44
900.0
 45
600.0
 46
0.0
 47
0.0
 48
0.0
 49
0.0
140
0.0
141
0.0
142
10.0
143
1.0
 70
 11904
 72
     1
 73
     0
 74
     1
  7

 75
     0
147
9.999999999999998
 76
     0
 77
     2
 78
   300
148
17.5280073525259
149
8.723715979230064
1001
ACAD_PSEXT
1000
None
1000
None
1000
Not applicable
1000
The layout will not be plotted unless a new plotter configuration name is selected.
1070
     0
  0
XRECORD
  5
1C
102
{ACAD_REACTORS
330
1A
102
}
330
1A
100
AcDbXrecord
280
     1
270
     1
271
     1
  0
XRECORD
  5
1B
102
{ACAD_REACTORS
330
1A
102
}
330
1A
100
AcDbXrecord
280
     1
270
     1
271
     1
  0
XRECORD
  5
1F
102
{ACAD_REACTORS
330
1A
102
}
330
1A
100
AcDbXrecord
280
     1
270
     1
271
     1
  0
XRECORD
  5
1E
102
{ACAD_REACTORS
330
1A
102
}
330
1A
100
AcDbXrecord
280
     1
270
     1
271
     1
  0
XRECORD
  5
20
102
{ACAD_REACTORS
330
1A
102
}
330
1A
100
AcDbXrecord
280
     1
270
     1
271
     1
  0
XRECORD
  5
1D
102
{ACAD_REACTORS
330
1A
102
}
330
1A
100
AcDbXrecord
280
     1
270
     1
271
     1
  0
XRECORD
  5
14
102
{ACAD_REACTORS
330
12
102
}
330
12
100
AcDbXrecord
280
     1
270
     1
271
     1
  0
XRECORD
  5
13
102
{ACAD_REACTORS
330
12
102
}
330
12
100
AcDbXrecord
280
     1
270
     1
271
     1
  0
XRECORD
  5
17
102
{ACAD_REACTORS
330
12
102
}
330
12
100
AcDbXrecord
280
     1
270
     1
271
     1
  0
XRECORD
  5
16
102
{ACAD_REACTORS
330
12
102
}
330
12
100
AcDbXrecord
280
     1
270
     1
271
     1
  0
XRECORD
  5
18
102
{ACAD_REACTORS
330
12
102
}
330
12
100
AcDbXrecord
280
     1
270
     1
271
     1
  0
XRECORD
  5
15
102
{ACAD_REACTORS
330
12
102
}
330
12
100
AcDbXrecord
280
     1
270
     1
271
     1
  0
XRECORD
  5
24
102
{ACAD_REACTORS
330
22
102
}
330
22
100
AcDbXrecord
280
     1
270
     1
271
     1
  0
XRECORD
  5
23
102
{ACAD_REACTORS
330
22
102
}
330
22
100
AcDbXrecord
280
     1
270
     1
271
     1
  0
XRECORD
  5
27
102
{ACAD_REACTORS
330
22
102
}
330
22
100
AcDbXrecord
280
     1
270
     1
271
     1
  0
XRECORD
  5
26
102
{ACAD_REACTORS
330
22
102
}
330
22
100
AcDbXrecord
280
     1
270
     1
271
     1
  0
XRECORD
  5
28
102
{ACAD_REACTORS
330
22
102
}
330
22
100
AcDbXrecord
280
     1
270
     1
271
     1
  0
XRECORD
  5
25
102
{ACAD_REACTORS
330
22
102
}
330
22
100
AcDbXrecord
280
     1
270
     1
271
     1
  0
CELLSTYLEMAP
  5
4B6
102
{ACAD_REACTORS
330
4B5
102
}
330
4B5
100
AcDbCellStyleMap
 90
        3
300
CELLSTYLE
  1
TABLEFORMAT_BEGIN
 90
        5
170
     1
 91
        0
 92
    32768
 62
   257
 93
        1
300
CONTENTFORMAT
  1
CONTENTFORMAT_BEGIN
 90
        0
 91
        0
 92
      512
 93
        0
300

 40
0.0
140
1.0
 94
        5
 62
     0
340
55
144
0.25
309
CONTENTFORMAT_END
171
     0
 94
        0
309
TABLEFORMAT_END
  1
CELLSTYLE_BEGIN
 90
        1
 91
        1
300
_TITLE
309
CELLSTYLE_END
300
CELLSTYLE
  1
TABLEFORMAT_BEGIN
 90
        5
170
     1
 91
        0
 92
        0
 62
   257
 93
        1
300
CONTENTFORMAT
  1
CONTENTFORMAT_BEGIN
 90
        0
 91
        0
 92
      512
 93
        0
300

 40
0.0
140
1.0
 94
        5
 62
     0
340
55
144
0.18
309
CONTENTFORMAT_END
171
     0
 94
        0
309
TABLEFORMAT_END
  1
CELLSTYLE_BEGIN
 90
        2
 91
        1
300
_HEADER
309
CELLSTYLE_END
300
CELLSTYLE
  1
TABLEFORMAT_BEGIN
 90
        5
170
     1
 91
        0
 92
        0
 62
   257
 93
        1
300
CONTENTFORMAT
  1
CONTENTFORMAT_BEGIN
 90
        0
 91
        0
 92
      512
 93
        0
300

 40
0.0
140
1.0
 94
        2
 62
     0
340
55
144
0.18
309
CONTENTFORMAT_END
171
     0
 94
        0
309
TABLEFORMAT_END
  1
CELLSTYLE_BEGIN
 90
        3
 91
        2
300
_DATA
309
CELLSTYLE_END
  0
ENDSEC
  0
SECTION
  2
ACDSDATA
 70
     2
 71
     2
  0
ACDSSCHEMA
 90
        0
  1
AcDb_Thumbnail_Schema
  2
AcDbDs::ID
280
    10
 91
        8
  2
Thumbnail_Data
280
    15
 91
        0
101
ACDSRECORD
 95
        0
 90
        1
  2
AcDbDs::TreatedAsObjectData
280
     1
291
     1
101
ACDSRECORD
 95
        0
 90
        2
  2
AcDbDs::Legacy
280
     1
291
     1
101
ACDSRECORD
  1
AcDbDs::ID
 90
        3
  2
AcDs:Indexable
280
     1
291
     1
101
ACDSRECORD
  1
AcDbDs::ID
 90
        4
  2
AcDbDs::HandleAttribute
280
     7
282
     1
  0
ACDSSCHEMA
 90
        1
  1
AcDbDs::TreatedAsObjectDataSchema
  2
AcDbDs::TreatedAsObjectData
280
     1
 91
        0
  0
ACDSSCHEMA
 90
        2
  1
AcDbDs::LegacySchema
  2
AcDbDs::Legacy
280
     1
 91
        0
  0
ACDSSCHEMA
 90
        3
  1
AcDbDs::IndexedPropertySchema
  2
AcDs:Indexable
280
     1
 91
        0
  0
ACDSSCHEMA
 90
        4
  1
AcDbDs::HandleAttributeSchema
  2
AcDbDs::HandleAttribute
280
     7
 91
        1
284
     1
  0
ACDSRECORD
 90
        0
  2
AcDbDs::ID
280
    10
320
73
  2
Thumbnail_Data
280
    15
 94
     1293
310
89504E470D0A1A0A0000000D4948445200000100000000A60803000000029EA11300000300504C54452128300000000000000000000000000000000000000000000000000000000000000000330000660000990000CC0000FF0033000033330033660033990033CC0033FF0066000066330066660066990066CC0066FF0099
310
000099330099660099990099CC0099FF00CC0000CC3300CC6600CC9900CCCC00CCFF00FF0000FF3300FF6600FF9900FFCC00FFFF3300003300333300663300993300CC3300FF3333003333333333663333993333CC3333FF3366003366333366663366993366CC3366FF3399003399333399663399993399CC3399FF33CC00
310
33CC3333CC6633CC9933CCCC33CCFF33FF0033FF3333FF6633FF9933FFCC33FFFF6600006600336600666600996600CC6600FF6633006633336633666633996633CC6633FF6666006666336666666666996666CC6666FF6699006699336699666699996699CC6699FF66CC0066CC3366CC6666CC9966CCCC66CCFF66FF0066
310
FF3366FF6666FF9966FFCC66FFFF9900009900339900669900999900CC9900FF9933009933339933669933999933CC9933FF9966009966339966669966999966CC9966FF9999009999339999669999999999CC9999FF99CC0099CC3399CC6699CC9999CCCC99CCFF99FF0099FF3399FF6699FF9999FFCC99FFFFCC0000CC00
310
33CC0066CC0099CC00CCCC00FFCC3300CC3333CC3366CC3399CC33CCCC33FFCC6600CC6633CC6666CC6699CC66CCCC66FFCC9900CC9933CC9966CC9999CC99CCCC99FFCCCC00CCCC33CCCC66CCCC99CCCCCCCCCCFFCCFF00CCFF33CCFF66CCFF99CCFFCCCCFFFFFF0000FF0033FF0066FF0099FF00CCFF00FFFF3300FF3333
310
FF3366FF3399FF33CCFF33FFFF6600FF6633FF6666FF6699FF66CCFF66FFFF9900FF9933FF9966FF9999FF99CCFF99FFFFCC00FFCC33FFCC66FFCC99FFCCCCFFCCFFFFFF00FFFF33FFFF66FFFF99FFFFCCFFFFFF0000000D0D0D1A1A1A2828283535354343435050505D5D5D6B6B6B787878868686939393A1A1A1AEAEAEBB
310
BBBBC9C9C9D6D6D6E4E4E4F1F1F1FFFFFF000000000000000000000000000000000000000000000000000000000000544354A80000016849444154789CEDDA416E03210C4051EE7F5FF655AA51E3452701C51108BFB7AA54547BFEA459D11A000000000000000000000083FA42AB9FFDD7C22DF60930F832B2DFD95601069E
310
ADB79303BC5FE771E4C8007F6F7FE01B2BF79B6B9700C39FEDC7D31F1960F4B33DF49F32333AEF4F7DA0CFED91B9F42E01A616A91E2075E76D024C6C2240F6E8F50468020820C0D4E9D4D1EB09D004104080A9D3A9A3D713A00920800053A75347AF274013400001A64EA78E5E4F80268000024C9D4E1DBD9E004D0001E226
310
AFEF339E19E0DD137EABC02E01C21E377785FABF3F268CDE41BC2475BBD1F5EB332F493DAFC9BD58E8CA74E635B9FEEEFD3F7F7BE445C936F86AFBED57C427A3D7BB020C2C73FA65E981A3C706A8373A10A0E4E8408092A303014A8E0E0428393A10A0E4E8408092A303014A8E0E0428393A10A0E4E8408092A303014A8E0E
310
0428393A10A0E4E8408092A303014A8E0E045868F5B3030000000000000000B0911F126D5EE19522918A0000000049454E44AE426082B66C1D0860CBD68100B66C1D0860CBD68100B66C1D0860CBD68100B66C1D0860CBD68100B66C1D0860CBD68100B66C1D0860CBD68100269ABD7700000000000000000016F2070A4034
310
5B7191F2B60000000049454E44AE4260824E44AE426082
  0
ENDSEC
  0
EOF
