  0
SECTION
  2
HEADER
  9
$ACADVER
  1
AC1027
  9
$ACADMAINTVER
 70
     8
  9
$DWGCODEPAGE
  3
ANSI_1252
  9
$LASTSAVEDBY
  1
iFala
  9
$REQUIREDVERSIONS
160
                 0
  9
$INSBASE
 10
0.0
 20
0.0
 30
0.0
  9
$EXTMIN
 10
1.830135209906671
 20
1.121241172891501
 30
-0.4000468831264371
  9
$EXTMAX
 10
91.83013520990668
 20
61.12124117289152
 30
0.0
  9
$LIMMIN
 10
0.0
 20
0.0
  9
$LIMMAX
 10
12.0
 20
9.0
  9
$ORTHOMODE
 70
     0
  9
$REGENMODE
 70
     1
  9
$FILLMODE
 70
     1
  9
$QTEXTMODE
 70
     0
  9
$MIRRTEXT
 70
     0
  9
$LTSCALE
 40
1.0
  9
$ATTMODE
 70
     1
  9
$TEXTSIZE
 40
0.2
  9
$TRACEWID
 40
0.05
  9
$TEXTSTYLE
  7
Standard
  9
$CLAYER
  8
0
  9
$CELTYPE
  6
ByLayer
  9
$CECOLOR
 62
   256
  9
$CELTSCALE
 40
1.0
  9
$DISPSILH
 70
     0
  9
$DIMSCALE
 40
1.0
  9
$DIMASZ
 40
0.18
  9
$DIMEXO
 40
0.0625
  9
$DIMDLI
 40
0.38
  9
$DIMRND
 40
0.0
  9
$DIMDLE
 40
0.0
  9
$DIMEXE
 40
0.18
  9
$DIMTP
 40
0.0
  9
$DIMTM
 40
0.0
  9
$DIMTXT
 40
0.18
  9
$DIMCEN
 40
0.09
  9
$DIMTSZ
 40
0.0
  9
$DIMTOL
 70
     0
  9
$DIMLIM
 70
     0
  9
$DIMTIH
 70
     1
  9
$DIMTOH
 70
     1
  9
$DIMSE1
 70
     0
  9
$DIMSE2
 70
     0
  9
$DIMTAD
 70
     0
  9
$DIMZIN
 70
     0
  9
$DIMBLK
  1

  9
$DIMASO
 70
     1
  9
$DIMSHO
 70
     1
  9
$DIMPOST
  1

  9
$DIMAPOST
  1

  9
$DIMALT
 70
     0
  9
$DIMALTD
 70
     2
  9
$DIMALTF
 40
25.4
  9
$DIMLFAC
 40
1.0
  9
$DIMTOFL
 70
     0
  9
$DIMTVP
 40
0.0
  9
$DIMTIX
 70
     0
  9
$DIMSOXD
 70
     0
  9
$DIMSAH
 70
     0
  9
$DIMBLK1
  1

  9
$DIMBLK2
  1

  9
$DIMSTYLE
  2
Standard
  9
$DIMCLRD
 70
     0
  9
$DIMCLRE
 70
     0
  9
$DIMCLRT
 70
     0
  9
$DIMTFAC
 40
1.0
  9
$DIMGAP
 40
0.09
  9
$DIMJUST
 70
     0
  9
$DIMSD1
 70
     0
  9
$DIMSD2
 70
     0
  9
$DIMTOLJ
 70
     1
  9
$DIMTZIN
 70
     0
  9
$DIMALTZ
 70
     0
  9
$DIMALTTZ
 70
     0
  9
$DIMUPT
 70
     0
  9
$DIMDEC
 70
     4
  9
$DIMTDEC
 70
     4
  9
$DIMALTU
 70
     2
  9
$DIMALTTD
 70
     2
  9
$DIMTXSTY
  7
Standard
  9
$DIMAUNIT
 70
     0
  9
$DIMADEC
 70
     0
  9
$DIMALTRND
 40
0.0
  9
$DIMAZIN
 70
     0
  9
$DIMDSEP
 70
    46
  9
$DIMATFIT
 70
     3
  9
$DIMFRAC
 70
     0
  9
$DIMLDRBLK
  1

  9
$DIMLUNIT
 70
     2
  9
$DIMLWD
 70
    -2
  9
$DIMLWE
 70
    -2
  9
$DIMTMOVE
 70
     0
  9
$DIMFXL
 40
1.0
  9
$DIMFXLON
 70
     0
  9
$DIMJOGANG
 40
0.7853981633974483
  9
$DIMTFILL
 70
     0
  9
$DIMTFILLCLR
 70
     0
  9
$DIMARCSYM
 70
     0
  9
$DIMLTYPE
  6

  9
$DIMLTEX1
  6

  9
$DIMLTEX2
  6

  9
$DIMTXTDIRECTION
 70
     0
  9
$LUNITS
 70
     2
  9
$LUPREC
 70
     4
  9
$SKETCHINC
 40
0.1
  9
$FILLETRAD
 40
0.0
  9
$AUNITS
 70
     0
  9
$AUPREC
 70
     0
  9
$MENU
  1
.
  9
$ELEVATION
 40
0.0
  9
$PELEVATION
 40
0.0
  9
$THICKNESS
 40
0.0
  9
$LIMCHECK
 70
     0
  9
$CHAMFERA
 40
0.0
  9
$CHAMFERB
 40
0.0
  9
$CHAMFERC
 40
0.0
  9
$CHAMFERD
 40
0.0
  9
$SKPOLY
 70
     0
  9
$TDCREATE
 40
2456807.629544352
  9
$TDUCREATE
 40
2456807.546211019
  9
$TDUPDATE
 40
2456854.391940602
  9
$TDUUPDATE
 40
2456854.308607269
  9
$TDINDWG
 40
0.0729603241
  9
$TDUSRTIMER
 40
0.0729603241
  9
$USRTIMER
 70
     1
  9
$ANGBASE
 50
0.0
  9
$ANGDIR
 70
     0
  9
$PDMODE
 70
     0
  9
$PDSIZE
 40
0.0
  9
$PLINEWID
 40
0.0
  9
$SPLFRAME
 70
     0
  9
$SPLINETYPE
 70
     6
  9
$SPLINESEGS
 70
     8
  9
$HANDSEED
  5
E7C
  9
$SURFTAB1
 70
     6
  9
$SURFTAB2
 70
     6
  9
$SURFTYPE
 70
     6
  9
$SURFU
 70
     6
  9
$SURFV
 70
     6
  9
$UCSBASE
  2

  9
$UCSNAME
  2

  9
$UCSORG
 10
0.0
 20
0.0
 30
0.0
  9
$UCSXDIR
 10
1.0
 20
0.0
 30
0.0
  9
$UCSYDIR
 10
0.0
 20
1.0
 30
0.0
  9
$UCSORTHOREF
  2

  9
$UCSORTHOVIEW
 70
     0
  9
$UCSORGTOP
 10
0.0
 20
0.0
 30
0.0
  9
$UCSORGBOTTOM
 10
0.0
 20
0.0
 30
0.0
  9
$UCSORGLEFT
 10
0.0
 20
0.0
 30
0.0
  9
$UCSORGRIGHT
 10
0.0
 20
0.0
 30
0.0
  9
$UCSORGFRONT
 10
0.0
 20
0.0
 30
0.0
  9
$UCSORGBACK
 10
0.0
 20
0.0
 30
0.0
  9
$PUCSBASE
  2

  9
$PUCSNAME
  2

  9
$PUCSORG
 10
0.0
 20
0.0
 30
0.0
  9
$PUCSXDIR
 10
1.0
 20
0.0
 30
0.0
  9
$PUCSYDIR
 10
0.0
 20
1.0
 30
0.0
  9
$PUCSORTHOREF
  2

  9
$PUCSORTHOVIEW
 70
     0
  9
$PUCSORGTOP
 10
0.0
 20
0.0
 30
0.0
  9
$PUCSORGBOTTOM
 10
0.0
 20
0.0
 30
0.0
  9
$PUCSORGLEFT
 10
0.0
 20
0.0
 30
0.0
  9
$PUCSORGRIGHT
 10
0.0
 20
0.0
 30
0.0
  9
$PUCSORGFRONT
 10
0.0
 20
0.0
 30
0.0
  9
$PUCSORGBACK
 10
0.0
 20
0.0
 30
0.0
  9
$USERI1
 70
     0
  9
$USERI2
 70
     0
  9
$USERI3
 70
     0
  9
$USERI4
 70
     0
  9
$USERI5
 70
     0
  9
$USERR1
 40
0.0
  9
$USERR2
 40
0.0
  9
$USERR3
 40
0.0
  9
$USERR4
 40
0.0
  9
$USERR5
 40
0.0
  9
$WORLDVIEW
 70
     1
  9
$SHADEDGE
 70
     3
  9
$SHADEDIF
 70
    70
  9
$TILEMODE
 70
     1
  9
$MAXACTVP
 70
    64
  9
$PINSBASE
 10
0.0
 20
0.0
 30
0.0
  9
$PLIMCHECK
 70
     0
  9
$PEXTMIN
 10
1.000000000000000E+20
 20
1.000000000000000E+20
 30
1.000000000000000E+20
  9
$PEXTMAX
 10
-1.000000000000000E+20
 20
-1.000000000000000E+20
 30
-1.000000000000000E+20
  9
$PLIMMIN
 10
0.0
 20
0.0
  9
$PLIMMAX
 10
12.0
 20
9.0
  9
$UNITMODE
 70
     0
  9
$VISRETAIN
 70
     1
  9
$PLINEGEN
 70
     0
  9
$PSLTSCALE
 70
     1
  9
$TREEDEPTH
 70
  3020
  9
$CMLSTYLE
  2
Standard
  9
$CMLJUST
 70
     0
  9
$CMLSCALE
 40
1.0
  9
$PROXYGRAPHICS
 70
     1
  9
$MEASUREMENT
 70
     0
  9
$CELWEIGHT
370
    -1
  9
$ENDCAPS
280
     0
  9
$JOINSTYLE
280
     0
  9
$LWDISPLAY
290
     0
  9
$INSUNITS
 70
     0
  9
$HYPERLINKBASE
  1

  9
$STYLESHEET
  1

  9
$XEDIT
290
     1
  9
$CEPSNTYPE
380
     0
  9
$PSTYLEMODE
290
     1
  9
$FINGERPRINTGUID
  2
{A9089380-E62A-8944-ACE3-6856760178C3}
  9
$VERSIONGUID
  2
{E32F4B6D-F329-BF45-830E-F6249E26A942}
  9
$EXTNAMES
290
     1
  9
$PSVPSCALE
 40
0.0
  9
$OLESTARTUP
290
     0
  9
$SORTENTS
280
   127
  9
$INDEXCTL
280
     0
  9
$HIDETEXT
280
     0
  9
$XCLIPFRAME
280
     2
  9
$HALOGAP
280
     0
  9
$OBSCOLOR
 70
   257
  9
$OBSLTYPE
280
     0
  9
$INTERSECTIONDISPLAY
280
     0
  9
$INTERSECTIONCOLOR
 70
   257
  9
$DIMASSOC
280
     1
  9
$PROJECTNAME
  1

  9
$CAMERADISPLAY
290
     0
  9
$LENSLENGTH
 40
50.0
  9
$CAMERAHEIGHT
 40
0.0
  9
$STEPSPERSEC
 40
2.0
  9
$STEPSIZE
 40
6.0
  9
$3DDWFPREC
 40
2.0
  9
$PSOLWIDTH
 40
0.25
  9
$PSOLHEIGHT
 40
4.0
  9
$LOFTANG1
 40
1.570796326794896
  9
$LOFTANG2
 40
1.570796326794896
  9
$LOFTMAG1
 40
0.0
  9
$LOFTMAG2
 40
0.0
  9
$LOFTPARAM
 70
     7
  9
$LOFTNORMALS
280
     1
  9
$LATITUDE
 40
37.795
  9
$LONGITUDE
 40
-122.394
  9
$NORTHDIRECTION
 40
0.0
  9
$TIMEZONE
 70
 -8000
  9
$LIGHTGLYPHDISPLAY
280
     1
  9
$TILEMODELIGHTSYNCH
280
     1
  9
$CMATERIAL
347
11
  9
$SOLIDHIST
280
     0
  9
$SHOWHIST
280
     1
  9
$DWFFRAME
280
     2
  9
$DGNFRAME
280
     0
  9
$REALWORLDSCALE
290
     1
  9
$INTERFERECOLOR
 62
     1
  9
$INTERFEREOBJVS
345
33
  9
$INTERFEREVPVS
346
30
  9
$CSHADOW
280
     0
  9
$SHADOWPLANELOCATION
 40
0.0
  0
ENDSEC
  0
SECTION
  2
CLASSES
  0
CLASS
  1
ACDBDICTIONARYWDFLT
  2
AcDbDictionaryWithDefault
  3
ObjectDBX Classes
 90
        0
 91
        1
280
     0
281
     0
  0
CLASS
  1
MATERIAL
  2
AcDbMaterial
  3
ObjectDBX Classes
 90
     1153
 91
        3
280
     0
281
     0
  0
CLASS
  1
VISUALSTYLE
  2
AcDbVisualStyle
  3
ObjectDBX Classes
 90
     4095
 91
       24
280
     0
281
     0
  0
CLASS
  1
SCALE
  2
AcDbScale
  3
ObjectDBX Classes
 90
     1153
 91
       17
280
     0
281
     0
  0
CLASS
  1
TABLESTYLE
  2
AcDbTableStyle
  3
ObjectDBX Classes
 90
     4095
 91
        1
280
     0
281
     0
  0
CLASS
  1
MLEADERSTYLE
  2
AcDbMLeaderStyle
  3
ACDB_MLEADERSTYLE_CLASS
 90
     4095
 91
        1
280
     0
281
     0
  0
CLASS
  1
ACDBSECTIONVIEWSTYLE
  2
AcDbSectionViewStyle
  3
ObjectDBX Classes
 90
     1025
 91
        1
280
     0
281
     0
  0
CLASS
  1
ACDBDETAILVIEWSTYLE
  2
AcDbDetailViewStyle
  3
ObjectDBX Classes
 90
     1025
 91
        1
280
     0
281
     0
  0
CLASS
  1
DICTIONARYVAR
  2
AcDbDictionaryVar
  3
ObjectDBX Classes
 90
        0
 91
       11
280
     0
281
     0
  0
CLASS
  1
PLOTSETTINGS
  2
AcDbPlotSettings
  3
ObjectDBX Classes
 90
        0
 91
        1
280
     0
281
     0
  0
CLASS
  1
CELLSTYLEMAP
  2
AcDbCellStyleMap
  3
ObjectDBX Classes
 90
     1152
 91
        1
280
     0
281
     0
  0
ENDSEC
  0
SECTION
  2
TABLES
  0
TABLE
  2
VPORT
  5
8
330
0
100
AcDbSymbolTable
 70
     1
  0
VPORT
  5
1C1
330
8
100
AcDbSymbolTableRecord
100
AcDbViewportTableRecord
  2
*Active
 70
     0
 10
0.0
 20
0.0
 11
1.0
 21
1.0
 12
32.36903972749634
 22
33.47708270152216
 13
0.0
 23
0.0
 14
1.0
 24
1.0
 15
0.0
 25
0.0
 16
0.0
 26
0.0
 36
1.0
 17
0.0
 27
0.0
 37
0.0
 40
120.8697480891963
 41
1.537330316742081
 42
50.0
 43
0.0
 44
0.0
 50
0.0
 51
0.0
 71
     0
 72
  1000
 73
     1
 74
     3
 75
     0
 76
     1
 77
     0
 78
     0
281
     0
 65
     1
110
0.0
120
0.0
130
0.0
111
1.0
121
0.0
131
0.0
112
0.0
122
1.0
132
0.0
 79
     0
146
0.0
348
2F
 60
     3
 61
     5
292
     1
282
     1
141
0.0
142
0.0
 63
   250
421
  3355443
1001
ACAD_NAV_VCDISPLAY
1070
     1
  0
ENDTAB
  0
TABLE
  2
LTYPE
  5
5
330
0
100
AcDbSymbolTable
 70
     2
  0
LTYPE
  5
5A
330
5
100
AcDbSymbolTableRecord
100
AcDbLinetypeTableRecord
  2
ByBlock
 70
     0
  3

 72
    65
 73
     0
 40
0.0
  0
LTYPE
  5
5B
330
5
100
AcDbSymbolTableRecord
100
AcDbLinetypeTableRecord
  2
ByLayer
 70
     0
  3

 72
    65
 73
     0
 40
0.0
  0
LTYPE
  5
5C
330
5
100
AcDbSymbolTableRecord
100
AcDbLinetypeTableRecord
  2
Continuous
 70
     0
  3
Solid line
 72
    65
 73
     0
 40
0.0
  0
LTYPE
  5
68
330
5
100
AcDbSymbolTableRecord
100
AcDbLinetypeTableRecord
  2
PHANTOM2
 70
     0
  3
Phantom (.5x) ___ _ _ ___ _ _ ___ _ _ ___ _ _
 72
    65
 73
     6
 40
1.25
 49
0.625
 74
     0
 49
-0.125
 74
     0
 49
0.125
 74
     0
 49
-0.125
 74
     0
 49
0.125
 74
     0
 49
-0.125
 74
     0
  0
ENDTAB
  0
TABLE
  2
LAYER
  5
2
102
{ACAD_XDICTIONARY
360
1D1
102
}
330
0
100
AcDbSymbolTable
 70
     4
  0
LAYER
  5
54
102
{ACAD_XDICTIONARY
360
1CA
102
}
330
2
100
AcDbSymbolTableRecord
100
AcDbLayerTableRecord
  2
0
 70
     0
 62
     7
  6
Continuous
370
    -3
390
F
347
21
348
0
  0
LAYER
  5
74
102
{ACAD_XDICTIONARY
360
1CC
102
}
330
2
100
AcDbSymbolTableRecord
100
AcDbLayerTableRecord
  2
Group#1
 70
     0
 62
     7
  6
Continuous
370
    -3
390
F
347
21
348
0
  0
LAYER
  5
49F
102
{ACAD_XDICTIONARY
360
4A0
102
}
330
2
100
AcDbSymbolTableRecord
100
AcDbLayerTableRecord
  2
Group#92
 70
     0
 62
     7
  6
Continuous
370
    -3
390
F
347
21
348
0
  0
LAYER
  5
4A1
102
{ACAD_XDICTIONARY
360
4A2
102
}
330
2
100
AcDbSymbolTableRecord
100
AcDbLayerTableRecord
  2
MY3DLAYER
 70
     0
 62
     7
  6
Continuous
370
    -3
390
F
347
21
348
0
  0
ENDTAB
  0
TABLE
  2
STYLE
  5
3
330
0
100
AcDbSymbolTable
 70
     2
  0
STYLE
  5
55
330
3
100
AcDbSymbolTableRecord
100
AcDbTextStyleTableRecord
  2
Standard
 70
     0
 40
0.0
 41
1.0
 50
0.0
 71
     0
 42
0.2
  3
txt
  4

  0
STYLE
  5
59
330
3
100
AcDbSymbolTableRecord
100
AcDbTextStyleTableRecord
  2
Annotative
 70
     0
 40
0.0
 41
1.0
 50
0.0
 71
     0
 42
0.2
  3
txt
  4

1001
AcadAnnotative
1000
AnnotativeData
1002
{
1070
     1
1070
     1
1002
}
  0
ENDTAB
  0
TABLE
  2
VIEW
  5
6
330
0
100
AcDbSymbolTable
 70
     1
  0
ENDTAB
  0
TABLE
  2
UCS
  5
7
330
0
100
AcDbSymbolTable
 70
     0
  0
ENDTAB
  0
TABLE
  2
APPID
  5
9
330
0
100
AcDbSymbolTable
 70
     5
  0
APPID
  5
56
330
9
100
AcDbSymbolTableRecord
100
AcDbRegAppTableRecord
  2
ACAD
 70
     0
  0
APPID
  5
5D
330
9
100
AcDbSymbolTableRecord
100
AcDbRegAppTableRecord
  2
AcadAnnotative
 70
     0
  0
APPID
  5
1C0
330
9
100
AcDbSymbolTableRecord
100
AcDbRegAppTableRecord
  2
ACAD_NAV_VCDISPLAY
 70
     0
  0
APPID
  5
1C3
330
9
100
AcDbSymbolTableRecord
100
AcDbRegAppTableRecord
  2
ACAD_EXEMPT_FROM_CAD_STANDARDS
 70
     0
  0
APPID
  5
1E5
330
9
100
AcDbSymbolTableRecord
100
AcDbRegAppTableRecord
  2
ACAD_PSEXT
 70
     0
  0
ENDTAB
  0
TABLE
  2
DIMSTYLE
  5
A
330
0
100
AcDbSymbolTable
 70
     2
100
AcDbDimStyleTable
 71
     1
340
57
  0
DIMSTYLE
105
57
330
A
100
AcDbSymbolTableRecord
100
AcDbDimStyleTableRecord
  2
Standard
 70
     0
340
55
  0
DIMSTYLE
105
58
330
A
100
AcDbSymbolTableRecord
100
AcDbDimStyleTableRecord
  2
Annotative
 70
     0
340
55
1001
AcadAnnotative
1000
AnnotativeData
1002
{
1070
     1
1070
     1
1002
}
  0
ENDTAB
  0
TABLE
  2
BLOCK_RECORD
  5
1
330
0
100
AcDbSymbolTable
 70
     0
  0
BLOCK_RECORD
  5
70
330
1
100
AcDbSymbolTableRecord
100
AcDbBlockTableRecord
  2
*Model_Space
340
73
 70
     0
280
     1
281
     0
  0
BLOCK_RECORD
  5
6C
330
1
100
AcDbSymbolTableRecord
100
AcDbBlockTableRecord
  2
*Paper_Space
340
6F
 70
     0
280
     1
281
     0
  0
ENDTAB
  0
ENDSEC
  0
SECTION
  2
BLOCKS
  0
BLOCK
  5
71
330
70
100
AcDbEntity
  8
0
100
AcDbBlockBegin
  2
*Model_Space
 70
     0
 10
0.0
 20
0.0
 30
0.0
  3
*Model_Space
  1

  0
ENDBLK
  5
72
330
70
100
AcDbEntity
  8
0
100
AcDbBlockEnd
  0
BLOCK
  5
6D
330
6C
100
AcDbEntity
 67
     1
  8
0
100
AcDbBlockBegin
  2
*Paper_Space
 70
     0
 10
0.0
 20
0.0
 30
0.0
  3
*Paper_Space
  1

  0
ENDBLK
  5
6E
330
6C
100
AcDbEntity
 67
     1
  8
0
100
AcDbBlockEnd
  0
ENDSEC
  0
SECTION
  2
ENTITIES
  0
LINE
  5
1F2
330
70
100
AcDbEntity
  8
0
 48
0.1
100
AcDbLine
 10
1.830135209906682
 20
61.1212411728915
 30
0.0
 11
1.830135209906671
 21
1.121241172891501
 31
0.0
  0
LINE
  5
1F3
330
70
100
AcDbEntity
  8
0
 48
0.1
100
AcDbLine
 10
1.830135209906671
 20
1.121241172891501
 30
0.0
 11
91.83013520990668
 21
1.121241172891501
 31
0.0
  0
LINE
  5
1F4
330
70
100
AcDbEntity
  8
0
 48
0.1
100
AcDbLine
 10
91.83013520990668
 20
1.121241172891501
 30
0.0
 11
91.83013520990668
 21
61.12124117289152
 31
0.0
  0
LINE
  5
1F5
330
70
100
AcDbEntity
  8
0
 48
0.1
100
AcDbLine
 10
91.83013520990668
 20
61.12124117289152
 30
0.0
 11
91.83013520990668
 21
61.12124117289152
 31
0.0
  0
LINE
  5
1F6
330
70
100
AcDbEntity
  8
0
 48
0.1
100
AcDbLine
 10
91.83013520990668
 20
61.12124117289152
 30
0.0
 11
1.830135209906682
 21
61.1212411728915
 31
0.0
  0
POLYLINE
  5
981
330
70
100
AcDbEntity
  8
Group#92
 48
0.1
100
AcDb3dPolyline
 66
     1
 10
0.0
 20
0.0
 30
0.0
 70
     8
  0
VERTEX
  5
982
330
981
100
AcDbEntity
  8
MY3DLAYER
 48
0.1
100
AcDbVertex
100
AcDb3dPolylineVertex
 10
39.33900636653993
 20
59.53621708756685
 30
-0.4000170792842683
 70
    32
  0
VERTEX
  5
983
330
981
100
AcDbEntity
  8
MY3DLAYER
 48
0.1
100
AcDbVertex
100
AcDb3dPolylineVertex
 10
39.33900232229993
 20
24.73621951215572
 30
-0.4000215913424386
 70
    32
  0
VERTEX
  5
984
330
981
100
AcDbEntity
  8
MY3DLAYER
 48
0.1
100
AcDbVertex
100
AcDb3dPolylineVertex
 10
3.399001373445173
 20
24.73621962878497
 30
-0.4000468831264371
 70
    32
  0
VERTEX
  5
985
330
981
100
AcDbEntity
  8
MY3DLAYER
 48
0.1
100
AcDbVertex
100
AcDb3dPolylineVertex
 10
3.399005875452758
 20
59.53621720419633
 30
-0.400042445422781
 70
    32
  0
VERTEX
  5
986
330
981
100
AcDbEntity
  8
MY3DLAYER
 48
0.1
100
AcDbVertex
100
AcDb3dPolylineVertex
 10
39.33900636653993
 20
59.53621708756685
 30
-0.4000170792842683
 70
    32
  0
SEQEND
  5
987
330
981
100
AcDbEntity
  8
Group#92
 48
0.1
  0
POLYLINE
  5
988
330
70
100
AcDbEntity
  8
Group#92
 48
0.1
100
AcDb3dPolyline
 66
     1
 10
0.0
 20
0.0
 30
0.0
 70
     8
  0
VERTEX
  5
989
330
988
100
AcDbEntity
  8
MY3DLAYER
 48
0.1
100
AcDbVertex
100
AcDb3dPolylineVertex
 10
5.315765149650417
 20
50.02940961417514
 30
-0.4000422984504862
 70
    32
  0
VERTEX
  5
98A
330
988
100
AcDbEntity
  8
MY3DLAYER
 48
0.1
100
AcDbVertex
100
AcDb3dPolylineVertex
 10
5.264001340629903
 20
50.03622444891735
 30
-0.4000423340550137
 70
    32
  0
VERTEX
  5
98B
330
988
100
AcDbEntity
  8
MY3DLAYER
 48
0.1
100
AcDbVertex
100
AcDb3dPolylineVertex
 10
5.212237531609289
 20
50.02940961417499
 30
-0.4000423714121872
 70
    32
  0
VERTEX
  5
98C
330
988
100
AcDbEntity
  8
MY3DLAYER
 48
0.1
100
AcDbVertex
100
AcDb3dPolylineVertex
 10
5.16400134062998
 20
50.00942952967401
 30
-0.4000424079761983
 70
    32
  0
VERTEX
  5
98D
330
988
100
AcDbEntity
  8
MY3DLAYER
 48
0.1
100
AcDbVertex
100
AcDb3dPolylineVertex
 10
5.122579984392885
 20
49.9776458051544
 30
-0.4000424412551792
 70
    32
  0
VERTEX
  5
98E
330
988
100
AcDbEntity
  8
MY3DLAYER
 48
0.1
100
AcDbVertex
100
AcDb3dPolylineVertex
 10
5.090796259873229
 20
49.93622444891703
 30
-0.4000424689814138
 70
    32
  0
VERTEX
  5
98F
330
988
100
AcDbEntity
  8
MY3DLAYER
 48
0.1
100
AcDbVertex
100
AcDb3dPolylineVertex
 10
5.070816175372371
 20
49.88798825793759
 30
-0.4000424892649633
 70
    32
  0
VERTEX
  5
990
330
988
100
AcDbEntity
  8
MY3DLAYER
 48
0.1
100
AcDbVertex
100
AcDb3dPolylineVertex
 10
5.064001340630227
 20
49.83622444891702
 30
-0.4000425007241385
 70
    32
  0
VERTEX
  5
991
330
988
100
AcDbEntity
  8
MY3DLAYER
 48
0.1
100
AcDbVertex
100
AcDb3dPolylineVertex
 10
5.070816175372328
 20
49.78446063989651
 30
-0.4000425025774729
 70
    32
  0
VERTEX
  5
992
330
988
100
AcDbEntity
  8
MY3DLAYER
 48
0.1
100
AcDbVertex
100
AcDb3dPolylineVertex
 10
5.090796259873286
 20
49.73622444891705
 30
-0.4000424946990899
 70
    32
  0
VERTEX
  5
993
330
988
100
AcDbEntity
  8
MY3DLAYER
 48
0.1
100
AcDbVertex
100
AcDb3dPolylineVertex
 10
5.12257998439297
 20
49.69480309267997
 30
-0.4000424776254839
 70
    32
  0
VERTEX
  5
994
330
988
100
AcDbEntity
  8
MY3DLAYER
 48
0.1
100
AcDbVertex
100
AcDb3dPolylineVertex
 10
5.164001340630477
 20
49.66301936816034
 30
-0.4000424525205397
 70
    32
  0
VERTEX
  5
995
330
988
100
AcDbEntity
  8
MY3DLAYER
 48
0.1
100
AcDbVertex
100
AcDb3dPolylineVertex
 10
5.212237531609801
 20
49.64303928365938
 30
-0.4000424210950557
 70
    32
  0
VERTEX
  5
996
330
988
100
AcDbEntity
  8
MY3DLAYER
 48
0.1
100
AcDbVertex
100
AcDb3dPolylineVertex
 10
5.264001340630471
 20
49.63622444891726
 30
-0.4000423854903387
 70
    32
  0
VERTEX
  5
997
330
988
100
AcDbEntity
  8
MY3DLAYER
 48
0.1
100
AcDbVertex
100
AcDb3dPolylineVertex
 10
5.315765149650928
 20
49.6430392836595
 30
-0.4000423481331109
 70
    32
  0
VERTEX
  5
998
330
988
100
AcDbEntity
  8
MY3DLAYER
 48
0.1
100
AcDbVertex
100
AcDb3dPolylineVertex
 10
5.364001340630252
 20
49.66301936816059
 30
-0.400042311569136
 70
    32
  0
VERTEX
  5
999
330
988
100
AcDbEntity
  8
MY3DLAYER
 48
0.1
100
AcDbVertex
100
AcDb3dPolylineVertex
 10
5.40542269686766
 20
49.69480309268035
 30
-0.4000422782902544
 70
    32
  0
VERTEX
  5
99A
330
988
100
AcDbEntity
  8
MY3DLAYER
 48
0.1
100
AcDbVertex
100
AcDb3dPolylineVertex
 10
5.437206421387017
 20
49.73622444891756
 30
-0.4000422505640647
 70
    32
  0
VERTEX
  5
99B
330
988
100
AcDbEntity
  8
MY3DLAYER
 48
0.1
100
AcDbVertex
100
AcDb3dPolylineVertex
 10
5.457186505887889
 20
49.784460639897
 30
-0.400042230280371
 70
    32
  0
VERTEX
  5
99C
330
988
100
AcDbEntity
  8
MY3DLAYER
 48
0.1
100
AcDbVertex
100
AcDb3dPolylineVertex
 10
5.464001340630019
 20
49.8362244489175
 30
-0.4000422188214394
 70
    32
  0
VERTEX
  5
99D
330
988
100
AcDbEntity
  8
MY3DLAYER
 48
0.1
100
AcDbVertex
100
AcDb3dPolylineVertex
 10
5.457186505887875
 20
49.8879882579382
 30
-0.4000422169678614
 70
    32
  0
VERTEX
  5
99E
330
988
100
AcDbEntity
  8
MY3DLAYER
 48
0.1
100
AcDbVertex
100
AcDb3dPolylineVertex
 10
5.437206421386747
 20
49.93622444891747
 30
-0.4000422248464791
 70
    32
  0
VERTEX
  5
99F
330
988
100
AcDbEntity
  8
MY3DLAYER
 48
0.1
100
AcDbVertex
100
AcDb3dPolylineVertex
 10
5.405422696867091
 20
49.97764580515475
 30
-0.4000422419198685
 70
    32
  0
VERTEX
  5
9A0
330
988
100
AcDbEntity
  8
MY3DLAYER
 48
0.1
100
AcDbVertex
100
AcDb3dPolylineVertex
 10
5.364001340630082
 20
50.00942952967425
 30
-0.4000422670247945
 70
    32
  0
VERTEX
  5
9A1
330
988
100
AcDbEntity
  8
MY3DLAYER
 48
0.1
100
AcDbVertex
100
AcDb3dPolylineVertex
 10
5.315765149650417
 20
50.02940961417514
 30
-0.4000422984504862
 70
    32
  0
SEQEND
  5
9A2
330
988
100
AcDbEntity
  8
Group#92
 48
0.1
  0
POLYLINE
  5
9A3
330
70
100
AcDbEntity
  8
Group#92
 48
0.1
100
AcDb3dPolyline
 66
     1
 10
0.0
 20
0.0
 30
0.0
 70
     8
  0
VERTEX
  5
9A4
330
9A3
100
AcDbEntity
  8
MY3DLAYER
 48
0.1
100
AcDbVertex
100
AcDb3dPolylineVertex
 10
5.315765149670539
 20
35.02940964212717
 30
-0.4000442272771587
 70
    32
  0
VERTEX
  5
9A5
330
9A3
100
AcDbEntity
  8
MY3DLAYER
 48
0.1
100
AcDbVertex
100
AcDb3dPolylineVertex
 10
5.26400134065004
 20
35.03622447686929
 30
-0.4000442628817673
 70
    32
  0
VERTEX
  5
9A6
330
9A3
100
AcDbEntity
  8
MY3DLAYER
 48
0.1
100
AcDbVertex
100
AcDb3dPolylineVertex
 10
5.212237531629412
 20
35.02940964212703
 30
-0.4000443002391034
 70
    32
  0
VERTEX
  5
9A7
330
9A3
100
AcDbEntity
  8
MY3DLAYER
 48
0.1
100
AcDbVertex
100
AcDb3dPolylineVertex
 10
5.164001340650102
 20
35.00942955762608
 30
-0.4000443368031145
 70
    32
  0
VERTEX
  5
9A8
330
9A3
100
AcDbEntity
  8
MY3DLAYER
 48
0.1
100
AcDbVertex
100
AcDb3dPolylineVertex
 10
5.122579984412709
 20
34.97764583310644
 30
-0.4000443700820142
 70
    32
  0
VERTEX
  5
9A9
330
9A3
100
AcDbEntity
  8
MY3DLAYER
 48
0.1
100
AcDbVertex
100
AcDb3dPolylineVertex
 10
5.090796259893352
 20
34.93622447686916
 30
-0.4000443978081406
 70
    32
  0
VERTEX
  5
9AA
330
9A3
100
AcDbEntity
  8
MY3DLAYER
 48
0.1
100
AcDbVertex
100
AcDb3dPolylineVertex
 10
5.070816175392167
 20
34.88798828588957
 30
-0.40004441809169
 70
    32
  0
VERTEX
  5
9AB
330
9A3
100
AcDbEntity
  8
MY3DLAYER
 48
0.1
100
AcDbVertex
100
AcDb3dPolylineVertex
 10
5.064001340650548
 20
34.83622447686899
 30
-0.4000444295509734
 70
    32
  0
VERTEX
  5
9AC
330
9A3
100
AcDbEntity
  8
MY3DLAYER
 48
0.1
100
AcDbVertex
100
AcDb3dPolylineVertex
 10
5.070816175392607
 20
34.78446066784865
 30
-0.4000444314042266
 70
    32
  0
VERTEX
  5
9AD
330
9A3
100
AcDbEntity
  8
MY3DLAYER
 48
0.1
100
AcDbVertex
100
AcDb3dPolylineVertex
 10
5.090796259893622
 20
34.73622447686915
 30
-0.4000444235258165
 70
    32
  0
VERTEX
  5
9AE
330
9A3
100
AcDbEntity
  8
MY3DLAYER
 48
0.1
100
AcDbVertex
100
AcDb3dPolylineVertex
 10
5.122579984413221
 20
34.69480312063181
 30
-0.4000444064523729
 70
    32
  0
VERTEX
  5
9AF
330
9A3
100
AcDbEntity
  8
MY3DLAYER
 48
0.1
100
AcDbVertex
100
AcDb3dPolylineVertex
 10
5.164001340650301
 20
34.66301939611228
 30
-0.4000443813474558
 70
    32
  0
VERTEX
  5
9B0
330
9A3
100
AcDbEntity
  8
MY3DLAYER
 48
0.1
100
AcDbVertex
100
AcDb3dPolylineVertex
 10
5.212237531630051
 20
34.64303931161159
 30
-0.4000443499217282
 70
    32
  0
VERTEX
  5
9B1
330
9A3
100
AcDbEntity
  8
MY3DLAYER
 48
0.1
100
AcDbVertex
100
AcDb3dPolylineVertex
 10
5.26400134065058
 20
34.63622447686936
 30
-0.4000443143172278
 70
    32
  0
VERTEX
  5
9B2
330
9A3
100
AcDbEntity
  8
MY3DLAYER
 48
0.1
100
AcDbVertex
100
AcDb3dPolylineVertex
 10
5.315765149671079
 20
34.64303931161165
 30
-0.40004427696
 70
    32
  0
VERTEX
  5
9B3
330
9A3
100
AcDbEntity
  8
MY3DLAYER
 48
0.1
100
AcDbVertex
100
AcDb3dPolylineVertex
 10
5.364001340650375
 20
34.66301939611259
 30
-0.4000442403960253
 70
    32
  0
VERTEX
  5
9B4
330
9A3
100
AcDbEntity
  8
MY3DLAYER
 48
0.1
100
AcDbVertex
100
AcDb3dPolylineVertex
 10
5.405422696887569
 20
34.69480312063208
 30
-0.4000442071170893
 70
    32
  0
VERTEX
  5
9B5
330
9A3
100
AcDbEntity
  8
MY3DLAYER
 48
0.1
100
AcDbVertex
100
AcDb3dPolylineVertex
 10
5.43720642140714
 20
34.73622447686953
 30
-0.400044179390981
 70
    32
  0
VERTEX
  5
9B6
330
9A3
100
AcDbEntity
  8
MY3DLAYER
 48
0.1
100
AcDbVertex
100
AcDb3dPolylineVertex
 10
5.457186505908012
 20
34.78446066784904
 30
-0.4000441591072871
 70
    32
  0
VERTEX
  5
9B7
330
9A3
100
AcDbEntity
  8
MY3DLAYER
 48
0.1
100
AcDbVertex
100
AcDb3dPolylineVertex
 10
5.464001340650227
 20
34.83622447686946
 30
-0.400044147648112
 70
    32
  0
VERTEX
  5
9B8
330
9A3
100
AcDbEntity
  8
MY3DLAYER
 48
0.1
100
AcDbVertex
100
AcDb3dPolylineVertex
 10
5.457186505908168
 20
34.88798828589005
 30
-0.4000441457947505
 70
    32
  0
VERTEX
  5
9B9
330
9A3
100
AcDbEntity
  8
MY3DLAYER
 48
0.1
100
AcDbVertex
100
AcDb3dPolylineVertex
 10
5.437206421407012
 20
34.93622447686953
 30
-0.4000441536731513
 70
    32
  0
VERTEX
  5
9BA
330
9A3
100
AcDbEntity
  8
MY3DLAYER
 48
0.1
100
AcDbVertex
100
AcDb3dPolylineVertex
 10
5.405422696887427
 20
34.97764583310689
 30
-0.4000441707467847
 70
    32
  0
VERTEX
  5
9BB
330
9A3
100
AcDbEntity
  8
MY3DLAYER
 48
0.1
100
AcDbVertex
100
AcDb3dPolylineVertex
 10
5.36400134064992
 20
35.00942955762632
 30
-0.4000441958516837
 70
    32
  0
VERTEX
  5
9BC
330
9A3
100
AcDbEntity
  8
MY3DLAYER
 48
0.1
100
AcDbVertex
100
AcDb3dPolylineVertex
 10
5.315765149670539
 20
35.02940964212717
 30
-0.4000442272771587
 70
    32
  0
SEQEND
  5
9BD
330
9A3
100
AcDbEntity
  8
Group#92
 48
0.1
  0
POLYLINE
  5
9BE
330
70
100
AcDbEntity
  8
Group#92
 48
0.1
100
AcDb3dPolyline
 66
     1
 10
0.0
 20
0.0
 30
0.0
 70
     8
  0
VERTEX
  5
9BF
330
9BE
100
AcDbEntity
  8
MY3DLAYER
 48
0.1
100
AcDbVertex
100
AcDb3dPolylineVertex
 10
13.96400113483774
 20
25.93622068105889
 30
-0.4000393016529594
 70
    32
  0
VERTEX
  5
9C0
330
9BE
100
AcDbEntity
  8
MY3DLAYER
 48
0.1
100
AcDbVertex
100
AcDb3dPolylineVertex
 10
14.01576494385806
 20
25.94303551580106
 30
-0.4000392642957677
 70
    32
  0
VERTEX
  5
9C1
330
9BE
100
AcDbEntity
  8
MY3DLAYER
 48
0.1
100
AcDbVertex
100
AcDb3dPolylineVertex
 10
14.06400113483748
 20
25.96301560030213
 30
-0.4000392277317567
 70
    32
  0
VERTEX
  5
9C2
330
9BE
100
AcDbEntity
  8
MY3DLAYER
 48
0.1
100
AcDbVertex
100
AcDb3dPolylineVertex
 10
14.10542249107512
 20
25.99479932482184
 30
-0.4000391944527307
 70
    32
  0
VERTEX
  5
9C3
330
9BE
100
AcDbEntity
  8
MY3DLAYER
 48
0.1
100
AcDbVertex
100
AcDb3dPolylineVertex
 10
14.13720621559445
 20
26.03622068105912
 30
-0.4000391667265862
 70
    32
  0
VERTEX
  5
9C4
330
9BE
100
AcDbEntity
  8
MY3DLAYER
 48
0.1
100
AcDbVertex
100
AcDb3dPolylineVertex
 10
14.1571863000952
 20
26.08445687203858
 30
-0.4000391464428564
 70
    32
  0
VERTEX
  5
9C5
330
9BE
100
AcDbEntity
  8
MY3DLAYER
 48
0.1
100
AcDbVertex
100
AcDb3dPolylineVertex
 10
14.16400113483727
 20
26.13622068105907
 30
-0.4000391349838435
 70
    32
  0
VERTEX
  5
9C6
330
9BE
100
AcDbEntity
  8
MY3DLAYER
 48
0.1
100
AcDbVertex
100
AcDb3dPolylineVertex
 10
14.15718630009499
 20
26.18798449007964
 30
-0.4000391331303016
 70
    32
  0
VERTEX
  5
9C7
330
9BE
100
AcDbEntity
  8
MY3DLAYER
 48
0.1
100
AcDbVertex
100
AcDb3dPolylineVertex
 10
14.1372062155942
 20
26.23622068105911
 30
-0.4000391410089012
 70
    32
  0
VERTEX
  5
9C8
330
9BE
100
AcDbEntity
  8
MY3DLAYER
 48
0.1
100
AcDbVertex
100
AcDb3dPolylineVertex
 10
14.10542249107441
 20
26.27764203729638
 30
-0.4000391580825705
 70
    32
  0
VERTEX
  5
9C9
330
9BE
100
AcDbEntity
  8
MY3DLAYER
 48
0.1
100
AcDbVertex
100
AcDb3dPolylineVertex
 10
14.0640011348372
 20
26.30942576181583
 30
-0.4000391831873972
 70
    32
  0
VERTEX
  5
9CA
330
9BE
100
AcDbEntity
  8
MY3DLAYER
 48
0.1
100
AcDbVertex
100
AcDb3dPolylineVertex
 10
14.01576494385756
 20
26.32940584631677
 30
-0.4000392146129264
 70
    32
  0
VERTEX
  5
9CB
330
9BE
100
AcDbEntity
  8
MY3DLAYER
 48
0.1
100
AcDbVertex
100
AcDb3dPolylineVertex
 10
13.96400113483688
 20
26.33622068105889
 30
-0.4000392502176614
 70
    32
  0
VERTEX
  5
9CC
330
9BE
100
AcDbEntity
  8
MY3DLAYER
 48
0.1
100
AcDbVertex
100
AcDb3dPolylineVertex
 10
13.91223732581655
 20
26.32940584631664
 30
-0.4000392875748713
 70
    32
  0
VERTEX
  5
9CD
330
9BE
100
AcDbEntity
  8
MY3DLAYER
 48
0.1
100
AcDbVertex
100
AcDb3dPolylineVertex
 10
13.86400113483725
 20
26.30942576181566
 30
-0.400039324138864
 70
    32
  0
VERTEX
  5
9CE
330
9BE
100
AcDbEntity
  8
MY3DLAYER
 48
0.1
100
AcDbVertex
100
AcDb3dPolylineVertex
 10
13.82257977859985
 20
26.27764203729602
 30
-0.4000393574177277
 70
    32
  0
VERTEX
  5
9CF
330
9BE
100
AcDbEntity
  8
MY3DLAYER
 48
0.1
100
AcDbVertex
100
AcDb3dPolylineVertex
 10
13.79079605408028
 20
26.23622068105863
 30
-0.4000393851438901
 70
    32
  0
VERTEX
  5
9D0
330
9BE
100
AcDbEntity
  8
MY3DLAYER
 48
0.1
100
AcDbVertex
100
AcDb3dPolylineVertex
 10
13.77081596957961
 20
26.18798449007916
 30
-0.4000394054276021
 70
    32
  0
VERTEX
  5
9D1
330
9BE
100
AcDbEntity
  8
MY3DLAYER
 48
0.1
100
AcDbVertex
100
AcDb3dPolylineVertex
 10
13.76400113483735
 20
26.13622068105856
 30
-0.4000394168865606
 70
    32
  0
VERTEX
  5
9D2
330
9BE
100
AcDbEntity
  8
MY3DLAYER
 48
0.1
100
AcDbVertex
100
AcDb3dPolylineVertex
 10
13.77081596957963
 20
26.08445687203815
 30
-0.4000394187401568
 70
    32
  0
VERTEX
  5
9D3
330
9BE
100
AcDbEntity
  8
MY3DLAYER
 48
0.1
100
AcDbVertex
100
AcDb3dPolylineVertex
 10
13.79079605408056
 20
26.03622068105871
 30
-0.4000394108615843
 70
    32
  0
VERTEX
  5
9D4
330
9BE
100
AcDbEntity
  8
MY3DLAYER
 48
0.1
100
AcDbVertex
100
AcDb3dPolylineVertex
 10
13.82257977860021
 20
25.99479932482149
 30
-0.4000393937881046
 70
    32
  0
VERTEX
  5
9D5
330
9BE
100
AcDbEntity
  8
MY3DLAYER
 48
0.1
100
AcDbVertex
100
AcDb3dPolylineVertex
 10
13.86400113483791
 20
25.9630156003018
 30
-0.4000393686832235
 70
    32
  0
VERTEX
  5
9D6
330
9BE
100
AcDbEntity
  8
MY3DLAYER
 48
0.1
100
AcDbVertex
100
AcDb3dPolylineVertex
 10
13.91223732581707
 20
25.94303551580097
 30
-0.4000393372574959
 70
    32
  0
VERTEX
  5
9D7
330
9BE
100
AcDbEntity
  8
MY3DLAYER
 48
0.1
100
AcDbVertex
100
AcDb3dPolylineVertex
 10
13.96400113483774
 20
25.93622068105889
 30
-0.4000393016529594
 70
    32
  0
SEQEND
  5
9D8
330
9BE
100
AcDbEntity
  8
Group#92
 48
0.1
  0
POLYLINE
  5
9D9
330
70
100
AcDbEntity
  8
Group#92
 48
0.1
100
AcDb3dPolyline
 66
     1
 10
0.0
 20
0.0
 30
0.0
 70
     8
  0
VERTEX
  5
9DA
330
9D9
100
AcDbEntity
  8
MY3DLAYER
 48
0.1
100
AcDbVertex
100
AcDb3dPolylineVertex
 10
29.16400110688186
 20
26.13622068107781
 30
-0.4000285636314464
 70
    32
  0
VERTEX
  5
9DB
330
9D9
100
AcDbEntity
  8
MY3DLAYER
 48
0.1
100
AcDbVertex
100
AcDb3dPolylineVertex
 10
29.15718627213956
 20
26.18798449009835
 30
-0.400028561778067
 70
    32
  0
VERTEX
  5
9DC
330
9D9
100
AcDbEntity
  8
MY3DLAYER
 48
0.1
100
AcDbVertex
100
AcDb3dPolylineVertex
 10
29.13720618763871
 20
26.23622068107782
 30
-0.4000285696566393
 70
    32
  0
VERTEX
  5
9DD
330
9D9
100
AcDbEntity
  8
MY3DLAYER
 48
0.1
100
AcDbVertex
100
AcDb3dPolylineVertex
 10
29.10542246311897
 20
26.27764203731509
 30
-0.4000285867300288
 70
    32
  0
VERTEX
  5
9DE
330
9D9
100
AcDbEntity
  8
MY3DLAYER
 48
0.1
100
AcDbVertex
100
AcDb3dPolylineVertex
 10
29.0640011068816
 20
26.30942576183457
 30
-0.4000286118349369
 70
    32
  0
VERTEX
  5
9DF
330
9D9
100
AcDbEntity
  8
MY3DLAYER
 48
0.1
100
AcDbVertex
100
AcDb3dPolylineVertex
 10
29.0157649159021
 20
26.32940584633548
 30
-0.4000286432605022
 70
    32
  0
VERTEX
  5
9E0
330
9D9
100
AcDbEntity
  8
MY3DLAYER
 48
0.1
100
AcDbVertex
100
AcDb3dPolylineVertex
 10
28.96400110688174
 20
26.3362206810776
 30
-0.4000286788652642
 70
    32
  0
VERTEX
  5
9E1
330
9D9
100
AcDbEntity
  8
MY3DLAYER
 48
0.1
100
AcDbVertex
100
AcDb3dPolylineVertex
 10
28.91223729786113
 20
26.32940584633534
 30
-0.4000287162223658
 70
    32
  0
VERTEX
  5
9E2
330
9D9
100
AcDbEntity
  8
MY3DLAYER
 48
0.1
100
AcDbVertex
100
AcDb3dPolylineVertex
 10
28.86400110688181
 20
26.30942576183436
 30
-0.4000287527864672
 70
    32
  0
VERTEX
  5
9E3
330
9D9
100
AcDbEntity
  8
MY3DLAYER
 48
0.1
100
AcDbVertex
100
AcDb3dPolylineVertex
 10
28.82257975064439
 20
26.27764203731473
 30
-0.4000287860654749
 70
    32
  0
VERTEX
  5
9E4
330
9D9
100
AcDbEntity
  8
MY3DLAYER
 48
0.1
100
AcDbVertex
100
AcDb3dPolylineVertex
 10
28.79079602612502
 20
26.23622068107739
 30
-0.4000288137915291
 70
    32
  0
VERTEX
  5
9E5
330
9D9
100
AcDbEntity
  8
MY3DLAYER
 48
0.1
100
AcDbVertex
100
AcDb3dPolylineVertex
 10
28.77081594162435
 20
26.18798449009787
 30
-0.4000288340752049
 70
    32
  0
VERTEX
  5
9E6
330
9D9
100
AcDbEntity
  8
MY3DLAYER
 48
0.1
100
AcDbVertex
100
AcDb3dPolylineVertex
 10
28.76400110688193
 20
26.13622068107728
 30
-0.4000288455341546
 70
    32
  0
VERTEX
  5
9E7
330
9D9
100
AcDbEntity
  8
MY3DLAYER
 48
0.1
100
AcDbVertex
100
AcDb3dPolylineVertex
 10
28.77081594162417
 20
26.08445687205686
 30
-0.4000288473876694
 70
    32
  0
VERTEX
  5
9E8
330
9D9
100
AcDbEntity
  8
MY3DLAYER
 48
0.1
100
AcDbVertex
100
AcDb3dPolylineVertex
 10
28.79079602612518
 20
26.03622068107747
 30
-0.4000288395091601
 70
    32
  0
VERTEX
  5
9E9
330
9D9
100
AcDbEntity
  8
MY3DLAYER
 48
0.1
100
AcDbVertex
100
AcDb3dPolylineVertex
 10
28.82257975064481
 20
25.99479932484012
 30
-0.4000288224356261
 70
    32
  0
VERTEX
  5
9EA
330
9D9
100
AcDbEntity
  8
MY3DLAYER
 48
0.1
100
AcDbVertex
100
AcDb3dPolylineVertex
 10
28.86400110688246
 20
25.96301560032052
 30
-0.4000287973307363
 70
    32
  0
VERTEX
  5
9EB
330
9D9
100
AcDbEntity
  8
MY3DLAYER
 48
0.1
100
AcDbVertex
100
AcDb3dPolylineVertex
 10
28.91223729786163
 20
25.94303551581973
 30
-0.4000287659050806
 70
    32
  0
VERTEX
  5
9EC
330
9D9
100
AcDbEntity
  8
MY3DLAYER
 48
0.1
100
AcDbVertex
100
AcDb3dPolylineVertex
 10
28.96400110688229
 20
25.93622068107761
 30
-0.4000287303004991
 70
    32
  0
VERTEX
  5
9ED
330
9D9
100
AcDbEntity
  8
MY3DLAYER
 48
0.1
100
AcDbVertex
100
AcDb3dPolylineVertex
 10
29.01576491590274
 20
25.94303551581982
 30
-0.4000286929433524
 70
    32
  0
VERTEX
  5
9EE
330
9D9
100
AcDbEntity
  8
MY3DLAYER
 48
0.1
100
AcDbVertex
100
AcDb3dPolylineVertex
 10
29.06400110688208
 20
25.96301560032085
 30
-0.4000286563794589
 70
    32
  0
VERTEX
  5
9EF
330
9D9
100
AcDbEntity
  8
MY3DLAYER
 48
0.1
100
AcDbVertex
100
AcDb3dPolylineVertex
 10
29.10542246311965
 20
25.99479932484047
 30
-0.4000286231002704
 70
    32
  0
VERTEX
  5
9F0
330
9D9
100
AcDbEntity
  8
MY3DLAYER
 48
0.1
100
AcDbVertex
100
AcDb3dPolylineVertex
 10
29.137206187639
 20
26.03622068107782
 30
-0.4000285953742433
 70
    32
  0
VERTEX
  5
9F1
330
9D9
100
AcDbEntity
  8
MY3DLAYER
 48
0.1
100
AcDbVertex
100
AcDb3dPolylineVertex
 10
29.15718627213978
 20
26.08445687205734
 30
-0.4000285750905313
 70
    32
  0
VERTEX
  5
9F2
330
9D9
100
AcDbEntity
  8
MY3DLAYER
 48
0.1
100
AcDbVertex
100
AcDb3dPolylineVertex
 10
29.16400110688186
 20
26.13622068107781
 30
-0.4000285636314464
 70
    32
  0
SEQEND
  5
9F3
330
9D9
100
AcDbEntity
  8
Group#92
 48
0.1
  0
POLYLINE
  5
9F4
330
70
100
AcDbEntity
  8
Group#92
 48
0.1
100
AcDb3dPolyline
 66
     1
 10
0.0
 20
0.0
 30
0.0
 70
     8
  0
VERTEX
  5
9F5
330
9F4
100
AcDbEntity
  8
MY3DLAYER
 48
0.1
100
AcDbVertex
100
AcDb3dPolylineVertex
 10
37.71576460155669
 20
35.02940660745584
 30
-0.4000213931566848
 70
    32
  0
VERTEX
  5
9F6
330
9F4
100
AcDbEntity
  8
MY3DLAYER
 48
0.1
100
AcDbVertex
100
AcDb3dPolylineVertex
 10
37.66400079253646
 20
35.03622144219797
 30
-0.4000214287612662
 70
    32
  0
VERTEX
  5
9F7
330
9F4
100
AcDbEntity
  8
MY3DLAYER
 48
0.1
100
AcDbVertex
100
AcDb3dPolylineVertex
 10
37.61223698351574
 20
35.02940660745563
 30
-0.4000214661185753
 70
    32
  0
VERTEX
  5
9F8
330
9F4
100
AcDbEntity
  8
MY3DLAYER
 48
0.1
100
AcDbVertex
100
AcDb3dPolylineVertex
 10
37.56400079253624
 20
35.00942652295474
 30
-0.4000215026824689
 70
    32
  0
VERTEX
  5
9F9
330
9F4
100
AcDbEntity
  8
MY3DLAYER
 48
0.1
100
AcDbVertex
100
AcDb3dPolylineVertex
 10
37.52257943629915
 20
34.97764279843511
 30
-0.4000215359615761
 70
    32
  0
VERTEX
  5
9FA
330
9F4
100
AcDbEntity
  8
MY3DLAYER
 48
0.1
100
AcDbVertex
100
AcDb3dPolylineVertex
 10
37.4907957117795
 20
34.93622144219782
 30
-0.4000215636876846
 70
    32
  0
VERTEX
  5
9FB
330
9F4
100
AcDbEntity
  8
MY3DLAYER
 48
0.1
100
AcDbVertex
100
AcDb3dPolylineVertex
 10
37.4708156272786
 20
34.88798525121824
 30
-0.4000215839712342
 70
    32
  0
VERTEX
  5
9FC
330
9F4
100
AcDbEntity
  8
MY3DLAYER
 48
0.1
100
AcDbVertex
100
AcDb3dPolylineVertex
 10
37.4640007925365
 20
34.83622144219766
 30
-0.400021595430319
 70
    32
  0
VERTEX
  5
9FD
330
9F4
100
AcDbEntity
  8
MY3DLAYER
 48
0.1
100
AcDbVertex
100
AcDb3dPolylineVertex
 10
37.47081562727903
 20
34.78445763317733
 30
-0.4000215972836804
 70
    32
  0
VERTEX
  5
9FE
330
9F4
100
AcDbEntity
  8
MY3DLAYER
 48
0.1
100
AcDbVertex
100
AcDb3dPolylineVertex
 10
37.49079571178
 20
34.73622144219782
 30
-0.4000215894053518
 70
    32
  0
VERTEX
  5
9FF
330
9F4
100
AcDbEntity
  8
MY3DLAYER
 48
0.1
100
AcDbVertex
100
AcDb3dPolylineVertex
 10
37.52257943629933
 20
34.69480008596049
 30
-0.4000215723317183
 70
    32
  0
VERTEX
  5
A00
330
9F4
100
AcDbEntity
  8
MY3DLAYER
 48
0.1
100
AcDbVertex
100
AcDb3dPolylineVertex
 10
37.56400079253671
 20
34.66301636144097
 30
-0.4000215472268104
 70
    32
  0
VERTEX
  5
A01
330
9F4
100
AcDbEntity
  8
MY3DLAYER
 48
0.1
100
AcDbVertex
100
AcDb3dPolylineVertex
 10
37.61223698351631
 20
34.64303627694017
 30
-0.4000215158013443
 70
    32
  0
VERTEX
  5
A02
330
9F4
100
AcDbEntity
  8
MY3DLAYER
 48
0.1
100
AcDbVertex
100
AcDb3dPolylineVertex
 10
37.66400079253673
 20
34.63622144219804
 30
-0.4000214801965825
 70
    32
  0
VERTEX
  5
A03
330
9F4
100
AcDbEntity
  8
MY3DLAYER
 48
0.1
100
AcDbVertex
100
AcDb3dPolylineVertex
 10
37.7157646015572
 20
34.64303627694039
 30
-0.4000214428395621
 70
    32
  0
VERTEX
  5
A04
330
9F4
100
AcDbEntity
  8
MY3DLAYER
 48
0.1
100
AcDbVertex
100
AcDb3dPolylineVertex
 10
37.76400079253669
 20
34.66301636144123
 30
-0.4000214062755421
 70
    32
  0
VERTEX
  5
A05
330
9F4
100
AcDbEntity
  8
MY3DLAYER
 48
0.1
100
AcDbVertex
100
AcDb3dPolylineVertex
 10
37.80542214877403
 20
34.69480008596085
 30
-0.4000213729962904
 70
    32
  0
VERTEX
  5
A06
330
9F4
100
AcDbEntity
  8
MY3DLAYER
 48
0.1
100
AcDbVertex
100
AcDb3dPolylineVertex
 10
37.83720587329345
 20
34.73622144219821
 30
-0.4000213452702904
 70
    32
  0
VERTEX
  5
A07
330
9F4
100
AcDbEntity
  8
MY3DLAYER
 48
0.1
100
AcDbVertex
100
AcDb3dPolylineVertex
 10
37.85718595779446
 20
34.78445763317781
 30
-0.4000213249865603
 70
    32
  0
VERTEX
  5
A08
330
9F4
100
AcDbEntity
  8
MY3DLAYER
 48
0.1
100
AcDbVertex
100
AcDb3dPolylineVertex
 10
37.86400079253646
 20
34.83622144219814
 30
-0.4000213135276921
 70
    32
  0
VERTEX
  5
A09
330
9F4
100
AcDbEntity
  8
MY3DLAYER
 48
0.1
100
AcDbVertex
100
AcDb3dPolylineVertex
 10
37.85718595779439
 20
34.88798525121872
 30
-0.4000213116741141
 70
    32
  0
VERTEX
  5
A0A
330
9F4
100
AcDbEntity
  8
MY3DLAYER
 48
0.1
100
AcDbVertex
100
AcDb3dPolylineVertex
 10
37.83720587329329
 20
34.9362214421982
 30
-0.4000213195526774
 70
    32
  0
VERTEX
  5
A0B
330
9F4
100
AcDbEntity
  8
MY3DLAYER
 48
0.1
100
AcDbVertex
100
AcDb3dPolylineVertex
 10
37.8054221487738
 20
34.97764279843547
 30
-0.4000213366261573
 70
    32
  0
VERTEX
  5
A0C
330
9F4
100
AcDbEntity
  8
MY3DLAYER
 48
0.1
100
AcDbVertex
100
AcDb3dPolylineVertex
 10
37.76400079253635
 20
35.009426522955
 30
-0.4000213617310472
 70
    32
  0
VERTEX
  5
A0D
330
9F4
100
AcDbEntity
  8
MY3DLAYER
 48
0.1
100
AcDbVertex
100
AcDb3dPolylineVertex
 10
37.71576460155669
 20
35.02940660745584
 30
-0.4000213931566848
 70
    32
  0
SEQEND
  5
A0E
330
9F4
100
AcDbEntity
  8
Group#92
 48
0.1
  0
POLYLINE
  5
A0F
330
70
100
AcDbEntity
  8
Group#92
 48
0.1
100
AcDb3dPolyline
 66
     1
 10
0.0
 20
0.0
 30
0.0
 70
     8
  0
VERTEX
  5
A10
330
A0F
100
AcDbEntity
  8
MY3DLAYER
 48
0.1
100
AcDbVertex
100
AcDb3dPolylineVertex
 10
37.71576460153664
 20
50.02940657950379
 30
-0.4000194643298587
 70
    32
  0
VERTEX
  5
A11
330
A0F
100
AcDbEntity
  8
MY3DLAYER
 48
0.1
100
AcDbVertex
100
AcDb3dPolylineVertex
 10
37.66400079251635
 20
50.036221414246
 30
-0.4000194999343771
 70
    32
  0
VERTEX
  5
A12
330
A0F
100
AcDbEntity
  8
MY3DLAYER
 48
0.1
100
AcDbVertex
100
AcDb3dPolylineVertex
 10
37.61223698349571
 20
50.02940657950364
 30
-0.4000195372917493
 70
    32
  0
VERTEX
  5
A13
330
A0F
100
AcDbEntity
  8
MY3DLAYER
 48
0.1
100
AcDbVertex
100
AcDb3dPolylineVertex
 10
37.56400079251615
 20
50.00942649500263
 30
-0.40001957385558
 70
    32
  0
VERTEX
  5
A14
330
A0F
100
AcDbEntity
  8
MY3DLAYER
 48
0.1
100
AcDbVertex
100
AcDb3dPolylineVertex
 10
37.52257943627899
 20
49.97764277048305
 30
-0.4000196071346601
 70
    32
  0
VERTEX
  5
A15
330
A0F
100
AcDbEntity
  8
MY3DLAYER
 48
0.1
100
AcDbVertex
100
AcDb3dPolylineVertex
 10
37.49079571175961
 20
49.93622141424568
 30
-0.4000196348608497
 70
    32
  0
VERTEX
  5
A16
330
A0F
100
AcDbEntity
  8
MY3DLAYER
 48
0.1
100
AcDbVertex
100
AcDb3dPolylineVertex
 10
37.47081562725849
 20
49.88798522326625
 30
-0.400019655144399
 70
    32
  0
VERTEX
  5
A17
330
A0F
100
AcDbEntity
  8
MY3DLAYER
 48
0.1
100
AcDbVertex
100
AcDb3dPolylineVertex
 10
37.46400079251646
 20
49.83622141424568
 30
-0.4000196666034298
 70
    32
  0
VERTEX
  5
A18
330
A0F
100
AcDbEntity
  8
MY3DLAYER
 48
0.1
100
AcDbVertex
100
AcDb3dPolylineVertex
 10
37.47081562725874
 20
49.78445760522518
 30
-0.4000196684568456
 70
    32
  0
VERTEX
  5
A19
330
A0F
100
AcDbEntity
  8
MY3DLAYER
 48
0.1
100
AcDbVertex
100
AcDb3dPolylineVertex
 10
37.49079571175972
 20
49.7362214142458
 30
-0.4000196605784354
 70
    32
  0
VERTEX
  5
A1A
330
A0F
100
AcDbEntity
  8
MY3DLAYER
 48
0.1
100
AcDbVertex
100
AcDb3dPolylineVertex
 10
37.52257943627924
 20
49.69480005800848
 30
-0.4000196435049557
 70
    32
  0
VERTEX
  5
A1B
330
A0F
100
AcDbEntity
  8
MY3DLAYER
 48
0.1
100
AcDbVertex
100
AcDb3dPolylineVertex
 10
37.56400079251659
 20
49.66301633348896
 30
-0.4000196183999212
 70
    32
  0
VERTEX
  5
A1C
330
A0F
100
AcDbEntity
  8
MY3DLAYER
 48
0.1
100
AcDbVertex
100
AcDb3dPolylineVertex
 10
37.61223698349613
 20
49.64303624898803
 30
-0.4000195869744281
 70
    32
  0
VERTEX
  5
A1D
330
A0F
100
AcDbEntity
  8
MY3DLAYER
 48
0.1
100
AcDbVertex
100
AcDb3dPolylineVertex
 10
37.66400079251685
 20
49.63622141424591
 30
-0.4000195513698285
 70
    32
  0
VERTEX
  5
A1E
330
A0F
100
AcDbEntity
  8
MY3DLAYER
 48
0.1
100
AcDbVertex
100
AcDb3dPolylineVertex
 10
37.71576460153709
 20
49.64303624898815
 30
-0.4000195140127271
 70
    32
  0
VERTEX
  5
A1F
330
A0F
100
AcDbEntity
  8
MY3DLAYER
 48
0.1
100
AcDbVertex
100
AcDb3dPolylineVertex
 10
37.76400079251668
 20
49.66301633348924
 30
-0.400019477448626
 70
    32
  0
VERTEX
  5
A20
330
A0F
100
AcDbEntity
  8
MY3DLAYER
 48
0.1
100
AcDbVertex
100
AcDb3dPolylineVertex
 10
37.80542214875378
 20
49.69480005800898
 30
-0.400019444169627
 70
    32
  0
VERTEX
  5
A21
330
A0F
100
AcDbEntity
  8
MY3DLAYER
 48
0.1
100
AcDbVertex
100
AcDb3dPolylineVertex
 10
37.83720587327355
 20
49.73622141424613
 30
-0.4000194164436179
 70
    32
  0
VERTEX
  5
A22
330
A0F
100
AcDbEntity
  8
MY3DLAYER
 48
0.1
100
AcDbVertex
100
AcDb3dPolylineVertex
 10
37.85718595777431
 20
49.78445760522565
 30
-0.4000193961598879
 70
    32
  0
VERTEX
  5
A23
330
A0F
100
AcDbEntity
  8
MY3DLAYER
 48
0.1
100
AcDbVertex
100
AcDb3dPolylineVertex
 10
37.86400079251627
 20
49.83622141424622
 30
-0.400019384700776
 70
    32
  0
VERTEX
  5
A24
330
A0F
100
AcDbEntity
  8
MY3DLAYER
 48
0.1
100
AcDbVertex
100
AcDb3dPolylineVertex
 10
37.85718595777417
 20
49.88798522326686
 30
-0.4000193828474414
 70
    32
  0
VERTEX
  5
A25
330
A0F
100
AcDbEntity
  8
MY3DLAYER
 48
0.1
100
AcDbVertex
100
AcDb3dPolylineVertex
 10
37.83720587327303
 20
49.9362214142461
 30
-0.4000193907257883
 70
    32
  0
VERTEX
  5
A26
330
A0F
100
AcDbEntity
  8
MY3DLAYER
 48
0.1
100
AcDbVertex
100
AcDb3dPolylineVertex
 10
37.80542214875352
 20
49.97764277048343
 30
-0.4000194077992682
 70
    32
  0
VERTEX
  5
A27
330
A0F
100
AcDbEntity
  8
MY3DLAYER
 48
0.1
100
AcDbVertex
100
AcDb3dPolylineVertex
 10
37.76400079251622
 20
50.00942649500291
 30
-0.4000194329043748
 70
    32
  0
VERTEX
  5
A28
330
A0F
100
AcDbEntity
  8
MY3DLAYER
 48
0.1
100
AcDbVertex
100
AcDb3dPolylineVertex
 10
37.71576460153664
 20
50.02940657950379
 30
-0.4000194643298587
 70
    32
  0
SEQEND
  5
A29
330
A0F
100
AcDbEntity
  8
Group#92
 48
0.1
  0
POLYLINE
  5
A2A
330
70
100
AcDbEntity
  8
Group#92
 48
0.1
100
AcDb3dPolyline
 66
     1
 10
0.0
 20
0.0
 30
0.0
 70
     8
  0
VERTEX
  5
A2B
330
A2A
100
AcDbEntity
  8
MY3DLAYER
 48
0.1
100
AcDbVertex
100
AcDb3dPolylineVertex
 10
16.40543114416855
 20
50.96015251900169
 30
-0.4000343634043498
 70
    32
  0
VERTEX
  5
A2C
330
A2A
100
AcDbEntity
  8
MY3DLAYER
 48
0.1
100
AcDbVertex
100
AcDb3dPolylineVertex
 10
16.44356642662392
 20
50.98530690008638
 30
-0.4000343438534711
 70
    32
  0
VERTEX
  5
A2D
330
A2A
100
AcDbEntity
  8
MY3DLAYER
 48
0.1
100
AcDbVertex
100
AcDb3dPolylineVertex
 10
16.47389184794821
 20
51.01947430381012
 30
-0.4000343075282209
 70
    32
  0
VERTEX
  5
A2E
330
A2A
100
AcDbEntity
  8
MY3DLAYER
 48
0.1
100
AcDbVertex
100
AcDb3dPolylineVertex
 10
16.49434078079271
 20
51.06032627807367
 30
-0.4000342878634948
 70
    32
  0
VERTEX
  5
A2F
330
A2A
100
AcDbEntity
  8
MY3DLAYER
 48
0.1
100
AcDbVertex
100
AcDb3dPolylineVertex
 10
16.5035196641779
 20
51.10507882834196
 30
-0.4000342756399674
 70
    32
  0
VERTEX
  5
A30
330
A2A
100
AcDbEntity
  8
MY3DLAYER
 48
0.1
100
AcDbVertex
100
AcDb3dPolylineVertex
 10
16.5008029723697
 20
51.15068214227132
 30
-0.4000342716905233
 70
    32
  0
VERTEX
  5
A31
330
A2A
100
AcDbEntity
  8
MY3DLAYER
 48
0.1
100
AcDbVertex
100
AcDb3dPolylineVertex
 10
16.48637584342566
 20
51.19402842938024
 30
-0.4000342762843057
 70
    32
  0
VERTEX
  5
A32
330
A2A
100
AcDbEntity
  8
MY3DLAYER
 48
0.1
100
AcDbVertex
100
AcDb3dPolylineVertex
 10
16.46122146234109
 20
51.23216371183576
 30
-0.4000342891082575
 70
    32
  0
VERTEX
  5
A33
330
A2A
100
AcDbEntity
  8
MY3DLAYER
 48
0.1
100
AcDbVertex
100
AcDb3dPolylineVertex
 10
16.42705405861714
 20
51.26248913315988
 30
-0.4000343092884859
 70
    32
  0
VERTEX
  5
A34
330
A2A
100
AcDbEntity
  8
MY3DLAYER
 48
0.1
100
AcDbVertex
100
AcDb3dPolylineVertex
 10
16.38620208435351
 20
51.28293806600445
 30
-0.4000343354496799
 70
    32
  0
VERTEX
  5
A35
330
A2A
100
AcDbEntity
  8
MY3DLAYER
 48
0.1
100
AcDbVertex
100
AcDb3dPolylineVertex
 10
16.34144953408533
 20
51.29211694938975
 30
-0.4000343658090254
 70
    32
  0
VERTEX
  5
A36
330
A2A
100
AcDbEntity
  8
MY3DLAYER
 48
0.1
100
AcDbVertex
100
AcDb3dPolylineVertex
 10
16.29584622015595
 20
51.28940025758168
 30
-0.4000343982977305
 70
    32
  0
VERTEX
  5
A37
330
A2A
100
AcDbEntity
  8
MY3DLAYER
 48
0.1
100
AcDbVertex
100
AcDb3dPolylineVertex
 10
16.25249993304703
 20
51.27497312863741
 30
-0.4000344307013871
 70
    32
  0
VERTEX
  5
A38
330
A2A
100
AcDbEntity
  8
MY3DLAYER
 48
0.1
100
AcDbVertex
100
AcDb3dPolylineVertex
 10
16.21436465059143
 20
51.24981874755276
 30
-0.4000344502522566
 70
    32
  0
VERTEX
  5
A39
330
A2A
100
AcDbEntity
  8
MY3DLAYER
 48
0.1
100
AcDbVertex
100
AcDb3dPolylineVertex
 10
16.18403922926739
 20
51.21565134382889
 30
-0.4000344865777414
 70
    32
  0
VERTEX
  5
A3A
330
A2A
100
AcDbEntity
  8
MY3DLAYER
 48
0.1
100
AcDbVertex
100
AcDb3dPolylineVertex
 10
16.16359029642267
 20
51.17479936956542
 30
-0.4000345062422421
 70
    32
  0
VERTEX
  5
A3B
330
A2A
100
AcDbEntity
  8
MY3DLAYER
 48
0.1
100
AcDbVertex
100
AcDb3dPolylineVertex
 10
16.15441141303757
 20
51.13004681929708
 30
-0.4000345184657695
 70
    32
  0
VERTEX
  5
A3C
330
A2A
100
AcDbEntity
  8
MY3DLAYER
 48
0.1
100
AcDbVertex
100
AcDb3dPolylineVertex
 10
16.15712810484572
 20
51.08444350536778
 30
-0.4000345224153399
 70
    32
  0
VERTEX
  5
A3D
330
A2A
100
AcDbEntity
  8
MY3DLAYER
 48
0.1
100
AcDbVertex
100
AcDb3dPolylineVertex
 10
16.17155523378982
 20
51.04109721825872
 30
-0.4000345178214312
 70
    32
  0
VERTEX
  5
A3E
330
A2A
100
AcDbEntity
  8
MY3DLAYER
 48
0.1
100
AcDbVertex
100
AcDb3dPolylineVertex
 10
16.19670961487449
 20
51.00296193580321
 30
-0.4000345049975786
 70
    32
  0
VERTEX
  5
A3F
330
A2A
100
AcDbEntity
  8
MY3DLAYER
 48
0.1
100
AcDbVertex
100
AcDb3dPolylineVertex
 10
16.23087701859833
 20
50.97263651447926
 30
-0.4000344848173771
 70
    32
  0
VERTEX
  5
A40
330
A2A
100
AcDbEntity
  8
MY3DLAYER
 48
0.1
100
AcDbVertex
100
AcDb3dPolylineVertex
 10
16.27172899286186
 20
50.95218758163456
 30
-0.400034458656057
 70
    32
  0
VERTEX
  5
A41
330
A2A
100
AcDbEntity
  8
MY3DLAYER
 48
0.1
100
AcDbVertex
100
AcDb3dPolylineVertex
 10
16.31648154313037
 20
50.94300869824935
 30
-0.4000344282968018
 70
    32
  0
VERTEX
  5
A42
330
A2A
100
AcDbEntity
  8
MY3DLAYER
 48
0.1
100
AcDbVertex
100
AcDb3dPolylineVertex
 10
16.36208485705938
 20
50.94572539005742
 30
-0.400034395808223
 70
    32
  0
VERTEX
  5
A43
330
A2A
100
AcDbEntity
  8
MY3DLAYER
 48
0.1
100
AcDbVertex
100
AcDb3dPolylineVertex
 10
16.40543114416855
 20
50.96015251900169
 30
-0.4000343634043498
 70
    32
  0
SEQEND
  5
A44
330
A2A
100
AcDbEntity
  8
Group#92
 48
0.1
  0
POLYLINE
  5
A45
330
70
100
AcDbEntity
  8
Group#92
 48
0.1
100
AcDb3dPolyline
 66
     1
 10
0.0
 20
0.0
 30
0.0
 70
     8
  0
VERTEX
  5
A46
330
A45
100
AcDbEntity
  8
MY3DLAYER
 48
0.1
100
AcDbVertex
100
AcDb3dPolylineVertex
 10
19.49543113735235
 20
50.9601545236304
 30
-0.4000321851870239
 70
    32
  0
VERTEX
  5
A47
330
A45
100
AcDbEntity
  8
MY3DLAYER
 48
0.1
100
AcDbVertex
100
AcDb3dPolylineVertex
 10
19.53356642662243
 20
50.98530895647879
 30
-0.4000321656360323
 70
    32
  0
VERTEX
  5
A48
330
A45
100
AcDbEntity
  8
MY3DLAYER
 48
0.1
100
AcDbVertex
100
AcDb3dPolylineVertex
 10
19.56389184113188
 20
51.01947641196648
 30
-0.4000321293106514
 70
    32
  0
VERTEX
  5
A49
330
A45
100
AcDbEntity
  8
MY3DLAYER
 48
0.1
100
AcDbVertex
100
AcDb3dPolylineVertex
 10
19.58434075399621
 20
51.0603284344662
 30
-0.4000321096460378
 70
    32
  0
VERTEX
  5
A4A
330
A45
100
AcDbEntity
  8
MY3DLAYER
 48
0.1
100
AcDbVertex
100
AcDb3dPolylineVertex
 10
19.59351960559764
 20
51.10508102615582
 30
-0.4000320974224234
 70
    32
  0
VERTEX
  5
A4B
330
A45
100
AcDbEntity
  8
MY3DLAYER
 48
0.1
100
AcDbVertex
100
AcDb3dPolylineVertex
 10
19.5908028723682
 20
51.15068437186886
 30
-0.400032093473088
 70
    32
  0
VERTEX
  5
A4C
330
A45
100
AcDbEntity
  8
MY3DLAYER
 48
0.1
100
AcDbVertex
100
AcDb3dPolylineVertex
 10
19.57637569518795
 20
51.19403067895787
 30
-0.4000320980670199
 70
    32
  0
VERTEX
  5
A4D
330
A45
100
AcDbEntity
  8
MY3DLAYER
 48
0.1
100
AcDbVertex
100
AcDb3dPolylineVertex
 10
19.55122126233922
 20
51.23216596822814
 30
-0.4000321108910243
 70
    32
  0
VERTEX
  5
A4E
330
A45
100
AcDbEntity
  8
MY3DLAYER
 48
0.1
100
AcDbVertex
100
AcDb3dPolylineVertex
 10
19.51705380685168
 20
51.26249138273748
 30
-0.4000321310711518
 70
    32
  0
VERTEX
  5
A4F
330
A45
100
AcDbEntity
  8
MY3DLAYER
 48
0.1
100
AcDbVertex
100
AcDb3dPolylineVertex
 10
19.47620178435186
 20
51.28294029560183
 30
-0.4000321572324048
 70
    32
  0
VERTEX
  5
A50
330
A45
100
AcDbEntity
  8
MY3DLAYER
 48
0.1
100
AcDbVertex
100
AcDb3dPolylineVertex
 10
19.43144919266239
 20
51.29211914720342
 30
-0.4000321875917958
 70
    32
  0
VERTEX
  5
A51
330
A45
100
AcDbEntity
  8
MY3DLAYER
 48
0.1
100
AcDbVertex
100
AcDb3dPolylineVertex
 10
19.38584584694931
 20
51.28940241397396
 30
-0.4000322200805132
 70
    32
  0
VERTEX
  5
A52
330
A45
100
AcDbEntity
  8
MY3DLAYER
 48
0.1
100
AcDbVertex
100
AcDb3dPolylineVertex
 10
19.34249953986032
 20
51.27497523679349
 30
-0.4000322524841919
 70
    32
  0
VERTEX
  5
A53
330
A45
100
AcDbEntity
  8
MY3DLAYER
 48
0.1
100
AcDbVertex
100
AcDb3dPolylineVertex
 10
19.30436425058992
 20
51.24982080394501
 30
-0.400032272035075
 70
    32
  0
VERTEX
  5
A54
330
A45
100
AcDbEntity
  8
MY3DLAYER
 48
0.1
100
AcDbVertex
100
AcDb3dPolylineVertex
 10
19.27403883608078
 20
51.21565334845744
 30
-0.4000323083604651
 70
    32
  0
VERTEX
  5
A55
330
A45
100
AcDbEntity
  8
MY3DLAYER
 48
0.1
100
AcDbVertex
100
AcDb3dPolylineVertex
 10
19.25358992321628
 20
51.17480132595769
 30
-0.4000323280250785
 70
    32
  0
VERTEX
  5
A56
330
A45
100
AcDbEntity
  8
MY3DLAYER
 48
0.1
100
AcDbVertex
100
AcDb3dPolylineVertex
 10
19.24441107161483
 20
51.130048734268
 30
-0.4000323402486933
 70
    32
  0
VERTEX
  5
A57
330
A45
100
AcDbEntity
  8
MY3DLAYER
 48
0.1
100
AcDbVertex
100
AcDb3dPolylineVertex
 10
19.24712780484432
 20
51.08444538855504
 30
-0.4000323441980103
 70
    32
  0
VERTEX
  5
A58
330
A45
100
AcDbEntity
  8
MY3DLAYER
 48
0.1
100
AcDbVertex
100
AcDb3dPolylineVertex
 10
19.26155498202456
 20
51.04109908146591
 30
-0.4000323396042229
 70
    32
  0
VERTEX
  5
A59
330
A45
100
AcDbEntity
  8
MY3DLAYER
 48
0.1
100
AcDbVertex
100
AcDb3dPolylineVertex
 10
19.28670941487312
 20
51.00296379219564
 30
-0.4000323267801825
 70
    32
  0
VERTEX
  5
A5A
330
A45
100
AcDbEntity
  8
MY3DLAYER
 48
0.1
100
AcDbVertex
100
AcDb3dPolylineVertex
 10
19.32087687036081
 20
50.97263837768642
 30
-0.4000323065999649
 70
    32
  0
VERTEX
  5
A5B
330
A45
100
AcDbEntity
  8
MY3DLAYER
 48
0.1
100
AcDbVertex
100
AcDb3dPolylineVertex
 10
19.36172889286061
 20
50.95218946482195
 30
-0.4000322804387027
 70
    32
  0
VERTEX
  5
A5C
330
A45
100
AcDbEntity
  8
MY3DLAYER
 48
0.1
100
AcDbVertex
100
AcDb3dPolylineVertex
 10
19.4064814845501
 20
50.94301061322049
 30
-0.4000322500793116
 70
    32
  0
VERTEX
  5
A5D
330
A45
100
AcDbEntity
  8
MY3DLAYER
 48
0.1
100
AcDbVertex
100
AcDb3dPolylineVertex
 10
19.45208483026306
 20
50.94572734644995
 30
-0.400032217590793
 70
    32
  0
VERTEX
  5
A5E
330
A45
100
AcDbEntity
  8
MY3DLAYER
 48
0.1
100
AcDbVertex
100
AcDb3dPolylineVertex
 10
19.49543113735235
 20
50.9601545236304
 30
-0.4000321851870239
 70
    32
  0
SEQEND
  5
A5F
330
A45
100
AcDbEntity
  8
Group#92
 48
0.1
  0
POLYLINE
  5
A60
330
70
100
AcDbEntity
  8
Group#92
 48
0.1
100
AcDb3dPolyline
 66
     1
 10
0.0
 20
0.0
 30
0.0
 70
     8
  0
VERTEX
  5
A61
330
A60
100
AcDbEntity
  8
MY3DLAYER
 48
0.1
100
AcDbVertex
100
AcDb3dPolylineVertex
 10
16.40543318762038
 20
47.87015242070603
 30
-0.400034760957908
 70
    32
  0
VERTEX
  5
A62
330
A60
100
AcDbEntity
  8
MY3DLAYER
 48
0.1
100
AcDbVertex
100
AcDb3dPolylineVertex
 10
16.44356848301673
 20
47.895306800087
 30
-0.4000347414069395
 70
    32
  0
VERTEX
  5
A63
330
A60
100
AcDbEntity
  8
MY3DLAYER
 48
0.1
100
AcDbVertex
100
AcDb3dPolylineVertex
 10
16.47389391728178
 20
47.92947420551452
 30
-0.4000347050816718
 70
    32
  0
VERTEX
  5
A64
330
A60
100
AcDbEntity
  8
MY3DLAYER
 48
0.1
100
AcDbVertex
100
AcDb3dPolylineVertex
 10
16.49434286218552
 20
47.97032618477309
 30
-0.4000346854170278
 70
    32
  0
VERTEX
  5
A65
330
A60
100
AcDbEntity
  8
MY3DLAYER
 48
0.1
100
AcDbVertex
100
AcDb3dPolylineVertex
 10
16.50352175592606
 20
48.01507874298732
 30
-0.4000346731934933
 70
    32
  0
VERTEX
  5
A66
330
A60
100
AcDbEntity
  8
MY3DLAYER
 48
0.1
100
AcDbVertex
100
AcDb3dPolylineVertex
 10
16.50080507206389
 20
48.06068206727194
 30
-0.4000346692440349
 70
    32
  0
VERTEX
  5
A67
330
A60
100
AcDbEntity
  8
MY3DLAYER
 48
0.1
100
AcDbVertex
100
AcDb3dPolylineVertex
 10
16.48637794811476
 20
48.10402836643998
 30
-0.400034673837787
 70
    32
  0
VERTEX
  5
A68
330
A60
100
AcDbEntity
  8
MY3DLAYER
 48
0.1
100
AcDbVertex
100
AcDb3dPolylineVertex
 10
16.46122356873371
 20
48.14216366183642
 30
-0.4000346866617467
 70
    32
  0
VERTEX
  5
A69
330
A60
100
AcDbEntity
  8
MY3DLAYER
 48
0.1
100
AcDbVertex
100
AcDb3dPolylineVertex
 10
16.42705616330627
 20
48.17248909610158
 30
-0.4000347068420755
 70
    32
  0
VERTEX
  5
A6A
330
A60
100
AcDbEntity
  8
MY3DLAYER
 48
0.1
100
AcDbVertex
100
AcDb3dPolylineVertex
 10
16.38620418404757
 20
48.19293804100512
 30
-0.4000347330031915
 70
    32
  0
VERTEX
  5
A6B
330
A60
100
AcDbEntity
  8
MY3DLAYER
 48
0.1
100
AcDbVertex
100
AcDb3dPolylineVertex
 10
16.34145162583351
 20
48.20211693474568
 30
-0.4000347633625513
 70
    32
  0
VERTEX
  5
A6C
330
A60
100
AcDbEntity
  8
MY3DLAYER
 48
0.1
100
AcDbVertex
100
AcDb3dPolylineVertex
 10
16.29584830154878
 20
48.19940025088355
 30
-0.4000347958512453
 70
    32
  0
VERTEX
  5
A6D
330
A60
100
AcDbEntity
  8
MY3DLAYER
 48
0.1
100
AcDbVertex
100
AcDb3dPolylineVertex
 10
16.25250200238084
 20
48.18497312693438
 30
-0.4000348282550092
 70
    32
  0
VERTEX
  5
A6E
330
A60
100
AcDbEntity
  8
MY3DLAYER
 48
0.1
100
AcDbVertex
100
AcDb3dPolylineVertex
 10
16.21436670698428
 20
48.15981874755343
 30
-0.4000348478058152
 70
    32
  0
VERTEX
  5
A6F
330
A60
100
AcDbEntity
  8
MY3DLAYER
 48
0.1
100
AcDbVertex
100
AcDb3dPolylineVertex
 10
16.18404127271931
 20
48.12565134212596
 30
-0.4000348841312726
 70
    32
  0
VERTEX
  5
A70
330
A60
100
AcDbEntity
  8
MY3DLAYER
 48
0.1
100
AcDbVertex
100
AcDb3dPolylineVertex
 10
16.16359232781551
 20
48.0847993628673
 30
-0.4000349037957722
 70
    32
  0
VERTEX
  5
A71
330
A60
100
AcDbEntity
  8
MY3DLAYER
 48
0.1
100
AcDbVertex
100
AcDb3dPolylineVertex
 10
16.15441343407528
 20
48.0400468046531
 30
-0.4000349160193247
 70
    32
  0
VERTEX
  5
A72
330
A60
100
AcDbEntity
  8
MY3DLAYER
 48
0.1
100
AcDbVertex
100
AcDb3dPolylineVertex
 10
16.1571301179371
 20
47.99444348036848
 30
-0.4000349199689092
 70
    32
  0
VERTEX
  5
A73
330
A60
100
AcDbEntity
  8
MY3DLAYER
 48
0.1
100
AcDbVertex
100
AcDb3dPolylineVertex
 10
16.17155724188625
 20
47.95109718120037
 30
-0.4000349153750217
 70
    32
  0
VERTEX
  5
A74
330
A60
100
AcDbEntity
  8
MY3DLAYER
 48
0.1
100
AcDbVertex
100
AcDb3dPolylineVertex
 10
16.1967116212673
 20
47.91296188580395
 30
-0.4000349025510532
 70
    32
  0
VERTEX
  5
A75
330
A60
100
AcDbEntity
  8
MY3DLAYER
 48
0.1
100
AcDbVertex
100
AcDb3dPolylineVertex
 10
16.23087902669488
 20
47.88263645153892
 30
-0.4000348823708686
 70
    32
  0
VERTEX
  5
A76
330
A60
100
AcDbEntity
  8
MY3DLAYER
 48
0.1
100
AcDbVertex
100
AcDb3dPolylineVertex
 10
16.27173100595341
 20
47.86218750663528
 30
-0.4000348562097346
 70
    32
  0
VERTEX
  5
A77
330
A60
100
AcDbEntity
  8
MY3DLAYER
 48
0.1
100
AcDbVertex
100
AcDb3dPolylineVertex
 10
16.31648356416785
 20
47.85300861289471
 30
-0.4000348258503748
 70
    32
  0
VERTEX
  5
A78
330
A60
100
AcDbEntity
  8
MY3DLAYER
 48
0.1
100
AcDbVertex
100
AcDb3dPolylineVertex
 10
16.36208688845221
 20
47.85572529675687
 30
-0.4000347933617892
 70
    32
  0
VERTEX
  5
A79
330
A60
100
AcDbEntity
  8
MY3DLAYER
 48
0.1
100
AcDbVertex
100
AcDb3dPolylineVertex
 10
16.40543318762038
 20
47.87015242070603
 30
-0.400034760957908
 70
    32
  0
SEQEND
  5
A7A
330
A60
100
AcDbEntity
  8
Group#92
 48
0.1
  0
POLYLINE
  5
A7B
330
70
100
AcDbEntity
  8
Group#92
 48
0.1
100
AcDb3dPolyline
 66
     1
 10
0.0
 20
0.0
 30
0.0
 70
     8
  0
VERTEX
  5
A7C
330
A7B
100
AcDbEntity
  8
MY3DLAYER
 48
0.1
100
AcDbVertex
100
AcDb3dPolylineVertex
 10
19.34250160919421
 20
48.18497523509045
 30
-0.4000326499963312
 70
    32
  0
VERTEX
  5
A7D
330
A7B
100
AcDbEntity
  8
MY3DLAYER
 48
0.1
100
AcDbVertex
100
AcDb3dPolylineVertex
 10
19.30436630698288
 20
48.15982080394569
 30
-0.4000326695472502
 70
    32
  0
VERTEX
  5
A7E
330
A7B
100
AcDbEntity
  8
MY3DLAYER
 48
0.1
100
AcDbVertex
100
AcDb3dPolylineVertex
 10
19.27404087953277
 20
48.12565334675433
 30
-0.4000327058727209
 70
    32
  0
VERTEX
  5
A7F
330
A7B
100
AcDbEntity
  8
MY3DLAYER
 48
0.1
100
AcDbVertex
100
AcDb3dPolylineVertex
 10
19.25359195460917
 20
48.08480131925958
 30
-0.4000327255373606
 70
    32
  0
VERTEX
  5
A80
330
A7B
100
AcDbEntity
  8
MY3DLAYER
 48
0.1
100
AcDbVertex
100
AcDb3dPolylineVertex
 10
19.24441309265264
 20
48.04004871962404
 30
-0.4000327377607925
 70
    32
  0
VERTEX
  5
A81
330
A7B
100
AcDbEntity
  8
MY3DLAYER
 48
0.1
100
AcDbVertex
100
AcDb3dPolylineVertex
 10
19.24712981793618
 20
47.99444536355574
 30
-0.4000327417102141
 70
    32
  0
VERTEX
  5
A82
330
A7B
100
AcDbEntity
  8
MY3DLAYER
 48
0.1
100
AcDbVertex
100
AcDb3dPolylineVertex
 10
19.26155699012137
 20
47.95109904440756
 30
-0.4000327371165203
 70
    32
  0
VERTEX
  5
A83
330
A7B
100
AcDbEntity
  8
MY3DLAYER
 48
0.1
100
AcDbVertex
100
AcDb3dPolylineVertex
 10
19.28671142126605
 20
47.91296374219635
 30
-0.4000327242923908
 70
    32
  0
VERTEX
  5
A84
330
A7B
100
AcDbEntity
  8
MY3DLAYER
 48
0.1
100
AcDbVertex
100
AcDb3dPolylineVertex
 10
19.32087887845764
 20
47.88263831474615
 30
-0.4000327041121447
 70
    32
  0
VERTEX
  5
A85
330
A7B
100
AcDbEntity
  8
MY3DLAYER
 48
0.1
100
AcDbVertex
100
AcDb3dPolylineVertex
 10
19.36173090595228
 20
47.86218938982268
 30
-0.4000326779509064
 70
    32
  0
VERTEX
  5
A86
330
A7B
100
AcDbEntity
  8
MY3DLAYER
 48
0.1
100
AcDbVertex
100
AcDb3dPolylineVertex
 10
19.40648350558767
 20
47.85301052786583
 30
-0.4000326475915192
 70
    32
  0
VERTEX
  5
A87
330
A7B
100
AcDbEntity
  8
MY3DLAYER
 48
0.1
100
AcDbVertex
100
AcDb3dPolylineVertex
 10
19.45208686165596
 20
47.85572725314937
 30
-0.4000326151028762
 70
    32
  0
VERTEX
  5
A88
330
A7B
100
AcDbEntity
  8
MY3DLAYER
 48
0.1
100
AcDbVertex
100
AcDb3dPolylineVertex
 10
19.49543318080413
 20
47.87015442533472
 30
-0.4000325826990991
 70
    32
  0
VERTEX
  5
A89
330
A7B
100
AcDbEntity
  8
MY3DLAYER
 48
0.1
100
AcDbVertex
100
AcDb3dPolylineVertex
 10
19.53356848301518
 20
47.8953088564795
 30
-0.4000325631482345
 70
    32
  0
VERTEX
  5
A8A
330
A7B
100
AcDbEntity
  8
MY3DLAYER
 48
0.1
100
AcDbVertex
100
AcDb3dPolylineVertex
 10
19.56389391046549
 20
47.92947631367087
 30
-0.4000325268228357
 70
    32
  0
VERTEX
  5
A8B
330
A7B
100
AcDbEntity
  8
MY3DLAYER
 48
0.1
100
AcDbVertex
100
AcDb3dPolylineVertex
 10
19.58434283538888
 20
47.9703283411656
 30
-0.4000325071582143
 70
    32
  0
VERTEX
  5
A8C
330
A7B
100
AcDbEntity
  8
MY3DLAYER
 48
0.1
100
AcDbVertex
100
AcDb3dPolylineVertex
 10
19.59352169734591
 20
48.01508094080112
 30
-0.4000324949345839
 70
    32
  0
VERTEX
  5
A8D
330
A7B
100
AcDbEntity
  8
MY3DLAYER
 48
0.1
100
AcDbVertex
100
AcDb3dPolylineVertex
 10
19.59080497206239
 20
48.06068429686947
 30
-0.4000324909852432
 70
    32
  0
VERTEX
  5
A8E
330
A7B
100
AcDbEntity
  8
MY3DLAYER
 48
0.1
100
AcDbVertex
100
AcDb3dPolylineVertex
 10
19.57637779987717
 20
48.10403061601757
 30
-0.4000324955790635
 70
    32
  0
VERTEX
  5
A8F
330
A7B
100
AcDbEntity
  8
MY3DLAYER
 48
0.1
100
AcDbVertex
100
AcDb3dPolylineVertex
 10
19.55122336873218
 20
48.14216591822878
 30
-0.400032508403157
 70
    32
  0
VERTEX
  5
A90
330
A7B
100
AcDbEntity
  8
MY3DLAYER
 48
0.1
100
AcDbVertex
100
AcDb3dPolylineVertex
 10
19.51705591154091
 20
48.1724913456792
 30
-0.4000325285832855
 70
    32
  0
VERTEX
  5
A91
330
A7B
100
AcDbEntity
  8
MY3DLAYER
 48
0.1
100
AcDbVertex
100
AcDb3dPolylineVertex
 10
19.47620388404628
 20
48.19294027060252
 30
-0.4000325547446593
 70
    32
  0
VERTEX
  5
A92
330
A7B
100
AcDbEntity
  8
MY3DLAYER
 48
0.1
100
AcDbVertex
100
AcDb3dPolylineVertex
 10
19.43145128441049
 20
48.20211913255943
 30
-0.4000325851039653
 70
    32
  0
VERTEX
  5
A93
330
A7B
100
AcDbEntity
  8
MY3DLAYER
 48
0.1
100
AcDbVertex
100
AcDb3dPolylineVertex
 10
19.38584792834227
 20
48.19940240727581
 30
-0.4000326175925541
 70
    32
  0
VERTEX
  5
A94
330
A7B
100
AcDbEntity
  8
MY3DLAYER
 48
0.1
100
AcDbVertex
100
AcDb3dPolylineVertex
 10
19.34250160919421
 20
48.18497523509045
 30
-0.4000326499963312
 70
    32
  0
SEQEND
  5
A95
330
A7B
100
AcDbEntity
  8
Group#92
 48
0.1
  0
POLYLINE
  5
A96
330
70
100
AcDbEntity
  8
Group#92
 48
0.1
100
AcDb3dPolyline
 66
     1
 10
0.0
 20
0.0
 30
0.0
 70
     8
  0
VERTEX
  5
A97
330
A96
100
AcDbEntity
  8
MY3DLAYER
 48
0.1
100
AcDbVertex
100
AcDb3dPolylineVertex
 10
23.39668067120191
 20
50.9880762716202
 30
-0.400029433166599
 70
    32
  0
VERTEX
  5
A98
330
A96
100
AcDbEntity
  8
MY3DLAYER
 48
0.1
100
AcDbVertex
100
AcDb3dPolylineVertex
 10
23.42618440126467
 20
51.02295554653281
 30
-0.4000294180039661
 70
    32
  0
VERTEX
  5
A99
330
A96
100
AcDbEntity
  8
MY3DLAYER
 48
0.1
100
AcDbVertex
100
AcDb3dPolylineVertex
 10
23.44565539547728
 20
51.0642824662148
 30
-0.4000293888520867
 70
    32
  0
VERTEX
  5
A9A
330
A96
100
AcDbEntity
  8
MY3DLAYER
 48
0.1
100
AcDbVertex
100
AcDb3dPolylineVertex
 10
23.45376673776168
 20
51.10924066938597
 30
-0.4000293773543691
 70
    32
  0
VERTEX
  5
A9B
330
A96
100
AcDbEntity
  8
MY3DLAYER
 48
0.1
100
AcDbVertex
100
AcDb3dPolylineVertex
 10
23.44996565354579
 20
51.15476632879699
 30
-0.4000293741791355
 70
    32
  0
VERTEX
  5
A9C
330
A96
100
AcDbEntity
  8
MY3DLAYER
 48
0.1
100
AcDbVertex
100
AcDb3dPolylineVertex
 10
23.43451118043742
 20
51.19775694599393
 30
-0.4000293795427888
 70
    32
  0
VERTEX
  5
A9D
330
A96
100
AcDbEntity
  8
MY3DLAYER
 48
0.1
100
AcDbVertex
100
AcDb3dPolylineVertex
 10
23.4084565152391
 20
51.23528278146006
 30
-0.4000293930794893
 70
    32
  0
VERTEX
  5
A9E
330
A96
100
AcDbEntity
  8
MY3DLAYER
 48
0.1
100
AcDbVertex
100
AcDb3dPolylineVertex
 10
23.37357724032637
 20
51.26478651152278
 30
-0.4000294138670471
 70
    32
  0
VERTEX
  5
A9F
330
A96
100
AcDbEntity
  8
MY3DLAYER
 48
0.1
100
AcDbVertex
100
AcDb3dPolylineVertex
 10
23.33225032064429
 20
51.28425750573544
 30
-0.400029440488849
 70
    32
  0
VERTEX
  5
AA0
330
A96
100
AcDbEntity
  8
MY3DLAYER
 48
0.1
100
AcDbVertex
100
AcDb3dPolylineVertex
 10
23.28729211747321
 20
51.29236884801997
 30
-0.4000294711303233
 70
    32
  0
VERTEX
  5
AA1
330
A96
100
AcDbEntity
  8
MY3DLAYER
 48
0.1
100
AcDbVertex
100
AcDb3dPolylineVertex
 10
23.24176645806228
 20
51.28856776380398
 30
-0.4000295037037151
 70
    32
  0
VERTEX
  5
AA2
330
A96
100
AcDbEntity
  8
MY3DLAYER
 48
0.1
100
AcDbVertex
100
AcDb3dPolylineVertex
 10
23.19877584086519
 20
51.27311329069552
 30
-0.4000295359887199
 70
    32
  0
VERTEX
  5
AA3
330
A96
100
AcDbEntity
  8
MY3DLAYER
 48
0.1
100
AcDbVertex
100
AcDb3dPolylineVertex
 10
23.16125000539929
 20
51.24705862549707
 30
-0.4000295657856381
 70
    32
  0
VERTEX
  5
AA4
330
A96
100
AcDbEntity
  8
MY3DLAYER
 48
0.1
100
AcDbVertex
100
AcDb3dPolylineVertex
 10
23.13174627533635
 20
51.21217935058457
 30
-0.4000295809483702
 70
    32
  0
VERTEX
  5
AA5
330
A96
100
AcDbEntity
  8
MY3DLAYER
 48
0.1
100
AcDbVertex
100
AcDb3dPolylineVertex
 10
23.11227528112369
 20
51.17085243090255
 30
-0.4000296101003488
 70
    32
  0
VERTEX
  5
AA6
330
A96
100
AcDbEntity
  8
MY3DLAYER
 48
0.1
100
AcDbVertex
100
AcDb3dPolylineVertex
 10
23.10416393883933
 20
51.1258942277314
 30
-0.400029621597868
 70
    32
  0
VERTEX
  5
AA7
330
A96
100
AcDbEntity
  8
MY3DLAYER
 48
0.1
100
AcDbVertex
100
AcDb3dPolylineVertex
 10
23.10796502305521
 20
51.08036856832026
 30
-0.4000296247732189
 70
    32
  0
VERTEX
  5
AA8
330
A96
100
AcDbEntity
  8
MY3DLAYER
 48
0.1
100
AcDbVertex
100
AcDb3dPolylineVertex
 10
23.12341949616366
 20
51.03737795112333
 30
-0.4000296194095658
 70
    32
  0
VERTEX
  5
AA9
330
A96
100
AcDbEntity
  8
MY3DLAYER
 48
0.1
100
AcDbVertex
100
AcDb3dPolylineVertex
 10
23.14947416136207
 20
50.99985211565718
 30
-0.4000296058727389
 70
    32
  0
VERTEX
  5
AAA
330
A96
100
AcDbEntity
  8
MY3DLAYER
 48
0.1
100
AcDbVertex
100
AcDb3dPolylineVertex
 10
23.1843534362747
 20
50.97034838559451
 30
-0.4000295850851899
 70
    32
  0
VERTEX
  5
AAB
330
A96
100
AcDbEntity
  8
MY3DLAYER
 48
0.1
100
AcDbVertex
100
AcDb3dPolylineVertex
 10
23.22568035595663
 20
50.95087739138183
 30
-0.4000295584634782
 70
    32
  0
VERTEX
  5
AAC
330
A96
100
AcDbEntity
  8
MY3DLAYER
 48
0.1
100
AcDbVertex
100
AcDb3dPolylineVertex
 10
23.27063855912786
 20
50.9427660490975
 30
-0.4000295278219049
 70
    32
  0
VERTEX
  5
AAD
330
A96
100
AcDbEntity
  8
MY3DLAYER
 48
0.1
100
AcDbVertex
100
AcDb3dPolylineVertex
 10
23.31616421853885
 20
50.94656713331328
 30
-0.4000294952487205
 70
    32
  0
VERTEX
  5
AAE
330
A96
100
AcDbEntity
  8
MY3DLAYER
 48
0.1
100
AcDbVertex
100
AcDb3dPolylineVertex
 10
23.35915483573579
 20
50.96202160642175
 30
-0.4000294629635171
 70
    32
  0
VERTEX
  5
AAF
330
A96
100
AcDbEntity
  8
MY3DLAYER
 48
0.1
100
AcDbVertex
100
AcDb3dPolylineVertex
 10
23.39668067120191
 20
50.9880762716202
 30
-0.400029433166599
 70
    32
  0
SEQEND
  5
AB0
330
A96
100
AcDbEntity
  8
Group#92
 48
0.1
  0
POLYLINE
  5
AB1
330
70
100
AcDbEntity
  8
Group#92
 48
0.1
100
AcDb3dPolyline
 66
     1
 10
0.0
 20
0.0
 30
0.0
 70
     8
  0
VERTEX
  5
AB2
330
AB1
100
AcDbEntity
  8
MY3DLAYER
 48
0.1
100
AcDbVertex
100
AcDb3dPolylineVertex
 10
23.20250160919048
 20
48.18497780391571
 30
-0.4000299301810856
 70
    32
  0
VERTEX
  5
AB3
330
AB1
100
AcDbEntity
  8
MY3DLAYER
 48
0.1
100
AcDbVertex
100
AcDb3dPolylineVertex
 10
23.16436630697943
 20
48.15982337277095
 30
-0.4000299497318149
 70
    32
  0
VERTEX
  5
AB4
330
AB1
100
AcDbEntity
  8
MY3DLAYER
 48
0.1
100
AcDbVertex
100
AcDb3dPolylineVertex
 10
23.13404087952906
 20
48.12565591557959
 30
-0.4000299860572496
 70
    32
  0
VERTEX
  5
AB5
330
AB1
100
AcDbEntity
  8
MY3DLAYER
 48
0.1
100
AcDbVertex
100
AcDb3dPolylineVertex
 10
23.11359195460552
 20
48.08480388808483
 30
-0.4000300057218712
 70
    32
  0
VERTEX
  5
AB6
330
AB1
100
AcDbEntity
  8
MY3DLAYER
 48
0.1
100
AcDbVertex
100
AcDb3dPolylineVertex
 10
23.10441309264886
 20
48.04005128844927
 30
-0.4000300179454205
 70
    32
  0
VERTEX
  5
AB7
330
AB1
100
AcDbEntity
  8
MY3DLAYER
 48
0.1
100
AcDbVertex
100
AcDb3dPolylineVertex
 10
23.10712981793235
 20
47.99444793238097
 30
-0.4000300218949504
 70
    32
  0
VERTEX
  5
AB8
330
AB1
100
AcDbEntity
  8
MY3DLAYER
 48
0.1
100
AcDbVertex
100
AcDb3dPolylineVertex
 10
23.1215569901176
 20
47.95110161323278
 30
-0.4000300173011303
 70
    32
  0
VERTEX
  5
AB9
330
AB1
100
AcDbEntity
  8
MY3DLAYER
 48
0.1
100
AcDbVertex
100
AcDb3dPolylineVertex
 10
23.14671142126238
 20
47.91296631102154
 30
-0.4000300044770276
 70
    32
  0
VERTEX
  5
ABA
330
AB1
100
AcDbEntity
  8
MY3DLAYER
 48
0.1
100
AcDbVertex
100
AcDb3dPolylineVertex
 10
23.18087887845381
 20
47.88264088357138
 30
-0.40002998429689
 70
    32
  0
VERTEX
  5
ABB
330
AB1
100
AcDbEntity
  8
MY3DLAYER
 48
0.1
100
AcDbVertex
100
AcDb3dPolylineVertex
 10
23.22173090594866
 20
47.86219195864783
 30
-0.4000299581355253
 70
    32
  0
VERTEX
  5
ABC
330
AB1
100
AcDbEntity
  8
MY3DLAYER
 48
0.1
100
AcDbVertex
100
AcDb3dPolylineVertex
 10
23.26648350558411
 20
47.85301309669104
 30
-0.4000299277761381
 70
    32
  0
VERTEX
  5
ABD
330
AB1
100
AcDbEntity
  8
MY3DLAYER
 48
0.1
100
AcDbVertex
100
AcDb3dPolylineVertex
 10
23.31208686165231
 20
47.85572982197455
 30
-0.4000298952876124
 70
    32
  0
VERTEX
  5
ABE
330
AB1
100
AcDbEntity
  8
MY3DLAYER
 48
0.1
100
AcDbVertex
100
AcDb3dPolylineVertex
 10
23.35543318080048
 20
47.87015699415987
 30
-0.4000298628837181
 70
    32
  0
VERTEX
  5
ABF
330
AB1
100
AcDbEntity
  8
MY3DLAYER
 48
0.1
100
AcDbVertex
100
AcDb3dPolylineVertex
 10
23.39356848301169
 20
47.89531142530465
 30
-0.4000298433327902
 70
    32
  0
VERTEX
  5
AC0
330
AB1
100
AcDbEntity
  8
MY3DLAYER
 48
0.1
100
AcDbVertex
100
AcDb3dPolylineVertex
 10
23.42389391046191
 20
47.92947888249599
 30
-0.4000298070074639
 70
    32
  0
VERTEX
  5
AC1
330
AB1
100
AcDbEntity
  8
MY3DLAYER
 48
0.1
100
AcDbVertex
100
AcDb3dPolylineVertex
 10
23.44434283538538
 20
47.97033090999079
 30
-0.4000297873428422
 70
    32
  0
VERTEX
  5
AC2
330
AB1
100
AcDbEntity
  8
MY3DLAYER
 48
0.1
100
AcDbVertex
100
AcDb3dPolylineVertex
 10
23.45352169734221
 20
48.01508350962639
 30
-0.4000297751193111
 70
    32
  0
VERTEX
  5
AC3
330
AB1
100
AcDbEntity
  8
MY3DLAYER
 48
0.1
100
AcDbVertex
100
AcDb3dPolylineVertex
 10
23.45080497205871
 20
48.06068686569464
 30
-0.4000297711699794
 70
    32
  0
VERTEX
  5
AC4
330
AB1
100
AcDbEntity
  8
MY3DLAYER
 48
0.1
100
AcDbVertex
100
AcDb3dPolylineVertex
 10
23.43637779987346
 20
48.10403318484278
 30
-0.4000297757636914
 70
    32
  0
VERTEX
  5
AC5
330
AB1
100
AcDbEntity
  8
MY3DLAYER
 48
0.1
100
AcDbVertex
100
AcDb3dPolylineVertex
 10
23.4112233687287
 20
48.14216848705402
 30
-0.4000297885876766
 70
    32
  0
VERTEX
  5
AC6
330
AB1
100
AcDbEntity
  8
MY3DLAYER
 48
0.1
100
AcDbVertex
100
AcDb3dPolylineVertex
 10
23.37705591153721
 20
48.17249391450424
 30
-0.4000298087680309
 70
    32
  0
VERTEX
  5
AC7
330
AB1
100
AcDbEntity
  8
MY3DLAYER
 48
0.1
100
AcDbVertex
100
AcDb3dPolylineVertex
 10
23.33620388404261
 20
48.19294283942776
 30
-0.400029834929179
 70
    32
  0
VERTEX
  5
AC8
330
AB1
100
AcDbEntity
  8
MY3DLAYER
 48
0.1
100
AcDbVertex
100
AcDb3dPolylineVertex
 10
23.29145128440698
 20
48.2021217013846
 30
-0.400029865288485
 70
    32
  0
VERTEX
  5
AC9
330
AB1
100
AcDbEntity
  8
MY3DLAYER
 48
0.1
100
AcDbVertex
100
AcDb3dPolylineVertex
 10
23.24584792833865
 20
48.19940497610108
 30
-0.4000298977771911
 70
    32
  0
VERTEX
  5
ACA
330
AB1
100
AcDbEntity
  8
MY3DLAYER
 48
0.1
100
AcDbVertex
100
AcDb3dPolylineVertex
 10
23.20250160919048
 20
48.18497780391571
 30
-0.4000299301810856
 70
    32
  0
SEQEND
  5
ACB
330
AB1
100
AcDbEntity
  8
Group#92
 48
0.1
  0
POLYLINE
  5
ACC
330
70
100
AcDbEntity
  8
Group#92
 48
0.1
100
AcDb3dPolyline
 66
     1
 10
0.0
 20
0.0
 30
0.0
 70
     8
  0
VERTEX
  5
ACD
330
ACC
100
AcDbEntity
  8
MY3DLAYER
 48
0.1
100
AcDbVertex
100
AcDb3dPolylineVertex
 10
26.48668096608967
 20
50.98807828918846
 30
-0.4000272556122199
 70
    32
  0
VERTEX
  5
ACE
330
ACC
100
AcDbEntity
  8
MY3DLAYER
 48
0.1
100
AcDbVertex
100
AcDb3dPolylineVertex
 10
26.51618470126324
 20
51.02295760292387
 30
-0.4000272404495388
 70
    32
  0
VERTEX
  5
ACF
330
ACC
100
AcDbEntity
  8
MY3DLAYER
 48
0.1
100
AcDbVertex
100
AcDb3dPolylineVertex
 10
26.53565569036477
 20
51.06428456142872
 30
-0.4000272112978072
 70
    32
  0
VERTEX
  5
AD0
330
ACC
100
AcDbEntity
  8
MY3DLAYER
 48
0.1
100
AcDbVertex
100
AcDb3dPolylineVertex
 10
26.54376701766409
 20
51.10924280077701
 30
-0.4000271998000633
 70
    32
  0
VERTEX
  5
AD1
330
ACC
100
AcDbEntity
  8
MY3DLAYER
 48
0.1
100
AcDbVertex
100
AcDb3dPolylineVertex
 10
26.53996590961039
 20
51.15476849125413
 30
-0.4000271966248456
 70
    32
  0
VERTEX
  5
AD2
330
ACC
100
AcDbEntity
  8
MY3DLAYER
 48
0.1
100
AcDbVertex
100
AcDb3dPolylineVertex
 10
26.52451140543592
 20
51.19775913228885
 30
-0.4000272019884293
 70
    32
  0
VERTEX
  5
AD3
330
ACC
100
AcDbEntity
  8
MY3DLAYER
 48
0.1
100
AcDbVertex
100
AcDb3dPolylineVertex
 10
26.49845670406028
 20
51.23528498274002
 30
-0.4000272155252714
 70
    32
  0
VERTEX
  5
AD4
330
ACC
100
AcDbEntity
  8
MY3DLAYER
 48
0.1
100
AcDbVertex
100
AcDb3dPolylineVertex
 10
26.46357739032494
 20
51.26478871791391
 30
-0.4000272363129633
 70
    32
  0
VERTEX
  5
AD5
330
ACC
100
AcDbEntity
  8
MY3DLAYER
 48
0.1
100
AcDbVertex
100
AcDb3dPolylineVertex
 10
26.42225043182007
 20
51.28425970701535
 30
-0.4000272629345564
 70
    32
  0
VERTEX
  5
AD6
330
ACC
100
AcDbEntity
  8
MY3DLAYER
 48
0.1
100
AcDbVertex
100
AcDb3dPolylineVertex
 10
26.37729219247172
 20
51.29237103431478
 30
-0.4000272935762803
 70
    32
  0
VERTEX
  5
AD7
330
ACC
100
AcDbEntity
  8
MY3DLAYER
 48
0.1
100
AcDbVertex
100
AcDb3dPolylineVertex
 10
26.33176650199464
 20
51.288569926261
 30
-0.4000273261496024
 70
    32
  0
VERTEX
  5
AD8
330
ACC
100
AcDbEntity
  8
MY3DLAYER
 48
0.1
100
AcDbVertex
100
AcDb3dPolylineVertex
 10
26.2887758609601
 20
51.27311542208648
 30
-0.4000273584347135
 70
    32
  0
VERTEX
  5
AD9
330
ACC
100
AcDbEntity
  8
MY3DLAYER
 48
0.1
100
AcDbVertex
100
AcDb3dPolylineVertex
 10
26.25125001050876
 20
51.24706072071087
 30
-0.4000273882317499
 70
    32
  0
VERTEX
  5
ADA
330
ACC
100
AcDbEntity
  8
MY3DLAYER
 48
0.1
100
AcDbVertex
100
AcDb3dPolylineVertex
 10
26.22174627533489
 20
51.21218140697549
 30
-0.4000274033942958
 70
    32
  0
VERTEX
  5
ADB
330
ACC
100
AcDbEntity
  8
MY3DLAYER
 48
0.1
100
AcDbVertex
100
AcDb3dPolylineVertex
 10
26.20227528623341
 20
51.1708544484706
 30
-0.4000274325461807
 70
    32
  0
VERTEX
  5
ADC
330
ACC
100
AcDbEntity
  8
MY3DLAYER
 48
0.1
100
AcDbVertex
100
AcDb3dPolylineVertex
 10
26.19416395893422
 20
51.12589620912231
 30
-0.4000274440437894
 70
    32
  0
VERTEX
  5
ADD
330
ACC
100
AcDbEntity
  8
MY3DLAYER
 48
0.1
100
AcDbVertex
100
AcDb3dPolylineVertex
 10
26.19796506698791
 20
51.08037051864515
 30
-0.400027447219007
 70
    32
  0
VERTEX
  5
ADE
330
ACC
100
AcDbEntity
  8
MY3DLAYER
 48
0.1
100
AcDbVertex
100
AcDb3dPolylineVertex
 10
26.21341957116233
 20
51.03737987761044
 30
-0.4000274418555497
 70
    32
  0
VERTEX
  5
ADF
330
ACC
100
AcDbEntity
  8
MY3DLAYER
 48
0.1
100
AcDbVertex
100
AcDb3dPolylineVertex
 10
26.23947427253796
 20
50.99985402715926
 30
-0.4000274283187166
 70
    32
  0
VERTEX
  5
AE0
330
ACC
100
AcDbEntity
  8
MY3DLAYER
 48
0.1
100
AcDbVertex
100
AcDb3dPolylineVertex
 10
26.27435358627322
 20
50.97035029198548
 30
-0.4000274075310157
 70
    32
  0
VERTEX
  5
AE1
330
ACC
100
AcDbEntity
  8
MY3DLAYER
 48
0.1
100
AcDbVertex
100
AcDb3dPolylineVertex
 10
26.31568054477821
 20
50.95087930288414
 30
-0.4000273809093052
 70
    32
  0
VERTEX
  5
AE2
330
ACC
100
AcDbEntity
  8
MY3DLAYER
 48
0.1
100
AcDbVertex
100
AcDb3dPolylineVertex
 10
26.36063878412659
 20
50.94276797558461
 30
-0.4000273502677889
 70
    32
  0
VERTEX
  5
AE3
330
ACC
100
AcDbEntity
  8
MY3DLAYER
 48
0.1
100
AcDbVertex
100
AcDb3dPolylineVertex
 10
26.40616447460362
 20
50.94656908363841
 30
-0.4000273176944665
 70
    32
  0
VERTEX
  5
AE4
330
ACC
100
AcDbEntity
  8
MY3DLAYER
 48
0.1
100
AcDbVertex
100
AcDb3dPolylineVertex
 10
26.44915511563834
 20
50.96202358781283
 30
-0.4000272854091572
 70
    32
  0
VERTEX
  5
AE5
330
ACC
100
AcDbEntity
  8
MY3DLAYER
 48
0.1
100
AcDbVertex
100
AcDb3dPolylineVertex
 10
26.48668096608967
 20
50.98807828918846
 30
-0.4000272556122199
 70
    32
  0
SEQEND
  5
AE6
330
ACC
100
AcDbEntity
  8
Group#92
 48
0.1
  0
POLYLINE
  5
AE7
330
70
100
AcDbEntity
  8
Group#92
 48
0.1
100
AcDb3dPolyline
 66
     1
 10
0.0
 20
0.0
 30
0.0
 70
     8
  0
VERTEX
  5
AE8
330
AE7
100
AcDbEntity
  8
MY3DLAYER
 48
0.1
100
AcDbVertex
100
AcDb3dPolylineVertex
 10
26.44543278761385
 20
47.87015910231438
 30
-0.4000276843853474
 70
    32
  0
VERTEX
  5
AE9
330
AE7
100
AcDbEntity
  8
MY3DLAYER
 48
0.1
100
AcDbVertex
100
AcDb3dPolylineVertex
 10
26.48356808301019
 20
47.89531348169535
 30
-0.4000276648345234
 70
    32
  0
VERTEX
  5
AEA
330
AE7
100
AcDbEntity
  8
MY3DLAYER
 48
0.1
100
AcDbVertex
100
AcDb3dPolylineVertex
 10
26.51389351727527
 20
47.9294808871229
 30
-0.4000276285091021
 70
    32
  0
VERTEX
  5
AEB
330
AE7
100
AcDbEntity
  8
MY3DLAYER
 48
0.1
100
AcDbVertex
100
AcDb3dPolylineVertex
 10
26.53434246217891
 20
47.97033286638146
 30
-0.4000276088444582
 70
    32
  0
VERTEX
  5
AEC
330
AE7
100
AcDbEntity
  8
MY3DLAYER
 48
0.1
100
AcDbVertex
100
AcDb3dPolylineVertex
 10
26.54352135591946
 20
48.01508542459568
 30
-0.4000275966209239
 70
    32
  0
VERTEX
  5
AED
330
AE7
100
AcDbEntity
  8
MY3DLAYER
 48
0.1
100
AcDbVertex
100
AcDb3dPolylineVertex
 10
26.54080467205731
 20
48.06068874888032
 30
-0.4000275926714655
 70
    32
  0
VERTEX
  5
AEE
330
AE7
100
AcDbEntity
  8
MY3DLAYER
 48
0.1
100
AcDbVertex
100
AcDb3dPolylineVertex
 10
26.52637754810831
 20
48.1040350480484
 30
-0.4000275972653348
 70
    32
  0
VERTEX
  5
AEF
330
AE7
100
AcDbEntity
  8
MY3DLAYER
 48
0.1
100
AcDbVertex
100
AcDb3dPolylineVertex
 10
26.50122316872726
 20
48.14217034344483
 30
-0.4000276100892945
 70
    32
  0
VERTEX
  5
AF0
330
AE7
100
AcDbEntity
  8
MY3DLAYER
 48
0.1
100
AcDbVertex
100
AcDb3dPolylineVertex
 10
26.46705576329964
 20
48.17249577771001
 30
-0.4000276302694971
 70
    32
  0
VERTEX
  5
AF1
330
AE7
100
AcDbEntity
  8
MY3DLAYER
 48
0.1
100
AcDbVertex
100
AcDb3dPolylineVertex
 10
26.42620378404111
 20
48.19294472261359
 30
-0.4000276564306311
 70
    32
  0
VERTEX
  5
AF2
330
AE7
100
AcDbEntity
  8
MY3DLAYER
 48
0.1
100
AcDbVertex
100
AcDb3dPolylineVertex
 10
26.38145122582693
 20
48.20212361635416
 30
-0.4000276867899999
 70
    32
  0
VERTEX
  5
AF3
330
AE7
100
AcDbEntity
  8
MY3DLAYER
 48
0.1
100
AcDbVertex
100
AcDb3dPolylineVertex
 10
26.33584790154232
 20
48.19940693249201
 30
-0.4000277192785675
 70
    32
  0
VERTEX
  5
AF4
330
AE7
100
AcDbEntity
  8
MY3DLAYER
 48
0.1
100
AcDbVertex
100
AcDb3dPolylineVertex
 10
26.29250160237418
 20
48.18497980854288
 30
-0.4000277516823224
 70
    32
  0
VERTEX
  5
AF5
330
AE7
100
AcDbEntity
  8
MY3DLAYER
 48
0.1
100
AcDbVertex
100
AcDb3dPolylineVertex
 10
26.25436630697774
 20
48.15982542916194
 30
-0.4000277712331646
 70
    32
  0
VERTEX
  5
AF6
330
AE7
100
AcDbEntity
  8
MY3DLAYER
 48
0.1
100
AcDbVertex
100
AcDb3dPolylineVertex
 10
26.22404087271271
 20
48.12565802373445
 30
-0.400027807558694
 70
    32
  0
VERTEX
  5
AF7
330
AE7
100
AcDbEntity
  8
MY3DLAYER
 48
0.1
100
AcDbVertex
100
AcDb3dPolylineVertex
 10
26.20359192780906
 20
48.08480604447578
 30
-0.4000278272233199
 70
    32
  0
VERTEX
  5
AF8
330
AE7
100
AcDbEntity
  8
MY3DLAYER
 48
0.1
100
AcDbVertex
100
AcDb3dPolylineVertex
 10
26.19441303406857
 20
48.04005348626159
 30
-0.4000278394468723
 70
    32
  0
VERTEX
  5
AF9
330
AE7
100
AcDbEntity
  8
MY3DLAYER
 48
0.1
100
AcDbVertex
100
AcDb3dPolylineVertex
 10
26.19712971793068
 20
47.99445016197696
 30
-0.4000278433963306
 70
    32
  0
VERTEX
  5
AFA
330
AE7
100
AcDbEntity
  8
MY3DLAYER
 48
0.1
100
AcDbVertex
100
AcDb3dPolylineVertex
 10
26.21155684187975
 20
47.95110386280883
 30
-0.4000278388025696
 70
    32
  0
VERTEX
  5
AFB
330
AE7
100
AcDbEntity
  8
MY3DLAYER
 48
0.1
100
AcDbVertex
100
AcDb3dPolylineVertex
 10
26.23671122126071
 20
47.91296856741237
 30
-0.4000278259784835
 70
    32
  0
VERTEX
  5
AFC
330
AE7
100
AcDbEntity
  8
MY3DLAYER
 48
0.1
100
AcDbVertex
100
AcDb3dPolylineVertex
 10
26.27087862668831
 20
47.88264313314733
 30
-0.4000278057982991
 70
    32
  0
VERTEX
  5
AFD
330
AE7
100
AcDbEntity
  8
MY3DLAYER
 48
0.1
100
AcDbVertex
100
AcDb3dPolylineVertex
 10
26.31173060594682
 20
47.86219418824368
 30
-0.4000277796370568
 70
    32
  0
VERTEX
  5
AFE
330
AE7
100
AcDbEntity
  8
MY3DLAYER
 48
0.1
100
AcDbVertex
100
AcDb3dPolylineVertex
 10
26.35648316416113
 20
47.8530152945031
 30
-0.400027749277688
 70
    32
  0
VERTEX
  5
AFF
330
AE7
100
AcDbEntity
  8
MY3DLAYER
 48
0.1
100
AcDbVertex
100
AcDb3dPolylineVertex
 10
26.40208648844568
 20
47.85573197836522
 30
-0.4000277167891024
 70
    32
  0
VERTEX
  5
B00
330
AE7
100
AcDbEntity
  8
MY3DLAYER
 48
0.1
100
AcDbVertex
100
AcDb3dPolylineVertex
 10
26.44543278761385
 20
47.87015910231438
 30
-0.4000276843853474
 70
    32
  0
SEQEND
  5
B01
330
AE7
100
AcDbEntity
  8
Group#92
 48
0.1
  0
POLYLINE
  5
B02
330
70
100
AcDbEntity
  8
Group#92
 48
0.1
100
AcDb3dPolyline
 66
     1
 10
0.0
 20
0.0
 30
0.0
 70
     8
  0
VERTEX
  5
B03
330
B02
100
AcDbEntity
  8
MY3DLAYER
 48
0.1
100
AcDbVertex
100
AcDb3dPolylineVertex
 10
13.86400113479252
 20
58.70942776672745
 30
-0.4000333598538536
 70
    32
  0
VERTEX
  5
B04
330
B02
100
AcDbEntity
  8
MY3DLAYER
 48
0.1
100
AcDbVertex
100
AcDb3dPolylineVertex
 10
13.82257977855523
 20
58.67764404220783
 30
-0.4000333931327081
 70
    32
  0
VERTEX
  5
B05
330
B02
100
AcDbEntity
  8
MY3DLAYER
 48
0.1
100
AcDbVertex
100
AcDb3dPolylineVertex
 10
13.79079605403562
 20
58.63622268597047
 30
-0.4000334208590333
 70
    32
  0
VERTEX
  5
B06
330
B02
100
AcDbEntity
  8
MY3DLAYER
 48
0.1
100
AcDbVertex
100
AcDb3dPolylineVertex
 10
13.77081596953486
 20
58.58798649499096
 30
-0.400033441142754
 70
    32
  0
VERTEX
  5
B07
330
B02
100
AcDbEntity
  8
MY3DLAYER
 48
0.1
100
AcDbVertex
100
AcDb3dPolylineVertex
 10
13.76400113479286
 20
58.53622268597041
 30
-0.4000334526016224
 70
    32
  0
VERTEX
  5
B08
330
B02
100
AcDbEntity
  8
MY3DLAYER
 48
0.1
100
AcDbVertex
100
AcDb3dPolylineVertex
 10
13.77081596953516
 20
58.48445887694994
 30
-0.4000334544551282
 70
    32
  0
VERTEX
  5
B09
330
B02
100
AcDbEntity
  8
MY3DLAYER
 48
0.1
100
AcDbVertex
100
AcDb3dPolylineVertex
 10
13.79079605403607
 20
58.4362226859705
 30
-0.4000334465766911
 70
    32
  0
VERTEX
  5
B0A
330
B02
100
AcDbEntity
  8
MY3DLAYER
 48
0.1
100
AcDbVertex
100
AcDb3dPolylineVertex
 10
13.82257977855561
 20
58.39480132973323
 30
-0.4000334295031031
 70
    32
  0
VERTEX
  5
B0B
330
B02
100
AcDbEntity
  8
MY3DLAYER
 48
0.1
100
AcDbVertex
100
AcDb3dPolylineVertex
 10
13.86400113479313
 20
58.36301760521363
 30
-0.4000334043982042
 70
    32
  0
VERTEX
  5
B0C
330
B02
100
AcDbEntity
  8
MY3DLAYER
 48
0.1
100
AcDbVertex
100
AcDb3dPolylineVertex
 10
13.91223732577262
 20
58.34303752071281
 30
-0.4000333729725755
 70
    32
  0
VERTEX
  5
B0D
330
B02
100
AcDbEntity
  8
MY3DLAYER
 48
0.1
100
AcDbVertex
100
AcDb3dPolylineVertex
 10
13.96400113479314
 20
58.33622268597069
 30
-0.4000333373680662
 70
    32
  0
VERTEX
  5
B0E
330
B02
100
AcDbEntity
  8
MY3DLAYER
 48
0.1
100
AcDbVertex
100
AcDb3dPolylineVertex
 10
14.01576494381346
 20
58.34303752071292
 30
-0.4000333000108294
 70
    32
  0
VERTEX
  5
B0F
330
B02
100
AcDbEntity
  8
MY3DLAYER
 48
0.1
100
AcDbVertex
100
AcDb3dPolylineVertex
 10
14.06400113479292
 20
58.36301760521392
 30
-0.4000332634466832
 70
    32
  0
VERTEX
  5
B10
330
B02
100
AcDbEntity
  8
MY3DLAYER
 48
0.1
100
AcDbVertex
100
AcDb3dPolylineVertex
 10
14.10542249103047
 20
58.3948013297336
 30
-0.4000332301677924
 70
    32
  0
VERTEX
  5
B11
330
B02
100
AcDbEntity
  8
MY3DLAYER
 48
0.1
100
AcDbVertex
100
AcDb3dPolylineVertex
 10
14.13720621554967
 20
58.43622268597094
 30
-0.4000332024416571
 70
    32
  0
VERTEX
  5
B12
330
B02
100
AcDbEntity
  8
MY3DLAYER
 48
0.1
100
AcDbVertex
100
AcDb3dPolylineVertex
 10
14.15718630005052
 20
58.48445887695052
 30
-0.4000331821579179
 70
    32
  0
VERTEX
  5
B13
330
B02
100
AcDbEntity
  8
MY3DLAYER
 48
0.1
100
AcDbVertex
100
AcDb3dPolylineVertex
 10
14.16400113479281
 20
58.536222685971
 30
-0.4000331706989053
 70
    32
  0
VERTEX
  5
B14
330
B02
100
AcDbEntity
  8
MY3DLAYER
 48
0.1
100
AcDbVertex
100
AcDb3dPolylineVertex
 10
14.15718630005037
 20
58.58798649499147
 30
-0.4000331688454625
 70
    32
  0
VERTEX
  5
B15
330
B02
100
AcDbEntity
  8
MY3DLAYER
 48
0.1
100
AcDbVertex
100
AcDb3dPolylineVertex
 10
14.13720621554956
 20
58.63622268597101
 30
-0.4000331767239629
 70
    32
  0
VERTEX
  5
B16
330
B02
100
AcDbEntity
  8
MY3DLAYER
 48
0.1
100
AcDbVertex
100
AcDb3dPolylineVertex
 10
14.10542249102996
 20
58.67764404220819
 30
-0.40003319379756
 70
    32
  0
VERTEX
  5
B17
330
B02
100
AcDbEntity
  8
MY3DLAYER
 48
0.1
100
AcDbVertex
100
AcDb3dPolylineVertex
 10
14.0640011347926
 20
58.70942776672769
 30
-0.4000332189023867
 70
    32
  0
VERTEX
  5
B18
330
B02
100
AcDbEntity
  8
MY3DLAYER
 48
0.1
100
AcDbVertex
100
AcDb3dPolylineVertex
 10
14.01576494381297
 20
58.72940785122874
 30
-0.4000332503279881
 70
    32
  0
VERTEX
  5
B19
330
B02
100
AcDbEntity
  8
MY3DLAYER
 48
0.1
100
AcDbVertex
100
AcDb3dPolylineVertex
 10
13.9640011347925
 20
58.7362226859707
 30
-0.4000332859327321
 70
    32
  0
VERTEX
  5
B1A
330
B02
100
AcDbEntity
  8
MY3DLAYER
 48
0.1
100
AcDbVertex
100
AcDb3dPolylineVertex
 10
13.9122373257721
 20
58.72940785122861
 30
-0.4000333232897794
 70
    32
  0
VERTEX
  5
B1B
330
B02
100
AcDbEntity
  8
MY3DLAYER
 48
0.1
100
AcDbVertex
100
AcDb3dPolylineVertex
 10
13.86400113479252
 20
58.70942776672745
 30
-0.4000333598538536
 70
    32
  0
SEQEND
  5
B1C
330
B02
100
AcDbEntity
  8
Group#92
 48
0.1
  0
POLYLINE
  5
B1D
330
70
100
AcDbEntity
  8
Group#92
 48
0.1
100
AcDb3dPolyline
 66
     1
 10
0.0
 20
0.0
 30
0.0
 70
     8
  0
VERTEX
  5
B1E
330
B1D
100
AcDbEntity
  8
MY3DLAYER
 48
0.1
100
AcDbVertex
100
AcDb3dPolylineVertex
 10
28.76400110683866
 20
58.53622268598936
 30
-0.4000246792678407
 70
    32
  0
VERTEX
  5
B1F
330
B1D
100
AcDbEntity
  8
MY3DLAYER
 48
0.1
100
AcDbVertex
100
AcDb3dPolylineVertex
 10
28.77081594158098
 20
58.4844588769689
 30
-0.4000246811213465
 70
    32
  0
VERTEX
  5
B20
330
B1D
100
AcDbEntity
  8
MY3DLAYER
 48
0.1
100
AcDbVertex
100
AcDb3dPolylineVertex
 10
28.79079602608196
 20
58.43622268598945
 30
-0.4000246732428373
 70
    32
  0
VERTEX
  5
B21
330
B1D
100
AcDbEntity
  8
MY3DLAYER
 48
0.1
100
AcDbVertex
100
AcDb3dPolylineVertex
 10
28.82257975060152
 20
58.39480132975217
 30
-0.4000246561693033
 70
    32
  0
VERTEX
  5
B22
330
B1D
100
AcDbEntity
  8
MY3DLAYER
 48
0.1
100
AcDbVertex
100
AcDb3dPolylineVertex
 10
28.8640011068391
 20
58.3630176052326
 30
-0.4000246310644043
 70
    32
  0
VERTEX
  5
B23
330
B1D
100
AcDbEntity
  8
MY3DLAYER
 48
0.1
100
AcDbVertex
100
AcDb3dPolylineVertex
 10
28.91223729781845
 20
58.34303752073177
 30
-0.4000245996387578
 70
    32
  0
VERTEX
  5
B24
330
B1D
100
AcDbEntity
  8
MY3DLAYER
 48
0.1
100
AcDbVertex
100
AcDb3dPolylineVertex
 10
28.96400110683896
 20
58.33622268598963
 30
-0.4000245640341764
 70
    32
  0
VERTEX
  5
B25
330
B1D
100
AcDbEntity
  8
MY3DLAYER
 48
0.1
100
AcDbVertex
100
AcDb3dPolylineVertex
 10
29.01576491585931
 20
58.34303752073187
 30
-0.4000245266768852
 70
    32
  0
VERTEX
  5
B26
330
B1D
100
AcDbEntity
  8
MY3DLAYER
 48
0.1
100
AcDbVertex
100
AcDb3dPolylineVertex
 10
29.06400110683878
 20
58.36301760523286
 30
-0.4000244901129735
 70
    32
  0
VERTEX
  5
B27
330
B1D
100
AcDbEntity
  8
MY3DLAYER
 48
0.1
100
AcDbVertex
100
AcDb3dPolylineVertex
 10
29.1054224630763
 20
58.39480132975253
 30
-0.4000244568339566
 70
    32
  0
VERTEX
  5
B28
330
B1D
100
AcDbEntity
  8
MY3DLAYER
 48
0.1
100
AcDbVertex
100
AcDb3dPolylineVertex
 10
29.13720618759574
 20
58.43622268598987
 30
-0.4000244291080196
 70
    32
  0
VERTEX
  5
B29
330
B1D
100
AcDbEntity
  8
MY3DLAYER
 48
0.1
100
AcDbVertex
100
AcDb3dPolylineVertex
 10
29.15718627209638
 20
58.48445887696946
 30
-0.4000244088242987
 70
    32
  0
VERTEX
  5
B2A
330
B1D
100
AcDbEntity
  8
MY3DLAYER
 48
0.1
100
AcDbVertex
100
AcDb3dPolylineVertex
 10
29.16400110683861
 20
58.53622268598994
 30
-0.4000243973651055
 70
    32
  0
VERTEX
  5
B2B
330
B1D
100
AcDbEntity
  8
MY3DLAYER
 48
0.1
100
AcDbVertex
100
AcDb3dPolylineVertex
 10
29.15718627209627
 20
58.58798649501039
 30
-0.4000243955117712
 70
    32
  0
VERTEX
  5
B2C
330
B1D
100
AcDbEntity
  8
MY3DLAYER
 48
0.1
100
AcDbVertex
100
AcDb3dPolylineVertex
 10
29.13720618759537
 20
58.63622268598994
 30
-0.4000244033903254
 70
    32
  0
VERTEX
  5
B2D
330
B1D
100
AcDbEntity
  8
MY3DLAYER
 48
0.1
100
AcDbVertex
100
AcDb3dPolylineVertex
 10
29.10542246307569
 20
58.67764404222713
 30
-0.400024420463706
 70
    32
  0
VERTEX
  5
B2E
330
B1D
100
AcDbEntity
  8
MY3DLAYER
 48
0.1
100
AcDbVertex
100
AcDb3dPolylineVertex
 10
29.06400110683827
 20
58.70942776674661
 30
-0.4000244455687133
 70
    32
  0
VERTEX
  5
B2F
330
B1D
100
AcDbEntity
  8
MY3DLAYER
 48
0.1
100
AcDbVertex
100
AcDb3dPolylineVertex
 10
29.0157649158588
 20
58.72940785124767
 30
-0.4000244769941704
 70
    32
  0
VERTEX
  5
B30
330
B1D
100
AcDbEntity
  8
MY3DLAYER
 48
0.1
100
AcDbVertex
100
AcDb3dPolylineVertex
 10
28.96400110683833
 20
58.73622268598964
 30
-0.4000245125988511
 70
    32
  0
VERTEX
  5
B31
330
B1D
100
AcDbEntity
  8
MY3DLAYER
 48
0.1
100
AcDbVertex
100
AcDb3dPolylineVertex
 10
28.91223729781795
 20
58.72940785124755
 30
-0.4000245499559617
 70
    32
  0
VERTEX
  5
B32
330
B1D
100
AcDbEntity
  8
MY3DLAYER
 48
0.1
100
AcDbVertex
100
AcDb3dPolylineVertex
 10
28.86400110683836
 20
58.7094277667464
 30
-0.4000245865199816
 70
    32
  0
VERTEX
  5
B33
330
B1D
100
AcDbEntity
  8
MY3DLAYER
 48
0.1
100
AcDbVertex
100
AcDb3dPolylineVertex
 10
28.82257975060109
 20
58.67764404222675
 30
-0.400024619799053
 70
    32
  0
VERTEX
  5
B34
330
B1D
100
AcDbEntity
  8
MY3DLAYER
 48
0.1
100
AcDbVertex
100
AcDb3dPolylineVertex
 10
28.79079602608161
 20
58.63622268598941
 30
-0.4000246475251342
 70
    32
  0
VERTEX
  5
B35
330
B1D
100
AcDbEntity
  8
MY3DLAYER
 48
0.1
100
AcDbVertex
100
AcDb3dPolylineVertex
 10
28.77081594158072
 20
58.5879864950099
 30
-0.4000246678089003
 70
    32
  0
VERTEX
  5
B36
330
B1D
100
AcDbEntity
  8
MY3DLAYER
 48
0.1
100
AcDbVertex
100
AcDb3dPolylineVertex
 10
28.76400110683866
 20
58.53622268598936
 30
-0.4000246792678407
 70
    32
  0
SEQEND
  5
B37
330
B1D
100
AcDbEntity
  8
Group#92
 48
0.1
  0
POLYLINE
  5
B38
330
70
100
AcDbEntity
  8
Group#92
 48
0.1
100
AcDb3dPolyline
 66
     1
 10
0.0
 20
0.0
 30
0.0
 70
     8
  0
VERTEX
  5
B39
330
B38
100
AcDbEntity
  8
MY3DLAYER
 48
0.1
100
AcDbVertex
100
AcDb3dPolylineVertex
 10
37.66400134062929
 20
44.49951992891477
 30
-0.4000202118897843
 70
    32
  0
VERTEX
  5
B3A
330
B38
100
AcDbEntity
  8
MY3DLAYER
 48
0.1
100
AcDbVertex
100
AcDb3dPolylineVertex
 10
37.61223753160872
 20
44.4927050941725
 30
-0.4000202492471204
 70
    32
  0
VERTEX
  5
B3B
330
B38
100
AcDbEntity
  8
MY3DLAYER
 48
0.1
100
AcDbVertex
100
AcDb3dPolylineVertex
 10
37.56400134062931
 20
44.47272500967153
 30
-0.4000202858110593
 70
    32
  0
VERTEX
  5
B3C
330
B38
100
AcDbEntity
  8
MY3DLAYER
 48
0.1
100
AcDbVertex
100
AcDb3dPolylineVertex
 10
37.52257998439197
 20
44.44094128515206
 30
-0.4000203190900402
 70
    32
  0
VERTEX
  5
B3D
330
B38
100
AcDbEntity
  8
MY3DLAYER
 48
0.1
100
AcDbVertex
100
AcDb3dPolylineVertex
 10
37.49079625987264
 20
44.39951992891458
 30
-0.4000203468162387
 70
    32
  0
VERTEX
  5
B3E
330
B38
100
AcDbEntity
  8
MY3DLAYER
 48
0.1
100
AcDbVertex
100
AcDb3dPolylineVertex
 10
37.47081617537163
 20
44.35128373793505
 30
-0.4000203670997703
 70
    32
  0
VERTEX
  5
B3F
330
B38
100
AcDbEntity
  8
MY3DLAYER
 48
0.1
100
AcDbVertex
100
AcDb3dPolylineVertex
 10
37.46400134062958
 20
44.29951992891452
 30
-0.400020378558837
 70
    32
  0
VERTEX
  5
B40
330
B38
100
AcDbEntity
  8
MY3DLAYER
 48
0.1
100
AcDbVertex
100
AcDb3dPolylineVertex
 10
37.47081617537161
 20
44.24775611989417
 30
-0.4000203804122073
 70
    32
  0
VERTEX
  5
B41
330
B38
100
AcDbEntity
  8
MY3DLAYER
 48
0.1
100
AcDbVertex
100
AcDb3dPolylineVertex
 10
37.49079625987273
 20
44.19951992891455
 30
-0.4000203725337976
 70
    32
  0
VERTEX
  5
B42
330
B38
100
AcDbEntity
  8
MY3DLAYER
 48
0.1
100
AcDbVertex
100
AcDb3dPolylineVertex
 10
37.52257998439241
 20
44.1580985726773
 30
-0.400020355460444
 70
    32
  0
VERTEX
  5
B43
330
B38
100
AcDbEntity
  8
MY3DLAYER
 48
0.1
100
AcDbVertex
100
AcDb3dPolylineVertex
 10
37.56400134062977
 20
44.12631484815778
 30
-0.4000203303553917
 70
    32
  0
VERTEX
  5
B44
330
B38
100
AcDbEntity
  8
MY3DLAYER
 48
0.1
100
AcDbVertex
100
AcDb3dPolylineVertex
 10
37.61223753160924
 20
44.10633476365696
 30
-0.4000202989297722
 70
    32
  0
VERTEX
  5
B45
330
B38
100
AcDbEntity
  8
MY3DLAYER
 48
0.1
100
AcDbVertex
100
AcDb3dPolylineVertex
 10
37.66400134062992
 20
44.09951992891471
 30
-0.4000202633252269
 70
    32
  0
VERTEX
  5
B46
330
B38
100
AcDbEntity
  8
MY3DLAYER
 48
0.1
100
AcDbVertex
100
AcDb3dPolylineVertex
 10
37.71576514965035
 20
44.1063347636571
 30
-0.4000202259680802
 70
    32
  0
VERTEX
  5
B47
330
B38
100
AcDbEntity
  8
MY3DLAYER
 48
0.1
100
AcDbVertex
100
AcDb3dPolylineVertex
 10
37.76400134062965
 20
44.12631484815803
 30
-0.4000201894040421
 70
    32
  0
VERTEX
  5
B48
330
B38
100
AcDbEntity
  8
MY3DLAYER
 48
0.1
100
AcDbVertex
100
AcDb3dPolylineVertex
 10
37.80542269686697
 20
44.15809857267766
 30
-0.4000201561250342
 70
    32
  0
VERTEX
  5
B49
330
B38
100
AcDbEntity
  8
MY3DLAYER
 48
0.1
100
AcDbVertex
100
AcDb3dPolylineVertex
 10
37.83720642138652
 20
44.19951992891506
 30
-0.4000201283989799
 70
    32
  0
VERTEX
  5
B4A
330
B38
100
AcDbEntity
  8
MY3DLAYER
 48
0.1
100
AcDbVertex
100
AcDb3dPolylineVertex
 10
37.85718650588742
 20
44.2477561198946
 30
-0.4000201081151327
 70
    32
  0
VERTEX
  5
B4B
330
B38
100
AcDbEntity
  8
MY3DLAYER
 48
0.1
100
AcDbVertex
100
AcDb3dPolylineVertex
 10
37.86400134062936
 20
44.29951992891497
 30
-0.400020096656156
 70
    32
  0
VERTEX
  5
B4C
330
B38
100
AcDbEntity
  8
MY3DLAYER
 48
0.1
100
AcDbVertex
100
AcDb3dPolylineVertex
 10
37.85718650588713
 20
44.35128373793554
 30
-0.4000200948028397
 70
    32
  0
VERTEX
  5
B4D
330
B38
100
AcDbEntity
  8
MY3DLAYER
 48
0.1
100
AcDbVertex
100
AcDb3dPolylineVertex
 10
37.83720642138617
 20
44.39951992891508
 30
-0.4000201026811775
 70
    32
  0
VERTEX
  5
B4E
330
B38
100
AcDbEntity
  8
MY3DLAYER
 48
0.1
100
AcDbVertex
100
AcDb3dPolylineVertex
 10
37.80542269686653
 20
44.44094128515241
 30
-0.4000201197547115
 70
    32
  0
VERTEX
  5
B4F
330
B38
100
AcDbEntity
  8
MY3DLAYER
 48
0.1
100
AcDbVertex
100
AcDb3dPolylineVertex
 10
37.76400134062935
 20
44.47272500967186
 30
-0.4000201448597638
 70
    32
  0
VERTEX
  5
B50
330
B38
100
AcDbEntity
  8
MY3DLAYER
 48
0.1
100
AcDbVertex
100
AcDb3dPolylineVertex
 10
37.71576514964966
 20
44.49270509417264
 30
-0.4000201762851848
 70
    32
  0
VERTEX
  5
B51
330
B38
100
AcDbEntity
  8
MY3DLAYER
 48
0.1
100
AcDbVertex
100
AcDb3dPolylineVertex
 10
37.66400134062929
 20
44.49951992891477
 30
-0.4000202118897843
 70
    32
  0
SEQEND
  5
B52
330
B38
100
AcDbEntity
  8
Group#92
 48
0.1
  0
POLYLINE
  5
B53
330
70
100
AcDbEntity
  8
Group#92
 48
0.1
100
AcDb3dPolyline
 66
     1
 10
0.0
 20
0.0
 30
0.0
 70
     8
  0
VERTEX
  5
B54
330
B53
100
AcDbEntity
  8
MY3DLAYER
 48
0.1
100
AcDbVertex
100
AcDb3dPolylineVertex
 10
37.80542269687009
 20
41.87099318275993
 30
-0.4000204502203721
 70
    32
  0
VERTEX
  5
B55
330
B53
100
AcDbEntity
  8
MY3DLAYER
 48
0.1
100
AcDbVertex
100
AcDb3dPolylineVertex
 10
37.7640013406328
 20
41.90277690727932
 30
-0.4000204753254245
 70
    32
  0
VERTEX
  5
B56
330
B53
100
AcDbEntity
  8
MY3DLAYER
 48
0.1
100
AcDbVertex
100
AcDb3dPolylineVertex
 10
37.71576514965314
 20
41.92275699178021
 30
-0.4000205067508453
 70
    32
  0
VERTEX
  5
B57
330
B53
100
AcDbEntity
  8
MY3DLAYER
 48
0.1
100
AcDbVertex
100
AcDb3dPolylineVertex
 10
37.66400134063272
 20
41.92957182652228
 30
-0.400020542355445
 70
    32
  0
VERTEX
  5
B58
330
B53
100
AcDbEntity
  8
MY3DLAYER
 48
0.1
100
AcDbVertex
100
AcDb3dPolylineVertex
 10
37.61223753161213
 20
41.92275699178007
 30
-0.4000205797127629
 70
    32
  0
VERTEX
  5
B59
330
B53
100
AcDbEntity
  8
MY3DLAYER
 48
0.1
100
AcDbVertex
100
AcDb3dPolylineVertex
 10
37.56400134063277
 20
41.90277690727909
 30
-0.4000206162767018
 70
    32
  0
VERTEX
  5
B5A
330
B53
100
AcDbEntity
  8
MY3DLAYER
 48
0.1
100
AcDbVertex
100
AcDb3dPolylineVertex
 10
37.52257998439558
 20
41.87099318275957
 30
-0.4000206495557009
 70
    32
  0
VERTEX
  5
B5B
330
B53
100
AcDbEntity
  8
MY3DLAYER
 48
0.1
100
AcDbVertex
100
AcDb3dPolylineVertex
 10
37.49079625987607
 20
41.82957182652211
 30
-0.4000206772818994
 70
    32
  0
VERTEX
  5
B5C
330
B53
100
AcDbEntity
  8
MY3DLAYER
 48
0.1
100
AcDbVertex
100
AcDb3dPolylineVertex
 10
37.47081617537509
 20
41.78133563554259
 30
-0.4000206975654308
 70
    32
  0
VERTEX
  5
B5D
330
B53
100
AcDbEntity
  8
MY3DLAYER
 48
0.1
100
AcDbVertex
100
AcDb3dPolylineVertex
 10
37.4640013406329
 20
41.72957182652211
 30
-0.4000207090244978
 70
    32
  0
VERTEX
  5
B5E
330
B53
100
AcDbEntity
  8
MY3DLAYER
 48
0.1
100
AcDbVertex
100
AcDb3dPolylineVertex
 10
37.47081617537503
 20
41.67780801750163
 30
-0.4000207108778863
 70
    32
  0
VERTEX
  5
B5F
330
B53
100
AcDbEntity
  8
MY3DLAYER
 48
0.1
100
AcDbVertex
100
AcDb3dPolylineVertex
 10
37.49079625987617
 20
41.62957182652209
 30
-0.4000207029995213
 70
    32
  0
VERTEX
  5
B60
330
B53
100
AcDbEntity
  8
MY3DLAYER
 48
0.1
100
AcDbVertex
100
AcDb3dPolylineVertex
 10
37.52257998439581
 20
41.58815047028482
 30
-0.4000206859261228
 70
    32
  0
VERTEX
  5
B61
330
B53
100
AcDbEntity
  8
MY3DLAYER
 48
0.1
100
AcDbVertex
100
AcDb3dPolylineVertex
 10
37.56400134063321
 20
41.55636674576531
 30
-0.4000206608210523
 70
    32
  0
VERTEX
  5
B62
330
B53
100
AcDbEntity
  8
MY3DLAYER
 48
0.1
100
AcDbVertex
100
AcDb3dPolylineVertex
 10
37.61223753161266
 20
41.53638666126451
 30
-0.4000206293954328
 70
    32
  0
VERTEX
  5
B63
330
B53
100
AcDbEntity
  8
MY3DLAYER
 48
0.1
100
AcDbVertex
100
AcDb3dPolylineVertex
 10
37.66400134063327
 20
41.52957182652236
 30
-0.4000205937908332
 70
    32
  0
VERTEX
  5
B64
330
B53
100
AcDbEntity
  8
MY3DLAYER
 48
0.1
100
AcDbVertex
100
AcDb3dPolylineVertex
 10
37.71576514965371
 20
41.53638666126465
 30
-0.4000205564337588
 70
    32
  0
VERTEX
  5
B65
330
B53
100
AcDbEntity
  8
MY3DLAYER
 48
0.1
100
AcDbVertex
100
AcDb3dPolylineVertex
 10
37.76400134063314
 20
41.55636674576556
 30
-0.4000205198696846
 70
    32
  0
VERTEX
  5
B66
330
B53
100
AcDbEntity
  8
MY3DLAYER
 48
0.1
100
AcDbVertex
100
AcDb3dPolylineVertex
 10
37.80542269687042
 20
41.58815047028517
 30
-0.4000204865906408
 70
    32
  0
VERTEX
  5
B67
330
B53
100
AcDbEntity
  8
MY3DLAYER
 48
0.1
100
AcDbVertex
100
AcDb3dPolylineVertex
 10
37.83720642139002
 20
41.62957182652253
 30
-0.4000204588645865
 70
    32
  0
VERTEX
  5
B68
330
B53
100
AcDbEntity
  8
MY3DLAYER
 48
0.1
100
AcDbVertex
100
AcDb3dPolylineVertex
 10
37.85718650589089
 20
41.67780801750204
 30
-0.4000204385807934
 70
    32
  0
VERTEX
  5
B69
330
B53
100
AcDbEntity
  8
MY3DLAYER
 48
0.1
100
AcDbVertex
100
AcDb3dPolylineVertex
 10
37.86400134063278
 20
41.72957182652253
 30
-0.4000204271218166
 70
    32
  0
VERTEX
  5
B6A
330
B53
100
AcDbEntity
  8
MY3DLAYER
 48
0.1
100
AcDbVertex
100
AcDb3dPolylineVertex
 10
37.85718650589057
 20
41.78133563554309
 30
-0.4000204252684462
 70
    32
  0
VERTEX
  5
B6B
330
B53
100
AcDbEntity
  8
MY3DLAYER
 48
0.1
100
AcDbVertex
100
AcDb3dPolylineVertex
 10
37.83720642138963
 20
41.82957182652255
 30
-0.4000204331468382
 70
    32
  0
VERTEX
  5
B6C
330
B53
100
AcDbEntity
  8
MY3DLAYER
 48
0.1
100
AcDbVertex
100
AcDb3dPolylineVertex
 10
37.80542269687009
 20
41.87099318275993
 30
-0.4000204502203721
 70
    32
  0
SEQEND
  5
B6D
330
B53
100
AcDbEntity
  8
Group#92
 48
0.1
  0
POLYLINE
  5
B6E
330
70
100
AcDbEntity
  8
Group#92
 48
0.1
100
AcDb3dPolyline
 66
     1
 10
0.0
 20
0.0
 30
0.0
 70
     8
  0
VERTEX
  5
B6F
330
B6E
100
AcDbEntity
  8
MY3DLAYER
 48
0.1
100
AcDbVertex
100
AcDb3dPolylineVertex
 10
5.090796259880647
 20
44.39951992887466
 30
-0.4000431809375987
 70
    32
  0
VERTEX
  5
B70
330
B6E
100
AcDbEntity
  8
MY3DLAYER
 48
0.1
100
AcDbVertex
100
AcDb3dPolylineVertex
 10
5.070816175379732
 20
44.35128373789511
 30
-0.4000432012211301
 70
    32
  0
VERTEX
  5
B71
330
B6E
100
AcDbEntity
  8
MY3DLAYER
 48
0.1
100
AcDbVertex
100
AcDb3dPolylineVertex
 10
5.064001340637602
 20
44.29951992887454
 30
-0.4000432126802781
 70
    32
  0
VERTEX
  5
B72
330
B6E
100
AcDbEntity
  8
MY3DLAYER
 48
0.1
100
AcDbVertex
100
AcDb3dPolylineVertex
 10
5.070816175379619
 20
44.24775611985412
 30
-0.4000432145335133
 70
    32
  0
VERTEX
  5
B73
330
B6E
100
AcDbEntity
  8
MY3DLAYER
 48
0.1
100
AcDbVertex
100
AcDb3dPolylineVertex
 10
5.09079625988086
 20
44.19951992887463
 30
-0.4000432066552385
 70
    32
  0
VERTEX
  5
B74
330
B6E
100
AcDbEntity
  8
MY3DLAYER
 48
0.1
100
AcDbVertex
100
AcDb3dPolylineVertex
 10
5.122579984400374
 20
44.15809857263731
 30
-0.4000431895817678
 70
    32
  0
VERTEX
  5
B75
330
B6E
100
AcDbEntity
  8
MY3DLAYER
 48
0.1
100
AcDbVertex
100
AcDb3dPolylineVertex
 10
5.164001340637838
 20
44.12631484811787
 30
-0.4000431644767605
 70
    32
  0
VERTEX
  5
B76
330
B6E
100
AcDbEntity
  8
MY3DLAYER
 48
0.1
100
AcDbVertex
100
AcDb3dPolylineVertex
 10
5.212237531617248
 20
44.10633476361698
 30
-0.4000431330512133
 70
    32
  0
VERTEX
  5
B77
330
B6E
100
AcDbEntity
  8
MY3DLAYER
 48
0.1
100
AcDbVertex
100
AcDb3dPolylineVertex
 10
5.264001340637875
 20
44.09951992887481
 30
-0.4000430974465685
 70
    32
  0
VERTEX
  5
B78
330
B6E
100
AcDbEntity
  8
MY3DLAYER
 48
0.1
100
AcDbVertex
100
AcDb3dPolylineVertex
 10
5.315765149658176
 20
44.10633476361711
 30
-0.4000430600894039
 70
    32
  0
VERTEX
  5
B79
330
B6E
100
AcDbEntity
  8
MY3DLAYER
 48
0.1
100
AcDbVertex
100
AcDb3dPolylineVertex
 10
5.364001340637656
 20
44.1263148481181
 30
-0.4000430235253659
 70
    32
  0
VERTEX
  5
B7A
330
B6E
100
AcDbEntity
  8
MY3DLAYER
 48
0.1
100
AcDbVertex
100
AcDb3dPolylineVertex
 10
5.405422696875078
 20
44.15809857263768
 30
-0.4000429902464842
 70
    32
  0
VERTEX
  5
B7B
330
B6E
100
AcDbEntity
  8
MY3DLAYER
 48
0.1
100
AcDbVertex
100
AcDb3dPolylineVertex
 10
5.437206421394463
 20
44.19951992887501
 30
-0.4000429625202857
 70
    32
  0
VERTEX
  5
B7C
330
B6E
100
AcDbEntity
  8
MY3DLAYER
 48
0.1
100
AcDbVertex
100
AcDb3dPolylineVertex
 10
5.457186505895521
 20
44.24775611985454
 30
-0.4000429422365106
 70
    32
  0
VERTEX
  5
B7D
330
B6E
100
AcDbEntity
  8
MY3DLAYER
 48
0.1
100
AcDbVertex
100
AcDb3dPolylineVertex
 10
5.464001340637437
 20
44.29951992887498
 30
-0.4000429307775791
 70
    32
  0
VERTEX
  5
B7E
330
B6E
100
AcDbEntity
  8
MY3DLAYER
 48
0.1
100
AcDbVertex
100
AcDb3dPolylineVertex
 10
5.457186505895151
 20
44.35128373789557
 30
-0.4000429289241453
 70
    32
  0
VERTEX
  5
B7F
330
B6E
100
AcDbEntity
  8
MY3DLAYER
 48
0.1
100
AcDbVertex
100
AcDb3dPolylineVertex
 10
5.437206421394151
 20
44.39951992887507
 30
-0.4000429368026185
 70
    32
  0
VERTEX
  5
B80
330
B6E
100
AcDbEntity
  8
MY3DLAYER
 48
0.1
100
AcDbVertex
100
AcDb3dPolylineVertex
 10
5.405422696874509
 20
44.44094128511236
 30
-0.4000429538760984
 70
    32
  0
VERTEX
  5
B81
330
B6E
100
AcDbEntity
  8
MY3DLAYER
 48
0.1
100
AcDbVertex
100
AcDb3dPolylineVertex
 10
5.364001340637344
 20
44.4727250096318
 30
-0.4000429789810877
 70
    32
  0
VERTEX
  5
B82
330
B6E
100
AcDbEntity
  8
MY3DLAYER
 48
0.1
100
AcDbVertex
100
AcDb3dPolylineVertex
 10
5.315765149657636
 20
44.49270509413264
 30
-0.4000430104066258
 70
    32
  0
VERTEX
  5
B83
330
B6E
100
AcDbEntity
  8
MY3DLAYER
 48
0.1
100
AcDbVertex
100
AcDb3dPolylineVertex
 10
5.264001340637165
 20
44.49951992887478
 30
-0.4000430460111261
 70
    32
  0
VERTEX
  5
B84
330
B6E
100
AcDbEntity
  8
MY3DLAYER
 48
0.1
100
AcDbVertex
100
AcDb3dPolylineVertex
 10
5.212237531616679
 20
44.49270509413252
 30
-0.4000430833684082
 70
    32
  0
VERTEX
  5
B85
330
B6E
100
AcDbEntity
  8
MY3DLAYER
 48
0.1
100
AcDbVertex
100
AcDb3dPolylineVertex
 10
5.164001340637369
 20
44.47272500963156
 30
-0.4000431199324463
 70
    32
  0
VERTEX
  5
B86
330
B6E
100
AcDbEntity
  8
MY3DLAYER
 48
0.1
100
AcDbVertex
100
AcDb3dPolylineVertex
 10
5.122579984400076
 20
44.44094128511206
 30
-0.4000431532114089
 70
    32
  0
VERTEX
  5
B87
330
B6E
100
AcDbEntity
  8
MY3DLAYER
 48
0.1
100
AcDbVertex
100
AcDb3dPolylineVertex
 10
5.090796259880647
 20
44.39951992887466
 30
-0.4000431809375987
 70
    32
  0
SEQEND
  5
B88
330
B6E
100
AcDbEntity
  8
Group#92
 48
0.1
  0
POLYLINE
  5
B89
330
70
100
AcDbEntity
  8
Group#92
 48
0.1
100
AcDb3dPolyline
 66
     1
 10
0.0
 20
0.0
 30
0.0
 70
     8
  0
VERTEX
  5
B8A
330
B89
100
AcDbEntity
  8
MY3DLAYER
 48
0.1
100
AcDbVertex
100
AcDb3dPolylineVertex
 10
5.122579984403856
 20
41.58815047024486
 30
-0.4000435200474105
 70
    32
  0
VERTEX
  5
B8B
330
B89
100
AcDbEntity
  8
MY3DLAYER
 48
0.1
100
AcDbVertex
100
AcDb3dPolylineVertex
 10
5.164001340641362
 20
41.55636674572535
 30
-0.4000434949424032
 70
    32
  0
VERTEX
  5
B8C
330
B89
100
AcDbEntity
  8
MY3DLAYER
 48
0.1
100
AcDbVertex
100
AcDb3dPolylineVertex
 10
5.212237531620701
 20
41.53638666122455
 30
-0.40004346351682
 70
    32
  0
VERTEX
  5
B8D
330
B89
100
AcDbEntity
  8
MY3DLAYER
 48
0.1
100
AcDbVertex
100
AcDb3dPolylineVertex
 10
5.264001340641371
 20
41.52957182648244
 30
-0.4000434279121931
 70
    32
  0
VERTEX
  5
B8E
330
B89
100
AcDbEntity
  8
MY3DLAYER
 48
0.1
100
AcDbVertex
100
AcDb3dPolylineVertex
 10
5.3157651496618
 20
41.53638666122468
 30
-0.4000433905550286
 70
    32
  0
VERTEX
  5
B8F
330
B89
100
AcDbEntity
  8
MY3DLAYER
 48
0.1
100
AcDbVertex
100
AcDb3dPolylineVertex
 10
5.364001340641195
 20
41.55636674572562
 30
-0.4000433539909904
 70
    32
  0
VERTEX
  5
B90
330
B89
100
AcDbEntity
  8
MY3DLAYER
 48
0.1
100
AcDbVertex
100
AcDb3dPolylineVertex
 10
5.405422696878559
 20
41.58815047024523
 30
-0.4000433207121268
 70
    32
  0
VERTEX
  5
B91
330
B89
100
AcDbEntity
  8
MY3DLAYER
 48
0.1
100
AcDbVertex
100
AcDb3dPolylineVertex
 10
5.437206421397931
 20
41.62957182648257
 30
-0.4000432929859282
 70
    32
  0
VERTEX
  5
B92
330
B89
100
AcDbEntity
  8
MY3DLAYER
 48
0.1
100
AcDbVertex
100
AcDb3dPolylineVertex
 10
5.457186505898917
 20
41.6778080174621
 30
-0.400043272702135
 70
    32
  0
VERTEX
  5
B93
330
B89
100
AcDbEntity
  8
MY3DLAYER
 48
0.1
100
AcDbVertex
100
AcDb3dPolylineVertex
 10
5.464001340640905
 20
41.72957182648262
 30
-0.4000432612432036
 70
    32
  0
VERTEX
  5
B94
330
B89
100
AcDbEntity
  8
MY3DLAYER
 48
0.1
100
AcDbVertex
100
AcDb3dPolylineVertex
 10
5.457186505898647
 20
41.78133563550312
 30
-0.400043259389788
 70
    32
  0
VERTEX
  5
B95
330
B89
100
AcDbEntity
  8
MY3DLAYER
 48
0.1
100
AcDbVertex
100
AcDb3dPolylineVertex
 10
5.437206421397647
 20
41.82957182648265
 30
-0.400043267268243
 70
    32
  0
VERTEX
  5
B96
330
B89
100
AcDbEntity
  8
MY3DLAYER
 48
0.1
100
AcDbVertex
100
AcDb3dPolylineVertex
 10
5.405422696877977
 20
41.8709931827199
 30
-0.4000432843417229
 70
    32
  0
VERTEX
  5
B97
330
B89
100
AcDbEntity
  8
MY3DLAYER
 48
0.1
100
AcDbVertex
100
AcDb3dPolylineVertex
 10
5.364001340640967
 20
41.90277690723937
 30
-0.4000433094467122
 70
    32
  0
VERTEX
  5
B98
330
B89
100
AcDbEntity
  8
MY3DLAYER
 48
0.1
100
AcDbVertex
100
AcDb3dPolylineVertex
 10
5.31576514966126
 20
41.92275699174028
 30
-0.4000433408722503
 70
    32
  0
VERTEX
  5
B99
330
B89
100
AcDbEntity
  8
MY3DLAYER
 48
0.1
100
AcDbVertex
100
AcDb3dPolylineVertex
 10
5.264001340640803
 20
41.92957182648235
 30
-0.4000433764767778
 70
    32
  0
VERTEX
  5
B9A
330
B89
100
AcDbEntity
  8
MY3DLAYER
 48
0.1
100
AcDbVertex
100
AcDb3dPolylineVertex
 10
5.212237531620218
 20
41.92275699174014
 30
-0.4000434138340507
 70
    32
  0
VERTEX
  5
B9B
330
B89
100
AcDbEntity
  8
MY3DLAYER
 48
0.1
100
AcDbVertex
100
AcDb3dPolylineVertex
 10
5.164001340640879
 20
41.90277690723918
 30
-0.4000434503981339
 70
    32
  0
VERTEX
  5
B9C
330
B89
100
AcDbEntity
  8
MY3DLAYER
 48
0.1
100
AcDbVertex
100
AcDb3dPolylineVertex
 10
5.122579984403728
 20
41.87099318271956
 30
-0.4000434836770516
 70
    32
  0
VERTEX
  5
B9D
330
B89
100
AcDbEntity
  8
MY3DLAYER
 48
0.1
100
AcDbVertex
100
AcDb3dPolylineVertex
 10
5.090796259884129
 20
41.82957182648215
 30
-0.400043511403169
 70
    32
  0
VERTEX
  5
B9E
330
B89
100
AcDbEntity
  8
MY3DLAYER
 48
0.1
100
AcDbVertex
100
AcDb3dPolylineVertex
 10
5.070816175383228
 20
41.78133563550261
 30
-0.4000435316867185
 70
    32
  0
VERTEX
  5
B9F
330
B89
100
AcDbEntity
  8
MY3DLAYER
 48
0.1
100
AcDbVertex
100
AcDb3dPolylineVertex
 10
5.064001340641127
 20
41.72957182648211
 30
-0.4000435431459208
 70
    32
  0
VERTEX
  5
BA0
330
B89
100
AcDbEntity
  8
MY3DLAYER
 48
0.1
100
AcDbVertex
100
AcDb3dPolylineVertex
 10
5.070816175383129
 20
41.67780801746167
 30
-0.4000435449991559
 70
    32
  0
VERTEX
  5
BA1
330
B89
100
AcDbEntity
  8
MY3DLAYER
 48
0.1
100
AcDbVertex
100
AcDb3dPolylineVertex
 10
5.090796259884228
 20
41.62957182648214
 30
-0.400043537120845
 70
    32
  0
VERTEX
  5
BA2
330
B89
100
AcDbEntity
  8
MY3DLAYER
 48
0.1
100
AcDbVertex
100
AcDb3dPolylineVertex
 10
5.122579984403856
 20
41.58815047024486
 30
-0.4000435200474105
 70
    32
  0
SEQEND
  5
BA3
330
B89
100
AcDbEntity
  8
Group#92
 48
0.1
  0
POLYLINE
  5
BA4
330
70
100
AcDbEntity
  8
Group#92
 48
0.1
100
AcDb3dPolyline
 66
     1
 10
0.0
 20
0.0
 30
0.0
 70
     8
  0
VERTEX
  5
BA5
330
BA4
100
AcDbEntity
  8
MY3DLAYER
 48
0.1
100
AcDbVertex
100
AcDb3dPolylineVertex
 10
31.15883680058845
 20
56.65234039327619
 30
-0.4000235781617115
 70
    32
  0
VERTEX
  5
BA6
330
BA4
100
AcDbEntity
  8
MY3DLAYER
 48
0.1
100
AcDbVertex
100
AcDb3dPolylineVertex
 10
31.15202196584635
 20
56.60057658425553
 30
-0.4000235896208054
 70
    32
  0
VERTEX
  5
BA7
330
BA4
100
AcDbEntity
  8
MY3DLAYER
 48
0.1
100
AcDbVertex
100
AcDb3dPolylineVertex
 10
31.15202196585262
 20
51.59057658425549
 30
-0.4000235857693034
 70
    32
  0
VERTEX
  5
BA8
330
BA4
100
AcDbEntity
  8
MY3DLAYER
 48
0.1
100
AcDbVertex
100
AcDb3dPolylineVertex
 10
31.15883680059478
 20
51.538812775235
 30
-0.400023587622701
 70
    32
  0
VERTEX
  5
BA9
330
BA4
100
AcDbEntity
  8
MY3DLAYER
 48
0.1
100
AcDbVertex
100
AcDb3dPolylineVertex
 10
31.17881688509581
 20
51.49057658425554
 30
-0.4000235797443001
 70
    32
  0
VERTEX
  5
BAA
330
BA4
100
AcDbEntity
  8
MY3DLAYER
 48
0.1
100
AcDbVertex
100
AcDb3dPolylineVertex
 10
31.2106006096156
 20
51.44915522801844
 30
-0.4000235626708653
 70
    32
  0
VERTEX
  5
BAB
330
BA4
100
AcDbEntity
  8
MY3DLAYER
 48
0.1
100
AcDbVertex
100
AcDb3dPolylineVertex
 10
31.25202196585285
 20
51.41737150349882
 30
-0.4000235375657678
 70
    32
  0
VERTEX
  5
BAC
330
BA4
100
AcDbEntity
  8
MY3DLAYER
 48
0.1
100
AcDbVertex
100
AcDb3dPolylineVertex
 10
31.30025815683246
 20
51.39739141899783
 30
-0.4000235061402386
 70
    32
  0
VERTEX
  5
BAD
330
BA4
100
AcDbEntity
  8
MY3DLAYER
 48
0.1
100
AcDbVertex
100
AcDb3dPolylineVertex
 10
31.35202196585306
 20
51.39057658425572
 30
-0.4000234705355939
 70
    32
  0
VERTEX
  5
BAE
330
BA4
100
AcDbEntity
  8
MY3DLAYER
 48
0.1
100
AcDbVertex
100
AcDb3dPolylineVertex
 10
31.40378577487326
 20
51.39739141899799
 30
-0.4000234331784924
 70
    32
  0
VERTEX
  5
BAF
330
BA4
100
AcDbEntity
  8
MY3DLAYER
 48
0.1
100
AcDbVertex
100
AcDb3dPolylineVertex
 10
31.45202196585288
 20
51.41737150349905
 30
-0.4000233966145356
 70
    32
  0
VERTEX
  5
BB0
330
BA4
100
AcDbEntity
  8
MY3DLAYER
 48
0.1
100
AcDbVertex
100
AcDb3dPolylineVertex
 10
31.49344332209017
 20
51.44915522801878
 30
-0.4000233633354374
 70
    32
  0
VERTEX
  5
BB1
330
BA4
100
AcDbEntity
  8
MY3DLAYER
 48
0.1
100
AcDbVertex
100
AcDb3dPolylineVertex
 10
31.52522704660978
 20
51.49057658425604
 30
-0.400023335609356
 70
    32
  0
VERTEX
  5
BB2
330
BA4
100
AcDbEntity
  8
MY3DLAYER
 48
0.1
100
AcDbVertex
100
AcDb3dPolylineVertex
 10
31.54520713111053
 20
51.53881277523547
 30
-0.4000233153256171
 70
    32
  0
VERTEX
  5
BB3
330
BA4
100
AcDbEntity
  8
MY3DLAYER
 48
0.1
100
AcDbVertex
100
AcDb3dPolylineVertex
 10
31.55202196585253
 20
51.59057658425601
 30
-0.4000233038665864
 70
    32
  0
VERTEX
  5
BB4
330
BA4
100
AcDbEntity
  8
MY3DLAYER
 48
0.1
100
AcDbVertex
100
AcDb3dPolylineVertex
 10
31.55202196584625
 20
56.60057658425603
 30
-0.4000233077180523
 70
    32
  0
VERTEX
  5
BB5
330
BA4
100
AcDbEntity
  8
MY3DLAYER
 48
0.1
100
AcDbVertex
100
AcDb3dPolylineVertex
 10
31.54520713110406
 20
56.65234039327664
 30
-0.4000233058646546
 70
    32
  0
VERTEX
  5
BB6
330
BA4
100
AcDbEntity
  8
MY3DLAYER
 48
0.1
100
AcDbVertex
100
AcDb3dPolylineVertex
 10
31.52522704660313
 20
56.70057658425595
 30
-0.400023313743191
 70
    32
  0
VERTEX
  5
BB7
330
BA4
100
AcDbEntity
  8
MY3DLAYER
 48
0.1
100
AcDbVertex
100
AcDb3dPolylineVertex
 10
31.49344332208333
 20
56.74199794049324
 30
-0.4000233308166258
 70
    32
  0
VERTEX
  5
BB8
330
BA4
100
AcDbEntity
  8
MY3DLAYER
 48
0.1
100
AcDbVertex
100
AcDb3dPolylineVertex
 10
31.45202196584603
 20
56.77378166501275
 30
-0.4000233559216963
 70
    32
  0
VERTEX
  5
BB9
330
BA4
100
AcDbEntity
  8
MY3DLAYER
 48
0.1
100
AcDbVertex
100
AcDb3dPolylineVertex
 10
31.40378577486653
 20
56.79376174951372
 30
-0.4000233873471351
 70
    32
  0
VERTEX
  5
BBA
330
BA4
100
AcDbEntity
  8
MY3DLAYER
 48
0.1
100
AcDbVertex
100
AcDb3dPolylineVertex
 10
31.35202196584602
 20
56.80057658425581
 30
-0.4000234229517347
 70
    32
  0
VERTEX
  5
BBB
330
BA4
100
AcDbEntity
  8
MY3DLAYER
 48
0.1
100
AcDbVertex
100
AcDb3dPolylineVertex
 10
31.30025815682563
 20
56.7937617495135
 30
-0.4000234603090619
 70
    32
  0
VERTEX
  5
BBC
330
BA4
100
AcDbEntity
  8
MY3DLAYER
 48
0.1
100
AcDbVertex
100
AcDb3dPolylineVertex
 10
31.25202196584625
 20
56.77378166501251
 30
-0.4000234968729285
 70
    32
  0
VERTEX
  5
BBD
330
BA4
100
AcDbEntity
  8
MY3DLAYER
 48
0.1
100
AcDbVertex
100
AcDb3dPolylineVertex
 10
31.2106006096088
 20
56.7419979404929
 30
-0.4000235301519724
 70
    32
  0
VERTEX
  5
BBE
330
BA4
100
AcDbEntity
  8
MY3DLAYER
 48
0.1
100
AcDbVertex
100
AcDb3dPolylineVertex
 10
31.17881688508943
 20
56.70057658425554
 30
-0.400023557878108
 70
    32
  0
VERTEX
  5
BBF
330
BA4
100
AcDbEntity
  8
MY3DLAYER
 48
0.1
100
AcDbVertex
100
AcDb3dPolylineVertex
 10
31.15883680058845
 20
56.65234039327619
 30
-0.4000235781617115
 70
    32
  0
SEQEND
  5
BC0
330
BA4
100
AcDbEntity
  8
Group#92
 48
0.1
  0
POLYLINE
  5
BC1
330
70
100
AcDbEntity
  8
Group#92
 48
0.1
100
AcDb3dPolyline
 66
     1
 10
0.0
 20
0.0
 30
0.0
 70
     8
  0
VERTEX
  5
BC2
330
BC1
100
AcDbEntity
  8
MY3DLAYER
 48
0.1
100
AcDbVertex
100
AcDb3dPolylineVertex
 10
32.88883680058803
 20
56.65234039327836
 30
-0.4000223450823503
 70
    32
  0
VERTEX
  5
BC3
330
BC1
100
AcDbEntity
  8
MY3DLAYER
 48
0.1
100
AcDbVertex
100
AcDb3dPolylineVertex
 10
32.88202196584592
 20
56.6005765842577
 30
-0.4000223565414802
 70
    32
  0
VERTEX
  5
BC4
330
BC1
100
AcDbEntity
  8
MY3DLAYER
 48
0.1
100
AcDbVertex
100
AcDb3dPolylineVertex
 10
32.88202196585222
 20
51.59057658425767
 30
-0.4000223526899783
 70
    32
  0
VERTEX
  5
BC5
330
BC1
100
AcDbEntity
  8
MY3DLAYER
 48
0.1
100
AcDbVertex
100
AcDb3dPolylineVertex
 10
32.88883680059449
 20
51.53881277523719
 30
-0.4000223545433578
 70
    32
  0
VERTEX
  5
BC6
330
BC1
100
AcDbEntity
  8
MY3DLAYER
 48
0.1
100
AcDbVertex
100
AcDb3dPolylineVertex
 10
32.90881688509545
 20
51.49057658425771
 30
-0.4000223466649297
 70
    32
  0
VERTEX
  5
BC7
330
BC1
100
AcDbEntity
  8
MY3DLAYER
 48
0.1
100
AcDbVertex
100
AcDb3dPolylineVertex
 10
32.94060060961517
 20
51.44915522802065
 30
-0.4000223295914769
 70
    32
  0
VERTEX
  5
BC8
330
BC1
100
AcDbEntity
  8
MY3DLAYER
 48
0.1
100
AcDbVertex
100
AcDb3dPolylineVertex
 10
32.9820219658524
 20
51.41737150350099
 30
-0.4000223044864155
 70
    32
  0
VERTEX
  5
BC9
330
BC1
100
AcDbEntity
  8
MY3DLAYER
 48
0.1
100
AcDbVertex
100
AcDb3dPolylineVertex
 10
33.03025815683197
 20
51.39739141900001
 30
-0.4000222730609224
 70
    32
  0
VERTEX
  5
BCA
330
BC1
100
AcDbEntity
  8
MY3DLAYER
 48
0.1
100
AcDbVertex
100
AcDb3dPolylineVertex
 10
33.08202196585265
 20
51.3905765842579
 30
-0.4000222374562237
 70
    32
  0
VERTEX
  5
BCB
330
BC1
100
AcDbEntity
  8
MY3DLAYER
 48
0.1
100
AcDbVertex
100
AcDb3dPolylineVertex
 10
33.13378577487291
 20
51.39739141900018
 30
-0.4000222000991581
 70
    32
  0
VERTEX
  5
BCC
330
BC1
100
AcDbEntity
  8
MY3DLAYER
 48
0.1
100
AcDbVertex
100
AcDb3dPolylineVertex
 10
33.18202196585246
 20
51.41737150350121
 30
-0.4000221635351471
 70
    32
  0
VERTEX
  5
BCD
330
BC1
100
AcDbEntity
  8
MY3DLAYER
 48
0.1
100
AcDbVertex
100
AcDb3dPolylineVertex
 10
33.22344332208971
 20
51.449155228021
 30
-0.4000221302560581
 70
    32
  0
VERTEX
  5
BCE
330
BC1
100
AcDbEntity
  8
MY3DLAYER
 48
0.1
100
AcDbVertex
100
AcDb3dPolylineVertex
 10
33.25522704660933
 20
51.49057658425821
 30
-0.4000221025300128
 70
    32
  0
VERTEX
  5
BCF
330
BC1
100
AcDbEntity
  8
MY3DLAYER
 48
0.1
100
AcDbVertex
100
AcDb3dPolylineVertex
 10
33.27520713110999
 20
51.53881277523765
 30
-0.4000220822462738
 70
    32
  0
VERTEX
  5
BD0
330
BC1
100
AcDbEntity
  8
MY3DLAYER
 48
0.1
100
AcDbVertex
100
AcDb3dPolylineVertex
 10
33.28202196585213
 20
51.59057658425817
 30
-0.4000220707872703
 70
    32
  0
VERTEX
  5
BD1
330
BC1
100
AcDbEntity
  8
MY3DLAYER
 48
0.1
100
AcDbVertex
100
AcDb3dPolylineVertex
 10
33.28202196584587
 20
56.60057658425818
 30
-0.4000220746387722
 70
    32
  0
VERTEX
  5
BD2
330
BC1
100
AcDbEntity
  8
MY3DLAYER
 48
0.1
100
AcDbVertex
100
AcDb3dPolylineVertex
 10
33.27520713110367
 20
56.65234039327884
 30
-0.4000220727852482
 70
    32
  0
VERTEX
  5
BD3
330
BC1
100
AcDbEntity
  8
MY3DLAYER
 48
0.1
100
AcDbVertex
100
AcDb3dPolylineVertex
 10
33.25522704660283
 20
56.70057658425811
 30
-0.4000220806638387
 70
    32
  0
VERTEX
  5
BD4
330
BC1
100
AcDbEntity
  8
MY3DLAYER
 48
0.1
100
AcDbVertex
100
AcDb3dPolylineVertex
 10
33.22344332208293
 20
56.74199794049543
 30
-0.4000220977372644
 70
    32
  0
VERTEX
  5
BD5
330
BC1
100
AcDbEntity
  8
MY3DLAYER
 48
0.1
100
AcDbVertex
100
AcDb3dPolylineVertex
 10
33.18202196584556
 20
56.7737816650149
 30
-0.4000221228423169
 70
    32
  0
VERTEX
  5
BD6
330
BC1
100
AcDbEntity
  8
MY3DLAYER
 48
0.1
100
AcDbVertex
100
AcDb3dPolylineVertex
 10
33.1337857748661
 20
56.79376174951586
 30
-0.4000221542678461
 70
    32
  0
VERTEX
  5
BD7
330
BC1
100
AcDbEntity
  8
MY3DLAYER
 48
0.1
100
AcDbVertex
100
AcDb3dPolylineVertex
 10
33.08202196584557
 20
56.80057658425797
 30
-0.4000221898723734
 70
    32
  0
VERTEX
  5
BD8
330
BC1
100
AcDbEntity
  8
MY3DLAYER
 48
0.1
100
AcDbVertex
100
AcDb3dPolylineVertex
 10
33.03025815682518
 20
56.79376174951567
 30
-0.4000222272297366
 70
    32
  0
VERTEX
  5
BD9
330
BC1
100
AcDbEntity
  8
MY3DLAYER
 48
0.1
100
AcDbVertex
100
AcDb3dPolylineVertex
 10
32.98202196584575
 20
56.77378166501467
 30
-0.40002226379354
 70
    32
  0
VERTEX
  5
BDA
330
BC1
100
AcDbEntity
  8
MY3DLAYER
 48
0.1
100
AcDbVertex
100
AcDb3dPolylineVertex
 10
32.94060060960837
 20
56.74199794049508
 30
-0.4000222970726472
 70
    32
  0
VERTEX
  5
BDB
330
BC1
100
AcDbEntity
  8
MY3DLAYER
 48
0.1
100
AcDbVertex
100
AcDb3dPolylineVertex
 10
32.908816885089
 20
56.70057658425768
 30
-0.4000223247987557
 70
    32
  0
VERTEX
  5
BDC
330
BC1
100
AcDbEntity
  8
MY3DLAYER
 48
0.1
100
AcDbVertex
100
AcDb3dPolylineVertex
 10
32.88883680058803
 20
56.65234039327836
 30
-0.4000223450823503
 70
    32
  0
SEQEND
  5
BDD
330
BC1
100
AcDbEntity
  8
Group#92
 48
0.1
  0
POLYLINE
  5
BDE
330
70
100
AcDbEntity
  8
Group#92
 48
0.1
100
AcDb3dPolyline
 66
     1
 10
0.0
 20
0.0
 30
0.0
 70
     8
  0
VERTEX
  5
BDF
330
BDE
100
AcDbEntity
  8
MY3DLAYER
 48
0.1
100
AcDbVertex
100
AcDb3dPolylineVertex
 10
23.25997087011317
 20
26.93428869042767
 30
-0.4000325261289285
 70
    32
  0
VERTEX
  5
BE0
330
BDE
100
AcDbEntity
  8
MY3DLAYER
 48
0.1
100
AcDbVertex
100
AcDb3dPolylineVertex
 10
26.88720898549036
 20
26.94027843804264
 30
-0.4000301066949688
 70
    32
  0
VERTEX
  5
BE1
330
BDE
100
AcDbEntity
  8
MY3DLAYER
 48
0.1
100
AcDbVertex
100
AcDb3dPolylineVertex
 10
27.58734056852875
 20
28.19190358859411
 30
-0.4000294789035908
 70
    32
  0
VERTEX
  5
BE2
330
BDE
100
AcDbEntity
  8
MY3DLAYER
 48
0.1
100
AcDbVertex
100
AcDb3dPolylineVertex
 10
26.88720898548697
 20
29.44121645010016
 30
-0.4000297851132666
 70
    32
  0
VERTEX
  5
BE3
330
BDE
100
AcDbEntity
  8
MY3DLAYER
 48
0.1
100
AcDbVertex
100
AcDb3dPolylineVertex
 10
23.25997087010978
 20
29.43522670248521
 30
-0.4000322045472083
 70
    32
  0
VERTEX
  5
BE4
330
BDE
100
AcDbEntity
  8
MY3DLAYER
 48
0.1
100
AcDbVertex
100
AcDb3dPolylineVertex
 10
22.55983928707138
 20
28.18360155193373
 30
-0.4000328323385954
 70
    32
  0
VERTEX
  5
BE5
330
BDE
100
AcDbEntity
  8
MY3DLAYER
 48
0.1
100
AcDbVertex
100
AcDb3dPolylineVertex
 10
23.25997087011317
 20
26.93428869042767
 30
-0.4000325261289285
 70
    32
  0
SEQEND
  5
BE6
330
BDE
100
AcDbEntity
  8
Group#92
 48
0.1
  0
POLYLINE
  5
BE7
330
70
100
AcDbEntity
  8
Group#92
 48
0.1
100
AcDb3dPolyline
 66
     1
 10
0.0
 20
0.0
 30
0.0
 70
     8
  0
VERTEX
  5
BE8
330
BE7
100
AcDbEntity
  8
MY3DLAYER
 48
0.1
100
AcDbVertex
100
AcDb3dPolylineVertex
 10
29.34372102505214
 20
29.02217608874081
 30
-0.4000279545954458
 70
    32
  0
VERTEX
  5
BE9
330
BE7
100
AcDbEntity
  8
MY3DLAYER
 48
0.1
100
AcDbVertex
100
AcDb3dPolylineVertex
 10
29.34372102505422
 20
27.50217608874082
 30
-0.4000281500498725
 70
    32
  0
VERTEX
  5
BEA
330
BE7
100
AcDbEntity
  8
MY3DLAYER
 48
0.1
100
AcDbVertex
100
AcDb3dPolylineVertex
 10
32.81372102505342
 20
27.50217608874516
 30
-0.4000258407721726
 70
    32
  0
VERTEX
  5
BEB
330
BE7
100
AcDbEntity
  8
MY3DLAYER
 48
0.1
100
AcDbVertex
100
AcDb3dPolylineVertex
 10
32.8137210250514
 20
29.02217608874515
 30
-0.4000256453177278
 70
    32
  0
VERTEX
  5
BEC
330
BE7
100
AcDbEntity
  8
MY3DLAYER
 48
0.1
100
AcDbVertex
100
AcDb3dPolylineVertex
 10
29.34372102505214
 20
29.02217608874081
 30
-0.4000279545954458
 70
    32
  0
SEQEND
  5
BED
330
BE7
100
AcDbEntity
  8
Group#92
 48
0.1
  0
ENDSEC
  0
SECTION
  2
OBJECTS
  0
DICTIONARY
  5
C
330
0
100
AcDbDictionary
281
     1
  3
ACAD_CIP_PREVIOUS_PRODUCT_INFO
350
1C2
  3
ACAD_COLOR
350
62
  3
ACAD_DETAILVIEWSTYLE
350
6A
  3
ACAD_GROUP
350
D
  3
ACAD_LAYOUT
350
61
  3
ACAD_MATERIAL
350
10
  3
ACAD_MLEADERSTYLE
350
65
  3
ACAD_MLINESTYLE
350
5E
  3
ACAD_PLOTSETTINGS
350
60
  3
ACAD_PLOTSTYLENAME
350
E
  3
ACAD_SCALELIST
350
42
  3
ACAD_SECTIONVIEWSTYLE
350
67
  3
ACAD_TABLESTYLE
350
63
  3
ACAD_VISUALSTYLE
350
29
  3
ACDB_RECOMPOSE_DATA
350
E7B
  3
AcDbVariableDictionary
350
1D7
  0
DICTIONARY
  5
1D1
330
2
100
AcDbDictionary
280
     1
281
     1
  3
ACAD_LAYERSTATES
360
1D2
  0
DICTIONARY
  5
1CA
330
54
100
AcDbDictionary
280
     1
281
     1
  3
ADSK_XREC_LAYER_RECONCILED
360
1CB
  0
DICTIONARY
  5
1CC
330
74
100
AcDbDictionary
280
     1
281
     1
  3
ADSK_XREC_LAYER_RECONCILED
360
1CD
  0
DICTIONARY
  5
4A0
330
49F
100
AcDbDictionary
280
     1
281
     1
  0
DICTIONARY
  5
4A2
330
4A1
100
AcDbDictionary
280
     1
281
     1
  0
XRECORD
  5
1C2
102
{ACAD_REACTORS
330
C
102
}
330
C
100
AcDbXrecord
280
     1
300
ACDMAC
300
2013
300

  0
DICTIONARY
  5
62
102
{ACAD_REACTORS
330
C
102
}
330
C
100
AcDbDictionary
281
     1
  0
DICTIONARY
  5
6A
102
{ACAD_REACTORS
330
C
102
}
330
C
100
AcDbDictionary
281
     1
  3
Imperial24
350
6B
  0
DICTIONARY
  5
D
102
{ACAD_REACTORS
330
C
102
}
330
C
100
AcDbDictionary
281
     1
  0
DICTIONARY
  5
61
102
{ACAD_REACTORS
330
C
102
}
330
C
100
AcDbDictionary
281
     1
  3
Layout1
350
6F
  3
Model
350
73
  0
DICTIONARY
  5
10
102
{ACAD_REACTORS
330
C
102
}
330
C
100
AcDbDictionary
281
     1
  3
ByBlock
350
19
  3
ByLayer
350
11
  3
Global
350
21
  0
DICTIONARY
  5
65
102
{ACAD_REACTORS
330
C
102
}
330
C
100
AcDbDictionary
281
     1
  3
Standard
350
66
  0
DICTIONARY
  5
5E
102
{ACAD_REACTORS
330
C
102
}
330
C
100
AcDbDictionary
281
     1
  3
Standard
350
5F
  0
DICTIONARY
  5
60
102
{ACAD_REACTORS
330
C
102
}
330
C
100
AcDbDictionary
281
     1
  0
ACDBDICTIONARYWDFLT
  5
E
102
{ACAD_REACTORS
330
C
102
}
330
C
100
AcDbDictionary
281
     1
  3
Normal
350
F
100
AcDbDictionaryWithDefault
340
F
  0
DICTIONARY
  5
42
102
{ACAD_REACTORS
330
C
102
}
330
C
100
AcDbDictionary
281
     1
  3
A0
350
43
  3
A1
350
44
  3
A2
350
45
  3
A3
350
46
  3
A4
350
47
  3
A5
350
48
  3
A6
350
49
  3
A7
350
4A
  3
A8
350
4B
  3
A9
350
4C
  3
B0
350
4D
  3
B1
350
4E
  3
B2
350
4F
  3
B3
350
50
  3
B4
350
51
  3
B5
350
52
  3
B6
350
53
  0
DICTIONARY
  5
67
102
{ACAD_REACTORS
330
C
102
}
330
C
100
AcDbDictionary
281
     1
  3
Imperial24
350
69
  0
DICTIONARY
  5
63
102
{ACAD_REACTORS
330
C
102
}
330
C
100
AcDbDictionary
281
     1
  3
Standard
350
64
  0
DICTIONARY
  5
29
102
{ACAD_REACTORS
330
C
102
}
330
C
100
AcDbDictionary
281
     1
  3
2dWireframe
350
2F
  3
Basic
350
2E
  3
Brighten
350
35
  3
ColorChange
350
39
  3
Conceptual
350
32
  3
Dim
350
34
  3
EdgeColorOff
350
41
  3
Facepattern
350
38
  3
Flat
350
2A
  3
FlatWithEdges
350
2B
  3
Gouraud
350
2C
  3
GouraudWithEdges
350
2D
  3
Hidden
350
31
  3
JitterOff
350
3F
  3
Linepattern
350
37
  3
OverhangOff
350
40
  3
Realistic
350
33
  3
Shaded
350
3E
  3
Shaded with edges
350
3D
  3
Shades of Gray
350
3A
  3
Sketchy
350
3B
  3
Thicken
350
36
  3
Wireframe
350
30
  3
X-Ray
350
3C
  0
XRECORD
  5
E7B
102
{ACAD_REACTORS
330
C
102
}
330
C
100
AcDbXrecord
280
     1
 90
        1
330
64
  0
DICTIONARY
  5
1D7
102
{ACAD_REACTORS
330
C
102
}
330
C
100
AcDbDictionary
281
     1
  3
CANNOSCALE
350
1DD
  3
CMLEADERSTYLE
350
1D9
  3
CTABLESTYLE
350
1D8
  3
CVIEWDETAILSTYLE
350
1DA
  3
CVIEWSECTIONSTYLE
350
1DB
  3
EXPORTMODELSPACE
350
1E9
  3
EXPORTPAGESETUP
350
492
  3
LAYEREVAL
350
1DF
  3
LAYERNOTIFY
350
1E0
  3
LIGHTINGUNITS
350
1DE
  3
MSLTSCALE
350
1DC
  0
DICTIONARY
  5
1D2
102
{ACAD_REACTORS
330
1D1
102
}
330
1D1
100
AcDbDictionary
281
     1
  0
XRECORD
  5
1CB
102
{ACAD_REACTORS
330
1CA
102
}
330
1CA
100
AcDbXrecord
280
     1
290
     1
  0
XRECORD
  5
1CD
102
{ACAD_REACTORS
330
1CC
102
}
330
1CC
100
AcDbXrecord
280
     1
290
     1
  0
ACDBDETAILVIEWSTYLE
  5
6B
102
{ACAD_REACTORS
330
6A
102
}
330
6A
100
AcDbModelDocViewStyle
 70
     0
  3
Imperial24
290
     0
100
AcDbDetailViewStyle
 70
     0
 71
     0
 90
        3
 71
     1
340
55
 62
   256
 40
0.24
340
0
 62
   256
 40
0.24
300

 40
0.36
280
     3
 71
     2
340
5C
 90
       25
 62
   256
 71
     3
340
55
 62
   256
 40
0.24
 90
        1
 40
0.75
 90
        1
300
%<\AcVar ViewType \f "%tc1">% %<\AcVar ViewDetailId>%\PSCALE %<\AcVar ViewScale \f "%sn">%
 71
     4
340
5C
 90
       25
 62
   256
340
5C
 90
       25
 62
   256
280
     0
  0
LAYOUT
  5
6F
102
{ACAD_REACTORS
330
61
102
}
330
61
100
AcDbPlotSettings
  1

  2
None
  4

  6

 40
0.0
 41
0.0
 42
0.0
 43
0.0
 44
0.0
 45
0.0
 46
0.0
 47
0.0
 48
0.0
 49
0.0
140
0.0
141
0.0
142
1.0
143
1.0
 70
   688
 72
     0
 73
     0
 74
     5
  7

 75
    16
147
1.0
 76
     0
 77
     2
 78
   300
148
0.0
149
0.0
100
AcDbLayout
  1
Layout1
 70
     1
 71
     1
 10
0.0
 20
0.0
 11
12.0
 21
9.0
 12
0.0
 22
0.0
 32
0.0
 14
1.000000000000000E+20
 24
1.000000000000000E+20
 34
1.000000000000000E+20
 15
-1.000000000000000E+20
 25
-1.000000000000000E+20
 35
-1.000000000000000E+20
146
0.0
 13
0.0
 23
0.0
 33
0.0
 16
1.0
 26
0.0
 36
0.0
 17
0.0
 27
1.0
 37
0.0
 76
     0
330
6C
  0
LAYOUT
  5
73
102
{ACAD_XDICTIONARY
360
1E6
102
}
102
{ACAD_REACTORS
330
61
102
}
330
61
100
AcDbPlotSettings
  1

  2
none_device
  4
A4
  6

 40
6.349999904632568
 41
14.46388912200928
 42
6.349990844726562
 43
6.3499755859375
 44
209.9027709960938
 45
297.0388793945312
 46
0.0
 47
0.0
 48
0.0
 49
0.0
140
0.0
141
0.0
142
1.0
143
8.099537970786183
 70
 11952
 72
     0
 73
     1
 74
     0
  7

 75
     0
147
0.1234638325799385
 76
     0
 77
     2
 78
   300
148
795.0627192397948
149
405.6838719672858
100
AcDbLayout
  1
Model
 70
     1
 71
     0
 10
0.0
 20
0.0
 11
12.0
 21
9.0
 12
0.0
 22
0.0
 32
0.0
 14
0.0
 24
0.0
 34
0.0
 15
0.0
 25
0.0
 35
0.0
146
0.0
 13
0.0
 23
0.0
 33
0.0
 16
1.0
 26
0.0
 36
0.0
 17
0.0
 27
1.0
 37
0.0
 76
     0
330
70
331
1C1
1001
ACAD_PSEXT
1000
None
1000
None
1000
Not applicable
1000
The layout will not be plotted unless a new plotter configuration name is selected.
1070
     0
  0
MATERIAL
  5
19
102
{ACAD_XDICTIONARY
360
1A
102
}
102
{ACAD_REACTORS
330
10
102
}
330
10
100
AcDbMaterial
  1
ByBlock
 72
     0
 43
0.0208333333333333
 43
0.0
 43
0.0
 43
0.0
 43
0.0
 43
0.0208333333333333
 43
0.0
 43
0.0
 43
0.0
 43
0.0
 43
1.0
 43
0.0
 43
0.0
 43
0.0
 43
0.0
 43
1.0
 77
     0
 47
0.0208333333333333
 47
0.0
 47
0.0
 47
0.0
 47
0.0
 47
0.0208333333333333
 47
0.0
 47
0.0
 47
0.0
 47
0.0
 47
1.0
 47
0.0
 47
0.0
 47
0.0
 47
0.0
 47
1.0
171
     0
 49
0.0208333333333333
 49
0.0
 49
0.0
 49
0.0
 49
0.0
 49
0.0208333333333333
 49
0.0
 49
0.0
 49
0.0
 49
0.0
 49
1.0
 49
0.0
 49
0.0
 49
0.0
 49
0.0
 49
1.0
175
     0
142
0.0208333333333333
142
0.0
142
0.0
142
0.0
142
0.0
142
0.0208333333333333
142
0.0
142
0.0
142
0.0
142
0.0
142
1.0
142
0.0
142
0.0
142
0.0
142
0.0
142
1.0
179
     0
144
0.0208333333333333
144
0.0
144
0.0
144
0.0
144
0.0
144
0.0208333333333333
144
0.0
144
0.0
144
0.0
144
0.0
144
1.0
144
0.0
144
0.0
144
0.0
144
0.0
144
1.0
147
0.0208333333333333
147
0.0
147
0.0
147
0.0
147
0.0
147
0.0208333333333333
147
0.0
147
0.0
147
0.0
147
0.0
147
1.0
147
0.0
147
0.0
147
0.0
147
0.0
147
1.0
  0
MATERIAL
  5
11
102
{ACAD_XDICTIONARY
360
12
102
}
102
{ACAD_REACTORS
330
10
102
}
330
10
100
AcDbMaterial
  1
ByLayer
 72
     0
 43
0.0208333333333333
 43
0.0
 43
0.0
 43
0.0
 43
0.0
 43
0.0208333333333333
 43
0.0
 43
0.0
 43
0.0
 43
0.0
 43
1.0
 43
0.0
 43
0.0
 43
0.0
 43
0.0
 43
1.0
 77
     0
 47
0.0208333333333333
 47
0.0
 47
0.0
 47
0.0
 47
0.0
 47
0.0208333333333333
 47
0.0
 47
0.0
 47
0.0
 47
0.0
 47
1.0
 47
0.0
 47
0.0
 47
0.0
 47
0.0
 47
1.0
171
     0
 49
0.0208333333333333
 49
0.0
 49
0.0
 49
0.0
 49
0.0
 49
0.0208333333333333
 49
0.0
 49
0.0
 49
0.0
 49
0.0
 49
1.0
 49
0.0
 49
0.0
 49
0.0
 49
0.0
 49
1.0
175
     0
142
0.0208333333333333
142
0.0
142
0.0
142
0.0
142
0.0
142
0.0208333333333333
142
0.0
142
0.0
142
0.0
142
0.0
142
1.0
142
0.0
142
0.0
142
0.0
142
0.0
142
1.0
179
     0
144
0.0208333333333333
144
0.0
144
0.0
144
0.0
144
0.0
144
0.0208333333333333
144
0.0
144
0.0
144
0.0
144
0.0
144
1.0
144
0.0
144
0.0
144
0.0
144
0.0
144
1.0
147
0.0208333333333333
147
0.0
147
0.0
147
0.0
147
0.0
147
0.0208333333333333
147
0.0
147
0.0
147
0.0
147
0.0
147
1.0
147
0.0
147
0.0
147
0.0
147
0.0
147
1.0
  0
MATERIAL
  5
21
102
{ACAD_XDICTIONARY
360
22
102
}
102
{ACAD_REACTORS
330
10
102
}
330
10
100
AcDbMaterial
  1
Global
 72
     0
 43
0.0208333333333333
 43
0.0
 43
0.0
 43
0.0
 43
0.0
 43
0.0208333333333333
 43
0.0
 43
0.0
 43
0.0
 43
0.0
 43
1.0
 43
0.0
 43
0.0
 43
0.0
 43
0.0
 43
1.0
 77
     0
 47
0.0208333333333333
 47
0.0
 47
0.0
 47
0.0
 47
0.0
 47
0.0208333333333333
 47
0.0
 47
0.0
 47
0.0
 47
0.0
 47
1.0
 47
0.0
 47
0.0
 47
0.0
 47
0.0
 47
1.0
171
     0
 49
0.0208333333333333
 49
0.0
 49
0.0
 49
0.0
 49
0.0
 49
0.0208333333333333
 49
0.0
 49
0.0
 49
0.0
 49
0.0
 49
1.0
 49
0.0
 49
0.0
 49
0.0
 49
0.0
 49
1.0
175
     0
142
0.0208333333333333
142
0.0
142
0.0
142
0.0
142
0.0
142
0.0208333333333333
142
0.0
142
0.0
142
0.0
142
0.0
142
1.0
142
0.0
142
0.0
142
0.0
142
0.0
142
1.0
179
     0
144
0.0208333333333333
144
0.0
144
0.0
144
0.0
144
0.0
144
0.0208333333333333
144
0.0
144
0.0
144
0.0
144
0.0
144
1.0
144
0.0
144
0.0
144
0.0
144
0.0
144
1.0
147
0.0208333333333333
147
0.0
147
0.0
147
0.0
147
0.0
147
0.0208333333333333
147
0.0
147
0.0
147
0.0
147
0.0
147
1.0
147
0.0
147
0.0
147
0.0
147
0.0
147
1.0
  0
MLEADERSTYLE
  5
66
102
{ACAD_REACTORS
330
65
102
}
330
65
100
AcDbMLeaderStyle
179
     2
170
     2
171
     1
172
     0
 90
        2
 40
0.0
 41
0.0
173
     1
 91
-1056964608
340
5A
 92
       -2
290
     1
 42
0.09
291
     1
 43
0.36
  3
Standard
 44
0.18
300

342
55
174
     1
178
     6
175
     1
176
     0
 93
-1056964608
 45
0.18
292
     0
297
     0
 46
0.18
 94
-1056964608
 47
1.0
 49
1.0
140
1.0
293
     1
141
0.0
294
     1
177
     0
142
1.0
295
     0
296
     0
143
0.125
271
     0
272
     9
273
     9
298
     0
  0
MLINESTYLE
  5
5F
102
{ACAD_REACTORS
330
5E
102
}
330
5E
100
AcDbMlineStyle
  2
STANDARD
 70
     0
  3

 62
   256
 51
90.0
 52
90.0
 71
     2
 49
0.5
 62
   256
  6
BYLAYER
 49
-0.5
 62
   256
  6
BYLAYER
  0
ACDBPLACEHOLDER
  5
F
102
{ACAD_REACTORS
330
E
102
}
330
E
  0
SCALE
  5
43
102
{ACAD_REACTORS
330
42
102
}
330
42
100
AcDbScale
 70
     0
300
1:1
140
1.0
141
1.0
290
     1
  0
SCALE
  5
44
102
{ACAD_REACTORS
330
42
102
}
330
42
100
AcDbScale
 70
     0
300
1/128" = 1'-0"
140
0.0078125
141
12.0
290
     0
  0
SCALE
  5
45
102
{ACAD_REACTORS
330
42
102
}
330
42
100
AcDbScale
 70
     0
300
1/64" = 1'-0"
140
0.015625
141
12.0
290
     0
  0
SCALE
  5
46
102
{ACAD_REACTORS
330
42
102
}
330
42
100
AcDbScale
 70
     0
300
1/32" = 1'-0"
140
0.03125
141
12.0
290
     0
  0
SCALE
  5
47
102
{ACAD_REACTORS
330
42
102
}
330
42
100
AcDbScale
 70
     0
300
1/16" = 1'-0"
140
0.0625
141
12.0
290
     0
  0
SCALE
  5
48
102
{ACAD_REACTORS
330
42
102
}
330
42
100
AcDbScale
 70
     0
300
3/32" = 1'-0"
140
0.09375
141
12.0
290
     0
  0
SCALE
  5
49
102
{ACAD_REACTORS
330
42
102
}
330
42
100
AcDbScale
 70
     0
300
1/8" = 1'-0"
140
0.125
141
12.0
290
     0
  0
SCALE
  5
4A
102
{ACAD_REACTORS
330
42
102
}
330
42
100
AcDbScale
 70
     0
300
3/16" = 1'-0"
140
0.1875
141
12.0
290
     0
  0
SCALE
  5
4B
102
{ACAD_REACTORS
330
42
102
}
330
42
100
AcDbScale
 70
     0
300
1/4" = 1'-0"
140
0.25
141
12.0
290
     0
  0
SCALE
  5
4C
102
{ACAD_REACTORS
330
42
102
}
330
42
100
AcDbScale
 70
     0
300
3/8" = 1'-0"
140
0.375
141
12.0
290
     0
  0
SCALE
  5
4D
102
{ACAD_REACTORS
330
42
102
}
330
42
100
AcDbScale
 70
     0
300
1/2" = 1'-0"
140
0.5
141
12.0
290
     0
  0
SCALE
  5
4E
102
{ACAD_REACTORS
330
42
102
}
330
42
100
AcDbScale
 70
     0
300
3/4" = 1'-0"
140
0.75
141
12.0
290
     0
  0
SCALE
  5
4F
102
{ACAD_REACTORS
330
42
102
}
330
42
100
AcDbScale
 70
     0
300
1" = 1'-0"
140
1.0
141
12.0
290
     0
  0
SCALE
  5
50
102
{ACAD_REACTORS
330
42
102
}
330
42
100
AcDbScale
 70
     0
300
1-1/2" = 1'-0"
140
1.5
141
12.0
290
     0
  0
SCALE
  5
51
102
{ACAD_REACTORS
330
42
102
}
330
42
100
AcDbScale
 70
     0
300
3" = 1'-0"
140
3.0
141
12.0
290
     0
  0
SCALE
  5
52
102
{ACAD_REACTORS
330
42
102
}
330
42
100
AcDbScale
 70
     0
300
6" = 1'-0"
140
6.0
141
12.0
290
     0
  0
SCALE
  5
53
102
{ACAD_REACTORS
330
42
102
}
330
42
100
AcDbScale
 70
     0
300
1'-0" = 1'-0"
140
12.0
141
12.0
290
     0
  0
ACDBSECTIONVIEWSTYLE
  5
69
102
{ACAD_REACTORS
330
67
102
}
330
67
100
AcDbModelDocViewStyle
 70
     0
  3
Imperial24
290
     0
100
AcDbSectionViewStyle
 70
     0
 71
     0
 90
       78
 71
     1
340
55
 62
   256
 40
0.24
340
0
340
0
 62
   256
 40
0.24
300
I, O, Q, S, X, Z
 40
0.48
 90
        3
 40
0.18
 90
        1
 71
     2
340
68
 90
       25
 62
   256
340
5C
 90
       50
 62
   256
 40
0.24
 40
0.0
 40
0.24
 71
     3
340
55
 62
   256
 40
0.24
 90
        1
 40
0.75
 90
        1
300
%<\AcVar ViewType \f "%tc1">% %<\AcVar ViewSectionStartId>%-%<\AcVar ViewSectionEndId>%\PSCALE %<\AcVar ViewScale \f "%sn">%
 71
     4
 62
   256
 62
   257
300
ANSI31
 40
1.0
 90
        0
290
     0
290
     0
 90
        6
 40
0.0
 40
1.570796326794896
 40
0.2617993877991494
 40
1.308996938995747
 40
-0.2617993877991494
 40
1.832595714594046
  0
TABLESTYLE
  5
64
102
{ACAD_XDICTIONARY
360
E79
102
}
102
{ACAD_REACTORS
330
63
102
}
330
63
100
AcDbTableStyle
280
     0
  3
Standard
 70
     0
 71
     0
 40
0.06
 41
0.06
280
     0
281
     0
  7
Standard
140
0.18
170
     2
 62
     0
 63
     7
283
     0
 90
      512
 91
        0
  1

274
    -2
284
     1
 64
     0
275
    -2
285
     1
 65
     0
276
    -2
286
     1
 66
     0
277
    -2
287
     1
 67
     0
278
    -2
288
     1
 68
     0
279
    -2
289
     1
 69
     0
  7
Standard
140
0.25
170
     5
 62
     0
 63
     7
283
     0
 90
      512
 91
        0
  1

274
    -2
284
     1
 64
     0
275
    -2
285
     1
 65
     0
276
    -2
286
     1
 66
     0
277
    -2
287
     1
 67
     0
278
    -2
288
     1
 68
     0
279
    -2
289
     1
 69
     0
  7
Standard
140
0.18
170
     5
 62
     0
 63
     7
283
     0
 90
      512
 91
        0
  1

274
    -2
284
     1
 64
     0
275
    -2
285
     1
 65
     0
276
    -2
286
     1
 66
     0
277
    -2
287
     1
 67
     0
278
    -2
288
     1
 68
     0
279
    -2
289
     1
 69
     0
  0
VISUALSTYLE
  5
2F
102
{ACAD_REACTORS
330
29
102
}
330
29
100
AcDbVisualStyle
  2
2dWireframe
 70
     4
177
     3
291
     0
 70
    58
 90
        0
176
     1
 90
        2
176
     1
 90
        0
176
     1
 90
        0
176
     1
 40
0.6
176
     1
 40
30.0
176
     1
 62
     7
420
 16777215
176
     1
 90
        1
176
     1
 90
        4
176
     1
 62
     7
176
     1
 62
   257
176
     1
 90
        1
176
     1
 90
        1
176
     1
 40
1.0
176
     1
 90
        0
176
     1
 62
   257
176
     1
 40
1.0
176
     1
 90
        1
176
     1
 90
        6
176
     1
 90
        2
176
     1
 62
     7
176
     1
 90
        5
176
     1
 90
        0
176
     1
 90
        0
176
     1
290
     0
176
     1
 90
        1
176
     1
 40
0.0
176
     1
 90
        0
176
     1
290
     1
176
     1
290
     1
176
     1
290
     0
176
     1
290
     0
176
     1
290
     0
176
     1
290
     0
176
     1
290
     0
176
     1
290
     0
176
     1
290
     0
176
     1
 90
       50
176
     1
 40
0.0
176
     1
 40
1.0
176
     1
 90
        0
176
     1
 62
    18
420
        0
176
     1
 90
       50
176
     1
 90
        3
176
     1
 62
     5
420
      255
176
     1
290
     0
176
     1
 90
       50
176
     1
 90
       50
176
     1
 90
       50
176
     1
290
     0
176
     1
 90
       50
176
     1
 62
   256
176
     0
 40
1.0
176
     0
 90
        2
176
     1
  1
strokes_ogs.tif
176
     1
290
     0
176
     1
 40
1.0
176
     1
 40
1.0
176
     1
  0
VISUALSTYLE
  5
2E
102
{ACAD_REACTORS
330
29
102
}
330
29
100
AcDbVisualStyle
  2
Basic
 70
     7
177
     3
291
     1
 70
    58
 90
        1
176
     1
 90
        0
176
     1
 90
        1
176
     1
 90
        0
176
     1
 40
0.6
176
     1
 40
30.0
176
     1
 62
     7
420
 16777215
176
     1
 90
        0
176
     1
 90
        4
176
     1
 62
     7
176
     1
 62
   257
176
     1
 90
        1
176
     1
 90
        1
176
     1
 40
1.0
176
     1
 90
        8
176
     1
 62
     7
176
     1
 40
1.0
176
     1
 90
        1
176
     1
 90
        6
176
     1
 90
        2
176
     1
 62
     7
176
     1
 90
        5
176
     1
 90
        0
176
     1
 90
        0
176
     1
290
     0
176
     1
 90
        1
176
     1
 40
0.0
176
     1
 90
        0
176
     1
290
     0
176
     1
290
     1
176
     1
290
     1
176
     1
290
     0
176
     1
290
     0
176
     1
290
     0
176
     1
290
     0
176
     1
290
     0
176
     1
290
     0
176
     1
 90
       50
176
     1
 40
0.0
176
     1
 40
1.0
176
     1
 90
        0
176
     1
 62
    18
420
        0
176
     1
 90
       50
176
     1
 90
        3
176
     1
 62
     5
420
      255
176
     1
290
     0
176
     1
 90
       50
176
     1
 90
       50
176
     1
 90
       50
176
     1
290
     0
176
     1
 90
       50
176
     1
 62
   256
176
     0
 40
1.0
176
     0
 90
        2
176
     1
  1
strokes_ogs.tif
176
     1
290
     0
176
     1
 40
1.0
176
     1
 40
1.0
176
     1
  0
VISUALSTYLE
  5
35
102
{ACAD_REACTORS
330
29
102
}
330
29
100
AcDbVisualStyle
  2
Brighten
 70
    12
177
     3
291
     1
 70
    58
 90
        2
176
     1
 90
        2
176
     1
 90
        0
176
     1
 90
        0
176
     1
 40
0.6
176
     1
 40
30.0
176
     1
 62
     7
420
 16777215
176
     1
 90
        1
176
     1
 90
        4
176
     1
 62
     7
176
     1
 62
   257
176
     1
 90
        1
176
     1
 90
        1
176
     1
 40
1.0
176
     1
 90
        8
176
     1
 62
     7
176
     1
 40
1.0
176
     1
 90
        1
176
     1
 90
        6
176
     1
 90
        2
176
     1
 62
     7
176
     1
 90
        5
176
     1
 90
        0
176
     1
 90
        0
176
     1
290
     0
176
     1
 90
        1
176
     1
 40
50.0
176
     1
 90
        0
176
     1
290
     0
176
     1
290
     1
176
     1
290
     1
176
     1
290
     0
176
     1
290
     0
176
     1
290
     0
176
     1
290
     0
176
     1
290
     0
176
     1
290
     0
176
     1
 90
       50
176
     1
 40
0.0
176
     1
 40
1.0
176
     1
 90
        0
176
     1
 62
    18
420
        0
176
     1
 90
       50
176
     1
 90
        3
176
     1
 62
     5
420
      255
176
     1
290
     0
176
     1
 90
       50
176
     1
 90
       50
176
     1
 90
       50
176
     1
290
     0
176
     1
 90
       50
176
     1
 62
   256
176
     0
 40
1.0
176
     0
 90
        2
176
     1
  1
strokes_ogs.tif
176
     1
290
     0
176
     1
 40
1.0
176
     1
 40
1.0
176
     1
  0
VISUALSTYLE
  5
39
102
{ACAD_REACTORS
330
29
102
}
330
29
100
AcDbVisualStyle
  2
ColorChange
 70
    16
177
     3
291
     1
 70
    58
 90
        2
176
     1
 90
        2
176
     1
 90
        3
176
     1
 90
        0
176
     1
 40
0.6
176
     1
 40
30.0
176
     1
 62
     8
420
  8421504
176
     1
 90
        1
176
     1
 90
        4
176
     1
 62
     7
176
     1
 62
   257
176
     1
 90
        1
176
     1
 90
        1
176
     1
 40
1.0
176
     1
 90
        8
176
     1
 62
     8
420
  8421504
176
     1
 40
1.0
176
     1
 90
        1
176
     1
 90
        6
176
     1
 90
        2
176
     1
 62
     7
176
     1
 90
        5
176
     1
 90
        0
176
     1
 90
        0
176
     1
290
     0
176
     1
 90
        1
176
     1
 40
0.0
176
     1
 90
        0
176
     1
290
     0
176
     1
290
     1
176
     1
290
     1
176
     1
290
     0
176
     1
290
     0
176
     1
290
     0
176
     1
290
     0
176
     1
290
     0
176
     1
290
     0
176
     1
 90
       50
176
     1
 40
0.0
176
     1
 40
1.0
176
     1
 90
        0
176
     1
 62
    18
420
        0
176
     1
 90
       50
176
     1
 90
        3
176
     1
 62
     5
420
      255
176
     1
290
     0
176
     1
 90
       50
176
     1
 90
       50
176
     1
 90
       50
176
     1
290
     0
176
     1
 90
       50
176
     1
 62
   256
176
     0
 40
1.0
176
     0
 90
        2
176
     1
  1
strokes_ogs.tif
176
     1
290
     0
176
     1
 40
1.0
176
     1
 40
1.0
176
     1
  0
VISUALSTYLE
  5
32
102
{ACAD_REACTORS
330
29
102
}
330
29
100
AcDbVisualStyle
  2
Conceptual
 70
     9
177
     3
291
     0
 70
    58
 90
        3
176
     1
 90
        2
176
     1
 90
        0
176
     1
 90
        0
176
     1
 40
0.6
176
     1
 40
30.0
176
     1
 62
     7
420
 16777215
176
     1
 90
        2
176
     1
 90
        2
176
     1
 62
     7
176
     1
 62
   257
176
     1
 90
        1
176
     1
 90
        1
176
     1
 40
179.0
176
     1
 90
        8
176
     1
 62
     7
176
     1
 40
1.0
176
     1
 90
        1
176
     1
 90
        6
176
     1
 90
        2
176
     1
 62
     7
176
     1
 90
        3
176
     1
 90
        0
176
     1
 90
        0
176
     1
290
     0
176
     1
 90
        1
176
     1
 40
0.0
176
     1
 90
        0
176
     1
290
     0
176
     1
290
     1
176
     1
290
     1
176
     1
290
     0
176
     1
290
     0
176
     1
290
     0
176
     1
290
     0
176
     1
290
     0
176
     1
290
     0
176
     1
 90
       50
176
     1
 40
0.0
176
     1
 40
1.0
176
     1
 90
        0
176
     1
 62
    18
420
        0
176
     1
 90
       50
176
     1
 90
        3
176
     1
 62
     5
420
      255
176
     1
290
     0
176
     1
 90
       50
176
     1
 90
       50
176
     1
 90
       50
176
     1
290
     0
176
     1
 90
       50
176
     1
 62
   256
176
     0
 40
1.0
176
     0
 90
        2
176
     1
  1
strokes_ogs.tif
176
     1
290
     0
176
     1
 40
1.0
176
     1
 40
1.0
176
     1
  0
VISUALSTYLE
  5
34
102
{ACAD_REACTORS
330
29
102
}
330
29
100
AcDbVisualStyle
  2
Dim
 70
    11
177
     3
291
     1
 70
    58
 90
        2
176
     1
 90
        2
176
     1
 90
        0
176
     1
 90
        0
176
     1
 40
0.6
176
     1
 40
30.0
176
     1
 62
     7
420
 16777215
176
     1
 90
        1
176
     1
 90
        4
176
     1
 62
     7
176
     1
 62
   257
176
     1
 90
        1
176
     1
 90
        1
176
     1
 40
1.0
176
     1
 90
        8
176
     1
 62
     7
176
     1
 40
1.0
176
     1
 90
        1
176
     1
 90
        6
176
     1
 90
        2
176
     1
 62
     7
176
     1
 90
        5
176
     1
 90
        0
176
     1
 90
        0
176
     1
290
     0
176
     1
 90
        1
176
     1
 40
-50.0
176
     1
 90
        0
176
     1
290
     0
176
     1
290
     1
176
     1
290
     1
176
     1
290
     0
176
     1
290
     0
176
     1
290
     0
176
     1
290
     0
176
     1
290
     0
176
     1
290
     0
176
     1
 90
       50
176
     1
 40
0.0
176
     1
 40
1.0
176
     1
 90
        0
176
     1
 62
    18
420
        0
176
     1
 90
       50
176
     1
 90
        3
176
     1
 62
     5
420
      255
176
     1
290
     0
176
     1
 90
       50
176
     1
 90
       50
176
     1
 90
       50
176
     1
290
     0
176
     1
 90
       50
176
     1
 62
   256
176
     0
 40
1.0
176
     0
 90
        2
176
     1
  1
strokes_ogs.tif
176
     1
290
     0
176
     1
 40
1.0
176
     1
 40
1.0
176
     1
  0
VISUALSTYLE
  5
41
102
{ACAD_REACTORS
330
29
102
}
330
29
100
AcDbVisualStyle
  2
EdgeColorOff
 70
    22
177
     3
291
     1
 70
    58
 90
        2
176
     0
 90
        2
176
     0
 90
        0
176
     0
 90
        0
176
     0
 40
0.6
176
     0
 40
30.0
176
     0
 62
     7
420
 16777215
176
     0
 90
        1
176
     0
 90
        4
176
     0
 62
     7
176
     0
 62
   257
176
     0
 90
        1
176
     0
 90
        1
176
     0
 40
1.0
176
     0
 90
        8
176
     2
 62
     7
176
     0
 40
1.0
176
     0
 90
        1
176
     0
 90
        6
176
     0
 90
        2
176
     0
 62
     7
176
     0
 90
        5
176
     0
 90
        0
176
     0
 90
        0
176
     0
290
     0
176
     0
 90
        1
176
     0
 40
0.0
176
     0
 90
        0
176
     0
290
     0
176
     1
290
     1
176
     1
290
     1
176
     1
290
     0
176
     1
290
     0
176
     1
290
     0
176
     1
290
     0
176
     1
290
     0
176
     1
290
     0
176
     1
 90
       50
176
     0
 40
0.0
176
     0
 40
1.0
176
     0
 90
        0
176
     0
 62
    18
420
        0
176
     0
 90
       50
176
     0
 90
        3
176
     0
 62
     5
420
      255
176
     0
290
     0
176
     1
 90
       50
176
     0
 90
       50
176
     0
 90
       50
176
     0
290
     0
176
     1
 90
       50
176
     0
 62
   256
176
     0
 40
1.0
176
     0
 90
        2
176
     0
  1
strokes_ogs.tif
176
     0
290
     0
176
     1
 40
1.0
176
     0
 40
1.0
176
     0
  0
VISUALSTYLE
  5
38
102
{ACAD_REACTORS
330
29
102
}
330
29
100
AcDbVisualStyle
  2
Facepattern
 70
    15
177
     3
291
     1
 70
    58
 90
        2
176
     1
 90
        2
176
     1
 90
        0
176
     1
 90
        0
176
     1
 40
0.6
176
     1
 40
30.0
176
     1
 62
     7
420
 16777215
176
     1
 90
        1
176
     1
 90
        4
176
     1
 62
     7
176
     1
 62
   257
176
     1
 90
        1
176
     1
 90
        1
176
     1
 40
1.0
176
     1
 90
        8
176
     1
 62
     7
176
     1
 40
1.0
176
     1
 90
        1
176
     1
 90
        6
176
     1
 90
        2
176
     1
 62
     7
176
     1
 90
        5
176
     1
 90
        0
176
     1
 90
        0
176
     1
290
     0
176
     1
 90
        1
176
     1
 40
0.0
176
     1
 90
        0
176
     1
290
     0
176
     1
290
     1
176
     1
290
     1
176
     1
290
     0
176
     1
290
     0
176
     1
290
     0
176
     1
290
     0
176
     1
290
     0
176
     1
290
     0
176
     1
 90
       50
176
     1
 40
0.0
176
     1
 40
1.0
176
     1
 90
        0
176
     1
 62
    18
420
        0
176
     1
 90
       50
176
     1
 90
        3
176
     1
 62
     5
420
      255
176
     1
290
     0
176
     1
 90
       50
176
     1
 90
       50
176
     1
 90
       50
176
     1
290
     0
176
     1
 90
       50
176
     1
 62
   256
176
     0
 40
1.0
176
     0
 90
        2
176
     1
  1
strokes_ogs.tif
176
     1
290
     0
176
     1
 40
1.0
176
     1
 40
1.0
176
     1
  0
VISUALSTYLE
  5
2A
102
{ACAD_REACTORS
330
29
102
}
330
29
100
AcDbVisualStyle
  2
Flat
 70
     0
177
     3
291
     1
 70
    58
 90
        2
176
     1
 90
        1
176
     1
 90
        1
176
     1
 90
        2
176
     1
 40
0.6
176
     1
 40
30.0
176
     1
 62
     7
420
 16777215
176
     1
 90
        0
176
     1
 90
        0
176
     1
 62
     7
176
     1
 62
   257
176
     1
 90
        1
176
     1
 90
        1
176
     1
 40
1.0
176
     1
 90
        8
176
     1
 62
     7
176
     1
 40
1.0
176
     1
 90
        1
176
     1
 90
        6
176
     1
 90
        2
176
     1
 62
     7
176
     1
 90
        5
176
     1
 90
        0
176
     1
 90
        0
176
     1
290
     0
176
     1
 90
       13
176
     1
 40
0.0
176
     1
 90
        0
176
     1
290
     0
176
     1
290
     1
176
     1
290
     1
176
     1
290
     0
176
     1
290
     0
176
     1
290
     0
176
     1
290
     0
176
     1
290
     0
176
     1
290
     0
176
     1
 90
       50
176
     1
 40
0.0
176
     1
 40
1.0
176
     1
 90
        0
176
     1
 62
    18
420
        0
176
     1
 90
       50
176
     1
 90
        3
176
     1
 62
     5
420
      255
176
     1
290
     0
176
     1
 90
       50
176
     1
 90
       50
176
     1
 90
       50
176
     1
290
     0
176
     1
 90
       50
176
     1
 62
   256
176
     0
 40
1.0
176
     0
 90
        2
176
     1
  1
strokes_ogs.tif
176
     1
290
     0
176
     1
 40
1.0
176
     1
 40
1.0
176
     1
  0
VISUALSTYLE
  5
2B
102
{ACAD_REACTORS
330
29
102
}
330
29
100
AcDbVisualStyle
  2
FlatWithEdges
 70
     1
177
     3
291
     1
 70
    58
 90
        2
176
     1
 90
        1
176
     1
 90
        1
176
     1
 90
        2
176
     1
 40
0.6
176
     1
 40
30.0
176
     1
 62
     7
420
 16777215
176
     1
 90
        1
176
     1
 90
        0
176
     1
 62
     7
176
     1
 62
   257
176
     1
 90
        1
176
     1
 90
        1
176
     1
 40
1.0
176
     1
 90
        0
176
     1
 62
   257
176
     1
 40
1.0
176
     1
 90
        1
176
     1
 90
        6
176
     1
 90
        2
176
     1
 62
     7
176
     1
 90
        5
176
     1
 90
        0
176
     1
 90
        0
176
     1
290
     0
176
     1
 90
       13
176
     1
 40
0.0
176
     1
 90
        0
176
     1
290
     0
176
     1
290
     1
176
     1
290
     1
176
     1
290
     0
176
     1
290
     0
176
     1
290
     0
176
     1
290
     0
176
     1
290
     0
176
     1
290
     0
176
     1
 90
       50
176
     1
 40
0.0
176
     1
 40
1.0
176
     1
 90
        0
176
     1
 62
    18
420
        0
176
     1
 90
       50
176
     1
 90
        3
176
     1
 62
     5
420
      255
176
     1
290
     0
176
     1
 90
       50
176
     1
 90
       50
176
     1
 90
       50
176
     1
290
     0
176
     1
 90
       50
176
     1
 62
   256
176
     0
 40
1.0
176
     0
 90
        2
176
     1
  1
strokes_ogs.tif
176
     1
290
     0
176
     1
 40
1.0
176
     1
 40
1.0
176
     1
  0
VISUALSTYLE
  5
2C
102
{ACAD_REACTORS
330
29
102
}
330
29
100
AcDbVisualStyle
  2
Gouraud
 70
     2
177
     3
291
     1
 70
    58
 90
        2
176
     1
 90
        2
176
     1
 90
        1
176
     1
 90
        2
176
     1
 40
0.6
176
     1
 40
30.0
176
     1
 62
     7
420
 16777215
176
     1
 90
        0
176
     1
 90
        0
176
     1
 62
     7
176
     1
 62
   257
176
     1
 90
        1
176
     1
 90
        1
176
     1
 40
1.0
176
     1
 90
        0
176
     1
 62
     7
176
     1
 40
1.0
176
     1
 90
        1
176
     1
 90
        6
176
     1
 90
        2
176
     1
 62
     7
176
     1
 90
        5
176
     1
 90
        0
176
     1
 90
        0
176
     1
290
     0
176
     1
 90
       13
176
     1
 40
0.0
176
     1
 90
        0
176
     1
290
     0
176
     1
290
     1
176
     1
290
     1
176
     1
290
     0
176
     1
290
     0
176
     1
290
     0
176
     1
290
     0
176
     1
290
     0
176
     1
290
     0
176
     1
 90
       50
176
     1
 40
0.0
176
     1
 40
1.0
176
     1
 90
        0
176
     1
 62
    18
420
        0
176
     1
 90
       50
176
     1
 90
        3
176
     1
 62
     5
420
      255
176
     1
290
     0
176
     1
 90
       50
176
     1
 90
       50
176
     1
 90
       50
176
     1
290
     0
176
     1
 90
       50
176
     1
 62
   256
176
     0
 40
1.0
176
     0
 90
        2
176
     1
  1
strokes_ogs.tif
176
     1
290
     0
176
     1
 40
1.0
176
     1
 40
1.0
176
     1
  0
VISUALSTYLE
  5
2D
102
{ACAD_REACTORS
330
29
102
}
330
29
100
AcDbVisualStyle
  2
GouraudWithEdges
 70
     3
177
     3
291
     1
 70
    58
 90
        2
176
     1
 90
        2
176
     1
 90
        1
176
     1
 90
        2
176
     1
 40
0.6
176
     1
 40
30.0
176
     1
 62
     7
420
 16777215
176
     1
 90
        1
176
     1
 90
        0
176
     1
 62
     7
176
     1
 62
   257
176
     1
 90
        1
176
     1
 90
        1
176
     1
 40
1.0
176
     1
 90
        0
176
     1
 62
   257
176
     1
 40
1.0
176
     1
 90
        1
176
     1
 90
        6
176
     1
 90
        2
176
     1
 62
     7
176
     1
 90
        5
176
     1
 90
        0
176
     1
 90
        0
176
     1
290
     0
176
     1
 90
       13
176
     1
 40
0.0
176
     1
 90
        0
176
     1
290
     0
176
     1
290
     1
176
     1
290
     1
176
     1
290
     0
176
     1
290
     0
176
     1
290
     0
176
     1
290
     0
176
     1
290
     0
176
     1
290
     0
176
     1
 90
       50
176
     1
 40
0.0
176
     1
 40
1.0
176
     1
 90
        0
176
     1
 62
    18
420
        0
176
     1
 90
       50
176
     1
 90
        3
176
     1
 62
     5
420
      255
176
     1
290
     0
176
     1
 90
       50
176
     1
 90
       50
176
     1
 90
       50
176
     1
290
     0
176
     1
 90
       50
176
     1
 62
   256
176
     0
 40
1.0
176
     0
 90
        2
176
     1
  1
strokes_ogs.tif
176
     1
290
     0
176
     1
 40
1.0
176
     1
 40
1.0
176
     1
  0
VISUALSTYLE
  5
31
102
{ACAD_REACTORS
330
29
102
}
330
29
100
AcDbVisualStyle
  2
Hidden
 70
     6
177
     3
291
     0
 70
    58
 90
        1
176
     1
 90
        2
176
     1
 90
        2
176
     1
 90
        0
176
     1
 40
0.6
176
     1
 40
30.0
176
     1
 62
     7
420
 16777215
176
     1
 90
        2
176
     1
 90
        2
176
     1
 62
     7
176
     1
 62
   257
176
     1
 90
        2
176
     1
 90
        1
176
     1
 40
40.0
176
     1
 90
        0
176
     1
 62
   257
176
     1
 40
1.0
176
     1
 90
        1
176
     1
 90
        6
176
     1
 90
        2
176
     1
 62
     7
176
     1
 90
        3
176
     1
 90
        0
176
     1
 90
        0
176
     1
290
     0
176
     1
 90
        1
176
     1
 40
0.0
176
     1
 90
        0
176
     1
290
     0
176
     1
290
     1
176
     1
290
     1
176
     1
290
     0
176
     1
290
     0
176
     1
290
     0
176
     1
290
     0
176
     1
290
     0
176
     1
290
     0
176
     1
 90
       50
176
     1
 40
0.0
176
     1
 40
1.0
176
     1
 90
        0
176
     1
 62
    18
420
        0
176
     1
 90
       50
176
     1
 90
        3
176
     1
 62
     5
420
      255
176
     1
290
     0
176
     1
 90
       50
176
     1
 90
       50
176
     1
 90
       50
176
     1
290
     0
176
     1
 90
       50
176
     1
 62
   256
176
     0
 40
1.0
176
     0
 90
        2
176
     1
  1
strokes_ogs.tif
176
     1
290
     0
176
     1
 40
1.0
176
     1
 40
1.0
176
     1
  0
VISUALSTYLE
  5
3F
102
{ACAD_REACTORS
330
29
102
}
330
29
100
AcDbVisualStyle
  2
JitterOff
 70
    20
177
     3
291
     1
 70
    58
 90
        2
176
     0
 90
        2
176
     0
 90
        0
176
     0
 90
        0
176
     0
 40
0.6
176
     0
 40
30.0
176
     0
 62
     7
420
 16777215
176
     0
 90
        1
176
     0
 90
        4
176
     0
 62
     7
176
     0
 62
   257
176
     0
 90
        1
176
     0
 90
        1
176
     0
 40
1.0
176
     0
 90
       10
176
     2
 62
     7
176
     0
 40
1.0
176
     0
 90
        1
176
     0
 90
        6
176
     0
 90
        2
176
     0
 62
     7
176
     0
 90
        5
176
     0
 90
        0
176
     0
 90
        0
176
     0
290
     0
176
     0
 90
        1
176
     0
 40
0.0
176
     0
 90
        0
176
     0
290
     0
176
     1
290
     1
176
     1
290
     1
176
     1
290
     0
176
     1
290
     0
176
     1
290
     0
176
     1
290
     0
176
     1
290
     0
176
     1
290
     0
176
     1
 90
       50
176
     0
 40
0.0
176
     0
 40
1.0
176
     0
 90
        0
176
     0
 62
    18
420
        0
176
     0
 90
       50
176
     0
 90
        3
176
     0
 62
     5
420
      255
176
     0
290
     0
176
     1
 90
       50
176
     0
 90
       50
176
     0
 90
       50
176
     0
290
     0
176
     1
 90
       50
176
     0
 62
   256
176
     0
 40
1.0
176
     0
 90
        2
176
     0
  1
strokes_ogs.tif
176
     0
290
     0
176
     1
 40
1.0
176
     0
 40
1.0
176
     0
  0
VISUALSTYLE
  5
37
102
{ACAD_REACTORS
330
29
102
}
330
29
100
AcDbVisualStyle
  2
Linepattern
 70
    14
177
     3
291
     1
 70
    58
 90
        2
176
     1
 90
        2
176
     1
 90
        0
176
     1
 90
        0
176
     1
 40
0.6
176
     1
 40
30.0
176
     1
 62
     7
420
 16777215
176
     1
 90
        1
176
     1
 90
        4
176
     1
 62
     7
176
     1
 62
   257
176
     1
 90
        7
176
     1
 90
        7
176
     1
 40
1.0
176
     1
 90
        8
176
     1
 62
     7
176
     1
 40
1.0
176
     1
 90
        1
176
     1
 90
        6
176
     1
 90
        2
176
     1
 62
     7
176
     1
 90
        5
176
     1
 90
        0
176
     1
 90
        0
176
     1
290
     0
176
     1
 90
        1
176
     1
 40
0.0
176
     1
 90
        0
176
     1
290
     0
176
     1
290
     1
176
     1
290
     1
176
     1
290
     0
176
     1
290
     0
176
     1
290
     0
176
     1
290
     0
176
     1
290
     0
176
     1
290
     0
176
     1
 90
       50
176
     1
 40
0.0
176
     1
 40
1.0
176
     1
 90
        0
176
     1
 62
    18
420
        0
176
     1
 90
       50
176
     1
 90
        3
176
     1
 62
     5
420
      255
176
     1
290
     0
176
     1
 90
       50
176
     1
 90
       50
176
     1
 90
       50
176
     1
290
     0
176
     1
 90
       50
176
     1
 62
   256
176
     0
 40
1.0
176
     0
 90
        2
176
     1
  1
strokes_ogs.tif
176
     1
290
     0
176
     1
 40
1.0
176
     1
 40
1.0
176
     1
  0
VISUALSTYLE
  5
40
102
{ACAD_REACTORS
330
29
102
}
330
29
100
AcDbVisualStyle
  2
OverhangOff
 70
    21
177
     3
291
     1
 70
    58
 90
        2
176
     0
 90
        2
176
     0
 90
        0
176
     0
 90
        0
176
     0
 40
0.6
176
     0
 40
30.0
176
     0
 62
     7
420
 16777215
176
     0
 90
        1
176
     0
 90
        4
176
     0
 62
     7
176
     0
 62
   257
176
     0
 90
        1
176
     0
 90
        1
176
     0
 40
1.0
176
     0
 90
        9
176
     2
 62
     7
176
     0
 40
1.0
176
     0
 90
        1
176
     0
 90
        6
176
     0
 90
        2
176
     0
 62
     7
176
     0
 90
        5
176
     0
 90
        0
176
     0
 90
        0
176
     0
290
     0
176
     0
 90
        1
176
     0
 40
0.0
176
     0
 90
        0
176
     0
290
     0
176
     1
290
     1
176
     1
290
     1
176
     1
290
     0
176
     1
290
     0
176
     1
290
     0
176
     1
290
     0
176
     1
290
     0
176
     1
290
     0
176
     1
 90
       50
176
     0
 40
0.0
176
     0
 40
1.0
176
     0
 90
        0
176
     0
 62
    18
420
        0
176
     0
 90
       50
176
     0
 90
        3
176
     0
 62
     5
420
      255
176
     0
290
     0
176
     1
 90
       50
176
     0
 90
       50
176
     0
 90
       50
176
     0
290
     0
176
     1
 90
       50
176
     0
 62
   256
176
     0
 40
1.0
176
     0
 90
        2
176
     0
  1
strokes_ogs.tif
176
     0
290
     0
176
     1
 40
1.0
176
     0
 40
1.0
176
     0
  0
VISUALSTYLE
  5
33
102
{ACAD_REACTORS
330
29
102
}
330
29
100
AcDbVisualStyle
  2
Realistic
 70
     8
177
     3
291
     0
 70
    58
 90
        2
176
     1
 90
        3
176
     1
 90
        0
176
     1
 90
        2
176
     1
 40
0.6
176
     1
 40
30.0
176
     1
 62
     7
420
 16777215
176
     1
 90
        0
176
     1
 90
        0
176
     1
 62
     7
176
     1
 62
   257
176
     1
 90
        1
176
     1
 90
        1
176
     1
 40
1.0
176
     1
 90
        8
176
     1
 62
   257
176
     1
 40
1.0
176
     1
 90
        1
176
     1
 90
        6
176
     1
 90
        2
176
     1
 62
     7
176
     1
 90
        3
176
     1
 90
        0
176
     1
 90
        0
176
     1
290
     0
176
     1
 90
       13
176
     1
 40
0.0
176
     1
 90
        0
176
     1
290
     0
176
     1
290
     1
176
     1
290
     1
176
     1
290
     0
176
     1
290
     0
176
     1
290
     0
176
     1
290
     0
176
     1
290
     0
176
     1
290
     0
176
     1
 90
       50
176
     1
 40
0.0
176
     1
 40
1.0
176
     1
 90
        0
176
     1
 62
    18
420
        0
176
     1
 90
       50
176
     1
 90
        3
176
     1
 62
     5
420
      255
176
     1
290
     0
176
     1
 90
       50
176
     1
 90
       50
176
     1
 90
       50
176
     1
290
     0
176
     1
 90
       50
176
     1
 62
   256
176
     0
 40
1.0
176
     0
 90
        2
176
     1
  1
strokes_ogs.tif
176
     1
290
     0
176
     1
 40
1.0
176
     1
 40
1.0
176
     1
  0
VISUALSTYLE
  5
3E
102
{ACAD_REACTORS
330
29
102
}
330
29
100
AcDbVisualStyle
  2
Shaded
 70
    27
177
     3
291
     0
 70
    58
 90
        2
176
     1
 90
        2
176
     1
 90
        1
176
     1
 90
        2
176
     1
 40
0.6
176
     1
 40
30.0
176
     1
 62
     7
420
 16777215
176
     1
 90
        0
176
     1
 90
        4
176
     1
 62
     7
176
     1
 62
   257
176
     1
 90
        1
176
     1
 90
        1
176
     1
 40
1.0
176
     1
 90
        8
176
     1
 62
   257
176
     1
 40
1.0
176
     1
 90
        1
176
     1
 90
        6
176
     1
 90
        2
176
     1
 62
     8
420
  7895160
176
     1
 90
        3
176
     1
 90
        0
176
     1
 90
        0
176
     1
290
     0
176
     1
 90
        5
176
     1
 40
0.0
176
     1
 90
        0
176
     1
290
     0
176
     1
290
     1
176
     1
290
     1
176
     1
290
     0
176
     1
290
     0
176
     1
290
     0
176
     1
290
     0
176
     1
290
     0
176
     1
290
     0
176
     1
 90
       50
176
     1
 40
0.0
176
     1
 40
1.0
176
     1
 90
        0
176
     1
 62
    18
420
        0
176
     1
 90
       50
176
     1
 90
        3
176
     1
 62
     5
420
      255
176
     1
290
     0
176
     1
 90
       50
176
     1
 90
       50
176
     1
 90
       50
176
     1
290
     0
176
     1
 90
       50
176
     1
 62
   256
176
     0
 40
1.0
176
     0
 90
        2
176
     1
  1
strokes_ogs.tif
176
     1
290
     0
176
     1
 40
1.0
176
     1
 40
1.0
176
     1
  0
VISUALSTYLE
  5
3D
102
{ACAD_REACTORS
330
29
102
}
330
29
100
AcDbVisualStyle
  2
Shaded with edges
 70
    26
177
     3
291
     0
 70
    58
 90
        2
176
     1
 90
        2
176
     1
 90
        1
176
     1
 90
        2
176
     1
 40
0.6
176
     1
 40
30.0
176
     1
 62
     7
420
 16777215
176
     1
 90
        1
176
     1
 90
       10
176
     1
 62
     7
176
     1
 62
   257
176
     1
 90
        2
176
     1
 90
        1
176
     1
 40
1.0
176
     1
 90
        8
176
     1
 62
   257
176
     1
 40
1.0
176
     1
 90
        1
176
     1
 90
        6
176
     1
 90
        2
176
     1
 62
     7
176
     1
 90
        3
176
     1
 90
        0
176
     1
 90
        0
176
     1
290
     0
176
     1
 90
        5
176
     1
 40
0.0
176
     1
 90
        0
176
     1
290
     0
176
     1
290
     1
176
     1
290
     1
176
     1
290
     0
176
     1
290
     0
176
     1
290
     0
176
     1
290
     0
176
     1
290
     0
176
     1
290
     0
176
     1
 90
       50
176
     1
 40
0.0
176
     1
 40
1.0
176
     1
 90
        0
176
     1
 62
    18
420
        0
176
     1
 90
       50
176
     1
 90
        3
176
     1
 62
     5
420
      255
176
     1
290
     0
176
     1
 90
       50
176
     1
 90
       50
176
     1
 90
       50
176
     1
290
     0
176
     1
 90
       50
176
     1
 62
   256
176
     0
 40
1.0
176
     0
 90
        2
176
     1
  1
strokes_ogs.tif
176
     1
290
     0
176
     1
 40
1.0
176
     1
 40
1.0
176
     1
  0
VISUALSTYLE
  5
3A
102
{ACAD_REACTORS
330
29
102
}
330
29
100
AcDbVisualStyle
  2
Shades of Gray
 70
    23
177
     3
291
     0
 70
    58
 90
        2
176
     1
 90
        2
176
     1
 90
        3
176
     1
 90
        0
176
     1
 40
0.6
176
     1
 40
30.0
176
     1
 62
     7
420
 16777215
176
     1
 90
        2
176
     1
 90
        2
176
     1
 62
     7
176
     1
 62
     7
176
     1
 90
        1
176
     1
 90
        1
176
     1
 40
40.0
176
     1
 90
        8
176
     1
 62
     7
176
     1
 40
1.0
176
     1
 90
        1
176
     1
 90
        6
176
     1
 90
        2
176
     1
 62
     7
176
     1
 90
        3
176
     1
 90
        0
176
     1
 90
        0
176
     1
290
     0
176
     1
 90
        1
176
     1
 40
0.0
176
     1
 90
        0
176
     1
290
     0
176
     1
290
     1
176
     1
290
     1
176
     1
290
     0
176
     1
290
     0
176
     1
290
     0
176
     1
290
     0
176
     1
290
     0
176
     1
290
     0
176
     1
 90
       50
176
     1
 40
0.0
176
     1
 40
1.0
176
     1
 90
        0
176
     1
 62
    18
420
        0
176
     1
 90
       50
176
     1
 90
        3
176
     1
 62
     5
420
      255
176
     1
290
     0
176
     1
 90
       50
176
     1
 90
       50
176
     1
 90
       50
176
     1
290
     0
176
     1
 90
       50
176
     1
 62
   256
176
     0
 40
1.0
176
     0
 90
        2
176
     1
  1
strokes_ogs.tif
176
     1
290
     0
176
     1
 40
1.0
176
     1
 40
1.0
176
     1
  0
VISUALSTYLE
  5
3B
102
{ACAD_REACTORS
330
29
102
}
330
29
100
AcDbVisualStyle
  2
Sketchy
 70
    24
177
     3
291
     0
 70
    58
 90
        1
176
     1
 90
        2
176
     1
 90
        2
176
     1
 90
        0
176
     1
 40
0.6
176
     1
 40
30.0
176
     1
 62
     7
420
 16777215
176
     1
 90
        2
176
     1
 90
        2
176
     1
 62
     7
176
     1
 62
     7
176
     1
 90
        1
176
     1
 90
        1
176
     1
 40
40.0
176
     1
 90
       11
176
     1
 62
     7
176
     1
 40
1.0
176
     1
 90
        1
176
     1
 90
        6
176
     1
 90
        2
176
     1
 62
     7
176
     1
 90
        6
176
     1
 90
        0
176
     1
 90
        0
176
     1
290
     0
176
     1
 90
        1
176
     1
 40
0.0
176
     1
 90
        0
176
     1
290
     0
176
     1
290
     1
176
     1
290
     1
176
     1
290
     0
176
     1
290
     0
176
     1
290
     0
176
     1
290
     0
176
     1
290
     0
176
     1
290
     0
176
     1
 90
       50
176
     1
 40
0.0
176
     1
 40
1.0
176
     1
 90
        0
176
     1
 62
    18
420
        0
176
     1
 90
       50
176
     1
 90
        3
176
     1
 62
     5
420
      255
176
     1
290
     0
176
     1
 90
       50
176
     1
 90
       50
176
     1
 90
       50
176
     1
290
     0
176
     1
 90
       50
176
     1
 62
   256
176
     0
 40
1.0
176
     0
 90
        2
176
     1
  1
strokes_ogs.tif
176
     1
290
     0
176
     1
 40
1.0
176
     1
 40
1.0
176
     1
  0
VISUALSTYLE
  5
36
102
{ACAD_REACTORS
330
29
102
}
330
29
100
AcDbVisualStyle
  2
Thicken
 70
    13
177
     3
291
     1
 70
    58
 90
        2
176
     1
 90
        2
176
     1
 90
        0
176
     1
 90
        0
176
     1
 40
0.6
176
     1
 40
30.0
176
     1
 62
     7
420
 16777215
176
     1
 90
        1
176
     1
 90
        4
176
     1
 62
     7
176
     1
 62
   257
176
     1
 90
        1
176
     1
 90
        1
176
     1
 40
1.0
176
     1
 90
       12
176
     1
 62
     7
176
     1
 40
1.0
176
     1
 90
        1
176
     1
 90
        6
176
     1
 90
        2
176
     1
 62
     7
176
     1
 90
        5
176
     1
 90
        0
176
     1
 90
        0
176
     1
290
     0
176
     1
 90
        1
176
     1
 40
0.0
176
     1
 90
        0
176
     1
290
     0
176
     1
290
     1
176
     1
290
     1
176
     1
290
     0
176
     1
290
     0
176
     1
290
     0
176
     1
290
     0
176
     1
290
     0
176
     1
290
     0
176
     1
 90
       50
176
     1
 40
0.0
176
     1
 40
1.0
176
     1
 90
        0
176
     1
 62
    18
420
        0
176
     1
 90
       50
176
     1
 90
        3
176
     1
 62
     5
420
      255
176
     1
290
     0
176
     1
 90
       50
176
     1
 90
       50
176
     1
 90
       50
176
     1
290
     0
176
     1
 90
       50
176
     1
 62
   256
176
     0
 40
1.0
176
     0
 90
        2
176
     1
  1
strokes_ogs.tif
176
     1
290
     0
176
     1
 40
1.0
176
     1
 40
1.0
176
     1
  0
VISUALSTYLE
  5
30
102
{ACAD_REACTORS
330
29
102
}
330
29
100
AcDbVisualStyle
  2
Wireframe
 70
     5
177
     3
291
     0
 70
    58
 90
        0
176
     1
 90
        2
176
     1
 90
        0
176
     1
 90
        0
176
     1
 40
0.6
176
     1
 40
30.0
176
     1
 62
     7
420
 16777215
176
     1
 90
        1
176
     1
 90
        4
176
     1
 62
     7
176
     1
 62
   257
176
     1
 90
        1
176
     1
 90
        1
176
     1
 40
1.0
176
     1
 90
        0
176
     1
 62
   257
176
     1
 40
1.0
176
     1
 90
        1
176
     1
 90
        6
176
     1
 90
        2
176
     1
 62
     7
176
     1
 90
        3
176
     1
 90
        0
176
     1
 90
        0
176
     1
290
     0
176
     1
 90
        1
176
     1
 40
0.0
176
     1
 90
        0
176
     1
290
     0
176
     1
290
     1
176
     1
290
     1
176
     1
290
     0
176
     1
290
     0
176
     1
290
     0
176
     1
290
     0
176
     1
290
     0
176
     1
290
     0
176
     1
 90
       50
176
     1
 40
0.0
176
     1
 40
1.0
176
     1
 90
        0
176
     1
 62
    18
420
        0
176
     1
 90
       50
176
     1
 90
        3
176
     1
 62
     5
420
      255
176
     1
290
     0
176
     1
 90
       50
176
     1
 90
       50
176
     1
 90
       50
176
     1
290
     0
176
     1
 90
       50
176
     1
 62
   256
176
     0
 40
1.0
176
     0
 90
        2
176
     1
  1
strokes_ogs.tif
176
     1
290
     0
176
     1
 40
1.0
176
     1
 40
1.0
176
     1
  0
VISUALSTYLE
  5
3C
102
{ACAD_REACTORS
330
29
102
}
330
29
100
AcDbVisualStyle
  2
X-Ray
 70
    25
177
     3
291
     0
 70
    58
 90
        2
176
     1
 90
        2
176
     1
 90
        1
176
     1
 90
        1
176
     1
 40
0.5
176
     1
 40
30.0
176
     1
 62
     7
420
 16777215
176
     1
 90
        1
176
     1
 90
        0
176
     1
 62
     7
176
     1
 62
   257
176
     1
 90
        1
176
     1
 90
        1
176
     1
 40
1.0
176
     1
 90
        8
176
     1
 62
     7
176
     1
 40
1.0
176
     1
 90
        1
176
     1
 90
        6
176
     1
 90
        2
176
     1
 62
     7
176
     1
 90
        3
176
     1
 90
        0
176
     1
 90
        0
176
     1
290
     0
176
     1
 90
       13
176
     1
 40
0.0
176
     1
 90
        0
176
     1
290
     0
176
     1
290
     1
176
     1
290
     1
176
     1
290
     0
176
     1
290
     0
176
     1
290
     0
176
     1
290
     0
176
     1
290
     0
176
     1
290
     0
176
     1
 90
       50
176
     1
 40
0.0
176
     1
 40
1.0
176
     1
 90
        0
176
     1
 62
    18
420
        0
176
     1
 90
       50
176
     1
 90
        3
176
     1
 62
     5
420
      255
176
     1
290
     0
176
     1
 90
       50
176
     1
 90
       50
176
     1
 90
       50
176
     1
290
     0
176
     1
 90
       50
176
     1
 62
   256
176
     0
 40
1.0
176
     0
 90
        2
176
     1
  1
strokes_ogs.tif
176
     1
290
     0
176
     1
 40
1.0
176
     1
 40
1.0
176
     1
  0
DICTIONARYVAR
  5
1DD
102
{ACAD_REACTORS
330
1D7
102
}
330
1D7
100
DictionaryVariables
280
     0
  1
1:1
  0
DICTIONARYVAR
  5
1D9
102
{ACAD_REACTORS
330
1D7
102
}
330
1D7
100
DictionaryVariables
280
     0
  1
STANDARD
  0
DICTIONARYVAR
  5
1D8
102
{ACAD_REACTORS
330
1D7
102
}
330
1D7
100
DictionaryVariables
280
     0
  1
STANDARD
  0
DICTIONARYVAR
  5
1DA
102
{ACAD_REACTORS
330
1D7
102
}
330
1D7
100
DictionaryVariables
280
     0
  1
Imperial24
  0
DICTIONARYVAR
  5
1DB
102
{ACAD_REACTORS
330
1D7
102
}
330
1D7
100
DictionaryVariables
280
     0
  1
Imperial24
  0
DICTIONARYVAR
  5
1E9
102
{ACAD_REACTORS
330
1D7
102
}
330
1D7
100
DictionaryVariables
280
     0
  1
1
  0
DICTIONARYVAR
  5
492
102
{ACAD_REACTORS
330
1D7
102
}
330
1D7
100
DictionaryVariables
280
     0
  1
1
  0
DICTIONARYVAR
  5
1DF
102
{ACAD_REACTORS
330
1D7
102
}
330
1D7
100
DictionaryVariables
280
     0
  1
1
  0
DICTIONARYVAR
  5
1E0
102
{ACAD_REACTORS
330
1D7
102
}
330
1D7
100
DictionaryVariables
280
     0
  1
15
  0
DICTIONARYVAR
  5
1DE
102
{ACAD_REACTORS
330
1D7
102
}
330
1D7
100
DictionaryVariables
280
     0
  1
0
  0
DICTIONARYVAR
  5
1DC
102
{ACAD_REACTORS
330
1D7
102
}
330
1D7
100
DictionaryVariables
280
     0
  1
0
  0
DICTIONARY
  5
1E6
330
73
100
AcDbDictionary
280
     1
281
     1
  3
AcPublish_PlotSettingsOverride
360
1E7
  0
DICTIONARY
  5
1A
330
19
100
AcDbDictionary
280
     1
281
     1
  3
BUMPTILE
360
1C
  3
DIFFUSETILE
360
1B
  3
OPACITYTILE
360
1F
  3
REFLECTIONTILE
360
1E
  3
REFRACTIONTILE
360
20
  3
SPECULARTILE
360
1D
  0
DICTIONARY
  5
12
330
11
100
AcDbDictionary
280
     1
281
     1
  3
BUMPTILE
360
14
  3
DIFFUSETILE
360
13
  3
OPACITYTILE
360
17
  3
REFLECTIONTILE
360
16
  3
REFRACTIONTILE
360
18
  3
SPECULARTILE
360
15
  0
DICTIONARY
  5
22
330
21
100
AcDbDictionary
280
     1
281
     1
  3
BUMPTILE
360
24
  3
DIFFUSETILE
360
23
  3
OPACITYTILE
360
27
  3
REFLECTIONTILE
360
26
  3
REFRACTIONTILE
360
28
  3
SPECULARTILE
360
25
  0
DICTIONARY
  5
E79
330
64
100
AcDbDictionary
280
     1
281
     1
  3
ACAD_ROUNDTRIP_2008_TABLESTYLE_CELLSTYLEMAP
360
E7A
  0
PLOTSETTINGS
  5
1E7
102
{ACAD_REACTORS
330
1E6
102
}
330
1E6
100
AcDbPlotSettings
  1

  2
none_device
  4
Untitled
  6

 40
0.0
 41
0.0
 42
0.0
 43
0.0
 44
900.0
 45
600.0
 46
0.0
 47
0.0
 48
0.0
 49
0.0
140
0.0
141
0.0
142
10.0
143
1.0
 70
 11904
 72
     1
 73
     0
 74
     1
  7

 75
     0
147
9.999999999999998
 76
     0
 77
     2
 78
   300
148
17.5280073525259
149
8.723715979230064
1001
ACAD_PSEXT
1000
None
1000
None
1000
Not applicable
1000
The layout will not be plotted unless a new plotter configuration name is selected.
1070
     0
  0
XRECORD
  5
1C
102
{ACAD_REACTORS
330
1A
102
}
330
1A
100
AcDbXrecord
280
     1
270
     1
271
     1
  0
XRECORD
  5
1B
102
{ACAD_REACTORS
330
1A
102
}
330
1A
100
AcDbXrecord
280
     1
270
     1
271
     1
  0
XRECORD
  5
1F
102
{ACAD_REACTORS
330
1A
102
}
330
1A
100
AcDbXrecord
280
     1
270
     1
271
     1
  0
XRECORD
  5
1E
102
{ACAD_REACTORS
330
1A
102
}
330
1A
100
AcDbXrecord
280
     1
270
     1
271
     1
  0
XRECORD
  5
20
102
{ACAD_REACTORS
330
1A
102
}
330
1A
100
AcDbXrecord
280
     1
270
     1
271
     1
  0
XRECORD
  5
1D
102
{ACAD_REACTORS
330
1A
102
}
330
1A
100
AcDbXrecord
280
     1
270
     1
271
     1
  0
XRECORD
  5
14
102
{ACAD_REACTORS
330
12
102
}
330
12
100
AcDbXrecord
280
     1
270
     1
271
     1
  0
XRECORD
  5
13
102
{ACAD_REACTORS
330
12
102
}
330
12
100
AcDbXrecord
280
     1
270
     1
271
     1
  0
XRECORD
  5
17
102
{ACAD_REACTORS
330
12
102
}
330
12
100
AcDbXrecord
280
     1
270
     1
271
     1
  0
XRECORD
  5
16
102
{ACAD_REACTORS
330
12
102
}
330
12
100
AcDbXrecord
280
     1
270
     1
271
     1
  0
XRECORD
  5
18
102
{ACAD_REACTORS
330
12
102
}
330
12
100
AcDbXrecord
280
     1
270
     1
271
     1
  0
XRECORD
  5
15
102
{ACAD_REACTORS
330
12
102
}
330
12
100
AcDbXrecord
280
     1
270
     1
271
     1
  0
XRECORD
  5
24
102
{ACAD_REACTORS
330
22
102
}
330
22
100
AcDbXrecord
280
     1
270
     1
271
     1
  0
XRECORD
  5
23
102
{ACAD_REACTORS
330
22
102
}
330
22
100
AcDbXrecord
280
     1
270
     1
271
     1
  0
XRECORD
  5
27
102
{ACAD_REACTORS
330
22
102
}
330
22
100
AcDbXrecord
280
     1
270
     1
271
     1
  0
XRECORD
  5
26
102
{ACAD_REACTORS
330
22
102
}
330
22
100
AcDbXrecord
280
     1
270
     1
271
     1
  0
XRECORD
  5
28
102
{ACAD_REACTORS
330
22
102
}
330
22
100
AcDbXrecord
280
     1
270
     1
271
     1
  0
XRECORD
  5
25
102
{ACAD_REACTORS
330
22
102
}
330
22
100
AcDbXrecord
280
     1
270
     1
271
     1
  0
CELLSTYLEMAP
  5
E7A
102
{ACAD_REACTORS
330
E79
102
}
330
E79
100
AcDbCellStyleMap
 90
        3
300
CELLSTYLE
  1
TABLEFORMAT_BEGIN
 90
        5
170
     1
 91
        0
 92
    32768
 62
   257
 93
        1
300
CONTENTFORMAT
  1
CONTENTFORMAT_BEGIN
 90
        0
 91
        0
 92
      512
 93
        0
300

 40
0.0
140
1.0
 94
        5
 62
     0
340
55
144
0.25
309
CONTENTFORMAT_END
171
     0
 94
        0
309
TABLEFORMAT_END
  1
CELLSTYLE_BEGIN
 90
        1
 91
        1
300
_TITLE
309
CELLSTYLE_END
300
CELLSTYLE
  1
TABLEFORMAT_BEGIN
 90
        5
170
     1
 91
        0
 92
        0
 62
   257
 93
        1
300
CONTENTFORMAT
  1
CONTENTFORMAT_BEGIN
 90
        0
 91
        0
 92
      512
 93
        0
300

 40
0.0
140
1.0
 94
        5
 62
     0
340
55
144
0.18
309
CONTENTFORMAT_END
171
     0
 94
        0
309
TABLEFORMAT_END
  1
CELLSTYLE_BEGIN
 90
        2
 91
        1
300
_HEADER
309
CELLSTYLE_END
300
CELLSTYLE
  1
TABLEFORMAT_BEGIN
 90
        5
170
     1
 91
        0
 92
        0
 62
   257
 93
        1
300
CONTENTFORMAT
  1
CONTENTFORMAT_BEGIN
 90
        0
 91
        0
 92
      512
 93
        0
300

 40
0.0
140
1.0
 94
        2
 62
     0
340
55
144
0.18
309
CONTENTFORMAT_END
171
     0
 94
        0
309
TABLEFORMAT_END
  1
CELLSTYLE_BEGIN
 90
        3
 91
        2
300
_DATA
309
CELLSTYLE_END
  0
ENDSEC
  0
SECTION
  2
ACDSDATA
 70
     2
 71
     2
  0
ACDSSCHEMA
 90
        0
  1
AcDb_Thumbnail_Schema
  2
AcDbDs::ID
280
    10
 91
        8
  2
Thumbnail_Data
280
    15
 91
        0
101
ACDSRECORD
 95
        0
 90
        1
  2
AcDbDs::TreatedAsObjectData
280
     1
291
     1
101
ACDSRECORD
 95
        0
 90
        2
  2
AcDbDs::Legacy
280
     1
291
     1
101
ACDSRECORD
  1
AcDbDs::ID
 90
        3
  2
AcDs:Indexable
280
     1
291
     1
101
ACDSRECORD
  1
AcDbDs::ID
 90
        4
  2
AcDbDs::HandleAttribute
280
     7
282
     1
  0
ACDSSCHEMA
 90
        1
  1
AcDbDs::TreatedAsObjectDataSchema
  2
AcDbDs::TreatedAsObjectData
280
     1
 91
        0
  0
ACDSSCHEMA
 90
        2
  1
AcDbDs::LegacySchema
  2
AcDbDs::Legacy
280
     1
 91
        0
  0
ACDSSCHEMA
 90
        3
  1
AcDbDs::IndexedPropertySchema
  2
AcDs:Indexable
280
     1
 91
        0
  0
ACDSSCHEMA
 90
        4
  1
AcDbDs::HandleAttributeSchema
  2
AcDbDs::HandleAttribute
280
     7
 91
        1
284
     1
  0
ACDSRECORD
 90
        0
  2
AcDbDs::ID
280
    10
320
73
  2
Thumbnail_Data
280
    15
 94
     1293
310
89504E470D0A1A0A0000000D4948445200000100000000A60803000000029EA11300000300504C54452128300000000000000000000000000000000000000000000000000000000000000000330000660000990000CC0000FF0033000033330033660033990033CC0033FF0066000066330066660066990066CC0066FF0099
310
000099330099660099990099CC0099FF00CC0000CC3300CC6600CC9900CCCC00CCFF00FF0000FF3300FF6600FF9900FFCC00FFFF3300003300333300663300993300CC3300FF3333003333333333663333993333CC3333FF3366003366333366663366993366CC3366FF3399003399333399663399993399CC3399FF33CC00
310
33CC3333CC6633CC9933CCCC33CCFF33FF0033FF3333FF6633FF9933FFCC33FFFF6600006600336600666600996600CC6600FF6633006633336633666633996633CC6633FF6666006666336666666666996666CC6666FF6699006699336699666699996699CC6699FF66CC0066CC3366CC6666CC9966CCCC66CCFF66FF0066
310
FF3366FF6666FF9966FFCC66FFFF9900009900339900669900999900CC9900FF9933009933339933669933999933CC9933FF9966009966339966669966999966CC9966FF9999009999339999669999999999CC9999FF99CC0099CC3399CC6699CC9999CCCC99CCFF99FF0099FF3399FF6699FF9999FFCC99FFFFCC0000CC00
310
33CC0066CC0099CC00CCCC00FFCC3300CC3333CC3366CC3399CC33CCCC33FFCC6600CC6633CC6666CC6699CC66CCCC66FFCC9900CC9933CC9966CC9999CC99CCCC99FFCCCC00CCCC33CCCC66CCCC99CCCCCCCCCCFFCCFF00CCFF33CCFF66CCFF99CCFFCCCCFFFFFF0000FF0033FF0066FF0099FF00CCFF00FFFF3300FF3333
310
FF3366FF3399FF33CCFF33FFFF6600FF6633FF6666FF6699FF66CCFF66FFFF9900FF9933FF9966FF9999FF99CCFF99FFFFCC00FFCC33FFCC66FFCC99FFCCCCFFCCFFFFFF00FFFF33FFFF66FFFF99FFFFCCFFFFFF0000000D0D0D1A1A1A2828283535354343435050505D5D5D6B6B6B787878868686939393A1A1A1AEAEAEBB
310
BBBBC9C9C9D6D6D6E4E4E4F1F1F1FFFFFF000000000000000000000000000000000000000000000000000000000000544354A80000015249444154789CEDDBD16A02311005D0FCFFFFE6BD20B6CEAA95A41DD861E79C075170BCBBD7A02BC431000000000000000000000058344F74F6B9DF9C7814550A38ED9D2B53C0FE48
310
567405CF05BC7D7FE78747FF89AEC00A583C8EF9581B0A488BAE40010A50C0EAF314F073372BBA0205BC1EC7ED4CE7B8DFDCCFFBD2056CFDBCF9C3A5E3AFAF54C16E01F38A056C8F644557B0FA197018C98AAEC00A508002F647B2A22BF035680528C0A5B0CF80DD91ACE80A14A00005EC8F644557A0000528C085D0F64856
310
74050A508002F647B2A22B5080023E1CC7F7C6D0E306D13E05CCC3531A16301E5B037AAE80F17E6FF4B50BB0577865242BBA02FF1768191D28A06574A08096D181025A46070A68191D28A06574A08096D181025A46070A68191D28A06574A08096D181025A46070A68191D28A06574A08096D181025A4607FBBB03F29C7DEE
310
00000000000000000014F20541109F0056827FC00000000049454E44AE42608275208094AD0301A46C1D0860A2D97B07000000000000000060211FA069B58E0C1E42A50000000049454E44AE4260828100B66C1D0860CBD68100B66C1D0860CBD68100B66C1D0860CBD68100269ABD7700000000000000000016F2070A4034
310
5B7191F2B60000000049454E44AE4260824E44AE426082
  0
ENDSEC
  0
EOF
