  0
SECTION
  2
HEADER
  9
$ACADVER
  1
AC1027
  9
$ACADMAINTVER
 70
     8
  9
$DWGCODEPAGE
  3
ANSI_1252
  9
$LASTSAVEDBY
  1
iFala
  9
$REQUIREDVERSIONS
160
                 0
  9
$INSBASE
 10
0.0
 20
0.0
 30
0.0
  9
$EXTMIN
 10
-39.7753885622368
 20
222.902597539342
 30
0.0
  9
$EXTMAX
 10
860.2246114377631
 20
822.9025975393421
 30
574.0472266441778
  9
$LIMMIN
 10
0.0
 20
0.0
  9
$LIMMAX
 10
12.0
 20
9.0
  9
$ORTHOMODE
 70
     0
  9
$REGENMODE
 70
     1
  9
$FILLMODE
 70
     1
  9
$QTEXTMODE
 70
     0
  9
$MIRRTEXT
 70
     0
  9
$LTSCALE
 40
1.0
  9
$ATTMODE
 70
     1
  9
$TEXTSIZE
 40
0.2
  9
$TRACEWID
 40
0.05
  9
$TEXTSTYLE
  7
Standard
  9
$CLAYER
  8
0
  9
$CELTYPE
  6
ByLayer
  9
$CECOLOR
 62
   256
  9
$CELTSCALE
 40
1.0
  9
$DISPSILH
 70
     0
  9
$DIMSCALE
 40
1.0
  9
$DIMASZ
 40
0.18
  9
$DIMEXO
 40
0.0625
  9
$DIMDLI
 40
0.38
  9
$DIMRND
 40
0.0
  9
$DIMDLE
 40
0.0
  9
$DIMEXE
 40
0.18
  9
$DIMTP
 40
0.0
  9
$DIMTM
 40
0.0
  9
$DIMTXT
 40
0.18
  9
$DIMCEN
 40
0.09
  9
$DIMTSZ
 40
0.0
  9
$DIMTOL
 70
     0
  9
$DIMLIM
 70
     0
  9
$DIMTIH
 70
     1
  9
$DIMTOH
 70
     1
  9
$DIMSE1
 70
     0
  9
$DIMSE2
 70
     0
  9
$DIMTAD
 70
     0
  9
$DIMZIN
 70
     0
  9
$DIMBLK
  1

  9
$DIMASO
 70
     1
  9
$DIMSHO
 70
     1
  9
$DIMPOST
  1

  9
$DIMAPOST
  1

  9
$DIMALT
 70
     0
  9
$DIMALTD
 70
     2
  9
$DIMALTF
 40
25.4
  9
$DIMLFAC
 40
1.0
  9
$DIMTOFL
 70
     0
  9
$DIMTVP
 40
0.0
  9
$DIMTIX
 70
     0
  9
$DIMSOXD
 70
     0
  9
$DIMSAH
 70
     0
  9
$DIMBLK1
  1

  9
$DIMBLK2
  1

  9
$DIMSTYLE
  2
Standard
  9
$DIMCLRD
 70
     0
  9
$DIMCLRE
 70
     0
  9
$DIMCLRT
 70
     0
  9
$DIMTFAC
 40
1.0
  9
$DIMGAP
 40
0.09
  9
$DIMJUST
 70
     0
  9
$DIMSD1
 70
     0
  9
$DIMSD2
 70
     0
  9
$DIMTOLJ
 70
     1
  9
$DIMTZIN
 70
     0
  9
$DIMALTZ
 70
     0
  9
$DIMALTTZ
 70
     0
  9
$DIMUPT
 70
     0
  9
$DIMDEC
 70
     4
  9
$DIMTDEC
 70
     4
  9
$DIMALTU
 70
     2
  9
$DIMALTTD
 70
     2
  9
$DIMTXSTY
  7
Standard
  9
$DIMAUNIT
 70
     0
  9
$DIMADEC
 70
     0
  9
$DIMALTRND
 40
0.0
  9
$DIMAZIN
 70
     0
  9
$DIMDSEP
 70
    46
  9
$DIMATFIT
 70
     3
  9
$DIMFRAC
 70
     0
  9
$DIMLDRBLK
  1

  9
$DIMLUNIT
 70
     2
  9
$DIMLWD
 70
    -2
  9
$DIMLWE
 70
    -2
  9
$DIMTMOVE
 70
     0
  9
$DIMFXL
 40
1.0
  9
$DIMFXLON
 70
     0
  9
$DIMJOGANG
 40
0.7853981633974483
  9
$DIMTFILL
 70
     0
  9
$DIMTFILLCLR
 70
     0
  9
$DIMARCSYM
 70
     0
  9
$DIMLTYPE
  6

  9
$DIMLTEX1
  6

  9
$DIMLTEX2
  6

  9
$DIMTXTDIRECTION
 70
     0
  9
$LUNITS
 70
     2
  9
$LUPREC
 70
     4
  9
$SKETCHINC
 40
0.1
  9
$FILLETRAD
 40
0.0
  9
$AUNITS
 70
     0
  9
$AUPREC
 70
     0
  9
$MENU
  1
.
  9
$ELEVATION
 40
0.0
  9
$PELEVATION
 40
0.0
  9
$THICKNESS
 40
0.0
  9
$LIMCHECK
 70
     0
  9
$CHAMFERA
 40
0.0
  9
$CHAMFERB
 40
0.0
  9
$CHAMFERC
 40
0.0
  9
$CHAMFERD
 40
0.0
  9
$SKPOLY
 70
     0
  9
$TDCREATE
 40
2456807.629544352
  9
$TDUCREATE
 40
2456807.546211019
  9
$TDUPDATE
 40
2456854.394608218
  9
$TDUUPDATE
 40
2456854.311274884
  9
$TDINDWG
 40
0.1111709144
  9
$TDUSRTIMER
 40
0.1111709144
  9
$USRTIMER
 70
     1
  9
$ANGBASE
 50
0.0
  9
$ANGDIR
 70
     0
  9
$PDMODE
 70
     0
  9
$PDSIZE
 40
0.0
  9
$PLINEWID
 40
0.0
  9
$SPLFRAME
 70
     0
  9
$SPLINETYPE
 70
     6
  9
$SPLINESEGS
 70
     8
  9
$HANDSEED
  5
1611
  9
$SURFTAB1
 70
     6
  9
$SURFTAB2
 70
     6
  9
$SURFTYPE
 70
     6
  9
$SURFU
 70
     6
  9
$SURFV
 70
     6
  9
$UCSBASE
  2

  9
$UCSNAME
  2

  9
$UCSORG
 10
0.0
 20
0.0
 30
0.0
  9
$UCSXDIR
 10
1.0
 20
0.0
 30
0.0
  9
$UCSYDIR
 10
0.0
 20
1.0
 30
0.0
  9
$UCSORTHOREF
  2

  9
$UCSORTHOVIEW
 70
     0
  9
$UCSORGTOP
 10
0.0
 20
0.0
 30
0.0
  9
$UCSORGBOTTOM
 10
0.0
 20
0.0
 30
0.0
  9
$UCSORGLEFT
 10
0.0
 20
0.0
 30
0.0
  9
$UCSORGRIGHT
 10
0.0
 20
0.0
 30
0.0
  9
$UCSORGFRONT
 10
0.0
 20
0.0
 30
0.0
  9
$UCSORGBACK
 10
0.0
 20
0.0
 30
0.0
  9
$PUCSBASE
  2

  9
$PUCSNAME
  2

  9
$PUCSORG
 10
0.0
 20
0.0
 30
0.0
  9
$PUCSXDIR
 10
1.0
 20
0.0
 30
0.0
  9
$PUCSYDIR
 10
0.0
 20
1.0
 30
0.0
  9
$PUCSORTHOREF
  2

  9
$PUCSORTHOVIEW
 70
     0
  9
$PUCSORGTOP
 10
0.0
 20
0.0
 30
0.0
  9
$PUCSORGBOTTOM
 10
0.0
 20
0.0
 30
0.0
  9
$PUCSORGLEFT
 10
0.0
 20
0.0
 30
0.0
  9
$PUCSORGRIGHT
 10
0.0
 20
0.0
 30
0.0
  9
$PUCSORGFRONT
 10
0.0
 20
0.0
 30
0.0
  9
$PUCSORGBACK
 10
0.0
 20
0.0
 30
0.0
  9
$USERI1
 70
     0
  9
$USERI2
 70
     0
  9
$USERI3
 70
     0
  9
$USERI4
 70
     0
  9
$USERI5
 70
     0
  9
$USERR1
 40
0.0
  9
$USERR2
 40
0.0
  9
$USERR3
 40
0.0
  9
$USERR4
 40
0.0
  9
$USERR5
 40
0.0
  9
$WORLDVIEW
 70
     1
  9
$SHADEDGE
 70
     3
  9
$SHADEDIF
 70
    70
  9
$TILEMODE
 70
     1
  9
$MAXACTVP
 70
    64
  9
$PINSBASE
 10
0.0
 20
0.0
 30
0.0
  9
$PLIMCHECK
 70
     0
  9
$PEXTMIN
 10
1.000000000000000E+20
 20
1.000000000000000E+20
 30
1.000000000000000E+20
  9
$PEXTMAX
 10
-1.000000000000000E+20
 20
-1.000000000000000E+20
 30
-1.000000000000000E+20
  9
$PLIMMIN
 10
0.0
 20
0.0
  9
$PLIMMAX
 10
12.0
 20
9.0
  9
$UNITMODE
 70
     0
  9
$VISRETAIN
 70
     1
  9
$PLINEGEN
 70
     0
  9
$PSLTSCALE
 70
     1
  9
$TREEDEPTH
 70
  3020
  9
$CMLSTYLE
  2
Standard
  9
$CMLJUST
 70
     0
  9
$CMLSCALE
 40
1.0
  9
$PROXYGRAPHICS
 70
     1
  9
$MEASUREMENT
 70
     0
  9
$CELWEIGHT
370
    -1
  9
$ENDCAPS
280
     0
  9
$JOINSTYLE
280
     0
  9
$LWDISPLAY
290
     0
  9
$INSUNITS
 70
     0
  9
$HYPERLINKBASE
  1

  9
$STYLESHEET
  1

  9
$XEDIT
290
     1
  9
$CEPSNTYPE
380
     0
  9
$PSTYLEMODE
290
     1
  9
$FINGERPRINTGUID
  2
{A9089380-E62A-8944-ACE3-6856760178C3}
  9
$VERSIONGUID
  2
{4D22143E-6C24-2543-A653-0AEA1137318D}
  9
$EXTNAMES
290
     1
  9
$PSVPSCALE
 40
0.0
  9
$OLESTARTUP
290
     0
  9
$SORTENTS
280
   127
  9
$INDEXCTL
280
     0
  9
$HIDETEXT
280
     0
  9
$XCLIPFRAME
280
     2
  9
$HALOGAP
280
     0
  9
$OBSCOLOR
 70
   257
  9
$OBSLTYPE
280
     0
  9
$INTERSECTIONDISPLAY
280
     0
  9
$INTERSECTIONCOLOR
 70
   257
  9
$DIMASSOC
280
     1
  9
$PROJECTNAME
  1

  9
$CAMERADISPLAY
290
     0
  9
$LENSLENGTH
 40
50.0
  9
$CAMERAHEIGHT
 40
0.0
  9
$STEPSPERSEC
 40
2.0
  9
$STEPSIZE
 40
6.0
  9
$3DDWFPREC
 40
2.0
  9
$PSOLWIDTH
 40
0.25
  9
$PSOLHEIGHT
 40
4.0
  9
$LOFTANG1
 40
1.570796326794896
  9
$LOFTANG2
 40
1.570796326794896
  9
$LOFTMAG1
 40
0.0
  9
$LOFTMAG2
 40
0.0
  9
$LOFTPARAM
 70
     7
  9
$LOFTNORMALS
280
     1
  9
$LATITUDE
 40
37.795
  9
$LONGITUDE
 40
-122.394
  9
$NORTHDIRECTION
 40
0.0
  9
$TIMEZONE
 70
 -8000
  9
$LIGHTGLYPHDISPLAY
280
     1
  9
$TILEMODELIGHTSYNCH
280
     1
  9
$CMATERIAL
347
11
  9
$SOLIDHIST
280
     0
  9
$SHOWHIST
280
     1
  9
$DWFFRAME
280
     2
  9
$DGNFRAME
280
     0
  9
$REALWORLDSCALE
290
     1
  9
$INTERFERECOLOR
 62
     1
  9
$INTERFEREOBJVS
345
33
  9
$INTERFEREVPVS
346
30
  9
$CSHADOW
280
     0
  9
$SHADOWPLANELOCATION
 40
0.0
  0
ENDSEC
  0
SECTION
  2
CLASSES
  0
CLASS
  1
ACDBDICTIONARYWDFLT
  2
AcDbDictionaryWithDefault
  3
ObjectDBX Classes
 90
        0
 91
        1
280
     0
281
     0
  0
CLASS
  1
MATERIAL
  2
AcDbMaterial
  3
ObjectDBX Classes
 90
     1153
 91
        3
280
     0
281
     0
  0
CLASS
  1
VISUALSTYLE
  2
AcDbVisualStyle
  3
ObjectDBX Classes
 90
     4095
 91
       24
280
     0
281
     0
  0
CLASS
  1
SCALE
  2
AcDbScale
  3
ObjectDBX Classes
 90
     1153
 91
       17
280
     0
281
     0
  0
CLASS
  1
TABLESTYLE
  2
AcDbTableStyle
  3
ObjectDBX Classes
 90
     4095
 91
        1
280
     0
281
     0
  0
CLASS
  1
MLEADERSTYLE
  2
AcDbMLeaderStyle
  3
ACDB_MLEADERSTYLE_CLASS
 90
     4095
 91
        1
280
     0
281
     0
  0
CLASS
  1
ACDBSECTIONVIEWSTYLE
  2
AcDbSectionViewStyle
  3
ObjectDBX Classes
 90
     1025
 91
        1
280
     0
281
     0
  0
CLASS
  1
ACDBDETAILVIEWSTYLE
  2
AcDbDetailViewStyle
  3
ObjectDBX Classes
 90
     1025
 91
        1
280
     0
281
     0
  0
CLASS
  1
DICTIONARYVAR
  2
AcDbDictionaryVar
  3
ObjectDBX Classes
 90
        0
 91
       11
280
     0
281
     0
  0
CLASS
  1
PLOTSETTINGS
  2
AcDbPlotSettings
  3
ObjectDBX Classes
 90
        0
 91
        1
280
     0
281
     0
  0
CLASS
  1
CELLSTYLEMAP
  2
AcDbCellStyleMap
  3
ObjectDBX Classes
 90
     1152
 91
        1
280
     0
281
     0
  0
CLASS
  1
SOLID_BACKGROUND
  2
AcDbSolidBackground
  3
SCENEOE
 90
     4095
 91
        0
280
     0
281
     0
  0
CLASS
  1
NPOCOLLECTION
  2
AcDbImpNonPersistentObjectsCollection
  3
ObjectDBX Classes
 90
     1153
 91
        0
280
     0
281
     0
  0
ENDSEC
  0
SECTION
  2
TABLES
  0
TABLE
  2
VPORT
  5
8
330
0
100
AcDbSymbolTable
 70
     1
  0
VPORT
  5
1C1
330
8
100
AcDbSymbolTableRecord
100
AcDbViewportTableRecord
  2
*Active
 70
     0
 10
0.0
 20
0.0
 11
1.0
 21
1.0
 12
274.3315290734076
 22
330.9961410687112
 13
0.0
 23
0.0
 14
1.0
 24
1.0
 15
0.0
 25
0.0
 16
0.0
 26
0.0
 36
1995.58839326531
 17
129.1293089915081
 27
188.6856510981875
 37
0.0
 40
772.0427473143729
 41
1.537330316742081
 42
50.0
 43
0.0
 44
0.0
 50
0.0
 51
0.0
 71
     0
 72
  1000
 73
     1
 74
     3
 75
     0
 76
     1
 77
     0
 78
     0
281
     0
 65
     1
110
0.0
120
0.0
130
0.0
111
1.0
121
0.0
131
0.0
112
0.0
122
1.0
132
0.0
 79
     0
146
0.0
348
2F
 60
     3
 61
     5
292
     1
282
     1
141
0.0
142
0.0
 63
   250
421
  3355443
1001
ACAD_NAV_VCDISPLAY
1070
     1
  0
ENDTAB
  0
TABLE
  2
LTYPE
  5
5
330
0
100
AcDbSymbolTable
 70
     2
  0
LTYPE
  5
5A
330
5
100
AcDbSymbolTableRecord
100
AcDbLinetypeTableRecord
  2
ByBlock
 70
     0
  3

 72
    65
 73
     0
 40
0.0
  0
LTYPE
  5
5B
330
5
100
AcDbSymbolTableRecord
100
AcDbLinetypeTableRecord
  2
ByLayer
 70
     0
  3

 72
    65
 73
     0
 40
0.0
  0
LTYPE
  5
5C
330
5
100
AcDbSymbolTableRecord
100
AcDbLinetypeTableRecord
  2
Continuous
 70
     0
  3
Solid line
 72
    65
 73
     0
 40
0.0
  0
LTYPE
  5
68
330
5
100
AcDbSymbolTableRecord
100
AcDbLinetypeTableRecord
  2
PHANTOM2
 70
     0
  3
Phantom (.5x) ___ _ _ ___ _ _ ___ _ _ ___ _ _
 72
    65
 73
     6
 40
1.25
 49
0.625
 74
     0
 49
-0.125
 74
     0
 49
0.125
 74
     0
 49
-0.125
 74
     0
 49
0.125
 74
     0
 49
-0.125
 74
     0
  0
ENDTAB
  0
TABLE
  2
LAYER
  5
2
102
{ACAD_XDICTIONARY
360
1D1
102
}
330
0
100
AcDbSymbolTable
 70
     5
  0
LAYER
  5
54
102
{ACAD_XDICTIONARY
360
1CA
102
}
330
2
100
AcDbSymbolTableRecord
100
AcDbLayerTableRecord
  2
0
 70
     0
 62
     7
  6
Continuous
370
    -3
390
F
347
21
348
0
  0
LAYER
  5
74
102
{ACAD_XDICTIONARY
360
1CC
102
}
330
2
100
AcDbSymbolTableRecord
100
AcDbLayerTableRecord
  2
Group#1
 70
     0
 62
     7
  6
Continuous
370
    -3
390
F
347
21
348
0
  0
LAYER
  5
4A3
102
{ACAD_XDICTIONARY
360
4A4
102
}
330
2
100
AcDbSymbolTableRecord
100
AcDbLayerTableRecord
  2
Layer0
 70
     0
 62
     7
  6
Continuous
370
    -3
390
F
347
21
348
0
  0
LAYER
  5
5D3
330
2
100
AcDbSymbolTableRecord
100
AcDbLayerTableRecord
  2
Group#14
 70
     0
 62
     7
  6
Continuous
370
    -3
390
F
347
21
348
0
  0
LAYER
  5
5D4
330
2
100
AcDbSymbolTableRecord
100
AcDbLayerTableRecord
  2
MY3DLAYER
 70
     0
 62
     7
  6
Continuous
370
    -3
390
F
347
21
348
0
  0
ENDTAB
  0
TABLE
  2
STYLE
  5
3
330
0
100
AcDbSymbolTable
 70
     2
  0
STYLE
  5
55
330
3
100
AcDbSymbolTableRecord
100
AcDbTextStyleTableRecord
  2
Standard
 70
     0
 40
0.0
 41
1.0
 50
0.0
 71
     0
 42
0.2
  3
txt
  4

  0
STYLE
  5
59
330
3
100
AcDbSymbolTableRecord
100
AcDbTextStyleTableRecord
  2
Annotative
 70
     0
 40
0.0
 41
1.0
 50
0.0
 71
     0
 42
0.2
  3
txt
  4

1001
AcadAnnotative
1000
AnnotativeData
1002
{
1070
     1
1070
     1
1002
}
  0
ENDTAB
  0
TABLE
  2
VIEW
  5
6
330
0
100
AcDbSymbolTable
 70
     1
  0
ENDTAB
  0
TABLE
  2
UCS
  5
7
330
0
100
AcDbSymbolTable
 70
     0
  0
ENDTAB
  0
TABLE
  2
APPID
  5
9
330
0
100
AcDbSymbolTable
 70
     5
  0
APPID
  5
56
330
9
100
AcDbSymbolTableRecord
100
AcDbRegAppTableRecord
  2
ACAD
 70
     0
  0
APPID
  5
5D
330
9
100
AcDbSymbolTableRecord
100
AcDbRegAppTableRecord
  2
AcadAnnotative
 70
     0
  0
APPID
  5
1C0
330
9
100
AcDbSymbolTableRecord
100
AcDbRegAppTableRecord
  2
ACAD_NAV_VCDISPLAY
 70
     0
  0
APPID
  5
1C3
330
9
100
AcDbSymbolTableRecord
100
AcDbRegAppTableRecord
  2
ACAD_EXEMPT_FROM_CAD_STANDARDS
 70
     0
  0
APPID
  5
1E5
330
9
100
AcDbSymbolTableRecord
100
AcDbRegAppTableRecord
  2
ACAD_PSEXT
 70
     0
  0
ENDTAB
  0
TABLE
  2
DIMSTYLE
  5
A
330
0
100
AcDbSymbolTable
 70
     2
100
AcDbDimStyleTable
 71
     1
340
57
  0
DIMSTYLE
105
57
330
A
100
AcDbSymbolTableRecord
100
AcDbDimStyleTableRecord
  2
Standard
 70
     0
340
55
  0
DIMSTYLE
105
58
330
A
100
AcDbSymbolTableRecord
100
AcDbDimStyleTableRecord
  2
Annotative
 70
     0
340
55
1001
AcadAnnotative
1000
AnnotativeData
1002
{
1070
     1
1070
     1
1002
}
  0
ENDTAB
  0
TABLE
  2
BLOCK_RECORD
  5
1
330
0
100
AcDbSymbolTable
 70
     3
  0
BLOCK_RECORD
  5
70
330
1
100
AcDbSymbolTableRecord
100
AcDbBlockTableRecord
  2
*Model_Space
340
73
 70
     0
280
     1
281
     0
  0
BLOCK_RECORD
  5
6C
330
1
100
AcDbSymbolTableRecord
100
AcDbBlockTableRecord
  2
*Paper_Space
340
6F
 70
     0
280
     1
281
     0
  0
BLOCK_RECORD
  5
4A5
330
1
100
AcDbSymbolTableRecord
100
AcDbBlockTableRecord
  2
A$C250E7384
340
0
 70
     0
280
     1
281
     0
  0
BLOCK_RECORD
  5
53C
330
1
100
AcDbSymbolTableRecord
100
AcDbBlockTableRecord
  2
A$C45A5E0D4
340
0
 70
     0
280
     1
281
     0
  0
BLOCK_RECORD
  5
88E
330
1
100
AcDbSymbolTableRecord
100
AcDbBlockTableRecord
  2
A$C791D7F38
340
0
 70
     0
280
     1
281
     0
  0
ENDTAB
  0
ENDSEC
  0
SECTION
  2
BLOCKS
  0
BLOCK
  5
71
330
70
100
AcDbEntity
  8
0
100
AcDbBlockBegin
  2
*Model_Space
 70
     0
 10
0.0
 20
0.0
 30
0.0
  3
*Model_Space
  1

  0
ENDBLK
  5
72
330
70
100
AcDbEntity
  8
0
100
AcDbBlockEnd
  0
BLOCK
  5
6D
330
6C
100
AcDbEntity
 67
     1
  8
0
100
AcDbBlockBegin
  2
*Paper_Space
 70
     0
 10
0.0
 20
0.0
 30
0.0
  3
*Paper_Space
  1

  0
ENDBLK
  5
6E
330
6C
100
AcDbEntity
 67
     1
  8
0
100
AcDbBlockEnd
  0
BLOCK
  5
53A
330
4A5
100
AcDbEntity
  8
0
100
AcDbBlockBegin
  2
A$C250E7384
 70
     0
 10
0.0
 20
0.0
 30
0.0
  3
A$C250E7384
  1

  0
LINE
  5
4A6
330
4A5
100
AcDbEntity
  8
Layer0
100
AcDbLine
 10
0.0000446869267421
 20
347.9999768959734
 30
-1896.082708132
 11
-0.0000003336135137
 21
0.0000011418603663
 31
-1896.082752776535
210
0.0
220
1.0
230
0.0
  0
LINE
  5
4A7
330
4A5
100
AcDbEntity
  8
Layer0
100
AcDbLine
 10
357.3000141820556
 20
0.0000002329803692
 30
-1896.082739121157
 11
-0.0000003336135137
 21
0.0000011418603663
 31
-1896.082752776535
210
0.0
220
1.0
230
0.0
  0
LINE
  5
4A8
330
4A5
100
AcDbEntity
  8
Layer0
100
AcDbLine
 10
357.3000546249228
 20
347.9999759870924
 30
-1896.082693733073
 11
0.0000446869267421
 21
347.9999768959734
 31
-1896.082708132
210
0.0
220
1.0
230
0.0
  0
LINE
  5
4A9
330
4A5
100
AcDbEntity
  8
Layer0
100
AcDbLine
 10
357.3000141820556
 20
0.0000002329803692
 30
-1896.082739121157
 11
357.3000546249228
 21
347.9999759870924
 31
-1896.082693733073
210
0.0
220
1.0
230
0.0
  0
LINE
  5
4AA
330
4A5
100
AcDbEntity
  8
Layer0
100
AcDbLine
 10
343.0142125502726
 20
249.5858055695093
 30
-1896.082735125051
 11
343.3320497954688
 21
250.0000191318824
 31
-1896.08273505899
210
0.0
220
1.0
230
0.0
  0
LINE
  5
4AB
330
4A5
100
AcDbEntity
  8
Layer0
100
AcDbLine
 10
339.5999989878997
 20
251.0000191318824
 30
-1896.082735076149
 11
339.6681473353218
 21
250.4823810416773
 31
-1896.082735140433
210
0.0
220
1.0
230
0.0
  0
LINE
  5
4AC
330
4A5
100
AcDbEntity
  8
Layer0
100
AcDbLine
 10
340.5999989878997
 20
252.7320699394512
 30
-1896.082734812838
 11
340.1857854255266
 21
252.4142326942555
 31
-1896.082734870213
210
0.0
220
1.0
230
0.0
  0
LINE
  5
4AD
330
4A5
100
AcDbEntity
  8
Layer0
100
AcDbLine
 10
339.8679481803307
 20
250.0000191318824
 30
-1896.082735194987
 11
340.1857854255266
 21
249.5858055695093
 31
-1896.082735236091
210
0.0
220
1.0
230
0.0
  0
LINE
  5
4AE
330
4A5
100
AcDbEntity
  8
Layer0
100
AcDbLine
 10
343.0142125502726
 20
252.4142326942555
 30
-1896.082734759173
 11
342.5999989878997
 21
252.7320699394512
 31
-1896.08273473432
210
0.0
220
1.0
230
0.0
  0
LINE
  5
4AF
330
4A5
100
AcDbEntity
  8
Layer0
100
AcDbLine
 10
343.5318506404777
 20
101.5176575016054
 30
-1896.08273485483
 11
343.3320497954688
 21
102.0000194114003
 31
-1896.082734800276
210
0.0
220
1.0
230
0.0
  0
LINE
  5
4B0
330
4A5
100
AcDbEntity
  8
Layer0
100
AcDbLine
 10
339.6681473353218
 20
100.4823813211953
 30
-1896.082735140433
 11
339.8679481803307
 21
100.0000194114003
 31
-1896.082735194987
210
0.0
220
1.0
230
0.0
  0
LINE
  5
4B1
330
4A5
100
AcDbEntity
  8
Layer0
100
AcDbLine
 10
343.3320497954688
 20
250.0000191318824
 30
-1896.08273505899
 11
343.5318506404777
 21
250.4823810416773
 31
-1896.08273498875
210
0.0
220
1.0
230
0.0
  0
LINE
  5
4B2
330
4A5
100
AcDbEntity
  8
Layer0
100
AcDbLine
 10
255.1176402214208
 20
12.06816014772528
 30
-1896.08273300641
 11
255.6000021312157
 21
12.2679609927344
 31
-1896.082732961627
210
0.0
220
1.0
230
0.0
  0
LINE
  5
4B3
330
4A5
100
AcDbEntity
  8
Layer0
100
AcDbLine
 10
340.1857854255266
 20
252.4142326942555
 30
-1896.082734870213
 11
339.8679481803307
 21
252.0000191318824
 31
-1896.082734936273
210
0.0
220
1.0
230
0.0
  0
LINE
  5
4B4
330
4A5
100
AcDbEntity
  8
Layer0
100
AcDbLine
 10
343.0142125502726
 20
102.4142329737734
 30
-1896.082734759173
 11
342.5999989878997
 21
102.7320702189694
 31
-1896.08273473432
210
0.0
220
1.0
230
0.0
  0
LINE
  5
4B5
330
4A5
100
AcDbEntity
  8
Layer0
100
AcDbLine
 10
342.1176370781048
 20
102.9318710639784
 30
-1896.082734727411
 11
341.5999989878997
 21
103.0000194114003
 31
-1896.082734738916
210
0.0
220
1.0
230
0.0
  0
LINE
  5
4B6
330
4A5
100
AcDbEntity
  8
Layer0
100
AcDbLine
 10
341.5999989878997
 20
103.0000194114003
 30
-1896.082734738916
 11
341.0823608976946
 21
102.9318710639784
 31
-1896.082734768054
210
0.0
220
1.0
230
0.0
  0
LINE
  5
4B7
330
4A5
100
AcDbEntity
  8
Layer0
100
AcDbLine
 10
341.0823608976946
 20
102.9318710639784
 30
-1896.082734768054
 11
340.5999989878997
 21
102.7320702189694
 31
-1896.082734812837
210
0.0
220
1.0
230
0.0
  0
LINE
  5
4B8
330
4A5
100
AcDbEntity
  8
Layer0
100
AcDbLine
 10
340.5999989878997
 20
102.7320702189694
 30
-1896.082734812837
 11
340.1857854255266
 21
102.4142329737734
 31
-1896.082734870213
210
0.0
220
1.0
230
0.0
  0
LINE
  5
4B9
330
4A5
100
AcDbEntity
  8
Layer0
100
AcDbLine
 10
340.1857854255266
 20
102.4142329737734
 30
-1896.082734870213
 11
339.8679481803307
 21
102.0000194114003
 31
-1896.082734936273
210
0.0
220
1.0
230
0.0
  0
LINE
  5
4BA
330
4A5
100
AcDbEntity
  8
Layer0
100
AcDbLine
 10
339.8679481803307
 20
102.0000194114003
 30
-1896.082734936273
 11
339.6681473353218
 21
101.5176575016054
 31
-1896.082735006514
210
0.0
220
1.0
230
0.0
  0
LINE
  5
4BB
330
4A5
100
AcDbEntity
  8
Layer0
100
AcDbLine
 10
339.6681473353218
 20
101.5176575016054
 30
-1896.082735006514
 11
339.5999989878997
 21
101.0000194114003
 31
-1896.082735076149
210
0.0
220
1.0
230
0.0
  0
LINE
  5
4BC
330
4A5
100
AcDbEntity
  8
Layer0
100
AcDbLine
 10
339.5999989878997
 20
101.0000194114003
 30
-1896.082735076149
 11
339.6681473353218
 21
100.4823813211953
 31
-1896.082735140433
210
0.0
220
1.0
230
0.0
  0
LINE
  5
4BD
330
4A5
100
AcDbEntity
  8
Layer0
100
AcDbLine
 10
339.8679481803307
 20
100.0000194114003
 30
-1896.082735194987
 11
340.1857854255266
 21
99.58580584902733
 31
-1896.082735236091
210
0.0
220
1.0
230
0.0
  0
LINE
  5
4BE
330
4A5
100
AcDbEntity
  8
Layer0
100
AcDbLine
 10
340.1857854255266
 20
99.58580584902733
 30
-1896.082735236091
 11
340.5999989878997
 21
99.26796860383138
 31
-1896.082735260944
210
0.0
220
1.0
230
0.0
  0
LINE
  5
4BF
330
4A5
100
AcDbEntity
  8
Layer0
100
AcDbLine
 10
340.5999989878997
 20
99.26796860383138
 30
-1896.082735260944
 11
341.0823608976946
 21
99.06816775882237
 31
-1896.082735267853
210
0.0
220
1.0
230
0.0
  0
LINE
  5
4C0
330
4A5
100
AcDbEntity
  8
Layer0
100
AcDbLine
 10
341.0823608976946
 20
99.06816775882237
 30
-1896.082735267853
 11
341.5999989878997
 21
99.00001941140033
 31
-1896.082735256346
210
0.0
220
1.0
230
0.0
  0
LINE
  5
4C1
330
4A5
100
AcDbEntity
  8
Layer0
100
AcDbLine
 10
341.5999989878997
 20
99.00001941140033
 30
-1896.082735256346
 11
342.1176370781048
 21
99.06816775882237
 31
-1896.082735227209
210
0.0
220
1.0
230
0.0
  0
LINE
  5
4C2
330
4A5
100
AcDbEntity
  8
Layer0
100
AcDbLine
 10
342.1176370781048
 20
99.06816775882237
 30
-1896.082735227209
 11
342.5999989878997
 21
99.26796860383138
 31
-1896.082735182426
210
0.0
220
1.0
230
0.0
  0
LINE
  5
4C3
330
4A5
100
AcDbEntity
  8
Layer0
100
AcDbLine
 10
342.5999989878997
 20
99.26796860383138
 30
-1896.082735182426
 11
343.0142125502726
 21
99.58580584902733
 31
-1896.08273512505
210
0.0
220
1.0
230
0.0
  0
LINE
  5
4C4
330
4A5
100
AcDbEntity
  8
Layer0
100
AcDbLine
 10
343.0142125502726
 20
99.58580584902733
 30
-1896.08273512505
 11
343.3320497954688
 21
100.0000194114003
 31
-1896.08273505899
210
0.0
220
1.0
230
0.0
  0
LINE
  5
4C5
330
4A5
100
AcDbEntity
  8
Layer0
100
AcDbLine
 10
343.3320497954688
 20
100.0000194114003
 30
-1896.08273505899
 11
343.5318506404777
 21
100.4823813211953
 31
-1896.08273498875
210
0.0
220
1.0
230
0.0
  0
LINE
  5
4C6
330
4A5
100
AcDbEntity
  8
Layer0
100
AcDbLine
 10
343.5318506404777
 20
100.4823813211953
 30
-1896.08273498875
 11
343.5999989878997
 21
101.0000194114003
 31
-1896.082734919114
210
0.0
220
1.0
230
0.0
  0
LINE
  5
4C7
330
4A5
100
AcDbEntity
  8
Layer0
100
AcDbLine
 10
343.5999989878997
 20
101.0000194114003
 30
-1896.082734919114
 11
343.5318506404777
 21
101.5176575016054
 31
-1896.08273485483
210
0.0
220
1.0
230
0.0
  0
LINE
  5
4C8
330
4A5
100
AcDbEntity
  8
Layer0
100
AcDbLine
 10
343.3320497954688
 20
102.0000194114003
 30
-1896.082734800276
 11
343.0142125502726
 21
102.4142329737734
 31
-1896.082734759173
210
0.0
220
1.0
230
0.0
  0
LINE
  5
4C9
330
4A5
100
AcDbEntity
  8
Layer0
100
AcDbLine
 10
342.5999989878997
 20
102.7320702189694
 30
-1896.08273473432
 11
342.1176370781048
 21
102.9318710639784
 31
-1896.082734727411
210
0.0
220
1.0
230
0.0
  0
LINE
  5
4CA
330
4A5
100
AcDbEntity
  8
Layer0
100
AcDbLine
 10
339.8679481803307
 20
252.0000191318824
 30
-1896.082734936273
 11
339.6681473353218
 21
251.5176572220874
 31
-1896.082735006514
210
0.0
220
1.0
230
0.0
  0
LINE
  5
4CB
330
4A5
100
AcDbEntity
  8
Layer0
100
AcDbLine
 10
256.5318537837937
 20
14.51764989050832
 30
-1896.082732634031
 11
256.3320529387846
 21
15.00001180030335
 31
-1896.082732579477
210
0.0
220
1.0
230
0.0
  0
LINE
  5
4CC
330
4A5
100
AcDbEntity
  8
Layer0
100
AcDbLine
 10
341.0823608976946
 20
252.9318707844603
 30
-1896.082734768054
 11
340.5999989878997
 21
252.7320699394512
 31
-1896.082734812838
210
0.0
220
1.0
230
0.0
  0
LINE
  5
4CD
330
4A5
100
AcDbEntity
  8
Layer0
100
AcDbLine
 10
339.6681473353218
 20
250.4823810416773
 30
-1896.082735140433
 11
339.8679481803307
 21
250.0000191318824
 31
-1896.082735194987
210
0.0
220
1.0
230
0.0
  0
LINE
  5
4CE
330
4A5
100
AcDbEntity
  8
Layer0
100
AcDbLine
 10
343.5318506404777
 20
250.4823810416773
 30
-1896.08273498875
 11
343.5999989878997
 21
251.0000191318824
 31
-1896.082734919115
210
0.0
220
1.0
230
0.0
  0
LINE
  5
4CF
330
4A5
100
AcDbEntity
  8
Layer0
100
AcDbLine
 10
342.5999989878997
 20
249.2679683243133
 30
-1896.082735182426
 11
343.0142125502726
 21
249.5858055695093
 31
-1896.082735125051
210
0.0
220
1.0
230
0.0
  0
LINE
  5
4D0
330
4A5
100
AcDbEntity
  8
Layer0
100
AcDbLine
 10
342.1176370781048
 20
249.0681674793044
 30
-1896.082735227209
 11
342.5999989878997
 21
249.2679683243133
 31
-1896.082735182426
210
0.0
220
1.0
230
0.0
  0
LINE
  5
4D1
330
4A5
100
AcDbEntity
  8
Layer0
100
AcDbLine
 10
342.5999989878997
 20
252.7320699394512
 30
-1896.08273473432
 11
342.1176370781048
 21
252.9318707844603
 31
-1896.082734727411
210
0.0
220
1.0
230
0.0
  0
LINE
  5
4D2
330
4A5
100
AcDbEntity
  8
Layer0
100
AcDbLine
 10
342.1176370781048
 20
252.9318707844603
 30
-1896.082734727411
 11
341.5999989878997
 21
253.0000191318824
 31
-1896.082734738918
210
0.0
220
1.0
230
0.0
  0
LINE
  5
4D3
330
4A5
100
AcDbEntity
  8
Layer0
100
AcDbLine
 10
255.6000021312157
 20
12.2679609927344
 30
-1896.082732961627
 11
256.0142156935888
 21
12.58579823793036
 31
-1896.082732904252
210
0.0
220
1.0
230
0.0
  0
LINE
  5
4D4
330
4A5
100
AcDbEntity
  8
Layer0
100
AcDbLine
 10
339.6681473353218
 20
251.5176572220874
 30
-1896.082735006514
 11
339.5999989878997
 21
251.0000191318824
 31
-1896.082735076149
210
0.0
220
1.0
230
0.0
  0
LINE
  5
4D5
330
4A5
100
AcDbEntity
  8
Layer0
100
AcDbLine
 10
256.0142156935888
 20
12.58579823793036
 30
-1896.082732904252
 11
256.3320529387846
 21
13.00001180030335
 31
-1896.082732838192
210
0.0
220
1.0
230
0.0
  0
LINE
  5
4D6
330
4A5
100
AcDbEntity
  8
Layer0
100
AcDbLine
 10
254.6000021312157
 20
12.00001180030335
 30
-1896.082733035548
 11
255.1176402214208
 21
12.06816014772528
 31
-1896.08273300641
210
0.0
220
1.0
230
0.0
  0
LINE
  5
4D7
330
4A5
100
AcDbEntity
  8
Layer0
100
AcDbLine
 10
256.3320529387846
 20
13.00001180030335
 30
-1896.082732838192
 11
256.5318537837937
 21
13.48237371009838
 31
-1896.082732767951
210
0.0
220
1.0
230
0.0
  0
LINE
  5
4D8
330
4A5
100
AcDbEntity
  8
Layer0
100
AcDbLine
 10
256.5318537837937
 20
13.48237371009838
 30
-1896.082732767951
 11
256.6000021312157
 21
14.00001180030335
 31
-1896.082732698316
210
0.0
220
1.0
230
0.0
  0
LINE
  5
4D9
330
4A5
100
AcDbEntity
  8
Layer0
100
AcDbLine
 10
256.6000021312157
 20
14.00001180030335
 30
-1896.082732698316
 11
256.5318537837937
 21
14.51764989050832
 31
-1896.082732634031
210
0.0
220
1.0
230
0.0
  0
LINE
  5
4DA
330
4A5
100
AcDbEntity
  8
Layer0
100
AcDbLine
 10
256.3320529387846
 20
15.00001180030335
 30
-1896.082732579477
 11
256.0142156935888
 21
15.41422536267635
 31
-1896.082732538374
210
0.0
220
1.0
230
0.0
  0
LINE
  5
4DB
330
4A5
100
AcDbEntity
  8
Layer0
100
AcDbLine
 10
256.0142156935888
 20
15.41422536267635
 30
-1896.082732538374
 11
255.6000021312157
 21
15.7320626078723
 31
-1896.082732513521
210
0.0
220
1.0
230
0.0
  0
LINE
  5
4DC
330
4A5
100
AcDbEntity
  8
Layer0
100
AcDbLine
 10
255.6000021312157
 20
15.7320626078723
 30
-1896.082732513521
 11
255.1176402214208
 21
15.93186345288143
 31
-1896.082732506612
210
0.0
220
1.0
230
0.0
  0
LINE
  5
4DD
330
4A5
100
AcDbEntity
  8
Layer0
100
AcDbLine
 10
255.1176402214208
 20
15.93186345288143
 30
-1896.082732506612
 11
254.6000021312157
 21
16.00001180030335
 31
-1896.082732518119
210
0.0
220
1.0
230
0.0
  0
LINE
  5
4DE
330
4A5
100
AcDbEntity
  8
Layer0
100
AcDbLine
 10
254.6000021312157
 20
16.00001180030335
 30
-1896.082732518119
 11
254.0823640410108
 21
15.93186345288143
 31
-1896.082732547256
210
0.0
220
1.0
230
0.0
  0
LINE
  5
4DF
330
4A5
100
AcDbEntity
  8
Layer0
100
AcDbLine
 10
254.0823640410108
 20
15.93186345288143
 30
-1896.082732547256
 11
253.6000021312157
 21
15.7320626078723
 31
-1896.082732592039
210
0.0
220
1.0
230
0.0
  0
LINE
  5
4E0
330
4A5
100
AcDbEntity
  8
Layer0
100
AcDbLine
 10
253.6000021312157
 20
15.7320626078723
 30
-1896.082732592039
 11
253.1857885688426
 21
15.41422536267635
 31
-1896.082732649415
210
0.0
220
1.0
230
0.0
  0
LINE
  5
4E1
330
4A5
100
AcDbEntity
  8
Layer0
100
AcDbLine
 10
253.1857885688426
 20
15.41422536267635
 30
-1896.082732649415
 11
252.8679513236467
 21
15.00001180030335
 31
-1896.082732715474
210
0.0
220
1.0
230
0.0
  0
LINE
  5
4E2
330
4A5
100
AcDbEntity
  8
Layer0
100
AcDbLine
 10
252.8679513236467
 20
15.00001180030335
 30
-1896.082732715474
 11
252.6681504786377
 21
14.51764989050832
 31
-1896.082732785715
210
0.0
220
1.0
230
0.0
  0
LINE
  5
4E3
330
4A5
100
AcDbEntity
  8
Layer0
100
AcDbLine
 10
252.6681504786377
 20
14.51764989050832
 30
-1896.082732785715
 11
252.6000021312157
 21
14.00001180030335
 31
-1896.082732855351
210
0.0
220
1.0
230
0.0
  0
LINE
  5
4E4
330
4A5
100
AcDbEntity
  8
Layer0
100
AcDbLine
 10
252.6000021312157
 20
14.00001180030335
 30
-1896.082732855351
 11
252.6681504786377
 21
13.48237371009838
 31
-1896.082732919635
210
0.0
220
1.0
230
0.0
  0
LINE
  5
4E5
330
4A5
100
AcDbEntity
  8
Layer0
100
AcDbLine
 10
252.6681504786377
 20
13.48237371009838
 30
-1896.082732919635
 11
252.8679513236467
 21
13.00001180030335
 31
-1896.082732974189
210
0.0
220
1.0
230
0.0
  0
LINE
  5
4E6
330
4A5
100
AcDbEntity
  8
Layer0
100
AcDbLine
 10
252.8679513236467
 20
13.00001180030335
 30
-1896.082732974189
 11
253.1857885688426
 21
12.58579823793036
 31
-1896.082733015292
210
0.0
220
1.0
230
0.0
  0
LINE
  5
4E7
330
4A5
100
AcDbEntity
  8
Layer0
100
AcDbLine
 10
253.1857885688426
 20
12.58579823793036
 30
-1896.082733015292
 11
253.6000021312157
 21
12.2679609927344
 31
-1896.082733040145
210
0.0
220
1.0
230
0.0
  0
LINE
  5
4E8
330
4A5
100
AcDbEntity
  8
Layer0
100
AcDbLine
 10
253.6000021312157
 20
12.2679609927344
 30
-1896.082733040145
 11
254.0823640410108
 21
12.06816014772528
 31
-1896.082733047054
210
0.0
220
1.0
230
0.0
  0
LINE
  5
4E9
330
4A5
100
AcDbEntity
  8
Layer0
100
AcDbLine
 10
254.0823640410108
 20
12.06816014772528
 30
-1896.082733047054
 11
254.6000021312157
 21
12.00001180030335
 31
-1896.082733035548
210
0.0
220
1.0
230
0.0
  0
LINE
  5
4EA
330
4A5
100
AcDbEntity
  8
Layer0
100
AcDbLine
 10
341.0823608976946
 20
249.0681674793044
 30
-1896.082735267853
 11
341.5999989878997
 21
249.0000191318824
 31
-1896.082735256347
210
0.0
220
1.0
230
0.0
  0
LINE
  5
4EB
330
4A5
100
AcDbEntity
  8
Layer0
100
AcDbLine
 10
343.5999989878997
 20
251.0000191318824
 30
-1896.082734919115
 11
343.5318506404777
 21
251.5176572220874
 31
-1896.08273485483
210
0.0
220
1.0
230
0.0
  0
LINE
  5
4EC
330
4A5
100
AcDbEntity
  8
Layer0
100
AcDbLine
 10
341.5999989878997
 20
253.0000191318824
 30
-1896.082734738918
 11
341.0823608976946
 21
252.9318707844603
 31
-1896.082734768054
210
0.0
220
1.0
230
0.0
  0
LINE
  5
4ED
330
4A5
100
AcDbEntity
  8
Layer0
100
AcDbLine
 10
340.1857854255266
 20
249.5858055695093
 30
-1896.082735236091
 11
340.5999989878997
 21
249.2679683243133
 31
-1896.082735260944
210
0.0
220
1.0
230
0.0
  0
LINE
  5
4EE
330
4A5
100
AcDbEntity
  8
Layer0
100
AcDbLine
 10
340.5999989878997
 20
249.2679683243133
 30
-1896.082735260944
 11
341.0823608976946
 21
249.0681674793044
 31
-1896.082735267853
210
0.0
220
1.0
230
0.0
  0
LINE
  5
4EF
330
4A5
100
AcDbEntity
  8
Layer0
100
AcDbLine
 10
341.5999989878997
 20
249.0000191318824
 30
-1896.082735256347
 11
342.1176370781048
 21
249.0681674793044
 31
-1896.082735227209
210
0.0
220
1.0
230
0.0
  0
LINE
  5
4F0
330
4A5
100
AcDbEntity
  8
Layer0
100
AcDbLine
 10
343.5318506404777
 20
251.5176572220874
 30
-1896.08273485483
 11
343.3320497954688
 21
252.0000191318824
 31
-1896.082734800276
210
0.0
220
1.0
230
0.0
  0
LINE
  5
4F1
330
4A5
100
AcDbEntity
  8
Layer0
100
AcDbLine
 10
343.3320497954688
 20
252.0000191318824
 30
-1896.082734800276
 11
343.0142125502726
 21
252.4142326942555
 31
-1896.082734759173
210
0.0
220
1.0
230
0.0
  0
LINE
  5
4F2
330
4A5
100
AcDbEntity
  8
Layer0
100
AcDbLine
 10
18.1176425591596
 20
252.9319011315723
 30
-1896.082697617211
 11
17.60000446895452
 21
253.0000494789943
 31
-1896.082697628718
210
0.0
220
1.0
230
0.0
  0
LINE
  5
4F3
330
4A5
100
AcDbEntity
  8
Layer0
100
AcDbLine
 10
17.60000446895452
 20
253.0000494789943
 30
-1896.082697628718
 11
17.08236637874967
 21
252.9319011315723
 31
-1896.082697657854
210
0.0
220
1.0
230
0.0
  0
LINE
  5
4F4
330
4A5
100
AcDbEntity
  8
Layer0
100
AcDbLine
 10
17.08236637874967
 20
252.9319011315723
 30
-1896.082697657854
 11
16.60000446895452
 21
252.7321002865634
 31
-1896.082697702636
210
0.0
220
1.0
230
0.0
  0
LINE
  5
4F5
330
4A5
100
AcDbEntity
  8
Layer0
100
AcDbLine
 10
16.60000446895452
 20
252.7321002865634
 30
-1896.082697702636
 11
16.18579090658164
 21
252.4142630413674
 31
-1896.082697760014
210
0.0
220
1.0
230
0.0
  0
LINE
  5
4F6
330
4A5
100
AcDbEntity
  8
Layer0
100
AcDbLine
 10
16.18579090658164
 20
252.4142630413674
 30
-1896.082697760014
 11
15.86795366138659
 21
252.0000494789944
 31
-1896.082697826073
210
0.0
220
1.0
230
0.0
  0
LINE
  5
4F7
330
4A5
100
AcDbEntity
  8
Layer0
100
AcDbLine
 10
15.86795366138659
 20
252.0000494789944
 30
-1896.082697826073
 11
15.66815281637656
 21
251.5176875691994
 31
-1896.082697896314
210
0.0
220
1.0
230
0.0
  0
LINE
  5
4F8
330
4A5
100
AcDbEntity
  8
Layer0
100
AcDbLine
 10
15.66815281637656
 20
251.5176875691994
 30
-1896.082697896314
 11
15.60000446895452
 21
251.0000494789943
 31
-1896.082697965949
210
0.0
220
1.0
230
0.0
  0
LINE
  5
4F9
330
4A5
100
AcDbEntity
  8
Layer0
100
AcDbLine
 10
15.60000446895452
 20
251.0000494789943
 30
-1896.082697965949
 11
15.66815281637656
 21
250.4824113887893
 31
-1896.082698030234
210
0.0
220
1.0
230
0.0
  0
LINE
  5
4FA
330
4A5
100
AcDbEntity
  8
Layer0
100
AcDbLine
 10
15.66815281637656
 20
250.4824113887893
 30
-1896.082698030234
 11
15.86795366138659
 21
250.0000494789944
 31
-1896.082698084787
210
0.0
220
1.0
230
0.0
  0
LINE
  5
4FB
330
4A5
100
AcDbEntity
  8
Layer0
100
AcDbLine
 10
15.86795366138659
 20
250.0000494789944
 30
-1896.082698084787
 11
16.18579090658164
 21
249.5858359166212
 31
-1896.082698125891
210
0.0
220
1.0
230
0.0
  0
LINE
  5
4FC
330
4A5
100
AcDbEntity
  8
Layer0
100
AcDbLine
 10
16.18579090658164
 20
249.5858359166212
 30
-1896.082698125891
 11
16.60000446895452
 21
249.2679986714264
 31
-1896.082698150744
210
0.0
220
1.0
230
0.0
  0
LINE
  5
4FD
330
4A5
100
AcDbEntity
  8
Layer0
100
AcDbLine
 10
16.60000446895452
 20
249.2679986714264
 30
-1896.082698150744
 11
17.08236637874967
 21
249.0681978264164
 31
-1896.082698157653
210
0.0
220
1.0
230
0.0
  0
LINE
  5
4FE
330
4A5
100
AcDbEntity
  8
Layer0
100
AcDbLine
 10
17.08236637874967
 20
249.0681978264164
 30
-1896.082698157653
 11
17.60000446895452
 21
249.0000494789943
 31
-1896.082698146147
210
0.0
220
1.0
230
0.0
  0
LINE
  5
4FF
330
4A5
100
AcDbEntity
  8
Layer0
100
AcDbLine
 10
17.60000446895452
 20
249.0000494789943
 30
-1896.082698146147
 11
18.1176425591596
 21
249.0681978264164
 31
-1896.082698117009
210
0.0
220
1.0
230
0.0
  0
LINE
  5
500
330
4A5
100
AcDbEntity
  8
Layer0
100
AcDbLine
 10
18.1176425591596
 20
249.0681978264164
 30
-1896.082698117009
 11
18.60000446895452
 21
249.2679986714264
 31
-1896.082698072227
210
0.0
220
1.0
230
0.0
  0
LINE
  5
501
330
4A5
100
AcDbEntity
  8
Layer0
100
AcDbLine
 10
18.60000446895452
 20
249.2679986714264
 30
-1896.082698072227
 11
19.01421803132763
 21
249.5858359166212
 31
-1896.08269801485
210
0.0
220
1.0
230
0.0
  0
LINE
  5
502
330
4A5
100
AcDbEntity
  8
Layer0
100
AcDbLine
 10
19.01421803132763
 20
249.5858359166212
 30
-1896.08269801485
 11
19.33205527652382
 21
250.0000494789944
 31
-1896.082697948791
210
0.0
220
1.0
230
0.0
  0
LINE
  5
503
330
4A5
100
AcDbEntity
  8
Layer0
100
AcDbLine
 10
19.33205527652382
 20
250.0000494789944
 30
-1896.082697948791
 11
19.53185612153362
 21
250.4824113887893
 31
-1896.08269787855
210
0.0
220
1.0
230
0.0
  0
LINE
  5
504
330
4A5
100
AcDbEntity
  8
Layer0
100
AcDbLine
 10
19.53185612153362
 20
250.4824113887893
 30
-1896.08269787855
 11
19.60000446895452
 21
251.0000494789943
 31
-1896.082697808915
210
0.0
220
1.0
230
0.0
  0
LINE
  5
505
330
4A5
100
AcDbEntity
  8
Layer0
100
AcDbLine
 10
19.60000446895452
 20
251.0000494789943
 30
-1896.082697808915
 11
19.53185612153362
 21
251.5176875691994
 31
-1896.08269774463
210
0.0
220
1.0
230
0.0
  0
LINE
  5
506
330
4A5
100
AcDbEntity
  8
Layer0
100
AcDbLine
 10
19.53185612153362
 20
251.5176875691994
 30
-1896.08269774463
 11
19.33205527652382
 21
252.0000494789944
 31
-1896.082697690077
210
0.0
220
1.0
230
0.0
  0
LINE
  5
507
330
4A5
100
AcDbEntity
  8
Layer0
100
AcDbLine
 10
19.33205527652382
 20
252.0000494789944
 30
-1896.082697690077
 11
19.01421803132763
 21
252.4142630413674
 31
-1896.082697648973
210
0.0
220
1.0
230
0.0
  0
LINE
  5
508
330
4A5
100
AcDbEntity
  8
Layer0
100
AcDbLine
 10
19.01421803132763
 20
252.4142630413674
 30
-1896.082697648973
 11
18.60000446895452
 21
252.7321002865634
 31
-1896.08269762412
210
0.0
220
1.0
230
0.0
  0
LINE
  5
509
330
4A5
100
AcDbEntity
  8
Layer0
100
AcDbLine
 10
18.60000446895452
 20
252.7321002865634
 30
-1896.08269762412
 11
18.1176425591596
 21
252.9319011315723
 31
-1896.082697617211
210
0.0
220
1.0
230
0.0
  0
LINE
  5
50A
330
4A5
100
AcDbEntity
  8
Layer0
100
AcDbLine
 10
18.1176425591596
 20
102.9319014110914
 30
-1896.082697617211
 11
17.60000446895452
 21
103.0000497585123
 31
-1896.082697628717
210
0.0
220
1.0
230
0.0
  0
LINE
  5
50B
330
4A5
100
AcDbEntity
  8
Layer0
100
AcDbLine
 10
17.60000446895452
 20
103.0000497585123
 30
-1896.082697628717
 11
17.08236637874967
 21
102.9319014110914
 31
-1896.082697657854
210
0.0
220
1.0
230
0.0
  0
LINE
  5
50C
330
4A5
100
AcDbEntity
  8
Layer0
100
AcDbLine
 10
17.08236637874967
 20
102.9319014110914
 30
-1896.082697657854
 11
16.60000446895452
 21
102.7321005660814
 31
-1896.082697702636
210
0.0
220
1.0
230
0.0
  0
LINE
  5
50D
330
4A5
100
AcDbEntity
  8
Layer0
100
AcDbLine
 10
16.60000446895452
 20
102.7321005660814
 30
-1896.082697702636
 11
16.18579090658164
 21
102.4142633208863
 31
-1896.082697760014
210
0.0
220
1.0
230
0.0
  0
LINE
  5
50E
330
4A5
100
AcDbEntity
  8
Layer0
100
AcDbLine
 10
16.18579090658164
 20
102.4142633208863
 30
-1896.082697760014
 11
15.86795366138659
 21
102.0000497585123
 31
-1896.082697826073
210
0.0
220
1.0
230
0.0
  0
LINE
  5
50F
330
4A5
100
AcDbEntity
  8
Layer0
100
AcDbLine
 10
15.86795366138659
 20
102.0000497585123
 30
-1896.082697826073
 11
15.66815281637656
 21
101.5176878487183
 31
-1896.082697896313
210
0.0
220
1.0
230
0.0
  0
LINE
  5
510
330
4A5
100
AcDbEntity
  8
Layer0
100
AcDbLine
 10
15.66815281637656
 20
101.5176878487183
 30
-1896.082697896313
 11
15.60000446895452
 21
101.0000497585123
 31
-1896.082697965949
210
0.0
220
1.0
230
0.0
  0
LINE
  5
511
330
4A5
100
AcDbEntity
  8
Layer0
100
AcDbLine
 10
15.60000446895452
 20
101.0000497585123
 30
-1896.082697965949
 11
15.66815281637656
 21
100.4824116683074
 31
-1896.082698030234
210
0.0
220
1.0
230
0.0
  0
LINE
  5
512
330
4A5
100
AcDbEntity
  8
Layer0
100
AcDbLine
 10
15.66815281637656
 20
100.4824116683074
 30
-1896.082698030234
 11
15.86795366138659
 21
100.0000497585134
 31
-1896.082698084787
210
0.0
220
1.0
230
0.0
  0
LINE
  5
513
330
4A5
100
AcDbEntity
  8
Layer0
100
AcDbLine
 10
15.86795366138659
 20
100.0000497585134
 30
-1896.082698084787
 11
16.18579090658164
 21
99.58583619613932
 31
-1896.082698125891
210
0.0
220
1.0
230
0.0
  0
LINE
  5
514
330
4A5
100
AcDbEntity
  8
Layer0
100
AcDbLine
 10
16.18579090658164
 20
99.58583619613932
 30
-1896.082698125891
 11
16.60000446895452
 21
99.2679989509444
 31
-1896.082698150743
210
0.0
220
1.0
230
0.0
  0
LINE
  5
515
330
4A5
100
AcDbEntity
  8
Layer0
100
AcDbLine
 10
16.60000446895452
 20
99.2679989509444
 30
-1896.082698150743
 11
17.08236637874967
 21
99.06819810593436
 31
-1896.082698157652
210
0.0
220
1.0
230
0.0
  0
LINE
  5
516
330
4A5
100
AcDbEntity
  8
Layer0
100
AcDbLine
 10
17.08236637874967
 20
99.06819810593436
 30
-1896.082698157652
 11
17.60000446895452
 21
99.00004975851231
 31
-1896.082698146146
210
0.0
220
1.0
230
0.0
  0
LINE
  5
517
330
4A5
100
AcDbEntity
  8
Layer0
100
AcDbLine
 10
17.60000446895452
 20
99.00004975851231
 30
-1896.082698146146
 11
18.1176425591596
 21
99.06819810593436
 31
-1896.082698117009
210
0.0
220
1.0
230
0.0
  0
LINE
  5
518
330
4A5
100
AcDbEntity
  8
Layer0
100
AcDbLine
 10
18.1176425591596
 20
99.06819810593436
 30
-1896.082698117009
 11
18.60000446895452
 21
99.2679989509444
 31
-1896.082698072226
210
0.0
220
1.0
230
0.0
  0
LINE
  5
519
330
4A5
100
AcDbEntity
  8
Layer0
100
AcDbLine
 10
18.60000446895452
 20
99.2679989509444
 30
-1896.082698072226
 11
19.01421803132763
 21
99.58583619613932
 31
-1896.08269801485
210
0.0
220
1.0
230
0.0
  0
LINE
  5
51A
330
4A5
100
AcDbEntity
  8
Layer0
100
AcDbLine
 10
19.01421803132763
 20
99.58583619613932
 30
-1896.08269801485
 11
19.33205527652382
 21
100.0000497585134
 31
-1896.082697948791
210
0.0
220
1.0
230
0.0
  0
LINE
  5
51B
330
4A5
100
AcDbEntity
  8
Layer0
100
AcDbLine
 10
19.33205527652382
 20
100.0000497585134
 30
-1896.082697948791
 11
19.53185612153362
 21
100.4824116683074
 31
-1896.08269787855
210
0.0
220
1.0
230
0.0
  0
LINE
  5
51C
330
4A5
100
AcDbEntity
  8
Layer0
100
AcDbLine
 10
19.53185612153362
 20
100.4824116683074
 30
-1896.08269787855
 11
19.60000446895452
 21
101.0000497585123
 31
-1896.082697808914
210
0.0
220
1.0
230
0.0
  0
LINE
  5
51D
330
4A5
100
AcDbEntity
  8
Layer0
100
AcDbLine
 10
19.60000446895452
 20
101.0000497585123
 30
-1896.082697808914
 11
19.53185612153362
 21
101.5176878487183
 31
-1896.08269774463
210
0.0
220
1.0
230
0.0
  0
LINE
  5
51E
330
4A5
100
AcDbEntity
  8
Layer0
100
AcDbLine
 10
19.53185612153362
 20
101.5176878487183
 30
-1896.08269774463
 11
19.33205527652382
 21
102.0000497585123
 31
-1896.082697690076
210
0.0
220
1.0
230
0.0
  0
LINE
  5
51F
330
4A5
100
AcDbEntity
  8
Layer0
100
AcDbLine
 10
19.33205527652382
 20
102.0000497585123
 30
-1896.082697690076
 11
19.01421803132763
 21
102.4142633208863
 31
-1896.082697648973
210
0.0
220
1.0
230
0.0
  0
LINE
  5
520
330
4A5
100
AcDbEntity
  8
Layer0
100
AcDbLine
 10
19.01421803132763
 20
102.4142633208863
 30
-1896.082697648973
 11
18.60000446895452
 21
102.7321005660814
 31
-1896.08269762412
210
0.0
220
1.0
230
0.0
  0
LINE
  5
521
330
4A5
100
AcDbEntity
  8
Layer0
100
AcDbLine
 10
18.60000446895452
 20
102.7321005660814
 30
-1896.08269762412
 11
18.1176425591596
 21
102.9319014110914
 31
-1896.082697617211
210
0.0
220
1.0
230
0.0
  0
LINE
  5
522
330
4A5
100
AcDbEntity
  8
Layer0
100
AcDbLine
 10
104.6000024107327
 20
12.00001180030335
 30
-1896.082733035535
 11
105.1176405009376
 21
12.06816014772528
 31
-1896.082733006396
210
0.0
220
1.0
230
0.0
  0
LINE
  5
523
330
4A5
100
AcDbEntity
  8
Layer0
100
AcDbLine
 10
105.1176405009376
 20
12.06816014772528
 30
-1896.082733006396
 11
105.6000024107327
 21
12.2679609927344
 31
-1896.082732961615
210
0.0
220
1.0
230
0.0
  0
LINE
  5
524
330
4A5
100
AcDbEntity
  8
Layer0
100
AcDbLine
 10
105.6000024107327
 20
12.2679609927344
 30
-1896.082732961615
 11
106.0142159731056
 21
12.58579823793036
 31
-1896.082732904239
210
0.0
220
1.0
230
0.0
  0
LINE
  5
525
330
4A5
100
AcDbEntity
  8
Layer0
100
AcDbLine
 10
106.0142159731056
 20
12.58579823793036
 30
-1896.082732904239
 11
106.3320532183016
 21
13.00001180030335
 31
-1896.082732838179
210
0.0
220
1.0
230
0.0
  0
LINE
  5
526
330
4A5
100
AcDbEntity
  8
Layer0
100
AcDbLine
 10
106.3320532183016
 20
13.00001180030335
 30
-1896.082732838179
 11
106.5318540633107
 21
13.48237371009838
 31
-1896.082732767938
210
0.0
220
1.0
230
0.0
  0
LINE
  5
527
330
4A5
100
AcDbEntity
  8
Layer0
100
AcDbLine
 10
106.5318540633107
 20
13.48237371009838
 30
-1896.082732767938
 11
106.6000024107327
 21
14.00001180030335
 31
-1896.082732698302
210
0.0
220
1.0
230
0.0
  0
LINE
  5
528
330
4A5
100
AcDbEntity
  8
Layer0
100
AcDbLine
 10
106.6000024107327
 20
14.00001180030335
 30
-1896.082732698302
 11
106.5318540633107
 21
14.51764989050832
 31
-1896.082732634017
210
0.0
220
1.0
230
0.0
  0
LINE
  5
529
330
4A5
100
AcDbEntity
  8
Layer0
100
AcDbLine
 10
106.5318540633107
 20
14.51764989050832
 30
-1896.082732634017
 11
106.3320532183016
 21
15.00001180030335
 31
-1896.082732579465
210
0.0
220
1.0
230
0.0
  0
LINE
  5
52A
330
4A5
100
AcDbEntity
  8
Layer0
100
AcDbLine
 10
106.3320532183016
 20
15.00001180030335
 30
-1896.082732579465
 11
106.0142159731056
 21
15.41422536267635
 31
-1896.082732538362
210
0.0
220
1.0
230
0.0
  0
LINE
  5
52B
330
4A5
100
AcDbEntity
  8
Layer0
100
AcDbLine
 10
106.0142159731056
 20
15.41422536267635
 30
-1896.082732538362
 11
105.6000024107327
 21
15.7320626078723
 31
-1896.082732513508
210
0.0
220
1.0
230
0.0
  0
LINE
  5
52C
330
4A5
100
AcDbEntity
  8
Layer0
100
AcDbLine
 10
105.6000024107327
 20
15.7320626078723
 30
-1896.082732513508
 11
105.1176405009376
 21
15.93186345288143
 31
-1896.082732506599
210
0.0
220
1.0
230
0.0
  0
LINE
  5
52D
330
4A5
100
AcDbEntity
  8
Layer0
100
AcDbLine
 10
105.1176405009376
 20
15.93186345288143
 30
-1896.082732506599
 11
104.6000024107327
 21
16.00001180030335
 31
-1896.082732518106
210
0.0
220
1.0
230
0.0
  0
LINE
  5
52E
330
4A5
100
AcDbEntity
  8
Layer0
100
AcDbLine
 10
104.6000024107327
 20
16.00001180030335
 30
-1896.082732518106
 11
104.0823643205277
 21
15.93186345288143
 31
-1896.082732547243
210
0.0
220
1.0
230
0.0
  0
LINE
  5
52F
330
4A5
100
AcDbEntity
  8
Layer0
100
AcDbLine
 10
104.0823643205277
 20
15.93186345288143
 30
-1896.082732547243
 11
103.6000024107327
 21
15.7320626078723
 31
-1896.082732592026
210
0.0
220
1.0
230
0.0
  0
LINE
  5
530
330
4A5
100
AcDbEntity
  8
Layer0
100
AcDbLine
 10
103.6000024107327
 20
15.7320626078723
 30
-1896.082732592026
 11
103.1857888483596
 21
15.41422536267635
 31
-1896.082732649402
210
0.0
220
1.0
230
0.0
  0
LINE
  5
531
330
4A5
100
AcDbEntity
  8
Layer0
100
AcDbLine
 10
103.1857888483596
 20
15.41422536267635
 30
-1896.082732649402
 11
102.8679516031637
 21
15.00001180030335
 31
-1896.082732715461
210
0.0
220
1.0
230
0.0
  0
LINE
  5
532
330
4A5
100
AcDbEntity
  8
Layer0
100
AcDbLine
 10
102.8679516031637
 20
15.00001180030335
 30
-1896.082732715461
 11
102.6681507581548
 21
14.51764989050832
 31
-1896.082732785702
210
0.0
220
1.0
230
0.0
  0
LINE
  5
533
330
4A5
100
AcDbEntity
  8
Layer0
100
AcDbLine
 10
102.6681507581548
 20
14.51764989050832
 30
-1896.082732785702
 11
102.6000024107327
 21
14.00001180030335
 31
-1896.082732855338
210
0.0
220
1.0
230
0.0
  0
LINE
  5
534
330
4A5
100
AcDbEntity
  8
Layer0
100
AcDbLine
 10
102.6000024107327
 20
14.00001180030335
 30
-1896.082732855338
 11
102.6681507581548
 21
13.48237371009838
 31
-1896.082732919623
210
0.0
220
1.0
230
0.0
  0
LINE
  5
535
330
4A5
100
AcDbEntity
  8
Layer0
100
AcDbLine
 10
102.6681507581548
 20
13.48237371009838
 30
-1896.082732919623
 11
102.8679516031637
 21
13.00001180030335
 31
-1896.082732974176
210
0.0
220
1.0
230
0.0
  0
LINE
  5
536
330
4A5
100
AcDbEntity
  8
Layer0
100
AcDbLine
 10
102.8679516031637
 20
13.00001180030335
 30
-1896.082732974176
 11
103.1857888483596
 21
12.58579823793036
 31
-1896.082733015279
210
0.0
220
1.0
230
0.0
  0
LINE
  5
537
330
4A5
100
AcDbEntity
  8
Layer0
100
AcDbLine
 10
103.1857888483596
 20
12.58579823793036
 30
-1896.082733015279
 11
103.6000024107327
 21
12.2679609927344
 31
-1896.082733040132
210
0.0
220
1.0
230
0.0
  0
LINE
  5
538
330
4A5
100
AcDbEntity
  8
Layer0
100
AcDbLine
 10
103.6000024107327
 20
12.2679609927344
 30
-1896.082733040132
 11
104.0823643205277
 21
12.06816014772528
 31
-1896.082733047041
210
0.0
220
1.0
230
0.0
  0
LINE
  5
539
330
4A5
100
AcDbEntity
  8
Layer0
100
AcDbLine
 10
104.0823643205277
 20
12.06816014772528
 30
-1896.082733047041
 11
104.6000024107327
 21
12.00001180030335
 31
-1896.082733035535
210
0.0
220
1.0
230
0.0
  0
ENDBLK
  5
53B
330
4A5
100
AcDbEntity
  8
0
100
AcDbBlockEnd
  0
BLOCK
  5
5D1
330
53C
100
AcDbEntity
  8
0
100
AcDbBlockBegin
  2
A$C45A5E0D4
 70
     0
 10
0.0
 20
0.0
 30
0.0
  3
A$C45A5E0D4
  1

  0
LINE
  5
53D
330
53C
100
AcDbEntity
  8
0
100
AcDbLine
 10
0.0000446869267421
 20
347.9999768959734
 30
-1896.082708132
 11
-0.0000003336135137
 21
0.0000011418603663
 31
-1896.082752776535
210
0.0
220
1.0
230
0.0
  0
LINE
  5
53E
330
53C
100
AcDbEntity
  8
0
100
AcDbLine
 10
357.3000141820556
 20
0.0000002329803692
 30
-1896.082739121157
 11
-0.0000003336135137
 21
0.0000011418603663
 31
-1896.082752776535
210
0.0
220
1.0
230
0.0
  0
LINE
  5
53F
330
53C
100
AcDbEntity
  8
0
100
AcDbLine
 10
357.3000546249228
 20
347.9999759870924
 30
-1896.082693733073
 11
0.0000446869267421
 21
347.9999768959734
 31
-1896.082708132
210
0.0
220
1.0
230
0.0
  0
LINE
  5
540
330
53C
100
AcDbEntity
  8
0
100
AcDbLine
 10
357.3000141820556
 20
0.0000002329803692
 30
-1896.082739121157
 11
357.3000546249228
 21
347.9999759870924
 31
-1896.082693733073
210
0.0
220
1.0
230
0.0
  0
LINE
  5
541
330
53C
100
AcDbEntity
  8
0
100
AcDbLine
 10
343.0142125502726
 20
249.5858055695093
 30
-1896.082735125051
 11
343.3320497954688
 21
250.0000191318824
 31
-1896.08273505899
210
0.0
220
1.0
230
0.0
  0
LINE
  5
542
330
53C
100
AcDbEntity
  8
0
100
AcDbLine
 10
339.5999989878997
 20
251.0000191318824
 30
-1896.082735076149
 11
339.6681473353218
 21
250.4823810416773
 31
-1896.082735140433
210
0.0
220
1.0
230
0.0
  0
LINE
  5
543
330
53C
100
AcDbEntity
  8
0
100
AcDbLine
 10
340.5999989878997
 20
252.7320699394512
 30
-1896.082734812838
 11
340.1857854255266
 21
252.4142326942555
 31
-1896.082734870213
210
0.0
220
1.0
230
0.0
  0
LINE
  5
544
330
53C
100
AcDbEntity
  8
0
100
AcDbLine
 10
339.8679481803307
 20
250.0000191318824
 30
-1896.082735194987
 11
340.1857854255266
 21
249.5858055695093
 31
-1896.082735236091
210
0.0
220
1.0
230
0.0
  0
LINE
  5
545
330
53C
100
AcDbEntity
  8
0
100
AcDbLine
 10
343.0142125502726
 20
252.4142326942555
 30
-1896.082734759173
 11
342.5999989878997
 21
252.7320699394512
 31
-1896.08273473432
210
0.0
220
1.0
230
0.0
  0
LINE
  5
546
330
53C
100
AcDbEntity
  8
0
100
AcDbLine
 10
343.5318506404777
 20
101.5176575016054
 30
-1896.08273485483
 11
343.3320497954688
 21
102.0000194114003
 31
-1896.082734800276
210
0.0
220
1.0
230
0.0
  0
LINE
  5
547
330
53C
100
AcDbEntity
  8
0
100
AcDbLine
 10
339.6681473353218
 20
100.4823813211953
 30
-1896.082735140433
 11
339.8679481803307
 21
100.0000194114003
 31
-1896.082735194987
210
0.0
220
1.0
230
0.0
  0
LINE
  5
548
330
53C
100
AcDbEntity
  8
0
100
AcDbLine
 10
343.3320497954688
 20
250.0000191318824
 30
-1896.08273505899
 11
343.5318506404777
 21
250.4823810416773
 31
-1896.08273498875
210
0.0
220
1.0
230
0.0
  0
LINE
  5
549
330
53C
100
AcDbEntity
  8
0
100
AcDbLine
 10
255.1176402214208
 20
12.06816014772528
 30
-1896.08273300641
 11
255.6000021312157
 21
12.2679609927344
 31
-1896.082732961627
210
0.0
220
1.0
230
0.0
  0
LINE
  5
54A
330
53C
100
AcDbEntity
  8
0
100
AcDbLine
 10
340.1857854255266
 20
252.4142326942555
 30
-1896.082734870213
 11
339.8679481803307
 21
252.0000191318824
 31
-1896.082734936273
210
0.0
220
1.0
230
0.0
  0
LINE
  5
54B
330
53C
100
AcDbEntity
  8
0
100
AcDbLine
 10
343.0142125502726
 20
102.4142329737734
 30
-1896.082734759173
 11
342.5999989878997
 21
102.7320702189694
 31
-1896.08273473432
210
0.0
220
1.0
230
0.0
  0
LINE
  5
54C
330
53C
100
AcDbEntity
  8
0
100
AcDbLine
 10
342.1176370781048
 20
102.9318710639784
 30
-1896.082734727411
 11
341.5999989878997
 21
103.0000194114003
 31
-1896.082734738916
210
0.0
220
1.0
230
0.0
  0
LINE
  5
54D
330
53C
100
AcDbEntity
  8
0
100
AcDbLine
 10
341.5999989878997
 20
103.0000194114003
 30
-1896.082734738916
 11
341.0823608976946
 21
102.9318710639784
 31
-1896.082734768054
210
0.0
220
1.0
230
0.0
  0
LINE
  5
54E
330
53C
100
AcDbEntity
  8
0
100
AcDbLine
 10
341.0823608976946
 20
102.9318710639784
 30
-1896.082734768054
 11
340.5999989878997
 21
102.7320702189694
 31
-1896.082734812837
210
0.0
220
1.0
230
0.0
  0
LINE
  5
54F
330
53C
100
AcDbEntity
  8
0
100
AcDbLine
 10
340.5999989878997
 20
102.7320702189694
 30
-1896.082734812837
 11
340.1857854255266
 21
102.4142329737734
 31
-1896.082734870213
210
0.0
220
1.0
230
0.0
  0
LINE
  5
550
330
53C
100
AcDbEntity
  8
0
100
AcDbLine
 10
340.1857854255266
 20
102.4142329737734
 30
-1896.082734870213
 11
339.8679481803307
 21
102.0000194114003
 31
-1896.082734936273
210
0.0
220
1.0
230
0.0
  0
LINE
  5
551
330
53C
100
AcDbEntity
  8
0
100
AcDbLine
 10
339.8679481803307
 20
102.0000194114003
 30
-1896.082734936273
 11
339.6681473353218
 21
101.5176575016054
 31
-1896.082735006514
210
0.0
220
1.0
230
0.0
  0
LINE
  5
552
330
53C
100
AcDbEntity
  8
0
100
AcDbLine
 10
339.6681473353218
 20
101.5176575016054
 30
-1896.082735006514
 11
339.5999989878997
 21
101.0000194114003
 31
-1896.082735076149
210
0.0
220
1.0
230
0.0
  0
LINE
  5
553
330
53C
100
AcDbEntity
  8
0
100
AcDbLine
 10
339.5999989878997
 20
101.0000194114003
 30
-1896.082735076149
 11
339.6681473353218
 21
100.4823813211953
 31
-1896.082735140433
210
0.0
220
1.0
230
0.0
  0
LINE
  5
554
330
53C
100
AcDbEntity
  8
0
100
AcDbLine
 10
339.8679481803307
 20
100.0000194114003
 30
-1896.082735194987
 11
340.1857854255266
 21
99.58580584902733
 31
-1896.082735236091
210
0.0
220
1.0
230
0.0
  0
LINE
  5
555
330
53C
100
AcDbEntity
  8
0
100
AcDbLine
 10
340.1857854255266
 20
99.58580584902733
 30
-1896.082735236091
 11
340.5999989878997
 21
99.26796860383138
 31
-1896.082735260944
210
0.0
220
1.0
230
0.0
  0
LINE
  5
556
330
53C
100
AcDbEntity
  8
0
100
AcDbLine
 10
340.5999989878997
 20
99.26796860383138
 30
-1896.082735260944
 11
341.0823608976946
 21
99.06816775882237
 31
-1896.082735267853
210
0.0
220
1.0
230
0.0
  0
LINE
  5
557
330
53C
100
AcDbEntity
  8
0
100
AcDbLine
 10
341.0823608976946
 20
99.06816775882237
 30
-1896.082735267853
 11
341.5999989878997
 21
99.00001941140033
 31
-1896.082735256346
210
0.0
220
1.0
230
0.0
  0
LINE
  5
558
330
53C
100
AcDbEntity
  8
0
100
AcDbLine
 10
341.5999989878997
 20
99.00001941140033
 30
-1896.082735256346
 11
342.1176370781048
 21
99.06816775882237
 31
-1896.082735227209
210
0.0
220
1.0
230
0.0
  0
LINE
  5
559
330
53C
100
AcDbEntity
  8
0
100
AcDbLine
 10
342.1176370781048
 20
99.06816775882237
 30
-1896.082735227209
 11
342.5999989878997
 21
99.26796860383138
 31
-1896.082735182426
210
0.0
220
1.0
230
0.0
  0
LINE
  5
55A
330
53C
100
AcDbEntity
  8
0
100
AcDbLine
 10
342.5999989878997
 20
99.26796860383138
 30
-1896.082735182426
 11
343.0142125502726
 21
99.58580584902733
 31
-1896.08273512505
210
0.0
220
1.0
230
0.0
  0
LINE
  5
55B
330
53C
100
AcDbEntity
  8
0
100
AcDbLine
 10
343.0142125502726
 20
99.58580584902733
 30
-1896.08273512505
 11
343.3320497954688
 21
100.0000194114003
 31
-1896.08273505899
210
0.0
220
1.0
230
0.0
  0
LINE
  5
55C
330
53C
100
AcDbEntity
  8
0
100
AcDbLine
 10
343.3320497954688
 20
100.0000194114003
 30
-1896.08273505899
 11
343.5318506404777
 21
100.4823813211953
 31
-1896.08273498875
210
0.0
220
1.0
230
0.0
  0
LINE
  5
55D
330
53C
100
AcDbEntity
  8
0
100
AcDbLine
 10
343.5318506404777
 20
100.4823813211953
 30
-1896.08273498875
 11
343.5999989878997
 21
101.0000194114003
 31
-1896.082734919114
210
0.0
220
1.0
230
0.0
  0
LINE
  5
55E
330
53C
100
AcDbEntity
  8
0
100
AcDbLine
 10
343.5999989878997
 20
101.0000194114003
 30
-1896.082734919114
 11
343.5318506404777
 21
101.5176575016054
 31
-1896.08273485483
210
0.0
220
1.0
230
0.0
  0
LINE
  5
55F
330
53C
100
AcDbEntity
  8
0
100
AcDbLine
 10
343.3320497954688
 20
102.0000194114003
 30
-1896.082734800276
 11
343.0142125502726
 21
102.4142329737734
 31
-1896.082734759173
210
0.0
220
1.0
230
0.0
  0
LINE
  5
560
330
53C
100
AcDbEntity
  8
0
100
AcDbLine
 10
342.5999989878997
 20
102.7320702189694
 30
-1896.08273473432
 11
342.1176370781048
 21
102.9318710639784
 31
-1896.082734727411
210
0.0
220
1.0
230
0.0
  0
LINE
  5
561
330
53C
100
AcDbEntity
  8
0
100
AcDbLine
 10
339.8679481803307
 20
252.0000191318824
 30
-1896.082734936273
 11
339.6681473353218
 21
251.5176572220874
 31
-1896.082735006514
210
0.0
220
1.0
230
0.0
  0
LINE
  5
562
330
53C
100
AcDbEntity
  8
0
100
AcDbLine
 10
256.5318537837937
 20
14.51764989050832
 30
-1896.082732634031
 11
256.3320529387846
 21
15.00001180030335
 31
-1896.082732579477
210
0.0
220
1.0
230
0.0
  0
LINE
  5
563
330
53C
100
AcDbEntity
  8
0
100
AcDbLine
 10
341.0823608976946
 20
252.9318707844603
 30
-1896.082734768054
 11
340.5999989878997
 21
252.7320699394512
 31
-1896.082734812838
210
0.0
220
1.0
230
0.0
  0
LINE
  5
564
330
53C
100
AcDbEntity
  8
0
100
AcDbLine
 10
339.6681473353218
 20
250.4823810416773
 30
-1896.082735140433
 11
339.8679481803307
 21
250.0000191318824
 31
-1896.082735194987
210
0.0
220
1.0
230
0.0
  0
LINE
  5
565
330
53C
100
AcDbEntity
  8
0
100
AcDbLine
 10
343.5318506404777
 20
250.4823810416773
 30
-1896.08273498875
 11
343.5999989878997
 21
251.0000191318824
 31
-1896.082734919115
210
0.0
220
1.0
230
0.0
  0
LINE
  5
566
330
53C
100
AcDbEntity
  8
0
100
AcDbLine
 10
342.5999989878997
 20
249.2679683243133
 30
-1896.082735182426
 11
343.0142125502726
 21
249.5858055695093
 31
-1896.082735125051
210
0.0
220
1.0
230
0.0
  0
LINE
  5
567
330
53C
100
AcDbEntity
  8
0
100
AcDbLine
 10
342.1176370781048
 20
249.0681674793044
 30
-1896.082735227209
 11
342.5999989878997
 21
249.2679683243133
 31
-1896.082735182426
210
0.0
220
1.0
230
0.0
  0
LINE
  5
568
330
53C
100
AcDbEntity
  8
0
100
AcDbLine
 10
342.5999989878997
 20
252.7320699394512
 30
-1896.08273473432
 11
342.1176370781048
 21
252.9318707844603
 31
-1896.082734727411
210
0.0
220
1.0
230
0.0
  0
LINE
  5
569
330
53C
100
AcDbEntity
  8
0
100
AcDbLine
 10
342.1176370781048
 20
252.9318707844603
 30
-1896.082734727411
 11
341.5999989878997
 21
253.0000191318824
 31
-1896.082734738918
210
0.0
220
1.0
230
0.0
  0
LINE
  5
56A
330
53C
100
AcDbEntity
  8
0
100
AcDbLine
 10
255.6000021312157
 20
12.2679609927344
 30
-1896.082732961627
 11
256.0142156935888
 21
12.58579823793036
 31
-1896.082732904252
210
0.0
220
1.0
230
0.0
  0
LINE
  5
56B
330
53C
100
AcDbEntity
  8
0
100
AcDbLine
 10
339.6681473353218
 20
251.5176572220874
 30
-1896.082735006514
 11
339.5999989878997
 21
251.0000191318824
 31
-1896.082735076149
210
0.0
220
1.0
230
0.0
  0
LINE
  5
56C
330
53C
100
AcDbEntity
  8
0
100
AcDbLine
 10
256.0142156935888
 20
12.58579823793036
 30
-1896.082732904252
 11
256.3320529387846
 21
13.00001180030335
 31
-1896.082732838192
210
0.0
220
1.0
230
0.0
  0
LINE
  5
56D
330
53C
100
AcDbEntity
  8
0
100
AcDbLine
 10
254.6000021312157
 20
12.00001180030335
 30
-1896.082733035548
 11
255.1176402214208
 21
12.06816014772528
 31
-1896.08273300641
210
0.0
220
1.0
230
0.0
  0
LINE
  5
56E
330
53C
100
AcDbEntity
  8
0
100
AcDbLine
 10
256.3320529387846
 20
13.00001180030335
 30
-1896.082732838192
 11
256.5318537837937
 21
13.48237371009838
 31
-1896.082732767951
210
0.0
220
1.0
230
0.0
  0
LINE
  5
56F
330
53C
100
AcDbEntity
  8
0
100
AcDbLine
 10
256.5318537837937
 20
13.48237371009838
 30
-1896.082732767951
 11
256.6000021312157
 21
14.00001180030335
 31
-1896.082732698316
210
0.0
220
1.0
230
0.0
  0
LINE
  5
570
330
53C
100
AcDbEntity
  8
0
100
AcDbLine
 10
256.6000021312157
 20
14.00001180030335
 30
-1896.082732698316
 11
256.5318537837937
 21
14.51764989050832
 31
-1896.082732634031
210
0.0
220
1.0
230
0.0
  0
LINE
  5
571
330
53C
100
AcDbEntity
  8
0
100
AcDbLine
 10
256.3320529387846
 20
15.00001180030335
 30
-1896.082732579477
 11
256.0142156935888
 21
15.41422536267635
 31
-1896.082732538374
210
0.0
220
1.0
230
0.0
  0
LINE
  5
572
330
53C
100
AcDbEntity
  8
0
100
AcDbLine
 10
256.0142156935888
 20
15.41422536267635
 30
-1896.082732538374
 11
255.6000021312157
 21
15.7320626078723
 31
-1896.082732513521
210
0.0
220
1.0
230
0.0
  0
LINE
  5
573
330
53C
100
AcDbEntity
  8
0
100
AcDbLine
 10
255.6000021312157
 20
15.7320626078723
 30
-1896.082732513521
 11
255.1176402214208
 21
15.93186345288143
 31
-1896.082732506612
210
0.0
220
1.0
230
0.0
  0
LINE
  5
574
330
53C
100
AcDbEntity
  8
0
100
AcDbLine
 10
255.1176402214208
 20
15.93186345288143
 30
-1896.082732506612
 11
254.6000021312157
 21
16.00001180030335
 31
-1896.082732518119
210
0.0
220
1.0
230
0.0
  0
LINE
  5
575
330
53C
100
AcDbEntity
  8
0
100
AcDbLine
 10
254.6000021312157
 20
16.00001180030335
 30
-1896.082732518119
 11
254.0823640410108
 21
15.93186345288143
 31
-1896.082732547256
210
0.0
220
1.0
230
0.0
  0
LINE
  5
576
330
53C
100
AcDbEntity
  8
0
100
AcDbLine
 10
254.0823640410108
 20
15.93186345288143
 30
-1896.082732547256
 11
253.6000021312157
 21
15.7320626078723
 31
-1896.082732592039
210
0.0
220
1.0
230
0.0
  0
LINE
  5
577
330
53C
100
AcDbEntity
  8
0
100
AcDbLine
 10
253.6000021312157
 20
15.7320626078723
 30
-1896.082732592039
 11
253.1857885688426
 21
15.41422536267635
 31
-1896.082732649415
210
0.0
220
1.0
230
0.0
  0
LINE
  5
578
330
53C
100
AcDbEntity
  8
0
100
AcDbLine
 10
253.1857885688426
 20
15.41422536267635
 30
-1896.082732649415
 11
252.8679513236467
 21
15.00001180030335
 31
-1896.082732715474
210
0.0
220
1.0
230
0.0
  0
LINE
  5
579
330
53C
100
AcDbEntity
  8
0
100
AcDbLine
 10
252.8679513236467
 20
15.00001180030335
 30
-1896.082732715474
 11
252.6681504786377
 21
14.51764989050832
 31
-1896.082732785715
210
0.0
220
1.0
230
0.0
  0
LINE
  5
57A
330
53C
100
AcDbEntity
  8
0
100
AcDbLine
 10
252.6681504786377
 20
14.51764989050832
 30
-1896.082732785715
 11
252.6000021312157
 21
14.00001180030335
 31
-1896.082732855351
210
0.0
220
1.0
230
0.0
  0
LINE
  5
57B
330
53C
100
AcDbEntity
  8
0
100
AcDbLine
 10
252.6000021312157
 20
14.00001180030335
 30
-1896.082732855351
 11
252.6681504786377
 21
13.48237371009838
 31
-1896.082732919635
210
0.0
220
1.0
230
0.0
  0
LINE
  5
57C
330
53C
100
AcDbEntity
  8
0
100
AcDbLine
 10
252.6681504786377
 20
13.48237371009838
 30
-1896.082732919635
 11
252.8679513236467
 21
13.00001180030335
 31
-1896.082732974189
210
0.0
220
1.0
230
0.0
  0
LINE
  5
57D
330
53C
100
AcDbEntity
  8
0
100
AcDbLine
 10
252.8679513236467
 20
13.00001180030335
 30
-1896.082732974189
 11
253.1857885688426
 21
12.58579823793036
 31
-1896.082733015292
210
0.0
220
1.0
230
0.0
  0
LINE
  5
57E
330
53C
100
AcDbEntity
  8
0
100
AcDbLine
 10
253.1857885688426
 20
12.58579823793036
 30
-1896.082733015292
 11
253.6000021312157
 21
12.2679609927344
 31
-1896.082733040145
210
0.0
220
1.0
230
0.0
  0
LINE
  5
57F
330
53C
100
AcDbEntity
  8
0
100
AcDbLine
 10
253.6000021312157
 20
12.2679609927344
 30
-1896.082733040145
 11
254.0823640410108
 21
12.06816014772528
 31
-1896.082733047054
210
0.0
220
1.0
230
0.0
  0
LINE
  5
580
330
53C
100
AcDbEntity
  8
0
100
AcDbLine
 10
254.0823640410108
 20
12.06816014772528
 30
-1896.082733047054
 11
254.6000021312157
 21
12.00001180030335
 31
-1896.082733035548
210
0.0
220
1.0
230
0.0
  0
LINE
  5
581
330
53C
100
AcDbEntity
  8
0
100
AcDbLine
 10
341.0823608976946
 20
249.0681674793044
 30
-1896.082735267853
 11
341.5999989878997
 21
249.0000191318824
 31
-1896.082735256347
210
0.0
220
1.0
230
0.0
  0
LINE
  5
582
330
53C
100
AcDbEntity
  8
0
100
AcDbLine
 10
343.5999989878997
 20
251.0000191318824
 30
-1896.082734919115
 11
343.5318506404777
 21
251.5176572220874
 31
-1896.08273485483
210
0.0
220
1.0
230
0.0
  0
LINE
  5
583
330
53C
100
AcDbEntity
  8
0
100
AcDbLine
 10
341.5999989878997
 20
253.0000191318824
 30
-1896.082734738918
 11
341.0823608976946
 21
252.9318707844603
 31
-1896.082734768054
210
0.0
220
1.0
230
0.0
  0
LINE
  5
584
330
53C
100
AcDbEntity
  8
0
100
AcDbLine
 10
340.1857854255266
 20
249.5858055695093
 30
-1896.082735236091
 11
340.5999989878997
 21
249.2679683243133
 31
-1896.082735260944
210
0.0
220
1.0
230
0.0
  0
LINE
  5
585
330
53C
100
AcDbEntity
  8
0
100
AcDbLine
 10
340.5999989878997
 20
249.2679683243133
 30
-1896.082735260944
 11
341.0823608976946
 21
249.0681674793044
 31
-1896.082735267853
210
0.0
220
1.0
230
0.0
  0
LINE
  5
586
330
53C
100
AcDbEntity
  8
0
100
AcDbLine
 10
341.5999989878997
 20
249.0000191318824
 30
-1896.082735256347
 11
342.1176370781048
 21
249.0681674793044
 31
-1896.082735227209
210
0.0
220
1.0
230
0.0
  0
LINE
  5
587
330
53C
100
AcDbEntity
  8
0
100
AcDbLine
 10
343.5318506404777
 20
251.5176572220874
 30
-1896.08273485483
 11
343.3320497954688
 21
252.0000191318824
 31
-1896.082734800276
210
0.0
220
1.0
230
0.0
  0
LINE
  5
588
330
53C
100
AcDbEntity
  8
0
100
AcDbLine
 10
343.3320497954688
 20
252.0000191318824
 30
-1896.082734800276
 11
343.0142125502726
 21
252.4142326942555
 31
-1896.082734759173
210
0.0
220
1.0
230
0.0
  0
LINE
  5
589
330
53C
100
AcDbEntity
  8
0
100
AcDbLine
 10
18.1176425591596
 20
252.9319011315723
 30
-1896.082697617211
 11
17.60000446895452
 21
253.0000494789943
 31
-1896.082697628718
210
0.0
220
1.0
230
0.0
  0
LINE
  5
58A
330
53C
100
AcDbEntity
  8
0
100
AcDbLine
 10
17.60000446895452
 20
253.0000494789943
 30
-1896.082697628718
 11
17.08236637874967
 21
252.9319011315723
 31
-1896.082697657854
210
0.0
220
1.0
230
0.0
  0
LINE
  5
58B
330
53C
100
AcDbEntity
  8
0
100
AcDbLine
 10
17.08236637874967
 20
252.9319011315723
 30
-1896.082697657854
 11
16.60000446895452
 21
252.7321002865634
 31
-1896.082697702636
210
0.0
220
1.0
230
0.0
  0
LINE
  5
58C
330
53C
100
AcDbEntity
  8
0
100
AcDbLine
 10
16.60000446895452
 20
252.7321002865634
 30
-1896.082697702636
 11
16.18579090658164
 21
252.4142630413674
 31
-1896.082697760014
210
0.0
220
1.0
230
0.0
  0
LINE
  5
58D
330
53C
100
AcDbEntity
  8
0
100
AcDbLine
 10
16.18579090658164
 20
252.4142630413674
 30
-1896.082697760014
 11
15.86795366138659
 21
252.0000494789944
 31
-1896.082697826073
210
0.0
220
1.0
230
0.0
  0
LINE
  5
58E
330
53C
100
AcDbEntity
  8
0
100
AcDbLine
 10
15.86795366138659
 20
252.0000494789944
 30
-1896.082697826073
 11
15.66815281637656
 21
251.5176875691994
 31
-1896.082697896314
210
0.0
220
1.0
230
0.0
  0
LINE
  5
58F
330
53C
100
AcDbEntity
  8
0
100
AcDbLine
 10
15.66815281637656
 20
251.5176875691994
 30
-1896.082697896314
 11
15.60000446895452
 21
251.0000494789943
 31
-1896.082697965949
210
0.0
220
1.0
230
0.0
  0
LINE
  5
590
330
53C
100
AcDbEntity
  8
0
100
AcDbLine
 10
15.60000446895452
 20
251.0000494789943
 30
-1896.082697965949
 11
15.66815281637656
 21
250.4824113887893
 31
-1896.082698030234
210
0.0
220
1.0
230
0.0
  0
LINE
  5
591
330
53C
100
AcDbEntity
  8
0
100
AcDbLine
 10
15.66815281637656
 20
250.4824113887893
 30
-1896.082698030234
 11
15.86795366138659
 21
250.0000494789944
 31
-1896.082698084787
210
0.0
220
1.0
230
0.0
  0
LINE
  5
592
330
53C
100
AcDbEntity
  8
0
100
AcDbLine
 10
15.86795366138659
 20
250.0000494789944
 30
-1896.082698084787
 11
16.18579090658164
 21
249.5858359166212
 31
-1896.082698125891
210
0.0
220
1.0
230
0.0
  0
LINE
  5
593
330
53C
100
AcDbEntity
  8
0
100
AcDbLine
 10
16.18579090658164
 20
249.5858359166212
 30
-1896.082698125891
 11
16.60000446895452
 21
249.2679986714264
 31
-1896.082698150744
210
0.0
220
1.0
230
0.0
  0
LINE
  5
594
330
53C
100
AcDbEntity
  8
0
100
AcDbLine
 10
16.60000446895452
 20
249.2679986714264
 30
-1896.082698150744
 11
17.08236637874967
 21
249.0681978264164
 31
-1896.082698157653
210
0.0
220
1.0
230
0.0
  0
LINE
  5
595
330
53C
100
AcDbEntity
  8
0
100
AcDbLine
 10
17.08236637874967
 20
249.0681978264164
 30
-1896.082698157653
 11
17.60000446895452
 21
249.0000494789943
 31
-1896.082698146147
210
0.0
220
1.0
230
0.0
  0
LINE
  5
596
330
53C
100
AcDbEntity
  8
0
100
AcDbLine
 10
17.60000446895452
 20
249.0000494789943
 30
-1896.082698146147
 11
18.1176425591596
 21
249.0681978264164
 31
-1896.082698117009
210
0.0
220
1.0
230
0.0
  0
LINE
  5
597
330
53C
100
AcDbEntity
  8
0
100
AcDbLine
 10
18.1176425591596
 20
249.0681978264164
 30
-1896.082698117009
 11
18.60000446895452
 21
249.2679986714264
 31
-1896.082698072227
210
0.0
220
1.0
230
0.0
  0
LINE
  5
598
330
53C
100
AcDbEntity
  8
0
100
AcDbLine
 10
18.60000446895452
 20
249.2679986714264
 30
-1896.082698072227
 11
19.01421803132763
 21
249.5858359166212
 31
-1896.08269801485
210
0.0
220
1.0
230
0.0
  0
LINE
  5
599
330
53C
100
AcDbEntity
  8
0
100
AcDbLine
 10
19.01421803132763
 20
249.5858359166212
 30
-1896.08269801485
 11
19.33205527652382
 21
250.0000494789944
 31
-1896.082697948791
210
0.0
220
1.0
230
0.0
  0
LINE
  5
59A
330
53C
100
AcDbEntity
  8
0
100
AcDbLine
 10
19.33205527652382
 20
250.0000494789944
 30
-1896.082697948791
 11
19.53185612153362
 21
250.4824113887893
 31
-1896.08269787855
210
0.0
220
1.0
230
0.0
  0
LINE
  5
59B
330
53C
100
AcDbEntity
  8
0
100
AcDbLine
 10
19.53185612153362
 20
250.4824113887893
 30
-1896.08269787855
 11
19.60000446895452
 21
251.0000494789943
 31
-1896.082697808915
210
0.0
220
1.0
230
0.0
  0
LINE
  5
59C
330
53C
100
AcDbEntity
  8
0
100
AcDbLine
 10
19.60000446895452
 20
251.0000494789943
 30
-1896.082697808915
 11
19.53185612153362
 21
251.5176875691994
 31
-1896.08269774463
210
0.0
220
1.0
230
0.0
  0
LINE
  5
59D
330
53C
100
AcDbEntity
  8
0
100
AcDbLine
 10
19.53185612153362
 20
251.5176875691994
 30
-1896.08269774463
 11
19.33205527652382
 21
252.0000494789944
 31
-1896.082697690077
210
0.0
220
1.0
230
0.0
  0
LINE
  5
59E
330
53C
100
AcDbEntity
  8
0
100
AcDbLine
 10
19.33205527652382
 20
252.0000494789944
 30
-1896.082697690077
 11
19.01421803132763
 21
252.4142630413674
 31
-1896.082697648973
210
0.0
220
1.0
230
0.0
  0
LINE
  5
59F
330
53C
100
AcDbEntity
  8
0
100
AcDbLine
 10
19.01421803132763
 20
252.4142630413674
 30
-1896.082697648973
 11
18.60000446895452
 21
252.7321002865634
 31
-1896.08269762412
210
0.0
220
1.0
230
0.0
  0
LINE
  5
5A0
330
53C
100
AcDbEntity
  8
0
100
AcDbLine
 10
18.60000446895452
 20
252.7321002865634
 30
-1896.08269762412
 11
18.1176425591596
 21
252.9319011315723
 31
-1896.082697617211
210
0.0
220
1.0
230
0.0
  0
LINE
  5
5A1
330
53C
100
AcDbEntity
  8
0
100
AcDbLine
 10
18.1176425591596
 20
102.9319014110914
 30
-1896.082697617211
 11
17.60000446895452
 21
103.0000497585123
 31
-1896.082697628717
210
0.0
220
1.0
230
0.0
  0
LINE
  5
5A2
330
53C
100
AcDbEntity
  8
0
100
AcDbLine
 10
17.60000446895452
 20
103.0000497585123
 30
-1896.082697628717
 11
17.08236637874967
 21
102.9319014110914
 31
-1896.082697657854
210
0.0
220
1.0
230
0.0
  0
LINE
  5
5A3
330
53C
100
AcDbEntity
  8
0
100
AcDbLine
 10
17.08236637874967
 20
102.9319014110914
 30
-1896.082697657854
 11
16.60000446895452
 21
102.7321005660814
 31
-1896.082697702636
210
0.0
220
1.0
230
0.0
  0
LINE
  5
5A4
330
53C
100
AcDbEntity
  8
0
100
AcDbLine
 10
16.60000446895452
 20
102.7321005660814
 30
-1896.082697702636
 11
16.18579090658164
 21
102.4142633208863
 31
-1896.082697760014
210
0.0
220
1.0
230
0.0
  0
LINE
  5
5A5
330
53C
100
AcDbEntity
  8
0
100
AcDbLine
 10
16.18579090658164
 20
102.4142633208863
 30
-1896.082697760014
 11
15.86795366138659
 21
102.0000497585123
 31
-1896.082697826073
210
0.0
220
1.0
230
0.0
  0
LINE
  5
5A6
330
53C
100
AcDbEntity
  8
0
100
AcDbLine
 10
15.86795366138659
 20
102.0000497585123
 30
-1896.082697826073
 11
15.66815281637656
 21
101.5176878487183
 31
-1896.082697896313
210
0.0
220
1.0
230
0.0
  0
LINE
  5
5A7
330
53C
100
AcDbEntity
  8
0
100
AcDbLine
 10
15.66815281637656
 20
101.5176878487183
 30
-1896.082697896313
 11
15.60000446895452
 21
101.0000497585123
 31
-1896.082697965949
210
0.0
220
1.0
230
0.0
  0
LINE
  5
5A8
330
53C
100
AcDbEntity
  8
0
100
AcDbLine
 10
15.60000446895452
 20
101.0000497585123
 30
-1896.082697965949
 11
15.66815281637656
 21
100.4824116683074
 31
-1896.082698030234
210
0.0
220
1.0
230
0.0
  0
LINE
  5
5A9
330
53C
100
AcDbEntity
  8
0
100
AcDbLine
 10
15.66815281637656
 20
100.4824116683074
 30
-1896.082698030234
 11
15.86795366138659
 21
100.0000497585134
 31
-1896.082698084787
210
0.0
220
1.0
230
0.0
  0
LINE
  5
5AA
330
53C
100
AcDbEntity
  8
0
100
AcDbLine
 10
15.86795366138659
 20
100.0000497585134
 30
-1896.082698084787
 11
16.18579090658164
 21
99.58583619613932
 31
-1896.082698125891
210
0.0
220
1.0
230
0.0
  0
LINE
  5
5AB
330
53C
100
AcDbEntity
  8
0
100
AcDbLine
 10
16.18579090658164
 20
99.58583619613932
 30
-1896.082698125891
 11
16.60000446895452
 21
99.2679989509444
 31
-1896.082698150743
210
0.0
220
1.0
230
0.0
  0
LINE
  5
5AC
330
53C
100
AcDbEntity
  8
0
100
AcDbLine
 10
16.60000446895452
 20
99.2679989509444
 30
-1896.082698150743
 11
17.08236637874967
 21
99.06819810593436
 31
-1896.082698157652
210
0.0
220
1.0
230
0.0
  0
LINE
  5
5AD
330
53C
100
AcDbEntity
  8
0
100
AcDbLine
 10
17.08236637874967
 20
99.06819810593436
 30
-1896.082698157652
 11
17.60000446895452
 21
99.00004975851231
 31
-1896.082698146146
210
0.0
220
1.0
230
0.0
  0
LINE
  5
5AE
330
53C
100
AcDbEntity
  8
0
100
AcDbLine
 10
17.60000446895452
 20
99.00004975851231
 30
-1896.082698146146
 11
18.1176425591596
 21
99.06819810593436
 31
-1896.082698117009
210
0.0
220
1.0
230
0.0
  0
LINE
  5
5AF
330
53C
100
AcDbEntity
  8
0
100
AcDbLine
 10
18.1176425591596
 20
99.06819810593436
 30
-1896.082698117009
 11
18.60000446895452
 21
99.2679989509444
 31
-1896.082698072226
210
0.0
220
1.0
230
0.0
  0
LINE
  5
5B0
330
53C
100
AcDbEntity
  8
0
100
AcDbLine
 10
18.60000446895452
 20
99.2679989509444
 30
-1896.082698072226
 11
19.01421803132763
 21
99.58583619613932
 31
-1896.08269801485
210
0.0
220
1.0
230
0.0
  0
LINE
  5
5B1
330
53C
100
AcDbEntity
  8
0
100
AcDbLine
 10
19.01421803132763
 20
99.58583619613932
 30
-1896.08269801485
 11
19.33205527652382
 21
100.0000497585134
 31
-1896.082697948791
210
0.0
220
1.0
230
0.0
  0
LINE
  5
5B2
330
53C
100
AcDbEntity
  8
0
100
AcDbLine
 10
19.33205527652382
 20
100.0000497585134
 30
-1896.082697948791
 11
19.53185612153362
 21
100.4824116683074
 31
-1896.08269787855
210
0.0
220
1.0
230
0.0
  0
LINE
  5
5B3
330
53C
100
AcDbEntity
  8
0
100
AcDbLine
 10
19.53185612153362
 20
100.4824116683074
 30
-1896.08269787855
 11
19.60000446895452
 21
101.0000497585123
 31
-1896.082697808914
210
0.0
220
1.0
230
0.0
  0
LINE
  5
5B4
330
53C
100
AcDbEntity
  8
0
100
AcDbLine
 10
19.60000446895452
 20
101.0000497585123
 30
-1896.082697808914
 11
19.53185612153362
 21
101.5176878487183
 31
-1896.08269774463
210
0.0
220
1.0
230
0.0
  0
LINE
  5
5B5
330
53C
100
AcDbEntity
  8
0
100
AcDbLine
 10
19.53185612153362
 20
101.5176878487183
 30
-1896.08269774463
 11
19.33205527652382
 21
102.0000497585123
 31
-1896.082697690076
210
0.0
220
1.0
230
0.0
  0
LINE
  5
5B6
330
53C
100
AcDbEntity
  8
0
100
AcDbLine
 10
19.33205527652382
 20
102.0000497585123
 30
-1896.082697690076
 11
19.01421803132763
 21
102.4142633208863
 31
-1896.082697648973
210
0.0
220
1.0
230
0.0
  0
LINE
  5
5B7
330
53C
100
AcDbEntity
  8
0
100
AcDbLine
 10
19.01421803132763
 20
102.4142633208863
 30
-1896.082697648973
 11
18.60000446895452
 21
102.7321005660814
 31
-1896.08269762412
210
0.0
220
1.0
230
0.0
  0
LINE
  5
5B8
330
53C
100
AcDbEntity
  8
0
100
AcDbLine
 10
18.60000446895452
 20
102.7321005660814
 30
-1896.08269762412
 11
18.1176425591596
 21
102.9319014110914
 31
-1896.082697617211
210
0.0
220
1.0
230
0.0
  0
LINE
  5
5B9
330
53C
100
AcDbEntity
  8
0
100
AcDbLine
 10
104.6000024107327
 20
12.00001180030335
 30
-1896.082733035535
 11
105.1176405009376
 21
12.06816014772528
 31
-1896.082733006396
210
0.0
220
1.0
230
0.0
  0
LINE
  5
5BA
330
53C
100
AcDbEntity
  8
0
100
AcDbLine
 10
105.1176405009376
 20
12.06816014772528
 30
-1896.082733006396
 11
105.6000024107327
 21
12.2679609927344
 31
-1896.082732961615
210
0.0
220
1.0
230
0.0
  0
LINE
  5
5BB
330
53C
100
AcDbEntity
  8
0
100
AcDbLine
 10
105.6000024107327
 20
12.2679609927344
 30
-1896.082732961615
 11
106.0142159731056
 21
12.58579823793036
 31
-1896.082732904239
210
0.0
220
1.0
230
0.0
  0
LINE
  5
5BC
330
53C
100
AcDbEntity
  8
0
100
AcDbLine
 10
106.0142159731056
 20
12.58579823793036
 30
-1896.082732904239
 11
106.3320532183016
 21
13.00001180030335
 31
-1896.082732838179
210
0.0
220
1.0
230
0.0
  0
LINE
  5
5BD
330
53C
100
AcDbEntity
  8
0
100
AcDbLine
 10
106.3320532183016
 20
13.00001180030335
 30
-1896.082732838179
 11
106.5318540633107
 21
13.48237371009838
 31
-1896.082732767938
210
0.0
220
1.0
230
0.0
  0
LINE
  5
5BE
330
53C
100
AcDbEntity
  8
0
100
AcDbLine
 10
106.5318540633107
 20
13.48237371009838
 30
-1896.082732767938
 11
106.6000024107327
 21
14.00001180030335
 31
-1896.082732698302
210
0.0
220
1.0
230
0.0
  0
LINE
  5
5BF
330
53C
100
AcDbEntity
  8
0
100
AcDbLine
 10
106.6000024107327
 20
14.00001180030335
 30
-1896.082732698302
 11
106.5318540633107
 21
14.51764989050832
 31
-1896.082732634017
210
0.0
220
1.0
230
0.0
  0
LINE
  5
5C0
330
53C
100
AcDbEntity
  8
0
100
AcDbLine
 10
106.5318540633107
 20
14.51764989050832
 30
-1896.082732634017
 11
106.3320532183016
 21
15.00001180030335
 31
-1896.082732579465
210
0.0
220
1.0
230
0.0
  0
LINE
  5
5C1
330
53C
100
AcDbEntity
  8
0
100
AcDbLine
 10
106.3320532183016
 20
15.00001180030335
 30
-1896.082732579465
 11
106.0142159731056
 21
15.41422536267635
 31
-1896.082732538362
210
0.0
220
1.0
230
0.0
  0
LINE
  5
5C2
330
53C
100
AcDbEntity
  8
0
100
AcDbLine
 10
106.0142159731056
 20
15.41422536267635
 30
-1896.082732538362
 11
105.6000024107327
 21
15.7320626078723
 31
-1896.082732513508
210
0.0
220
1.0
230
0.0
  0
LINE
  5
5C3
330
53C
100
AcDbEntity
  8
0
100
AcDbLine
 10
105.6000024107327
 20
15.7320626078723
 30
-1896.082732513508
 11
105.1176405009376
 21
15.93186345288143
 31
-1896.082732506599
210
0.0
220
1.0
230
0.0
  0
LINE
  5
5C4
330
53C
100
AcDbEntity
  8
0
100
AcDbLine
 10
105.1176405009376
 20
15.93186345288143
 30
-1896.082732506599
 11
104.6000024107327
 21
16.00001180030335
 31
-1896.082732518106
210
0.0
220
1.0
230
0.0
  0
LINE
  5
5C5
330
53C
100
AcDbEntity
  8
0
100
AcDbLine
 10
104.6000024107327
 20
16.00001180030335
 30
-1896.082732518106
 11
104.0823643205277
 21
15.93186345288143
 31
-1896.082732547243
210
0.0
220
1.0
230
0.0
  0
LINE
  5
5C6
330
53C
100
AcDbEntity
  8
0
100
AcDbLine
 10
104.0823643205277
 20
15.93186345288143
 30
-1896.082732547243
 11
103.6000024107327
 21
15.7320626078723
 31
-1896.082732592026
210
0.0
220
1.0
230
0.0
  0
LINE
  5
5C7
330
53C
100
AcDbEntity
  8
0
100
AcDbLine
 10
103.6000024107327
 20
15.7320626078723
 30
-1896.082732592026
 11
103.1857888483596
 21
15.41422536267635
 31
-1896.082732649402
210
0.0
220
1.0
230
0.0
  0
LINE
  5
5C8
330
53C
100
AcDbEntity
  8
0
100
AcDbLine
 10
103.1857888483596
 20
15.41422536267635
 30
-1896.082732649402
 11
102.8679516031637
 21
15.00001180030335
 31
-1896.082732715461
210
0.0
220
1.0
230
0.0
  0
LINE
  5
5C9
330
53C
100
AcDbEntity
  8
0
100
AcDbLine
 10
102.8679516031637
 20
15.00001180030335
 30
-1896.082732715461
 11
102.6681507581548
 21
14.51764989050832
 31
-1896.082732785702
210
0.0
220
1.0
230
0.0
  0
LINE
  5
5CA
330
53C
100
AcDbEntity
  8
0
100
AcDbLine
 10
102.6681507581548
 20
14.51764989050832
 30
-1896.082732785702
 11
102.6000024107327
 21
14.00001180030335
 31
-1896.082732855338
210
0.0
220
1.0
230
0.0
  0
LINE
  5
5CB
330
53C
100
AcDbEntity
  8
0
100
AcDbLine
 10
102.6000024107327
 20
14.00001180030335
 30
-1896.082732855338
 11
102.6681507581548
 21
13.48237371009838
 31
-1896.082732919623
210
0.0
220
1.0
230
0.0
  0
LINE
  5
5CC
330
53C
100
AcDbEntity
  8
0
100
AcDbLine
 10
102.6681507581548
 20
13.48237371009838
 30
-1896.082732919623
 11
102.8679516031637
 21
13.00001180030335
 31
-1896.082732974176
210
0.0
220
1.0
230
0.0
  0
LINE
  5
5CD
330
53C
100
AcDbEntity
  8
0
100
AcDbLine
 10
102.8679516031637
 20
13.00001180030335
 30
-1896.082732974176
 11
103.1857888483596
 21
12.58579823793036
 31
-1896.082733015279
210
0.0
220
1.0
230
0.0
  0
LINE
  5
5CE
330
53C
100
AcDbEntity
  8
0
100
AcDbLine
 10
103.1857888483596
 20
12.58579823793036
 30
-1896.082733015279
 11
103.6000024107327
 21
12.2679609927344
 31
-1896.082733040132
210
0.0
220
1.0
230
0.0
  0
LINE
  5
5CF
330
53C
100
AcDbEntity
  8
0
100
AcDbLine
 10
103.6000024107327
 20
12.2679609927344
 30
-1896.082733040132
 11
104.0823643205277
 21
12.06816014772528
 31
-1896.082733047041
210
0.0
220
1.0
230
0.0
  0
LINE
  5
5D0
330
53C
100
AcDbEntity
  8
0
100
AcDbLine
 10
104.0823643205277
 20
12.06816014772528
 30
-1896.082733047041
 11
104.6000024107327
 21
12.00001180030335
 31
-1896.082733035535
210
0.0
220
1.0
230
0.0
  0
ENDBLK
  5
5D2
330
53C
100
AcDbEntity
  8
0
100
AcDbBlockEnd
  0
BLOCK
  5
923
330
88E
100
AcDbEntity
  8
0
100
AcDbBlockBegin
  2
A$C791D7F38
 70
     0
 10
0.0
 20
0.0
 30
0.0
  3
A$C791D7F38
  1

  0
LINE
  5
88F
330
88E
100
AcDbEntity
  8
Layer0
100
AcDbLine
 10
621.6650566670075
 20
621.016190065112
 30
591.3919367635426
 11
621.1474185768026
 21
620.9480417176901
 31
591.3919367520425
210
0.0
220
1.0
230
0.0
  0
LINE
  5
890
330
88E
100
AcDbEntity
  8
Layer0
100
AcDbLine
 10
299.1474240578585
 20
622.9480113705769
 30
591.3919736820425
 11
299.0792757104366
 21
622.4303732803719
 31
591.3919737463324
210
0.0
220
1.0
230
0.0
  0
LINE
  5
891
330
88E
100
AcDbEntity
  8
Layer0
100
AcDbLine
 10
622.5616321391755
 20
624.362255280063
 30
591.3919363659124
 11
622.8794693843715
 21
623.9480417176901
 31
591.3919364319624
210
0.0
220
1.0
230
0.0
  0
LINE
  5
892
330
88E
100
AcDbEntity
  8
Layer0
100
AcDbLine
 10
619.2155669242245
 20
622.430403627485
 30
591.3919364844425
 11
619.1474185768027
 21
622.9480417176901
 31
591.3919364148125
210
0.0
220
1.0
230
0.0
  0
LINE
  5
893
330
88E
100
AcDbEntity
  8
Layer0
100
AcDbLine
 10
623.1474185768027
 20
622.9480417176901
 30
591.3919365718425
 11
623.0792702293806
 21
622.430403627485
 31
591.3919366361324
210
0.0
220
1.0
230
0.0
  0
LINE
  5
894
330
88E
100
AcDbEntity
  8
Layer0
100
AcDbLine
 10
535.5616341973984
 20
387.362217601371
 30
591.3919712552924
 11
535.8794714425934
 21
386.948004038998
 31
591.3919713213524
210
0.0
220
1.0
230
0.0
  0
LINE
  5
895
330
88E
100
AcDbEntity
  8
Layer0
100
AcDbLine
 10
622.5616321391755
 20
621.533828155317
 30
591.3919367317824
 11
622.1474185768027
 21
621.215990910121
 31
591.3919367566427
210
0.0
220
1.0
230
0.0
  0
LINE
  5
896
330
88E
100
AcDbEntity
  8
Layer0
100
AcDbLine
 10
619.7332050144296
 20
624.362255280063
 30
591.3919362548624
 11
620.1474185768026
 21
624.680092525259
 31
591.3919362300125
210
0.0
220
1.0
230
0.0
  0
LINE
  5
897
330
88E
100
AcDbEntity
  8
Layer0
100
AcDbLine
 10
298.1474240578585
 20
624.6800621781459
 30
591.3919734187325
 11
298.5616376202316
 21
624.3622249329499
 31
591.3919734761125
210
0.0
220
1.0
230
0.0
  0
LINE
  5
898
330
88E
100
AcDbEntity
  8
Layer0
100
AcDbLine
 10
532.2155689824464
 20
386.4656421292031
 30
591.3919712399124
 11
532.4153698274556
 21
386.948004038998
 31
591.3919711853625
210
0.0
220
1.0
230
0.0
  0
LINE
  5
899
330
88E
100
AcDbEntity
  8
Layer0
100
AcDbLine
 10
295.4153732502895
 20
473.9480116500949
 30
591.3919734061725
 11
295.7332104954856
 21
474.362225212468
 31
591.3919733650625
210
0.0
220
1.0
230
0.0
  0
LINE
  5
89A
330
88E
100
AcDbEntity
  8
Layer0
100
AcDbLine
 10
297.1474240578585
 20
474.948011650095
 30
591.3919733448124
 11
297.6650621480636
 21
474.879863302673
 31
591.3919733739525
210
0.0
220
1.0
230
0.0
  0
LINE
  5
89B
330
88E
100
AcDbEntity
  8
Layer0
100
AcDbLine
 10
298.8794748654275
 20
471.948011650095
 30
591.3919738008823
 11
298.5616376202316
 21
471.533798087722
 31
591.3919738419824
210
0.0
220
1.0
230
0.0
  0
LINE
  5
89C
330
88E
100
AcDbEntity
  8
Layer0
100
AcDbLine
 10
295.4153732502895
 20
471.948011650095
 30
591.3919736648824
 11
295.2155724052805
 21
472.43037355989
 31
591.3919735946424
210
0.0
220
1.0
230
0.0
  0
LINE
  5
89D
330
88E
100
AcDbEntity
  8
Layer0
100
AcDbLine
 10
295.1474240578585
 20
472.9480116500949
 30
591.3919735250126
 11
295.2155724052805
 21
473.4656497402999
 31
591.3919734607225
210
0.0
220
1.0
230
0.0
  0
LINE
  5
89E
330
88E
100
AcDbEntity
  8
Layer0
100
AcDbLine
 10
296.6297859676535
 20
471.016159997517
 30
591.3919738331026
 11
296.1474240578585
 21
471.215960842526
 31
591.3919737883225
210
0.0
220
1.0
230
0.0
  0
LINE
  5
89F
330
88E
100
AcDbEntity
  8
Layer0
100
AcDbLine
 10
295.7332104954856
 20
621.533797808204
 30
591.3919737309424
 11
295.4153732502895
 21
621.948011370577
 31
591.3919736648824
210
0.0
220
1.0
230
0.0
  0
LINE
  5
8A0
330
88E
100
AcDbEntity
  8
Layer0
100
AcDbLine
 10
296.1474240578585
 20
474.680062457664
 30
591.3919733402123
 11
296.6297859676535
 21
474.879863302673
 31
591.3919733333025
210
0.0
220
1.0
230
0.0
  0
LINE
  5
8A1
330
88E
100
AcDbEntity
  8
Layer0
100
AcDbLine
 10
533.6297825448196
 20
384.01615238642
 30
591.3919716122925
 11
533.1474206350244
 21
384.215953231429
 31
591.3919715675124
210
0.0
220
1.0
230
0.0
  0
LINE
  5
8A2
330
88E
100
AcDbEntity
  8
Layer0
100
AcDbLine
 10
299.0792757104366
 20
623.465649460782
 30
591.3919736124123
 11
299.1474240578585
 21
622.9480113705769
 31
591.3919736820425
210
0.0
220
1.0
230
0.0
  0
LINE
  5
8A3
330
88E
100
AcDbEntity
  8
Layer0
100
AcDbLine
 10
298.5616376202316
 20
624.3622249329499
 30
591.3919734761125
 11
298.8794748654275
 21
623.9480113705769
 31
591.3919735421625
210
0.0
220
1.0
230
0.0
  0
LINE
  5
8A4
330
88E
100
AcDbEntity
  8
Layer0
100
AcDbLine
 10
298.8794748654275
 20
623.9480113705769
 30
591.3919735421625
 11
299.0792757104366
 21
623.465649460782
 31
591.3919736124123
210
0.0
220
1.0
230
0.0
  0
LINE
  5
8A5
330
88E
100
AcDbEntity
  8
Layer0
100
AcDbLine
 10
383.6297828243376
 20
384.01615238642
 30
591.3919716123025
 11
383.1474209145424
 21
384.21595323143
 31
591.3919715675224
210
0.0
220
1.0
230
0.0
  0
LINE
  5
8A6
330
88E
100
AcDbEntity
  8
Layer0
100
AcDbLine
 10
383.1474209145424
 20
384.21595323143
 30
591.3919715675224
 11
382.7332073521696
 21
384.533790476625
 31
591.3919715101426
210
0.0
220
1.0
230
0.0
  0
LINE
  5
8A7
330
88E
100
AcDbEntity
  8
Layer0
100
AcDbLine
 10
382.2155692619645
 20
386.4656421292031
 30
591.3919712399224
 11
382.4153701069735
 21
386.948004038998
 31
591.3919711853725
210
0.0
220
1.0
230
0.0
  0
LINE
  5
8A8
330
88E
100
AcDbEntity
  8
Layer0
100
AcDbLine
 10
382.7332073521696
 20
384.533790476625
 30
591.3919715101426
 11
382.4153701069735
 21
384.948004038998
 31
591.3919714440823
210
0.0
220
1.0
230
0.0
  0
LINE
  5
8A9
330
88E
100
AcDbEntity
  8
Layer0
100
AcDbLine
 10
384.1474209145425
 20
383.948004038998
 30
591.3919716414425
 11
383.6297828243376
 21
384.01615238642
 31
591.3919716123025
210
0.0
220
1.0
230
0.0
  0
LINE
  5
8AA
330
88E
100
AcDbEntity
  8
Layer0
100
AcDbLine
 10
382.4153701069735
 20
384.948004038998
 30
591.3919714440823
 11
382.2155692619645
 21
385.4303659487931
 31
591.3919713738425
210
0.0
220
1.0
230
0.0
  0
LINE
  5
8AB
330
88E
100
AcDbEntity
  8
Layer0
100
AcDbLine
 10
382.2155692619645
 20
385.4303659487931
 30
591.3919713738425
 11
382.1474209145425
 21
385.948004038998
 31
591.3919713042125
210
0.0
220
1.0
230
0.0
  0
LINE
  5
8AC
330
88E
100
AcDbEntity
  8
Layer0
100
AcDbLine
 10
382.1474209145425
 20
385.948004038998
 30
591.3919713042125
 11
382.2155692619645
 21
386.4656421292031
 31
591.3919712399224
210
0.0
220
1.0
230
0.0
  0
LINE
  5
8AD
330
88E
100
AcDbEntity
  8
Layer0
100
AcDbLine
 10
382.4153701069735
 20
386.948004038998
 30
591.3919711853725
 11
382.7332073521696
 21
387.362217601371
 31
591.3919711442725
210
0.0
220
1.0
230
0.0
  0
LINE
  5
8AE
330
88E
100
AcDbEntity
  8
Layer0
100
AcDbLine
 10
382.7332073521696
 20
387.362217601371
 30
591.3919711442725
 11
383.1474209145424
 21
387.680054846567
 31
591.3919711194125
210
0.0
220
1.0
230
0.0
  0
LINE
  5
8AF
330
88E
100
AcDbEntity
  8
Layer0
100
AcDbLine
 10
383.1474209145424
 20
387.680054846567
 30
591.3919711194125
 11
383.6297828243376
 21
387.879855691576
 31
591.3919711125024
210
0.0
220
1.0
230
0.0
  0
LINE
  5
8B0
330
88E
100
AcDbEntity
  8
Layer0
100
AcDbLine
 10
383.6297828243376
 20
387.879855691576
 30
591.3919711125024
 11
384.1474209145425
 21
387.948004038998
 31
591.3919711240125
210
0.0
220
1.0
230
0.0
  0
LINE
  5
8B1
330
88E
100
AcDbEntity
  8
Layer0
100
AcDbLine
 10
384.1474209145425
 20
387.948004038998
 30
591.3919711240125
 11
384.6650590047476
 21
387.879855691576
 31
591.3919711531526
210
0.0
220
1.0
230
0.0
  0
LINE
  5
8B2
330
88E
100
AcDbEntity
  8
Layer0
100
AcDbLine
 10
384.6650590047476
 20
387.879855691576
 30
591.3919711531526
 11
385.1474209145425
 21
387.680054846567
 31
591.3919711979324
210
0.0
220
1.0
230
0.0
  0
LINE
  5
8B3
330
88E
100
AcDbEntity
  8
Layer0
100
AcDbLine
 10
385.1474209145425
 20
387.680054846567
 30
591.3919711979324
 11
385.5616344769156
 21
387.362217601371
 31
591.3919712553124
210
0.0
220
1.0
230
0.0
  0
LINE
  5
8B4
330
88E
100
AcDbEntity
  8
Layer0
100
AcDbLine
 10
385.5616344769156
 20
387.362217601371
 30
591.3919712553124
 11
385.8794717221116
 21
386.948004038998
 31
591.3919713213724
210
0.0
220
1.0
230
0.0
  0
LINE
  5
8B5
330
88E
100
AcDbEntity
  8
Layer0
100
AcDbLine
 10
385.8794717221116
 20
386.948004038998
 30
591.3919713213724
 11
386.0792725671207
 21
386.4656421292031
 31
591.3919713916125
210
0.0
220
1.0
230
0.0
  0
LINE
  5
8B6
330
88E
100
AcDbEntity
  8
Layer0
100
AcDbLine
 10
386.0792725671207
 20
386.4656421292031
 30
591.3919713916125
 11
386.1474209145425
 21
385.948004038998
 31
591.3919714612425
210
0.0
220
1.0
230
0.0
  0
LINE
  5
8B7
330
88E
100
AcDbEntity
  8
Layer0
100
AcDbLine
 10
386.1474209145425
 20
385.948004038998
 30
591.3919714612425
 11
386.0792725671207
 21
385.4303659487931
 31
591.3919715255324
210
0.0
220
1.0
230
0.0
  0
LINE
  5
8B8
330
88E
100
AcDbEntity
  8
Layer0
100
AcDbLine
 10
386.0792725671207
 20
385.4303659487931
 30
591.3919715255324
 11
385.8794717221116
 21
384.948004038998
 31
591.3919715800822
210
0.0
220
1.0
230
0.0
  0
LINE
  5
8B9
330
88E
100
AcDbEntity
  8
Layer0
100
AcDbLine
 10
385.8794717221116
 20
384.948004038998
 30
591.3919715800822
 11
385.5616344769156
 21
384.533790476625
 31
591.3919716211823
210
0.0
220
1.0
230
0.0
  0
LINE
  5
8BA
330
88E
100
AcDbEntity
  8
Layer0
100
AcDbLine
 10
385.5616344769156
 20
384.533790476625
 30
591.3919716211823
 11
385.1474209145425
 21
384.21595323143
 31
591.3919716460425
210
0.0
220
1.0
230
0.0
  0
LINE
  5
8BB
330
88E
100
AcDbEntity
  8
Layer0
100
AcDbLine
 10
297.6650621480636
 20
471.016159997517
 30
591.3919738737424
 11
297.1474240578585
 21
470.948011650095
 31
591.3919738622426
210
0.0
220
1.0
230
0.0
  0
LINE
  5
8BC
330
88E
100
AcDbEntity
  8
Layer0
100
AcDbLine
 10
296.1474240578585
 20
471.215960842526
 30
591.3919737883225
 11
295.7332104954856
 21
471.533798087722
 31
591.3919737309424
210
0.0
220
1.0
230
0.0
  0
LINE
  5
8BD
330
88E
100
AcDbEntity
  8
Layer0
100
AcDbLine
 10
295.7332104954856
 20
471.533798087722
 30
591.3919737309424
 11
295.4153732502895
 21
471.948011650095
 31
591.3919736648824
210
0.0
220
1.0
230
0.0
  0
LINE
  5
8BE
330
88E
100
AcDbEntity
  8
Layer0
100
AcDbLine
 10
297.6650621480636
 20
474.879863302673
 30
591.3919733739525
 11
298.1474240578585
 21
474.680062457664
 31
591.3919734187325
210
0.0
220
1.0
230
0.0
  0
LINE
  5
8BF
330
88E
100
AcDbEntity
  8
Layer0
100
AcDbLine
 10
295.2155724052805
 20
623.465649460782
 30
591.3919734607225
 11
295.4153732502895
 21
623.9480113705769
 31
591.3919734061725
210
0.0
220
1.0
230
0.0
  0
LINE
  5
8C0
330
88E
100
AcDbEntity
  8
Layer0
100
AcDbLine
 10
536.1474206350244
 20
385.948004038998
 30
591.3919714612325
 11
536.0792722876023
 21
385.4303659487931
 31
591.3919715255126
210
0.0
220
1.0
230
0.0
  0
LINE
  5
8C1
330
88E
100
AcDbEntity
  8
Layer0
100
AcDbLine
 10
297.1474240578585
 20
624.948011370577
 30
591.3919733448124
 11
297.6650621480636
 21
624.8798630231549
 31
591.3919733739525
210
0.0
220
1.0
230
0.0
  0
LINE
  5
8C2
330
88E
100
AcDbEntity
  8
Layer0
100
AcDbLine
 10
532.2155689824464
 20
385.4303659487931
 30
591.3919713738323
 11
532.1474206350244
 21
385.948004038998
 31
591.3919713041925
210
0.0
220
1.0
230
0.0
  0
LINE
  5
8C3
330
88E
100
AcDbEntity
  8
Layer0
100
AcDbLine
 10
534.1474206350244
 20
383.948004038998
 30
591.3919716414323
 11
533.6297825448196
 21
384.01615238642
 31
591.3919716122925
210
0.0
220
1.0
230
0.0
  0
LINE
  5
8C4
330
88E
100
AcDbEntity
  8
Layer0
100
AcDbLine
 10
619.2155669242245
 20
472.430403907003
 30
591.3919364844425
 11
619.1474185768027
 21
472.9480419972079
 31
591.3919364148125
210
0.0
220
1.0
230
0.0
  0
LINE
  5
8C5
330
88E
100
AcDbEntity
  8
Layer0
100
AcDbLine
 10
619.1474185768027
 20
472.9480419972079
 30
591.3919364148125
 11
619.2155669242245
 21
473.465680087413
 31
591.3919363505224
210
0.0
220
1.0
230
0.0
  0
LINE
  5
8C6
330
88E
100
AcDbEntity
  8
Layer0
100
AcDbLine
 10
620.6297804865975
 20
624.879893370268
 30
591.3919362231026
 11
621.1474185768026
 21
624.9480417176901
 31
591.3919362346125
210
0.0
220
1.0
230
0.0
  0
LINE
  5
8C7
330
88E
100
AcDbEntity
  8
Layer0
100
AcDbLine
 10
619.4153677692334
 20
623.9480417176901
 30
591.3919362959725
 11
619.7332050144296
 21
624.362255280063
 31
591.3919362548624
210
0.0
220
1.0
230
0.0
  0
LINE
  5
8C8
330
88E
100
AcDbEntity
  8
Layer0
100
AcDbLine
 10
622.8794693843715
 20
623.9480417176901
 30
591.3919364319624
 11
623.0792702293806
 21
623.4656798078949
 31
591.3919365022125
210
0.0
220
1.0
230
0.0
  0
LINE
  5
8C9
330
88E
100
AcDbEntity
  8
Layer0
100
AcDbLine
 10
533.1474206350244
 20
387.680054846567
 30
591.3919711194025
 11
533.6297825448196
 21
387.879855691576
 31
591.3919711124925
210
0.0
220
1.0
230
0.0
  0
LINE
  5
8CA
330
88E
100
AcDbEntity
  8
Layer0
100
AcDbLine
 10
619.1474185768027
 20
622.9480417176901
 30
591.3919364148125
 11
619.2155669242245
 21
623.4656798078949
 31
591.3919363505224
210
0.0
220
1.0
230
0.0
  0
LINE
  5
8CB
330
88E
100
AcDbEntity
  8
Layer0
100
AcDbLine
 10
532.4153698274556
 20
386.948004038998
 30
591.3919711853625
 11
532.7332070726515
 21
387.362217601371
 31
591.3919711442524
210
0.0
220
1.0
230
0.0
  0
LINE
  5
8CC
330
88E
100
AcDbEntity
  8
Layer0
100
AcDbLine
 10
296.6297859676535
 20
624.8798630231549
 30
591.3919733333025
 11
297.1474240578585
 21
624.948011370577
 31
591.3919733448124
210
0.0
220
1.0
230
0.0
  0
LINE
  5
8CD
330
88E
100
AcDbEntity
  8
Layer0
100
AcDbLine
 10
534.6650587252295
 20
384.01615238642
 30
591.3919716529323
 11
534.1474206350244
 21
383.948004038998
 31
591.3919716414323
210
0.0
220
1.0
230
0.0
  0
LINE
  5
8CE
330
88E
100
AcDbEntity
  8
Layer0
100
AcDbLine
 10
298.5616376202316
 20
621.533797808204
 30
591.3919738419824
 11
298.1474240578585
 21
621.2159605630079
 31
591.3919738668425
210
0.0
220
1.0
230
0.0
  0
LINE
  5
8CF
330
88E
100
AcDbEntity
  8
Layer0
100
AcDbLine
 10
532.7332070726515
 20
387.362217601371
 30
591.3919711442524
 11
533.1474206350244
 21
387.680054846567
 31
591.3919711194025
210
0.0
220
1.0
230
0.0
  0
LINE
  5
8D0
330
88E
100
AcDbEntity
  8
Layer0
100
AcDbLine
 10
532.4153698274556
 20
384.948004038998
 30
591.3919714440724
 11
532.2155689824464
 21
385.4303659487931
 31
591.3919713738323
210
0.0
220
1.0
230
0.0
  0
LINE
  5
8D1
330
88E
100
AcDbEntity
  8
Layer0
100
AcDbLine
 10
533.1474206350244
 20
384.215953231429
 30
591.3919715675124
 11
532.7332070726515
 21
384.533790476625
 31
591.3919715101323
210
0.0
220
1.0
230
0.0
  0
LINE
  5
8D2
330
88E
100
AcDbEntity
  8
Layer0
100
AcDbLine
 10
296.1474240578585
 20
624.6800621781459
 30
591.3919733402123
 11
296.6297859676535
 21
624.8798630231549
 31
591.3919733333025
210
0.0
220
1.0
230
0.0
  0
LINE
  5
8D3
330
88E
100
AcDbEntity
  8
Layer0
100
AcDbLine
 10
299.0792757104366
 20
622.4303732803719
 30
591.3919737463324
 11
298.8794748654275
 21
621.948011370577
 31
591.3919738008823
210
0.0
220
1.0
230
0.0
  0
LINE
  5
8D4
330
88E
100
AcDbEntity
  8
Layer0
100
AcDbLine
 10
296.1474240578585
 20
621.2159605630079
 30
591.3919737883225
 11
295.7332104954856
 21
621.533797808204
 31
591.3919737309424
210
0.0
220
1.0
230
0.0
  0
LINE
  5
8D5
330
88E
100
AcDbEntity
  8
Layer0
100
AcDbLine
 10
295.4153732502895
 20
621.948011370577
 30
591.3919736648824
 11
295.2155724052805
 21
622.4303732803719
 31
591.3919735946424
210
0.0
220
1.0
230
0.0
  0
LINE
  5
8D6
330
88E
100
AcDbEntity
  8
Layer0
100
AcDbLine
 10
298.5616376202316
 20
474.362225212468
 30
591.3919734761025
 11
298.8794748654275
 21
473.9480116500949
 31
591.3919735421625
210
0.0
220
1.0
230
0.0
  0
LINE
  5
8D7
330
88E
100
AcDbEntity
  8
Layer0
100
AcDbLine
 10
619.7332050144296
 20
471.5338284348349
 30
591.3919366207426
 11
619.4153677692334
 21
471.948041997208
 31
591.3919365546823
210
0.0
220
1.0
230
0.0
  0
LINE
  5
8D8
330
88E
100
AcDbEntity
  8
Layer0
100
AcDbLine
 10
619.7332050144296
 20
621.533828155317
 30
591.3919366207426
 11
619.4153677692334
 21
621.94804171769
 31
591.3919365546823
210
0.0
220
1.0
230
0.0
  0
LINE
  5
8D9
330
88E
100
AcDbEntity
  8
Layer0
100
AcDbLine
 10
297.1474240578585
 20
620.948011370577
 30
591.3919738622426
 11
296.6297859676535
 21
621.016159717999
 31
591.3919738331026
210
0.0
220
1.0
230
0.0
  0
LINE
  5
8DA
330
88E
100
AcDbEntity
  8
Layer0
100
AcDbLine
 10
297.6650621480636
 20
624.8798630231549
 30
591.3919733739525
 11
298.1474240578585
 21
624.6800621781459
 31
591.3919734187325
210
0.0
220
1.0
230
0.0
  0
LINE
  5
8DB
330
88E
100
AcDbEntity
  8
Layer0
100
AcDbLine
 10
385.1474209145425
 20
384.21595323143
 30
591.3919716460425
 11
384.6650590047476
 21
384.01615238642
 31
591.3919716529526
210
0.0
220
1.0
230
0.0
  0
LINE
  5
8DC
330
88E
100
AcDbEntity
  8
Layer0
100
AcDbLine
 10
384.6650590047476
 20
384.01615238642
 30
591.3919716529526
 11
384.1474209145425
 21
383.948004038998
 31
591.3919716414425
210
0.0
220
1.0
230
0.0
  0
LINE
  5
8DD
330
88E
100
AcDbEntity
  8
Layer0
100
AcDbLine
 10
620.6297804865975
 20
474.8798936497859
 30
591.3919362231026
 11
621.1474185768026
 21
474.948041997208
 31
591.3919362346125
210
0.0
220
1.0
230
0.0
  0
LINE
  5
8DE
330
88E
100
AcDbEntity
  8
Layer0
100
AcDbLine
 10
298.8794748654275
 20
473.9480116500949
 30
591.3919735421625
 11
299.0792757104366
 21
473.4656497402999
 31
591.3919736124123
210
0.0
220
1.0
230
0.0
  0
LINE
  5
8DF
330
88E
100
AcDbEntity
  8
Layer0
100
AcDbLine
 10
621.1474185768026
 20
620.9480417176901
 30
591.3919367520425
 11
620.6297804865975
 21
621.016190065112
 31
591.3919367229025
210
0.0
220
1.0
230
0.0
  0
LINE
  5
8E0
330
88E
100
AcDbEntity
  8
Layer0
100
AcDbLine
 10
295.2155724052805
 20
472.43037355989
 30
591.3919735946424
 11
295.1474240578585
 21
472.9480116500949
 31
591.3919735250126
210
0.0
220
1.0
230
0.0
  0
LINE
  5
8E1
330
88E
100
AcDbEntity
  8
Layer0
100
AcDbLine
 10
299.0792757104366
 20
472.43037355989
 30
591.3919737463324
 11
298.8794748654275
 21
471.948011650095
 31
591.3919738008823
210
0.0
220
1.0
230
0.0
  0
LINE
  5
8E2
330
88E
100
AcDbEntity
  8
Layer0
100
AcDbLine
 10
295.7332104954856
 20
474.362225212468
 30
591.3919733650625
 11
296.1474240578585
 21
474.680062457664
 31
591.3919733402123
210
0.0
220
1.0
230
0.0
  0
LINE
  5
8E3
330
88E
100
AcDbEntity
  8
Layer0
100
AcDbLine
 10
299.1474240578585
 20
472.9480116500949
 30
591.3919736820425
 11
299.0792757104366
 21
472.43037355989
 31
591.3919737463324
210
0.0
220
1.0
230
0.0
  0
LINE
  5
8E4
330
88E
100
AcDbEntity
  8
Layer0
100
AcDbLine
 10
295.2155724052805
 20
473.4656497402999
 30
591.3919734607225
 11
295.4153732502895
 21
473.9480116500949
 31
591.3919734061725
210
0.0
220
1.0
230
0.0
  0
LINE
  5
8E5
330
88E
100
AcDbEntity
  8
Layer0
100
AcDbLine
 10
298.5616376202316
 20
471.533798087722
 30
591.3919738419824
 11
298.1474240578585
 21
471.215960842526
 31
591.3919738668425
210
0.0
220
1.0
230
0.0
  0
LINE
  5
8E6
330
88E
100
AcDbEntity
  8
Layer0
100
AcDbLine
 10
299.0792757104366
 20
473.4656497402999
 30
591.3919736124123
 11
299.1474240578585
 21
472.9480116500949
 31
591.3919736820425
210
0.0
220
1.0
230
0.0
  0
LINE
  5
8E7
330
88E
100
AcDbEntity
  8
Layer0
100
AcDbLine
 10
619.2155669242245
 20
473.465680087413
 30
591.3919363505224
 11
619.4153677692334
 21
473.948041997208
 31
591.3919362959725
210
0.0
220
1.0
230
0.0
  0
LINE
  5
8E8
330
88E
100
AcDbEntity
  8
Layer0
100
AcDbLine
 10
619.4153677692334
 20
473.948041997208
 30
591.3919362959725
 11
619.7332050144296
 21
474.362255559581
 31
591.3919362548624
210
0.0
220
1.0
230
0.0
  0
LINE
  5
8E9
330
88E
100
AcDbEntity
  8
Layer0
100
AcDbLine
 10
619.7332050144296
 20
474.362255559581
 30
591.3919362548624
 11
620.1474185768026
 21
474.680092804777
 31
591.3919362300125
210
0.0
220
1.0
230
0.0
  0
LINE
  5
8EA
330
88E
100
AcDbEntity
  8
Layer0
100
AcDbLine
 10
620.1474185768026
 20
474.680092804777
 30
591.3919362300125
 11
620.6297804865975
 21
474.8798936497859
 31
591.3919362231026
210
0.0
220
1.0
230
0.0
  0
LINE
  5
8EB
330
88E
100
AcDbEntity
  8
Layer0
100
AcDbLine
 10
620.6297804865975
 20
621.016190065112
 30
591.3919367229025
 11
620.1474185768026
 21
621.215990910121
 31
591.3919366781223
210
0.0
220
1.0
230
0.0
  0
LINE
  5
8EC
330
88E
100
AcDbEntity
  8
Layer0
100
AcDbLine
 10
621.1474185768026
 20
624.9480417176901
 30
591.3919362346125
 11
621.6650566670075
 21
624.879893370268
 31
591.3919362637525
210
0.0
220
1.0
230
0.0
  0
LINE
  5
8ED
330
88E
100
AcDbEntity
  8
Layer0
100
AcDbLine
 10
623.0792702293806
 20
623.4656798078949
 30
591.3919365022125
 11
623.1474185768027
 21
622.9480417176901
 31
591.3919365718425
210
0.0
220
1.0
230
0.0
  0
LINE
  5
8EE
330
88E
100
AcDbEntity
  8
Layer0
100
AcDbLine
 10
620.1474185768026
 20
621.215990910121
 30
591.3919366781223
 11
619.7332050144296
 21
621.533828155317
 31
591.3919366207426
210
0.0
220
1.0
230
0.0
  0
LINE
  5
8EF
330
88E
100
AcDbEntity
  8
Layer0
100
AcDbLine
 10
295.4153732502895
 20
623.9480113705769
 30
591.3919734061725
 11
295.7332104954856
 21
624.3622249329499
 31
591.3919733650625
210
0.0
220
1.0
230
0.0
  0
LINE
  5
8F0
330
88E
100
AcDbEntity
  8
Layer0
100
AcDbLine
 10
296.6297859676535
 20
474.879863302673
 30
591.3919733333025
 11
297.1474240578585
 21
474.948011650095
 31
591.3919733448124
210
0.0
220
1.0
230
0.0
  0
LINE
  5
8F1
330
88E
100
AcDbEntity
  8
Layer0
100
AcDbLine
 10
298.1474240578585
 20
471.215960842526
 30
591.3919738668425
 11
297.6650621480636
 21
471.016159997517
 31
591.3919738737424
210
0.0
220
1.0
230
0.0
  0
LINE
  5
8F2
330
88E
100
AcDbEntity
  8
Layer0
100
AcDbLine
 10
297.1474240578585
 20
470.948011650095
 30
591.3919738622426
 11
296.6297859676535
 21
471.016159997517
 31
591.3919738331026
210
0.0
220
1.0
230
0.0
  0
LINE
  5
8F3
330
88E
100
AcDbEntity
  8
Layer0
100
AcDbLine
 10
536.0792722876023
 20
386.4656421292031
 30
591.3919713915925
 11
536.1474206350244
 21
385.948004038998
 31
591.3919714612325
210
0.0
220
1.0
230
0.0
  0
LINE
  5
8F4
330
88E
100
AcDbEntity
  8
Layer0
100
AcDbLine
 10
623.0792702293806
 20
622.430403627485
 30
591.3919366361324
 11
622.8794693843715
 21
621.94804171769
 31
591.3919366906823
210
0.0
220
1.0
230
0.0
  0
LINE
  5
8F5
330
88E
100
AcDbEntity
  8
Layer0
100
AcDbLine
 10
619.4153677692334
 20
621.94804171769
 30
591.3919365546823
 11
619.2155669242245
 21
622.430403627485
 31
591.3919364844425
210
0.0
220
1.0
230
0.0
  0
LINE
  5
8F6
330
88E
100
AcDbEntity
  8
Layer0
100
AcDbLine
 10
619.2155669242245
 20
623.4656798078949
 30
591.3919363505224
 11
619.4153677692334
 21
623.9480417176901
 31
591.3919362959725
210
0.0
220
1.0
230
0.0
  0
LINE
  5
8F7
330
88E
100
AcDbEntity
  8
Layer0
100
AcDbLine
 10
620.1474185768026
 20
624.680092525259
 30
591.3919362300125
 11
620.6297804865975
 21
624.879893370268
 31
591.3919362231026
210
0.0
220
1.0
230
0.0
  0
LINE
  5
8F8
330
88E
100
AcDbEntity
  8
Layer0
100
AcDbLine
 10
533.6297825448196
 20
387.879855691576
 30
591.3919711124925
 11
534.1474206350244
 21
387.948004038998
 31
591.3919711240025
210
0.0
220
1.0
230
0.0
  0
LINE
  5
8F9
330
88E
100
AcDbEntity
  8
Layer0
100
AcDbLine
 10
621.6650566670075
 20
624.879893370268
 30
591.3919362637525
 11
622.1474185768027
 21
624.680092525259
 31
591.3919363085324
210
0.0
220
1.0
230
0.0
  0
LINE
  5
8FA
330
88E
100
AcDbEntity
  8
Layer0
100
AcDbLine
 10
536.0792722876023
 20
385.4303659487931
 30
591.3919715255126
 11
535.8794714425934
 21
384.948004038998
 31
591.3919715800725
210
0.0
220
1.0
230
0.0
  0
LINE
  5
8FB
330
88E
100
AcDbEntity
  8
Layer0
100
AcDbLine
 10
532.7332070726515
 20
384.533790476625
 30
591.3919715101323
 11
532.4153698274556
 21
384.948004038998
 31
591.3919714440724
210
0.0
220
1.0
230
0.0
  0
LINE
  5
8FC
330
88E
100
AcDbEntity
  8
Layer0
100
AcDbLine
 10
534.6650587252295
 20
387.879855691576
 30
591.3919711531323
 11
535.1474206350244
 21
387.680054846567
 31
591.3919711979224
210
0.0
220
1.0
230
0.0
  0
LINE
  5
8FD
330
88E
100
AcDbEntity
  8
Layer0
100
AcDbLine
 10
295.7332104954856
 20
624.3622249329499
 30
591.3919733650625
 11
296.1474240578585
 21
624.6800621781459
 31
591.3919733402123
210
0.0
220
1.0
230
0.0
  0
LINE
  5
8FE
330
88E
100
AcDbEntity
  8
Layer0
100
AcDbLine
 10
535.8794714425934
 20
386.948004038998
 30
591.3919713213524
 11
536.0792722876023
 21
386.4656421292031
 31
591.3919713915925
210
0.0
220
1.0
230
0.0
  0
LINE
  5
8FF
330
88E
100
AcDbEntity
  8
Layer0
100
AcDbLine
 10
622.1474185768027
 20
624.680092525259
 30
591.3919363085324
 11
622.5616321391755
 21
624.362255280063
 31
591.3919363659124
210
0.0
220
1.0
230
0.0
  0
LINE
  5
900
330
88E
100
AcDbEntity
  8
Layer0
100
AcDbLine
 10
622.1474185768027
 20
621.215990910121
 30
591.3919367566427
 11
621.6650566670075
 21
621.016190065112
 31
591.3919367635426
210
0.0
220
1.0
230
0.0
  0
LINE
  5
901
330
88E
100
AcDbEntity
  8
Layer0
100
AcDbLine
 10
535.1474206350244
 20
384.215953231429
 30
591.3919716460225
 11
534.6650587252295
 21
384.01615238642
 31
591.3919716529323
210
0.0
220
1.0
230
0.0
  0
LINE
  5
902
330
88E
100
AcDbEntity
  8
Layer0
100
AcDbLine
 10
535.5616341973984
 20
384.533790476625
 30
591.3919716211726
 11
535.1474206350244
 21
384.215953231429
 31
591.3919716460225
210
0.0
220
1.0
230
0.0
  0
LINE
  5
903
330
88E
100
AcDbEntity
  8
Layer0
100
AcDbLine
 10
297.6650621480636
 20
621.016159717999
 30
591.3919738737424
 11
297.1474240578585
 21
620.948011370577
 31
591.3919738622426
210
0.0
220
1.0
230
0.0
  0
LINE
  5
904
330
88E
100
AcDbEntity
  8
Layer0
100
AcDbLine
 10
298.8794748654275
 20
621.948011370577
 30
591.3919738008823
 11
298.5616376202316
 21
621.533797808204
 31
591.3919738419824
210
0.0
220
1.0
230
0.0
  0
LINE
  5
905
330
88E
100
AcDbEntity
  8
Layer0
100
AcDbLine
 10
532.1474206350244
 20
385.948004038998
 30
591.3919713041925
 11
532.2155689824464
 21
386.4656421292031
 31
591.3919712399124
210
0.0
220
1.0
230
0.0
  0
LINE
  5
906
330
88E
100
AcDbEntity
  8
Layer0
100
AcDbLine
 10
535.1474206350244
 20
387.680054846567
 30
591.3919711979224
 11
535.5616341973984
 21
387.362217601371
 31
591.3919712552924
210
0.0
220
1.0
230
0.0
  0
LINE
  5
907
330
88E
100
AcDbEntity
  8
Layer0
100
AcDbLine
 10
295.2155724052805
 20
622.4303732803719
 30
591.3919735946424
 11
295.1474240578585
 21
622.9480113705769
 31
591.3919735250126
210
0.0
220
1.0
230
0.0
  0
LINE
  5
908
330
88E
100
AcDbEntity
  8
Layer0
100
AcDbLine
 10
295.1474240578585
 20
622.9480113705769
 30
591.3919735250126
 11
295.2155724052805
 21
623.465649460782
 31
591.3919734607225
210
0.0
220
1.0
230
0.0
  0
LINE
  5
909
330
88E
100
AcDbEntity
  8
Layer0
100
AcDbLine
 10
296.6297859676535
 20
621.016159717999
 30
591.3919738331026
 11
296.1474240578585
 21
621.2159605630079
 31
591.3919737883225
210
0.0
220
1.0
230
0.0
  0
LINE
  5
90A
330
88E
100
AcDbEntity
  8
Layer0
100
AcDbLine
 10
622.8794693843715
 20
621.94804171769
 30
591.3919366906823
 11
622.5616321391755
 21
621.533828155317
 31
591.3919367317824
210
0.0
220
1.0
230
0.0
  0
LINE
  5
90B
330
88E
100
AcDbEntity
  8
Layer0
100
AcDbLine
 10
298.1474240578585
 20
621.2159605630079
 30
591.3919738668425
 11
297.6650621480636
 21
621.016159717999
 31
591.3919738737424
210
0.0
220
1.0
230
0.0
  0
LINE
  5
90C
330
88E
100
AcDbEntity
  8
Layer0
100
AcDbLine
 10
298.1474240578585
 20
474.680062457664
 30
591.3919734187325
 11
298.5616376202316
 21
474.362225212468
 31
591.3919734761025
210
0.0
220
1.0
230
0.0
  0
LINE
  5
90D
330
88E
100
AcDbEntity
  8
Layer0
100
AcDbLine
 10
621.6650566670075
 20
474.8798936497859
 30
591.3919362637525
 11
622.1474185768027
 21
474.680092804777
 31
591.3919363085324
210
0.0
220
1.0
230
0.0
  0
LINE
  5
90E
330
88E
100
AcDbEntity
  8
Layer0
100
AcDbLine
 10
622.1474185768027
 20
474.680092804777
 30
591.3919363085324
 11
622.5616321391755
 21
474.362255559581
 31
591.3919363659026
210
0.0
220
1.0
230
0.0
  0
LINE
  5
90F
330
88E
100
AcDbEntity
  8
Layer0
100
AcDbLine
 10
622.5616321391755
 20
474.362255559581
 30
591.3919363659026
 11
622.8794693843715
 21
473.948041997208
 31
591.3919364319624
210
0.0
220
1.0
230
0.0
  0
LINE
  5
910
330
88E
100
AcDbEntity
  8
Layer0
100
AcDbLine
 10
622.8794693843715
 20
473.948041997208
 30
591.3919364319624
 11
623.0792702293806
 21
473.465680087413
 31
591.3919365022024
210
0.0
220
1.0
230
0.0
  0
LINE
  5
911
330
88E
100
AcDbEntity
  8
Layer0
100
AcDbLine
 10
623.0792702293806
 20
473.465680087413
 30
591.3919365022024
 11
623.1474185768027
 21
472.9480419972079
 31
591.3919365718425
210
0.0
220
1.0
230
0.0
  0
LINE
  5
912
330
88E
100
AcDbEntity
  8
Layer0
100
AcDbLine
 10
623.1474185768027
 20
472.9480419972079
 30
591.3919365718425
 11
623.0792702293806
 21
472.430403907003
 31
591.3919366361324
210
0.0
220
1.0
230
0.0
  0
LINE
  5
913
330
88E
100
AcDbEntity
  8
Layer0
100
AcDbLine
 10
623.0792702293806
 20
472.430403907003
 30
591.3919366361324
 11
622.8794693843715
 21
471.948041997208
 31
591.3919366906823
210
0.0
220
1.0
230
0.0
  0
LINE
  5
914
330
88E
100
AcDbEntity
  8
Layer0
100
AcDbLine
 10
622.8794693843715
 20
471.948041997208
 30
591.3919366906823
 11
622.5616321391755
 21
471.5338284348349
 31
591.3919367317824
210
0.0
220
1.0
230
0.0
  0
LINE
  5
915
330
88E
100
AcDbEntity
  8
Layer0
100
AcDbLine
 10
622.5616321391755
 20
471.5338284348349
 30
591.3919367317824
 11
622.1474185768027
 21
471.215991189639
 31
591.3919367566427
210
0.0
220
1.0
230
0.0
  0
LINE
  5
916
330
88E
100
AcDbEntity
  8
Layer0
100
AcDbLine
 10
622.1474185768027
 20
471.215991189639
 30
591.3919367566427
 11
621.6650566670075
 21
471.01619034463
 31
591.3919367635426
210
0.0
220
1.0
230
0.0
  0
LINE
  5
917
330
88E
100
AcDbEntity
  8
Layer0
100
AcDbLine
 10
621.6650566670075
 20
471.01619034463
 30
591.3919367635426
 11
621.1474185768026
 21
470.948041997208
 31
591.3919367520425
210
0.0
220
1.0
230
0.0
  0
LINE
  5
918
330
88E
100
AcDbEntity
  8
Layer0
100
AcDbLine
 10
621.1474185768026
 20
470.948041997208
 30
591.3919367520425
 11
620.6297804865975
 21
471.01619034463
 31
591.3919367229025
210
0.0
220
1.0
230
0.0
  0
LINE
  5
919
330
88E
100
AcDbEntity
  8
Layer0
100
AcDbLine
 10
620.6297804865975
 20
471.01619034463
 30
591.3919367229025
 11
620.1474185768026
 21
471.215991189639
 31
591.3919366781223
210
0.0
220
1.0
230
0.0
  0
LINE
  5
91A
330
88E
100
AcDbEntity
  8
Layer0
100
AcDbLine
 10
620.1474185768026
 20
471.215991189639
 30
591.3919366781223
 11
619.7332050144296
 21
471.5338284348349
 31
591.3919366207426
210
0.0
220
1.0
230
0.0
  0
LINE
  5
91B
330
88E
100
AcDbEntity
  8
Layer0
100
AcDbLine
 10
619.4153677692334
 20
471.948041997208
 30
591.3919365546823
 11
619.2155669242245
 21
472.430403907003
 31
591.3919364844425
210
0.0
220
1.0
230
0.0
  0
LINE
  5
91C
330
88E
100
AcDbEntity
  8
Layer0
100
AcDbLine
 10
621.1474185768026
 20
474.948041997208
 30
591.3919362346125
 11
621.6650566670075
 21
474.8798936497859
 31
591.3919362637525
210
0.0
220
1.0
230
0.0
  0
LINE
  5
91D
330
88E
100
AcDbEntity
  8
Layer0
100
AcDbLine
 10
535.8794714425934
 20
384.948004038998
 30
591.3919715800725
 11
535.5616341973984
 21
384.533790476625
 31
591.3919716211726
210
0.0
220
1.0
230
0.0
  0
LINE
  5
91E
330
88E
100
AcDbEntity
  8
Layer0
100
AcDbLine
 10
534.1474206350244
 20
387.948004038998
 30
591.3919711240025
 11
534.6650587252295
 21
387.879855691576
 31
591.3919711531323
210
0.0
220
1.0
230
0.0
  0
LINE
  5
91F
330
88E
100
AcDbEntity
  8
Layer0
100
AcDbLine
 10
281.4474148720605
 20
371.947992193398
 30
591.3919709985825
 11
638.7474293924555
 21
371.9479931022779
 31
591.3919846539624
210
0.0
220
1.0
230
0.0
  0
LINE
  5
920
330
88E
100
AcDbEntity
  8
Layer0
100
AcDbLine
 10
638.7473843719053
 20
719.947968856391
 30
591.3919400094226
 11
638.7474293924555
 21
371.9479931022779
 31
591.3919846539624
210
0.0
220
1.0
230
0.0
  0
LINE
  5
921
330
88E
100
AcDbEntity
  8
Layer0
100
AcDbLine
 10
281.4473744291935
 20
719.9479679475099
 30
591.3919256105025
 11
638.7473843719053
 21
719.947968856391
 31
591.3919400094226
210
0.0
220
1.0
230
0.0
  0
LINE
  5
922
330
88E
100
AcDbEntity
  8
Layer0
100
AcDbLine
 10
281.4474148720605
 20
371.947992193398
 30
591.3919709985825
 11
281.4473744291935
 21
719.9479679475099
 31
591.3919256105025
210
0.0
220
1.0
230
0.0
  0
ENDBLK
  5
924
330
88E
100
AcDbEntity
  8
0
100
AcDbBlockEnd
  0
ENDSEC
  0
SECTION
  2
ENTITIES
  0
LINE
  5
9C3
330
70
100
AcDbEntity
  8
0
100
AcDbLine
 10
-39.77538856223677
 20
222.902597539342
 30
0.0
 11
860.2246114377631
 21
222.902597539342
 31
0.0
  0
LINE
  5
9C4
330
70
100
AcDbEntity
  8
0
100
AcDbLine
 10
860.2246114377631
 20
222.902597539342
 30
0.0
 11
860.2246114377631
 21
822.9025975393419
 31
0.0
  0
LINE
  5
9C5
330
70
100
AcDbEntity
  8
0
100
AcDbLine
 10
860.2246114377631
 20
822.9025975393419
 30
0.0
 11
-39.7753885622368
 21
822.9025975393421
 31
0.0
  0
LINE
  5
9C6
330
70
100
AcDbEntity
  8
0
100
AcDbLine
 10
-39.7753885622368
 20
822.9025975393421
 30
0.0
 11
-39.77538856223677
 21
222.902597539342
 31
0.0
  0
LINE
  5
15BB
330
70
100
AcDbEntity
  8
Layer0
100
AcDbLine
 10
-14.15416293662565
 20
805.6462694230601
 30
574.0471879188778
 11
301.8459353245412
 21
805.5467381626961
 31
574.0471638801579
210
0.0
220
1.0
230
0.0
  0
LINE
  5
15BC
330
70
100
AcDbEntity
  8
Layer0
100
AcDbLine
 10
-14.15416293662565
 20
805.6462694230601
 30
574.0471879188778
 11
-21.55397876021607
 21
805.6462618271712
 31
574.0471869443377
210
0.0
220
1.0
230
0.0
  0
LINE
  5
15BD
330
70
100
AcDbEntity
  8
Layer0
100
AcDbLine
 10
-21.55371548276571
 20
524.2464639658161
 30
574.0472150817177
 11
-21.55397876021607
 21
805.6462618271712
 31
574.0471869443377
210
0.0
220
1.0
230
0.0
  0
LINE
  5
15BE
330
70
100
AcDbEntity
  8
Layer0
100
AcDbLine
 10
301.8459353245412
 20
805.5467381626961
 30
574.0471638801579
 11
337.8460550673453
 21
805.5462686397103
 31
574.0472266441778
210
0.0
220
1.0
230
0.0
  0
LINE
  5
15BF
330
70
100
AcDbEntity
  8
Layer0
100
AcDbLine
 10
-21.55371548276571
 20
524.2464639658161
 30
574.0472150817177
 11
337.8465971106143
 21
524.2464662954311
 31
574.0472158779278
210
0.0
220
1.0
230
0.0
  0
LINE
  5
15C0
330
70
100
AcDbEntity
  8
Layer0
100
AcDbLine
 10
337.8460550673453
 20
805.5462686397103
 30
574.0472266441778
 11
337.8465971106143
 21
524.2464662954311
 31
574.0472158779278
210
0.0
220
1.0
230
0.0
  0
ENDSEC
  0
SECTION
  2
OBJECTS
  0
DICTIONARY
  5
C
330
0
100
AcDbDictionary
281
     1
  3
ACAD_BACKGROUND
350
9BA
  3
ACAD_CIP_PREVIOUS_PRODUCT_INFO
350
1C2
  3
ACAD_COLOR
350
62
  3
ACAD_DETAILVIEWSTYLE
350
6A
  3
ACAD_GROUP
350
D
  3
ACAD_LAYOUT
350
61
  3
ACAD_MATERIAL
350
10
  3
ACAD_MLEADERSTYLE
350
65
  3
ACAD_MLINESTYLE
350
5E
  3
ACAD_PLOTSETTINGS
350
60
  3
ACAD_PLOTSTYLENAME
350
E
  3
ACAD_SCALELIST
350
42
  3
ACAD_SECTIONVIEWSTYLE
350
67
  3
ACAD_TABLESTYLE
350
63
  3
ACAD_VISUALSTYLE
350
29
  3
ACDB_RECOMPOSE_DATA
350
1610
  3
AcDbVariableDictionary
350
1D7
  0
DICTIONARY
  5
1D1
330
2
100
AcDbDictionary
280
     1
281
     1
  3
ACAD_LAYERSTATES
360
1D2
  0
DICTIONARY
  5
1CA
330
54
100
AcDbDictionary
280
     1
281
     1
  3
ADSK_XREC_LAYER_RECONCILED
360
1CB
  0
DICTIONARY
  5
1CC
330
74
100
AcDbDictionary
280
     1
281
     1
  3
ADSK_XREC_LAYER_RECONCILED
360
1CD
  0
DICTIONARY
  5
4A4
330
4A3
100
AcDbDictionary
280
     1
281
     1
  0
DICTIONARY
  5
9BA
102
{ACAD_REACTORS
330
C
102
}
330
C
100
AcDbDictionary
281
     1
  0
XRECORD
  5
1C2
102
{ACAD_REACTORS
330
C
102
}
330
C
100
AcDbXrecord
280
     1
300
ACDMAC
300
2013
300

  0
DICTIONARY
  5
62
102
{ACAD_REACTORS
330
C
102
}
330
C
100
AcDbDictionary
281
     1
  0
DICTIONARY
  5
6A
102
{ACAD_REACTORS
330
C
102
}
330
C
100
AcDbDictionary
281
     1
  3
Imperial24
350
6B
  0
DICTIONARY
  5
D
102
{ACAD_REACTORS
330
C
102
}
330
C
100
AcDbDictionary
281
     1
  0
DICTIONARY
  5
61
102
{ACAD_REACTORS
330
C
102
}
330
C
100
AcDbDictionary
281
     1
  3
Layout1
350
6F
  3
Model
350
73
  0
DICTIONARY
  5
10
102
{ACAD_REACTORS
330
C
102
}
330
C
100
AcDbDictionary
281
     1
  3
ByBlock
350
19
  3
ByLayer
350
11
  3
Global
350
21
  0
DICTIONARY
  5
65
102
{ACAD_REACTORS
330
C
102
}
330
C
100
AcDbDictionary
281
     1
  3
Standard
350
66
  0
DICTIONARY
  5
5E
102
{ACAD_REACTORS
330
C
102
}
330
C
100
AcDbDictionary
281
     1
  3
Standard
350
5F
  0
DICTIONARY
  5
60
102
{ACAD_REACTORS
330
C
102
}
330
C
100
AcDbDictionary
281
     1
  0
ACDBDICTIONARYWDFLT
  5
E
102
{ACAD_REACTORS
330
C
102
}
330
C
100
AcDbDictionary
281
     1
  3
Normal
350
F
100
AcDbDictionaryWithDefault
340
F
  0
DICTIONARY
  5
42
102
{ACAD_REACTORS
330
C
102
}
330
C
100
AcDbDictionary
281
     1
  3
A0
350
43
  3
A1
350
44
  3
A2
350
45
  3
A3
350
46
  3
A4
350
47
  3
A5
350
48
  3
A6
350
49
  3
A7
350
4A
  3
A8
350
4B
  3
A9
350
4C
  3
B0
350
4D
  3
B1
350
4E
  3
B2
350
4F
  3
B3
350
50
  3
B4
350
51
  3
B5
350
52
  3
B6
350
53
  0
DICTIONARY
  5
67
102
{ACAD_REACTORS
330
C
102
}
330
C
100
AcDbDictionary
281
     1
  3
Imperial24
350
69
  0
DICTIONARY
  5
63
102
{ACAD_REACTORS
330
C
102
}
330
C
100
AcDbDictionary
281
     1
  3
Standard
350
64
  0
DICTIONARY
  5
29
102
{ACAD_REACTORS
330
C
102
}
330
C
100
AcDbDictionary
281
     1
  3
2dWireframe
350
2F
  3
Basic
350
2E
  3
Brighten
350
35
  3
ColorChange
350
39
  3
Conceptual
350
32
  3
Dim
350
34
  3
EdgeColorOff
350
41
  3
Facepattern
350
38
  3
Flat
350
2A
  3
FlatWithEdges
350
2B
  3
Gouraud
350
2C
  3
GouraudWithEdges
350
2D
  3
Hidden
350
31
  3
JitterOff
350
3F
  3
Linepattern
350
37
  3
OverhangOff
350
40
  3
Realistic
350
33
  3
Shaded
350
3E
  3
Shaded with edges
350
3D
  3
Shades of Gray
350
3A
  3
Sketchy
350
3B
  3
Thicken
350
36
  3
Wireframe
350
30
  3
X-Ray
350
3C
  0
XRECORD
  5
1610
102
{ACAD_REACTORS
330
C
102
}
330
C
100
AcDbXrecord
280
     1
 90
        1
330
64
  0
DICTIONARY
  5
1D7
102
{ACAD_REACTORS
330
C
102
}
330
C
100
AcDbDictionary
281
     1
  3
CANNOSCALE
350
1DD
  3
CMLEADERSTYLE
350
1D9
  3
CTABLESTYLE
350
1D8
  3
CVIEWDETAILSTYLE
350
1DA
  3
CVIEWSECTIONSTYLE
350
1DB
  3
EXPORTMODELSPACE
350
1E9
  3
EXPORTPAGESETUP
350
492
  3
LAYEREVAL
350
1DF
  3
LAYERNOTIFY
350
1E0
  3
LIGHTINGUNITS
350
1DE
  3
MSLTSCALE
350
1DC
  0
DICTIONARY
  5
1D2
102
{ACAD_REACTORS
330
1D1
102
}
330
1D1
100
AcDbDictionary
281
     1
  0
XRECORD
  5
1CB
102
{ACAD_REACTORS
330
1CA
102
}
330
1CA
100
AcDbXrecord
280
     1
290
     1
  0
XRECORD
  5
1CD
102
{ACAD_REACTORS
330
1CC
102
}
330
1CC
100
AcDbXrecord
280
     1
290
     1
  0
ACDBDETAILVIEWSTYLE
  5
6B
102
{ACAD_REACTORS
330
6A
102
}
330
6A
100
AcDbModelDocViewStyle
 70
     0
  3
Imperial24
290
     0
100
AcDbDetailViewStyle
 70
     0
 71
     0
 90
        3
 71
     1
340
55
 62
   256
 40
0.24
340
0
 62
   256
 40
0.24
300

 40
0.36
280
     3
 71
     2
340
5C
 90
       25
 62
   256
 71
     3
340
55
 62
   256
 40
0.24
 90
        1
 40
0.75
 90
        1
300
%<\AcVar ViewType \f "%tc1">% %<\AcVar ViewDetailId>%\PSCALE %<\AcVar ViewScale \f "%sn">%
 71
     4
340
5C
 90
       25
 62
   256
340
5C
 90
       25
 62
   256
280
     0
  0
LAYOUT
  5
6F
102
{ACAD_REACTORS
330
61
102
}
330
61
100
AcDbPlotSettings
  1

  2
None
  4

  6

 40
0.0
 41
0.0
 42
0.0
 43
0.0
 44
0.0
 45
0.0
 46
0.0
 47
0.0
 48
0.0
 49
0.0
140
0.0
141
0.0
142
1.0
143
1.0
 70
   688
 72
     0
 73
     0
 74
     5
  7

 75
    16
147
1.0
 76
     0
 77
     2
 78
   300
148
0.0
149
0.0
100
AcDbLayout
  1
Layout1
 70
     1
 71
     1
 10
0.0
 20
0.0
 11
12.0
 21
9.0
 12
0.0
 22
0.0
 32
0.0
 14
1.000000000000000E+20
 24
1.000000000000000E+20
 34
1.000000000000000E+20
 15
-1.000000000000000E+20
 25
-1.000000000000000E+20
 35
-1.000000000000000E+20
146
0.0
 13
0.0
 23
0.0
 33
0.0
 16
1.0
 26
0.0
 36
0.0
 17
0.0
 27
1.0
 37
0.0
 76
     0
330
6C
  0
LAYOUT
  5
73
102
{ACAD_XDICTIONARY
360
1E6
102
}
102
{ACAD_REACTORS
330
61
102
}
330
61
100
AcDbPlotSettings
  1

  2
none_device
  4
A4
  6

 40
6.349999904632568
 41
14.46388912200928
 42
6.349990844726562
 43
6.3499755859375
 44
209.9027709960938
 45
297.0388793945312
 46
0.0
 47
0.0
 48
0.0
 49
0.0
140
0.0
141
0.0
142
1.0
143
8.099537970786183
 70
 11952
 72
     0
 73
     1
 74
     0
  7

 75
     0
147
0.1234638325799385
 76
     0
 77
     2
 78
   300
148
795.0627192397948
149
405.6838719672858
100
AcDbLayout
  1
Model
 70
     1
 71
     0
 10
0.0
 20
0.0
 11
12.0
 21
9.0
 12
0.0
 22
0.0
 32
0.0
 14
0.0
 24
0.0
 34
0.0
 15
0.0
 25
0.0
 35
0.0
146
0.0
 13
0.0
 23
0.0
 33
0.0
 16
1.0
 26
0.0
 36
0.0
 17
0.0
 27
1.0
 37
0.0
 76
     0
330
70
331
1C1
1001
ACAD_PSEXT
1000
None
1000
None
1000
Not applicable
1000
The layout will not be plotted unless a new plotter configuration name is selected.
1070
     0
  0
MATERIAL
  5
19
102
{ACAD_XDICTIONARY
360
1A
102
}
102
{ACAD_REACTORS
330
10
102
}
330
10
100
AcDbMaterial
  1
ByBlock
 72
     0
 43
0.0208333333333333
 43
0.0
 43
0.0
 43
0.0
 43
0.0
 43
0.0208333333333333
 43
0.0
 43
0.0
 43
0.0
 43
0.0
 43
1.0
 43
0.0
 43
0.0
 43
0.0
 43
0.0
 43
1.0
 77
     0
 47
0.0208333333333333
 47
0.0
 47
0.0
 47
0.0
 47
0.0
 47
0.0208333333333333
 47
0.0
 47
0.0
 47
0.0
 47
0.0
 47
1.0
 47
0.0
 47
0.0
 47
0.0
 47
0.0
 47
1.0
171
     0
 49
0.0208333333333333
 49
0.0
 49
0.0
 49
0.0
 49
0.0
 49
0.0208333333333333
 49
0.0
 49
0.0
 49
0.0
 49
0.0
 49
1.0
 49
0.0
 49
0.0
 49
0.0
 49
0.0
 49
1.0
175
     0
142
0.0208333333333333
142
0.0
142
0.0
142
0.0
142
0.0
142
0.0208333333333333
142
0.0
142
0.0
142
0.0
142
0.0
142
1.0
142
0.0
142
0.0
142
0.0
142
0.0
142
1.0
179
     0
144
0.0208333333333333
144
0.0
144
0.0
144
0.0
144
0.0
144
0.0208333333333333
144
0.0
144
0.0
144
0.0
144
0.0
144
1.0
144
0.0
144
0.0
144
0.0
144
0.0
144
1.0
147
0.0208333333333333
147
0.0
147
0.0
147
0.0
147
0.0
147
0.0208333333333333
147
0.0
147
0.0
147
0.0
147
0.0
147
1.0
147
0.0
147
0.0
147
0.0
147
0.0
147
1.0
  0
MATERIAL
  5
11
102
{ACAD_XDICTIONARY
360
12
102
}
102
{ACAD_REACTORS
330
10
102
}
330
10
100
AcDbMaterial
  1
ByLayer
 72
     0
 43
0.0208333333333333
 43
0.0
 43
0.0
 43
0.0
 43
0.0
 43
0.0208333333333333
 43
0.0
 43
0.0
 43
0.0
 43
0.0
 43
1.0
 43
0.0
 43
0.0
 43
0.0
 43
0.0
 43
1.0
 77
     0
 47
0.0208333333333333
 47
0.0
 47
0.0
 47
0.0
 47
0.0
 47
0.0208333333333333
 47
0.0
 47
0.0
 47
0.0
 47
0.0
 47
1.0
 47
0.0
 47
0.0
 47
0.0
 47
0.0
 47
1.0
171
     0
 49
0.0208333333333333
 49
0.0
 49
0.0
 49
0.0
 49
0.0
 49
0.0208333333333333
 49
0.0
 49
0.0
 49
0.0
 49
0.0
 49
1.0
 49
0.0
 49
0.0
 49
0.0
 49
0.0
 49
1.0
175
     0
142
0.0208333333333333
142
0.0
142
0.0
142
0.0
142
0.0
142
0.0208333333333333
142
0.0
142
0.0
142
0.0
142
0.0
142
1.0
142
0.0
142
0.0
142
0.0
142
0.0
142
1.0
179
     0
144
0.0208333333333333
144
0.0
144
0.0
144
0.0
144
0.0
144
0.0208333333333333
144
0.0
144
0.0
144
0.0
144
0.0
144
1.0
144
0.0
144
0.0
144
0.0
144
0.0
144
1.0
147
0.0208333333333333
147
0.0
147
0.0
147
0.0
147
0.0
147
0.0208333333333333
147
0.0
147
0.0
147
0.0
147
0.0
147
1.0
147
0.0
147
0.0
147
0.0
147
0.0
147
1.0
  0
MATERIAL
  5
21
102
{ACAD_XDICTIONARY
360
22
102
}
102
{ACAD_REACTORS
330
10
102
}
330
10
100
AcDbMaterial
  1
Global
 72
     0
 43
0.0208333333333333
 43
0.0
 43
0.0
 43
0.0
 43
0.0
 43
0.0208333333333333
 43
0.0
 43
0.0
 43
0.0
 43
0.0
 43
1.0
 43
0.0
 43
0.0
 43
0.0
 43
0.0
 43
1.0
 77
     0
 47
0.0208333333333333
 47
0.0
 47
0.0
 47
0.0
 47
0.0
 47
0.0208333333333333
 47
0.0
 47
0.0
 47
0.0
 47
0.0
 47
1.0
 47
0.0
 47
0.0
 47
0.0
 47
0.0
 47
1.0
171
     0
 49
0.0208333333333333
 49
0.0
 49
0.0
 49
0.0
 49
0.0
 49
0.0208333333333333
 49
0.0
 49
0.0
 49
0.0
 49
0.0
 49
1.0
 49
0.0
 49
0.0
 49
0.0
 49
0.0
 49
1.0
175
     0
142
0.0208333333333333
142
0.0
142
0.0
142
0.0
142
0.0
142
0.0208333333333333
142
0.0
142
0.0
142
0.0
142
0.0
142
1.0
142
0.0
142
0.0
142
0.0
142
0.0
142
1.0
179
     0
144
0.0208333333333333
144
0.0
144
0.0
144
0.0
144
0.0
144
0.0208333333333333
144
0.0
144
0.0
144
0.0
144
0.0
144
1.0
144
0.0
144
0.0
144
0.0
144
0.0
144
1.0
147
0.0208333333333333
147
0.0
147
0.0
147
0.0
147
0.0
147
0.0208333333333333
147
0.0
147
0.0
147
0.0
147
0.0
147
1.0
147
0.0
147
0.0
147
0.0
147
0.0
147
1.0
  0
MLEADERSTYLE
  5
66
102
{ACAD_REACTORS
330
65
102
}
330
65
100
AcDbMLeaderStyle
179
     2
170
     2
171
     1
172
     0
 90
        2
 40
0.0
 41
0.0
173
     1
 91
-1056964608
340
5A
 92
       -2
290
     1
 42
0.09
291
     1
 43
0.36
  3
Standard
 44
0.18
300

342
55
174
     1
178
     6
175
     1
176
     0
 93
-1056964608
 45
0.18
292
     0
297
     0
 46
0.18
 94
-1056964608
 47
1.0
 49
1.0
140
1.0
293
     1
141
0.0
294
     1
177
     0
142
1.0
295
     0
296
     0
143
0.125
271
     0
272
     9
273
     9
298
     0
  0
MLINESTYLE
  5
5F
102
{ACAD_REACTORS
330
5E
102
}
330
5E
100
AcDbMlineStyle
  2
STANDARD
 70
     0
  3

 62
   256
 51
90.0
 52
90.0
 71
     2
 49
0.5
 62
   256
  6
BYLAYER
 49
-0.5
 62
   256
  6
BYLAYER
  0
ACDBPLACEHOLDER
  5
F
102
{ACAD_REACTORS
330
E
102
}
330
E
  0
SCALE
  5
43
102
{ACAD_REACTORS
330
42
102
}
330
42
100
AcDbScale
 70
     0
300
1:1
140
1.0
141
1.0
290
     1
  0
SCALE
  5
44
102
{ACAD_REACTORS
330
42
102
}
330
42
100
AcDbScale
 70
     0
300
1/128" = 1'-0"
140
0.0078125
141
12.0
290
     0
  0
SCALE
  5
45
102
{ACAD_REACTORS
330
42
102
}
330
42
100
AcDbScale
 70
     0
300
1/64" = 1'-0"
140
0.015625
141
12.0
290
     0
  0
SCALE
  5
46
102
{ACAD_REACTORS
330
42
102
}
330
42
100
AcDbScale
 70
     0
300
1/32" = 1'-0"
140
0.03125
141
12.0
290
     0
  0
SCALE
  5
47
102
{ACAD_REACTORS
330
42
102
}
330
42
100
AcDbScale
 70
     0
300
1/16" = 1'-0"
140
0.0625
141
12.0
290
     0
  0
SCALE
  5
48
102
{ACAD_REACTORS
330
42
102
}
330
42
100
AcDbScale
 70
     0
300
3/32" = 1'-0"
140
0.09375
141
12.0
290
     0
  0
SCALE
  5
49
102
{ACAD_REACTORS
330
42
102
}
330
42
100
AcDbScale
 70
     0
300
1/8" = 1'-0"
140
0.125
141
12.0
290
     0
  0
SCALE
  5
4A
102
{ACAD_REACTORS
330
42
102
}
330
42
100
AcDbScale
 70
     0
300
3/16" = 1'-0"
140
0.1875
141
12.0
290
     0
  0
SCALE
  5
4B
102
{ACAD_REACTORS
330
42
102
}
330
42
100
AcDbScale
 70
     0
300
1/4" = 1'-0"
140
0.25
141
12.0
290
     0
  0
SCALE
  5
4C
102
{ACAD_REACTORS
330
42
102
}
330
42
100
AcDbScale
 70
     0
300
3/8" = 1'-0"
140
0.375
141
12.0
290
     0
  0
SCALE
  5
4D
102
{ACAD_REACTORS
330
42
102
}
330
42
100
AcDbScale
 70
     0
300
1/2" = 1'-0"
140
0.5
141
12.0
290
     0
  0
SCALE
  5
4E
102
{ACAD_REACTORS
330
42
102
}
330
42
100
AcDbScale
 70
     0
300
3/4" = 1'-0"
140
0.75
141
12.0
290
     0
  0
SCALE
  5
4F
102
{ACAD_REACTORS
330
42
102
}
330
42
100
AcDbScale
 70
     0
300
1" = 1'-0"
140
1.0
141
12.0
290
     0
  0
SCALE
  5
50
102
{ACAD_REACTORS
330
42
102
}
330
42
100
AcDbScale
 70
     0
300
1-1/2" = 1'-0"
140
1.5
141
12.0
290
     0
  0
SCALE
  5
51
102
{ACAD_REACTORS
330
42
102
}
330
42
100
AcDbScale
 70
     0
300
3" = 1'-0"
140
3.0
141
12.0
290
     0
  0
SCALE
  5
52
102
{ACAD_REACTORS
330
42
102
}
330
42
100
AcDbScale
 70
     0
300
6" = 1'-0"
140
6.0
141
12.0
290
     0
  0
SCALE
  5
53
102
{ACAD_REACTORS
330
42
102
}
330
42
100
AcDbScale
 70
     0
300
1'-0" = 1'-0"
140
12.0
141
12.0
290
     0
  0
ACDBSECTIONVIEWSTYLE
  5
69
102
{ACAD_REACTORS
330
67
102
}
330
67
100
AcDbModelDocViewStyle
 70
     0
  3
Imperial24
290
     0
100
AcDbSectionViewStyle
 70
     0
 71
     0
 90
       78
 71
     1
340
55
 62
   256
 40
0.24
340
0
340
0
 62
   256
 40
0.24
300
I, O, Q, S, X, Z
 40
0.48
 90
        3
 40
0.18
 90
        1
 71
     2
340
68
 90
       25
 62
   256
340
5C
 90
       50
 62
   256
 40
0.24
 40
0.0
 40
0.24
 71
     3
340
55
 62
   256
 40
0.24
 90
        1
 40
0.75
 90
        1
300
%<\AcVar ViewType \f "%tc1">% %<\AcVar ViewSectionStartId>%-%<\AcVar ViewSectionEndId>%\PSCALE %<\AcVar ViewScale \f "%sn">%
 71
     4
 62
   256
 62
   257
300
ANSI31
 40
1.0
 90
        0
290
     0
290
     0
 90
        6
 40
0.0
 40
1.570796326794896
 40
0.2617993877991494
 40
1.308996938995747
 40
-0.2617993877991494
 40
1.832595714594046
  0
TABLESTYLE
  5
64
102
{ACAD_XDICTIONARY
360
160E
102
}
102
{ACAD_REACTORS
330
63
102
}
330
63
100
AcDbTableStyle
280
     0
  3
Standard
 70
     0
 71
     0
 40
0.06
 41
0.06
280
     0
281
     0
  7
Standard
140
0.18
170
     2
 62
     0
 63
     7
283
     0
 90
      512
 91
        0
  1

274
    -2
284
     1
 64
     0
275
    -2
285
     1
 65
     0
276
    -2
286
     1
 66
     0
277
    -2
287
     1
 67
     0
278
    -2
288
     1
 68
     0
279
    -2
289
     1
 69
     0
  7
Standard
140
0.25
170
     5
 62
     0
 63
     7
283
     0
 90
      512
 91
        0
  1

274
    -2
284
     1
 64
     0
275
    -2
285
     1
 65
     0
276
    -2
286
     1
 66
     0
277
    -2
287
     1
 67
     0
278
    -2
288
     1
 68
     0
279
    -2
289
     1
 69
     0
  7
Standard
140
0.18
170
     5
 62
     0
 63
     7
283
     0
 90
      512
 91
        0
  1

274
    -2
284
     1
 64
     0
275
    -2
285
     1
 65
     0
276
    -2
286
     1
 66
     0
277
    -2
287
     1
 67
     0
278
    -2
288
     1
 68
     0
279
    -2
289
     1
 69
     0
  0
VISUALSTYLE
  5
2F
102
{ACAD_REACTORS
330
29
102
}
330
29
100
AcDbVisualStyle
  2
2dWireframe
 70
     4
177
     3
291
     0
 70
    58
 90
        0
176
     1
 90
        2
176
     1
 90
        0
176
     1
 90
        0
176
     1
 40
0.6
176
     1
 40
30.0
176
     1
 62
     7
420
 16777215
176
     1
 90
        1
176
     1
 90
        4
176
     1
 62
     7
176
     1
 62
   257
176
     1
 90
        1
176
     1
 90
        1
176
     1
 40
1.0
176
     1
 90
        0
176
     1
 62
   257
176
     1
 40
1.0
176
     1
 90
        1
176
     1
 90
        6
176
     1
 90
        2
176
     1
 62
     7
176
     1
 90
        5
176
     1
 90
        0
176
     1
 90
        0
176
     1
290
     0
176
     1
 90
        1
176
     1
 40
0.0
176
     1
 90
        0
176
     1
290
     1
176
     1
290
     1
176
     1
290
     0
176
     1
290
     0
176
     1
290
     0
176
     1
290
     0
176
     1
290
     0
176
     1
290
     0
176
     1
290
     0
176
     1
 90
       50
176
     1
 40
0.0
176
     1
 40
1.0
176
     1
 90
        0
176
     1
 62
    18
420
        0
176
     1
 90
       50
176
     1
 90
        3
176
     1
 62
     5
420
      255
176
     1
290
     0
176
     1
 90
       50
176
     1
 90
       50
176
     1
 90
       50
176
     1
290
     0
176
     1
 90
       50
176
     1
 62
   256
176
     0
 40
1.0
176
     0
 90
        2
176
     1
  1
strokes_ogs.tif
176
     1
290
     0
176
     1
 40
1.0
176
     1
 40
1.0
176
     1
  0
VISUALSTYLE
  5
2E
102
{ACAD_REACTORS
330
29
102
}
330
29
100
AcDbVisualStyle
  2
Basic
 70
     7
177
     3
291
     1
 70
    58
 90
        1
176
     1
 90
        0
176
     1
 90
        1
176
     1
 90
        0
176
     1
 40
0.6
176
     1
 40
30.0
176
     1
 62
     7
420
 16777215
176
     1
 90
        0
176
     1
 90
        4
176
     1
 62
     7
176
     1
 62
   257
176
     1
 90
        1
176
     1
 90
        1
176
     1
 40
1.0
176
     1
 90
        8
176
     1
 62
     7
176
     1
 40
1.0
176
     1
 90
        1
176
     1
 90
        6
176
     1
 90
        2
176
     1
 62
     7
176
     1
 90
        5
176
     1
 90
        0
176
     1
 90
        0
176
     1
290
     0
176
     1
 90
        1
176
     1
 40
0.0
176
     1
 90
        0
176
     1
290
     0
176
     1
290
     1
176
     1
290
     1
176
     1
290
     0
176
     1
290
     0
176
     1
290
     0
176
     1
290
     0
176
     1
290
     0
176
     1
290
     0
176
     1
 90
       50
176
     1
 40
0.0
176
     1
 40
1.0
176
     1
 90
        0
176
     1
 62
    18
420
        0
176
     1
 90
       50
176
     1
 90
        3
176
     1
 62
     5
420
      255
176
     1
290
     0
176
     1
 90
       50
176
     1
 90
       50
176
     1
 90
       50
176
     1
290
     0
176
     1
 90
       50
176
     1
 62
   256
176
     0
 40
1.0
176
     0
 90
        2
176
     1
  1
strokes_ogs.tif
176
     1
290
     0
176
     1
 40
1.0
176
     1
 40
1.0
176
     1
  0
VISUALSTYLE
  5
35
102
{ACAD_REACTORS
330
29
102
}
330
29
100
AcDbVisualStyle
  2
Brighten
 70
    12
177
     3
291
     1
 70
    58
 90
        2
176
     1
 90
        2
176
     1
 90
        0
176
     1
 90
        0
176
     1
 40
0.6
176
     1
 40
30.0
176
     1
 62
     7
420
 16777215
176
     1
 90
        1
176
     1
 90
        4
176
     1
 62
     7
176
     1
 62
   257
176
     1
 90
        1
176
     1
 90
        1
176
     1
 40
1.0
176
     1
 90
        8
176
     1
 62
     7
176
     1
 40
1.0
176
     1
 90
        1
176
     1
 90
        6
176
     1
 90
        2
176
     1
 62
     7
176
     1
 90
        5
176
     1
 90
        0
176
     1
 90
        0
176
     1
290
     0
176
     1
 90
        1
176
     1
 40
50.0
176
     1
 90
        0
176
     1
290
     0
176
     1
290
     1
176
     1
290
     1
176
     1
290
     0
176
     1
290
     0
176
     1
290
     0
176
     1
290
     0
176
     1
290
     0
176
     1
290
     0
176
     1
 90
       50
176
     1
 40
0.0
176
     1
 40
1.0
176
     1
 90
        0
176
     1
 62
    18
420
        0
176
     1
 90
       50
176
     1
 90
        3
176
     1
 62
     5
420
      255
176
     1
290
     0
176
     1
 90
       50
176
     1
 90
       50
176
     1
 90
       50
176
     1
290
     0
176
     1
 90
       50
176
     1
 62
   256
176
     0
 40
1.0
176
     0
 90
        2
176
     1
  1
strokes_ogs.tif
176
     1
290
     0
176
     1
 40
1.0
176
     1
 40
1.0
176
     1
  0
VISUALSTYLE
  5
39
102
{ACAD_REACTORS
330
29
102
}
330
29
100
AcDbVisualStyle
  2
ColorChange
 70
    16
177
     3
291
     1
 70
    58
 90
        2
176
     1
 90
        2
176
     1
 90
        3
176
     1
 90
        0
176
     1
 40
0.6
176
     1
 40
30.0
176
     1
 62
     8
420
  8421504
176
     1
 90
        1
176
     1
 90
        4
176
     1
 62
     7
176
     1
 62
   257
176
     1
 90
        1
176
     1
 90
        1
176
     1
 40
1.0
176
     1
 90
        8
176
     1
 62
     8
420
  8421504
176
     1
 40
1.0
176
     1
 90
        1
176
     1
 90
        6
176
     1
 90
        2
176
     1
 62
     7
176
     1
 90
        5
176
     1
 90
        0
176
     1
 90
        0
176
     1
290
     0
176
     1
 90
        1
176
     1
 40
0.0
176
     1
 90
        0
176
     1
290
     0
176
     1
290
     1
176
     1
290
     1
176
     1
290
     0
176
     1
290
     0
176
     1
290
     0
176
     1
290
     0
176
     1
290
     0
176
     1
290
     0
176
     1
 90
       50
176
     1
 40
0.0
176
     1
 40
1.0
176
     1
 90
        0
176
     1
 62
    18
420
        0
176
     1
 90
       50
176
     1
 90
        3
176
     1
 62
     5
420
      255
176
     1
290
     0
176
     1
 90
       50
176
     1
 90
       50
176
     1
 90
       50
176
     1
290
     0
176
     1
 90
       50
176
     1
 62
   256
176
     0
 40
1.0
176
     0
 90
        2
176
     1
  1
strokes_ogs.tif
176
     1
290
     0
176
     1
 40
1.0
176
     1
 40
1.0
176
     1
  0
VISUALSTYLE
  5
32
102
{ACAD_REACTORS
330
29
102
}
330
29
100
AcDbVisualStyle
  2
Conceptual
 70
     9
177
     3
291
     0
 70
    58
 90
        3
176
     1
 90
        2
176
     1
 90
        0
176
     1
 90
        0
176
     1
 40
0.6
176
     1
 40
30.0
176
     1
 62
     7
420
 16777215
176
     1
 90
        2
176
     1
 90
        2
176
     1
 62
     7
176
     1
 62
   257
176
     1
 90
        1
176
     1
 90
        1
176
     1
 40
179.0
176
     1
 90
        8
176
     1
 62
     7
176
     1
 40
1.0
176
     1
 90
        1
176
     1
 90
        6
176
     1
 90
        2
176
     1
 62
     7
176
     1
 90
        3
176
     1
 90
        0
176
     1
 90
        0
176
     1
290
     0
176
     1
 90
        1
176
     1
 40
0.0
176
     1
 90
        0
176
     1
290
     0
176
     1
290
     1
176
     1
290
     1
176
     1
290
     0
176
     1
290
     0
176
     1
290
     0
176
     1
290
     0
176
     1
290
     0
176
     1
290
     0
176
     1
 90
       50
176
     1
 40
0.0
176
     1
 40
1.0
176
     1
 90
        0
176
     1
 62
    18
420
        0
176
     1
 90
       50
176
     1
 90
        3
176
     1
 62
     5
420
      255
176
     1
290
     0
176
     1
 90
       50
176
     1
 90
       50
176
     1
 90
       50
176
     1
290
     0
176
     1
 90
       50
176
     1
 62
   256
176
     0
 40
1.0
176
     0
 90
        2
176
     1
  1
strokes_ogs.tif
176
     1
290
     0
176
     1
 40
1.0
176
     1
 40
1.0
176
     1
  0
VISUALSTYLE
  5
34
102
{ACAD_REACTORS
330
29
102
}
330
29
100
AcDbVisualStyle
  2
Dim
 70
    11
177
     3
291
     1
 70
    58
 90
        2
176
     1
 90
        2
176
     1
 90
        0
176
     1
 90
        0
176
     1
 40
0.6
176
     1
 40
30.0
176
     1
 62
     7
420
 16777215
176
     1
 90
        1
176
     1
 90
        4
176
     1
 62
     7
176
     1
 62
   257
176
     1
 90
        1
176
     1
 90
        1
176
     1
 40
1.0
176
     1
 90
        8
176
     1
 62
     7
176
     1
 40
1.0
176
     1
 90
        1
176
     1
 90
        6
176
     1
 90
        2
176
     1
 62
     7
176
     1
 90
        5
176
     1
 90
        0
176
     1
 90
        0
176
     1
290
     0
176
     1
 90
        1
176
     1
 40
-50.0
176
     1
 90
        0
176
     1
290
     0
176
     1
290
     1
176
     1
290
     1
176
     1
290
     0
176
     1
290
     0
176
     1
290
     0
176
     1
290
     0
176
     1
290
     0
176
     1
290
     0
176
     1
 90
       50
176
     1
 40
0.0
176
     1
 40
1.0
176
     1
 90
        0
176
     1
 62
    18
420
        0
176
     1
 90
       50
176
     1
 90
        3
176
     1
 62
     5
420
      255
176
     1
290
     0
176
     1
 90
       50
176
     1
 90
       50
176
     1
 90
       50
176
     1
290
     0
176
     1
 90
       50
176
     1
 62
   256
176
     0
 40
1.0
176
     0
 90
        2
176
     1
  1
strokes_ogs.tif
176
     1
290
     0
176
     1
 40
1.0
176
     1
 40
1.0
176
     1
  0
VISUALSTYLE
  5
41
102
{ACAD_REACTORS
330
29
102
}
330
29
100
AcDbVisualStyle
  2
EdgeColorOff
 70
    22
177
     3
291
     1
 70
    58
 90
        2
176
     0
 90
        2
176
     0
 90
        0
176
     0
 90
        0
176
     0
 40
0.6
176
     0
 40
30.0
176
     0
 62
     7
420
 16777215
176
     0
 90
        1
176
     0
 90
        4
176
     0
 62
     7
176
     0
 62
   257
176
     0
 90
        1
176
     0
 90
        1
176
     0
 40
1.0
176
     0
 90
        8
176
     2
 62
     7
176
     0
 40
1.0
176
     0
 90
        1
176
     0
 90
        6
176
     0
 90
        2
176
     0
 62
     7
176
     0
 90
        5
176
     0
 90
        0
176
     0
 90
        0
176
     0
290
     0
176
     0
 90
        1
176
     0
 40
0.0
176
     0
 90
        0
176
     0
290
     0
176
     1
290
     1
176
     1
290
     1
176
     1
290
     0
176
     1
290
     0
176
     1
290
     0
176
     1
290
     0
176
     1
290
     0
176
     1
290
     0
176
     1
 90
       50
176
     0
 40
0.0
176
     0
 40
1.0
176
     0
 90
        0
176
     0
 62
    18
420
        0
176
     0
 90
       50
176
     0
 90
        3
176
     0
 62
     5
420
      255
176
     0
290
     0
176
     1
 90
       50
176
     0
 90
       50
176
     0
 90
       50
176
     0
290
     0
176
     1
 90
       50
176
     0
 62
   256
176
     0
 40
1.0
176
     0
 90
        2
176
     0
  1
strokes_ogs.tif
176
     0
290
     0
176
     1
 40
1.0
176
     0
 40
1.0
176
     0
  0
VISUALSTYLE
  5
38
102
{ACAD_REACTORS
330
29
102
}
330
29
100
AcDbVisualStyle
  2
Facepattern
 70
    15
177
     3
291
     1
 70
    58
 90
        2
176
     1
 90
        2
176
     1
 90
        0
176
     1
 90
        0
176
     1
 40
0.6
176
     1
 40
30.0
176
     1
 62
     7
420
 16777215
176
     1
 90
        1
176
     1
 90
        4
176
     1
 62
     7
176
     1
 62
   257
176
     1
 90
        1
176
     1
 90
        1
176
     1
 40
1.0
176
     1
 90
        8
176
     1
 62
     7
176
     1
 40
1.0
176
     1
 90
        1
176
     1
 90
        6
176
     1
 90
        2
176
     1
 62
     7
176
     1
 90
        5
176
     1
 90
        0
176
     1
 90
        0
176
     1
290
     0
176
     1
 90
        1
176
     1
 40
0.0
176
     1
 90
        0
176
     1
290
     0
176
     1
290
     1
176
     1
290
     1
176
     1
290
     0
176
     1
290
     0
176
     1
290
     0
176
     1
290
     0
176
     1
290
     0
176
     1
290
     0
176
     1
 90
       50
176
     1
 40
0.0
176
     1
 40
1.0
176
     1
 90
        0
176
     1
 62
    18
420
        0
176
     1
 90
       50
176
     1
 90
        3
176
     1
 62
     5
420
      255
176
     1
290
     0
176
     1
 90
       50
176
     1
 90
       50
176
     1
 90
       50
176
     1
290
     0
176
     1
 90
       50
176
     1
 62
   256
176
     0
 40
1.0
176
     0
 90
        2
176
     1
  1
strokes_ogs.tif
176
     1
290
     0
176
     1
 40
1.0
176
     1
 40
1.0
176
     1
  0
VISUALSTYLE
  5
2A
102
{ACAD_REACTORS
330
29
102
}
330
29
100
AcDbVisualStyle
  2
Flat
 70
     0
177
     3
291
     1
 70
    58
 90
        2
176
     1
 90
        1
176
     1
 90
        1
176
     1
 90
        2
176
     1
 40
0.6
176
     1
 40
30.0
176
     1
 62
     7
420
 16777215
176
     1
 90
        0
176
     1
 90
        0
176
     1
 62
     7
176
     1
 62
   257
176
     1
 90
        1
176
     1
 90
        1
176
     1
 40
1.0
176
     1
 90
        8
176
     1
 62
     7
176
     1
 40
1.0
176
     1
 90
        1
176
     1
 90
        6
176
     1
 90
        2
176
     1
 62
     7
176
     1
 90
        5
176
     1
 90
        0
176
     1
 90
        0
176
     1
290
     0
176
     1
 90
       13
176
     1
 40
0.0
176
     1
 90
        0
176
     1
290
     0
176
     1
290
     1
176
     1
290
     1
176
     1
290
     0
176
     1
290
     0
176
     1
290
     0
176
     1
290
     0
176
     1
290
     0
176
     1
290
     0
176
     1
 90
       50
176
     1
 40
0.0
176
     1
 40
1.0
176
     1
 90
        0
176
     1
 62
    18
420
        0
176
     1
 90
       50
176
     1
 90
        3
176
     1
 62
     5
420
      255
176
     1
290
     0
176
     1
 90
       50
176
     1
 90
       50
176
     1
 90
       50
176
     1
290
     0
176
     1
 90
       50
176
     1
 62
   256
176
     0
 40
1.0
176
     0
 90
        2
176
     1
  1
strokes_ogs.tif
176
     1
290
     0
176
     1
 40
1.0
176
     1
 40
1.0
176
     1
  0
VISUALSTYLE
  5
2B
102
{ACAD_REACTORS
330
29
102
}
330
29
100
AcDbVisualStyle
  2
FlatWithEdges
 70
     1
177
     3
291
     1
 70
    58
 90
        2
176
     1
 90
        1
176
     1
 90
        1
176
     1
 90
        2
176
     1
 40
0.6
176
     1
 40
30.0
176
     1
 62
     7
420
 16777215
176
     1
 90
        1
176
     1
 90
        0
176
     1
 62
     7
176
     1
 62
   257
176
     1
 90
        1
176
     1
 90
        1
176
     1
 40
1.0
176
     1
 90
        0
176
     1
 62
   257
176
     1
 40
1.0
176
     1
 90
        1
176
     1
 90
        6
176
     1
 90
        2
176
     1
 62
     7
176
     1
 90
        5
176
     1
 90
        0
176
     1
 90
        0
176
     1
290
     0
176
     1
 90
       13
176
     1
 40
0.0
176
     1
 90
        0
176
     1
290
     0
176
     1
290
     1
176
     1
290
     1
176
     1
290
     0
176
     1
290
     0
176
     1
290
     0
176
     1
290
     0
176
     1
290
     0
176
     1
290
     0
176
     1
 90
       50
176
     1
 40
0.0
176
     1
 40
1.0
176
     1
 90
        0
176
     1
 62
    18
420
        0
176
     1
 90
       50
176
     1
 90
        3
176
     1
 62
     5
420
      255
176
     1
290
     0
176
     1
 90
       50
176
     1
 90
       50
176
     1
 90
       50
176
     1
290
     0
176
     1
 90
       50
176
     1
 62
   256
176
     0
 40
1.0
176
     0
 90
        2
176
     1
  1
strokes_ogs.tif
176
     1
290
     0
176
     1
 40
1.0
176
     1
 40
1.0
176
     1
  0
VISUALSTYLE
  5
2C
102
{ACAD_REACTORS
330
29
102
}
330
29
100
AcDbVisualStyle
  2
Gouraud
 70
     2
177
     3
291
     1
 70
    58
 90
        2
176
     1
 90
        2
176
     1
 90
        1
176
     1
 90
        2
176
     1
 40
0.6
176
     1
 40
30.0
176
     1
 62
     7
420
 16777215
176
     1
 90
        0
176
     1
 90
        0
176
     1
 62
     7
176
     1
 62
   257
176
     1
 90
        1
176
     1
 90
        1
176
     1
 40
1.0
176
     1
 90
        0
176
     1
 62
     7
176
     1
 40
1.0
176
     1
 90
        1
176
     1
 90
        6
176
     1
 90
        2
176
     1
 62
     7
176
     1
 90
        5
176
     1
 90
        0
176
     1
 90
        0
176
     1
290
     0
176
     1
 90
       13
176
     1
 40
0.0
176
     1
 90
        0
176
     1
290
     0
176
     1
290
     1
176
     1
290
     1
176
     1
290
     0
176
     1
290
     0
176
     1
290
     0
176
     1
290
     0
176
     1
290
     0
176
     1
290
     0
176
     1
 90
       50
176
     1
 40
0.0
176
     1
 40
1.0
176
     1
 90
        0
176
     1
 62
    18
420
        0
176
     1
 90
       50
176
     1
 90
        3
176
     1
 62
     5
420
      255
176
     1
290
     0
176
     1
 90
       50
176
     1
 90
       50
176
     1
 90
       50
176
     1
290
     0
176
     1
 90
       50
176
     1
 62
   256
176
     0
 40
1.0
176
     0
 90
        2
176
     1
  1
strokes_ogs.tif
176
     1
290
     0
176
     1
 40
1.0
176
     1
 40
1.0
176
     1
  0
VISUALSTYLE
  5
2D
102
{ACAD_REACTORS
330
29
102
}
330
29
100
AcDbVisualStyle
  2
GouraudWithEdges
 70
     3
177
     3
291
     1
 70
    58
 90
        2
176
     1
 90
        2
176
     1
 90
        1
176
     1
 90
        2
176
     1
 40
0.6
176
     1
 40
30.0
176
     1
 62
     7
420
 16777215
176
     1
 90
        1
176
     1
 90
        0
176
     1
 62
     7
176
     1
 62
   257
176
     1
 90
        1
176
     1
 90
        1
176
     1
 40
1.0
176
     1
 90
        0
176
     1
 62
   257
176
     1
 40
1.0
176
     1
 90
        1
176
     1
 90
        6
176
     1
 90
        2
176
     1
 62
     7
176
     1
 90
        5
176
     1
 90
        0
176
     1
 90
        0
176
     1
290
     0
176
     1
 90
       13
176
     1
 40
0.0
176
     1
 90
        0
176
     1
290
     0
176
     1
290
     1
176
     1
290
     1
176
     1
290
     0
176
     1
290
     0
176
     1
290
     0
176
     1
290
     0
176
     1
290
     0
176
     1
290
     0
176
     1
 90
       50
176
     1
 40
0.0
176
     1
 40
1.0
176
     1
 90
        0
176
     1
 62
    18
420
        0
176
     1
 90
       50
176
     1
 90
        3
176
     1
 62
     5
420
      255
176
     1
290
     0
176
     1
 90
       50
176
     1
 90
       50
176
     1
 90
       50
176
     1
290
     0
176
     1
 90
       50
176
     1
 62
   256
176
     0
 40
1.0
176
     0
 90
        2
176
     1
  1
strokes_ogs.tif
176
     1
290
     0
176
     1
 40
1.0
176
     1
 40
1.0
176
     1
  0
VISUALSTYLE
  5
31
102
{ACAD_REACTORS
330
29
102
}
330
29
100
AcDbVisualStyle
  2
Hidden
 70
     6
177
     3
291
     0
 70
    58
 90
        1
176
     1
 90
        2
176
     1
 90
        2
176
     1
 90
        0
176
     1
 40
0.6
176
     1
 40
30.0
176
     1
 62
     7
420
 16777215
176
     1
 90
        2
176
     1
 90
        2
176
     1
 62
     7
176
     1
 62
   257
176
     1
 90
        2
176
     1
 90
        1
176
     1
 40
40.0
176
     1
 90
        0
176
     1
 62
   257
176
     1
 40
1.0
176
     1
 90
        1
176
     1
 90
        6
176
     1
 90
        2
176
     1
 62
     7
176
     1
 90
        3
176
     1
 90
        0
176
     1
 90
        0
176
     1
290
     0
176
     1
 90
        1
176
     1
 40
0.0
176
     1
 90
        0
176
     1
290
     0
176
     1
290
     1
176
     1
290
     1
176
     1
290
     0
176
     1
290
     0
176
     1
290
     0
176
     1
290
     0
176
     1
290
     0
176
     1
290
     0
176
     1
 90
       50
176
     1
 40
0.0
176
     1
 40
1.0
176
     1
 90
        0
176
     1
 62
    18
420
        0
176
     1
 90
       50
176
     1
 90
        3
176
     1
 62
     5
420
      255
176
     1
290
     0
176
     1
 90
       50
176
     1
 90
       50
176
     1
 90
       50
176
     1
290
     0
176
     1
 90
       50
176
     1
 62
   256
176
     0
 40
1.0
176
     0
 90
        2
176
     1
  1
strokes_ogs.tif
176
     1
290
     0
176
     1
 40
1.0
176
     1
 40
1.0
176
     1
  0
VISUALSTYLE
  5
3F
102
{ACAD_REACTORS
330
29
102
}
330
29
100
AcDbVisualStyle
  2
JitterOff
 70
    20
177
     3
291
     1
 70
    58
 90
        2
176
     0
 90
        2
176
     0
 90
        0
176
     0
 90
        0
176
     0
 40
0.6
176
     0
 40
30.0
176
     0
 62
     7
420
 16777215
176
     0
 90
        1
176
     0
 90
        4
176
     0
 62
     7
176
     0
 62
   257
176
     0
 90
        1
176
     0
 90
        1
176
     0
 40
1.0
176
     0
 90
       10
176
     2
 62
     7
176
     0
 40
1.0
176
     0
 90
        1
176
     0
 90
        6
176
     0
 90
        2
176
     0
 62
     7
176
     0
 90
        5
176
     0
 90
        0
176
     0
 90
        0
176
     0
290
     0
176
     0
 90
        1
176
     0
 40
0.0
176
     0
 90
        0
176
     0
290
     0
176
     1
290
     1
176
     1
290
     1
176
     1
290
     0
176
     1
290
     0
176
     1
290
     0
176
     1
290
     0
176
     1
290
     0
176
     1
290
     0
176
     1
 90
       50
176
     0
 40
0.0
176
     0
 40
1.0
176
     0
 90
        0
176
     0
 62
    18
420
        0
176
     0
 90
       50
176
     0
 90
        3
176
     0
 62
     5
420
      255
176
     0
290
     0
176
     1
 90
       50
176
     0
 90
       50
176
     0
 90
       50
176
     0
290
     0
176
     1
 90
       50
176
     0
 62
   256
176
     0
 40
1.0
176
     0
 90
        2
176
     0
  1
strokes_ogs.tif
176
     0
290
     0
176
     1
 40
1.0
176
     0
 40
1.0
176
     0
  0
VISUALSTYLE
  5
37
102
{ACAD_REACTORS
330
29
102
}
330
29
100
AcDbVisualStyle
  2
Linepattern
 70
    14
177
     3
291
     1
 70
    58
 90
        2
176
     1
 90
        2
176
     1
 90
        0
176
     1
 90
        0
176
     1
 40
0.6
176
     1
 40
30.0
176
     1
 62
     7
420
 16777215
176
     1
 90
        1
176
     1
 90
        4
176
     1
 62
     7
176
     1
 62
   257
176
     1
 90
        7
176
     1
 90
        7
176
     1
 40
1.0
176
     1
 90
        8
176
     1
 62
     7
176
     1
 40
1.0
176
     1
 90
        1
176
     1
 90
        6
176
     1
 90
        2
176
     1
 62
     7
176
     1
 90
        5
176
     1
 90
        0
176
     1
 90
        0
176
     1
290
     0
176
     1
 90
        1
176
     1
 40
0.0
176
     1
 90
        0
176
     1
290
     0
176
     1
290
     1
176
     1
290
     1
176
     1
290
     0
176
     1
290
     0
176
     1
290
     0
176
     1
290
     0
176
     1
290
     0
176
     1
290
     0
176
     1
 90
       50
176
     1
 40
0.0
176
     1
 40
1.0
176
     1
 90
        0
176
     1
 62
    18
420
        0
176
     1
 90
       50
176
     1
 90
        3
176
     1
 62
     5
420
      255
176
     1
290
     0
176
     1
 90
       50
176
     1
 90
       50
176
     1
 90
       50
176
     1
290
     0
176
     1
 90
       50
176
     1
 62
   256
176
     0
 40
1.0
176
     0
 90
        2
176
     1
  1
strokes_ogs.tif
176
     1
290
     0
176
     1
 40
1.0
176
     1
 40
1.0
176
     1
  0
VISUALSTYLE
  5
40
102
{ACAD_REACTORS
330
29
102
}
330
29
100
AcDbVisualStyle
  2
OverhangOff
 70
    21
177
     3
291
     1
 70
    58
 90
        2
176
     0
 90
        2
176
     0
 90
        0
176
     0
 90
        0
176
     0
 40
0.6
176
     0
 40
30.0
176
     0
 62
     7
420
 16777215
176
     0
 90
        1
176
     0
 90
        4
176
     0
 62
     7
176
     0
 62
   257
176
     0
 90
        1
176
     0
 90
        1
176
     0
 40
1.0
176
     0
 90
        9
176
     2
 62
     7
176
     0
 40
1.0
176
     0
 90
        1
176
     0
 90
        6
176
     0
 90
        2
176
     0
 62
     7
176
     0
 90
        5
176
     0
 90
        0
176
     0
 90
        0
176
     0
290
     0
176
     0
 90
        1
176
     0
 40
0.0
176
     0
 90
        0
176
     0
290
     0
176
     1
290
     1
176
     1
290
     1
176
     1
290
     0
176
     1
290
     0
176
     1
290
     0
176
     1
290
     0
176
     1
290
     0
176
     1
290
     0
176
     1
 90
       50
176
     0
 40
0.0
176
     0
 40
1.0
176
     0
 90
        0
176
     0
 62
    18
420
        0
176
     0
 90
       50
176
     0
 90
        3
176
     0
 62
     5
420
      255
176
     0
290
     0
176
     1
 90
       50
176
     0
 90
       50
176
     0
 90
       50
176
     0
290
     0
176
     1
 90
       50
176
     0
 62
   256
176
     0
 40
1.0
176
     0
 90
        2
176
     0
  1
strokes_ogs.tif
176
     0
290
     0
176
     1
 40
1.0
176
     0
 40
1.0
176
     0
  0
VISUALSTYLE
  5
33
102
{ACAD_REACTORS
330
29
102
}
330
29
100
AcDbVisualStyle
  2
Realistic
 70
     8
177
     3
291
     0
 70
    58
 90
        2
176
     1
 90
        3
176
     1
 90
        0
176
     1
 90
        2
176
     1
 40
0.6
176
     1
 40
30.0
176
     1
 62
     7
420
 16777215
176
     1
 90
        0
176
     1
 90
        0
176
     1
 62
     7
176
     1
 62
   257
176
     1
 90
        1
176
     1
 90
        1
176
     1
 40
1.0
176
     1
 90
        8
176
     1
 62
   257
176
     1
 40
1.0
176
     1
 90
        1
176
     1
 90
        6
176
     1
 90
        2
176
     1
 62
     7
176
     1
 90
        3
176
     1
 90
        0
176
     1
 90
        0
176
     1
290
     0
176
     1
 90
       13
176
     1
 40
0.0
176
     1
 90
        0
176
     1
290
     0
176
     1
290
     1
176
     1
290
     1
176
     1
290
     0
176
     1
290
     0
176
     1
290
     0
176
     1
290
     0
176
     1
290
     0
176
     1
290
     0
176
     1
 90
       50
176
     1
 40
0.0
176
     1
 40
1.0
176
     1
 90
        0
176
     1
 62
    18
420
        0
176
     1
 90
       50
176
     1
 90
        3
176
     1
 62
     5
420
      255
176
     1
290
     0
176
     1
 90
       50
176
     1
 90
       50
176
     1
 90
       50
176
     1
290
     0
176
     1
 90
       50
176
     1
 62
   256
176
     0
 40
1.0
176
     0
 90
        2
176
     1
  1
strokes_ogs.tif
176
     1
290
     0
176
     1
 40
1.0
176
     1
 40
1.0
176
     1
  0
VISUALSTYLE
  5
3E
102
{ACAD_REACTORS
330
29
102
}
330
29
100
AcDbVisualStyle
  2
Shaded
 70
    27
177
     3
291
     0
 70
    58
 90
        2
176
     1
 90
        2
176
     1
 90
        1
176
     1
 90
        2
176
     1
 40
0.6
176
     1
 40
30.0
176
     1
 62
     7
420
 16777215
176
     1
 90
        0
176
     1
 90
        4
176
     1
 62
     7
176
     1
 62
   257
176
     1
 90
        1
176
     1
 90
        1
176
     1
 40
1.0
176
     1
 90
        8
176
     1
 62
   257
176
     1
 40
1.0
176
     1
 90
        1
176
     1
 90
        6
176
     1
 90
        2
176
     1
 62
     8
420
  7895160
176
     1
 90
        3
176
     1
 90
        0
176
     1
 90
        0
176
     1
290
     0
176
     1
 90
        5
176
     1
 40
0.0
176
     1
 90
        0
176
     1
290
     0
176
     1
290
     1
176
     1
290
     1
176
     1
290
     0
176
     1
290
     0
176
     1
290
     0
176
     1
290
     0
176
     1
290
     0
176
     1
290
     0
176
     1
 90
       50
176
     1
 40
0.0
176
     1
 40
1.0
176
     1
 90
        0
176
     1
 62
    18
420
        0
176
     1
 90
       50
176
     1
 90
        3
176
     1
 62
     5
420
      255
176
     1
290
     0
176
     1
 90
       50
176
     1
 90
       50
176
     1
 90
       50
176
     1
290
     0
176
     1
 90
       50
176
     1
 62
   256
176
     0
 40
1.0
176
     0
 90
        2
176
     1
  1
strokes_ogs.tif
176
     1
290
     0
176
     1
 40
1.0
176
     1
 40
1.0
176
     1
  0
VISUALSTYLE
  5
3D
102
{ACAD_REACTORS
330
29
102
}
330
29
100
AcDbVisualStyle
  2
Shaded with edges
 70
    26
177
     3
291
     0
 70
    58
 90
        2
176
     1
 90
        2
176
     1
 90
        1
176
     1
 90
        2
176
     1
 40
0.6
176
     1
 40
30.0
176
     1
 62
     7
420
 16777215
176
     1
 90
        1
176
     1
 90
       10
176
     1
 62
     7
176
     1
 62
   257
176
     1
 90
        2
176
     1
 90
        1
176
     1
 40
1.0
176
     1
 90
        8
176
     1
 62
   257
176
     1
 40
1.0
176
     1
 90
        1
176
     1
 90
        6
176
     1
 90
        2
176
     1
 62
     7
176
     1
 90
        3
176
     1
 90
        0
176
     1
 90
        0
176
     1
290
     0
176
     1
 90
        5
176
     1
 40
0.0
176
     1
 90
        0
176
     1
290
     0
176
     1
290
     1
176
     1
290
     1
176
     1
290
     0
176
     1
290
     0
176
     1
290
     0
176
     1
290
     0
176
     1
290
     0
176
     1
290
     0
176
     1
 90
       50
176
     1
 40
0.0
176
     1
 40
1.0
176
     1
 90
        0
176
     1
 62
    18
420
        0
176
     1
 90
       50
176
     1
 90
        3
176
     1
 62
     5
420
      255
176
     1
290
     0
176
     1
 90
       50
176
     1
 90
       50
176
     1
 90
       50
176
     1
290
     0
176
     1
 90
       50
176
     1
 62
   256
176
     0
 40
1.0
176
     0
 90
        2
176
     1
  1
strokes_ogs.tif
176
     1
290
     0
176
     1
 40
1.0
176
     1
 40
1.0
176
     1
  0
VISUALSTYLE
  5
3A
102
{ACAD_REACTORS
330
29
102
}
330
29
100
AcDbVisualStyle
  2
Shades of Gray
 70
    23
177
     3
291
     0
 70
    58
 90
        2
176
     1
 90
        2
176
     1
 90
        3
176
     1
 90
        0
176
     1
 40
0.6
176
     1
 40
30.0
176
     1
 62
     7
420
 16777215
176
     1
 90
        2
176
     1
 90
        2
176
     1
 62
     7
176
     1
 62
     7
176
     1
 90
        1
176
     1
 90
        1
176
     1
 40
40.0
176
     1
 90
        8
176
     1
 62
     7
176
     1
 40
1.0
176
     1
 90
        1
176
     1
 90
        6
176
     1
 90
        2
176
     1
 62
     7
176
     1
 90
        3
176
     1
 90
        0
176
     1
 90
        0
176
     1
290
     0
176
     1
 90
        1
176
     1
 40
0.0
176
     1
 90
        0
176
     1
290
     0
176
     1
290
     1
176
     1
290
     1
176
     1
290
     0
176
     1
290
     0
176
     1
290
     0
176
     1
290
     0
176
     1
290
     0
176
     1
290
     0
176
     1
 90
       50
176
     1
 40
0.0
176
     1
 40
1.0
176
     1
 90
        0
176
     1
 62
    18
420
        0
176
     1
 90
       50
176
     1
 90
        3
176
     1
 62
     5
420
      255
176
     1
290
     0
176
     1
 90
       50
176
     1
 90
       50
176
     1
 90
       50
176
     1
290
     0
176
     1
 90
       50
176
     1
 62
   256
176
     0
 40
1.0
176
     0
 90
        2
176
     1
  1
strokes_ogs.tif
176
     1
290
     0
176
     1
 40
1.0
176
     1
 40
1.0
176
     1
  0
VISUALSTYLE
  5
3B
102
{ACAD_REACTORS
330
29
102
}
330
29
100
AcDbVisualStyle
  2
Sketchy
 70
    24
177
     3
291
     0
 70
    58
 90
        1
176
     1
 90
        2
176
     1
 90
        2
176
     1
 90
        0
176
     1
 40
0.6
176
     1
 40
30.0
176
     1
 62
     7
420
 16777215
176
     1
 90
        2
176
     1
 90
        2
176
     1
 62
     7
176
     1
 62
     7
176
     1
 90
        1
176
     1
 90
        1
176
     1
 40
40.0
176
     1
 90
       11
176
     1
 62
     7
176
     1
 40
1.0
176
     1
 90
        1
176
     1
 90
        6
176
     1
 90
        2
176
     1
 62
     7
176
     1
 90
        6
176
     1
 90
        0
176
     1
 90
        0
176
     1
290
     0
176
     1
 90
        1
176
     1
 40
0.0
176
     1
 90
        0
176
     1
290
     0
176
     1
290
     1
176
     1
290
     1
176
     1
290
     0
176
     1
290
     0
176
     1
290
     0
176
     1
290
     0
176
     1
290
     0
176
     1
290
     0
176
     1
 90
       50
176
     1
 40
0.0
176
     1
 40
1.0
176
     1
 90
        0
176
     1
 62
    18
420
        0
176
     1
 90
       50
176
     1
 90
        3
176
     1
 62
     5
420
      255
176
     1
290
     0
176
     1
 90
       50
176
     1
 90
       50
176
     1
 90
       50
176
     1
290
     0
176
     1
 90
       50
176
     1
 62
   256
176
     0
 40
1.0
176
     0
 90
        2
176
     1
  1
strokes_ogs.tif
176
     1
290
     0
176
     1
 40
1.0
176
     1
 40
1.0
176
     1
  0
VISUALSTYLE
  5
36
102
{ACAD_REACTORS
330
29
102
}
330
29
100
AcDbVisualStyle
  2
Thicken
 70
    13
177
     3
291
     1
 70
    58
 90
        2
176
     1
 90
        2
176
     1
 90
        0
176
     1
 90
        0
176
     1
 40
0.6
176
     1
 40
30.0
176
     1
 62
     7
420
 16777215
176
     1
 90
        1
176
     1
 90
        4
176
     1
 62
     7
176
     1
 62
   257
176
     1
 90
        1
176
     1
 90
        1
176
     1
 40
1.0
176
     1
 90
       12
176
     1
 62
     7
176
     1
 40
1.0
176
     1
 90
        1
176
     1
 90
        6
176
     1
 90
        2
176
     1
 62
     7
176
     1
 90
        5
176
     1
 90
        0
176
     1
 90
        0
176
     1
290
     0
176
     1
 90
        1
176
     1
 40
0.0
176
     1
 90
        0
176
     1
290
     0
176
     1
290
     1
176
     1
290
     1
176
     1
290
     0
176
     1
290
     0
176
     1
290
     0
176
     1
290
     0
176
     1
290
     0
176
     1
290
     0
176
     1
 90
       50
176
     1
 40
0.0
176
     1
 40
1.0
176
     1
 90
        0
176
     1
 62
    18
420
        0
176
     1
 90
       50
176
     1
 90
        3
176
     1
 62
     5
420
      255
176
     1
290
     0
176
     1
 90
       50
176
     1
 90
       50
176
     1
 90
       50
176
     1
290
     0
176
     1
 90
       50
176
     1
 62
   256
176
     0
 40
1.0
176
     0
 90
        2
176
     1
  1
strokes_ogs.tif
176
     1
290
     0
176
     1
 40
1.0
176
     1
 40
1.0
176
     1
  0
VISUALSTYLE
  5
30
102
{ACAD_REACTORS
330
29
102
}
330
29
100
AcDbVisualStyle
  2
Wireframe
 70
     5
177
     3
291
     0
 70
    58
 90
        0
176
     1
 90
        2
176
     1
 90
        0
176
     1
 90
        0
176
     1
 40
0.6
176
     1
 40
30.0
176
     1
 62
     7
420
 16777215
176
     1
 90
        1
176
     1
 90
        4
176
     1
 62
     7
176
     1
 62
   257
176
     1
 90
        1
176
     1
 90
        1
176
     1
 40
1.0
176
     1
 90
        0
176
     1
 62
   257
176
     1
 40
1.0
176
     1
 90
        1
176
     1
 90
        6
176
     1
 90
        2
176
     1
 62
     7
176
     1
 90
        3
176
     1
 90
        0
176
     1
 90
        0
176
     1
290
     0
176
     1
 90
        1
176
     1
 40
0.0
176
     1
 90
        0
176
     1
290
     0
176
     1
290
     1
176
     1
290
     1
176
     1
290
     0
176
     1
290
     0
176
     1
290
     0
176
     1
290
     0
176
     1
290
     0
176
     1
290
     0
176
     1
 90
       50
176
     1
 40
0.0
176
     1
 40
1.0
176
     1
 90
        0
176
     1
 62
    18
420
        0
176
     1
 90
       50
176
     1
 90
        3
176
     1
 62
     5
420
      255
176
     1
290
     0
176
     1
 90
       50
176
     1
 90
       50
176
     1
 90
       50
176
     1
290
     0
176
     1
 90
       50
176
     1
 62
   256
176
     0
 40
1.0
176
     0
 90
        2
176
     1
  1
strokes_ogs.tif
176
     1
290
     0
176
     1
 40
1.0
176
     1
 40
1.0
176
     1
  0
VISUALSTYLE
  5
3C
102
{ACAD_REACTORS
330
29
102
}
330
29
100
AcDbVisualStyle
  2
X-Ray
 70
    25
177
     3
291
     0
 70
    58
 90
        2
176
     1
 90
        2
176
     1
 90
        1
176
     1
 90
        1
176
     1
 40
0.5
176
     1
 40
30.0
176
     1
 62
     7
420
 16777215
176
     1
 90
        1
176
     1
 90
        0
176
     1
 62
     7
176
     1
 62
   257
176
     1
 90
        1
176
     1
 90
        1
176
     1
 40
1.0
176
     1
 90
        8
176
     1
 62
     7
176
     1
 40
1.0
176
     1
 90
        1
176
     1
 90
        6
176
     1
 90
        2
176
     1
 62
     7
176
     1
 90
        3
176
     1
 90
        0
176
     1
 90
        0
176
     1
290
     0
176
     1
 90
       13
176
     1
 40
0.0
176
     1
 90
        0
176
     1
290
     0
176
     1
290
     1
176
     1
290
     1
176
     1
290
     0
176
     1
290
     0
176
     1
290
     0
176
     1
290
     0
176
     1
290
     0
176
     1
290
     0
176
     1
 90
       50
176
     1
 40
0.0
176
     1
 40
1.0
176
     1
 90
        0
176
     1
 62
    18
420
        0
176
     1
 90
       50
176
     1
 90
        3
176
     1
 62
     5
420
      255
176
     1
290
     0
176
     1
 90
       50
176
     1
 90
       50
176
     1
 90
       50
176
     1
290
     0
176
     1
 90
       50
176
     1
 62
   256
176
     0
 40
1.0
176
     0
 90
        2
176
     1
  1
strokes_ogs.tif
176
     1
290
     0
176
     1
 40
1.0
176
     1
 40
1.0
176
     1
  0
DICTIONARYVAR
  5
1DD
102
{ACAD_REACTORS
330
1D7
102
}
330
1D7
100
DictionaryVariables
280
     0
  1
1:1
  0
DICTIONARYVAR
  5
1D9
102
{ACAD_REACTORS
330
1D7
102
}
330
1D7
100
DictionaryVariables
280
     0
  1
STANDARD
  0
DICTIONARYVAR
  5
1D8
102
{ACAD_REACTORS
330
1D7
102
}
330
1D7
100
DictionaryVariables
280
     0
  1
STANDARD
  0
DICTIONARYVAR
  5
1DA
102
{ACAD_REACTORS
330
1D7
102
}
330
1D7
100
DictionaryVariables
280
     0
  1
Imperial24
  0
DICTIONARYVAR
  5
1DB
102
{ACAD_REACTORS
330
1D7
102
}
330
1D7
100
DictionaryVariables
280
     0
  1
Imperial24
  0
DICTIONARYVAR
  5
1E9
102
{ACAD_REACTORS
330
1D7
102
}
330
1D7
100
DictionaryVariables
280
     0
  1
1
  0
DICTIONARYVAR
  5
492
102
{ACAD_REACTORS
330
1D7
102
}
330
1D7
100
DictionaryVariables
280
     0
  1
1
  0
DICTIONARYVAR
  5
1DF
102
{ACAD_REACTORS
330
1D7
102
}
330
1D7
100
DictionaryVariables
280
     0
  1
1
  0
DICTIONARYVAR
  5
1E0
102
{ACAD_REACTORS
330
1D7
102
}
330
1D7
100
DictionaryVariables
280
     0
  1
15
  0
DICTIONARYVAR
  5
1DE
102
{ACAD_REACTORS
330
1D7
102
}
330
1D7
100
DictionaryVariables
280
     0
  1
0
  0
DICTIONARYVAR
  5
1DC
102
{ACAD_REACTORS
330
1D7
102
}
330
1D7
100
DictionaryVariables
280
     0
  1
0
  0
DICTIONARY
  5
1E6
330
73
100
AcDbDictionary
280
     1
281
     1
  3
AcPublish_PlotSettingsOverride
360
1E7
  0
DICTIONARY
  5
1A
330
19
100
AcDbDictionary
280
     1
281
     1
  3
BUMPTILE
360
1C
  3
DIFFUSETILE
360
1B
  3
OPACITYTILE
360
1F
  3
REFLECTIONTILE
360
1E
  3
REFRACTIONTILE
360
20
  3
SPECULARTILE
360
1D
  0
DICTIONARY
  5
12
330
11
100
AcDbDictionary
280
     1
281
     1
  3
BUMPTILE
360
14
  3
DIFFUSETILE
360
13
  3
OPACITYTILE
360
17
  3
REFLECTIONTILE
360
16
  3
REFRACTIONTILE
360
18
  3
SPECULARTILE
360
15
  0
DICTIONARY
  5
22
330
21
100
AcDbDictionary
280
     1
281
     1
  3
BUMPTILE
360
24
  3
DIFFUSETILE
360
23
  3
OPACITYTILE
360
27
  3
REFLECTIONTILE
360
26
  3
REFRACTIONTILE
360
28
  3
SPECULARTILE
360
25
  0
DICTIONARY
  5
160E
330
64
100
AcDbDictionary
280
     1
281
     1
  3
ACAD_ROUNDTRIP_2008_TABLESTYLE_CELLSTYLEMAP
360
160F
  0
PLOTSETTINGS
  5
1E7
102
{ACAD_REACTORS
330
1E6
102
}
330
1E6
100
AcDbPlotSettings
  1

  2
none_device
  4
Untitled
  6

 40
0.0
 41
0.0
 42
0.0
 43
0.0
 44
900.0
 45
600.0
 46
0.0
 47
0.0
 48
0.0
 49
0.0
140
0.0
141
0.0
142
10.0
143
1.0
 70
 11904
 72
     1
 73
     0
 74
     1
  7

 75
     0
147
0.1
 76
     0
 77
     2
 78
   300
148
168.9046975537449
149
187.564409925296
1001
ACAD_PSEXT
1000
None
1000
None
1000
Not applicable
1000
The layout will not be plotted unless a new plotter configuration name is selected.
1070
     0
  0
XRECORD
  5
1C
102
{ACAD_REACTORS
330
1A
102
}
330
1A
100
AcDbXrecord
280
     1
270
     1
271
     1
  0
XRECORD
  5
1B
102
{ACAD_REACTORS
330
1A
102
}
330
1A
100
AcDbXrecord
280
     1
270
     1
271
     1
  0
XRECORD
  5
1F
102
{ACAD_REACTORS
330
1A
102
}
330
1A
100
AcDbXrecord
280
     1
270
     1
271
     1
  0
XRECORD
  5
1E
102
{ACAD_REACTORS
330
1A
102
}
330
1A
100
AcDbXrecord
280
     1
270
     1
271
     1
  0
XRECORD
  5
20
102
{ACAD_REACTORS
330
1A
102
}
330
1A
100
AcDbXrecord
280
     1
270
     1
271
     1
  0
XRECORD
  5
1D
102
{ACAD_REACTORS
330
1A
102
}
330
1A
100
AcDbXrecord
280
     1
270
     1
271
     1
  0
XRECORD
  5
14
102
{ACAD_REACTORS
330
12
102
}
330
12
100
AcDbXrecord
280
     1
270
     1
271
     1
  0
XRECORD
  5
13
102
{ACAD_REACTORS
330
12
102
}
330
12
100
AcDbXrecord
280
     1
270
     1
271
     1
  0
XRECORD
  5
17
102
{ACAD_REACTORS
330
12
102
}
330
12
100
AcDbXrecord
280
     1
270
     1
271
     1
  0
XRECORD
  5
16
102
{ACAD_REACTORS
330
12
102
}
330
12
100
AcDbXrecord
280
     1
270
     1
271
     1
  0
XRECORD
  5
18
102
{ACAD_REACTORS
330
12
102
}
330
12
100
AcDbXrecord
280
     1
270
     1
271
     1
  0
XRECORD
  5
15
102
{ACAD_REACTORS
330
12
102
}
330
12
100
AcDbXrecord
280
     1
270
     1
271
     1
  0
XRECORD
  5
24
102
{ACAD_REACTORS
330
22
102
}
330
22
100
AcDbXrecord
280
     1
270
     1
271
     1
  0
XRECORD
  5
23
102
{ACAD_REACTORS
330
22
102
}
330
22
100
AcDbXrecord
280
     1
270
     1
271
     1
  0
XRECORD
  5
27
102
{ACAD_REACTORS
330
22
102
}
330
22
100
AcDbXrecord
280
     1
270
     1
271
     1
  0
XRECORD
  5
26
102
{ACAD_REACTORS
330
22
102
}
330
22
100
AcDbXrecord
280
     1
270
     1
271
     1
  0
XRECORD
  5
28
102
{ACAD_REACTORS
330
22
102
}
330
22
100
AcDbXrecord
280
     1
270
     1
271
     1
  0
XRECORD
  5
25
102
{ACAD_REACTORS
330
22
102
}
330
22
100
AcDbXrecord
280
     1
270
     1
271
     1
  0
CELLSTYLEMAP
  5
160F
102
{ACAD_REACTORS
330
160E
102
}
330
160E
100
AcDbCellStyleMap
 90
        3
300
CELLSTYLE
  1
TABLEFORMAT_BEGIN
 90
        5
170
     1
 91
        0
 92
    32768
 62
   257
 93
        1
300
CONTENTFORMAT
  1
CONTENTFORMAT_BEGIN
 90
        0
 91
        0
 92
      512
 93
        0
300

 40
0.0
140
1.0
 94
        5
 62
     0
340
55
144
0.25
309
CONTENTFORMAT_END
171
     0
 94
        0
309
TABLEFORMAT_END
  1
CELLSTYLE_BEGIN
 90
        1
 91
        1
300
_TITLE
309
CELLSTYLE_END
300
CELLSTYLE
  1
TABLEFORMAT_BEGIN
 90
        5
170
     1
 91
        0
 92
        0
 62
   257
 93
        1
300
CONTENTFORMAT
  1
CONTENTFORMAT_BEGIN
 90
        0
 91
        0
 92
      512
 93
        0
300

 40
0.0
140
1.0
 94
        5
 62
     0
340
55
144
0.18
309
CONTENTFORMAT_END
171
     0
 94
        0
309
TABLEFORMAT_END
  1
CELLSTYLE_BEGIN
 90
        2
 91
        1
300
_HEADER
309
CELLSTYLE_END
300
CELLSTYLE
  1
TABLEFORMAT_BEGIN
 90
        5
170
     1
 91
        0
 92
        0
 62
   257
 93
        1
300
CONTENTFORMAT
  1
CONTENTFORMAT_BEGIN
 90
        0
 91
        0
 92
      512
 93
        0
300

 40
0.0
140
1.0
 94
        2
 62
     0
340
55
144
0.18
309
CONTENTFORMAT_END
171
     0
 94
        0
309
TABLEFORMAT_END
  1
CELLSTYLE_BEGIN
 90
        3
 91
        2
300
_DATA
309
CELLSTYLE_END
  0
ENDSEC
  0
SECTION
  2
ACDSDATA
 70
     2
 71
     2
  0
ACDSSCHEMA
 90
        0
  1
AcDb_Thumbnail_Schema
  2
AcDbDs::ID
280
    10
 91
        8
  2
Thumbnail_Data
280
    15
 91
        0
101
ACDSRECORD
 95
        0
 90
        1
  2
AcDbDs::TreatedAsObjectData
280
     1
291
     1
101
ACDSRECORD
 95
        0
 90
        2
  2
AcDbDs::Legacy
280
     1
291
     1
101
ACDSRECORD
  1
AcDbDs::ID
 90
        3
  2
AcDs:Indexable
280
     1
291
     1
101
ACDSRECORD
  1
AcDbDs::ID
 90
        4
  2
AcDbDs::HandleAttribute
280
     7
282
     1
  0
ACDSSCHEMA
 90
        1
  1
AcDbDs::TreatedAsObjectDataSchema
  2
AcDbDs::TreatedAsObjectData
280
     1
 91
        0
  0
ACDSSCHEMA
 90
        2
  1
AcDbDs::LegacySchema
  2
AcDbDs::Legacy
280
     1
 91
        0
  0
ACDSSCHEMA
 90
        3
  1
AcDbDs::IndexedPropertySchema
  2
AcDs:Indexable
280
     1
 91
        0
  0
ACDSSCHEMA
 90
        4
  1
AcDbDs::HandleAttributeSchema
  2
AcDbDs::HandleAttribute
280
     7
 91
        1
284
     1
  0
ACDSRECORD
 90
        0
  2
AcDbDs::ID
280
    10
320
73
  2
Thumbnail_Data
280
    15
 94
     1332
310
89504E470D0A1A0A0000000D4948445200000100000000A60803000000029EA11300000300504C54452128300000000000000000000000000000000000000000000000000000000000000000330000660000990000CC0000FF0033000033330033660033990033CC0033FF0066000066330066660066990066CC0066FF0099
310
000099330099660099990099CC0099FF00CC0000CC3300CC6600CC9900CCCC00CCFF00FF0000FF3300FF6600FF9900FFCC00FFFF3300003300333300663300993300CC3300FF3333003333333333663333993333CC3333FF3366003366333366663366993366CC3366FF3399003399333399663399993399CC3399FF33CC00
310
33CC3333CC6633CC9933CCCC33CCFF33FF0033FF3333FF6633FF9933FFCC33FFFF6600006600336600666600996600CC6600FF6633006633336633666633996633CC6633FF6666006666336666666666996666CC6666FF6699006699336699666699996699CC6699FF66CC0066CC3366CC6666CC9966CCCC66CCFF66FF0066
310
FF3366FF6666FF9966FFCC66FFFF9900009900339900669900999900CC9900FF9933009933339933669933999933CC9933FF9966009966339966669966999966CC9966FF9999009999339999669999999999CC9999FF99CC0099CC3399CC6699CC9999CCCC99CCFF99FF0099FF3399FF6699FF9999FFCC99FFFFCC0000CC00
310
33CC0066CC0099CC00CCCC00FFCC3300CC3333CC3366CC3399CC33CCCC33FFCC6600CC6633CC6666CC6699CC66CCCC66FFCC9900CC9933CC9966CC9999CC99CCCC99FFCCCC00CCCC33CCCC66CCCC99CCCCCCCCCCFFCCFF00CCFF33CCFF66CCFF99CCFFCCCCFFFFFF0000FF0033FF0066FF0099FF00CCFF00FFFF3300FF3333
310
FF3366FF3399FF33CCFF33FFFF6600FF6633FF6666FF6699FF66CCFF66FFFF9900FF9933FF9966FF9999FF99CCFF99FFFFCC00FFCC33FFCC66FFCC99FFCCCCFFCCFFFFFF00FFFF33FFFF66FFFF99FFFFCCFFFFFF0000000D0D0D1A1A1A2828283535354343435050505D5D5D6B6B6B787878868686939393A1A1A1AEAEAEBB
310
BBBBC9C9C9D6D6D6E4E4E4F1F1F1FFFFFF000000000000000000000000000000000000000000000000000000000000544354A80000018549444154789CEDDB318E154010C4D0BDFF7DC94907427EA9CDC2F3013C254B1DCED717000000000000F00B3FBE3B1F0758540C112017C44C02FC5537F907FB3F162C470B30749DBC
310
27C042F29BEF120116020106435EDF25022C04020C86BCBE4B04580804180C797D9708B010083018F2FA2E116021106030E4F55D22C04220C060C8EBBB4480854080C190D77789000B81008321AFEF120116020106435EDF25022C04020C86BCBE4B04580804180C797D9708B010083018F2FA2E116021106030E4F55D22C0
310
4220C060C8EBBB4480854080C190D77789000B81008321AFEF120116020106435EDF25022C04020C86BCBE4B045808FEFBBFC3DF190172418C00B92046805C1023402E88112017C408900B6204C8053102E482180172418C00B92046805C1023402E88112017C408900B6204C8053102E482180172418C00B92046805C1023
310
402E88112017C408900B6204C8053102E482180172418C00B92046805C1023402E88112017C408900B6204C805319F07F8EE2C2A02000000000000FF0E3F01D2E268FE6B3D28AE0000000049454E44AE426082DEBC1EE0ED5B289A9999999999999999FD9FFD02D7CF79EF09C529E80000000049454E44AE426082B642C062
310
2748000179C4E4D780866D7C9A719E80CFE678010000000000000000000000000000000000000030215FC403B2F113A8A4FE0000000049454E44AE426082
  0
ENDSEC
  0
EOF
