  0
SECTION
  2
HEADER
  9
$ACADVER
  1
AC1027
  9
$ACADMAINTVER
 70
    67
  9
$DWGCODEPAGE
  3
ANSI_1252
  9
$LASTSAVEDBY
  1
ifala
  9
$REQUIREDVERSIONS
160
                 0
  9
$INSBASE
 10
0.0
 20
0.0
 30
0.0
  9
$EXTMIN
 10
0.9522003889466912
 20
-0.3466522349231818
 30
0.0
  9
$EXTMAX
 10
192.2603052643291
 20
140.2057141314814
 30
0.0
  9
$LIMMIN
 10
0.0
 20
0.0
  9
$LIMMAX
 10
12.0
 20
9.0
  9
$ORTHOMODE
 70
     0
  9
$REGENMODE
 70
     1
  9
$FILLMODE
 70
     1
  9
$QTEXTMODE
 70
     0
  9
$MIRRTEXT
 70
     0
  9
$LTSCALE
 40
1.0
  9
$ATTMODE
 70
     1
  9
$TEXTSIZE
 40
0.2
  9
$TRACEWID
 40
0.05
  9
$TEXTSTYLE
  7
Standard
  9
$CLAYER
  8
taglio1
  9
$CELTYPE
  6
ByLayer
  9
$CECOLOR
 62
   256
  9
$CELTSCALE
 40
1.0
  9
$DISPSILH
 70
     0
  9
$DIMSCALE
 40
1.0
  9
$DIMASZ
 40
0.18
  9
$DIMEXO
 40
0.0625
  9
$DIMDLI
 40
0.38
  9
$DIMRND
 40
0.0
  9
$DIMDLE
 40
0.0
  9
$DIMEXE
 40
0.18
  9
$DIMTP
 40
0.0
  9
$DIMTM
 40
0.0
  9
$DIMTXT
 40
0.18
  9
$DIMCEN
 40
0.09
  9
$DIMTSZ
 40
0.0
  9
$DIMTOL
 70
     0
  9
$DIMLIM
 70
     0
  9
$DIMTIH
 70
     1
  9
$DIMTOH
 70
     1
  9
$DIMSE1
 70
     0
  9
$DIMSE2
 70
     0
  9
$DIMTAD
 70
     0
  9
$DIMZIN
 70
     0
  9
$DIMBLK
  1

  9
$DIMASO
 70
     1
  9
$DIMSHO
 70
     1
  9
$DIMPOST
  1

  9
$DIMAPOST
  1

  9
$DIMALT
 70
     0
  9
$DIMALTD
 70
     2
  9
$DIMALTF
 40
25.4
  9
$DIMLFAC
 40
1.0
  9
$DIMTOFL
 70
     0
  9
$DIMTVP
 40
0.0
  9
$DIMTIX
 70
     0
  9
$DIMSOXD
 70
     0
  9
$DIMSAH
 70
     0
  9
$DIMBLK1
  1

  9
$DIMBLK2
  1

  9
$DIMSTYLE
  2
Standard
  9
$DIMCLRD
 70
     0
  9
$DIMCLRE
 70
     0
  9
$DIMCLRT
 70
     0
  9
$DIMTFAC
 40
1.0
  9
$DIMGAP
 40
0.09
  9
$DIMJUST
 70
     0
  9
$DIMSD1
 70
     0
  9
$DIMSD2
 70
     0
  9
$DIMTOLJ
 70
     1
  9
$DIMTZIN
 70
     0
  9
$DIMALTZ
 70
     0
  9
$DIMALTTZ
 70
     0
  9
$DIMUPT
 70
     0
  9
$DIMDEC
 70
     4
  9
$DIMTDEC
 70
     4
  9
$DIMALTU
 70
     2
  9
$DIMALTTD
 70
     2
  9
$DIMTXSTY
  7
Standard
  9
$DIMAUNIT
 70
     0
  9
$DIMADEC
 70
     0
  9
$DIMALTRND
 40
0.0
  9
$DIMAZIN
 70
     0
  9
$DIMDSEP
 70
    46
  9
$DIMATFIT
 70
     3
  9
$DIMFRAC
 70
     0
  9
$DIMLDRBLK
  1

  9
$DIMLUNIT
 70
     2
  9
$DIMLWD
 70
    -2
  9
$DIMLWE
 70
    -2
  9
$DIMTMOVE
 70
     0
  9
$DIMFXL
 40
1.0
  9
$DIMFXLON
 70
     0
  9
$DIMJOGANG
 40
0.7853981633974483
  9
$DIMTFILL
 70
     0
  9
$DIMTFILLCLR
 70
     0
  9
$DIMARCSYM
 70
     0
  9
$DIMLTYPE
  6

  9
$DIMLTEX1
  6

  9
$DIMLTEX2
  6

  9
$DIMTXTDIRECTION
 70
     0
  9
$LUNITS
 70
     2
  9
$LUPREC
 70
     4
  9
$SKETCHINC
 40
0.1
  9
$FILLETRAD
 40
0.0
  9
$AUNITS
 70
     0
  9
$AUPREC
 70
     0
  9
$MENU
  1
.
  9
$ELEVATION
 40
0.0
  9
$PELEVATION
 40
0.0
  9
$THICKNESS
 40
0.0
  9
$LIMCHECK
 70
     0
  9
$CHAMFERA
 40
0.0
  9
$CHAMFERB
 40
0.0
  9
$CHAMFERC
 40
0.0
  9
$CHAMFERD
 40
0.0
  9
$SKPOLY
 70
     0
  9
$TDCREATE
 40
2456931.456739422
  9
$TDUCREATE
 40
2456931.373406088
  9
$TDUPDATE
 40
2456955.406756701
  9
$TDUUPDATE
 40
2456955.323423368
  9
$TDINDWG
 40
0.1349894444
  9
$TDUSRTIMER
 40
0.1349893981
  9
$USRTIMER
 70
     1
  9
$ANGBASE
 50
0.0
  9
$ANGDIR
 70
     0
  9
$PDMODE
 70
     0
  9
$PDSIZE
 40
0.0
  9
$PLINEWID
 40
0.0
  9
$SPLFRAME
 70
     0
  9
$SPLINETYPE
 70
     6
  9
$SPLINESEGS
 70
     8
  9
$HANDSEED
  5
EA4
  9
$SURFTAB1
 70
     6
  9
$SURFTAB2
 70
     6
  9
$SURFTYPE
 70
     6
  9
$SURFU
 70
     6
  9
$SURFV
 70
     6
  9
$UCSBASE
  2

  9
$UCSNAME
  2

  9
$UCSORG
 10
0.0
 20
0.0
 30
0.0
  9
$UCSXDIR
 10
1.0
 20
0.0
 30
0.0
  9
$UCSYDIR
 10
0.0
 20
1.0
 30
0.0
  9
$UCSORTHOREF
  2

  9
$UCSORTHOVIEW
 70
     1
  9
$UCSORGTOP
 10
0.0
 20
0.0
 30
0.0
  9
$UCSORGBOTTOM
 10
0.0
 20
0.0
 30
0.0
  9
$UCSORGLEFT
 10
0.0
 20
0.0
 30
0.0
  9
$UCSORGRIGHT
 10
0.0
 20
0.0
 30
0.0
  9
$UCSORGFRONT
 10
0.0
 20
0.0
 30
0.0
  9
$UCSORGBACK
 10
0.0
 20
0.0
 30
0.0
  9
$PUCSBASE
  2

  9
$PUCSNAME
  2

  9
$PUCSORG
 10
0.0
 20
0.0
 30
0.0
  9
$PUCSXDIR
 10
1.0
 20
0.0
 30
0.0
  9
$PUCSYDIR
 10
0.0
 20
1.0
 30
0.0
  9
$PUCSORTHOREF
  2

  9
$PUCSORTHOVIEW
 70
     0
  9
$PUCSORGTOP
 10
0.0
 20
0.0
 30
0.0
  9
$PUCSORGBOTTOM
 10
0.0
 20
0.0
 30
0.0
  9
$PUCSORGLEFT
 10
0.0
 20
0.0
 30
0.0
  9
$PUCSORGRIGHT
 10
0.0
 20
0.0
 30
0.0
  9
$PUCSORGFRONT
 10
0.0
 20
0.0
 30
0.0
  9
$PUCSORGBACK
 10
0.0
 20
0.0
 30
0.0
  9
$USERI1
 70
     0
  9
$USERI2
 70
     0
  9
$USERI3
 70
     0
  9
$USERI4
 70
     0
  9
$USERI5
 70
     0
  9
$USERR1
 40
0.0
  9
$USERR2
 40
0.0
  9
$USERR3
 40
0.0
  9
$USERR4
 40
0.0
  9
$USERR5
 40
0.0
  9
$WORLDVIEW
 70
     1
  9
$SHADEDGE
 70
     3
  9
$SHADEDIF
 70
    70
  9
$TILEMODE
 70
     1
  9
$MAXACTVP
 70
    64
  9
$PINSBASE
 10
0.0
 20
0.0
 30
0.0
  9
$PLIMCHECK
 70
     0
  9
$PEXTMIN
 10
1.087500057821197
 20
0.7763888986091914
 30
0.0
  9
$PEXTMAX
 10
9.787500520390787
 20
6.987500087482723
 30
0.0
  9
$PLIMMIN
 10
-0.249999038816437
 20
-0.2499999962453767
  9
$PLIMMAX
 10
11.4444450318344
 20
8.013888625648077
  9
$UNITMODE
 70
     0
  9
$VISRETAIN
 70
     1
  9
$PLINEGEN
 70
     0
  9
$PSLTSCALE
 70
     1
  9
$TREEDEPTH
 70
  3020
  9
$CMLSTYLE
  2
Standard
  9
$CMLJUST
 70
     0
  9
$CMLSCALE
 40
1.0
  9
$PROXYGRAPHICS
 70
     1
  9
$MEASUREMENT
 70
     0
  9
$CELWEIGHT
370
    -1
  9
$ENDCAPS
280
     0
  9
$JOINSTYLE
280
     0
  9
$LWDISPLAY
290
     0
  9
$INSUNITS
 70
     0
  9
$HYPERLINKBASE
  1

  9
$STYLESHEET
  1

  9
$XEDIT
290
     1
  9
$CEPSNTYPE
380
     0
  9
$PSTYLEMODE
290
     1
  9
$FINGERPRINTGUID
  2
{BF12E0EB-8E1F-6C43-AD7E-1EDA7DB40F51}
  9
$VERSIONGUID
  2
{332FC218-D17F-7F4C-A8BA-30DE20755D95}
  9
$EXTNAMES
290
     1
  9
$PSVPSCALE
 40
0.0
  9
$OLESTARTUP
290
     0
  9
$SORTENTS
280
   127
  9
$INDEXCTL
280
     0
  9
$HIDETEXT
280
     0
  9
$XCLIPFRAME
280
     2
  9
$HALOGAP
280
     0
  9
$OBSCOLOR
 70
   257
  9
$OBSLTYPE
280
     0
  9
$INTERSECTIONDISPLAY
280
     0
  9
$INTERSECTIONCOLOR
 70
   257
  9
$DIMASSOC
280
     1
  9
$PROJECTNAME
  1

  9
$CAMERADISPLAY
290
     0
  9
$LENSLENGTH
 40
50.0
  9
$CAMERAHEIGHT
 40
0.0
  9
$STEPSPERSEC
 40
2.0
  9
$STEPSIZE
 40
6.0
  9
$3DDWFPREC
 40
2.0
  9
$PSOLWIDTH
 40
0.25
  9
$PSOLHEIGHT
 40
4.0
  9
$LOFTANG1
 40
1.570796326794896
  9
$LOFTANG2
 40
1.570796326794896
  9
$LOFTMAG1
 40
0.0
  9
$LOFTMAG2
 40
0.0
  9
$LOFTPARAM
 70
     7
  9
$LOFTNORMALS
280
     1
  9
$LATITUDE
 40
37.795
  9
$LONGITUDE
 40
-122.394
  9
$NORTHDIRECTION
 40
0.0
  9
$TIMEZONE
 70
 -8000
  9
$LIGHTGLYPHDISPLAY
280
     1
  9
$TILEMODELIGHTSYNCH
280
     1
  9
$CMATERIAL
347
11
  9
$SOLIDHIST
280
     0
  9
$SHOWHIST
280
     1
  9
$DWFFRAME
280
     2
  9
$DGNFRAME
280
     0
  9
$REALWORLDSCALE
290
     1
  9
$INTERFERECOLOR
 62
     1
  9
$INTERFEREOBJVS
345
33
  9
$INTERFEREVPVS
346
30
  9
$CSHADOW
280
     0
  9
$SHADOWPLANELOCATION
 40
0.0
  0
ENDSEC
  0
SECTION
  2
CLASSES
  0
CLASS
  1
ACDBDICTIONARYWDFLT
  2
AcDbDictionaryWithDefault
  3
ObjectDBX Classes
 90
        0
 91
        1
280
     0
281
     0
  0
CLASS
  1
MATERIAL
  2
AcDbMaterial
  3
ObjectDBX Classes
 90
     1153
 91
        3
280
     0
281
     0
  0
CLASS
  1
VISUALSTYLE
  2
AcDbVisualStyle
  3
ObjectDBX Classes
 90
     4095
 91
       24
280
     0
281
     0
  0
CLASS
  1
SCALE
  2
AcDbScale
  3
ObjectDBX Classes
 90
     1153
 91
       17
280
     0
281
     0
  0
CLASS
  1
TABLESTYLE
  2
AcDbTableStyle
  3
ObjectDBX Classes
 90
     4095
 91
        1
280
     0
281
     0
  0
CLASS
  1
MLEADERSTYLE
  2
AcDbMLeaderStyle
  3
ACDB_MLEADERSTYLE_CLASS
 90
     4095
 91
        1
280
     0
281
     0
  0
CLASS
  1
ACDBSECTIONVIEWSTYLE
  2
AcDbSectionViewStyle
  3
ObjectDBX Classes
 90
     1025
 91
        1
280
     0
281
     0
  0
CLASS
  1
ACDBDETAILVIEWSTYLE
  2
AcDbDetailViewStyle
  3
ObjectDBX Classes
 90
     1025
 91
        1
280
     0
281
     0
  0
CLASS
  1
SORTENTSTABLE
  2
AcDbSortentsTable
  3
ObjectDBX Classes
 90
        0
 91
        1
280
     0
281
     0
  0
CLASS
  1
DICTIONARYVAR
  2
AcDbDictionaryVar
  3
ObjectDBX Classes
 90
        0
 91
        9
280
     0
281
     0
  0
CLASS
  1
CELLSTYLEMAP
  2
AcDbCellStyleMap
  3
ObjectDBX Classes
 90
     1152
 91
        2
280
     0
281
     0
  0
ENDSEC
  0
SECTION
  2
TABLES
  0
TABLE
  2
VPORT
  5
8
330
0
100
AcDbSymbolTable
 70
     1
  0
VPORT
  5
7D1
330
8
100
AcDbSymbolTableRecord
100
AcDbViewportTableRecord
  2
*Active
 70
     0
 10
0.0
 20
0.0
 11
1.0
 21
1.0
 12
57.86749294553874
 22
41.21705871446454
 13
0.0
 23
0.0
 14
1.0
 24
1.0
 15
0.0
 25
0.0
 16
0.0
 26
0.0
 36
1.0
 17
0.0
 27
0.0
 37
0.0
 40
236.6202269512494
 41
1.370766488413547
 42
50.0
 43
0.0
 44
0.0
 50
0.0
 51
0.0
 71
     0
 72
  1000
 73
     1
 74
     3
 75
     0
 76
     0
 77
     0
 78
     0
281
     0
 65
     1
110
0.0
120
0.0
130
0.0
111
1.0
121
0.0
131
0.0
112
0.0
122
1.0
132
0.0
 79
     0
146
0.0
348
2F
 60
     3
 61
     5
292
     1
282
     1
141
0.0
142
0.0
 63
   250
421
  3355443
1001
ACAD_NAV_VCDISPLAY
1070
     1
  0
ENDTAB
  0
TABLE
  2
LTYPE
  5
5
330
0
100
AcDbSymbolTable
 70
     2
  0
LTYPE
  5
5A
330
5
100
AcDbSymbolTableRecord
100
AcDbLinetypeTableRecord
  2
ByBlock
 70
     0
  3

 72
    65
 73
     0
 40
0.0
  0
LTYPE
  5
5B
330
5
100
AcDbSymbolTableRecord
100
AcDbLinetypeTableRecord
  2
ByLayer
 70
     0
  3

 72
    65
 73
     0
 40
0.0
  0
LTYPE
  5
5C
330
5
100
AcDbSymbolTableRecord
100
AcDbLinetypeTableRecord
  2
Continuous
 70
     0
  3
Solid line
 72
    65
 73
     0
 40
0.0
  0
LTYPE
  5
68
330
5
100
AcDbSymbolTableRecord
100
AcDbLinetypeTableRecord
  2
PHANTOM2
 70
     0
  3
Phantom (.5x) ___ _ _ ___ _ _ ___ _ _ ___ _ _
 72
    65
 73
     6
 40
1.25
 49
0.625
 74
     0
 49
-0.125
 74
     0
 49
0.125
 74
     0
 49
-0.125
 74
     0
 49
0.125
 74
     0
 49
-0.125
 74
     0
  0
ENDTAB
  0
TABLE
  2
LAYER
  5
2
102
{ACAD_XDICTIONARY
360
D3B
102
}
330
0
100
AcDbSymbolTable
 70
     6
  0
LAYER
  5
54
102
{ACAD_XDICTIONARY
360
D2C
102
}
330
2
100
AcDbSymbolTableRecord
100
AcDbLayerTableRecord
  2
0
 70
     0
 62
     7
  6
Continuous
370
    -3
390
F
347
21
348
0
  0
LAYER
  5
3B7
102
{ACAD_XDICTIONARY
360
D32
102
}
330
2
100
AcDbSymbolTableRecord
100
AcDbLayerTableRecord
  2
scritte
 70
     0
 62
     6
  6
Continuous
370
    -3
390
F
347
21
348
0
  0
LAYER
  5
68C
102
{ACAD_XDICTIONARY
360
D36
102
}
330
2
100
AcDbSymbolTableRecord
100
AcDbLayerTableRecord
  2
taglio1
 70
     0
 62
    -5
  6
Continuous
370
    -3
390
F
347
21
348
0
  0
LAYER
  5
E40
102
{ACAD_XDICTIONARY
360
E41
102
}
330
2
100
AcDbSymbolTableRecord
100
AcDbLayerTableRecord
  2
2taglio
 70
     0
 62
     1
  6
Continuous
370
    -3
390
F
347
21
348
0
  0
LAYER
  5
E42
330
2
100
AcDbSymbolTableRecord
100
AcDbLayerTableRecord
  2
1taglio
 70
     0
 62
     5
  6
Continuous
370
    -3
390
F
347
21
348
0
1001
AcAecLayerStandard
1000

1000

1001
AcCmTransparency
1071
        0
  0
ENDTAB
  0
TABLE
  2
STYLE
  5
3
330
0
100
AcDbSymbolTable
 70
     2
  0
STYLE
  5
55
330
3
100
AcDbSymbolTableRecord
100
AcDbTextStyleTableRecord
  2
Standard
 70
     0
 40
0.0
 41
1.0
 50
0.0
 71
     0
 42
0.2
  3
txt
  4

  0
STYLE
  5
59
330
3
100
AcDbSymbolTableRecord
100
AcDbTextStyleTableRecord
  2
Annotative
 70
     0
 40
0.0
 41
1.0
 50
0.0
 71
     0
 42
0.2
  3
txt
  4

1001
AcadAnnotative
1000
AnnotativeData
1002
{
1070
     1
1070
     1
1002
}
  0
ENDTAB
  0
TABLE
  2
VIEW
  5
6
330
0
100
AcDbSymbolTable
 70
     1
  0
ENDTAB
  0
TABLE
  2
UCS
  5
7
330
0
100
AcDbSymbolTable
 70
     0
  0
ENDTAB
  0
TABLE
  2
APPID
  5
9
330
0
100
AcDbSymbolTable
 70
     7
  0
APPID
  5
56
330
9
100
AcDbSymbolTableRecord
100
AcDbRegAppTableRecord
  2
ACAD
 70
     0
  0
APPID
  5
5D
330
9
100
AcDbSymbolTableRecord
100
AcDbRegAppTableRecord
  2
AcadAnnotative
 70
     0
  0
APPID
  5
7D0
330
9
100
AcDbSymbolTableRecord
100
AcDbRegAppTableRecord
  2
ACAD_NAV_VCDISPLAY
 70
     0
  0
APPID
  5
D6F
330
9
100
AcDbSymbolTableRecord
100
AcDbRegAppTableRecord
  2
ACAD_PSEXT
 70
     0
  0
APPID
  5
DC3
330
9
100
AcDbSymbolTableRecord
100
AcDbRegAppTableRecord
  2
ACAD_EXEMPT_FROM_CAD_STANDARDS
 70
     0
  0
APPID
  5
E43
330
9
100
AcDbSymbolTableRecord
100
AcDbRegAppTableRecord
  2
AcAecLayerStandard
 70
     0
  0
APPID
  5
E44
330
9
100
AcDbSymbolTableRecord
100
AcDbRegAppTableRecord
  2
AcCmTransparency
 70
     0
  0
ENDTAB
  0
TABLE
  2
DIMSTYLE
  5
A
330
0
100
AcDbSymbolTable
 70
     2
100
AcDbDimStyleTable
 71
     1
340
57
  0
DIMSTYLE
105
57
330
A
100
AcDbSymbolTableRecord
100
AcDbDimStyleTableRecord
  2
Standard
 70
     0
340
55
  0
DIMSTYLE
105
58
330
A
100
AcDbSymbolTableRecord
100
AcDbDimStyleTableRecord
  2
Annotative
 70
     0
340
55
1001
AcadAnnotative
1000
AnnotativeData
1002
{
1070
     1
1070
     1
1002
}
  0
ENDTAB
  0
TABLE
  2
BLOCK_RECORD
  5
1
330
0
100
AcDbSymbolTable
 70
     0
  0
BLOCK_RECORD
  5
70
102
{ACAD_XDICTIONARY
360
7DE
102
}
330
1
100
AcDbSymbolTableRecord
100
AcDbBlockTableRecord
  2
*Model_Space
340
73
 70
     0
280
     1
281
     0
  0
BLOCK_RECORD
  5
6C
330
1
100
AcDbSymbolTableRecord
100
AcDbBlockTableRecord
  2
*Paper_Space
340
6F
 70
     0
280
     1
281
     0
  0
ENDTAB
  0
ENDSEC
  0
SECTION
  2
BLOCKS
  0
BLOCK
  5
71
330
70
100
AcDbEntity
  8
0
100
AcDbBlockBegin
  2
*Model_Space
 70
     0
 10
0.0
 20
0.0
 30
0.0
  3
*Model_Space
  1

  0
ENDBLK
  5
72
330
70
100
AcDbEntity
  8
0
100
AcDbBlockEnd
  0
BLOCK
  5
6D
330
6C
100
AcDbEntity
 67
     1
  8
0
100
AcDbBlockBegin
  2
*Paper_Space
 70
     0
 10
0.0
 20
0.0
 30
0.0
  3
*Paper_Space
  1

  0
ENDBLK
  5
6E
330
6C
100
AcDbEntity
 67
     1
  8
0
100
AcDbBlockEnd
  0
ENDSEC
  0
SECTION
  2
ENTITIES
  0
LINE
  5
CE
330
70
100
AcDbEntity
  8
1taglio
100
AcDbLine
 10
181.2142875409823
 20
90.10392357483771
 30
0.0
 11
181.2142831230886
 21
90.02896015849016
 31
0.0
  0
LWPOLYLINE
  5
D7B
330
70
100
AcDbEntity
  8
scritte
100
AcDbPolyline
 90
       14
 70
     1
 43
0.0
 10
90.98562329225105
 20
9.916292547379461
 10
91.35936066598844
 20
9.9162925473794
 10
91.35936066598828
 20
9.069827900914752
 10
92.70481521144285
 20
9.069827900914532
 10
92.70481521144278
 20
8.768817799904429
 10
91.35936066598793
 20
6.92639355748041
 10
90.98562329225059
 20
6.926393557480472
 10
90.98562329225087
 20
8.744575375662288
 10
90.58562329225088
 20
8.744575375662357
 10
90.58562329225091
 20
9.06982790091488
 10
90.98562329225092
 20
9.069827900914816
 10
90.98562329225105
 20
9.916292547379461
 10
90.98562329225092
 20
9.069827900914816
 10
90.58562329225091
 20
9.06982790091488
  0
LWPOLYLINE
  5
D7C
330
70
100
AcDbEntity
  8
scritte
100
AcDbPolyline
 90
       47
 70
     1
 43
0.0
 10
94.11289601952379
 20
9.991040022126419
 10
94.44155844775357
 20
9.965472032126767
 10
94.73057319564288
 20
9.888767806369816
 10
94.97994127466455
 20
9.760926961218396
 10
95.1896636962914
 20
9.581949113035335
 10
95.35582584781108
 20
9.356128183440592
 10
95.47451265701365
 20
9.087757617698619
 10
95.54572448080454
 20
8.776836334978526
 10
95.5694616760892
 20
8.423363254449411
 10
95.54528256450243
 20
8.07058462703452
 10
95.4727449879522
 20
7.759726505490109
 10
95.35184858375323
 20
7.490787768526377
 10
95.1825929892203
 20
7.263767294853518
 10
94.96939833670143
 20
7.083463640327329
 10
94.71668429904704
 20
6.954675830897627
 10
94.42444985900451
 20
6.877403450415608
 10
94.09269399932126
 20
6.851646082732486
 10
93.6563305324997
 20
6.884474242257494
 10
93.15127985790715
 20
6.982959214045772
 10
93.1512798579072
 20
7.380939012025566
 10
93.69521959093081
 20
7.221847825502043
 10
94.09875460538193
 20
7.168817799904197
 10
94.32842689475824
 20
7.18939844614933
 10
94.53057308004554
 20
7.251140600665651
 10
94.70519386638493
 20
7.35404458712445
 10
94.85228995891731
 20
7.498110729197007
 10
94.96895698971419
 20
7.679676593837043
 10
95.05229028258868
 20
7.895080117908306
 10
95.10229008029416
 20
8.144322179947142
 10
95.11895662558412
 20
8.427403658489891
 10
95.10115372532764
 20
8.698174502072815
 10
95.04774485116277
 20
8.938767587698988
 10
94.95872974299649
 20
9.149183759225667
 10
94.83410814073579
 20
9.329423860510139
 10
94.67867868886079
 20
9.473931904435133
 10
94.49723972359324
 20
9.577151549386259
 10
94.28979052245249
 20
9.639083107475117
 10
94.05633036295807
 20
9.659726890813301
 10
93.84042094259786
 20
9.643439133402186
 10
93.61693656228039
 20
9.594575699333141
 10
93.14723945386713
 20
9.399120830207387
 10
93.1472394538672
 20
9.762757193843752
 10
93.37350245581971
 20
9.862631252252812
 10
93.60986560860304
 20
9.93396960042056
 10
94.11289601952379
 20
9.991040022126419
 10
93.60986560860304
 20
9.93396960042056
 10
93.37350245581971
 20
9.862631252252812
  0
LWPOLYLINE
  5
D7E
330
70
100
AcDbEntity
  8
1taglio
100
AcDbPolyline
 90
       24
 70
     1
 43
0.0
 10
78.10035883333161
 20
15.60563701032943
 10
78.63095697219344
 20
15.82541784788349
 10
79.20035888441191
 20
15.90038093136
 10
79.76976077064789
 20
15.8254176505251
 10
80.30035883333257
 20
15.60563662906019
 10
80.75599369135415
 20
15.2560155803824
 10
81.1056145821119
 20
14.80038060117852
 10
81.32539541966179
 20
14.26978246232125
 10
81.40035850314758
 20
13.70038055010245
 10
81.32539522230644
 20
13.13097866387314
 10
81.1056142008403
 20
12.60038060117912
 10
80.75599315215999
 20
12.14474574315584
 10
80.30035817296527
 20
11.79512485240738
 10
79.76976003410107
 20
11.57534401485629
 10
79.20035812188046
 20
11.50038093136165
 10
78.6309562356479
 20
11.57534421221685
 10
78.10035817296503
 20
11.79512523367617
 10
77.64472331493839
 20
12.14474628234647
 10
77.29510242418749
 20
12.60038126155657
 10
77.07532158663454
 20
13.13097940042097
 10
77.00035850314801
 20
13.70038131263345
 10
77.07532178398849
 20
14.26978319887459
 10
77.29510280545706
 20
14.80038126155688
 10
77.64472385413255
 20
15.25601611956815
  0
LWPOLYLINE
  5
D7F
330
70
100
AcDbEntity
  8
1taglio
100
AcDbPolyline
 90
       24
 70
     1
 43
0.0
 10
78.67507811578791
 20
33.54959688880289
 10
78.13631423928615
 20
33.75884024515707
 10
77.67006446238787
 20
34.10039615909028
 10
77.30810293687247
 20
34.55098815951256
 10
77.07509674253661
 20
35.07990914624156
 10
76.98692486646075
 20
35.65111402810862
 10
77.04959607629094
 20
36.22567613637623
 10
77.258839432642
 20
36.76444001287694
 10
77.60039534657519
 20
37.23068978977456
 10
78.05098734699924
 20
37.59265131528909
 10
78.5799083337261
 20
37.82565750962481
 10
79.15111321559169
 20
37.913829385702
 10
79.72567532386164
 20
37.85115817587378
 10
80.26443920036156
 20
37.64191481951864
 10
80.73068897726129
 20
37.30035890558649
 10
81.092650502774
 20
36.84976690516223
 10
81.32565669711025
 20
36.32084591843404
 10
81.4138285731863
 20
35.74964103656994
 10
81.35115736335649
 20
35.17507892829956
 10
81.1419140070045
 20
34.63631505180118
 10
80.80035809307222
 20
34.17006527490221
 10
80.34976609264884
 20
33.8081037493866
 10
79.82084510592091
 20
33.57509755505152
 10
79.24964022405482
 20
33.4869256789765
  0
LWPOLYLINE
  5
D80
330
70
100
AcDbEntity
  8
1taglio
100
AcDbPolyline
 90
       24
 70
     1
 43
0.0
 10
101.2003568769929
 20
33.50037511079346
 10
100.6309549907634
 20
33.57533839164083
 10
100.1003569280733
 20
33.79511941310136
 10
99.64472207005407
 20
34.14474046177461
 10
99.29510117930576
 20
34.60037544097996
 10
99.07532034174593
 20
35.1309735798453
 10
99.00035725826013
 20
35.70037549205966
 10
99.07532053910472
 20
36.26977737829097
 10
99.29510156056714
 20
36.80037544097772
 10
99.64472260924759
 20
37.25601029899446
 10
100.100357588451
 20
37.60563118975461
 10
100.6309557273124
 20
37.82541202730789
 10
101.2003576395256
 20
37.90037511078865
 10
101.7697595257615
 20
37.82541182994985
 10
102.3003575884484
 20
37.60563080848247
 10
102.7559924464701
 20
37.25600975980281
 10
103.1056133372209
 20
36.80037478060135
 10
103.3253941747765
 20
36.26977664173962
 10
103.4003572582607
 20
35.70037472952507
 10
103.3253939774207
 20
35.13097284329403
 10
103.1056129559595
 20
34.60037478060629
 10
102.7559919072748
 20
34.14473992258415
 10
102.3003569280767
 20
33.79511903182852
 10
101.769758789212
 20
33.57533819428083
  0
LWPOLYLINE
  5
D82
330
70
100
AcDbEntity
  8
scritte
100
AcDbPolyline
 90
       18
 70
     1
 43
0.0
 10
120.4394057189423
 20
77.86642661769784
 10
120.2091028797545
 20
77.75203256934256
 10
120.0636481070414
 20
77.56996205894042
 10
120.0151634911354
 20
77.32880026609196
 10
120.057587501335
 20
77.09395166148614
 10
120.1848604565038
 20
76.89445683372088
 10
120.3717290768155
 20
76.75809300630651
 10
120.5929412538253
 20
76.71263863578693
 10
120.9315777934095
 20
76.75582025094822
 10
121.1959715407771
 20
76.88536587402676
 10
121.2954036813977
 20
76.97873714825054
 10
121.3664263706173
 20
77.08612325140731
 10
121.4090398251803
 20
77.20752459964586
 10
121.4232442618307
 20
77.34294160911493
 10
121.3770323729455
 20
77.57349728472201
 10
121.2383957817232
 20
77.75203251760565
 10
121.0219818001369
 20
77.86642658841493
 10
120.7424361988677
 20
77.90455779137214
  0
LWPOLYLINE
  5
D83
330
70
100
AcDbEntity
  8
scritte
100
AcDbPolyline
 90
       48
 70
     1
 43
0.0
 10
119.9362488318253
 20
76.84811868313335
 10
119.8207185895914
 20
77.01819406864061
 10
119.751400698529
 20
77.20670387187823
 10
119.7282948118477
 20
77.41364876330819
 10
119.7445194316592
 20
77.60070727804597
 10
119.7931934607949
 20
77.76996206769884
 10
119.874317153568
 20
77.92141373337056
 10
119.9878907642918
 20
78.05506287616495
 10
120.1268429714956
 20
78.16421725373603
 10
120.2841027080224
 20
78.24218437713112
 10
120.4596706096549
 20
78.28896447754401
 10
120.6535473121761
 20
78.3045577861684
 10
120.8765276128699
 20
78.28707051724276
 10
121.0788000265359
 20
78.23460857979347
 10
121.2603652698749
 20
78.14717174262677
 10
121.4212240595873
 20
78.02475977454881
 10
121.5529163985368
 20
77.87545407726766
 10
121.6469820056522
 20
77.70733577505872
 10
121.703421163062
 20
77.52040422057948
 10
121.7222341528949
 20
77.31465876648738
 10
121.6973606028571
 20
77.08069360674409
 10
121.6227397037685
 20
76.8737494754593
 10
121.4983710824679
 20
76.69382565593237
 10
121.3242543657943
 20
76.54092143146264
 10
121.105946068307
 20
76.41895133226646
 10
120.8490022462724
 20
76.33183018140569
 10
120.5534218650982
 20
76.27955770144783
 10
120.2192038901923
 20
76.26213361496045
 10
119.8520312811039
 20
76.28214609735931
 10
119.5282943860303
 20
76.34218372124194
 10
119.2479920490026
 20
76.44224681027967
 10
119.0111231140519
 20
76.58233568814384
 10
118.8228649189971
 20
76.75878792161649
 10
118.6883952948704
 20
76.96794144738966
 10
118.6077138255228
 20
77.20979714399965
 10
118.5808200948057
 20
77.48435588998287
 10
118.6091027989126
 20
77.78435569635248
 10
118.693951404663
 20
78.15102253484356
 10
119.0414261429136
 20
78.15102251737791
 10
118.9202138092942
 20
77.76718390230644
 10
118.8798099858683
 20
77.46011345129803
 10
118.8988439145091
 20
77.28113547391064
 10
118.9559457927541
 20
77.12602150608629
 10
119.0511157593195
 20
76.99477146112731
 10
119.1843539529216
 20
76.88738525233602
 10
119.3556605122765
 20
76.80386279301476
 10
119.5650355761007
 20
76.74420399646587
 10
120.0979917720216
 20
76.69647704489448
  0
LWPOLYLINE
  5
D84
330
70
100
AcDbEntity
  8
scritte
100
AcDbPolyline
 90
       44
 70
     1
 43
0.0
 10
121.6966661647328
 20
74.4607438832957
 10
121.6199619411296
 20
74.17172914625002
 10
121.4921210994731
 20
73.92236107968368
 10
121.3131432561265
 20
73.71263867212398
 10
121.087322332594
 20
73.54647653597274
 10
120.8189517740246
 20
73.42778974312938
 10
120.5080304995874
 20
73.35657793668857
 10
120.1545574284514
 20
73.33284075974498
 10
119.8017788103918
 20
73.35701988847926
 10
119.4909206970701
 20
73.42955747890069
 10
119.2219819671967
 20
73.5504538936945
 10
118.9949614994817
 20
73.71970949554601
 10
118.8146578496554
 20
73.93290415197284
 10
118.6858700435419
 20
74.18561818999027
 10
118.6085976649925
 20
74.47785262685082
 10
118.5828402978584
 20
74.80960847980718
 10
118.6156684563346
 20
75.24597193442769
 10
118.7141534253033
 20
75.75102259185825
 10
119.1121332127181
 20
75.75102257185398
 10
118.9530420306389
 20
75.20708285997908
 10
118.9000120066127
 20
74.80354785795062
 10
118.9205926524048
 20
74.57387557309314
 10
118.9823348053642
 20
74.37172938959008
 10
119.0852387891621
 20
74.19710860230054
 10
119.22930492747
 20
74.05001250608342
 10
119.4108707873375
 20
73.93334546898114
 10
119.6262743057243
 20
73.85001216729451
 10
119.8755163611669
 20
73.80001235826998
 10
120.1585978322016
 20
73.78334579915409
 10
120.4293686685893
 20
73.80114868536998
 10
120.6699617478068
 20
73.85455754615023
 10
120.8803779137115
 20
73.94357264158776
 10
121.0606180101606
 20
74.06819423177555
 10
121.2051260501863
 20
74.22362367262876
 10
121.3083456923236
 20
74.40506262832103
 10
121.370277248684
 20
74.61251182133285
 10
121.3909210313794
 20
74.84597197414473
 10
121.374633274313
 20
75.06188139010312
 10
121.3257698414503
 20
75.28536576747298
 10
121.1303149773224
 20
75.75506287435377
 10
121.4939513313055
 20
75.75506285607575
 10
121.5938253871551
 20
75.52879985457399
 10
121.6651637335251
 20
75.29243670391996
 10
121.7222341539203
 20
74.7894063022935
  0
LWPOLYLINE
  5
D85
330
70
100
AcDbEntity
  8
1taglio
100
AcDbPolyline
 90
       24
 70
     1
 43
0.0
 10
131.8669785557663
 20
75.45529297163142
 10
132.2165995152239
 20
74.99965805613911
 10
132.4363804383857
 20
74.46905996407723
 10
132.5113436185504
 20
73.89965807855938
 10
132.4363804388623
 20
73.33025619710801
 10
132.2165995161413
 20
72.79965811695898
 10
131.8669785570639
 20
72.34402322042237
 10
131.411343652215
 20
71.99440227272337
 10
130.8807455673894
 20
71.77462136367086
 10
130.3113436852082
 20
71.69965819901523
 10
129.7419418029673
 20
71.77462139453918
 10
129.2113437179574
 20
71.99440233235826
 10
128.7557088128172
 20
72.34402330475858
 10
128.4060878533576
 20
72.79965822024793
 10
128.1863069301973
 20
73.33025631231315
 10
128.1113437500327
 20
73.89965819782945
 10
128.1863069297207
 20
74.46906007928106
 10
128.4060878524394
 20
74.99965815942859
 10
128.7557088115184
 20
75.45529305596701
 10
129.2113437163707
 20
75.80491400366665
 10
129.7419418011954
 20
76.02469491271688
 10
130.3113436833752
 20
76.09965807737501
 10
130.8807455656161
 20
76.02469488184849
 10
131.4113436506239
 20
75.80491394403273
  0
LWPOLYLINE
  5
D88
330
70
100
AcDbEntity
  8
scritte
100
AcDbPolyline
 90
       58
 70
     1
 43
0.0
 10
10.37716401795709
 20
82.78203208308084
 10
10.03271948103511
 20
82.65627429154246
 10
9.718578159371203
 20
82.61435531540419
 10
9.479941067474456
 20
82.64301671193175
 10
9.309486602937743
 20
82.72900119435986
 10
9.207214280254147
 20
82.87230920195655
 10
9.173123613916732
 20
83.07294117399015
 10
9.224890897655036
 20
83.32837126453794
 10
9.289600149713908
 20
83.42871851999424
 10
9.380193272909068
 20
83.51082067086315
 10
9.639031525737667
 20
83.62028992471136
 10
10.00140644219966
 20
83.65677955782837
 10
10.14080038159359
 20
83.65879975984855
 10
10.14080038159364
 20
83.9274866285354
 10
9.983224624017882
 20
83.92748662853545
 10
9.596985967155074
 20
83.96688027315738
 10
9.321102271340748
 20
84.0850616000525
 10
9.224543266508966
 20
84.17369782858498
 10
9.155572681157943
 20
84.28203119876489
 10
9.114190408360563
 20
84.41006178428507
 10
9.100396341189702
 20
84.55778965883864
 10
9.145093125931696
 20
84.79794129729347
 10
9.279184219977656
 20
84.98910279015174
 10
9.484487065325687
 20
85.11410299822609
 10
9.742820583614046
 20
85.15576945681832
 10
10.03473959057821
 20
85.11334542246842
 10
10.41756805836149
 20
84.98607248712124
 10
10.41756805836155
 20
85.3577896588384
 10
10.03170928754796
 20
85.43051705294249
 10
9.71857815937167
 20
85.45475935580823
 10
9.488148311577319
 20
85.4397342159674
 10
9.283729427916483
 20
85.39465864619899
 10
9.105320768569091
 20
85.31953242113422
 10
8.952921593715064
 20
85.21435531540431
 10
8.830951480596553
 20
85.08278951867742
 10
8.74383031471407
 20
84.92849694917984
 10
8.691557818635088
 20
84.75147699713794
 10
8.67413371492708
 20
84.55172905277811
 10
8.719335365219013
 20
84.26814239079389
 10
8.854940809308306
 20
84.04162747239908
 10
9.080950787015032
 20
83.87218354621394
 10
9.397366038159267
 20
83.75980986085878
 10
9.124259145255603
 20
83.62874918544008
 10
8.929183480157327
 20
83.45981023076891
 10
8.812138487999384
 20
83.25299230326388
 10
8.773123613916721
 20
83.00829470934374
 10
8.787454293877621
 20
82.84588872188354
 10
8.830446406971734
 20
82.70513713799422
 10
8.902100063016105
 20
82.58603987386816
 10
9.002415371827778
 20
82.48859684569747
 10
9.131392443223797
 20
82.41280796967449
 10
9.289031387021195
 20
82.35867316199145
 10
9.690295331088325
 20
82.31536541641428
 10
10.028679200298
 20
82.34516327290888
 10
10.37716401795703
 20
82.4345573356061
 10
10.37716401795709
 20
82.78203208308084
 10
10.37716401795703
 20
82.4345573356061
 10
10.028679200298
 20
82.34516327290888
  0
LWPOLYLINE
  5
D89
330
70
100
AcDbEntity
  8
scritte
100
AcDbPolyline
 90
       47
 70
     1
 43
0.0
 10
12.36239210275293
 20
85.42919136580819
 10
12.03372967452319
 20
85.45475935580785
 10
11.53069926360244
 20
85.39768893410197
 10
11.2943361108191
 20
85.32635058593424
 10
11.06807310886658
 20
85.22647652752521
 10
11.06807310886652
 20
84.86284016388879
 10
11.53777021727979
 20
85.05829503301454
 10
11.76125459759725
 20
85.10715846708361
 10
11.97716401795747
 20
85.12344622449473
 10
12.21062417745188
 20
85.10280244115655
 10
12.41807337859262
 20
85.04087088306768
 10
12.59951234386021
 20
84.93765123811654
 10
12.7549417957352
 20
84.79314319419156
 10
12.87956339799587
 20
84.61290309290708
 10
12.96857850616216
 20
84.40248692138043
 10
13.02198738032705
 20
84.16189383575426
 10
13.03979028058354
 20
83.89112299217131
 10
13.02312373529355
 20
83.60804151362856
 10
12.97312393758807
 20
83.35879945158973
 10
12.88979064471361
 20
83.14339592751847
 10
12.77312361391672
 20
82.96183006287842
 10
12.62602752138431
 20
82.81776392080587
 10
12.45140673504495
 20
82.71485993434707
 10
12.24926054975761
 20
82.65311777983075
 10
12.01958826038131
 20
82.63253713358563
 10
11.61605324593016
 20
82.68556715918345
 10
11.07211351290659
 20
82.84465834570699
 10
11.07211351290653
 20
82.44667854772719
 10
11.57716418749912
 20
82.3481935759389
 10
12.01352765432065
 20
82.31536541641391
 10
12.34528351400391
 20
82.34112278409705
 10
12.63751795404644
 20
82.41839516457906
 10
12.89023199170084
 20
82.54718297400877
 10
13.10342664421971
 20
82.72748662853496
 10
13.27268223875265
 20
82.9545071022078
 10
13.39357864295161
 20
83.22344583917153
 10
13.46611621950185
 20
83.53430396071592
 10
13.49029533108859
 20
83.88708258813085
 10
13.46655813580396
 20
84.24055566865995
 10
13.39534631201305
 20
84.55147695138004
 10
13.27665950281046
 20
84.81984751712202
 10
13.1104973512908
 20
85.04566844671677
 10
12.90077492966397
 20
85.22464629489981
 10
12.65140685064227
 20
85.35248714005124
 10
12.36239210275293
 20
85.42919136580819
 10
12.65140685064227
 20
85.35248714005124
 10
12.90077492966397
 20
85.22464629489981
  0
LWPOLYLINE
  5
D8A
330
70
100
AcDbEntity
  8
scritte
100
AcDbPolyline
 90
        3
 70
     1
 43
0.0
 10
91.33309803972556
 20
8.744575375662233
 10
91.3330980397254
 20
7.415282446369301
 10
92.31491622154377
 20
8.744575375662071
  0
LWPOLYLINE
  5
D8B
330
70
100
AcDbEntity
  8
scritte
100
AcDbPolyline
 90
       10
 70
     1
 43
0.0
 10
10.60534232172566
 20
23.37912280521036
 10
10.00736252374586
 20
23.37912280521045
 10
10.00736252374547
 20
21.0195268456145
 10
10.6053423217253
 20
21.16902179510934
 10
10.60534232172525
 20
20.86195108803864
 10
9.607362523745408
 20
20.61346623955395
 10
9.607362523745862
 20
23.37912280521052
 10
9.009382725766066
 20
23.37912280521061
 10
9.009382725766112
 20
23.67811270420051
 10
10.60534232172571
 20
23.67811270420025
  0
LWPOLYLINE
  5
D8C
330
70
100
AcDbEntity
  8
scritte
100
AcDbPolyline
 90
       44
 70
     1
 43
0.0
 10
12.75218656813728
 20
23.72729218894777
 10
13.04120131602662
 20
23.65058796319083
 10
13.29056939504833
 20
23.5227471180394
 10
13.50029181667515
 20
23.34376926985634
 10
13.66645396819481
 20
23.1179483402616
 10
13.7851407773974
 20
22.84957777451962
 10
13.85635260118832
 20
22.53865649179953
 10
13.88008979647294
 20
22.18518341127042
 10
13.8559106848862
 20
21.83240478385553
 10
13.78337310833597
 20
21.52154666231112
 10
13.66247670413699
 20
21.25260792534738
 10
13.49322110960406
 20
21.02558745167452
 10
13.28002645708519
 20
20.84528379714833
 10
13.02731241943079
 20
20.71649598771864
 10
12.73507797938827
 20
20.63922360723662
 10
12.403322119705
 20
20.61346623955349
 10
11.96695865288347
 20
20.6462943990785
 10
11.46190797829088
 20
20.74477937086677
 10
11.46190797829095
 20
21.14275916884658
 10
12.00584771131452
 20
20.98366798232305
 10
12.40938272576566
 20
20.93063795672521
 10
12.63905501514197
 20
20.95121860297034
 10
12.8412012004293
 20
21.01296075748666
 10
13.01582198676866
 20
21.11586474394545
 10
13.16291807930107
 20
21.25993088601801
 10
13.27958511009796
 20
21.44149675065805
 10
13.36291840297242
 20
21.65690027472931
 10
13.41291820067791
 20
21.90614233676815
 10
13.42958474596789
 20
22.18922381531089
 10
13.4117818457114
 20
22.45999465889382
 10
13.35837297154651
 20
22.70058774451999
 10
13.26935786338023
 20
22.91100391604668
 10
13.14473626111955
 20
23.09124401733114
 10
12.98930680924456
 20
23.23575206125614
 10
12.80786784397697
 20
23.33897170620727
 10
12.60041864283624
 20
23.40090326429612
 10
12.36695848334183
 20
23.42154704763431
 10
12.15104906298161
 20
23.40525929022319
 10
11.92756468266414
 20
23.35639585615415
 10
11.45786757425087
 20
23.16094098702839
 10
11.45786757425094
 20
23.52457735066476
 10
11.68413057620346
 20
23.62445140907381
 10
11.9204937289868
 20
23.69578975724157
 10
12.42352413990754
 20
23.75286017894743
  0
LWPOLYLINE
  5
D8D
330
70
100
AcDbEntity
  8
1taglio
100
AcDbPolyline
 90
       24
 70
     1
 43
0.0
 10
50.87495661899653
 20
39.43059965384526
 10
50.799993422423
 20
40.00000155117863
 10
50.87495659017753
 20
40.56940345229604
 10
51.09473750626059
 20
41.10000155863335
 10
51.44435846444613
 20
41.55563648608486
 10
51.89999337420857
 20
41.90525746733707
 10
52.43059146942128
 20
42.12503841027164
 10
52.99999336674876
 20
42.20000160684513
 10
53.56939526787097
 20
42.12503843909067
 10
54.0999933742081
 20
41.90525752300835
 10
54.55562830166527
 20
41.55563656482486
 10
54.90524928291069
 20
41.10000165506122
 10
55.1250302258479
 20
40.56940355984424
 10
55.19999342242253
 20
40.00000166251946
 10
55.12503025466771
 20
39.43059976139518
 10
54.90524933858349
 20
38.90000165506301
 10
54.55562838039806
 20
38.44436672760778
 10
54.09999347063688
 20
38.0947457463619
 10
53.56939537542354
 20
37.87496480342742
 10
52.99999347809472
 20
37.80000160685132
 10
52.43059157697349
 20
37.87496477460532
 10
51.89999347063743
 20
38.09474569068937
 10
51.44435854317896
 20
38.44436664886916
 10
51.09473756193386
 20
38.90000155863351
  0
LWPOLYLINE
  5
D8E
330
70
100
AcDbEntity
  8
1taglio
100
AcDbPolyline
 90
       24
 70
     1
 43
0.0
 10
33.19998812078565
 20
17.99999746436105
 10
33.12502493869993
 20
17.43059556512838
 10
32.90524400926205
 20
16.89999746431794
 10
32.55562303960993
 20
16.44436254566879
 10
32.09998812104819
 20
16.09474157588833
 10
31.56939002030355
 20
15.87496064630446
 10
30.9999881210876
 20
15.79999746405757
 10
30.43058622185261
 20
15.87496064614884
 10
29.89998812104713
 20
16.09474157558132
 10
29.44435320238875
 20
16.44436254523887
 10
29.09473223261029
 20
16.89999746379953
 10
28.87495130302853
 20
17.4305955645451
 10
28.79998812078557
 20
17.99999746375895
 10
28.87495130287212
 20
18.56939936299505
 10
29.09473223230892
 20
19.09999746379997
 10
29.44435320196229
 20
19.55563238245797
 10
29.89998812052475
 20
19.90525335223059
 10
30.43058622126966
 20
20.12503428181871
 10
30.9999881204851
 20
20.19999746405467
 10
31.5693900197207
 20
20.12503428197333
 10
32.09998812052582
 20
19.90525335253597
 10
32.55562303918257
 20
19.55563238288897
 10
32.90524400896031
 20
19.09999746431649
 10
33.12502493854478
 20
18.56939936357995
  0
LWPOLYLINE
  5
D8F
330
70
100
AcDbEntity
  8
1taglio
100
AcDbPolyline
 90
       24
 70
     1
 43
0.0
 10
53.51762598043316
 20
16.06815060301953
 10
52.99998788838397
 20
16.00000226961135
 10
52.48234980002275
 20
16.0681506310487
 10
51.99998789563797
 20
16.26795148911995
 10
51.58577434187157
 20
16.58578874552929
 10
51.26793710789094
 20
17.00000231650802
 10
51.06813627594231
 20
17.48236423171286
 10
50.99998794253629
 20
18.00000232376155
 10
51.06813630397358
 20
18.51764041212335
 10
51.26793716204332
 20
19.00000231650828
 10
51.585774418455
 20
19.41421587027369
 10
51.99998798943304
 20
19.73205310425601
 10
52.48234990463696
 20
19.93185393620539
 10
52.9999879966882
 20
20.00000226961295
 10
53.51762608504761
 20
19.93185390817171
 10
53.99998798943346
 20
19.73205305010155
 10
54.41420154320052
 20
19.41421579369373
 10
54.73203877718074
 20
19.00000222271185
 10
54.93183960912933
 20
18.51764030750791
 10
54.99998794253624
 20
18.00000221545813
 10
54.93183958109769
 20
17.4823641270995
 10
54.73203872302828
 20
17.00000222271556
 10
54.41420146661808
 20
16.58578866894572
 10
53.99998789563941
 20
16.26795143496801
  0
LWPOLYLINE
  5
D90
330
70
100
AcDbEntity
  8
1taglio
100
AcDbPolyline
 90
        4
 70
     1
 43
0.0
 10
44.98888477123965
 20
50.00000375072436
 10
44.98888465559207
 20
42.00000245134781
 10
40.9888846555925
 20
42.00000321436863
 10
40.9888847712399
 20
50.0000045137467
  0
LWPOLYLINE
  5
D91
330
70
100
AcDbEntity
  8
1taglio
100
AcDbPolyline
 90
        4
 70
     1
 43
0.0
 10
40.98888453994645
 20
34.00000460892417
 10
44.98888453994612
 20
34.00000384590236
 10
44.98888442429917
 20
26.00000384590452
 10
40.98888442429942
 20
26.00000460892867
  0
LWPOLYLINE
  5
D92
330
70
100
AcDbEntity
  8
1taglio
100
AcDbPolyline
 90
        4
 70
     1
 43
0.0
 10
16.99997790896031
 20
33.99999570497872
 10
20.99997790896053
 20
33.99999494195754
 10
20.99997779331386
 20
25.99999494195889
 10
16.99997779331337
 20
25.9999957049834
  0
LWPOLYLINE
  5
D93
330
70
100
AcDbEntity
  8
1taglio
100
AcDbPolyline
 90
        4
 70
     1
 43
0.0
 10
20.99997814025162
 20
49.99999419709034
 10
20.99997802460395
 20
41.99999419709146
 10
16.99997802460454
 20
41.99999496011289
 10
16.99997814025131
 20
49.99999496011207
  0
LWPOLYLINE
  5
D94
330
70
100
AcDbEntity
  8
1taglio
100
AcDbPolyline
 90
        4
 70
     1
 43
0.0
 10
34.99443091149482
 20
26.00000170990811
 10
26.99443290378549
 20
25.99999784097761
 10
26.99443096931986
 20
29.99999784097313
 10
34.99442897702979
 20
30.00000170990471
  0
LWPOLYLINE
  5
D96
330
70
100
AcDbEntity
  8
scritte
100
AcDbPolyline
 90
       41
 70
     1
 43
0.0
 10
144.8869149108507
 20
21.97038751459956
 10
145.1215110554017
 20
21.93452914452179
 10
145.4603998826389
 20
21.99462984636438
 10
145.8548443887351
 20
22.17493318492571
 10
145.854844388735
 20
21.82341803341056
 10
145.4583797422704
 20
21.682508665069
 10
145.064945398836
 20
21.63553924553191
 10
144.8651973692235
 20
21.64968056719584
 10
144.6861572734414
 20
21.69210465549093
 10
144.5278243716698
 20
21.7628116953722
 10
144.3901979240885
 20
21.86180187179464
 10
144.2788338715761
 20
21.98415044912065
 10
144.1992884632694
 20
22.12493293831929
 10
144.151561421736
 20
22.28414989425561
 10
144.1356524695432
 20
22.46180187179468
 10
144.1677230533106
 20
22.71533731780754
 10
144.2639352978261
 20
22.93856954856233
 10
144.447520786502
 20
23.16887245556198
 10
144.7417130756039
 20
23.44362005361276
 10
144.8952484291393
 20
23.57493318492587
 10
145.1093904443846
 20
23.77569115949267
 10
145.2730267001306
 20
23.97190292813427
 10
145.3861576587648
 20
24.16356921911103
 10
145.4487837826748
 20
24.35069076068336
 10
144.1497938836849
 20
24.35069076068357
 10
144.149793883685
 20
24.70018571017853
 10
145.9295918634829
 20
24.70018571017824
 10
145.9295918634829
 20
24.35069076068328
 10
145.8205009428323
 20
24.14311465631687
 10
145.6669660015924
 20
23.9264484289184
 10
145.2265615604524
 20
23.46584227583491
 10
144.9982787321696
 20
23.26180187179453
 10
144.8056014096277
 20
23.06319039077342
 10
144.6679752086531
 20
22.86533722532995
 10
144.5853997593357
 20
22.66824163564404
 10
144.5578746917654
 20
22.47190288189562
 10
144.5955007077849
 20
22.24816538485489
 10
144.7083797422704
 20
22.0779634879562
 10
144.8869149108507
 20
21.97038751459956
 10
144.7083797422704
 20
22.0779634879562
 10
144.5955007077849
 20
22.24816538485489
  0
LWPOLYLINE
  5
D97
330
70
100
AcDbEntity
  8
scritte
100
AcDbPolyline
 90
       47
 70
     1
 43
0.0
 10
148.711915631164
 20
24.14002134623962
 10
148.8306024403668
 20
23.87165078049765
 10
148.9018142641577
 20
23.56072949777755
 10
148.9255514594423
 20
23.20725641724844
 10
148.9013723478556
 20
22.85447778983355
 10
148.8288347713053
 20
22.54361966828914
 10
148.7079383671064
 20
22.2746809313254
 10
148.5386827725734
 20
22.04766045765254
 10
148.3254881200546
 20
21.86735680312636
 10
148.0727740824001
 20
21.73856899369665
 10
147.7805396423576
 20
21.66129661321464
 10
147.4487837826744
 20
21.63553924553151
 10
147.0124203158528
 20
21.66836740505652
 10
146.5073696412602
 20
21.7668523768448
 10
146.5073696412603
 20
22.1648321748246
 10
147.0513093742839
 20
22.00574098830107
 10
147.454844388735
 20
21.95271096270322
 10
147.6845166781114
 20
21.97329160894835
 10
147.8866628633987
 20
22.03503376346467
 10
148.0612836497381
 20
22.13793774992347
 10
148.2083797422704
 20
22.28200389199603
 10
148.3250467730674
 20
22.46356975663607
 10
148.4083800659417
 20
22.67897328070732
 10
148.4583798636473
 20
22.92821534274616
 10
148.4750464089373
 20
23.21129682128891
 10
148.4572435086808
 20
23.48206766487184
 10
148.4038346345158
 20
23.72266075049802
 10
148.3148195263496
 20
23.9330769220247
 10
148.190197924089
 20
24.11331702330917
 10
148.0347684722139
 20
24.25782506723416
 10
147.8533295069464
 20
24.36104471218529
 10
147.6458803058056
 20
24.42297627027415
 10
147.4124201463111
 20
24.44362005361233
 10
147.196510725951
 20
24.42733229620121
 10
146.9730263456335
 20
24.37846886213217
 10
146.5033292372203
 20
24.18301399300642
 10
146.5033292372203
 20
24.54665035664279
 10
146.7295922391729
 20
24.64652441505185
 10
146.9659553919562
 20
24.7178627632196
 10
147.4689858028769
 20
24.77493318492547
 10
147.7976482311066
 20
24.74936519492581
 10
148.086662978996
 20
24.67266096916886
 10
148.3360310580177
 20
24.54482012401742
 10
148.5457534796445
 20
24.36584227583436
 10
148.711915631164
 20
24.14002134623962
 10
148.5457534796445
 20
24.36584227583436
 10
148.3360310580177
 20
24.54482012401742
  0
LWPOLYLINE
  5
D99
330
70
100
AcDbEntity
  8
1taglio
100
AcDbPolyline
 90
       24
 70
     1
 43
0.0
 10
149.4571632984563
 20
15.25562318527915
 10
149.8067843339589
 20
14.79998831715899
 10
150.026565340087
 20
14.26939024812269
 10
150.1015286044645
 20
13.69998835971447
 10
150.026565504516
 20
13.13058644966906
 10
149.806784651623
 20
12.59998831715867
 10
149.4571637476985
 20
12.14435334805683
 10
149.0015288795634
 20
11.79473231256004
 10
148.4709308105264
 20
11.574951306441
 10
147.9015289221264
 20
11.49998804204789
 10
147.3321270120731
 20
11.57495114200473
 10
146.8015288795633
 20
11.79473199489631
 10
146.3458939104767
 20
12.14435289881789
 10
145.99627287497
 20
12.59998776694978
 10
145.776491868844
 20
13.13058583599827
 10
145.7015286044651
 20
13.6999877243944
 10
145.7764917044134
 20
14.26938963444603
 10
145.996272557304
 20
14.79998776694955
 10
146.3458934612352
 20
15.25562273604525
 10
146.8015283293643
 20
15.6052437715499
 10
147.3321263984032
 20
15.82502477767391
 10
147.9015282868055
 20
15.89998804204689
 10
148.4709301968584
 20
15.82502494210792
 10
149.0015283293652
 20
15.60524408921354
  0
LWPOLYLINE
  5
D9A
330
70
100
AcDbEntity
  8
1taglio
100
AcDbPolyline
 90
       24
 70
     1
 43
0.0
 10
147.8522474556217
 20
33.48653279108126
 10
147.2810425763045
 20
33.57470468367097
 10
146.7521215963124
 20
33.80771089329793
 10
146.3015296063553
 20
34.16967243184125
 10
145.9599737059028
 20
34.63592221861429
 10
145.7507303651271
 20
35.17468610116174
 10
145.6880591719094
 20
35.74924821124365
 10
145.776231064499
 20
36.32045309055774
 10
146.009237274128
 20
36.84937407054818
 10
146.3711988126678
 20
37.29996606050658
 10
146.8374485994424
 20
37.6415219609573
 10
147.3762124819921
 20
37.85076530173574
 10
147.9507745920746
 20
37.91343649495189
 10
148.5219794713901
 20
37.82526460235983
 10
149.0509004513805
 20
37.59225839273171
 10
149.5014924413396
 20
37.23029685419009
 10
149.8430483417928
 20
36.76404706741771
 10
150.0522916825675
 20
36.22528318486753
 10
150.1149628757862
 20
35.65072107478923
 10
150.0267909831956
 20
35.0795161954726
 10
149.7937847735671
 20
34.55059521548063
 10
149.4318232350251
 20
34.10000322552413
 10
148.9655734482516
 20
33.7584473250717
 10
148.4268095657006
 20
33.5492039842956
  0
LWPOLYLINE
  5
D9B
330
70
100
AcDbEntity
  8
1taglio
100
AcDbPolyline
 90
       24
 70
     1
 43
0.0
 10
125.3321288930211
 20
33.57494595748315
 10
124.8015307605097
 20
33.79472681037064
 10
124.3458957914197
 20
34.1443477142993
 10
123.9962747559077
 20
34.59998258242944
 10
123.7764937497883
 20
35.13058065147122
 10
123.7015304854097
 20
35.69998253986959
 10
123.7764935853562
 20
36.26938444991682
 10
123.9962744382526
 20
36.7999825824239
 10
124.3458953421769
 20
37.25561755151725
 10
124.8015302103064
 20
37.60523858702434
 10
125.3321282793477
 20
37.82501959315101
 10
125.9015301677511
 20
37.89998285752751
 10
126.4709320777968
 20
37.82501975758485
 10
127.0015302103042
 20
37.60523890469142
 10
127.4571651793995
 20
37.25561800075833
 10
127.8067862149067
 20
36.79998313263342
 10
128.0265672210292
 20
36.26938506359292
 10
128.1015304854108
 20
35.69998317519445
 10
128.0265673854624
 20
35.13058126514732
 10
127.8067865325623
 20
34.59998313263644
 10
127.4571656286413
 20
34.14434816353913
 10
127.0015307605131
 20
33.79472712803862
 10
126.4709326914696
 20
33.57494612191889
 10
125.9015308030718
 20
33.49998285753346
  0
LWPOLYLINE
  5
D9D
330
70
100
AcDbEntity
  8
scritte
100
AcDbPolyline
 90
       37
 70
     1
 43
0.0
 10
77.16961368194038
 20
90.9880123994167
 10
76.87971466121556
 20
91.07740648523344
 10
76.60395711628385
 20
91.10720431860872
 10
76.3405731237708
 20
91.06377019095528
 10
76.14032075264744
 20
90.93346694487141
 10
76.01380535452557
 20
90.72690145784788
 10
75.97163388396051
 20
90.45467906608356
 10
75.98612238883266
 20
90.29700797431029
 10
76.02958797858711
 20
90.1603599479306
 10
76.10203076593092
 20
90.04473490891662
 10
76.20345086357096
 20
89.9501327792405
 10
76.33384838421425
 20
89.87655348087429
 10
76.49322344056772
 20
89.82399693579006
 10
76.89890661123313
 20
89.78195179335612
 10
77.11910863143512
 20
89.79609320749752
 10
77.11910863143491
 20
88.34154775295207
 10
75.6059773183036
 20
88.3415477529523
 10
75.60597731830362
 20
88.68902250042706
 10
76.76961368194
 20
88.68902250042689
 10
76.76961368194013
 20
89.47690128830567
 10
76.49751705188224
 20
89.4934415767492
 10
76.25698711105552
 20
89.54306259620899
 10
76.04802298092362
 20
89.62576457787873
 10
75.87062378295026
 20
89.74154775295227
 10
75.72920915602923
 20
89.88662364346447
 10
75.62819910896438
 20
90.05720405658925
 10
75.5675933180844
 20
90.25328965122893
 10
75.54739145971807
 20
90.47488108628565
 10
75.56576253312305
 20
90.68125785898322
 10
75.62087593829294
 20
90.86402275088696
 10
75.71273195266027
 20
91.02317640644967
 10
75.84133085365758
 20
91.15871947012399
 10
76.00250526947717
 20
91.26699002008628
 10
76.19208815198266
 20
91.34432584001187
 10
76.41008026411348
 20
91.39072716186216
 10
76.65648236880914
 20
91.40619421759859
 10
77.16961368194045
 20
91.34356795497229
  0
LWPOLYLINE
  5
D9E
330
70
100
AcDbEntity
  8
scritte
100
AcDbPolyline
 90
       44
 70
     1
 43
0.0
 10
79.19726600916009
 20
91.38062622759859
 10
79.48628075704944
 20
91.30392200184164
 10
79.73564883607114
 20
91.17608115669019
 10
79.94537125769795
 20
90.99710330850715
 10
80.1115334092176
 20
90.77128237891242
 10
80.2302202184202
 20
90.50291181317041
 10
80.30143204221111
 20
90.19199053045037
 10
80.32516923749573
 20
89.83851744992122
 10
80.300990125909
 20
89.48573882250634
 10
80.22845254935878
 20
89.17488070096194
 10
80.10755614515979
 20
88.9059419639982
 10
79.93830055062686
 20
88.67892149032533
 10
79.72510589810799
 20
88.49861783579916
 10
79.4723918604536
 20
88.36983002636944
 10
79.18015742041106
 20
88.29255764588742
 10
78.84840156072782
 20
88.26680027820428
 10
78.41203809390631
 20
88.29962843772932
 10
77.90698741931369
 20
88.3981134095176
 10
77.90698741931375
 20
88.79609320749739
 10
78.45092715233731
 20
88.63700202097387
 10
78.85446216678848
 20
88.58397199537604
 10
79.08413445616478
 20
88.60455264162116
 10
79.28628064145211
 20
88.66629479613749
 10
79.46090142779147
 20
88.76919878259625
 10
79.60799752032388
 20
88.91326492466879
 10
79.72466455112075
 20
89.09483078930888
 10
79.80799784399522
 20
89.31023431338012
 10
79.85799764170071
 20
89.55947637541893
 10
79.87466418699068
 20
89.84255785396172
 10
79.8568612867342
 20
90.11332869754463
 10
79.80345241256933
 20
90.3539217831708
 10
79.71443730440303
 20
90.56433795469748
 10
79.58981570214236
 20
90.74457805598196
 10
79.43438625026736
 20
90.88908609990696
 10
79.25294728499976
 20
90.99230574485806
 10
79.04549808385906
 20
91.05423730294694
 10
78.81203792436462
 20
91.07488108628514
 10
78.5961285040044
 20
91.058593328874
 10
78.37264412368695
 20
91.00972989480494
 10
77.90294701527368
 20
90.81427502567921
 10
77.90294701527374
 20
91.17791138931558
 10
78.12921001722627
 20
91.27778544772466
 10
78.36557317000959
 20
91.34912379589236
 10
78.86860358093034
 20
91.4061942175982
  0
LWPOLYLINE
  5
D9F
330
70
100
AcDbEntity
  8
1taglio
100
AcDbPolyline
 90
       24
 70
     1
 43
0.0
 10
60.00277141857208
 20
70.09132012925554
 10
60.35239240152328
 20
70.54695503772038
 10
60.80802733028836
 20
70.89657599419435
 10
61.33862543744799
 20
71.11635690829075
 10
61.9080273388504
 20
71.19132007390921
 10
62.47742923589878
 20
71.11635687521047
 10
63.00802733028909
 20
70.89657593028312
 10
63.46366223874428
 20
70.54695494733727
 10
63.81328319522428
 20
70.09132001856873
 10
64.03306410932022
 20
69.56072191141264
 10
64.10802727494382
 20
68.99132001000785
 10
64.0330640762392
 20
68.42191811296192
 10
63.81328313131647
 20
67.89132001857115
 10
63.46366214836489
 20
67.43568511011876
 10
63.00802721959786
 20
67.08606415363438
 10
62.47742911243889
 20
66.86628323954325
 10
61.90802721103615
 20
66.79132007391388
 10
61.33862531398833
 20
66.86628327262345
 10
60.80802721959781
 20
67.08606421754528
 10
60.35239231114389
 20
67.43568520050125
 10
60.00277135466514
 20
67.89132012925543
 10
59.78299044056778
 20
68.42191823642109
 10
59.70802727494437
 20
68.99132013782214
 10
59.78299047364827
 20
69.56072203487207
  0
LWPOLYLINE
  5
DA0
330
70
100
AcDbEntity
  8
1taglio
100
AcDbPolyline
 90
       24
 70
     1
 43
0.0
 10
40.99997483248767
 20
89.09472089426481
 10
40.46937671979818
 20
88.87493999352621
 10
39.89997481651214
 20
88.79997684223301
 10
39.33057292134885
 20
88.87494005527186
 10
38.79997483249039
 20
89.09472101354678
 10
38.3443399328371
 20
89.44434200796587
 10
37.99471898782501
 20
89.89997694552746
 10
37.77493808707958
 20
90.43057505821559
 10
37.69997493578754
 20
90.99997696150076
 10
37.77493814882771
 20
91.56937885666001
 10
37.99471910710328
 20
92.09997694552315
 10
38.34434010152304
 20
92.55561184517565
 10
38.79997503908848
 20
92.90523279019163
 10
39.33057315177725
 20
93.12501369093089
 10
39.89997505506976
 20
93.19997684221927
 10
40.46937695022727
 20
93.12501362918849
 10
40.99997503908647
 20
92.90523267091149
 10
41.45560993874084
 20
92.55561167648536
 10
41.80523088375392
 20
92.09997673892358
 10
42.0250117844962
 20
91.56937862623156
 10
42.09997493578716
 20
90.99997672295236
 10
42.02501172275357
 20
90.43057482778221
 10
41.80523076447503
 20
89.89997673892508
 10
41.45560977005663
 20
89.44434183927461
  0
LWPOLYLINE
  5
DA2
330
70
100
AcDbEntity
  8
1taglio
100
AcDbPolyline
 90
       24
 70
     1
 43
0.0
 10
14.19345098300428
 20
89.44017025877526
 10
13.67373853687102
 20
89.19575897319885
 10
13.10847656530033
 20
89.09418729686054
 10
12.53618673751462
 20
89.14237717164898
 10
11.99586965952371
 20
89.33704453723446
 10
11.52434704727762
 20
89.66492313435512
 10
11.15375238757164
 20
90.1036685784612
 10
10.90934109402911
 20
90.6233810925995
 10
10.80776939239558
 20
91.1886431277972
 10
10.85595922628194
 20
91.760933010494
 10
11.05062653814782
 20
92.30125013093843
 10
11.3785050723911
 20
92.77277277028879
 10
11.81725044874783
 20
93.14336743990013
 10
12.33696289488101
 20
93.38777872547709
 10
12.90222486645251
 20
93.48935040181499
 10
13.47451469423742
 20
93.4411605270262
 10
14.01483177222814
 20
93.246493161441
 10
14.48635438447494
 20
92.9186145643206
 10
14.85694904418047
 20
92.47986912021412
 10
15.10136033772346
 20
91.96015660607569
 10
15.20293203935699
 20
91.39489457087835
 10
15.15474220546999
 20
90.82260468818128
 10
14.96007489360465
 20
90.28228756773692
 10
14.63219635936147
 20
89.81076492838694
  0
LWPOLYLINE
  5
DA5
330
70
100
AcDbEntity
  8
1taglio
100
AcDbPolyline
 90
       24
 70
     1
 43
0.0
 10
181.393329654835
 20
29.84005183698673
 10
180.8736172087017
 20
29.59564055141033
 10
180.308355237131
 20
29.49406887507202
 10
179.7360654093453
 20
29.54225874986046
 10
179.1957483313541
 20
29.73692611544593
 10
178.7242257191082
 20
30.0648047125666
 10
178.3536310594023
 20
30.50355015667263
 10
178.1092197658596
 20
31.023262670811
 10
178.0076480642262
 20
31.58852470600868
 10
178.0558378981126
 20
32.16081458870549
 10
178.2505052099785
 20
32.7011317091499
 10
178.5783837442217
 20
33.17265434850027
 10
179.0171291205785
 20
33.54324901811159
 10
179.5368415667117
 20
33.78766030368854
 10
180.1021035382832
 20
33.88923198002647
 10
180.6743933660681
 20
33.84104210523768
 10
181.2147104440588
 20
33.64637473965248
 10
181.6862330563056
 20
33.31849614253208
 10
182.0568277160111
 20
32.8797506984256
 10
182.3012390095541
 20
32.36003818428715
 10
182.4028107111877
 20
31.79477614908982
 10
182.3546208773006
 20
31.22248626639274
 10
182.1599535654353
 20
30.68216914594842
 10
181.8320750311921
 20
30.2106465065984
  0
LWPOLYLINE
  5
DB0
330
70
100
AcDbEntity
  8
scritte
100
AcDbPolyline
 90
       44
 70
     1
 43
0.0
 10
179.4491392215883
 20
23.05299935804221
 10
179.6512854068756
 20
23.11474151255853
 10
179.825906193215
 20
23.21764549901733
 10
179.9730022857474
 20
23.36171164108989
 10
180.0896693165443
 20
23.54327750572992
 10
180.1730026094187
 20
23.75868102980119
 10
180.2230024071241
 20
24.00792309184004
 10
180.2396689524142
 20
24.29100457038277
 10
180.2218660521577
 20
24.56177541396571
 10
180.1684571779928
 20
24.80236849959188
 10
180.0794420698265
 20
25.01278467111856
 10
179.9548204675659
 20
25.19302477240304
 10
179.7993910156908
 20
25.33753281632803
 10
179.6179520504233
 20
25.44075246127915
 10
179.4105028492826
 20
25.50268401936801
 10
179.1770426897881
 20
25.52332780270619
 10
178.9611332694279
 20
25.50704004529508
 10
178.7376488891104
 20
25.45817661122603
 10
178.2679517806971
 20
25.26272174210028
 10
178.2679517806971
 20
25.62635810573664
 10
178.4942147826497
 20
25.72623216414569
 10
178.7305779354331
 20
25.79757051231345
 10
179.2336083463538
 20
25.85464093401931
 10
179.5622707745835
 20
25.82907294401966
 10
179.8512855224729
 20
25.7523687182627
 10
180.1006536014947
 20
25.62452787311129
 10
180.3103760231214
 20
25.44555002492823
 10
180.476538174641
 20
25.21972909533348
 10
180.5952249838437
 20
24.95135852959152
 10
180.6664368076346
 20
24.64043724687142
 10
180.6901740029192
 20
24.28696416634229
 10
180.6659948913326
 20
23.93418553892741
 10
180.5934573147823
 20
23.62332741738299
 10
180.4725609105833
 20
23.35438868041925
 10
180.3033053160504
 20
23.12736820674639
 10
180.0901106635315
 20
22.94706455222021
 10
179.837396625877
 20
22.81827674279051
 10
179.5451621858346
 20
22.74100436230849
 10
179.2134063261513
 20
22.71524699462537
 10
178.7770428593296
 20
22.74807515415037
 10
178.2719921847372
 20
22.84656012593865
 10
178.2719921847372
 20
23.24453992391845
 10
178.8159319177608
 20
23.08544873739492
 10
179.2194669322119
 20
23.03241871179708
  0
LWPOLYLINE
  5
DB2
330
70
100
AcDbEntity
  8
scritte
100
AcDbPolyline
 90
       55
 70
     1
 43
0.0
 10
176.9426992554446
 20
25.55565103502979
 10
176.6843657371564
 20
25.51398457643756
 10
176.4790628918083
 20
25.3889843683632
 10
176.3449717977624
 20
25.19782287550496
 10
176.3002750130203
 20
24.9576712370501
 10
176.3140690801912
 20
24.80994336249653
 10
176.3554513529886
 20
24.68191277697633
 10
176.4244219383396
 20
24.57357940679648
 10
176.5209809431714
 20
24.48494317826396
 10
176.7968646389857
 20
24.36676185136886
 10
177.1831032958486
 20
24.32736820674691
 10
177.3406790534243
 20
24.32736820674689
 10
177.3406790534242
 20
24.05868133806003
 10
177.2012851140303
 20
24.05666113603985
 10
176.8389101975683
 20
24.02017150292285
 10
176.5800719447397
 20
23.91070224907459
 10
176.4894788215445
 20
23.82860009820571
 10
176.4247695694857
 20
23.7282528427494
 10
176.3730022857474
 20
23.47282275220159
 10
176.4070929520848
 20
23.27219078016801
 10
176.5093652747684
 20
23.12888277257128
 10
176.6798197393051
 20
23.04289829014321
 10
176.9184568312018
 20
23.01423689361564
 10
177.2325981528658
 20
23.05615586975393
 10
177.5770426897876
 20
23.1819136612923
 10
177.5770426897876
 20
22.83443891381756
 10
177.2285578721287
 20
22.74504485112033
 10
176.8901740029189
 20
22.71524699462574
 10
176.4889100588519
 20
22.75855474020292
 10
176.3312711150545
 20
22.81268954788595
 10
176.2022940436584
 20
22.88847842390893
 10
176.1019787348466
 20
22.98592145207959
 10
176.0303250788024
 20
23.10501871620569
 10
175.9873329657083
 20
23.24577030009499
 10
175.9730022857474
 20
23.4081762875552
 10
176.01201715983
 20
23.65287388147534
 10
176.1290621519879
 20
23.85969180898035
 10
176.3241378170862
 20
24.02863076365156
 10
176.5972447099899
 20
24.15969143907024
 10
176.2808294588456
 20
24.27206512442543
 10
176.0548194811389
 20
24.44150905061054
 10
175.9192140370496
 20
24.66802396900534
 10
175.8740123867577
 20
24.95161063098957
 10
175.8914364904657
 20
25.15135857534939
 10
175.9437089865447
 20
25.32837852739131
 10
176.0308301524271
 20
25.48267109688893
 10
176.1528002655457
 20
25.61423689361578
 10
176.3051994403997
 20
25.71941399934568
 10
176.483608099747
 20
25.79454022441045
 10
176.688026983408
 20
25.83961579417886
 10
176.9184568312023
 20
25.85464093401969
 10
177.2315879593785
 20
25.83039863115395
 10
177.6174467301921
 20
25.75767123704988
 10
177.6174467301921
 20
25.38595406533271
 10
177.2346182624088
 20
25.51322700067989
  0
LWPOLYLINE
  5
DB3
330
70
100
AcDbEntity
  8
scritte
100
AcDbPolyline
 90
       47
 70
     1
 43
0.0
 10
178.5538622728855
 20
83.85558546485734
 10
178.5744429158105
 20
83.62591317518358
 10
178.5214128843793
 20
83.22237816149913
 10
178.3623216899928
 20
82.67843843077544
 10
178.7603014879726
 20
82.67843842502236
 10
178.8587864670617
 20
83.18348909819116
 10
178.8916146328946
 20
83.61985256453801
 10
178.8658572700073
 20
83.95160842459354
 10
178.7885848937498
 20
84.24384286575302
 10
178.6597970879731
 20
84.49655690526904
 10
178.4794934365289
 20
84.70975156039425
 10
178.2524729653028
 20
84.87900715820885
 10
177.9835342300866
 20
84.99990356629547
 10
177.6726761095909
 20
85.07244114733932
 10
177.3198974825255
 20
85.09662026402567
 10
176.9664244016533
 20
85.07288307385072
 10
176.6555031179038
 20
85.00167125455439
 10
176.3871325504461
 20
84.88298444923126
 10
176.1613116184494
 20
84.716822300976
 10
175.9823337672346
 20
84.50709988193647
 10
175.8544929184784
 20
84.25773180476284
 10
175.7777886885436
 20
83.96871705798238
 10
175.7522206937928
 20
83.6400546301223
 10
175.8092911082271
 20
83.13702421837671
 10
175.880629452978
 20
82.90066106456217
 10
175.9805035081163
 20
82.67439806116597
 10
176.3441398717526
 20
82.67439805590935
 10
176.1486850094167
 20
83.14409516714791
 10
176.0998215785783
 20
83.36757954817164
 10
176.0835338242881
 20
83.58348896876728
 10
176.1041776110013
 20
83.81694912796318
 10
176.166109172089
 20
84.02439832820865
 10
176.2693288196629
 20
84.2058372919841
 10
176.4138368658347
 20
84.36126674177009
 10
176.5940769689206
 20
84.48588834142526
 10
176.8044931417342
 20
84.57490344654983
 10
177.0450862281324
 20
84.62831231723679
 10
177.3158570719725
 20
84.64611521357914
 10
177.5989385502745
 20
84.62944866419704
 10
177.8481806115905
 20
84.57944886288865
 10
178.0635841344571
 20
84.49611556690042
 10
178.2451499974107
 20
84.37944853347891
 10
178.3892161373568
 20
84.232352438864
 10
178.4921201212914
 20
84.05773165103715
 10
178.5538622728855
 20
83.85558546485734
 10
178.4921201212914
 20
84.05773165103715
 10
178.3892161373568
 20
84.232352438864
  0
LWPOLYLINE
  5
DB4
330
70
100
AcDbEntity
  8
scritte
100
AcDbPolyline
 90
       26
 70
     1
 43
0.0
 10
177.1299984373438
 20
81.27237784252931
 10
176.431008543888
 20
81.65520613546192
 10
176.1527258287324
 20
81.75091333349509
 10
175.8269681422569
 20
81.8218728108604
 10
175.8269681356277
 20
81.36328695227467
 10
176.3359332888112
 20
81.23134278946499
 10
176.9416136390296
 20
80.97288409796531
 10
177.6440116369367
 20
80.58790965244856
 10
178.4431297331864
 20
80.07641822758774
 10
178.8168671069238
 20
80.07641822218506
 10
178.8168671346674
 20
81.99561014137653
 10
178.8168671069238
 20
80.07641822218506
 10
178.4431297331864
 20
80.07641822758774
 10
177.6440116369367
 20
80.58790965244856
 10
176.9416136390296
 20
80.97288409796531
 10
176.3359332888112
 20
81.23134278946499
 10
175.8269681356277
 20
81.36328695227467
 10
175.8269681422569
 20
81.8218728108604
 10
176.1527258287324
 20
81.75091333349509
 10
176.431008543888
 20
81.65520613546192
 10
177.1299984373438
 20
81.27237784252931
 10
178.4431297386768
 20
80.45621620738563
 10
178.44312976093
 20
81.99561014677916
 10
178.8168671346674
 20
81.99561014137653
 10
178.44312976093
 20
81.99561014677916
 10
178.4431297386768
 20
80.45621620738563
  0
LWPOLYLINE
  5
DB5
330
70
100
AcDbEntity
  8
2taglio
100
AcDbPolyline
 90
        4
 70
     1
 43
0.0
 10
185.214284325472
 20
101.9039436196087
 10
185.21428323693
 20
97.90394361961084
 10
181.2142832369289
 20
97.90394470815213
 10
181.2142843254727
 20
101.9039447081506
  0
LWPOLYLINE
  5
DB6
330
70
100
AcDbEntity
  8
1taglio
100
AcDbPolyline
 90
       24
 70
     1
 43
0.0
 10
183.1195429609809
 20
89.00392276367542
 10
183.3393236645864
 20
88.47332456932834
 10
183.4142866043316
 20
87.90392263818892
 10
183.3393231797491
 20
87.33452077088024
 10
183.1195420243327
 20
86.80392276367511
 10
182.7699208606366
 20
86.34828799391916
 10
182.314285793167
 20
85.99866721819052
 10
181.7836875988194
 20
85.77888651458113
 10
181.2142856676876
 20
85.7039235748417
 10
180.6448838003734
 20
85.77888699942546
 10
180.1142857931724
 20
85.99866815484043
 10
179.6586510234108
 20
86.34828931854281
 10
179.3090302476801
 20
86.80392438600151
 10
179.089249544076
 20
87.33452258034729
 10
179.0142866043346
 20
87.90392451148983
 10
179.0892500289174
 20
88.4733263787964
 10
179.3090311843305
 20
89.00392438600036
 10
179.6586523480325
 20
89.45955915576162
 10
180.1142874154937
 20
89.8091799314896
 10
180.6448856098401
 20
90.02896063509522
 10
181.2142875409823
 20
90.10392357483771
 10
181.7836894082992
 20
90.02896015025148
 10
182.3142874154966
 20
89.80917899483989
 10
182.7699221852569
 20
89.45955783113779
  0
LWPOLYLINE
  5
DB7
330
70
100
AcDbEntity
  8
1taglio
100
AcDbPolyline
 90
        4
 70
     1
 43
0.0
 10
185.214283978532
 20
77.90394361961459
 10
185.2142828899864
 20
73.9039436196166
 10
181.2142828899857
 20
73.90394470815762
 10
181.2142839785304
 20
77.90394470815662
  0
LWPOLYLINE
  5
DB8
330
70
100
AcDbEntity
  8
1taglio
100
AcDbPolyline
 90
       24
 70
     1
 43
0.0
 10
183.1461533904508
 20
66.42157380213361
 10
183.21430176475
 20
65.90393571546606
 10
183.1461534442064
 20
65.38629762172279
 10
182.9463526242365
 20
64.90393570155335
 10
182.6285154005411
 20
64.48972212268024
 10
182.2143018546716
 20
64.17188485598003
 10
181.7319399552468
 20
63.97208398592954
 10
181.2143018685796
 20
63.90393561163378
 10
180.6966637748373
 20
63.97208393218203
 10
180.2143018546693
 20
64.1718847521483
 10
179.8000882758017
 20
64.48972197583771
 10
179.4822510090909
 20
64.90393552171223
 10
179.2824501390422
 20
65.38629742113579
 10
179.214301764751
 20
65.90393550780085
 10
179.2824500852964
 20
66.42157360154593
 10
179.4822509052624
 20
66.90393552171021
 10
179.8000881289583
 20
67.31814910058571
 10
180.2143016748269
 20
67.63598636728504
 10
180.696663574252
 20
67.8357872373367
 10
181.2143016609186
 20
67.90393561162956
 10
181.7319397546636
 20
67.83578729108457
 10
182.2143016748296
 20
67.63598647111732
 10
182.6285152537004
 20
67.318149247425
 10
182.9463525203996
 20
66.90393570155319
  0
LWPOLYLINE
  5
DB9
330
70
100
AcDbEntity
  8
1taglio
100
AcDbPolyline
 90
        4
 70
     1
 43
0.0
 10
173.2142857703758
 20
61.90395012056448
 10
169.2142808312904
 20
61.90395022597753
 10
169.2142809367083
 20
65.90395022597622
 10
173.2142809367089
 20
65.90395012056356
  0
LWPOLYLINE
  5
DBA
330
70
100
AcDbEntity
  8
1taglio
100
AcDbPolyline
 90
       24
 70
     1
 43
0.0
 10
161.1195422172107
 20
67.00393282989096
 10
161.3393232023991
 20
66.47333475218305
 10
161.4142864443307
 20
65.90393286082707
 10
161.3393233219317
 20
65.33453095373329
 10
161.1195424481134
 20
64.80393282989209
 10
160.7699215262098
 20
64.34829787458823
 10
160.3142866442994
 20
63.99867685704986
 10
159.7836885665878
 20
63.77889587184725
 10
159.2142866752344
 20
63.70393262992051
 10
158.6448847681445
 20
63.77889575232374
 10
158.1142866443081
 20
63.99867662614688
 10
157.6586516889891
 20
64.34829754804027
 10
157.3090306714585
 20
64.8039324299524
 10
157.0892496862546
 20
65.33453050766232
 10
157.0142864443302
 20
65.90393239901833
 10
157.089249566729
 20
66.47333430610962
 10
157.3090304405509
 20
67.00393242995244
 10
157.6586513624429
 20
67.45956738525684
 10
158.1142862443621
 20
67.80918840279449
 10
158.6448843220667
 20
68.02896938799547
 10
159.2142862134251
 20
68.10393262992178
 10
159.7836881205212
 20
68.02896950752006
 10
160.314286244368
 20
67.8091886336981
 10
160.7699211996627
 20
67.45956771180605
  0
LWPOLYLINE
  5
DBC
330
70
100
AcDbEntity
  8
scritte
100
AcDbPolyline
 90
       42
 70
     0
 43
0.0
 10
93.37350245581971
 20
9.862631252252812
 10
93.1472394538672
 20
9.762757193843752
 10
93.14723945386713
 20
9.399120830207387
 10
93.61693656228039
 20
9.594575699333141
 10
93.84042094259786
 20
9.643439133402186
 10
94.05633036295807
 20
9.659726890813301
 10
94.28979052245249
 20
9.639083107475117
 10
94.49723972359324
 20
9.577151549386259
 10
94.67867868886079
 20
9.473931904435133
 10
94.83410814073579
 20
9.329423860510139
 10
94.95872974299649
 20
9.149183759225667
 10
95.04774485116277
 20
8.938767587698988
 10
95.10115372532764
 20
8.698174502072815
 10
95.11895662558412
 20
8.427403658489891
 10
95.10229008029416
 20
8.144322179947142
 10
95.05229028258868
 20
7.895080117908306
 10
94.96895698971419
 20
7.679676593837043
 10
94.85228995891731
 20
7.498110729197007
 10
94.70519386638493
 20
7.35404458712445
 10
94.53057308004554
 20
7.251140600665651
 10
94.32842689475824
 20
7.18939844614933
 10
94.09875460538193
 20
7.168817799904197
 10
93.69521959093081
 20
7.221847825502043
 10
93.1512798579072
 20
7.380939012025566
 10
93.15127985790715
 20
6.982959214045772
 10
93.6563305324997
 20
6.884474242257494
 10
94.09269399932126
 20
6.851646082732486
 10
94.42444985900451
 20
6.877403450415608
 10
94.71668429904704
 20
6.954675830897627
 10
94.96939833670143
 20
7.083463640327329
 10
95.1825929892203
 20
7.263767294853518
 10
95.35184858375323
 20
7.490787768526377
 10
95.4727449879522
 20
7.759726505490109
 10
95.54528256450243
 20
8.07058462703452
 10
95.5694616760892
 20
8.423363254449411
 10
95.54572448080454
 20
8.776836334978526
 10
95.47451265701365
 20
9.087757617698619
 10
95.35582584781108
 20
9.356128183440592
 10
95.1896636962914
 20
9.581949113035335
 10
94.97994127466455
 20
9.760926961218396
 10
94.73057319564288
 20
9.888767806369816
 10
94.44155844775357
 20
9.965472032126767
  0
LWPOLYLINE
  5
DBD
330
70
100
AcDbEntity
  8
scritte
100
AcDbPolyline
 90
       53
 70
     0
 43
0.0
 10
10.028679200298
 20
82.34516327290888
 10
9.690295331088325
 20
82.31536541641428
 10
9.289031387021195
 20
82.35867316199145
 10
9.131392443223797
 20
82.41280796967449
 10
9.002415371827778
 20
82.48859684569747
 10
8.902100063016105
 20
82.58603987386816
 10
8.830446406971734
 20
82.70513713799422
 10
8.787454293877621
 20
82.84588872188354
 10
8.773123613916721
 20
83.00829470934374
 10
8.812138487999384
 20
83.25299230326388
 10
8.929183480157327
 20
83.45981023076891
 10
9.124259145255603
 20
83.62874918544008
 10
9.397366038159267
 20
83.75980986085878
 10
9.080950787015032
 20
83.87218354621394
 10
8.854940809308306
 20
84.04162747239908
 10
8.719335365219013
 20
84.26814239079389
 10
8.67413371492708
 20
84.55172905277811
 10
8.691557818635088
 20
84.75147699713794
 10
8.74383031471407
 20
84.92849694917984
 10
8.830951480596553
 20
85.08278951867742
 10
8.952921593715064
 20
85.21435531540431
 10
9.105320768569091
 20
85.31953242113422
 10
9.283729427916483
 20
85.39465864619899
 10
9.488148311577319
 20
85.4397342159674
 10
9.71857815937167
 20
85.45475935580823
 10
10.03170928754796
 20
85.43051705294249
 10
10.41756805836155
 20
85.3577896588384
 10
10.41756805836149
 20
84.98607248712124
 10
10.03473959057821
 20
85.11334542246842
 10
9.742820583614046
 20
85.15576945681832
 10
9.484487065325687
 20
85.11410299822609
 10
9.279184219977656
 20
84.98910279015174
 10
9.145093125931696
 20
84.79794129729347
 10
9.100396341189702
 20
84.55778965883864
 10
9.114190408360563
 20
84.41006178428507
 10
9.155572681157943
 20
84.28203119876489
 10
9.224543266508966
 20
84.17369782858498
 10
9.321102271340748
 20
84.0850616000525
 10
9.596985967155074
 20
83.96688027315738
 10
9.983224624017882
 20
83.92748662853545
 10
10.14080038159364
 20
83.9274866285354
 10
10.14080038159359
 20
83.65879975984855
 10
10.00140644219966
 20
83.65677955782837
 10
9.639031525737667
 20
83.62028992471136
 10
9.380193272909068
 20
83.51082067086315
 10
9.289600149713908
 20
83.42871851999424
 10
9.224890897655036
 20
83.32837126453794
 10
9.173123613916732
 20
83.07294117399015
 10
9.207214280254147
 20
82.87230920195655
 10
9.309486602937743
 20
82.72900119435986
 10
9.479941067474456
 20
82.64301671193175
 10
9.718578159371203
 20
82.61435531540419
 10
10.03271948103511
 20
82.65627429154246
  0
LWPOLYLINE
  5
DBE
330
70
100
AcDbEntity
  8
scritte
100
AcDbPolyline
 90
       42
 70
     0
 43
0.0
 10
12.90077492966397
 20
85.22464629489981
 10
13.1104973512908
 20
85.04566844671677
 10
13.27665950281046
 20
84.81984751712202
 10
13.39534631201305
 20
84.55147695138004
 10
13.46655813580396
 20
84.24055566865995
 10
13.49029533108859
 20
83.88708258813085
 10
13.46611621950185
 20
83.53430396071592
 10
13.39357864295161
 20
83.22344583917153
 10
13.27268223875265
 20
82.9545071022078
 10
13.10342664421971
 20
82.72748662853496
 10
12.89023199170084
 20
82.54718297400877
 10
12.63751795404644
 20
82.41839516457906
 10
12.34528351400391
 20
82.34112278409705
 10
12.01352765432065
 20
82.31536541641391
 10
11.57716418749912
 20
82.3481935759389
 10
11.07211351290653
 20
82.44667854772719
 10
11.07211351290659
 20
82.84465834570699
 10
11.61605324593016
 20
82.68556715918345
 10
12.01958826038131
 20
82.63253713358563
 10
12.24926054975761
 20
82.65311777983075
 10
12.45140673504495
 20
82.71485993434707
 10
12.62602752138431
 20
82.81776392080587
 10
12.77312361391672
 20
82.96183006287842
 10
12.88979064471361
 20
83.14339592751847
 10
12.97312393758807
 20
83.35879945158973
 10
13.02312373529355
 20
83.60804151362856
 10
13.03979028058354
 20
83.89112299217131
 10
13.02198738032705
 20
84.16189383575426
 10
12.96857850616216
 20
84.40248692138043
 10
12.87956339799587
 20
84.61290309290708
 10
12.7549417957352
 20
84.79314319419156
 10
12.59951234386021
 20
84.93765123811654
 10
12.41807337859262
 20
85.04087088306768
 10
12.21062417745188
 20
85.10280244115655
 10
11.97716401795747
 20
85.12344622449473
 10
11.76125459759725
 20
85.10715846708361
 10
11.53777021727979
 20
85.05829503301454
 10
11.06807310886652
 20
84.86284016388879
 10
11.06807310886658
 20
85.22647652752521
 10
11.2943361108191
 20
85.32635058593424
 10
11.53069926360244
 20
85.39768893410197
 10
12.03372967452319
 20
85.45475935580785
  0
LWPOLYLINE
  5
DBF
330
70
100
AcDbEntity
  8
scritte
100
AcDbPolyline
 90
        9
 70
     0
 43
0.0
 10
90.58562329225091
 20
9.06982790091488
 10
90.58562329225088
 20
8.744575375662357
 10
90.98562329225087
 20
8.744575375662288
 10
90.98562329225059
 20
6.926393557480472
 10
91.35936066598793
 20
6.92639355748041
 10
92.70481521144278
 20
8.768817799904429
 10
92.70481521144285
 20
9.069827900914532
 10
91.35936066598828
 20
9.069827900914752
 10
91.35936066598844
 20
9.9162925473794
  0
LWPOLYLINE
  5
DC0
330
70
100
AcDbEntity
  8
scritte
100
AcDbPolyline
 90
       42
 70
     0
 43
0.0
 10
178.3892161373568
 20
84.232352438864
 10
178.2451499974107
 20
84.37944853347891
 10
178.0635841344571
 20
84.49611556690042
 10
177.8481806115905
 20
84.57944886288865
 10
177.5989385502745
 20
84.62944866419704
 10
177.3158570719725
 20
84.64611521357914
 10
177.0450862281324
 20
84.62831231723679
 10
176.8044931417342
 20
84.57490344654983
 10
176.5940769689206
 20
84.48588834142526
 10
176.4138368658347
 20
84.36126674177009
 10
176.2693288196629
 20
84.2058372919841
 10
176.166109172089
 20
84.02439832820865
 10
176.1041776110013
 20
83.81694912796318
 10
176.0835338242881
 20
83.58348896876728
 10
176.0998215785783
 20
83.36757954817164
 10
176.1486850094167
 20
83.14409516714791
 10
176.3441398717526
 20
82.67439805590935
 10
175.9805035081163
 20
82.67439806116597
 10
175.880629452978
 20
82.90066106456217
 10
175.8092911082271
 20
83.13702421837671
 10
175.7522206937928
 20
83.6400546301223
 10
175.7777886885436
 20
83.96871705798238
 10
175.8544929184784
 20
84.25773180476284
 10
175.9823337672346
 20
84.50709988193647
 10
176.1613116184494
 20
84.716822300976
 10
176.3871325504461
 20
84.88298444923126
 10
176.6555031179038
 20
85.00167125455439
 10
176.9664244016533
 20
85.07288307385072
 10
177.3198974825255
 20
85.09662026402567
 10
177.6726761095909
 20
85.07244114733932
 10
177.9835342300866
 20
84.99990356629547
 10
178.2524729653028
 20
84.87900715820885
 10
178.4794934365289
 20
84.70975156039425
 10
178.6597970879731
 20
84.49655690526904
 10
178.7885848937498
 20
84.24384286575302
 10
178.8658572700073
 20
83.95160842459354
 10
178.8916146328946
 20
83.61985256453801
 10
178.8587864670617
 20
83.18348909819116
 10
178.7603014879726
 20
82.67843842502236
 10
178.3623216899928
 20
82.67843843077544
 10
178.5214128843793
 20
83.22237816149913
 10
178.5744429158105
 20
83.62591317518358
  0
LWPOLYLINE
  5
DC1
330
70
100
AcDbEntity
  8
scritte
100
AcDbPolyline
 90
       42
 70
     0
 43
0.0
 10
148.3360310580177
 20
24.54482012401742
 10
148.086662978996
 20
24.67266096916886
 10
147.7976482311066
 20
24.74936519492581
 10
147.4689858028769
 20
24.77493318492547
 10
146.9659553919562
 20
24.7178627632196
 10
146.7295922391729
 20
24.64652441505185
 10
146.5033292372203
 20
24.54665035664279
 10
146.5033292372203
 20
24.18301399300642
 10
146.9730263456335
 20
24.37846886213217
 10
147.196510725951
 20
24.42733229620121
 10
147.4124201463111
 20
24.44362005361233
 10
147.6458803058056
 20
24.42297627027415
 10
147.8533295069464
 20
24.36104471218529
 10
148.0347684722139
 20
24.25782506723416
 10
148.190197924089
 20
24.11331702330917
 10
148.3148195263496
 20
23.9330769220247
 10
148.4038346345158
 20
23.72266075049802
 10
148.4572435086808
 20
23.48206766487184
 10
148.4750464089373
 20
23.21129682128891
 10
148.4583798636473
 20
22.92821534274616
 10
148.4083800659417
 20
22.67897328070732
 10
148.3250467730674
 20
22.46356975663607
 10
148.2083797422704
 20
22.28200389199603
 10
148.0612836497381
 20
22.13793774992347
 10
147.8866628633987
 20
22.03503376346467
 10
147.6845166781114
 20
21.97329160894835
 10
147.454844388735
 20
21.95271096270322
 10
147.0513093742839
 20
22.00574098830107
 10
146.5073696412603
 20
22.1648321748246
 10
146.5073696412602
 20
21.7668523768448
 10
147.0124203158528
 20
21.66836740505652
 10
147.4487837826744
 20
21.63553924553151
 10
147.7805396423576
 20
21.66129661321464
 10
148.0727740824001
 20
21.73856899369665
 10
148.3254881200546
 20
21.86735680312636
 10
148.5386827725734
 20
22.04766045765254
 10
148.7079383671064
 20
22.2746809313254
 10
148.8288347713053
 20
22.54361966828914
 10
148.9013723478556
 20
22.85447778983355
 10
148.9255514594423
 20
23.20725641724844
 10
148.9018142641577
 20
23.56072949777755
 10
148.8306024403668
 20
23.87165078049765
  0
LWPOLYLINE
  5
DC2
330
70
100
AcDbEntity
  8
scritte
100
AcDbPolyline
 90
       36
 70
     0
 43
0.0
 10
144.5955007077849
 20
22.24816538485489
 10
144.5578746917654
 20
22.47190288189562
 10
144.5853997593357
 20
22.66824163564404
 10
144.6679752086531
 20
22.86533722532995
 10
144.8056014096277
 20
23.06319039077342
 10
144.9982787321696
 20
23.26180187179453
 10
145.2265615604524
 20
23.46584227583491
 10
145.6669660015924
 20
23.9264484289184
 10
145.8205009428323
 20
24.14311465631687
 10
145.9295918634829
 20
24.35069076068328
 10
145.9295918634829
 20
24.70018571017824
 10
144.149793883685
 20
24.70018571017853
 10
144.1497938836849
 20
24.35069076068357
 10
145.4487837826748
 20
24.35069076068336
 10
145.3861576587648
 20
24.16356921911103
 10
145.2730267001306
 20
23.97190292813427
 10
145.1093904443846
 20
23.77569115949267
 10
144.8952484291393
 20
23.57493318492587
 10
144.7417130756039
 20
23.44362005361276
 10
144.447520786502
 20
23.16887245556198
 10
144.2639352978261
 20
22.93856954856233
 10
144.1677230533106
 20
22.71533731780754
 10
144.1356524695432
 20
22.46180187179468
 10
144.151561421736
 20
22.28414989425561
 10
144.1992884632694
 20
22.12493293831929
 10
144.2788338715761
 20
21.98415044912065
 10
144.3901979240885
 20
21.86180187179464
 10
144.5278243716698
 20
21.7628116953722
 10
144.6861572734414
 20
21.69210465549093
 10
144.8651973692235
 20
21.64968056719584
 10
145.064945398836
 20
21.63553924553191
 10
145.4583797422704
 20
21.682508665069
 10
145.854844388735
 20
21.82341803341056
 10
145.8548443887351
 20
22.17493318492571
 10
145.4603998826389
 20
21.99462984636438
 10
145.1215110554017
 20
21.93452914452179
  0
LWPOLYLINE
  5
E03
330
70
100
AcDbEntity
  8
2taglio
100
AcDbPolyline
 90
       17
 70
     1
 43
0.0
 10
24.05925816191932
 20
101.3454122268425
 10
4.967616129203763
 20
101.3601626695816
 10
4.952159468541916
 20
79.34548336845226
 10
0.9522003889466912
 20
79.34547219989728
 10
0.9522717839875619
 20
75.25352934642974
 10
4.952262336192116
 20
75.25351108559092
 10
4.952214534334066
 20
67.34551040828279
 10
0.9522730575815259
 20
67.34552866127292
 10
0.9522394309949074
 20
63.25356674422604
 10
4.952137142566688
 20
63.25356547801261
 10
4.952136228122231
 20
59.25346985754557
 10
18.0148528258244
 20
59.25346618686539
 10
24.04419277584521
 20
64.27791373110125
 10
24.04847144527885
 20
77.34031628512901
 10
16.05185166533089
 20
77.33182652177685
 10
16.04769746377959
 20
81.24493587503842
 10
24.04372716919334
 20
81.23875949745597
  0
LWPOLYLINE
  5
E04
330
70
100
AcDbEntity
  8
2taglio
100
AcDbPolyline
 90
       34
 70
     1
 43
0.0
 10
87.95390798314336
 20
101.0460136366416
 10
79.94616379233445
 20
101.0460123194129
 10
79.94616364256152
 20
105.0460107599598
 10
43.85420303083022
 20
105.0460087217453
 10
43.85399513446393
 20
101.0459787572739
 10
39.94599273629228
 20
101.0459781247839
 10
39.94599208891669
 20
105.0459781247875
 10
35.85399208891475
 20
105.0459774625102
 10
35.85399273628997
 20
101.0459774384722
 10
29.85399448833439
 20
101.0459733310187
 10
29.85397598751486
 20
68.98091831537694
 10
39.88092203168399
 20
58.95397235220386
 10
47.95721231877013
 20
58.95397298584871
 10
47.94577956233793
 20
63.0460689564714
 10
43.94590790931283
 20
63.04606830911573
 10
43.9459086547905
 20
66.95403003081057
 10
47.94590866796842
 20
66.95403067819079
 10
47.94590789332755
 20
75.04588919074909
 10
43.94605187890532
 20
75.05707023653545
 10
43.95697171077997
 20
78.96509932385121
 10
51.95708473604049
 20
78.9539183868373
 10
51.95707954486223
 20
80.94362337475144
 10
71.85415644560612
 20
80.94738156674244
 10
71.8547761906797
 20
77.03938174413392
 10
51.86592391434714
 20
77.0356361376854
 10
51.86529055397785
 20
58.95400342174823
 10
71.9462020121282
 20
58.95399130605806
 10
71.94619774108161
 20
66.95406949199679
 10
79.85418556909087
 20
66.95406958845153
 10
79.85418705786914
 20
63.04608003852878
 10
75.85418706968018
 20
63.0460807912031
 10
75.85418795787494
 20
58.95400396927732
 10
81.93008376984574
 20
58.95400346406248
 10
87.95390747528939
 20
68.98725467616974
  0
LWPOLYLINE
  5
E05
330
70
100
AcDbEntity
  8
2taglio
100
AcDbPolyline
 90
       15
 70
     1
 43
0.0
 10
129.5291718980807
 20
99.95233741876754
 10
120.4614838564599
 20
99.95455479245277
 10
120.4666690990269
 20
91.84965078289863
 10
131.4604560343556
 20
91.84741848635248
 10
131.463920202154
 20
83.94010336764837
 10
96.46322869353122
 20
83.94002688677025
 10
96.46272012089408
 20
77.94605834903117
 10
92.46271523934778
 20
77.94616736339297
 10
92.4628902424547
 20
69.85528254243746
 10
96.46289189880665
 20
69.85540055903081
 10
96.46324210051282
 20
63.8593463214952
 10
131.4663984155536
 20
63.85924390935032
 10
131.4691833596381
 20
55.8592473777088
 10
139.5611634775734
 20
55.85903941997766
 10
139.5624302624696
 20
93.93151496619713
  0
LWPOLYLINE
  5
E06
330
70
100
AcDbEntity
  8
2taglio
100
AcDbPolyline
 90
       56
 70
     1
 43
0.0
 10
173.1682842334892
 20
101.8579468977532
 10
177.1682843129497
 20
101.8579458092109
 10
177.168283249445
 20
97.94994581159985
 10
173.168282332296
 20
97.94994710773956
 10
173.1682839823089
 20
77.85794689775954
 10
177.1682839660107
 20
77.85794580921717
 10
177.1682829025011
 20
73.94994581160649
 10
173.1682820103823
 20
73.94994710774525
 10
173.1682801625238
 20
69.94994962416829
 10
169.260280172883
 20
69.94994972715644
 10
169.2602829215945
 20
73.94994796126461
 10
165.260282902501
 20
73.94994904980791
 10
165.2602839904225
 20
77.94756315575452
 10
161.1682839904192
 20
77.94756426933068
 10
161.1682829025001
 20
73.94995016338537
 10
157.2602829025032
 20
73.94995122689079
 10
157.2602839907198
 20
77.94827879453056
 10
153.1682846137003
 20
77.94827926990682
 10
153.1682835254867
 20
73.94995171661753
 10
149.1682835835073
 20
73.94995280515916
 10
149.1682774497616
 20
69.94994900074829
 10
145.1682773989416
 20
69.94995008929096
 10
145.168275644723
 20
65.8579494630592
 10
149.1682756519296
 20
65.8579483745159
 10
149.1682745884217
 20
61.94994837451773
 10
145.1682744825817
 20
61.94994946306015
 10
145.168286841466
 20
55.85793386617879
 10
181.2320693119068
 20
55.85793561249643
 10
192.260299493375
 20
65.88358719037258
 10
192.2603049464127
 20
73.94994175757799
 10
189.2602898490848
 20
73.94994257399202
 10
189.2602909125948
 20
77.8579425739925
 10
192.2603043584351
 20
77.8579417575778
 10
192.2603052643291
 20
97.94994175757187
 10
189.260290196025
 20
97.94994257398577
 10
189.2602912595333
 20
101.8579425739857
 10
192.2603048011009
 20
101.8579417575701
 10
192.2602924392784
 20
107.9299694729635
 10
182.2270281528014
 20
113.9499073535652
 10
149.1682896959912
 20
113.9499116849816
 10
149.1682886074449
 20
109.9499116914754
 10
145.1682886074479
 20
109.9499127800188
 10
145.1682874938648
 20
105.8579127800203
 10
149.1682874938699
 20
105.8579116914767
 10
149.1682864053234
 20
101.8579115830081
 10
153.1682881069338
 20
101.8579199265092
 10
153.168287018421
 20
97.85795559692656
 10
157.2602903652505
 20
97.85795105954717
 10
157.2602914537666
 20
101.8579155745777
 10
161.1682914537671
 20
101.8579145110712
 10
161.1682903652296
 20
97.85795010327372
 10
165.2602897280224
 20
97.85794964155705
 10
165.2602908165632
 20
101.8579140297598
 10
169.2602905452133
 20
101.8579125116103
 10
169.260292303707
 20
105.8579127313258
 10
173.1682922319461
 20
105.857912628336
  0
LWPOLYLINE
  5
E07
330
70
100
AcDbEntity
  8
2taglio
100
AcDbPolyline
 90
       17
 70
     1
 43
0.0
 10
191.2591368337499
 20
41.74529380505394
 10
172.1674948010344
 20
41.76004424779309
 10
172.1520381403726
 20
19.74536494666369
 10
168.1520790607773
 20
19.74535377810873
 10
168.1521504558182
 20
15.65341092464119
 10
172.1521410080228
 20
15.65339266380236
 10
172.1520932061646
 20
7.745391986494268
 10
168.1521517294122
 20
7.745410239484367
 10
168.1521181028255
 20
3.653448322437502
 10
172.1520158143972
 20
3.653447056224075
 10
172.1520148999528
 20
-0.3466485642430048
 10
185.214731497655
 20
-0.3466522349231818
 10
191.2440714476758
 20
4.677795309312699
 10
191.2483501171094
 20
17.74019786334047
 10
183.2517303371613
 20
17.73170809998829
 10
183.2475761356102
 20
21.64481745324989
 10
191.2436058410239
 20
21.63864107566741
  0
LWPOLYLINE
  5
E08
330
70
100
AcDbEntity
  8
2taglio
100
AcDbPolyline
 90
       39
 70
     1
 43
0.0
 10
120.8848760065459
 20
3.653988009296883
 10
161.9475326362371
 20
3.653991717230978
 10
161.9475242497029
 20
13.74598434558585
 10
157.9475242896903
 20
13.74598377751516
 10
157.9475245921654
 20
21.65398376147617
 10
161.9475259471498
 20
21.65398293499356
 10
161.9475248460766
 20
29.74598434558533
 10
157.9475248535468
 20
29.74598377751256
 10
157.9475250619454
 20
37.65398376256944
 10
161.9475263140094
 20
37.6539830312631
 10
161.947526479122
 20
45.74598434558466
 10
157.9475252500206
 20
45.74598377751216
 10
157.9475273048787
 20
49.74598629725825
 10
153.8555259035725
 20
49.74598388094027
 10
153.8555264716461
 20
45.74598390157006
 10
149.947526471645
 20
45.7459833465631
 10
149.947525903573
 20
49.74598334656367
 10
145.855525903568
 20
49.74598276542454
 10
145.8555264716414
 20
45.74598276542456
 10
141.9475264716415
 20
45.74598221041795
 10
141.9475259035695
 20
49.74598218172308
 10
137.8555222168311
 20
49.74598415317745
 10
137.8555354115335
 20
11.74529364155409
 10
133.9475321665501
 20
11.74529467876142
 10
133.9475214894705
 20
49.74598394603964
 10
129.8555297561661
 20
49.74597690551206
 10
129.8555303242431
 20
45.74597697812539
 10
125.94753032424
 20
45.74597642311694
 10
125.9475297561658
 20
49.74597642311728
 10
121.8555297561636
 20
49.74597584197957
 10
121.8555303242408
 20
45.74597584197976
 10
117.9475303242367
 20
45.74597528697046
 10
117.9475297561618
 20
49.74597517884646
 10
114.855518177329
 20
49.74598200749895
 10
114.8545205375932
 20
25.65692069469645
 10
122.8551646923532
 20
25.65692057904183
 10
122.8551646357383
 20
21.74047960879592
 10
114.8543526321337
 20
21.74896953991867
 10
114.8555310914215
 20
8.678439986483653
  0
LWPOLYLINE
  5
E09
330
70
100
AcDbEntity
  8
2taglio
100
AcDbPolyline
 90
       39
 70
     1
 43
0.0
 10
112.24635587101
 20
8.678831920365032
 10
112.2475347081887
 20
21.74936147377411
 10
104.2467227043386
 20
21.74087177396907
 10
104.2467227609552
 20
25.65731274421516
 10
112.2473669157141
 20
25.65731262855938
 10
112.2463699724359
 20
49.74637394164542
 10
109.1543583936038
 20
49.74636718633231
 10
109.1543577098812
 20
45.74636729469538
 10
105.2463577098773
 20
45.74636796269157
 10
105.246358393601
 20
49.74636796269147
 10
101.1543583935989
 20
49.74636866213668
 10
101.1543577098779
 20
45.74636866213642
 10
97.24635770987582
 20
45.74636933013199
 10
97.24635839359889
 20
49.74636925733967
 10
93.15436667189459
 20
49.74637643211834
 10
93.15435205833358
 20
23.74637505522732
 10
89.24634881475803
 20
23.74637413100564
 10
89.24636594594145
 20
49.7463767520634
 10
85.15436224619561
 20
49.74637489890866
 10
85.15436156247655
 20
45.74637492760367
 10
81.24636156247666
 20
45.74637559559834
 10
81.24636224619656
 20
49.74637559559823
 10
77.15436224619231
 20
49.74637629504464
 10
77.15436156247313
 20
45.74637629504389
 10
73.24636156247207
 20
45.74637696303796
 10
73.24636224619275
 20
49.74637694240852
 10
69.15436084488638
 20
49.74637947703371
 10
69.15436278409721
 20
45.74637695728696
 10
65.15436155499661
 20
45.74637764100482
 10
65.15436148615521
 20
37.65437632668335
 10
69.15436273821917
 20
37.65437694234428
 10
69.15436271798338
 20
29.74637695728733
 10
65.15436272545416
 20
29.74637764100608
 10
65.15436139042726
 20
21.65437623041389
 10
69.15436274541058
 20
21.65437694125075
 10
69.15436281925207
 20
13.74637695728956
 10
65.15436285923961
 20
13.74637764100614
 10
65.15435418092851
 20
3.654385012636865
 10
106.2170108106201
 20
3.654380117493211
  0
LWPOLYLINE
  5
E0A
330
70
100
AcDbEntity
  8
2taglio
100
AcDbPolyline
 90
       24
 70
     1
 43
0.0
 10
4.95401244853866
 20
17.98725894998378
 10
10.97395521183019
 20
7.954000004469532
 10
17.04598818488312
 20
7.953998962449483
 10
17.04597454909326
 20
17.95399383330984
 10
20.95397448408093
 20
17.95399308783932
 10
20.95397398692151
 20
7.953987037550149
 10
41.03488380920611
 20
7.953998572671704
 10
41.03488430636575
 20
17.95400455256169
 10
44.942884306366
 20
17.95400380708992
 10
44.94288380920607
 20
7.953997787042157
 10
53.01904540048692
 20
7.953997116731231
 10
63.04599173408814
 20
17.98094278954452
 10
63.04597416032557
 20
50.04599780519427
 10
57.04597591236757
 20
50.04600208610799
 10
57.04597667539054
 20
54.04600211015083
 10
52.95397667539052
 20
54.04600289072578
 10
52.95397591236755
 20
50.04600289072417
 10
49.04597591236721
 20
50.04600363619814
 10
49.04597667539103
 20
54.0460036410461
 10
12.95401367121034
 20
54.04600672274321
 10
12.95401290818592
 20
50.04600672759128
 10
9.046012908185618
 20
50.04600747306403
 10
9.046013671210507
 20
54.04600747306371
 10
4.954013663986083
 20
54.04600825363825
  0
LWPOLYLINE
  5
E0B
330
70
100
AcDbEntity
  8
1taglio
100
AcDbPolyline
 90
       24
 70
     1
 43
0.0
 10
18.74014454036734
 20
70.54539302118868
 10
19.45274786832559
 20
69.46630398814406
 10
19.86178103358287
 20
68.23954870938137
 10
19.93936910188953
 20
66.9487285298435
 10
19.68022457461447
 20
65.68181071158071
 10
19.10200772302859
 20
64.52513361022564
 10
18.24412307002365
 20
63.55752285874089
 10
17.1650340369809
 20
62.84491953078557
 10
15.93827875821804
 20
62.43588636552669
 10
14.64745857867856
 20
62.35829829721946
 10
13.38054076041562
 20
62.61744282449531
 10
12.22386365906224
 20
63.19565967608005
 10
11.25625290757424
 20
64.05354432908549
 10
10.54364957962095
 20
65.13263336213049
 10
10.13461641436373
 20
66.35938864089165
 10
10.05702834605627
 20
67.6502088204316
 10
10.31617287332988
 20
68.917126638694
 10
10.89438972491671
 20
70.07380374004694
 10
11.7522743779225
 20
71.04141449153232
 10
12.83136341096672
 20
71.75401781948789
 10
14.05811868972558
 20
72.16305098474624
 10
15.34893886926696
 20
72.24063905305389
 10
16.61585668752963
 20
71.98149452577823
 10
17.77253378888346
 20
71.40327767419311
  0
LWPOLYLINE
  5
E0C
330
70
100
AcDbEntity
  8
1taglio
100
AcDbPolyline
 90
       24
 70
     1
 43
0.0
 10
104.2236169269473
 20
7.894041067258037
 10
103.2003491542695
 20
7.759325324336669
 10
102.1770813854938
 20
7.89404109684241
 10
101.2235476280222
 20
8.289007727517221
 10
100.4047296316391
 20
8.917308893192247
 10
99.77642848963895
 20
9.736126907735652
 10
99.38146188653092
 20
10.68966067662699
 10
99.24674614361194
 20
11.71292844929975
 10
99.3814619161167
 20
12.73619621807732
 10
99.77642854679169
 20
13.68972997554918
 10
100.4047297124616
 20
14.50854797193381
 10
101.2235477270111
 20
15.13684911393147
 10
102.1770814959045
 20
15.53181571703635
 10
103.2003492685722
 20
15.66653145996359
 10
104.2236170373563
 20
15.53181568745045
 10
105.1771507948285
 20
15.13684905677798
 10
105.995968791204
 20
14.50854789110964
 10
106.624269933206
 20
13.68972987655793
 10
107.0192365363107
 20
12.73619610766933
 10
107.1539522792387
 20
11.712928334994
 10
107.0192365067233
 20
10.68966056621784
 10
106.6242698760544
 20
9.736126808744568
 10
105.9959687103789
 20
8.9173088123691
 10
105.1771506958368
 20
8.289007670365181
  0
LWPOLYLINE
  5
E0D
330
70
100
AcDbEntity
  8
1taglio
100
AcDbPolyline
 90
       24
 70
     1
 43
0.0
 10
121.9247362553236
 20
8.288615532106485
 10
121.1059182589469
 20
8.916916697783383
 10
120.4776171169452
 20
9.735734712323381
 10
120.0826505138451
 20
10.68926848121426
 10
119.9479347709134
 20
11.71253625388465
 10
120.0826505434258
 20
12.73580402266391
 10
120.4776171740997
 20
13.68933778013235
 10
121.1059183397747
 20
14.50815577651815
 10
121.9247363543154
 20
15.13645691851259
 10
122.8782701232055
 20
15.53142352161625
 10
123.9015378958858
 20
15.66613926454461
 10
124.9248056646584
 20
15.53142349203305
 10
125.8783394221331
 20
15.13645686136012
 10
126.6971574185167
 20
14.50815569569022
 10
127.3254585605138
 20
13.68933768114087
 10
127.7204251636197
 20
12.7358039122508
 10
127.8551409065402
 20
11.71253613957869
 10
127.7204251340376
 20
10.68926837080248
 10
127.3254585033607
 20
9.735734613330643
 10
126.6971573376869
 20
8.916916616953685
 10
125.8783393231385
 20
8.288615474952482
 10
124.9248055542484
 20
7.893648871846917
 10
123.9015377815764
 20
7.758933128925152
 10
122.8782700127939
 20
7.893648901431647
  0
LWPOLYLINE
  5
E0E
330
70
100
AcDbEntity
  8
1taglio
100
AcDbPolyline
 90
       24
 70
     1
 43
0.0
 10
185.9400232121979
 20
10.94527459940018
 10
186.6526265401563
 20
9.866185566355486
 10
187.0616597054135
 20
8.639430287592785
 10
187.1392477737201
 20
7.348610108055071
 10
186.8801032464451
 20
6.081692289792107
 10
186.3018863948593
 20
4.925015188437106
 10
185.4440017418544
 20
3.957404436952353
 10
184.3649127088115
 20
3.244801108997029
 10
183.1381574300488
 20
2.835767943738148
 10
181.8473372505092
 20
2.758179875430914
 10
180.5804194322463
 20
3.017324402706761
 10
179.4237423308929
 20
3.595541254291508
 10
178.4561315794049
 20
4.453425907296933
 10
177.7435282514515
 20
5.532514940341965
 10
177.3344950861943
 20
6.759270219103161
 10
177.2569070178868
 20
8.050090398642991
 10
177.5160515451606
 20
9.317008216905492
 10
178.0942683967473
 20
10.4736853182584
 10
178.9521530497531
 20
11.44129606974377
 10
180.0312420827973
 20
12.15389939769933
 10
181.2579973615562
 20
12.56293256295768
 10
182.5488175410976
 20
12.64052063126535
 10
183.8157353593603
 20
12.38137610398968
 10
184.9724124607141
 20
11.80315925240457
  0
LWPOLYLINE
  5
E0F
330
70
100
AcDbEntity
  8
1taglio
100
AcDbPolyline
 90
        4
 70
     1
 43
0.0
 10
114.5090187527123
 20
68.75928420274111
 10
98.51701704840671
 20
68.75928745431115
 10
98.5170170752179
 20
79.04007630667539
 10
114.5090164952183
 20
79.04007478216391
  0
LWPOLYLINE
  5
E2D
330
70
100
AcDbEntity
  8
1taglio
100
AcDbPolyline
 90
        4
 70
     1
 43
0.0
 10
75.85418706968018
 20
75.04588919074908
 10
75.85418706968018
 20
78.95391838683728
 10
79.85418350831295
 20
78.9539183868373
 10
79.85418350831295
 20
75.04588919074909
  0
LINE
  5
E69
330
70
100
AcDbEntity
  8
scritte
100
AcDbLine
 10
110.9348490209152
 20
120.0646520680528
 30
0.0
 11
111.0217177077839
 21
120.0646520680528
 31
0.0
  0
LINE
  5
E6A
330
70
100
AcDbEntity
  8
scritte
100
AcDbLine
 10
111.0217177077839
 20
120.0646520680528
 30
0.0
 11
111.4060615505696
 21
120.0792984556346
 31
0.0
  0
LINE
  5
E6B
330
70
100
AcDbEntity
  8
scritte
100
AcDbLine
 10
111.4060615505696
 20
120.0792984556346
 30
0.0
 11
111.6257581118243
 21
120.1232379266385
 31
0.0
  0
LINE
  5
E6C
330
70
100
AcDbEntity
  8
scritte
100
AcDbLine
 10
111.6257581118243
 20
120.1232379266385
 30
0.0
 11
111.740657483193
 21
120.1906621878472
 31
0.0
  0
LINE
  5
E6D
330
70
100
AcDbEntity
  8
scritte
100
AcDbLine
 10
111.740657483193
 20
120.1906621878472
 30
0.0
 11
111.8227281478781
 21
120.2818235501774
 31
0.0
  0
LINE
  5
E6E
330
70
100
AcDbEntity
  8
scritte
100
AcDbLine
 10
111.0702025562689
 20
121.4242480276487
 30
0.0
 11
111.3714653751931
 21
121.4606114790573
 31
0.0
  0
LINE
  5
E6F
330
70
100
AcDbEntity
  8
scritte
100
AcDbLine
 10
111.3714653751931
 20
121.4606114790573
 30
0.0
 11
111.5964651825316
 21
121.5697025731032
 31
0.0
  0
LINE
  5
E70
330
70
100
AcDbEntity
  8
scritte
100
AcDbLine
 10
111.8287887077001
 20
120.7795511658421
 30
0.0
 11
111.6500005360668
 21
120.9787934821941
 31
0.0
  0
LINE
  5
E71
330
70
100
AcDbEntity
  8
scritte
100
AcDbLine
 10
111.6500005360668
 20
120.9787934821941
 30
0.0
 11
111.3818188643078
 21
121.1113694555507
 31
0.0
  0
LINE
  5
E72
330
70
100
AcDbEntity
  8
scritte
100
AcDbLine
 10
111.3818188643078
 20
121.1113694555507
 30
0.0
 11
111.0540409401073
 21
121.1555611589619
 31
0.0
  0
LWPOLYLINE
  5
E73
330
70
100
AcDbEntity
  8
scritte
100
AcDbPolyline
 90
       10
 70
     1
 43
0.0
 10
113.1308086168748
 20
119.7474803508807
 10
113.1308086168748
 20
120.0464702498706
 10
113.7287884148546
 20
120.0464702498705
 10
113.7287884148549
 20
122.4060662094665
 10
113.1308086168751
 20
122.2565712599716
 10
113.1308086168751
 20
122.5636419670423
 10
114.1287884148551
 20
122.812126815527
 10
114.1287884148546
 20
120.0464702498704
 10
114.7267682128345
 20
120.0464702498703
 10
114.7267682128345
 20
119.7474803508804
  0
LINE
  5
E74
330
70
100
AcDbEntity
  8
scritte
100
AcDbLine
 10
111.8227281478781
 20
120.2818235501774
 30
0.0
 11
111.8719703601929
 21
120.3967224037683
 31
0.0
  0
LINE
  5
E75
330
70
100
AcDbEntity
  8
scritte
100
AcDbLine
 10
111.8719703601929
 20
120.3967224037683
 30
0.0
 11
111.8883843744506
 21
120.5353591387597
 31
0.0
  0
LINE
  5
E76
330
70
100
AcDbEntity
  8
scritte
100
AcDbLine
 10
111.8883843744506
 20
120.5353591387597
 30
0.0
 11
111.8734854943686
 21
120.6630740684367
 31
0.0
  0
LINE
  5
E77
330
70
100
AcDbEntity
  8
scritte
100
AcDbLine
 10
111.8734854943686
 20
120.6630740684367
 30
0.0
 11
111.8287887077001
 21
120.7795511658421
 31
0.0
  0
LINE
  5
E78
330
70
100
AcDbEntity
  8
scritte
100
AcDbLine
 10
111.7406574253949
 20
122.1724810097832
 30
0.0
 11
111.6126276618166
 21
122.3101071991981
 31
0.0
  0
LINE
  5
E79
330
70
100
AcDbEntity
  8
scritte
100
AcDbLine
 10
111.6126276618166
 20
122.3101071991981
 30
0.0
 11
111.3992439313232
 21
122.3926825907171
 31
0.0
  0
LINE
  5
E7A
330
70
100
AcDbEntity
  8
scritte
100
AcDbLine
 10
111.3992439313232
 20
122.3926825907171
 30
0.0
 11
111.1005055865721
 21
122.4202076236083
 31
0.0
  0
LWPOLYLINE
  5
E7B
330
70
100
AcDbEntity
  8
scritte
100
AcDbPolyline
 90
       24
 70
     1
 43
0.0
 10
112.2910362363929
 20
120.7652840921047
 10
112.3368692229355
 20
120.4949550983556
 10
112.3217178291606
 20
120.323868822176
 10
112.2762634860005
 20
120.1742478157209
 10
112.200505950702
 20
120.0460915616943
 10
112.0944449805111
 20
119.9393995428001
 10
111.9598488706391
 20
119.8554346259471
 10
111.7984856311582
 20
119.7954599085155
 10
111.3954550815211
 20
119.747480350881
 10
110.5146470007131
 20
119.7474803508812
 10
110.5146470007136
 20
122.7373793407801
 10
111.2904045764712
 20
122.73737934078
 10
111.6866169751158
 20
122.6949552833107
 10
111.9782833643499
 20
122.5676823710829
 10
112.0830185249464
 20
122.4734903940925
 10
112.1578290963279
 20
122.3606118797931
 10
112.2027152865689
 20
122.2290463889162
 10
112.2176773037436
 20
122.078793482194
 10
112.1792937485723
 20
121.8266463586453
 10
112.0641427054412
 20
121.6136415663066
 10
111.8722236079263
 20
121.4397783884773
 10
111.6035358896022
 20
121.3050561084567
 10
111.9243702633076
 20
121.1703338457755
 10
112.1535368143772
 20
120.9904100907848
  0
LINE
  5
E7C
330
70
100
AcDbEntity
  8
scritte
100
AcDbLine
 10
111.5964651825316
 20
121.5697025731032
 30
0.0
 11
111.7366169442898
 21
121.7449549750523
 31
0.0
  0
LINE
  5
E7D
330
70
100
AcDbEntity
  8
scritte
100
AcDbLine
 10
111.7366169442898
 20
121.7449549750523
 30
0.0
 11
111.7833338694004
 21
121.9798035832042
 31
0.0
  0
LINE
  5
E7E
330
70
100
AcDbEntity
  8
scritte
100
AcDbLine
 10
111.7833338694004
 20
121.9798035832042
 30
0.0
 11
111.7406574253949
 21
122.1724810097832
 31
0.0
  0
LINE
  5
E7F
330
70
100
AcDbEntity
  8
scritte
100
AcDbLine
 10
111.1005055865721
 20
122.4202076236083
 30
0.0
 11
110.9348490209155
 21
122.4202076236084
 31
0.0
  0
LINE
  5
E80
330
70
100
AcDbEntity
  8
scritte
100
AcDbLine
 10
110.9348490209155
 20
122.4202076236084
 30
0.0
 11
110.9348490209154
 21
121.4242480276488
 31
0.0
  0
LINE
  5
E81
330
70
100
AcDbEntity
  8
scritte
100
AcDbLine
 10
111.0540409401073
 20
121.1555611589619
 30
0.0
 11
110.9348490209154
 21
121.1555611589619
 31
0.0
  0
LINE
  5
E82
330
70
100
AcDbEntity
  8
scritte
100
AcDbLine
 10
110.9348490209154
 20
121.1555611589619
 30
0.0
 11
110.9348490209152
 21
120.0646520680528
 31
0.0
  0
LINE
  5
E83
330
70
100
AcDbEntity
  8
scritte
100
AcDbLine
 10
110.9348490209154
 20
121.4242480276488
 30
0.0
 11
111.0702025562689
 21
121.4242480276487
 31
0.0
  0
LWPOLYLINE
  5
E84
330
70
100
AcDbEntity
  8
1taglio
100
AcDbPolyline
 90
        4
 70
     1
 43
0.0
 10
119.8747715719087
 20
109.9064757369032
 10
135.7747732638411
 20
109.9064789613493
 10
135.7747732690434
 20
118.3952195795087
 10
119.8747738401413
 20
118.3952180689312
  0
LWPOLYLINE
  5
E85
330
70
100
AcDbEntity
  8
1taglio
100
AcDbPolyline
 90
       24
 70
     1
 43
0.0
 10
92.79584870519487
 20
116.2758542540593
 10
92.22644682305531
 20
116.3508174188734
 10
91.65704494084696
 20
116.2758542234688
 10
91.12644685585847
 20
116.0560732857335
 10
90.67081195072347
 20
115.7064523133658
 10
90.32119099126168
 20
115.2508173978578
 10
90.10141006808352
 20
114.7202193057305
 10
90.0264468878899
 20
114.1508174201045
 10
90.10141006754095
 20
113.5814155385075
 10
90.32119099021549
 20
113.0508174581872
 10
90.6708119492475
 20
112.5951825614637
 10
91.12644685404648
 20
112.2455616135753
 10
91.65704493882623
 20
112.0257807043454
 10
92.22644682096754
 20
111.9508175395329
 10
92.79584870317831
 20
112.0257807349355
 10
93.32644678816796
 20
112.2455616726735
 10
93.78208169329978
 20
112.5951826450406
 10
94.13170265276422
 20
113.0508175605469
 10
94.35148357594249
 20
113.5814156526757
 10
94.42644675613342
 20
114.150817538301
 10
94.35148357648314
 20
114.720219419898
 10
94.13170265380967
 20
115.2508175002171
 10
93.78208169477943
 20
115.7064523969427
 10
93.32644678997493
 20
116.0560733448313
  0
LWPOLYLINE
  5
E86
330
70
100
AcDbEntity
  8
2taglio
100
AcDbPolyline
 90
       19
 70
     1
 43
0.0
 10
94.78142913053513
 20
124.1904721546764
 10
94.775345252143
 20
134.1826653089599
 10
104.8086186092641
 20
140.2034967584848
 10
113.8763066507031
 20
140.2057141314814
 10
113.871121409567
 20
132.1008101274663
 10
102.877334474722
 20
132.0985778328971
 10
102.8738703050703
 20
124.1912627068954
 10
137.874561812084
 20
124.1911862196676
 10
137.8750703819014
 20
118.1972176709423
 10
141.8750752633016
 20
118.1973266848148
 10
141.8749002601879
 20
110.1064418638555
 10
137.874898604014
 20
110.1065598811823
 10
137.8745484010969
 20
104.1105056389282
 10
102.8713920896423
 20
104.1104032407343
 10
102.8686071475557
 20
96.11040671698518
 10
94.77662189859968
 20
96.11019875116751
 10
94.77724762448316
 20
104.1096097245586
 10
84.77966373777389
 20
104.1103904829043
 10
84.78122990653163
 20
124.1912516601187
  0
VIEWPORT
  5
D6C
102
{ACAD_XDICTIONARY
360
D6D
102
}
330
6C
100
AcDbEntity
 67
     1
  8
0
348
2F
100
AcDbViewport
 10
5.59722299650898
 20
3.881944314701351
 30
0.0
 40
12.37272182674858
 41
9.026133868408264
 68
     1
 69
     1
 12
5.59722299650898
 22
3.881944314701351
 13
0.0
 23
0.0
 14
10.0
 24
10.0
 15
10.0
 25
10.0
 16
0.0
 26
0.0
 36
1.0
 17
0.0
 27
0.0
 37
0.0
 42
50.0
 43
0.0
 44
0.0
 45
9.026133868408264
 50
0.0
 51
0.0
 72
  1000
 90
   819232
  1

281
     0
 71
     1
 74
     0
110
0.0
120
0.0
130
0.0
111
1.0
121
0.0
131
0.0
112
0.0
122
1.0
132
0.0
 79
     0
146
0.0
170
     0
 61
     5
292
     1
282
     1
141
0.0
142
0.0
 63
   250
421
  3355443
  0
VIEWPORT
  5
D71
102
{ACAD_XDICTIONARY
360
D72
102
}
330
6C
100
AcDbEntity
 67
     1
  8
0
348
2F
100
AcDbViewport
 10
5.437500289105993
 20
3.881944493045957
 30
0.0
 40
8.700000462569589
 41
6.211111188873531
 68
     2
 69
     2
 12
-56.80162972435567
 22
0.0
 13
0.0
 23
0.0
 14
1.0
 24
1.0
 15
0.0
 25
0.0
 16
-1.0
 26
0.0
 36
0.0
 17
0.0
 27
0.0
 37
0.0
 42
50.0
 43
0.0
 44
0.0
 45
81.98597347853704
 50
0.0
 51
0.0
 72
  1000
 90
   819296
  1

281
     0
 71
     1
 74
     0
110
0.0
120
0.0
130
0.0
111
0.0
121
-1.0
131
0.0
112
0.0
122
0.0
132
1.0
 79
     0
146
0.0
170
     0
 61
     5
292
     1
282
     1
141
0.0
142
0.0
 63
   250
421
  3355443
  0
ENDSEC
  0
SECTION
  2
OBJECTS
  0
DICTIONARY
  5
C
330
0
100
AcDbDictionary
281
     1
  3
ACAD_CIP_PREVIOUS_PRODUCT_INFO
350
7D2
  3
ACAD_COLOR
350
62
  3
ACAD_DETAILVIEWSTYLE
350
6A
  3
ACAD_GROUP
350
D
  3
ACAD_LAYOUT
350
61
  3
ACAD_MATERIAL
350
10
  3
ACAD_MLEADERSTYLE
350
65
  3
ACAD_MLINESTYLE
350
5E
  3
ACAD_PLOTSETTINGS
350
60
  3
ACAD_PLOTSTYLENAME
350
E
  3
ACAD_SCALELIST
350
42
  3
ACAD_SECTIONVIEWSTYLE
350
67
  3
ACAD_TABLESTYLE
350
63
  3
ACAD_VISUALSTYLE
350
29
  3
ACDB_RECOMPOSE_DATA
350
EA3
  3
AcDbVariableDictionary
350
D52
  0
DICTIONARY
  5
D3B
330
2
100
AcDbDictionary
280
     1
281
     1
  3
ACAD_LAYERSTATES
360
D3C
  0
DICTIONARY
  5
D2C
330
54
100
AcDbDictionary
280
     1
281
     1
  3
ADSK_XREC_LAYER_RECONCILED
360
D2D
  0
DICTIONARY
  5
D32
330
3B7
100
AcDbDictionary
280
     1
281
     1
  3
ADSK_XREC_LAYER_RECONCILED
360
D33
  0
DICTIONARY
  5
D36
330
68C
100
AcDbDictionary
280
     1
281
     1
  3
ADSK_XREC_LAYER_RECONCILED
360
D37
  0
DICTIONARY
  5
E41
330
E40
100
AcDbDictionary
280
     1
281
     1
  0
DICTIONARY
  5
7DE
330
70
100
AcDbDictionary
280
     1
281
     1
  3
ACAD_SORTENTS
360
7DF
  0
DICTIONARY
  5
D6D
330
D6C
100
AcDbDictionary
280
     1
281
     1
  3
ASDK_XREC_ANNOTATION_SCALE_INFO
360
D6E
  0
DICTIONARY
  5
D72
330
D71
100
AcDbDictionary
280
     1
281
     1
  3
ASDK_XREC_ANNOTATION_SCALE_INFO
360
D73
  0
XRECORD
  5
7D2
102
{ACAD_REACTORS
330
C
102
}
330
C
100
AcDbXrecord
280
     1
300
ACDMAC
300
2014
300
ACD_F_S
  0
DICTIONARY
  5
62
102
{ACAD_REACTORS
330
C
102
}
330
C
100
AcDbDictionary
281
     1
  0
DICTIONARY
  5
6A
102
{ACAD_REACTORS
330
C
102
}
330
C
100
AcDbDictionary
281
     1
  3
Imperial24
350
6B
  0
DICTIONARY
  5
D
102
{ACAD_REACTORS
330
C
102
}
330
C
100
AcDbDictionary
281
     1
  0
DICTIONARY
  5
61
102
{ACAD_REACTORS
330
C
102
}
330
C
100
AcDbDictionary
281
     1
  3
Layout1
350
6F
  3
Model
350
73
  0
DICTIONARY
  5
10
102
{ACAD_REACTORS
330
C
102
}
330
C
100
AcDbDictionary
281
     1
  3
ByBlock
350
19
  3
ByLayer
350
11
  3
Global
350
21
  0
DICTIONARY
  5
65
102
{ACAD_REACTORS
330
C
102
}
330
C
100
AcDbDictionary
281
     1
  3
Standard
350
66
  0
DICTIONARY
  5
5E
102
{ACAD_REACTORS
330
C
102
}
330
C
100
AcDbDictionary
281
     1
  3
Standard
350
5F
  0
DICTIONARY
  5
60
102
{ACAD_REACTORS
330
C
102
}
330
C
100
AcDbDictionary
281
     1
  0
ACDBDICTIONARYWDFLT
  5
E
102
{ACAD_REACTORS
330
C
102
}
330
C
100
AcDbDictionary
281
     1
  3
Normal
350
F
100
AcDbDictionaryWithDefault
340
F
  0
DICTIONARY
  5
42
102
{ACAD_REACTORS
330
C
102
}
330
C
100
AcDbDictionary
281
     1
  3
A0
350
43
  3
A1
350
44
  3
A2
350
45
  3
A3
350
46
  3
A4
350
47
  3
A5
350
48
  3
A6
350
49
  3
A7
350
4A
  3
A8
350
4B
  3
A9
350
4C
  3
B0
350
4D
  3
B1
350
4E
  3
B2
350
4F
  3
B3
350
50
  3
B4
350
51
  3
B5
350
52
  3
B6
350
53
  0
DICTIONARY
  5
67
102
{ACAD_REACTORS
330
C
102
}
330
C
100
AcDbDictionary
281
     1
  3
Imperial24
350
69
  0
DICTIONARY
  5
63
102
{ACAD_REACTORS
330
C
102
}
330
C
100
AcDbDictionary
281
     1
  3
Standard
350
64
  0
DICTIONARY
  5
29
102
{ACAD_REACTORS
330
C
102
}
330
C
100
AcDbDictionary
281
     1
  3
2dWireframe
350
2F
  3
Basic
350
2E
  3
Brighten
350
35
  3
ColorChange
350
39
  3
Conceptual
350
32
  3
Dim
350
34
  3
EdgeColorOff
350
41
  3
Facepattern
350
38
  3
Flat
350
2A
  3
FlatWithEdges
350
2B
  3
Gouraud
350
2C
  3
GouraudWithEdges
350
2D
  3
Hidden
350
31
  3
JitterOff
350
3F
  3
Linepattern
350
37
  3
OverhangOff
350
40
  3
Realistic
350
33
  3
Shaded
350
3E
  3
Shaded with edges
350
3D
  3
Shades of Gray
350
3A
  3
Sketchy
350
3B
  3
Thicken
350
36
  3
Wireframe
350
30
  3
X-Ray
350
3C
  0
XRECORD
  5
EA3
102
{ACAD_REACTORS
330
C
102
}
330
C
100
AcDbXrecord
280
     1
 90
        1
330
64
330
69
330
6B
  0
DICTIONARY
  5
D52
102
{ACAD_REACTORS
330
C
102
}
330
C
100
AcDbDictionary
281
     1
  3
CANNOSCALE
350
D58
  3
CMLEADERSTYLE
350
D54
  3
CTABLESTYLE
350
D53
  3
CVIEWDETAILSTYLE
350
D55
  3
CVIEWSECTIONSTYLE
350
D56
  3
LAYEREVAL
350
D5A
  3
LAYERNOTIFY
350
D5B
  3
LIGHTINGUNITS
350
D59
  3
MSLTSCALE
350
D57
  0
DICTIONARY
  5
D3C
102
{ACAD_REACTORS
330
D3B
102
}
330
D3B
100
AcDbDictionary
281
     1
  0
XRECORD
  5
D2D
102
{ACAD_REACTORS
330
D2C
102
}
330
D2C
100
AcDbXrecord
280
     1
290
     1
  0
XRECORD
  5
D33
102
{ACAD_REACTORS
330
D32
102
}
330
D32
100
AcDbXrecord
280
     1
290
     1
  0
XRECORD
  5
D37
102
{ACAD_REACTORS
330
D36
102
}
330
D36
100
AcDbXrecord
280
     1
290
     1
  0
SORTENTSTABLE
  5
7DF
102
{ACAD_REACTORS
330
7DE
102
}
330
7DE
100
AcDbSortentsTable
330
70
331
E08
  5
DA5
331
DC0
  5
E0D
331
E09
  5
D83
331
DB0
  5
DBD
331
D88
  5
D8C
331
D80
  5
D82
331
DC1
  5
E0E
331
E0A
  5
D9A
331
D99
  5
DA0
331
D89
  5
D8D
331
DC2
  5
E0F
331
D83
  5
D85
331
E0B
  5
DB7
331
DB2
  5
DBF
331
D9A
  5
DA2
331
D8A
  5
D8E
331
D82
  5
D84
331
D8C
  5
D90
331
D84
  5
D86
331
E0C
  5
D7E
331
E03
  5
DB8
331
DB3
  5
DC0
331
D9B
  5
DA3
331
D9D
  5
DA6
331
D8D
  5
D91
331
D85
  5
D88
331
E0D
  5
D9F
331
E04
  5
DB5
331
DB4
  5
DC1
331
D8B
  5
D8F
331
DB6
  5
E03
331
D9E
  5
DA7
331
D8E
  5
D92
331
CE
  5
23F
331
E0E
  5
DBB
331
E05
  5
D8B
331
DB5
  5
DC2
331
E07
  5
DBC
331
DB7
  5
E04
331
D9F
  5
DB0
331
D8F
  5
D93
331
DB8
  5
E05
331
DA0
  5
DB4
331
D90
  5
D94
331
DB9
  5
E06
331
D91
  5
D95
331
DBA
  5
E07
331
DA2
  5
DB6
331
D92
  5
D96
331
D93
  5
D98
331
D7B
  5
D7B
331
DBC
  5
E09
331
D94
  5
D99
331
DBD
  5
E0A
331
DA5
  5
DBA
331
D7C
  5
D7C
331
DBE
  5
E0B
331
D96
  5
D9B
331
D7E
  5
D7F
331
DBF
  5
E0C
331
D97
  5
D9E
331
D7F
  5
D80
331
E0F
  5
D8A
331
E06
  5
E08
  0
XRECORD
  5
D6E
102
{ACAD_REACTORS
330
D6D
102
}
330
D6D
100
AcDbXrecord
280
     1
 90
        1
340
43
  0
XRECORD
  5
D73
102
{ACAD_REACTORS
330
D72
102
}
330
D72
100
AcDbXrecord
280
     1
 90
        1
340
43
  0
ACDBDETAILVIEWSTYLE
  5
6B
102
{ACAD_XDICTIONARY
360
DD3
102
}
102
{ACAD_REACTORS
330
6A
102
}
330
6A
100
AcDbModelDocViewStyle
 70
     0
  3
Imperial24
290
     0
100
AcDbDetailViewStyle
 70
     0
 71
     0
 90
        3
 71
     1
340
55
 62
   256
 40
0.24
340
0
 62
   256
 40
0.24
300

 40
0.36
280
     3
 71
     2
340
5C
 90
       25
 62
   256
 71
     3
340
55
 62
   256
 40
0.24
 90
        1
 40
0.75
 90
        1
300
%<\AcVar ViewType \f "%tc1">% %<\AcVar ViewDetailId>%\PSCALE %<\AcVar ViewScale \f "%sn">%
 71
     4
340
5C
 90
       25
 62
   256
340
5C
 90
       25
 62
   256
280
     0
  0
LAYOUT
  5
6F
102
{ACAD_REACTORS
330
61
102
}
330
61
100
AcDbPlotSettings
  1

  2
none_device
  4
A4
  6

 40
6.349999904632567
 41
14.46388912200928
 42
6.349990844726562
 43
6.3499755859375
 44
209.9027709960938
 45
297.0388793945312
 46
0.0
 47
0.0
 48
0.0
 49
0.0
140
0.0
141
0.0
142
1.0
143
1.0
 70
   688
 72
     0
 73
     1
 74
     5
  7

 75
    16
147
1.0
 76
     0
 77
     2
 78
   300
148
0.0
149
0.0
100
AcDbLayout
  1
Layout1
 70
     1
 71
     1
 10
-0.249999038816437
 20
-0.2499999962453767
 11
11.4444450318344
 21
8.013888625648077
 12
0.0
 22
0.0
 32
0.0
 14
1.087500057821197
 24
0.7763888986091914
 34
0.0
 15
9.787500520390787
 25
6.987500087482723
 35
0.0
146
0.0
 13
0.0
 23
0.0
 33
0.0
 16
1.0
 26
0.0
 36
0.0
 17
0.0
 27
1.0
 37
0.0
 76
     0
330
6C
331
D6C
1001
ACAD_PSEXT
1000
None
1000
None
1000
Not applicable
1000
The layout will not be plotted unless a new plotter configuration name is selected.
1070
     0
  0
LAYOUT
  5
73
102
{ACAD_REACTORS
330
61
102
}
330
61
100
AcDbPlotSettings
  1

  2
Samsung_SCX_4300_Series
  4

  6

 40
0.0
 41
0.0
 42
0.0
 43
0.0
 44
0.0
 45
0.0
 46
0.0
 47
0.0
 48
0.0
 49
0.0
140
0.0
141
0.0
142
1.0
143
1.0
 70
  1712
 72
     0
 73
     0
 74
     0
  7

 75
     0
147
1.0
 76
     0
 77
     2
 78
   300
148
0.0
149
0.0
100
AcDbLayout
  1
Model
 70
     1
 71
     0
 10
0.0
 20
0.0
 11
12.0
 21
9.0
 12
0.0
 22
0.0
 32
0.0
 14
0.0
 24
0.0
 34
0.0
 15
0.0
 25
0.0
 35
0.0
146
0.0
 13
0.0
 23
0.0
 33
0.0
 16
1.0
 26
0.0
 36
0.0
 17
0.0
 27
1.0
 37
0.0
 76
     0
330
70
331
7D1
  0
MATERIAL
  5
19
102
{ACAD_XDICTIONARY
360
1A
102
}
102
{ACAD_REACTORS
330
10
102
}
330
10
100
AcDbMaterial
  1
ByBlock
 72
     0
 43
0.0208333333333333
 43
0.0
 43
0.0
 43
0.0
 43
0.0
 43
0.0208333333333333
 43
0.0
 43
0.0
 43
0.0
 43
0.0
 43
1.0
 43
0.0
 43
0.0
 43
0.0
 43
0.0
 43
1.0
 77
     0
 47
0.0208333333333333
 47
0.0
 47
0.0
 47
0.0
 47
0.0
 47
0.0208333333333333
 47
0.0
 47
0.0
 47
0.0
 47
0.0
 47
1.0
 47
0.0
 47
0.0
 47
0.0
 47
0.0
 47
1.0
171
     0
 49
0.0208333333333333
 49
0.0
 49
0.0
 49
0.0
 49
0.0
 49
0.0208333333333333
 49
0.0
 49
0.0
 49
0.0
 49
0.0
 49
1.0
 49
0.0
 49
0.0
 49
0.0
 49
0.0
 49
1.0
175
     0
142
0.0208333333333333
142
0.0
142
0.0
142
0.0
142
0.0
142
0.0208333333333333
142
0.0
142
0.0
142
0.0
142
0.0
142
1.0
142
0.0
142
0.0
142
0.0
142
0.0
142
1.0
179
     0
144
0.0208333333333333
144
0.0
144
0.0
144
0.0
144
0.0
144
0.0208333333333333
144
0.0
144
0.0
144
0.0
144
0.0
144
1.0
144
0.0
144
0.0
144
0.0
144
0.0
144
1.0
147
0.0208333333333333
147
0.0
147
0.0
147
0.0
147
0.0
147
0.0208333333333333
147
0.0
147
0.0
147
0.0
147
0.0
147
1.0
147
0.0
147
0.0
147
0.0
147
0.0
147
1.0
  0
MATERIAL
  5
11
102
{ACAD_XDICTIONARY
360
12
102
}
102
{ACAD_REACTORS
330
10
102
}
330
10
100
AcDbMaterial
  1
ByLayer
 72
     0
 43
0.0208333333333333
 43
0.0
 43
0.0
 43
0.0
 43
0.0
 43
0.0208333333333333
 43
0.0
 43
0.0
 43
0.0
 43
0.0
 43
1.0
 43
0.0
 43
0.0
 43
0.0
 43
0.0
 43
1.0
 77
     0
 47
0.0208333333333333
 47
0.0
 47
0.0
 47
0.0
 47
0.0
 47
0.0208333333333333
 47
0.0
 47
0.0
 47
0.0
 47
0.0
 47
1.0
 47
0.0
 47
0.0
 47
0.0
 47
0.0
 47
1.0
171
     0
 49
0.0208333333333333
 49
0.0
 49
0.0
 49
0.0
 49
0.0
 49
0.0208333333333333
 49
0.0
 49
0.0
 49
0.0
 49
0.0
 49
1.0
 49
0.0
 49
0.0
 49
0.0
 49
0.0
 49
1.0
175
     0
142
0.0208333333333333
142
0.0
142
0.0
142
0.0
142
0.0
142
0.0208333333333333
142
0.0
142
0.0
142
0.0
142
0.0
142
1.0
142
0.0
142
0.0
142
0.0
142
0.0
142
1.0
179
     0
144
0.0208333333333333
144
0.0
144
0.0
144
0.0
144
0.0
144
0.0208333333333333
144
0.0
144
0.0
144
0.0
144
0.0
144
1.0
144
0.0
144
0.0
144
0.0
144
0.0
144
1.0
147
0.0208333333333333
147
0.0
147
0.0
147
0.0
147
0.0
147
0.0208333333333333
147
0.0
147
0.0
147
0.0
147
0.0
147
1.0
147
0.0
147
0.0
147
0.0
147
0.0
147
1.0
  0
MATERIAL
  5
21
102
{ACAD_XDICTIONARY
360
22
102
}
102
{ACAD_REACTORS
330
10
102
}
330
10
100
AcDbMaterial
  1
Global
 72
     0
 43
0.0208333333333333
 43
0.0
 43
0.0
 43
0.0
 43
0.0
 43
0.0208333333333333
 43
0.0
 43
0.0
 43
0.0
 43
0.0
 43
1.0
 43
0.0
 43
0.0
 43
0.0
 43
0.0
 43
1.0
 77
     0
 47
0.0208333333333333
 47
0.0
 47
0.0
 47
0.0
 47
0.0
 47
0.0208333333333333
 47
0.0
 47
0.0
 47
0.0
 47
0.0
 47
1.0
 47
0.0
 47
0.0
 47
0.0
 47
0.0
 47
1.0
171
     0
 49
0.0208333333333333
 49
0.0
 49
0.0
 49
0.0
 49
0.0
 49
0.0208333333333333
 49
0.0
 49
0.0
 49
0.0
 49
0.0
 49
1.0
 49
0.0
 49
0.0
 49
0.0
 49
0.0
 49
1.0
175
     0
142
0.0208333333333333
142
0.0
142
0.0
142
0.0
142
0.0
142
0.0208333333333333
142
0.0
142
0.0
142
0.0
142
0.0
142
1.0
142
0.0
142
0.0
142
0.0
142
0.0
142
1.0
179
     0
144
0.0208333333333333
144
0.0
144
0.0
144
0.0
144
0.0
144
0.0208333333333333
144
0.0
144
0.0
144
0.0
144
0.0
144
1.0
144
0.0
144
0.0
144
0.0
144
0.0
144
1.0
147
0.0208333333333333
147
0.0
147
0.0
147
0.0
147
0.0
147
0.0208333333333333
147
0.0
147
0.0
147
0.0
147
0.0
147
1.0
147
0.0
147
0.0
147
0.0
147
0.0
147
1.0
  0
MLEADERSTYLE
  5
66
102
{ACAD_REACTORS
330
65
102
}
330
65
100
AcDbMLeaderStyle
179
     2
170
     2
171
     1
172
     0
 90
        2
 40
0.0
 41
0.0
173
     1
 91
-1056964608
340
5A
 92
       -2
290
     1
 42
0.09
291
     1
 43
0.36
  3
Standard
 44
0.18
300

342
55
174
     1
178
     6
175
     1
176
     0
 93
-1056964608
 45
0.18
292
     0
297
     0
 46
0.18
 94
-1056964608
 47
1.0
 49
1.0
140
1.0
293
     1
141
0.0
294
     1
177
     0
142
1.0
295
     0
296
     0
143
0.125
271
     0
272
     9
273
     9
298
     0
  0
MLINESTYLE
  5
5F
102
{ACAD_REACTORS
330
5E
102
}
330
5E
100
AcDbMlineStyle
  2
STANDARD
 70
     0
  3

 62
   256
 51
90.0
 52
90.0
 71
     2
 49
0.5
 62
   256
  6
BYLAYER
 49
-0.5
 62
   256
  6
BYLAYER
  0
ACDBPLACEHOLDER
  5
F
102
{ACAD_REACTORS
330
E
102
}
330
E
  0
SCALE
  5
43
102
{ACAD_REACTORS
330
42
102
}
330
42
100
AcDbScale
 70
     0
300
1:1
140
1.0
141
1.0
290
     1
  0
SCALE
  5
44
102
{ACAD_REACTORS
330
42
102
}
330
42
100
AcDbScale
 70
     0
300
1/128" = 1'-0"
140
0.0078125
141
12.0
290
     0
  0
SCALE
  5
45
102
{ACAD_REACTORS
330
42
102
}
330
42
100
AcDbScale
 70
     0
300
1/64" = 1'-0"
140
0.015625
141
12.0
290
     0
  0
SCALE
  5
46
102
{ACAD_REACTORS
330
42
102
}
330
42
100
AcDbScale
 70
     0
300
1/32" = 1'-0"
140
0.03125
141
12.0
290
     0
  0
SCALE
  5
47
102
{ACAD_REACTORS
330
42
102
}
330
42
100
AcDbScale
 70
     0
300
1/16" = 1'-0"
140
0.0625
141
12.0
290
     0
  0
SCALE
  5
48
102
{ACAD_REACTORS
330
42
102
}
330
42
100
AcDbScale
 70
     0
300
3/32" = 1'-0"
140
0.09375
141
12.0
290
     0
  0
SCALE
  5
49
102
{ACAD_REACTORS
330
42
102
}
330
42
100
AcDbScale
 70
     0
300
1/8" = 1'-0"
140
0.125
141
12.0
290
     0
  0
SCALE
  5
4A
102
{ACAD_REACTORS
330
42
102
}
330
42
100
AcDbScale
 70
     0
300
3/16" = 1'-0"
140
0.1875
141
12.0
290
     0
  0
SCALE
  5
4B
102
{ACAD_REACTORS
330
42
102
}
330
42
100
AcDbScale
 70
     0
300
1/4" = 1'-0"
140
0.25
141
12.0
290
     0
  0
SCALE
  5
4C
102
{ACAD_REACTORS
330
42
102
}
330
42
100
AcDbScale
 70
     0
300
3/8" = 1'-0"
140
0.375
141
12.0
290
     0
  0
SCALE
  5
4D
102
{ACAD_REACTORS
330
42
102
}
330
42
100
AcDbScale
 70
     0
300
1/2" = 1'-0"
140
0.5
141
12.0
290
     0
  0
SCALE
  5
4E
102
{ACAD_REACTORS
330
42
102
}
330
42
100
AcDbScale
 70
     0
300
3/4" = 1'-0"
140
0.75
141
12.0
290
     0
  0
SCALE
  5
4F
102
{ACAD_REACTORS
330
42
102
}
330
42
100
AcDbScale
 70
     0
300
1" = 1'-0"
140
1.0
141
12.0
290
     0
  0
SCALE
  5
50
102
{ACAD_REACTORS
330
42
102
}
330
42
100
AcDbScale
 70
     0
300
1-1/2" = 1'-0"
140
1.5
141
12.0
290
     0
  0
SCALE
  5
51
102
{ACAD_REACTORS
330
42
102
}
330
42
100
AcDbScale
 70
     0
300
3" = 1'-0"
140
3.0
141
12.0
290
     0
  0
SCALE
  5
52
102
{ACAD_REACTORS
330
42
102
}
330
42
100
AcDbScale
 70
     0
300
6" = 1'-0"
140
6.0
141
12.0
290
     0
  0
SCALE
  5
53
102
{ACAD_REACTORS
330
42
102
}
330
42
100
AcDbScale
 70
     0
300
1'-0" = 1'-0"
140
12.0
141
12.0
290
     0
  0
ACDBSECTIONVIEWSTYLE
  5
69
102
{ACAD_XDICTIONARY
360
DD1
102
}
102
{ACAD_REACTORS
330
67
102
}
330
67
100
AcDbModelDocViewStyle
 70
     0
  3
Imperial24
290
     0
100
AcDbSectionViewStyle
 70
     0
 71
     0
 90
       78
 71
     1
340
55
 62
   256
 40
0.24
340
0
340
0
 62
   256
 40
0.24
300
I, O, Q, S, X, Z
 40
0.48
 90
        3
 40
0.18
 90
        1
 71
     2
340
68
 90
       25
 62
   256
340
5C
 90
       50
 62
   256
 40
0.24
 40
0.0
 40
0.24
 71
     3
340
55
 62
   256
 40
0.24
 90
        1
 40
0.75
 90
        1
300
%<\AcVar ViewType \f "%tc1">% %<\AcVar ViewSectionStartId>%-%<\AcVar ViewSectionEndId>%\PSCALE %<\AcVar ViewScale \f "%sn">%
 71
     4
 62
   256
 62
   257
300
ANSI31
 40
1.0
 90
        0
290
     0
290
     0
 90
        6
 40
0.0
 40
1.570796326794896
 40
0.2617993877991494
 40
1.308996938995747
 40
-0.2617993877991494
 40
1.832595714594044
  0
TABLESTYLE
  5
64
102
{ACAD_XDICTIONARY
360
D5C
102
}
102
{ACAD_REACTORS
330
63
102
}
330
63
100
AcDbTableStyle
280
     0
  3
Standard
 70
     0
 71
     0
 40
0.06
 41
0.06
280
     0
281
     0
  7
Standard
140
0.18
170
     2
 62
     0
 63
     7
283
     0
 90
      512
 91
        0
  1

274
    -2
284
     1
 64
     0
275
    -2
285
     1
 65
     0
276
    -2
286
     1
 66
     0
277
    -2
287
     1
 67
     0
278
    -2
288
     1
 68
     0
279
    -2
289
     1
 69
     0
  7
Standard
140
0.25
170
     5
 62
     0
 63
     7
283
     0
 90
      512
 91
        0
  1

274
    -2
284
     1
 64
     0
275
    -2
285
     1
 65
     0
276
    -2
286
     1
 66
     0
277
    -2
287
     1
 67
     0
278
    -2
288
     1
 68
     0
279
    -2
289
     1
 69
     0
  7
Standard
140
0.18
170
     5
 62
     0
 63
     7
283
     0
 90
      512
 91
        0
  1

274
    -2
284
     1
 64
     0
275
    -2
285
     1
 65
     0
276
    -2
286
     1
 66
     0
277
    -2
287
     1
 67
     0
278
    -2
288
     1
 68
     0
279
    -2
289
     1
 69
     0
  0
VISUALSTYLE
  5
2F
102
{ACAD_REACTORS
330
29
102
}
330
29
100
AcDbVisualStyle
  2
2dWireframe
 70
     4
177
     3
291
     0
 70
    58
 90
        0
176
     1
 90
        2
176
     1
 90
        0
176
     1
 90
        0
176
     1
 40
0.6
176
     1
 40
30.0
176
     1
 62
     7
420
 16777215
176
     1
 90
        1
176
     1
 90
        4
176
     1
 62
     7
176
     1
 62
   257
176
     1
 90
        1
176
     1
 90
        1
176
     1
 40
1.0
176
     1
 90
        0
176
     1
 62
   257
176
     1
 40
1.0
176
     1
 90
        1
176
     1
 90
        6
176
     1
 90
        2
176
     1
 62
     7
176
     1
 90
        5
176
     1
 90
        0
176
     1
 90
        0
176
     1
290
     0
176
     1
 90
        1
176
     1
 40
0.0
176
     1
 90
        0
176
     1
290
     1
176
     1
290
     1
176
     1
290
     0
176
     1
290
     0
176
     1
290
     0
176
     1
290
     0
176
     1
290
     0
176
     1
290
     0
176
     1
290
     0
176
     1
 90
       50
176
     1
 40
0.0
176
     1
 40
1.0
176
     1
 90
        0
176
     1
 62
    18
176
     1
 90
       50
176
     1
 90
        3
176
     1
 62
     5
420
      255
176
     1
290
     0
176
     1
 90
       50
176
     1
 90
       50
176
     1
 90
       50
176
     1
290
     0
176
     1
 90
       50
176
     1
 62
   256
176
     0
 40
1.0
176
     0
 90
        2
176
     1
  1
strokes_ogs.tif
176
     1
290
     0
176
     1
 40
1.0
176
     1
 40
1.0
176
     1
  0
VISUALSTYLE
  5
2E
102
{ACAD_REACTORS
330
29
102
}
330
29
100
AcDbVisualStyle
  2
Basic
 70
     7
177
     3
291
     1
 70
    58
 90
        1
176
     1
 90
        0
176
     1
 90
        1
176
     1
 90
        0
176
     1
 40
0.6
176
     1
 40
30.0
176
     1
 62
     7
420
 16777215
176
     1
 90
        0
176
     1
 90
        4
176
     1
 62
     7
176
     1
 62
   257
176
     1
 90
        1
176
     1
 90
        1
176
     1
 40
1.0
176
     1
 90
        8
176
     1
 62
     7
176
     1
 40
1.0
176
     1
 90
        1
176
     1
 90
        6
176
     1
 90
        2
176
     1
 62
     7
176
     1
 90
        5
176
     1
 90
        0
176
     1
 90
        0
176
     1
290
     0
176
     1
 90
        1
176
     1
 40
0.0
176
     1
 90
        0
176
     1
290
     0
176
     1
290
     1
176
     1
290
     1
176
     1
290
     0
176
     1
290
     0
176
     1
290
     0
176
     1
290
     0
176
     1
290
     0
176
     1
290
     0
176
     1
 90
       50
176
     1
 40
0.0
176
     1
 40
1.0
176
     1
 90
        0
176
     1
 62
    18
176
     1
 90
       50
176
     1
 90
        3
176
     1
 62
     5
420
      255
176
     1
290
     0
176
     1
 90
       50
176
     1
 90
       50
176
     1
 90
       50
176
     1
290
     0
176
     1
 90
       50
176
     1
 62
   256
176
     0
 40
1.0
176
     0
 90
        2
176
     1
  1
strokes_ogs.tif
176
     1
290
     0
176
     1
 40
1.0
176
     1
 40
1.0
176
     1
  0
VISUALSTYLE
  5
35
102
{ACAD_REACTORS
330
29
102
}
330
29
100
AcDbVisualStyle
  2
Brighten
 70
    12
177
     3
291
     1
 70
    58
 90
        2
176
     1
 90
        2
176
     1
 90
        0
176
     1
 90
        0
176
     1
 40
0.6
176
     1
 40
30.0
176
     1
 62
     7
420
 16777215
176
     1
 90
        1
176
     1
 90
        4
176
     1
 62
     7
176
     1
 62
   257
176
     1
 90
        1
176
     1
 90
        1
176
     1
 40
1.0
176
     1
 90
        8
176
     1
 62
     7
176
     1
 40
1.0
176
     1
 90
        1
176
     1
 90
        6
176
     1
 90
        2
176
     1
 62
     7
176
     1
 90
        5
176
     1
 90
        0
176
     1
 90
        0
176
     1
290
     0
176
     1
 90
        1
176
     1
 40
50.0
176
     1
 90
        0
176
     1
290
     0
176
     1
290
     1
176
     1
290
     1
176
     1
290
     0
176
     1
290
     0
176
     1
290
     0
176
     1
290
     0
176
     1
290
     0
176
     1
290
     0
176
     1
 90
       50
176
     1
 40
0.0
176
     1
 40
1.0
176
     1
 90
        0
176
     1
 62
    18
176
     1
 90
       50
176
     1
 90
        3
176
     1
 62
     5
420
      255
176
     1
290
     0
176
     1
 90
       50
176
     1
 90
       50
176
     1
 90
       50
176
     1
290
     0
176
     1
 90
       50
176
     1
 62
   256
176
     0
 40
1.0
176
     0
 90
        2
176
     1
  1
strokes_ogs.tif
176
     1
290
     0
176
     1
 40
1.0
176
     1
 40
1.0
176
     1
  0
VISUALSTYLE
  5
39
102
{ACAD_REACTORS
330
29
102
}
330
29
100
AcDbVisualStyle
  2
ColorChange
 70
    16
177
     3
291
     1
 70
    58
 90
        2
176
     1
 90
        2
176
     1
 90
        3
176
     1
 90
        0
176
     1
 40
0.6
176
     1
 40
30.0
176
     1
 62
     8
420
  8421504
176
     1
 90
        1
176
     1
 90
        4
176
     1
 62
     7
176
     1
 62
   257
176
     1
 90
        1
176
     1
 90
        1
176
     1
 40
1.0
176
     1
 90
        8
176
     1
 62
     8
420
  8421504
176
     1
 40
1.0
176
     1
 90
        1
176
     1
 90
        6
176
     1
 90
        2
176
     1
 62
     7
176
     1
 90
        5
176
     1
 90
        0
176
     1
 90
        0
176
     1
290
     0
176
     1
 90
        1
176
     1
 40
0.0
176
     1
 90
        0
176
     1
290
     0
176
     1
290
     1
176
     1
290
     1
176
     1
290
     0
176
     1
290
     0
176
     1
290
     0
176
     1
290
     0
176
     1
290
     0
176
     1
290
     0
176
     1
 90
       50
176
     1
 40
0.0
176
     1
 40
1.0
176
     1
 90
        0
176
     1
 62
    18
176
     1
 90
       50
176
     1
 90
        3
176
     1
 62
     5
420
      255
176
     1
290
     0
176
     1
 90
       50
176
     1
 90
       50
176
     1
 90
       50
176
     1
290
     0
176
     1
 90
       50
176
     1
 62
   256
176
     0
 40
1.0
176
     0
 90
        2
176
     1
  1
strokes_ogs.tif
176
     1
290
     0
176
     1
 40
1.0
176
     1
 40
1.0
176
     1
  0
VISUALSTYLE
  5
32
102
{ACAD_REACTORS
330
29
102
}
330
29
100
AcDbVisualStyle
  2
Conceptual
 70
     9
177
     3
291
     0
 70
    58
 90
        3
176
     1
 90
        2
176
     1
 90
        0
176
     1
 90
        0
176
     1
 40
0.6
176
     1
 40
30.0
176
     1
 62
     7
420
 16777215
176
     1
 90
        2
176
     1
 90
        2
176
     1
 62
     7
176
     1
 62
   257
176
     1
 90
        1
176
     1
 90
        1
176
     1
 40
179.0
176
     1
 90
        8
176
     1
 62
     7
176
     1
 40
1.0
176
     1
 90
        1
176
     1
 90
        6
176
     1
 90
        2
176
     1
 62
     7
176
     1
 90
        3
176
     1
 90
        0
176
     1
 90
        0
176
     1
290
     0
176
     1
 90
        1
176
     1
 40
0.0
176
     1
 90
        0
176
     1
290
     0
176
     1
290
     1
176
     1
290
     1
176
     1
290
     0
176
     1
290
     0
176
     1
290
     0
176
     1
290
     0
176
     1
290
     0
176
     1
290
     0
176
     1
 90
       50
176
     1
 40
0.0
176
     1
 40
1.0
176
     1
 90
        0
176
     1
 62
    18
176
     1
 90
       50
176
     1
 90
        3
176
     1
 62
     5
420
      255
176
     1
290
     0
176
     1
 90
       50
176
     1
 90
       50
176
     1
 90
       50
176
     1
290
     0
176
     1
 90
       50
176
     1
 62
   256
176
     0
 40
1.0
176
     0
 90
        2
176
     1
  1
strokes_ogs.tif
176
     1
290
     0
176
     1
 40
1.0
176
     1
 40
1.0
176
     1
  0
VISUALSTYLE
  5
34
102
{ACAD_REACTORS
330
29
102
}
330
29
100
AcDbVisualStyle
  2
Dim
 70
    11
177
     3
291
     1
 70
    58
 90
        2
176
     1
 90
        2
176
     1
 90
        0
176
     1
 90
        0
176
     1
 40
0.6
176
     1
 40
30.0
176
     1
 62
     7
420
 16777215
176
     1
 90
        1
176
     1
 90
        4
176
     1
 62
     7
176
     1
 62
   257
176
     1
 90
        1
176
     1
 90
        1
176
     1
 40
1.0
176
     1
 90
        8
176
     1
 62
     7
176
     1
 40
1.0
176
     1
 90
        1
176
     1
 90
        6
176
     1
 90
        2
176
     1
 62
     7
176
     1
 90
        5
176
     1
 90
        0
176
     1
 90
        0
176
     1
290
     0
176
     1
 90
        1
176
     1
 40
-50.0
176
     1
 90
        0
176
     1
290
     0
176
     1
290
     1
176
     1
290
     1
176
     1
290
     0
176
     1
290
     0
176
     1
290
     0
176
     1
290
     0
176
     1
290
     0
176
     1
290
     0
176
     1
 90
       50
176
     1
 40
0.0
176
     1
 40
1.0
176
     1
 90
        0
176
     1
 62
    18
176
     1
 90
       50
176
     1
 90
        3
176
     1
 62
     5
420
      255
176
     1
290
     0
176
     1
 90
       50
176
     1
 90
       50
176
     1
 90
       50
176
     1
290
     0
176
     1
 90
       50
176
     1
 62
   256
176
     0
 40
1.0
176
     0
 90
        2
176
     1
  1
strokes_ogs.tif
176
     1
290
     0
176
     1
 40
1.0
176
     1
 40
1.0
176
     1
  0
VISUALSTYLE
  5
41
102
{ACAD_REACTORS
330
29
102
}
330
29
100
AcDbVisualStyle
  2
EdgeColorOff
 70
    22
177
     3
291
     1
 70
    58
 90
        2
176
     0
 90
        2
176
     0
 90
        0
176
     0
 90
        0
176
     0
 40
0.6
176
     0
 40
30.0
176
     0
 62
     7
420
 16777215
176
     0
 90
        1
176
     0
 90
        4
176
     0
 62
     7
176
     0
 62
   257
176
     0
 90
        1
176
     0
 90
        1
176
     0
 40
1.0
176
     0
 90
        8
176
     2
 62
     7
176
     0
 40
1.0
176
     0
 90
        1
176
     0
 90
        6
176
     0
 90
        2
176
     0
 62
     7
176
     0
 90
        5
176
     0
 90
        0
176
     0
 90
        0
176
     0
290
     0
176
     0
 90
        1
176
     0
 40
0.0
176
     0
 90
        0
176
     0
290
     0
176
     1
290
     1
176
     1
290
     1
176
     1
290
     0
176
     1
290
     0
176
     1
290
     0
176
     1
290
     0
176
     1
290
     0
176
     1
290
     0
176
     1
 90
       50
176
     0
 40
0.0
176
     0
 40
1.0
176
     0
 90
        0
176
     0
 62
    18
176
     0
 90
       50
176
     0
 90
        3
176
     0
 62
     5
420
      255
176
     0
290
     0
176
     1
 90
       50
176
     0
 90
       50
176
     0
 90
       50
176
     0
290
     0
176
     1
 90
       50
176
     0
 62
   256
176
     0
 40
1.0
176
     0
 90
        2
176
     0
  1
strokes_ogs.tif
176
     0
290
     0
176
     1
 40
1.0
176
     0
 40
1.0
176
     0
  0
VISUALSTYLE
  5
38
102
{ACAD_REACTORS
330
29
102
}
330
29
100
AcDbVisualStyle
  2
Facepattern
 70
    15
177
     3
291
     1
 70
    58
 90
        2
176
     1
 90
        2
176
     1
 90
        0
176
     1
 90
        0
176
     1
 40
0.6
176
     1
 40
30.0
176
     1
 62
     7
420
 16777215
176
     1
 90
        1
176
     1
 90
        4
176
     1
 62
     7
176
     1
 62
   257
176
     1
 90
        1
176
     1
 90
        1
176
     1
 40
1.0
176
     1
 90
        8
176
     1
 62
     7
176
     1
 40
1.0
176
     1
 90
        1
176
     1
 90
        6
176
     1
 90
        2
176
     1
 62
     7
176
     1
 90
        5
176
     1
 90
        0
176
     1
 90
        0
176
     1
290
     0
176
     1
 90
        1
176
     1
 40
0.0
176
     1
 90
        0
176
     1
290
     0
176
     1
290
     1
176
     1
290
     1
176
     1
290
     0
176
     1
290
     0
176
     1
290
     0
176
     1
290
     0
176
     1
290
     0
176
     1
290
     0
176
     1
 90
       50
176
     1
 40
0.0
176
     1
 40
1.0
176
     1
 90
        0
176
     1
 62
    18
176
     1
 90
       50
176
     1
 90
        3
176
     1
 62
     5
420
      255
176
     1
290
     0
176
     1
 90
       50
176
     1
 90
       50
176
     1
 90
       50
176
     1
290
     0
176
     1
 90
       50
176
     1
 62
   256
176
     0
 40
1.0
176
     0
 90
        2
176
     1
  1
strokes_ogs.tif
176
     1
290
     0
176
     1
 40
1.0
176
     1
 40
1.0
176
     1
  0
VISUALSTYLE
  5
2A
102
{ACAD_REACTORS
330
29
102
}
330
29
100
AcDbVisualStyle
  2
Flat
 70
     0
177
     3
291
     1
 70
    58
 90
        2
176
     1
 90
        1
176
     1
 90
        1
176
     1
 90
        2
176
     1
 40
0.6
176
     1
 40
30.0
176
     1
 62
     7
420
 16777215
176
     1
 90
        0
176
     1
 90
        0
176
     1
 62
     7
176
     1
 62
   257
176
     1
 90
        1
176
     1
 90
        1
176
     1
 40
1.0
176
     1
 90
        8
176
     1
 62
     7
176
     1
 40
1.0
176
     1
 90
        1
176
     1
 90
        6
176
     1
 90
        2
176
     1
 62
     7
176
     1
 90
        5
176
     1
 90
        0
176
     1
 90
        0
176
     1
290
     0
176
     1
 90
       13
176
     1
 40
0.0
176
     1
 90
        0
176
     1
290
     0
176
     1
290
     1
176
     1
290
     1
176
     1
290
     0
176
     1
290
     0
176
     1
290
     0
176
     1
290
     0
176
     1
290
     0
176
     1
290
     0
176
     1
 90
       50
176
     1
 40
0.0
176
     1
 40
1.0
176
     1
 90
        0
176
     1
 62
    18
176
     1
 90
       50
176
     1
 90
        3
176
     1
 62
     5
420
      255
176
     1
290
     0
176
     1
 90
       50
176
     1
 90
       50
176
     1
 90
       50
176
     1
290
     0
176
     1
 90
       50
176
     1
 62
   256
176
     0
 40
1.0
176
     0
 90
        2
176
     1
  1
strokes_ogs.tif
176
     1
290
     0
176
     1
 40
1.0
176
     1
 40
1.0
176
     1
  0
VISUALSTYLE
  5
2B
102
{ACAD_REACTORS
330
29
102
}
330
29
100
AcDbVisualStyle
  2
FlatWithEdges
 70
     1
177
     3
291
     1
 70
    58
 90
        2
176
     1
 90
        1
176
     1
 90
        1
176
     1
 90
        2
176
     1
 40
0.6
176
     1
 40
30.0
176
     1
 62
     7
420
 16777215
176
     1
 90
        1
176
     1
 90
        0
176
     1
 62
     7
176
     1
 62
   257
176
     1
 90
        1
176
     1
 90
        1
176
     1
 40
1.0
176
     1
 90
        0
176
     1
 62
   257
176
     1
 40
1.0
176
     1
 90
        1
176
     1
 90
        6
176
     1
 90
        2
176
     1
 62
     7
176
     1
 90
        5
176
     1
 90
        0
176
     1
 90
        0
176
     1
290
     0
176
     1
 90
       13
176
     1
 40
0.0
176
     1
 90
        0
176
     1
290
     0
176
     1
290
     1
176
     1
290
     1
176
     1
290
     0
176
     1
290
     0
176
     1
290
     0
176
     1
290
     0
176
     1
290
     0
176
     1
290
     0
176
     1
 90
       50
176
     1
 40
0.0
176
     1
 40
1.0
176
     1
 90
        0
176
     1
 62
    18
176
     1
 90
       50
176
     1
 90
        3
176
     1
 62
     5
420
      255
176
     1
290
     0
176
     1
 90
       50
176
     1
 90
       50
176
     1
 90
       50
176
     1
290
     0
176
     1
 90
       50
176
     1
 62
   256
176
     0
 40
1.0
176
     0
 90
        2
176
     1
  1
strokes_ogs.tif
176
     1
290
     0
176
     1
 40
1.0
176
     1
 40
1.0
176
     1
  0
VISUALSTYLE
  5
2C
102
{ACAD_REACTORS
330
29
102
}
330
29
100
AcDbVisualStyle
  2
Gouraud
 70
     2
177
     3
291
     1
 70
    58
 90
        2
176
     1
 90
        2
176
     1
 90
        1
176
     1
 90
        2
176
     1
 40
0.6
176
     1
 40
30.0
176
     1
 62
     7
420
 16777215
176
     1
 90
        0
176
     1
 90
        0
176
     1
 62
     7
176
     1
 62
   257
176
     1
 90
        1
176
     1
 90
        1
176
     1
 40
1.0
176
     1
 90
        0
176
     1
 62
     7
176
     1
 40
1.0
176
     1
 90
        1
176
     1
 90
        6
176
     1
 90
        2
176
     1
 62
     7
176
     1
 90
        5
176
     1
 90
        0
176
     1
 90
        0
176
     1
290
     0
176
     1
 90
       13
176
     1
 40
0.0
176
     1
 90
        0
176
     1
290
     0
176
     1
290
     1
176
     1
290
     1
176
     1
290
     0
176
     1
290
     0
176
     1
290
     0
176
     1
290
     0
176
     1
290
     0
176
     1
290
     0
176
     1
 90
       50
176
     1
 40
0.0
176
     1
 40
1.0
176
     1
 90
        0
176
     1
 62
    18
176
     1
 90
       50
176
     1
 90
        3
176
     1
 62
     5
420
      255
176
     1
290
     0
176
     1
 90
       50
176
     1
 90
       50
176
     1
 90
       50
176
     1
290
     0
176
     1
 90
       50
176
     1
 62
   256
176
     0
 40
1.0
176
     0
 90
        2
176
     1
  1
strokes_ogs.tif
176
     1
290
     0
176
     1
 40
1.0
176
     1
 40
1.0
176
     1
  0
VISUALSTYLE
  5
2D
102
{ACAD_REACTORS
330
29
102
}
330
29
100
AcDbVisualStyle
  2
GouraudWithEdges
 70
     3
177
     3
291
     1
 70
    58
 90
        2
176
     1
 90
        2
176
     1
 90
        1
176
     1
 90
        2
176
     1
 40
0.6
176
     1
 40
30.0
176
     1
 62
     7
420
 16777215
176
     1
 90
        1
176
     1
 90
        0
176
     1
 62
     7
176
     1
 62
   257
176
     1
 90
        1
176
     1
 90
        1
176
     1
 40
1.0
176
     1
 90
        0
176
     1
 62
   257
176
     1
 40
1.0
176
     1
 90
        1
176
     1
 90
        6
176
     1
 90
        2
176
     1
 62
     7
176
     1
 90
        5
176
     1
 90
        0
176
     1
 90
        0
176
     1
290
     0
176
     1
 90
       13
176
     1
 40
0.0
176
     1
 90
        0
176
     1
290
     0
176
     1
290
     1
176
     1
290
     1
176
     1
290
     0
176
     1
290
     0
176
     1
290
     0
176
     1
290
     0
176
     1
290
     0
176
     1
290
     0
176
     1
 90
       50
176
     1
 40
0.0
176
     1
 40
1.0
176
     1
 90
        0
176
     1
 62
    18
176
     1
 90
       50
176
     1
 90
        3
176
     1
 62
     5
420
      255
176
     1
290
     0
176
     1
 90
       50
176
     1
 90
       50
176
     1
 90
       50
176
     1
290
     0
176
     1
 90
       50
176
     1
 62
   256
176
     0
 40
1.0
176
     0
 90
        2
176
     1
  1
strokes_ogs.tif
176
     1
290
     0
176
     1
 40
1.0
176
     1
 40
1.0
176
     1
  0
VISUALSTYLE
  5
31
102
{ACAD_REACTORS
330
29
102
}
330
29
100
AcDbVisualStyle
  2
Hidden
 70
     6
177
     3
291
     0
 70
    58
 90
        1
176
     1
 90
        2
176
     1
 90
        2
176
     1
 90
        0
176
     1
 40
0.6
176
     1
 40
30.0
176
     1
 62
     7
420
 16777215
176
     1
 90
        2
176
     1
 90
        2
176
     1
 62
     7
176
     1
 62
   257
176
     1
 90
        2
176
     1
 90
        1
176
     1
 40
40.0
176
     1
 90
        0
176
     1
 62
   257
176
     1
 40
1.0
176
     1
 90
        1
176
     1
 90
        6
176
     1
 90
        2
176
     1
 62
     7
176
     1
 90
        3
176
     1
 90
        0
176
     1
 90
        0
176
     1
290
     0
176
     1
 90
        1
176
     1
 40
0.0
176
     1
 90
        0
176
     1
290
     0
176
     1
290
     1
176
     1
290
     1
176
     1
290
     0
176
     1
290
     0
176
     1
290
     0
176
     1
290
     0
176
     1
290
     0
176
     1
290
     0
176
     1
 90
       50
176
     1
 40
0.0
176
     1
 40
1.0
176
     1
 90
        0
176
     1
 62
    18
176
     1
 90
       50
176
     1
 90
        3
176
     1
 62
     5
420
      255
176
     1
290
     0
176
     1
 90
       50
176
     1
 90
       50
176
     1
 90
       50
176
     1
290
     0
176
     1
 90
       50
176
     1
 62
   256
176
     0
 40
1.0
176
     0
 90
        2
176
     1
  1
strokes_ogs.tif
176
     1
290
     0
176
     1
 40
1.0
176
     1
 40
1.0
176
     1
  0
VISUALSTYLE
  5
3F
102
{ACAD_REACTORS
330
29
102
}
330
29
100
AcDbVisualStyle
  2
JitterOff
 70
    20
177
     3
291
     1
 70
    58
 90
        2
176
     0
 90
        2
176
     0
 90
        0
176
     0
 90
        0
176
     0
 40
0.6
176
     0
 40
30.0
176
     0
 62
     7
420
 16777215
176
     0
 90
        1
176
     0
 90
        4
176
     0
 62
     7
176
     0
 62
   257
176
     0
 90
        1
176
     0
 90
        1
176
     0
 40
1.0
176
     0
 90
       10
176
     2
 62
     7
176
     0
 40
1.0
176
     0
 90
        1
176
     0
 90
        6
176
     0
 90
        2
176
     0
 62
     7
176
     0
 90
        5
176
     0
 90
        0
176
     0
 90
        0
176
     0
290
     0
176
     0
 90
        1
176
     0
 40
0.0
176
     0
 90
        0
176
     0
290
     0
176
     1
290
     1
176
     1
290
     1
176
     1
290
     0
176
     1
290
     0
176
     1
290
     0
176
     1
290
     0
176
     1
290
     0
176
     1
290
     0
176
     1
 90
       50
176
     0
 40
0.0
176
     0
 40
1.0
176
     0
 90
        0
176
     0
 62
    18
176
     0
 90
       50
176
     0
 90
        3
176
     0
 62
     5
420
      255
176
     0
290
     0
176
     1
 90
       50
176
     0
 90
       50
176
     0
 90
       50
176
     0
290
     0
176
     1
 90
       50
176
     0
 62
   256
176
     0
 40
1.0
176
     0
 90
        2
176
     0
  1
strokes_ogs.tif
176
     0
290
     0
176
     1
 40
1.0
176
     0
 40
1.0
176
     0
  0
VISUALSTYLE
  5
37
102
{ACAD_REACTORS
330
29
102
}
330
29
100
AcDbVisualStyle
  2
Linepattern
 70
    14
177
     3
291
     1
 70
    58
 90
        2
176
     1
 90
        2
176
     1
 90
        0
176
     1
 90
        0
176
     1
 40
0.6
176
     1
 40
30.0
176
     1
 62
     7
420
 16777215
176
     1
 90
        1
176
     1
 90
        4
176
     1
 62
     7
176
     1
 62
   257
176
     1
 90
        7
176
     1
 90
        7
176
     1
 40
1.0
176
     1
 90
        8
176
     1
 62
     7
176
     1
 40
1.0
176
     1
 90
        1
176
     1
 90
        6
176
     1
 90
        2
176
     1
 62
     7
176
     1
 90
        5
176
     1
 90
        0
176
     1
 90
        0
176
     1
290
     0
176
     1
 90
        1
176
     1
 40
0.0
176
     1
 90
        0
176
     1
290
     0
176
     1
290
     1
176
     1
290
     1
176
     1
290
     0
176
     1
290
     0
176
     1
290
     0
176
     1
290
     0
176
     1
290
     0
176
     1
290
     0
176
     1
 90
       50
176
     1
 40
0.0
176
     1
 40
1.0
176
     1
 90
        0
176
     1
 62
    18
176
     1
 90
       50
176
     1
 90
        3
176
     1
 62
     5
420
      255
176
     1
290
     0
176
     1
 90
       50
176
     1
 90
       50
176
     1
 90
       50
176
     1
290
     0
176
     1
 90
       50
176
     1
 62
   256
176
     0
 40
1.0
176
     0
 90
        2
176
     1
  1
strokes_ogs.tif
176
     1
290
     0
176
     1
 40
1.0
176
     1
 40
1.0
176
     1
  0
VISUALSTYLE
  5
40
102
{ACAD_REACTORS
330
29
102
}
330
29
100
AcDbVisualStyle
  2
OverhangOff
 70
    21
177
     3
291
     1
 70
    58
 90
        2
176
     0
 90
        2
176
     0
 90
        0
176
     0
 90
        0
176
     0
 40
0.6
176
     0
 40
30.0
176
     0
 62
     7
420
 16777215
176
     0
 90
        1
176
     0
 90
        4
176
     0
 62
     7
176
     0
 62
   257
176
     0
 90
        1
176
     0
 90
        1
176
     0
 40
1.0
176
     0
 90
        9
176
     2
 62
     7
176
     0
 40
1.0
176
     0
 90
        1
176
     0
 90
        6
176
     0
 90
        2
176
     0
 62
     7
176
     0
 90
        5
176
     0
 90
        0
176
     0
 90
        0
176
     0
290
     0
176
     0
 90
        1
176
     0
 40
0.0
176
     0
 90
        0
176
     0
290
     0
176
     1
290
     1
176
     1
290
     1
176
     1
290
     0
176
     1
290
     0
176
     1
290
     0
176
     1
290
     0
176
     1
290
     0
176
     1
290
     0
176
     1
 90
       50
176
     0
 40
0.0
176
     0
 40
1.0
176
     0
 90
        0
176
     0
 62
    18
176
     0
 90
       50
176
     0
 90
        3
176
     0
 62
     5
420
      255
176
     0
290
     0
176
     1
 90
       50
176
     0
 90
       50
176
     0
 90
       50
176
     0
290
     0
176
     1
 90
       50
176
     0
 62
   256
176
     0
 40
1.0
176
     0
 90
        2
176
     0
  1
strokes_ogs.tif
176
     0
290
     0
176
     1
 40
1.0
176
     0
 40
1.0
176
     0
  0
VISUALSTYLE
  5
33
102
{ACAD_REACTORS
330
29
102
}
330
29
100
AcDbVisualStyle
  2
Realistic
 70
     8
177
     3
291
     0
 70
    58
 90
        2
176
     1
 90
        3
176
     1
 90
        0
176
     1
 90
        2
176
     1
 40
0.6
176
     1
 40
30.0
176
     1
 62
     7
420
 16777215
176
     1
 90
        0
176
     1
 90
        0
176
     1
 62
     7
176
     1
 62
   257
176
     1
 90
        1
176
     1
 90
        1
176
     1
 40
1.0
176
     1
 90
        8
176
     1
 62
   257
176
     1
 40
1.0
176
     1
 90
        1
176
     1
 90
        6
176
     1
 90
        2
176
     1
 62
     7
176
     1
 90
        3
176
     1
 90
        0
176
     1
 90
        0
176
     1
290
     0
176
     1
 90
       13
176
     1
 40
0.0
176
     1
 90
        0
176
     1
290
     0
176
     1
290
     1
176
     1
290
     1
176
     1
290
     0
176
     1
290
     0
176
     1
290
     0
176
     1
290
     0
176
     1
290
     0
176
     1
290
     0
176
     1
 90
       50
176
     1
 40
0.0
176
     1
 40
1.0
176
     1
 90
        0
176
     1
 62
    18
176
     1
 90
       50
176
     1
 90
        3
176
     1
 62
     5
420
      255
176
     1
290
     0
176
     1
 90
       50
176
     1
 90
       50
176
     1
 90
       50
176
     1
290
     0
176
     1
 90
       50
176
     1
 62
   256
176
     0
 40
1.0
176
     0
 90
        2
176
     1
  1
strokes_ogs.tif
176
     1
290
     0
176
     1
 40
1.0
176
     1
 40
1.0
176
     1
  0
VISUALSTYLE
  5
3E
102
{ACAD_REACTORS
330
29
102
}
330
29
100
AcDbVisualStyle
  2
Shaded
 70
    27
177
     3
291
     0
 70
    58
 90
        2
176
     1
 90
        2
176
     1
 90
        1
176
     1
 90
        2
176
     1
 40
0.6
176
     1
 40
30.0
176
     1
 62
     7
420
 16777215
176
     1
 90
        0
176
     1
 90
        4
176
     1
 62
     7
176
     1
 62
   257
176
     1
 90
        1
176
     1
 90
        1
176
     1
 40
1.0
176
     1
 90
        8
176
     1
 62
   257
176
     1
 40
1.0
176
     1
 90
        1
176
     1
 90
        6
176
     1
 90
        2
176
     1
 62
     8
420
  7895160
176
     1
 90
        3
176
     1
 90
        0
176
     1
 90
        0
176
     1
290
     0
176
     1
 90
        5
176
     1
 40
0.0
176
     1
 90
        0
176
     1
290
     0
176
     1
290
     1
176
     1
290
     1
176
     1
290
     0
176
     1
290
     0
176
     1
290
     0
176
     1
290
     0
176
     1
290
     0
176
     1
290
     0
176
     1
 90
       50
176
     1
 40
0.0
176
     1
 40
1.0
176
     1
 90
        0
176
     1
 62
    18
176
     1
 90
       50
176
     1
 90
        3
176
     1
 62
     5
420
      255
176
     1
290
     0
176
     1
 90
       50
176
     1
 90
       50
176
     1
 90
       50
176
     1
290
     0
176
     1
 90
       50
176
     1
 62
   256
176
     0
 40
1.0
176
     0
 90
        2
176
     1
  1
strokes_ogs.tif
176
     1
290
     0
176
     1
 40
1.0
176
     1
 40
1.0
176
     1
  0
VISUALSTYLE
  5
3D
102
{ACAD_REACTORS
330
29
102
}
330
29
100
AcDbVisualStyle
  2
Shaded with edges
 70
    26
177
     3
291
     0
 70
    58
 90
        2
176
     1
 90
        2
176
     1
 90
        1
176
     1
 90
        2
176
     1
 40
0.6
176
     1
 40
30.0
176
     1
 62
     7
420
 16777215
176
     1
 90
        1
176
     1
 90
       10
176
     1
 62
     7
176
     1
 62
   257
176
     1
 90
        2
176
     1
 90
        1
176
     1
 40
1.0
176
     1
 90
        8
176
     1
 62
   257
176
     1
 40
1.0
176
     1
 90
        1
176
     1
 90
        6
176
     1
 90
        2
176
     1
 62
     7
176
     1
 90
        3
176
     1
 90
        0
176
     1
 90
        0
176
     1
290
     0
176
     1
 90
        5
176
     1
 40
0.0
176
     1
 90
        0
176
     1
290
     0
176
     1
290
     1
176
     1
290
     1
176
     1
290
     0
176
     1
290
     0
176
     1
290
     0
176
     1
290
     0
176
     1
290
     0
176
     1
290
     0
176
     1
 90
       50
176
     1
 40
0.0
176
     1
 40
1.0
176
     1
 90
        0
176
     1
 62
    18
176
     1
 90
       50
176
     1
 90
        3
176
     1
 62
     5
420
      255
176
     1
290
     0
176
     1
 90
       50
176
     1
 90
       50
176
     1
 90
       50
176
     1
290
     0
176
     1
 90
       50
176
     1
 62
   256
176
     0
 40
1.0
176
     0
 90
        2
176
     1
  1
strokes_ogs.tif
176
     1
290
     0
176
     1
 40
1.0
176
     1
 40
1.0
176
     1
  0
VISUALSTYLE
  5
3A
102
{ACAD_REACTORS
330
29
102
}
330
29
100
AcDbVisualStyle
  2
Shades of Gray
 70
    23
177
     3
291
     0
 70
    58
 90
        2
176
     1
 90
        2
176
     1
 90
        3
176
     1
 90
        0
176
     1
 40
0.6
176
     1
 40
30.0
176
     1
 62
     7
420
 16777215
176
     1
 90
        2
176
     1
 90
        2
176
     1
 62
     7
176
     1
 62
     7
176
     1
 90
        1
176
     1
 90
        1
176
     1
 40
40.0
176
     1
 90
        8
176
     1
 62
     7
176
     1
 40
1.0
176
     1
 90
        1
176
     1
 90
        6
176
     1
 90
        2
176
     1
 62
     7
176
     1
 90
        3
176
     1
 90
        0
176
     1
 90
        0
176
     1
290
     0
176
     1
 90
        1
176
     1
 40
0.0
176
     1
 90
        0
176
     1
290
     0
176
     1
290
     1
176
     1
290
     1
176
     1
290
     0
176
     1
290
     0
176
     1
290
     0
176
     1
290
     0
176
     1
290
     0
176
     1
290
     0
176
     1
 90
       50
176
     1
 40
0.0
176
     1
 40
1.0
176
     1
 90
        0
176
     1
 62
    18
176
     1
 90
       50
176
     1
 90
        3
176
     1
 62
     5
420
      255
176
     1
290
     0
176
     1
 90
       50
176
     1
 90
       50
176
     1
 90
       50
176
     1
290
     0
176
     1
 90
       50
176
     1
 62
   256
176
     0
 40
1.0
176
     0
 90
        2
176
     1
  1
strokes_ogs.tif
176
     1
290
     0
176
     1
 40
1.0
176
     1
 40
1.0
176
     1
  0
VISUALSTYLE
  5
3B
102
{ACAD_REACTORS
330
29
102
}
330
29
100
AcDbVisualStyle
  2
Sketchy
 70
    24
177
     3
291
     0
 70
    58
 90
        1
176
     1
 90
        2
176
     1
 90
        2
176
     1
 90
        0
176
     1
 40
0.6
176
     1
 40
30.0
176
     1
 62
     7
420
 16777215
176
     1
 90
        2
176
     1
 90
        2
176
     1
 62
     7
176
     1
 62
     7
176
     1
 90
        1
176
     1
 90
        1
176
     1
 40
40.0
176
     1
 90
       11
176
     1
 62
     7
176
     1
 40
1.0
176
     1
 90
        1
176
     1
 90
        6
176
     1
 90
        2
176
     1
 62
     7
176
     1
 90
        6
176
     1
 90
        0
176
     1
 90
        0
176
     1
290
     0
176
     1
 90
        1
176
     1
 40
0.0
176
     1
 90
        0
176
     1
290
     0
176
     1
290
     1
176
     1
290
     1
176
     1
290
     0
176
     1
290
     0
176
     1
290
     0
176
     1
290
     0
176
     1
290
     0
176
     1
290
     0
176
     1
 90
       50
176
     1
 40
0.0
176
     1
 40
1.0
176
     1
 90
        0
176
     1
 62
    18
176
     1
 90
       50
176
     1
 90
        3
176
     1
 62
     5
420
      255
176
     1
290
     0
176
     1
 90
       50
176
     1
 90
       50
176
     1
 90
       50
176
     1
290
     0
176
     1
 90
       50
176
     1
 62
   256
176
     0
 40
1.0
176
     0
 90
        2
176
     1
  1
strokes_ogs.tif
176
     1
290
     0
176
     1
 40
1.0
176
     1
 40
1.0
176
     1
  0
VISUALSTYLE
  5
36
102
{ACAD_REACTORS
330
29
102
}
330
29
100
AcDbVisualStyle
  2
Thicken
 70
    13
177
     3
291
     1
 70
    58
 90
        2
176
     1
 90
        2
176
     1
 90
        0
176
     1
 90
        0
176
     1
 40
0.6
176
     1
 40
30.0
176
     1
 62
     7
420
 16777215
176
     1
 90
        1
176
     1
 90
        4
176
     1
 62
     7
176
     1
 62
   257
176
     1
 90
        1
176
     1
 90
        1
176
     1
 40
1.0
176
     1
 90
       12
176
     1
 62
     7
176
     1
 40
1.0
176
     1
 90
        1
176
     1
 90
        6
176
     1
 90
        2
176
     1
 62
     7
176
     1
 90
        5
176
     1
 90
        0
176
     1
 90
        0
176
     1
290
     0
176
     1
 90
        1
176
     1
 40
0.0
176
     1
 90
        0
176
     1
290
     0
176
     1
290
     1
176
     1
290
     1
176
     1
290
     0
176
     1
290
     0
176
     1
290
     0
176
     1
290
     0
176
     1
290
     0
176
     1
290
     0
176
     1
 90
       50
176
     1
 40
0.0
176
     1
 40
1.0
176
     1
 90
        0
176
     1
 62
    18
176
     1
 90
       50
176
     1
 90
        3
176
     1
 62
     5
420
      255
176
     1
290
     0
176
     1
 90
       50
176
     1
 90
       50
176
     1
 90
       50
176
     1
290
     0
176
     1
 90
       50
176
     1
 62
   256
176
     0
 40
1.0
176
     0
 90
        2
176
     1
  1
strokes_ogs.tif
176
     1
290
     0
176
     1
 40
1.0
176
     1
 40
1.0
176
     1
  0
VISUALSTYLE
  5
30
102
{ACAD_REACTORS
330
29
102
}
330
29
100
AcDbVisualStyle
  2
Wireframe
 70
     5
177
     3
291
     0
 70
    58
 90
        0
176
     1
 90
        2
176
     1
 90
        0
176
     1
 90
        0
176
     1
 40
0.6
176
     1
 40
30.0
176
     1
 62
     7
420
 16777215
176
     1
 90
        1
176
     1
 90
        4
176
     1
 62
     7
176
     1
 62
   257
176
     1
 90
        1
176
     1
 90
        1
176
     1
 40
1.0
176
     1
 90
        0
176
     1
 62
   257
176
     1
 40
1.0
176
     1
 90
        1
176
     1
 90
        6
176
     1
 90
        2
176
     1
 62
     7
176
     1
 90
        3
176
     1
 90
        0
176
     1
 90
        0
176
     1
290
     0
176
     1
 90
        1
176
     1
 40
0.0
176
     1
 90
        0
176
     1
290
     0
176
     1
290
     1
176
     1
290
     1
176
     1
290
     0
176
     1
290
     0
176
     1
290
     0
176
     1
290
     0
176
     1
290
     0
176
     1
290
     0
176
     1
 90
       50
176
     1
 40
0.0
176
     1
 40
1.0
176
     1
 90
        0
176
     1
 62
    18
176
     1
 90
       50
176
     1
 90
        3
176
     1
 62
     5
420
      255
176
     1
290
     0
176
     1
 90
       50
176
     1
 90
       50
176
     1
 90
       50
176
     1
290
     0
176
     1
 90
       50
176
     1
 62
   256
176
     0
 40
1.0
176
     0
 90
        2
176
     1
  1
strokes_ogs.tif
176
     1
290
     0
176
     1
 40
1.0
176
     1
 40
1.0
176
     1
  0
VISUALSTYLE
  5
3C
102
{ACAD_REACTORS
330
29
102
}
330
29
100
AcDbVisualStyle
  2
X-Ray
 70
    25
177
     3
291
     0
 70
    58
 90
        2
176
     1
 90
        2
176
     1
 90
        1
176
     1
 90
        1
176
     1
 40
0.5
176
     1
 40
30.0
176
     1
 62
     7
420
 16777215
176
     1
 90
        1
176
     1
 90
        0
176
     1
 62
     7
176
     1
 62
   257
176
     1
 90
        1
176
     1
 90
        1
176
     1
 40
1.0
176
     1
 90
        8
176
     1
 62
     7
176
     1
 40
1.0
176
     1
 90
        1
176
     1
 90
        6
176
     1
 90
        2
176
     1
 62
     7
176
     1
 90
        3
176
     1
 90
        0
176
     1
 90
        0
176
     1
290
     0
176
     1
 90
       13
176
     1
 40
0.0
176
     1
 90
        0
176
     1
290
     0
176
     1
290
     1
176
     1
290
     1
176
     1
290
     0
176
     1
290
     0
176
     1
290
     0
176
     1
290
     0
176
     1
290
     0
176
     1
290
     0
176
     1
 90
       50
176
     1
 40
0.0
176
     1
 40
1.0
176
     1
 90
        0
176
     1
 62
    18
176
     1
 90
       50
176
     1
 90
        3
176
     1
 62
     5
420
      255
176
     1
290
     0
176
     1
 90
       50
176
     1
 90
       50
176
     1
 90
       50
176
     1
290
     0
176
     1
 90
       50
176
     1
 62
   256
176
     0
 40
1.0
176
     0
 90
        2
176
     1
  1
strokes_ogs.tif
176
     1
290
     0
176
     1
 40
1.0
176
     1
 40
1.0
176
     1
  0
DICTIONARYVAR
  5
D58
102
{ACAD_REACTORS
330
D52
102
}
330
D52
100
DictionaryVariables
280
     0
  1
1:1
  0
DICTIONARYVAR
  5
D54
102
{ACAD_REACTORS
330
D52
102
}
330
D52
100
DictionaryVariables
280
     0
  1
STANDARD
  0
DICTIONARYVAR
  5
D53
102
{ACAD_REACTORS
330
D52
102
}
330
D52
100
DictionaryVariables
280
     0
  1
STANDARD
  0
DICTIONARYVAR
  5
D55
102
{ACAD_REACTORS
330
D52
102
}
330
D52
100
DictionaryVariables
280
     0
  1
Imperial24
  0
DICTIONARYVAR
  5
D56
102
{ACAD_REACTORS
330
D52
102
}
330
D52
100
DictionaryVariables
280
     0
  1
Imperial24
  0
DICTIONARYVAR
  5
D5A
102
{ACAD_REACTORS
330
D52
102
}
330
D52
100
DictionaryVariables
280
     0
  1
1
  0
DICTIONARYVAR
  5
D5B
102
{ACAD_REACTORS
330
D52
102
}
330
D52
100
DictionaryVariables
280
     0
  1
15
  0
DICTIONARYVAR
  5
D59
102
{ACAD_REACTORS
330
D52
102
}
330
D52
100
DictionaryVariables
280
     0
  1
0
  0
DICTIONARYVAR
  5
D57
102
{ACAD_REACTORS
330
D52
102
}
330
D52
100
DictionaryVariables
280
     0
  1
0
  0
DICTIONARY
  5
DD3
330
6B
100
AcDbDictionary
280
     1
281
     1
  3
ACAD_XREC_ROUNDTRIP
360
EA2
  0
DICTIONARY
  5
1A
330
19
100
AcDbDictionary
280
     1
281
     1
  3
BUMPTILE
360
1C
  3
DIFFUSETILE
360
1B
  3
OPACITYTILE
360
1F
  3
REFLECTIONTILE
360
1E
  3
REFRACTIONTILE
360
20
  3
SPECULARTILE
360
1D
  0
DICTIONARY
  5
12
330
11
100
AcDbDictionary
280
     1
281
     1
  3
BUMPTILE
360
14
  3
DIFFUSETILE
360
13
  3
OPACITYTILE
360
17
  3
REFLECTIONTILE
360
16
  3
REFRACTIONTILE
360
18
  3
SPECULARTILE
360
15
  0
DICTIONARY
  5
22
330
21
100
AcDbDictionary
280
     1
281
     1
  3
BUMPTILE
360
24
  3
DIFFUSETILE
360
23
  3
OPACITYTILE
360
27
  3
REFLECTIONTILE
360
26
  3
REFRACTIONTILE
360
28
  3
SPECULARTILE
360
25
  0
DICTIONARY
  5
DD1
330
69
100
AcDbDictionary
280
     1
281
     1
  3
ACAD_XREC_ROUNDTRIP
360
EA1
  0
DICTIONARY
  5
D5C
330
64
100
AcDbDictionary
280
     1
281
     1
  3
ACAD_ROUNDTRIP_2008_TABLESTYLE_CELLSTYLEMAP
360
EA0
  0
XRECORD
  5
EA2
102
{ACAD_REACTORS
330
DD3
102
}
330
DD3
100
AcDbXrecord
280
     1
102
DISPLAYNAME
  1
Imperial24
102
FLAGS
 90
        0
  0
XRECORD
  5
1C
102
{ACAD_REACTORS
330
1A
102
}
330
1A
100
AcDbXrecord
280
     1
270
     1
271
     1
  0
XRECORD
  5
1B
102
{ACAD_REACTORS
330
1A
102
}
330
1A
100
AcDbXrecord
280
     1
270
     1
271
     1
  0
XRECORD
  5
1F
102
{ACAD_REACTORS
330
1A
102
}
330
1A
100
AcDbXrecord
280
     1
270
     1
271
     1
  0
XRECORD
  5
1E
102
{ACAD_REACTORS
330
1A
102
}
330
1A
100
AcDbXrecord
280
     1
270
     1
271
     1
  0
XRECORD
  5
20
102
{ACAD_REACTORS
330
1A
102
}
330
1A
100
AcDbXrecord
280
     1
270
     1
271
     1
  0
XRECORD
  5
1D
102
{ACAD_REACTORS
330
1A
102
}
330
1A
100
AcDbXrecord
280
     1
270
     1
271
     1
  0
XRECORD
  5
14
102
{ACAD_REACTORS
330
12
102
}
330
12
100
AcDbXrecord
280
     1
270
     1
271
     1
  0
XRECORD
  5
13
102
{ACAD_REACTORS
330
12
102
}
330
12
100
AcDbXrecord
280
     1
270
     1
271
     1
  0
XRECORD
  5
17
102
{ACAD_REACTORS
330
12
102
}
330
12
100
AcDbXrecord
280
     1
270
     1
271
     1
  0
XRECORD
  5
16
102
{ACAD_REACTORS
330
12
102
}
330
12
100
AcDbXrecord
280
     1
270
     1
271
     1
  0
XRECORD
  5
18
102
{ACAD_REACTORS
330
12
102
}
330
12
100
AcDbXrecord
280
     1
270
     1
271
     1
  0
XRECORD
  5
15
102
{ACAD_REACTORS
330
12
102
}
330
12
100
AcDbXrecord
280
     1
270
     1
271
     1
  0
XRECORD
  5
24
102
{ACAD_REACTORS
330
22
102
}
330
22
100
AcDbXrecord
280
     1
270
     1
271
     1
  0
XRECORD
  5
23
102
{ACAD_REACTORS
330
22
102
}
330
22
100
AcDbXrecord
280
     1
270
     1
271
     1
  0
XRECORD
  5
27
102
{ACAD_REACTORS
330
22
102
}
330
22
100
AcDbXrecord
280
     1
270
     1
271
     1
  0
XRECORD
  5
26
102
{ACAD_REACTORS
330
22
102
}
330
22
100
AcDbXrecord
280
     1
270
     1
271
     1
  0
XRECORD
  5
28
102
{ACAD_REACTORS
330
22
102
}
330
22
100
AcDbXrecord
280
     1
270
     1
271
     1
  0
XRECORD
  5
25
102
{ACAD_REACTORS
330
22
102
}
330
22
100
AcDbXrecord
280
     1
270
     1
271
     1
  0
XRECORD
  5
EA1
102
{ACAD_REACTORS
330
DD1
102
}
330
DD1
100
AcDbXrecord
280
     1
102
DISPLAYNAME
  1
Imperial24
102
FLAGS
 90
        0
  0
CELLSTYLEMAP
  5
EA0
102
{ACAD_REACTORS
330
D5C
102
}
330
D5C
100
AcDbCellStyleMap
 90
        3
300
CELLSTYLE
  1
TABLEFORMAT_BEGIN
 90
        5
170
     1
 91
        0
 92
    32768
 62
   257
 93
        1
300
CONTENTFORMAT
  1
CONTENTFORMAT_BEGIN
 90
        0
 91
        0
 92
      512
 93
        0
300

 40
0.0
140
1.0
 94
        5
 62
     0
340
55
144
0.25
309
CONTENTFORMAT_END
171
     1
301
MARGIN
  1
CELLMARGIN_BEGIN
 40
0.06
 40
0.06
 40
0.06
 40
0.06
 40
0.18
 40
0.18
309
CELLMARGIN_END
 94
        6
 95
        1
302
GRIDFORMAT
  1
GRIDFORMAT_BEGIN
 90
        0
 91
        1
 62
     0
 92
       -2
340
0
 93
        0
 40
0.045
309
GRIDFORMAT_END
 95
        2
302
GRIDFORMAT
  1
GRIDFORMAT_BEGIN
 90
        0
 91
        1
 62
     0
 92
       -2
340
0
 93
        0
 40
0.045
309
GRIDFORMAT_END
 95
        4
302
GRIDFORMAT
  1
GRIDFORMAT_BEGIN
 90
        0
 91
        1
 62
     0
 92
       -2
340
0
 93
        0
 40
0.045
309
GRIDFORMAT_END
 95
        8
302
GRIDFORMAT
  1
GRIDFORMAT_BEGIN
 90
        0
 91
        1
 62
     0
 92
       -2
340
0
 93
        0
 40
0.045
309
GRIDFORMAT_END
 95
       16
302
GRIDFORMAT
  1
GRIDFORMAT_BEGIN
 90
        0
 91
        1
 62
     0
 92
       -2
340
0
 93
        0
 40
0.045
309
GRIDFORMAT_END
 95
       32
302
GRIDFORMAT
  1
GRIDFORMAT_BEGIN
 90
        0
 91
        1
 62
     0
 92
       -2
340
0
 93
        0
 40
0.045
309
GRIDFORMAT_END
309
TABLEFORMAT_END
  1
CELLSTYLE_BEGIN
 90
        1
 91
        1
300
_TITLE
309
CELLSTYLE_END
300
CELLSTYLE
  1
TABLEFORMAT_BEGIN
 90
        5
170
     1
 91
        0
 92
        0
 62
   257
 93
        1
300
CONTENTFORMAT
  1
CONTENTFORMAT_BEGIN
 90
        0
 91
        0
 92
      512
 93
        0
300

 40
0.0
140
1.0
 94
        5
 62
     0
340
55
144
0.18
309
CONTENTFORMAT_END
171
     1
301
MARGIN
  1
CELLMARGIN_BEGIN
 40
0.06
 40
0.06
 40
0.06
 40
0.06
 40
0.18
 40
0.18
309
CELLMARGIN_END
 94
        6
 95
        1
302
GRIDFORMAT
  1
GRIDFORMAT_BEGIN
 90
        0
 91
        1
 62
     0
 92
       -2
340
0
 93
        0
 40
0.045
309
GRIDFORMAT_END
 95
        2
302
GRIDFORMAT
  1
GRIDFORMAT_BEGIN
 90
        0
 91
        1
 62
     0
 92
       -2
340
0
 93
        0
 40
0.045
309
GRIDFORMAT_END
 95
        4
302
GRIDFORMAT
  1
GRIDFORMAT_BEGIN
 90
        0
 91
        1
 62
     0
 92
       -2
340
0
 93
        0
 40
0.045
309
GRIDFORMAT_END
 95
        8
302
GRIDFORMAT
  1
GRIDFORMAT_BEGIN
 90
        0
 91
        1
 62
     0
 92
       -2
340
0
 93
        0
 40
0.045
309
GRIDFORMAT_END
 95
       16
302
GRIDFORMAT
  1
GRIDFORMAT_BEGIN
 90
        0
 91
        1
 62
     0
 92
       -2
340
0
 93
        0
 40
0.045
309
GRIDFORMAT_END
 95
       32
302
GRIDFORMAT
  1
GRIDFORMAT_BEGIN
 90
        0
 91
        1
 62
     0
 92
       -2
340
0
 93
        0
 40
0.045
309
GRIDFORMAT_END
309
TABLEFORMAT_END
  1
CELLSTYLE_BEGIN
 90
        2
 91
        1
300
_HEADER
309
CELLSTYLE_END
300
CELLSTYLE
  1
TABLEFORMAT_BEGIN
 90
        5
170
     1
 91
        0
 92
        0
 62
   257
 93
        1
300
CONTENTFORMAT
  1
CONTENTFORMAT_BEGIN
 90
        0
 91
        0
 92
      512
 93
        0
300

 40
0.0
140
1.0
 94
        2
 62
     0
340
55
144
0.18
309
CONTENTFORMAT_END
171
     1
301
MARGIN
  1
CELLMARGIN_BEGIN
 40
0.06
 40
0.06
 40
0.06
 40
0.06
 40
0.18
 40
0.18
309
CELLMARGIN_END
 94
        6
 95
        1
302
GRIDFORMAT
  1
GRIDFORMAT_BEGIN
 90
        0
 91
        1
 62
     0
 92
       -2
340
0
 93
        0
 40
0.045
309
GRIDFORMAT_END
 95
        2
302
GRIDFORMAT
  1
GRIDFORMAT_BEGIN
 90
        0
 91
        1
 62
     0
 92
       -2
340
0
 93
        0
 40
0.045
309
GRIDFORMAT_END
 95
        4
302
GRIDFORMAT
  1
GRIDFORMAT_BEGIN
 90
        0
 91
        1
 62
     0
 92
       -2
340
0
 93
        0
 40
0.045
309
GRIDFORMAT_END
 95
        8
302
GRIDFORMAT
  1
GRIDFORMAT_BEGIN
 90
        0
 91
        1
 62
     0
 92
       -2
340
0
 93
        0
 40
0.045
309
GRIDFORMAT_END
 95
       16
302
GRIDFORMAT
  1
GRIDFORMAT_BEGIN
 90
        0
 91
        1
 62
     0
 92
       -2
340
0
 93
        0
 40
0.045
309
GRIDFORMAT_END
 95
       32
302
GRIDFORMAT
  1
GRIDFORMAT_BEGIN
 90
        0
 91
        1
 62
     0
 92
       -2
340
0
 93
        0
 40
0.045
309
GRIDFORMAT_END
309
TABLEFORMAT_END
  1
CELLSTYLE_BEGIN
 90
        3
 91
        2
300
_DATA
309
CELLSTYLE_END
  0
ENDSEC
  0
SECTION
  2
ACDSDATA
 70
     2
 71
     6
  0
ACDSSCHEMA
 90
        0
  1
AcDb_Thumbnail_Schema
  2
AcDbDs::ID
280
    10
 91
        8
  2
Thumbnail_Data
280
    15
 91
        0
101
ACDSRECORD
 95
        0
 90
        1
  2
AcDbDs::TreatedAsObjectData
280
     1
291
     1
101
ACDSRECORD
 95
        0
 90
        2
  2
AcDbDs::Legacy
280
     1
291
     1
101
ACDSRECORD
  1
AcDbDs::ID
 90
        3
  2
AcDs:Indexable
280
     1
291
     1
101
ACDSRECORD
  1
AcDbDs::ID
 90
        4
  2
AcDbDs::HandleAttribute
280
     7
282
     1
  0
ACDSSCHEMA
 90
        1
  1
AcDbDs::TreatedAsObjectDataSchema
  2
AcDbDs::TreatedAsObjectData
280
     1
 91
        0
  0
ACDSSCHEMA
 90
        2
  1
AcDbDs::LegacySchema
  2
AcDbDs::Legacy
280
     1
 91
        0
  0
ACDSSCHEMA
 90
        3
  1
AcDbDs::IndexedPropertySchema
  2
AcDs:Indexable
280
     1
 91
        0
  0
ACDSSCHEMA
 90
        4
  1
AcDbDs::HandleAttributeSchema
  2
AcDbDs::HandleAttribute
280
     7
 91
        1
284
     1
  0
ACDSRECORD
 90
        0
  2
AcDbDs::ID
280
    10
320
73
  2
Thumbnail_Data
280
    15
 94
     2127
310
89504E470D0A1A0A0000000D4948445200000100000000BA0803000000768A63F300000300504C54452128300000000000000000000000000000000000000000000000000000000000000000330000660000990000CC0000FF0033000033330033660033990033CC0033FF0066000066330066660066990066CC0066FF0099
310
000099330099660099990099CC0099FF00CC0000CC3300CC6600CC9900CCCC00CCFF00FF0000FF3300FF6600FF9900FFCC00FFFF3300003300333300663300993300CC3300FF3333003333333333663333993333CC3333FF3366003366333366663366993366CC3366FF3399003399333399663399993399CC3399FF33CC00
310
33CC3333CC6633CC9933CCCC33CCFF33FF0033FF3333FF6633FF9933FFCC33FFFF6600006600336600666600996600CC6600FF6633006633336633666633996633CC6633FF6666006666336666666666996666CC6666FF6699006699336699666699996699CC6699FF66CC0066CC3366CC6666CC9966CCCC66CCFF66FF0066
310
FF3366FF6666FF9966FFCC66FFFF9900009900339900669900999900CC9900FF9933009933339933669933999933CC9933FF9966009966339966669966999966CC9966FF9999009999339999669999999999CC9999FF99CC0099CC3399CC6699CC9999CCCC99CCFF99FF0099FF3399FF6699FF9999FFCC99FFFFCC0000CC00
310
33CC0066CC0099CC00CCCC00FFCC3300CC3333CC3366CC3399CC33CCCC33FFCC6600CC6633CC6666CC6699CC66CCCC66FFCC9900CC9933CC9966CC9999CC99CCCC99FFCCCC00CCCC33CCCC66CCCC99CCCCCCCCCCFFCCFF00CCFF33CCFF66CCFF99CCFFCCCCFFFFFF0000FF0033FF0066FF0099FF00CCFF00FFFF3300FF3333
310
FF3366FF3399FF33CCFF33FFFF6600FF6633FF6666FF6699FF66CCFF66FFFF9900FF9933FF9966FF9999FF99CCFF99FFFFCC00FFCC33FFCC66FFCC99FFCCCCFFCCFFFFFF00FFFF33FFFF66FFFF99FFFFCCFFFFFF0000000D0D0D1A1A1A2828283535354343435050505D5D5D6B6B6B787878868686939393A1A1A1AEAEAEBB
310
BBBBC9C9C9D6D6D6E4E4E4F1F1F1FFFFFF000000000000000000000000000000000000000000000000000000000000544354A80000050A4944415478DAED9D6B76E3200C85D901FBDF8CFE6463F3F04BA00790BA06C3BDA767D2386E27FE22094996DD1020088220088220088220088286131D5AF5F0CFEFD63EFC2501A456
310
BF1E00729F02C03200D65D0568E1E80F000000002B0348C33E395A2301F8AFCF5F55ED08000000005302D81513CD1A07693B541540FE645A00313B580070014C962AD0EEEC0D00BCAC6A8518407E6239F92A5036749A0780B663C5EE2F3382FB01BCCC085A014817909BC600B0BF2F2A54B8D44C8AE40B6302D8DE08158EA9
310
BD1F301980F45BFAC2697A03D03E28BAD62C2AFF682B00BE1EF227B50BE5EF46316AFE086C0066864BD2C0886F9D0680B5B2AF0640FE279987CDE0029AB5570F0CF40D82B70028BE42343480AB9EE500F422EF3B007E19DC1FC059BC32004699DF0020718C1702D01B3D9B3E67EB972A11D1E02ED00E20DC0B2073C3878360
310
0C8D31E0760B889915CEB00ABC06003F93D30D404F17F830029D002427D3DE09A0D80AF00184DE007EEC02F4034BE90DC0AAEEFDA6C1BD003AB980D1AA22B5E99147ED3D681D00D2D3008D0042270BA062ED46E6B275AC5A4763273F11940F0950A91CDEB83D5B0E93DBE062115CBA400A20C83361F99804951A22DB6F7CBE
310
21E827426604AF0110F8FA3E24807226B85BAB02801F986701072912F69F3DE9E10255A930559C1DF02C2007207F7E808ED019B9EF03C04C250C0F209EEFDA03602F6F1E80FCB0460410431D00F3C0FE2F833579C0802747F98717D5A8EF03A0DA779DA11590BA5483D79A9E02481364E9024ACED008208A7E4B0CF1F97E00
310
A51E1BE5F190E5B7412EE435000E7B8F57E4D9B1F60490074151E3D400A82D87736B3A1C2B76387EF681EC6F88B4325F8FDC5686546A88909552760981CEE91B72F2006A6A1C90BB0A646B46CF5498CCF87E1F80A24986C701D893AAD776C5AB1B665BEB014C3A535F0D60EE6B0ACA00A6BDE62C9F3E1A6B58DC7072C5E3E7
310
B54F2A9B264DEDA0007076A4A29AA3702F09C914A1FC777B08E55D682000212B4FCC2CF54AFFC9F8DA1EC87C9DC63328006803A08DB8323FDA1E2850699771BCA015801523D32D54DA659CC4070078C88F46A5CA7A61F30270C4C6777E0340DF947804005D0DA30A405C1CC0D5C16626CACF8E8A69CB6C1F0A41FCD465EB2F
310
002012213ED747CABCEDD56F3F7AAD7937BCDC8A1B1C40A805103200715400DE32A802607D7CCB0582E6024105D06B4EF2CB5AE0E7415000E834290B0002003BC16D17433700C85681D8E5D4980A2079FA442D304A105C1EC061F7CC05E42A50007064F3F282691F8018571E360F2801D07FF7B1CB27999E4C00847460FD51
310
001FF5DE57F500CC6BE31500C102F0E908E0DFA0723580BA0BCA0D1760C7A9D502DDCAE1DC02ECABA5EA6E1AF14D1ED0AD43E24DC1CA0DF703F06E2EF130003EC09496AC6996763300C5813A1190F3805799C36BD8DF03D0C70E94C53AAFF3D21236AFEB82A827291F0573AAC101EEA2434E4627AE29611D21AD760A1C40D2
310
FD38498ED6110A7C24D005908D7A0A007CD8904EB3890600E9059D8AA16A00F9C8A46C9FE400AEAD4927510F03F16C1675580BA802807375DC9E4638008ABEA70EAB0E05C09B89DEF3BBBD7ECA6240258078B9418F6CC09A07947747710024F3B6A4F714250073607D507900927A892A2FAAB607D6DF03C0CA2CBF0030FECD
310
67A9A4D67DCF749B6511AB29396BB6E29FE922BFE1B200005AFC8FB441100441100441100441100441100441100441100441100441100441100441100441100441100441100441D062FA032BB49C8CEDB942180000000049454E44AE426082
  0
ACDSRECORD
 90
        0
  2
AcDbDs::ID
280
    10
320
6F
  2
Thumbnail_Data
280
    15
 94
     1054
310
89504E470D0A1A0A0000000D4948445200000100000000B408030000004C80028300000300504C5445FFFFFF0000000000000000000000000000000000000000000000000000000000000000330000660000990000CC0000FF0033000033330033660033990033CC0033FF0066000066330066660066990066CC0066FF0099
310
000099330099660099990099CC0099FF00CC0000CC3300CC6600CC9900CCCC00CCFF00FF0000FF3300FF6600FF9900FFCC00FFFF3300003300333300663300993300CC3300FF3333003333333333663333993333CC3333FF3366003366333366663366993366CC3366FF3399003399333399663399993399CC3399FF33CC00
310
33CC3333CC6633CC9933CCCC33CCFF33FF0033FF3333FF6633FF9933FFCC33FFFF6600006600336600666600996600CC6600FF6633006633336633666633996633CC6633FF6666006666336666666666996666CC6666FF6699006699336699666699996699CC6699FF66CC0066CC3366CC6666CC9966CCCC66CCFF66FF0066
310
FF3366FF6666FF9966FFCC66FFFF9900009900339900669900999900CC9900FF9933009933339933669933999933CC9933FF9966009966339966669966999966CC9966FF9999009999339999669999999999CC9999FF99CC0099CC3399CC6699CC9999CCCC99CCFF99FF0099FF3399FF6699FF9999FFCC99FFFFCC0000CC00
310
33CC0066CC0099CC00CCCC00FFCC3300CC3333CC3366CC3399CC33CCCC33FFCC6600CC6633CC6666CC6699CC66CCCC66FFCC9900CC9933CC9966CC9999CC99CCCC99FFCCCC00CCCC33CCCC66CCCC99CCCCCCCCCCFFCCFF00CCFF33CCFF66CCFF99CCFFCCCCFFFFFF0000FF0033FF0066FF0099FF00CCFF00FFFF3300FF3333
310
FF3366FF3399FF33CCFF33FFFF6600FF6633FF6666FF6699FF66CCFF66FFFF9900FF9933FF9966FF9999FF99CCFF99FFFFCC00FFCC33FFCC66FFCC99FFCCCCFFCCFFFFFF00FFFF33FFFF66FFFF99FFFFCCFFFFFF0000000D0D0D1A1A1A2828283535354343435050505D5D5D6B6B6B787878868686939393A1A1A1AEAEAEBB
310
BBBBC9C9C9D6D6D6E4E4E4F1F1F1FFFFFF00000000000000000000000000000000000000000000000000000000000056B0F76B000000D94944415478DAEDDCB10D0030080341F61F93495250D1C705D2FD02918ED4AE922449922449922469EACB7D01B87C3C00000000000000000000000000000000000000000000000000
310
00000000000000000000000000000000000000000000000000000000000000000000000000000000000000000000000000F21B22D117FC000000000000000000000000000000000000000000000000000000000000000000000000000000000000000000000000000000000000000000000000000000000000000000000000
310
0000F9098DF03E872449922449922449BB0741F2DDBD0477B4AA0000000049454E44AE426082
  0
ENDSEC
  0
EOF
