  0
SECTION
  2
HEADER
  9
$ACADVER
  1
AC1027
  9
$ACADMAINTVER
 70
    67
  9
$DWGCODEPAGE
  3
ANSI_1252
  9
$LASTSAVEDBY
  1
ifala
  9
$REQUIREDVERSIONS
160
                 0
  9
$INSBASE
 10
0.0
 20
0.0
 30
0.0
  9
$EXTMIN
 10
1923.702154105686
 20
885.8421255548277
 30
0.0
  9
$EXTMAX
 10
2093.644647431958
 20
1068.994875242118
 30
0.0
  9
$LIMMIN
 10
0.0
 20
0.0
  9
$LIMMAX
 10
12.0
 20
9.0
  9
$ORTHOMODE
 70
     0
  9
$REGENMODE
 70
     1
  9
$FILLMODE
 70
     1
  9
$QTEXTMODE
 70
     0
  9
$MIRRTEXT
 70
     0
  9
$LTSCALE
 40
1.0
  9
$ATTMODE
 70
     1
  9
$TEXTSIZE
 40
0.2
  9
$TRACEWID
 40
0.05
  9
$TEXTSTYLE
  7
Standard
  9
$CLAYER
  8
t1
  9
$CELTYPE
  6
ByLayer
  9
$CECOLOR
 62
   256
  9
$CELTSCALE
 40
1.0
  9
$DISPSILH
 70
     0
  9
$DIMSCALE
 40
1.0
  9
$DIMASZ
 40
0.18
  9
$DIMEXO
 40
0.0625
  9
$DIMDLI
 40
0.38
  9
$DIMRND
 40
0.0
  9
$DIMDLE
 40
0.0
  9
$DIMEXE
 40
0.18
  9
$DIMTP
 40
0.0
  9
$DIMTM
 40
0.0
  9
$DIMTXT
 40
0.18
  9
$DIMCEN
 40
0.09
  9
$DIMTSZ
 40
0.0
  9
$DIMTOL
 70
     0
  9
$DIMLIM
 70
     0
  9
$DIMTIH
 70
     1
  9
$DIMTOH
 70
     1
  9
$DIMSE1
 70
     0
  9
$DIMSE2
 70
     0
  9
$DIMTAD
 70
     0
  9
$DIMZIN
 70
     0
  9
$DIMBLK
  1

  9
$DIMASO
 70
     1
  9
$DIMSHO
 70
     1
  9
$DIMPOST
  1

  9
$DIMAPOST
  1

  9
$DIMALT
 70
     0
  9
$DIMALTD
 70
     2
  9
$DIMALTF
 40
25.4
  9
$DIMLFAC
 40
1.0
  9
$DIMTOFL
 70
     0
  9
$DIMTVP
 40
0.0
  9
$DIMTIX
 70
     0
  9
$DIMSOXD
 70
     0
  9
$DIMSAH
 70
     0
  9
$DIMBLK1
  1

  9
$DIMBLK2
  1

  9
$DIMSTYLE
  2
Standard
  9
$DIMCLRD
 70
     0
  9
$DIMCLRE
 70
     0
  9
$DIMCLRT
 70
     0
  9
$DIMTFAC
 40
1.0
  9
$DIMGAP
 40
0.09
  9
$DIMJUST
 70
     0
  9
$DIMSD1
 70
     0
  9
$DIMSD2
 70
     0
  9
$DIMTOLJ
 70
     1
  9
$DIMTZIN
 70
     0
  9
$DIMALTZ
 70
     0
  9
$DIMALTTZ
 70
     0
  9
$DIMUPT
 70
     0
  9
$DIMDEC
 70
     4
  9
$DIMTDEC
 70
     4
  9
$DIMALTU
 70
     2
  9
$DIMALTTD
 70
     2
  9
$DIMTXSTY
  7
Standard
  9
$DIMAUNIT
 70
     0
  9
$DIMADEC
 70
     0
  9
$DIMALTRND
 40
0.0
  9
$DIMAZIN
 70
     0
  9
$DIMDSEP
 70
    46
  9
$DIMATFIT
 70
     3
  9
$DIMFRAC
 70
     0
  9
$DIMLDRBLK
  1

  9
$DIMLUNIT
 70
     2
  9
$DIMLWD
 70
    -2
  9
$DIMLWE
 70
    -2
  9
$DIMTMOVE
 70
     0
  9
$DIMFXL
 40
1.0
  9
$DIMFXLON
 70
     0
  9
$DIMJOGANG
 40
0.7853981633974483
  9
$DIMTFILL
 70
     0
  9
$DIMTFILLCLR
 70
     0
  9
$DIMARCSYM
 70
     0
  9
$DIMLTYPE
  6

  9
$DIMLTEX1
  6

  9
$DIMLTEX2
  6

  9
$DIMTXTDIRECTION
 70
     0
  9
$LUNITS
 70
     2
  9
$LUPREC
 70
     4
  9
$SKETCHINC
 40
0.1
  9
$FILLETRAD
 40
0.0
  9
$AUNITS
 70
     0
  9
$AUPREC
 70
     0
  9
$MENU
  1
.
  9
$ELEVATION
 40
0.0
  9
$PELEVATION
 40
0.0
  9
$THICKNESS
 40
0.0
  9
$LIMCHECK
 70
     0
  9
$CHAMFERA
 40
0.0
  9
$CHAMFERB
 40
0.0
  9
$CHAMFERC
 40
0.0
  9
$CHAMFERD
 40
0.0
  9
$SKPOLY
 70
     0
  9
$TDCREATE
 40
2456948.742957303
  9
$TDUCREATE
 40
2456948.659623970
  9
$TDUPDATE
 40
2456955.401766528
  9
$TDUUPDATE
 40
2456955.318433195
  9
$TDINDWG
 40
0.0115893519
  9
$TDUSRTIMER
 40
0.0115864005
  9
$USRTIMER
 70
     1
  9
$ANGBASE
 50
0.0
  9
$ANGDIR
 70
     0
  9
$PDMODE
 70
     0
  9
$PDSIZE
 40
0.0
  9
$PLINEWID
 40
0.0
  9
$SPLFRAME
 70
     0
  9
$SPLINETYPE
 70
     6
  9
$SPLINESEGS
 70
     8
  9
$HANDSEED
  5
7B3
  9
$SURFTAB1
 70
     6
  9
$SURFTAB2
 70
     6
  9
$SURFTYPE
 70
     6
  9
$SURFU
 70
     6
  9
$SURFV
 70
     6
  9
$UCSBASE
  2

  9
$UCSNAME
  2

  9
$UCSORG
 10
0.0
 20
0.0
 30
0.0
  9
$UCSXDIR
 10
1.0
 20
0.0
 30
0.0
  9
$UCSYDIR
 10
0.0
 20
1.0
 30
0.0
  9
$UCSORTHOREF
  2

  9
$UCSORTHOVIEW
 70
     1
  9
$UCSORGTOP
 10
0.0
 20
0.0
 30
0.0
  9
$UCSORGBOTTOM
 10
0.0
 20
0.0
 30
0.0
  9
$UCSORGLEFT
 10
0.0
 20
0.0
 30
0.0
  9
$UCSORGRIGHT
 10
0.0
 20
0.0
 30
0.0
  9
$UCSORGFRONT
 10
0.0
 20
0.0
 30
0.0
  9
$UCSORGBACK
 10
0.0
 20
0.0
 30
0.0
  9
$PUCSBASE
  2

  9
$PUCSNAME
  2

  9
$PUCSORG
 10
0.0
 20
0.0
 30
0.0
  9
$PUCSXDIR
 10
1.0
 20
0.0
 30
0.0
  9
$PUCSYDIR
 10
0.0
 20
1.0
 30
0.0
  9
$PUCSORTHOREF
  2

  9
$PUCSORTHOVIEW
 70
     0
  9
$PUCSORGTOP
 10
0.0
 20
0.0
 30
0.0
  9
$PUCSORGBOTTOM
 10
0.0
 20
0.0
 30
0.0
  9
$PUCSORGLEFT
 10
0.0
 20
0.0
 30
0.0
  9
$PUCSORGRIGHT
 10
0.0
 20
0.0
 30
0.0
  9
$PUCSORGFRONT
 10
0.0
 20
0.0
 30
0.0
  9
$PUCSORGBACK
 10
0.0
 20
0.0
 30
0.0
  9
$USERI1
 70
     0
  9
$USERI2
 70
     0
  9
$USERI3
 70
     0
  9
$USERI4
 70
     0
  9
$USERI5
 70
     0
  9
$USERR1
 40
0.0
  9
$USERR2
 40
0.0
  9
$USERR3
 40
0.0
  9
$USERR4
 40
0.0
  9
$USERR5
 40
0.0
  9
$WORLDVIEW
 70
     1
  9
$SHADEDGE
 70
     3
  9
$SHADEDIF
 70
    70
  9
$TILEMODE
 70
     1
  9
$MAXACTVP
 70
    64
  9
$PINSBASE
 10
0.0
 20
0.0
 30
0.0
  9
$PLIMCHECK
 70
     0
  9
$PEXTMIN
 10
1.000000000000000E+20
 20
1.000000000000000E+20
 30
1.000000000000000E+20
  9
$PEXTMAX
 10
-1.000000000000000E+20
 20
-1.000000000000000E+20
 30
-1.000000000000000E+20
  9
$PLIMMIN
 10
0.0
 20
0.0
  9
$PLIMMAX
 10
12.0
 20
9.0
  9
$UNITMODE
 70
     0
  9
$VISRETAIN
 70
     1
  9
$PLINEGEN
 70
     0
  9
$PSLTSCALE
 70
     1
  9
$TREEDEPTH
 70
  3020
  9
$CMLSTYLE
  2
Standard
  9
$CMLJUST
 70
     0
  9
$CMLSCALE
 40
1.0
  9
$PROXYGRAPHICS
 70
     1
  9
$MEASUREMENT
 70
     0
  9
$CELWEIGHT
370
    -1
  9
$ENDCAPS
280
     0
  9
$JOINSTYLE
280
     0
  9
$LWDISPLAY
290
     0
  9
$INSUNITS
 70
     0
  9
$HYPERLINKBASE
  1

  9
$STYLESHEET
  1

  9
$XEDIT
290
     1
  9
$CEPSNTYPE
380
     0
  9
$PSTYLEMODE
290
     1
  9
$FINGERPRINTGUID
  2
{FBAB9890-4C0C-204A-8AD0-FFC57C2DE8D4}
  9
$VERSIONGUID
  2
{A5563C42-B101-5B45-834E-5A1F92C086A1}
  9
$EXTNAMES
290
     1
  9
$PSVPSCALE
 40
0.0
  9
$OLESTARTUP
290
     0
  9
$SORTENTS
280
   127
  9
$INDEXCTL
280
     0
  9
$HIDETEXT
280
     0
  9
$XCLIPFRAME
280
     2
  9
$HALOGAP
280
     0
  9
$OBSCOLOR
 70
   257
  9
$OBSLTYPE
280
     0
  9
$INTERSECTIONDISPLAY
280
     0
  9
$INTERSECTIONCOLOR
 70
   257
  9
$DIMASSOC
280
     1
  9
$PROJECTNAME
  1

  9
$CAMERADISPLAY
290
     0
  9
$LENSLENGTH
 40
50.0
  9
$CAMERAHEIGHT
 40
0.0
  9
$STEPSPERSEC
 40
2.0
  9
$STEPSIZE
 40
6.0
  9
$3DDWFPREC
 40
2.0
  9
$PSOLWIDTH
 40
0.25
  9
$PSOLHEIGHT
 40
4.0
  9
$LOFTANG1
 40
1.570796326794896
  9
$LOFTANG2
 40
1.570796326794896
  9
$LOFTMAG1
 40
0.0
  9
$LOFTMAG2
 40
0.0
  9
$LOFTPARAM
 70
     7
  9
$LOFTNORMALS
280
     1
  9
$LATITUDE
 40
37.795
  9
$LONGITUDE
 40
-122.394
  9
$NORTHDIRECTION
 40
0.0
  9
$TIMEZONE
 70
 -8000
  9
$LIGHTGLYPHDISPLAY
280
     1
  9
$TILEMODELIGHTSYNCH
280
     1
  9
$CMATERIAL
347
11
  9
$SOLIDHIST
280
     0
  9
$SHOWHIST
280
     1
  9
$DWFFRAME
280
     2
  9
$DGNFRAME
280
     0
  9
$REALWORLDSCALE
290
     1
  9
$INTERFERECOLOR
 62
     1
  9
$INTERFEREOBJVS
345
33
  9
$INTERFEREVPVS
346
30
  9
$CSHADOW
280
     0
  9
$SHADOWPLANELOCATION
 40
0.0
  0
ENDSEC
  0
SECTION
  2
CLASSES
  0
CLASS
  1
ACDBDICTIONARYWDFLT
  2
AcDbDictionaryWithDefault
  3
ObjectDBX Classes
 90
        0
 91
        1
280
     0
281
     0
  0
CLASS
  1
MATERIAL
  2
AcDbMaterial
  3
ObjectDBX Classes
 90
     1153
 91
        3
280
     0
281
     0
  0
CLASS
  1
VISUALSTYLE
  2
AcDbVisualStyle
  3
ObjectDBX Classes
 90
     4095
 91
       24
280
     0
281
     0
  0
CLASS
  1
SCALE
  2
AcDbScale
  3
ObjectDBX Classes
 90
     1153
 91
       17
280
     0
281
     0
  0
CLASS
  1
TABLESTYLE
  2
AcDbTableStyle
  3
ObjectDBX Classes
 90
     4095
 91
        1
280
     0
281
     0
  0
CLASS
  1
MLEADERSTYLE
  2
AcDbMLeaderStyle
  3
ACDB_MLEADERSTYLE_CLASS
 90
     4095
 91
        1
280
     0
281
     0
  0
CLASS
  1
ACDBSECTIONVIEWSTYLE
  2
AcDbSectionViewStyle
  3
ObjectDBX Classes
 90
     1025
 91
        1
280
     0
281
     0
  0
CLASS
  1
ACDBDETAILVIEWSTYLE
  2
AcDbDetailViewStyle
  3
ObjectDBX Classes
 90
     1025
 91
        1
280
     0
281
     0
  0
CLASS
  1
SORTENTSTABLE
  2
AcDbSortentsTable
  3
ObjectDBX Classes
 90
        0
 91
        1
280
     0
281
     0
  0
CLASS
  1
DICTIONARYVAR
  2
AcDbDictionaryVar
  3
ObjectDBX Classes
 90
        0
 91
        9
280
     0
281
     0
  0
CLASS
  1
CELLSTYLEMAP
  2
AcDbCellStyleMap
  3
ObjectDBX Classes
 90
     1152
 91
        2
280
     0
281
     0
  0
ENDSEC
  0
SECTION
  2
TABLES
  0
TABLE
  2
VPORT
  5
8
330
0
100
AcDbSymbolTable
 70
     1
  0
VPORT
  5
65C
330
8
100
AcDbSymbolTableRecord
100
AcDbViewportTableRecord
  2
*Active
 70
     0
 10
0.0
 20
0.0
 11
1.0
 21
1.0
 12
2029.505186471403
 22
922.2858151317128
 13
0.0
 23
0.0
 14
1.0
 24
1.0
 15
0.0
 25
0.0
 16
0.0
 26
0.0
 36
1.0
 17
0.0
 27
0.0
 37
0.0
 40
370.9293433793583
 41
1.370766488413547
 42
50.0
 43
0.0
 44
0.0
 50
0.0
 51
0.0
 71
     0
 72
  1000
 73
     1
 74
     3
 75
     0
 76
     0
 77
     0
 78
     0
281
     0
 65
     1
110
0.0
120
0.0
130
0.0
111
1.0
121
0.0
131
0.0
112
0.0
122
1.0
132
0.0
 79
     0
146
0.0
348
2F
 60
     3
 61
     5
292
     1
282
     1
141
0.0
142
0.0
 63
   250
421
  3355443
1001
ACAD_NAV_VCDISPLAY
1070
     1
  0
ENDTAB
  0
TABLE
  2
LTYPE
  5
5
330
0
100
AcDbSymbolTable
 70
     1
  0
LTYPE
  5
5A
330
5
100
AcDbSymbolTableRecord
100
AcDbLinetypeTableRecord
  2
ByBlock
 70
     0
  3

 72
    65
 73
     0
 40
0.0
  0
LTYPE
  5
5B
330
5
100
AcDbSymbolTableRecord
100
AcDbLinetypeTableRecord
  2
ByLayer
 70
     0
  3

 72
    65
 73
     0
 40
0.0
  0
LTYPE
  5
5C
330
5
100
AcDbSymbolTableRecord
100
AcDbLinetypeTableRecord
  2
Continuous
 70
     0
  3
Solid line
 72
    65
 73
     0
 40
0.0
  0
ENDTAB
  0
TABLE
  2
LAYER
  5
2
102
{ACAD_XDICTIONARY
360
66F
102
}
330
0
100
AcDbSymbolTable
 70
     4
  0
LAYER
  5
54
102
{ACAD_XDICTIONARY
360
664
102
}
330
2
100
AcDbSymbolTableRecord
100
AcDbLayerTableRecord
  2
0
 70
     0
 62
     7
  6
Continuous
370
    -3
390
F
347
21
348
0
  0
LAYER
  5
73
102
{ACAD_XDICTIONARY
360
666
102
}
330
2
100
AcDbSymbolTableRecord
100
AcDbLayerTableRecord
  2
scritte
 70
     0
 62
     6
  6
Continuous
370
    -3
390
F
347
21
348
0
  0
LAYER
  5
660
102
{ACAD_XDICTIONARY
360
668
102
}
330
2
100
AcDbSymbolTableRecord
100
AcDbLayerTableRecord
  2
t1
 70
     0
 62
     5
  6
Continuous
370
    -3
390
F
347
21
348
0
1001
AcAecLayerStandard
1000

1000

1001
AcCmTransparency
1071
        0
  0
LAYER
  5
663
102
{ACAD_XDICTIONARY
360
66A
102
}
330
2
100
AcDbSymbolTableRecord
100
AcDbLayerTableRecord
  2
t2
 70
     0
 62
     1
  6
Continuous
370
    -3
390
F
347
21
348
0
1001
AcAecLayerStandard
1000

1000

1001
AcCmTransparency
1071
        0
  0
ENDTAB
  0
TABLE
  2
STYLE
  5
3
330
0
100
AcDbSymbolTable
 70
     2
  0
STYLE
  5
55
330
3
100
AcDbSymbolTableRecord
100
AcDbTextStyleTableRecord
  2
Standard
 70
     0
 40
0.0
 41
1.0
 50
0.0
 71
     0
 42
0.2
  3
txt
  4

  0
STYLE
  5
59
330
3
100
AcDbSymbolTableRecord
100
AcDbTextStyleTableRecord
  2
Annotative
 70
     0
 40
0.0
 41
1.0
 50
0.0
 71
     0
 42
0.2
  3
txt
  4

1001
AcadAnnotative
1000
AnnotativeData
1002
{
1070
     1
1070
     1
1002
}
  0
ENDTAB
  0
TABLE
  2
VIEW
  5
6
330
0
100
AcDbSymbolTable
 70
     1
  0
ENDTAB
  0
TABLE
  2
UCS
  5
7
330
0
100
AcDbSymbolTable
 70
     0
  0
ENDTAB
  0
TABLE
  2
APPID
  5
9
330
0
100
AcDbSymbolTable
 70
     6
  0
APPID
  5
56
330
9
100
AcDbSymbolTableRecord
100
AcDbRegAppTableRecord
  2
ACAD
 70
     0
  0
APPID
  5
5D
330
9
100
AcDbSymbolTableRecord
100
AcDbRegAppTableRecord
  2
AcadAnnotative
 70
     0
  0
APPID
  5
65B
330
9
100
AcDbSymbolTableRecord
100
AcDbRegAppTableRecord
  2
ACAD_NAV_VCDISPLAY
 70
     0
  0
APPID
  5
661
330
9
100
AcDbSymbolTableRecord
100
AcDbRegAppTableRecord
  2
AcAecLayerStandard
 70
     0
  0
APPID
  5
662
330
9
100
AcDbSymbolTableRecord
100
AcDbRegAppTableRecord
  2
AcCmTransparency
 70
     0
  0
APPID
  5
765
330
9
100
AcDbSymbolTableRecord
100
AcDbRegAppTableRecord
  2
ACAD_EXEMPT_FROM_CAD_STANDARDS
 70
     0
  0
ENDTAB
  0
TABLE
  2
DIMSTYLE
  5
A
330
0
100
AcDbSymbolTable
 70
     2
100
AcDbDimStyleTable
 71
     1
340
57
  0
DIMSTYLE
105
57
330
A
100
AcDbSymbolTableRecord
100
AcDbDimStyleTableRecord
  2
Standard
 70
     0
340
55
  0
DIMSTYLE
105
58
330
A
100
AcDbSymbolTableRecord
100
AcDbDimStyleTableRecord
  2
Annotative
 70
     0
340
55
1001
AcadAnnotative
1000
AnnotativeData
1002
{
1070
     1
1070
     1
1002
}
  0
ENDTAB
  0
TABLE
  2
BLOCK_RECORD
  5
1
330
0
100
AcDbSymbolTable
 70
     0
  0
BLOCK_RECORD
  5
6F
102
{ACAD_XDICTIONARY
360
65E
102
}
330
1
100
AcDbSymbolTableRecord
100
AcDbBlockTableRecord
  2
*Model_Space
340
72
 70
     0
280
     1
281
     0
  0
BLOCK_RECORD
  5
6B
330
1
100
AcDbSymbolTableRecord
100
AcDbBlockTableRecord
  2
*Paper_Space
340
6E
 70
     0
280
     1
281
     0
  0
ENDTAB
  0
ENDSEC
  0
SECTION
  2
BLOCKS
  0
BLOCK
  5
70
330
6F
100
AcDbEntity
  8
0
100
AcDbBlockBegin
  2
*Model_Space
 70
     0
 10
0.0
 20
0.0
 30
0.0
  3
*Model_Space
  1

  0
ENDBLK
  5
71
330
6F
100
AcDbEntity
  8
0
100
AcDbBlockEnd
  0
BLOCK
  5
6C
330
6B
100
AcDbEntity
 67
     1
  8
0
100
AcDbBlockBegin
  2
*Paper_Space
 70
     0
 10
0.0
 20
0.0
 30
0.0
  3
*Paper_Space
  1

  0
ENDBLK
  5
6D
330
6B
100
AcDbEntity
 67
     1
  8
0
100
AcDbBlockEnd
  0
ENDSEC
  0
SECTION
  2
ENTITIES
  0
LWPOLYLINE
  5
698
330
6F
100
AcDbEntity
  8
scritte
100
AcDbPolyline
 90
       13
 70
     1
 43
0.0
 10
1951.612404265659
 20
996.0271783350476
 10
1951.117454770709
 20
996.0271783350476
 10
1951.117454770709
 20
999.0675823754516
 10
1950.087151740406
 20
996.2771783350476
 10
1949.57452547778
 20
996.2771783350476
 10
1948.57452547778
 20
999.0751581330277
 10
1948.57452547778
 20
996.0271783350476
 10
1948.119980023234
 20
996.0271783350476
 10
1948.119980023234
 20
999.7645520724212
 10
1948.854828508083
 20
999.7645520724212
 10
1949.890182043436
 20
996.8731379310073
 10
1950.955838609093
 20
999.7645520724212
 10
1951.612404265659
 20
999.7645520724212
  0
LWPOLYLINE
  5
699
330
6F
100
AcDbEntity
  8
scritte
100
AcDbPolyline
 90
       38
 70
     1
 43
0.0
 10
1954.201735304932
 20
998.5671084282158
 10
1954.236141639396
 20
998.8125318704014
 10
1954.189109119372
 20
999.0922037417023
 10
1954.048010326264
 20
999.3049561128255
 10
1953.824841134346
 20
999.439426079521
 10
1953.53159618485
 20
999.4842490421183
 10
1953.107985150804
 20
999.409123164815
 10
1952.614929518184
 20
999.1837439916132
 10
1952.614929518184
 20
999.6231379310072
 10
1953.110510326265
 20
999.7992746414343
 10
1953.602303255557
 20
999.8579864158559
 10
1953.851988292572
 20
999.840309763776
 10
1954.075788412301
 20
999.7872796534066
 10
1954.273704539515
 20
999.6988958535554
 10
1954.445737598992
 20
999.5751581330276
 10
1954.584942664632
 20
999.4222224113698
 10
1954.684374425016
 20
999.2462442998716
 10
1954.744033226933
 20
999.0472231049512
 10
1954.763919417173
 20
998.8251581330276
 10
1954.723831187465
 20
998.5082388255113
 10
1954.60356588182
 20
998.2291985370679
 10
1954.374084020976
 20
997.9413199033182
 10
1954.006343659598
 20
997.5978854057547
 10
1953.814424467679
 20
997.4337439916132
 10
1953.546746948622
 20
997.1827965234046
 10
1953.34220162894
 20
996.9375318126028
 10
1953.200787930647
 20
996.6979489488817
 10
1953.12250527576
 20
996.4640470219164
 10
1954.746242649497
 20
996.4640470219164
 10
1954.746242649497
 20
996.0271783350476
 10
1952.521495174749
 20
996.0271783350476
 10
1952.521495174749
 20
996.4640470219164
 10
1952.657858825563
 20
996.7235171523743
 10
1952.849777502113
 20
996.9943499366223
 10
1953.400283053537
 20
997.5701076279767
 10
1953.685636588891
 20
997.8251581330276
 10
1953.926483242068
 20
998.073422484304
 10
1954.098515993286
 20
998.3207389411084
  0
LWPOLYLINE
  5
69A
330
6F
100
AcDbEntity
  8
scritte
100
AcDbPolyline
 90
       13
 70
     1
 43
0.0
 10
2058.454536672255
 20
1004.666472556416
 10
2058.454536672255
 20
1000.929098819042
 10
2057.959587177305
 20
1000.929098819042
 10
2057.959587177305
 20
1003.969502859446
 10
2056.929284147002
 20
1001.179098819042
 10
2056.416657884376
 20
1001.179098819042
 10
2055.416657884376
 20
1003.977078617022
 10
2055.416657884376
 20
1000.929098819042
 10
2054.96211242983
 20
1000.929098819042
 10
2054.96211242983
 20
1004.666472556416
 10
2055.696960914679
 20
1004.666472556416
 10
2056.732314450032
 20
1001.775058415002
 10
2057.797971015689
 20
1004.666472556416
  0
LWPOLYLINE
  5
69B
330
6F
100
AcDbEntity
  8
scritte
100
AcDbPolyline
 90
       37
 70
     1
 43
0.0
 10
2059.563122530841
 20
1001.358391748335
 10
2059.925496306747
 20
1001.246649141064
 10
2060.270193237911
 20
1001.209401849345
 10
2060.599423112956
 20
1001.263694508912
 10
2060.849738692457
 20
1001.426573566517
 10
2061.007882940109
 20
1001.684780425296
 10
2061.060597278315
 20
1002.025058415002
 10
2061.042486634582
 20
1002.222147279719
 10
2060.988154616683
 20
1002.392957312693
 10
2060.897601094573
 20
1002.53748861146
 10
2060.770825938205
 20
1002.655741273556
 10
2060.607829017533
 20
1002.747715396513
 10
2060.40861020251
 20
1002.813411077869
 10
2059.901506369224
 20
1002.865967505911
 10
2059.626253843971
 20
1002.848290738234
 10
2059.626253843971
 20
1004.666472556416
 10
2061.517667985385
 20
1004.666472556416
 10
2061.517667985385
 20
1004.232129122073
 10
2060.06312253084
 20
1004.232129122073
 10
2060.06312253084
 20
1003.247280637224
 10
2060.403243318413
 20
1003.22660527667
 10
2060.703905744446
 20
1003.164579002345
 10
2060.965110907111
 20
1003.061201525258
 10
2061.186859904577
 20
1002.916472556416
 10
2061.363628188229
 20
1002.735127693276
 10
2061.48989074706
 20
1002.52190217687
 10
2061.56564798566
 20
1002.27679518357
 10
2061.590900308618
 20
1001.999805889749
 10
2061.567936466862
 20
1001.741834923877
 10
2061.4990447104
 20
1001.513378808998
 10
2061.38422469244
 20
1001.314436739544
 10
2061.223476066194
 20
1001.145007909951
 10
2061.022008089768
 20
1001.009669722498
 10
2060.785029558885
 20
1000.912999947591
 10
2060.512539433171
 20
1000.854998295278
 10
2060.204536672255
 20
1000.835664475608
 10
2059.563122530841
 20
1000.913947303891
  0
LWPOLYLINE
  5
69C
330
6F
100
AcDbEntity
  8
scritte
100
AcDbPolyline
 90
       13
 70
     1
 43
0.0
 10
1985.977243147051
 20
1024.121240187494
 10
1986.096877139564
 20
1024.469093583168
 10
1986.575412493099
 20
1025.342830956905
 10
1987.595614513301
 20
1026.984245098319
 10
1985.671372089059
 20
1026.984245098319
 10
1985.671372089059
 20
1027.451416815491
 10
1988.070361988049
 20
1027.451416815491
 10
1988.070361988049
 20
1026.984245098319
 10
1987.430997678064
 20
1025.985347468764
 10
1986.949779561612
 20
1025.107349964424
 10
1986.626706193732
 20
1024.350249521981
 10
1986.461776129463
 20
1023.714043078117
 10
1985.88854380623
 20
1023.714043078117
  0
LWPOLYLINE
  5
69D
330
6F
100
AcDbEntity
  8
scritte
100
AcDbPolyline
 90
       13
 70
     1
 43
0.0
 10
1981.13854380623
 20
1027.451416815491
 10
1981.873392291079
 20
1027.451416815491
 10
1982.908745826432
 20
1024.560002674077
 10
1983.974402392089
 20
1027.451416815491
 10
1984.630968048655
 20
1027.451416815491
 10
1984.630968048655
 20
1023.714043078117
 10
1984.136018553705
 20
1023.714043078117
 10
1984.136018553705
 20
1026.754447118521
 10
1983.105715523402
 20
1023.964043078117
 10
1982.593089260776
 20
1023.964043078117
 10
1981.593089260776
 20
1026.762022876097
 10
1981.593089260776
 20
1023.714043078117
 10
1981.13854380623
 20
1023.714043078117
  0
LWPOLYLINE
  5
69E
330
6F
100
AcDbEntity
  8
scritte
100
AcDbPolyline
 90
       13
 70
     1
 43
0.0
 10
2000.839884482413
 20
954.2111764225744
 10
2001.905541048069
 20
957.1025905639883
 10
2002.562106704635
 20
957.1025905639883
 10
2002.562106704635
 20
953.3652168266144
 10
2002.067157209685
 20
953.3652168266144
 10
2002.067157209685
 20
956.4056208670184
 10
2001.036854179383
 20
953.6152168266143
 10
2000.524227916756
 20
953.6152168266143
 10
1999.524227916756
 20
956.4131966245945
 10
1999.524227916756
 20
953.3652168266144
 10
1999.06968246221
 20
953.3652168266144
 10
1999.06968246221
 20
957.1025905639883
 10
1999.804530947059
 20
957.1025905639883
  0
LWPOLYLINE
  5
69F
330
6F
100
AcDbEntity
  8
scritte
100
AcDbPolyline
 90
        3
 70
     1
 43
0.0
 10
1981.674768044156
 20
981.5526803250058
 10
1981.674768044156
 20
983.2142964866219
 10
1980.447495316884
 20
981.5526803250058
  0
LWPOLYLINE
  5
6A0
330
6F
100
AcDbEntity
  8
scritte
100
AcDbPolyline
 90
       11
 70
     1
 43
0.0
 10
1979.96012157951
 20
981.5223772947028
 10
1981.641939761328
 20
983.8254075977332
 10
1982.109111478499
 20
983.8254075977332
 10
1982.109111478499
 20
981.5526803250058
 10
1982.6091114785
 20
981.5526803250058
 10
1982.6091114785
 20
981.1461146684404
 10
1982.109111478499
 20
981.1461146684404
 10
1982.109111478499
 20
980.0880338603597
 10
1981.641939761328
 20
980.0880338603597
 10
1981.641939761328
 20
981.1461146684404
 10
1979.96012157951
 20
981.1461146684404
  0
LWPOLYLINE
  5
6A1
330
6F
100
AcDbEntity
  8
scritte
100
AcDbPolyline
 90
       10
 70
     1
 43
0.0
 10
2003.819682462211
 20
953.738954200352
 10
2004.567157209685
 20
953.738954200352
 10
2004.567157209685
 20
956.688449149847
 10
2003.819682462211
 20
956.5015804629783
 10
2003.819682462211
 20
956.8854188468163
 10
2005.067157209685
 20
957.1960249074228
 10
2005.067157209685
 20
953.738954200352
 10
2005.81463195716
 20
953.738954200352
 10
2005.81463195716
 20
953.3652168266144
 10
2003.819682462211
 20
953.3652168266144
  0
LWPOLYLINE
  5
6A4
330
6F
100
AcDbEntity
  8
scritte
100
AcDbPolyline
 90
       13
 70
     1
 43
0.0
 10
2017.463567363953
 20
1059.182842707333
 10
2018.120133020519
 20
1059.182842707333
 10
2018.120133020519
 20
1055.445468969959
 10
2017.62518352557
 20
1055.445468969959
 10
2017.62518352557
 20
1058.485873010363
 10
2016.594880495266
 20
1055.695468969959
 10
2016.082254232641
 20
1055.695468969959
 10
2015.082254232641
 20
1058.493448767939
 10
2015.082254232641
 20
1055.445468969959
 10
2014.627708778095
 20
1055.445468969959
 10
2014.627708778095
 20
1059.182842707333
 10
2015.362557262943
 20
1059.182842707333
 10
2016.397910798297
 20
1056.291428565919
  0
LWPOLYLINE
  5
6A6
330
6F
100
AcDbEntity
  8
scritte
100
AcDbPolyline
 90
       13
 70
     1
 43
0.0
 10
1977.177293296681
 20
980.3380338603597
 10
1976.177293296681
 20
983.1360136583397
 10
1976.177293296681
 20
980.0880338603597
 10
1975.722747842136
 20
980.0880338603597
 10
1975.722747842136
 20
983.8254075977332
 10
1976.457596326984
 20
983.8254075977332
 10
1977.492949862338
 20
980.9339934563192
 10
1978.558606427994
 20
983.8254075977332
 10
1979.21517208456
 20
983.8254075977332
 10
1979.21517208456
 20
980.0880338603597
 10
1978.720222589611
 20
980.0880338603597
 10
1978.720222589611
 20
983.1284379007636
 10
1977.689919559308
 20
980.3380338603597
  0
LWPOLYLINE
  5
6A8
330
6F
100
AcDbEntity
  8
scritte
100
AcDbPolyline
 90
       13
 70
     1
 43
0.0
 10
2058.738353387477
 20
929.2983333635437
 10
2058.738353387477
 20
926.2503535655636
 10
2058.283807932933
 20
926.2503535655636
 10
2058.283807932933
 20
929.9877273029373
 10
2059.018656417781
 20
929.9877273029373
 10
2060.054009953134
 20
927.0963131615234
 10
2061.119666518791
 20
929.9877273029373
 10
2061.776232175357
 20
929.9877273029373
 10
2061.776232175357
 20
926.2503535655636
 10
2061.281282680407
 20
926.2503535655636
 10
2061.281282680407
 20
929.2907576059675
 10
2060.250979650104
 20
926.5003535655635
 10
2059.738353387478
 20
926.5003535655635
  0
LWPOLYLINE
  5
6AC
330
6F
100
AcDbEntity
  8
scritte
100
AcDbPolyline
 90
       13
 70
     1
 43
0.0
 10
1932.36968246221
 20
953.3652168266144
 10
1932.36968246221
 20
957.1025905639883
 10
1933.104530947059
 20
957.1025905639883
 10
1934.139884482412
 20
954.2111764225744
 10
1935.205541048069
 20
957.1025905639883
 10
1935.862106704635
 20
957.1025905639883
 10
1935.862106704635
 20
953.3652168266144
 10
1935.367157209685
 20
953.3652168266144
 10
1935.367157209685
 20
956.4056208670184
 10
1934.336854179383
 20
953.6152168266143
 10
1933.824227916756
 20
953.6152168266143
 10
1932.824227916756
 20
956.4131966245945
 10
1932.824227916756
 20
953.3652168266144
  0
LWPOLYLINE
  5
6B2
330
6F
100
AcDbEntity
  8
t1
100
AcDbPolyline
 90
        4
 70
     1
 43
0.0
 10
2013.844312447133
 20
1042.954478782412
 10
2021.844310454843
 20
1042.954482651342
 10
2021.844308520377
 20
1046.95448265134
 10
2013.844310512666
 20
1046.954478782409
  0
LWPOLYLINE
  5
6B6
330
6F
100
AcDbEntity
  8
t1
100
AcDbPolyline
 90
        4
 70
     1
 43
0.0
 10
2007.849857406835
 20
1050.95447511405
 10
1999.849857429511
 20
1050.954475934897
 10
1999.849857313864
 20
1042.954475934897
 10
2007.849857291188
 20
1042.95447511405
  0
LWPOLYLINE
  5
6BE
330
6F
100
AcDbEntity
  8
t1
100
AcDbPolyline
 90
        4
 70
     1
 43
0.0
 10
1999.849857359336
 20
1042.954476704239
 10
1999.849857474982
 20
1050.954476704237
 10
2007.849857452306
 20
1050.954475883393
 10
2007.849857336661
 20
1042.954475883391
  0
LWPOLYLINE
  5
6C4
330
6F
100
AcDbEntity
  8
t1
100
AcDbPolyline
 90
        4
 70
     1
 43
0.0
 10
2021.844308672216
 20
1046.954481882
 10
2013.844310664506
 20
1046.954478013068
 10
2013.844312598972
 20
1042.954478013069
 10
2021.844310606681
 20
1042.954481882001
  0
LWPOLYLINE
  5
6CE
330
6F
100
AcDbEntity
  8
t1
100
AcDbPolyline
 90
        4
 70
     1
 43
0.0
 10
2027.838763967648
 20
1042.95448555036
 10
2027.838764083293
 20
1050.954485550358
 10
2031.838764083294
 20
1050.954484787336
 10
2031.838763967649
 20
1042.954484787335
  0
LWPOLYLINE
  5
6DB
330
6F
100
AcDbEntity
  8
t1
100
AcDbPolyline
 90
       24
 70
     1
 43
0.0
 10
2002.771079825575
 20
923.7744017735696
 10
2003.300000812302
 20
924.0074079679056
 10
2003.871205694168
 20
924.0955798439832
 10
2004.445767802437
 20
924.0329086341555
 10
2004.984531678936
 20
923.8236652778004
 10
2005.450781455836
 20
923.4821093638684
 10
2005.812742981349
 20
923.0315173634451
 10
2006.045749175687
 20
922.5025963767171
 10
2006.133921051763
 20
921.9313914948534
 10
2006.071249841933
 20
921.3568293865833
 10
2005.862006485581
 20
920.8180655100852
 10
2005.520450571649
 20
920.351815733186
 10
2005.069858571225
 20
919.9898542076706
 10
2004.540937584497
 20
919.7568480133352
 10
2003.969732702632
 20
919.66867613726
 10
2003.395170594364
 20
919.7313473470856
 10
2002.856406717862
 20
919.9405907034396
 10
2002.390156940964
 20
920.2821466173727
 10
2002.028195415449
 20
920.7327386177947
 10
2001.795189221112
 20
921.2616596045227
 10
2001.707017345037
 20
921.83286448639
 10
2001.769688554867
 20
922.4074265946573
 10
2001.978931911218
 20
922.9461904711577
 10
2002.320487825151
 20
923.4124402480553
  0
LWPOLYLINE
  5
6E9
330
6F
100
AcDbEntity
  8
t1
100
AcDbPolyline
 90
        4
 70
     1
 43
0.0
 10
2027.838764037821
 20
1050.954484781017
 10
2027.838763922176
 20
1042.954484781016
 10
2031.838763922176
 20
1042.954484017995
 10
2031.838764037821
 20
1050.954484017994
  0
LWPOLYLINE
  5
6EF
330
6F
100
AcDbEntity
  8
t2
100
AcDbPolyline
 90
       25
 70
     1
 43
0.0
 10
2031.83876380653
 20
1034.95448401799
 10
2031.838763309372
 20
1024.954478002897
 10
2039.849870937997
 20
1024.954478899938
 10
2049.849871082555
 20
1034.954478385484
 10
2049.849872105963
 20
1066.954482541046
 10
2043.849855401463
 20
1066.954483685585
 10
2039.849855401461
 20
1066.954484448608
 10
2035.849855401463
 20
1066.954485211631
 10
2031.838764269114
 20
1066.954484017996
 10
2031.838764153467
 20
1058.954484017996
 10
2027.838768268055
 20
1058.954484098897
 10
2027.838763594191
 20
1068.954874548346
 10
2007.849856690204
 20
1068.95486540108
 10
2007.849857522479
 20
1058.954475114052
 10
1999.849868281972
 20
1058.954488632707
 10
1999.849893190305
 20
1068.246566207498
 10
1991.849892643753
 20
1068.2465674233
 10
1991.849892234444
 20
1034.954481129533
 10
1997.849879785477
 20
1024.95448094075
 10
1999.849868205907
 20
1024.954475963702
 10
1999.849857900381
 20
1034.954471088806
 10
2007.849857175543
 20
1034.954475114047
 10
2007.849856678384
 20
1024.954469098953
 10
2027.838763309372
 20
1024.954478765919
 10
2027.83876380653
 20
1034.954484781012
  0
LWPOLYLINE
  5
6FF
330
6F
100
AcDbEntity
  8
t1
100
AcDbPolyline
 90
       24
 70
     1
 43
0.0
 10
2024.36481454863
 20
920.3264909200624
 10
2024.015193657882
 20
920.782125899267
 10
2023.795412820321
 20
921.3127240381327
 10
2023.720449736836
 20
921.8821259503473
 10
2023.79541301768
 20
922.4515278365783
 10
2024.015194039144
 20
922.9821258992652
 10
2024.364815087824
 20
923.4377607572819
 10
2024.820450067026
 20
923.7873816480425
 10
2025.351048205889
 20
924.0071624855955
 10
2025.920450118101
 20
924.0821255690759
 10
2026.489852004337
 20
924.0071622882373
 10
2027.020450067023
 20
923.7873812667691
 10
2027.476084925045
 20
923.4377602180904
 10
2027.825705815797
 20
922.9821252388886
 10
2028.045486653352
 20
922.4515271000267
 10
2028.120449736836
 20
921.882125187812
 10
2028.045486455996
 20
921.3127233015812
 10
2027.825705434535
 20
920.7821252388933
 10
2027.476084385851
 20
920.3264903808708
 10
2027.020449406652
 20
919.9768694901154
 10
2026.489851267788
 20
919.757088652568
 10
2025.920449355569
 20
919.6821255690803
 10
2025.35104746934
 20
919.7570888499276
 10
2024.820449406649
 20
919.976869871388
  0
LWPOLYLINE
  5
700
330
6F
100
AcDbEntity
  8
t1
100
AcDbPolyline
 90
       24
 70
     1
 43
0.0
 10
2006.045487700886
 20
899.3127291221542
 10
2005.825706679419
 20
898.7821310594611
 10
2005.476085630738
 20
898.3264962014374
 10
2005.020450651544
 20
897.9768753106879
 10
2004.48985251268
 20
897.7570944731379
 10
2003.920450600459
 20
897.6821313896429
 10
2003.351048714225
 20
897.7570946704982
 10
2002.820450651543
 20
897.9768756919575
 10
2002.364815793518
 20
898.3264967406277
 10
2002.015194902766
 20
898.7821317198378
 10
2001.795414065213
 20
899.3127298587014
 10
2001.720450981727
 20
899.8821317709152
 10
2001.795414262567
 20
900.4515336571554
 10
2002.015195284035
 20
900.9821317198387
 10
2002.364816332711
 20
901.4377665778503
 10
2002.82045131191
 20
901.7873874686117
 10
2003.351049450771
 20
902.0071683061658
 10
2003.920451362991
 20
902.0821313896423
 10
2004.489853249227
 20
902.0071681088078
 10
2005.02045131191
 20
901.7873870873428
 10
2005.476086169932
 20
901.4377660386646
 10
2005.82570706069
 20
900.982131059461
 10
2006.04548789824
 20
900.4515329206027
 10
2006.120450981725
 20
899.8821310083846
  0
LWPOLYLINE
  5
702
330
6F
100
AcDbEntity
  8
t1
100
AcDbPolyline
 90
       24
 70
     1
 43
0.0
 10
2060.029729689629
 20
893.7570896510761
 10
2059.499131626947
 20
893.9768706725358
 10
2059.043496768921
 20
894.326491721206
 10
2058.693875878169
 20
894.7821267004162
 10
2058.474095040617
 20
895.3127248392798
 10
2058.399131957129
 20
895.8821267514935
 10
2058.474095237969
 20
896.4515286377336
 10
2058.693876259438
 20
896.9821267004169
 10
2059.043497308113
 20
897.4377615584288
 10
2059.499132287313
 20
897.7873824491897
 10
2060.029730426173
 20
898.0071632867439
 10
2060.599132338393
 20
898.0821263702205
 10
2061.168534224629
 20
898.007163089386
 10
2061.699132287313
 20
897.7873820679207
 10
2062.154767145334
 20
897.4377610192425
 10
2062.504388036092
 20
896.9821260400392
 10
2062.724168873643
 20
896.4515279011811
 10
2062.799131957127
 20
895.8821259889626
 10
2062.724168676288
 20
895.3127241027326
 10
2062.504387654822
 20
894.7821260400392
 10
2062.154766606141
 20
894.3264911820154
 10
2061.699131626946
 20
893.976870291266
 10
2061.168533488082
 20
893.7570894537158
 10
2060.599131575862
 20
893.6821263702212
  0
LWPOLYLINE
  5
709
330
6F
100
AcDbEntity
  8
t1
100
AcDbPolyline
 90
       24
 70
     1
 43
0.0
 10
1944.441769676141
 20
901.9768803301095
 10
1943.911171537276
 20
901.7570994925597
 10
1943.341769625057
 20
901.6821364090647
 10
1942.772367738824
 20
901.7570996899197
 10
1942.241769676141
 20
901.9768807113793
 10
1941.786134818115
 20
902.3265017600495
 10
1941.436513927364
 20
902.7821367392599
 10
1941.216733089811
 20
903.3127348781235
 10
1941.141770006324
 20
903.8821367903372
 10
1941.216733287165
 20
904.4515386765773
 10
1941.436514308633
 20
904.9821367392606
 10
1941.786135357308
 20
905.4377715972723
 10
1942.241770336508
 20
905.7873924880334
 10
1942.772368475369
 20
906.0071733255878
 10
1943.341770387588
 20
906.0821364090642
 10
1943.911172273824
 20
906.0071731282295
 10
1944.441770336508
 20
905.7873921067644
 10
1944.897405194529
 20
905.4377710580867
 10
1945.247026085287
 20
904.9821360788831
 10
1945.466806922838
 20
904.4515379400248
 10
1945.541770006322
 20
903.8821360278063
 10
1945.466806725483
 20
903.312734141576
 10
1945.247025704017
 20
902.7821360788827
 10
1944.897404655336
 20
902.3265012208591
  0
LWPOLYLINE
  5
70D
330
6F
100
AcDbEntity
  8
t1
100
AcDbPolyline
 90
       24
 70
     1
 43
0.0
 10
2048.087766766954
 20
933.7968357682139
 10
2048.438169977789
 20
933.6220462618484
 10
2048.731394635618
 20
933.362521539056
 10
2048.947457964587
 20
933.035947780811
 10
2049.071635605886
 20
932.6645804490484
 10
2049.095465058477
 20
932.2737276137145
 10
2049.017322384543
 20
931.8900252496227
 10
2048.842532878177
 20
931.5396220387867
 10
2048.583008155385
 20
931.2463973809585
 10
2048.25643439714
 20
931.0303340519904
 10
2047.885067065377
 20
930.9061564106899
 10
2047.494214230044
 20
930.8823269580999
 10
2047.110511865953
 20
930.9604696320336
 10
2046.760108655117
 20
931.1352591383988
 10
2046.466883997287
 20
931.3947838611914
 10
2046.250820668319
 20
931.7213576194362
 10
2046.126643027019
 20
932.0927249511987
 10
2046.102813574429
 20
932.4835777865327
 10
2046.180956248364
 20
932.8672801506247
 10
2046.355745754728
 20
933.21768336146
 10
2046.61527047752
 20
933.5109080192882
 10
2046.941844235765
 20
933.7269713482568
 10
2047.313211567528
 20
933.8511489895566
 10
2047.704064402862
 20
933.8749784421466
  0
LWPOLYLINE
  5
70E
330
6F
100
AcDbEntity
  8
t1
100
AcDbPolyline
 90
       24
 70
     1
 43
0.0
 10
2046.902122371395
 20
957.0504330728461
 10
2046.582104112241
 20
957.2760923192964
 10
2046.331395121526
 20
957.576889233632
 10
2046.16708080265
 20
957.932325003232
 10
2046.100358904902
 20
958.3181772677844
 10
2046.135776415351
 20
958.7081508331104
 10
2046.270919689188
 20
959.0756696451938
 10
2046.496578935638
 20
959.3956879043467
 10
2046.797375849973
 20
959.6463968950612
 10
2047.152811619573
 20
959.8107112139377
 10
2047.538663884126
 20
959.8774331116855
 10
2047.928637449452
 20
959.8420156012378
 10
2048.296156261535
 20
959.7068723274007
 10
2048.616174520688
 20
959.4812130809517
 10
2048.866883511404
 20
959.1804161666155
 10
2049.03119783028
 20
958.8249803970152
 10
2049.097919728027
 20
958.4391281324633
 10
2049.06250221758
 20
958.0491545671367
 10
2048.927358943743
 20
957.6816357550534
 10
2048.701699697293
 20
957.3616174959004
 10
2048.400902782958
 20
957.110908505186
 10
2048.045467013357
 20
956.9465941863096
 10
2047.659614748804
 20
956.8798722885615
 10
2047.269641183479
 20
956.9152897990088
  0
LWPOLYLINE
  5
710
330
6F
100
AcDbEntity
  8
t1
100
AcDbPolyline
 90
       24
 70
     1
 43
0.0
 10
2037.944616920841
 20
1055.854483340261
 10
2037.724835977904
 20
1056.385081435473
 10
2037.649872781331
 20
1056.954483332807
 10
2037.724835949086
 20
1057.523885233923
 10
2037.94461686517
 20
1058.05448334026
 10
2038.294237823354
 20
1058.510118267713
 10
2038.749872733117
 20
1058.859739248966
 10
2039.28047082833
 20
1059.079520191902
 10
2039.849872725657
 20
1059.154483388476
 10
2040.41927462678
 20
1059.079520220719
 10
2040.949872733117
 20
1058.859739304638
 10
2041.405507660573
 20
1058.510118346453
 10
2041.755128641819
 20
1058.054483436688
 10
2041.974909584757
 20
1057.523885341471
 10
2042.04987278133
 20
1056.954483444147
 10
2041.974909613576
 20
1056.385081543021
 10
2041.755128697492
 20
1055.854483436691
 10
2041.405507739306
 20
1055.398848509234
 10
2040.949872829546
 20
1055.049227527988
 10
2040.419274734333
 20
1054.829446585054
 10
2039.849872837005
 20
1054.754483388478
 10
2039.280470935883
 20
1054.829446556233
 10
2038.749872829546
 20
1055.049227472319
 10
2038.294237902087
 20
1055.398848430495
  0
LWPOLYLINE
  5
715
330
6F
100
AcDbEntity
  8
t1
100
AcDbPolyline
 90
       24
 70
     1
 43
0.0
 10
2061.663212654338
 20
919.8236602583785
 10
2062.129462431238
 20
919.482104344447
 10
2062.491423956752
 20
919.0315123440234
 10
2062.724430151088
 20
918.5025913572957
 10
2062.812602027163
 20
917.9313864754316
 10
2062.749930817336
 20
917.3568243671612
 10
2062.540687460983
 20
916.8180604906636
 10
2062.199131547051
 20
916.3518107137644
 10
2061.748539546627
 20
915.9898491882486
 10
2061.219618559899
 20
915.7568429939134
 10
2060.648413678033
 20
915.668671117838
 10
2060.073851569765
 20
915.731342327664
 10
2059.535087693265
 20
915.9405856840178
 10
2059.068837916367
 20
916.2821415979511
 10
2058.706876390852
 20
916.7327335983728
 10
2058.473870196515
 20
917.2616545851006
 10
2058.38569832044
 20
917.8328594669679
 10
2058.448369530269
 20
918.4074215752353
 10
2058.65761288662
 20
918.9461854517359
 10
2058.999168800553
 20
919.4124352286333
 10
2059.449760800977
 20
919.7743967541477
 10
2059.978681787704
 20
920.0074029484836
 10
2060.549886669571
 20
920.0955748245613
 10
2061.124448777839
 20
920.0329036147335
  0
LWPOLYLINE
  5
717
330
6F
100
AcDbEntity
  8
t1
100
AcDbPolyline
 90
       24
 70
     1
 43
0.0
 10
2018.189764396105
 20
961.5793691992614
 10
2017.939642749513
 20
961.2780837140379
 10
2017.620065369769
 20
961.051800528504
 10
2017.252810927175
 20
960.9159404678038
 10
2016.862907205075
 20
960.8797621705553
 10
2016.476925497785
 20
960.9457311279264
 10
2016.121169820792
 20
961.1093516644928
 10
2015.819884335568
 20
961.3594733110822
 10
2015.593601150035
 20
961.6790506908259
 10
2015.457741089335
 20
962.0463051334214
 10
2015.421562792084
 20
962.4362088555209
 10
2015.487531749457
 20
962.8221905628114
 10
2015.651152286022
 20
963.1779462398046
 10
2015.901273932612
 20
963.4792317250283
 10
2016.220851312356
 20
963.705514910562
 10
2016.588105754951
 20
963.841374971262
 10
2016.978009477051
 20
963.8775532685112
 10
2017.363991184341
 20
963.8115843111396
 10
2017.719746861335
 20
963.6479637745736
 10
2018.021032346558
 20
963.397842127984
 10
2018.247315532092
 20
963.07826474824
 10
2018.383175592792
 20
962.7110103056446
 10
2018.419353890042
 20
962.3211065835452
 10
2018.353384932671
 20
961.9351248762546
  0
LWPOLYLINE
  5
71A
330
6F
100
AcDbEntity
  8
t1
100
AcDbPolyline
 90
       24
 70
     1
 43
0.0
 10
2038.435653961803
 20
1036.368696811708
 10
2038.117816705391
 20
1035.954483257942
 10
2037.918015847321
 20
1035.472121353558
 10
2037.849867485885
 20
1034.954483265196
 10
2037.918015819291
 20
1034.436845173147
 10
2038.117816651239
 20
1033.954483257942
 10
2038.43565388522
 20
1033.540269686963
 10
2038.849867438987
 20
1033.222432430554
 10
2039.332229343371
 20
1033.022631572483
 10
2039.849867431732
 20
1032.954483211046
 10
2040.367505523781
 20
1033.022631544453
 10
2040.849867438987
 20
1033.222432376402
 10
2041.264081009966
 20
1033.540269610379
 10
2041.581918266377
 20
1033.95448316415
 10
2041.781719124446
 20
1034.436845068534
 10
2041.849867485884
 20
1034.954483156892
 10
2041.781719152476
 20
1035.472121248942
 10
2041.581918320529
 20
1035.954483164146
 10
2041.264081086548
 20
1036.368696735128
 10
2040.849867532781
 20
1036.686533991536
 10
2040.367505628396
 20
1036.886334849606
 10
2039.849867540036
 20
1036.954483211047
 10
2039.332229447985
 20
1036.88633487764
 10
2038.849867532781
 20
1036.686534045691
  0
LWPOLYLINE
  5
71C
330
6F
100
AcDbEntity
  8
t1
100
AcDbPolyline
 90
       24
 70
     1
 43
0.0
 10
2072.579954908015
 20
959.4792267056064
 10
2072.899532287759
 20
959.7055098911399
 10
2073.266786730354
 20
959.8413699518401
 10
2073.656690452454
 20
959.8775482490896
 10
2074.042672159744
 20
959.811579291718
 10
2074.398427836737
 20
959.6479587551517
 10
2074.69971332196
 20
959.397837108562
 10
2074.925996507495
 20
959.078259728818
 10
2075.061856568195
 20
958.7110052862232
 10
2075.098034865445
 20
958.3211015641227
 10
2075.032065908073
 20
957.9351198568328
 10
2074.868445371507
 20
957.5793641798396
 10
2074.618323724916
 20
957.2780786946164
 10
2074.298746345172
 20
957.0517955090823
 10
2073.931491902579
 20
956.9159354483819
 10
2073.541588180478
 20
956.8797571511332
 10
2073.155606473188
 20
956.9457261085043
 10
2072.799850796194
 20
957.1093466450708
 10
2072.49856531097
 20
957.3594682916603
 10
2072.272282125438
 20
957.6790456714045
 10
2072.136422064737
 20
958.0463001139992
 10
2072.100243767487
 20
958.4362038360987
 10
2072.166212724858
 20
958.8221855433895
 10
2072.329833261425
 20
959.1779412203827
  0
LWPOLYLINE
  5
71D
330
6F
100
AcDbEntity
  8
t1
100
AcDbPolyline
 90
       24
 70
     1
 43
0.0
 10
1954.893190738364
 20
939.9893084231266
 10
1954.841777818509
 20
940.3774971573421
 10
1954.892587388924
 20
940.7657653240166
 10
1955.042156861353
 20
941.1276530892378
 10
1955.280293323426
 20
941.4384983998512
 10
1955.59076816879
 20
941.6771176616363
 10
1955.95242304982
 20
941.8272493662387
 10
1956.340611784035
 20
941.8786622860947
 10
1956.728879950711
 20
941.8278527156793
 10
1957.090767715931
 20
941.6782832432492
 10
1957.401613026544
 20
941.4401467811771
 10
1957.64023228833
 20
941.1296719358121
 10
1957.790363992932
 20
940.7680170547823
 10
1957.841776912788
 20
940.3798283205679
 10
1957.790967342372
 20
939.9915601538923
 10
1957.641397869943
 20
939.629672388672
 10
1957.40326140787
 20
939.3188270780584
 10
1957.092786562505
 20
939.0802078162732
 10
1956.731131681476
 20
938.9300761116707
 10
1956.342942947262
 20
938.8786631918147
 10
1955.954674780585
 20
938.9294727622303
 10
1955.592787015365
 20
939.0790422346595
 10
1955.281941704752
 20
939.3171786967332
 10
1955.043322442967
 20
939.6276535420977
  0
LWPOLYLINE
  5
721
330
6F
100
AcDbEntity
  8
t1
100
AcDbPolyline
 90
       24
 70
     1
 43
0.0
 10
2038.435653700781
 20
1033.540270527153
 10
2038.849867254549
 20
1033.222433270745
 10
2039.332229158933
 20
1033.022632412675
 10
2039.849867247293
 20
1032.954484051238
 10
2040.367505339343
 20
1033.022632384643
 10
2040.84986725455
 20
1033.222433216592
 10
2041.264080825528
 20
1033.540270450572
 10
2041.581918081938
 20
1033.954484004339
 10
2041.781718940008
 20
1034.436845908725
 10
2041.849867301445
 20
1034.954483997083
 10
2041.781718968039
 20
1035.472122089134
 10
2041.58191813609
 20
1035.954484004338
 10
2041.26408090211
 20
1036.368697575318
 10
2040.849867348343
 20
1036.686534831728
 10
2040.367505443957
 20
1036.886335689799
 10
2039.849867355599
 20
1036.954484051238
 10
2039.332229263546
 20
1036.886335717829
 10
2038.849867348343
 20
1036.686534885881
 10
2038.435653777365
 20
1036.368697651901
 10
2038.117816520953
 20
1035.954484098132
 10
2037.918015662883
 20
1035.47212219375
 10
2037.849867301446
 20
1034.954484105388
 10
2037.918015634852
 20
1034.436846013339
 10
2038.117816466801
 20
1033.954484098132
  0
LWPOLYLINE
  5
723
330
6F
100
AcDbEntity
  8
t1
100
AcDbPolyline
 90
       24
 70
     1
 43
0.0
 10
1995.524820754036
 20
1038.385070810875
 10
1995.74460168362
 20
1037.854472710129
 10
1996.094222653398
 20
1037.398837791569
 10
1996.549857572057
 20
1037.049216821911
 10
1997.080455672861
 20
1036.82943589248
 10
1997.649857572097
 20
1036.754472710388
 10
1998.219259471312
 20
1036.829435892635
 10
1998.749857572057
 20
1037.049216822217
 10
1999.205492490619
 20
1037.398837792
 10
1999.555113460272
 20
1037.854472710646
 10
1999.774894389709
 20
1038.385070811457
 10
1999.849857571795
 20
1038.954472710692
 10
1999.774894389553
 20
1039.523874609909
 10
1999.55511345997
 20
1040.054472710647
 10
1999.205492490192
 20
1040.510107629219
 10
1998.749857571534
 20
1040.859728598867
 10
1998.219259470729
 20
1041.079509528304
 10
1997.649857571494
 20
1041.154472710384
 10
1997.080455672278
 20
1041.079509528149
 10
1996.549857571533
 20
1040.859728598562
 10
1996.094222652971
 20
1040.510107628788
 10
1995.744601683318
 20
1040.054472710128
 10
1995.524820753881
 20
1039.523874609326
 10
1995.449857571795
 20
1038.954472710088
  0
LWPOLYLINE
  5
725
330
6F
100
AcDbEntity
  8
t1
100
AcDbPolyline
 90
       24
 70
     1
 43
0.0
 10
1966.44176843125
 20
923.9768745095371
 10
1965.911170292386
 20
923.7570936719901
 10
1965.341768380167
 20
923.6821305885023
 10
1964.772366493937
 20
923.7570938693496
 10
1964.241768431247
 20
923.9768748908099
 10
1963.786133573227
 20
924.3264959394842
 10
1963.43651268248
 20
924.7821309186887
 10
1963.216731844919
 20
925.3127290575546
 10
1963.141768761433
 20
925.8821309697692
 10
1963.216732042277
 20
926.4515328560003
 10
1963.436513063741
 20
926.9821309186873
 10
1963.786134112422
 20
927.437765776704
 10
1964.241769091624
 20
927.7873866674644
 10
1964.772367230487
 20
928.0071675050177
 10
1965.341769142699
 20
928.0821305884979
 10
1965.911171028935
 20
928.0071673076593
 10
1966.441769091621
 20
927.7873862861913
 10
1966.897403949643
 20
927.4377652375124
 10
1967.247024840395
 20
926.9821302583107
 10
1967.466805677949
 20
926.451532119449
 10
1967.541768761434
 20
925.8821302072339
 10
1967.466805480594
 20
925.3127283210032
 10
1967.247024459133
 20
924.7821302583153
 10
1966.897403410449
 20
924.3264954002928
  0
LWPOLYLINE
  5
72A
330
6F
100
AcDbEntity
  8
t1
100
AcDbPolyline
 90
       24
 70
     1
 43
0.0
 10
2018.369044968334
 20
936.7680120353604
 10
2018.420457888191
 20
936.3798233011459
 10
2018.369648317775
 20
935.9915551344707
 10
2018.220078845345
 20
935.6296673692499
 10
2017.981942383272
 20
935.3188220586362
 10
2017.671467537907
 20
935.0802027968514
 10
2017.309812656879
 20
934.9300710922486
 10
2016.921623922664
 20
934.8786581723931
 10
2016.533355755988
 20
934.9294677428083
 10
2016.171467990767
 20
935.0790372152376
 10
2015.860622680154
 20
935.3171736773113
 10
2015.622003418369
 20
935.6276485226759
 10
2015.471871713767
 20
935.9893034037053
 10
2015.420458793911
 20
936.3774921379201
 10
2015.471268364326
 20
936.7657603045948
 10
2015.620837836756
 20
937.1276480698156
 10
2015.858974298829
 20
937.4384933804291
 10
2016.169449144193
 20
937.6771126422143
 10
2016.531104025223
 20
937.8272443468166
 10
2016.919292759437
 20
937.8786572666728
 10
2017.307560926113
 20
937.8278476962574
 10
2017.669448691334
 20
937.6782782238272
 10
2017.980294001947
 20
937.4401417617551
 10
2018.218913263732
 20
937.12966691639
  0
LWPOLYLINE
  5
732
330
6F
100
AcDbEntity
  8
t1
100
AcDbPolyline
 90
       24
 70
     1
 43
0.0
 10
1998.749857607385
 20
1037.049217623377
 10
1999.205492525947
 20
1037.39883859316
 10
1999.555113495599
 20
1037.854473511806
 10
1999.774894425036
 20
1038.385071612618
 10
1999.849857607123
 20
1038.954473511852
 10
1999.774894424881
 20
1039.523875411069
 10
1999.555113495298
 20
1040.054473511807
 10
1999.20549252552
 20
1040.51010843038
 10
1998.749857606862
 20
1040.859729400027
 10
1998.219259506057
 20
1041.079510329465
 10
1997.649857606822
 20
1041.154473511545
 10
1997.080455707606
 20
1041.079510329309
 10
1996.549857606861
 20
1040.859729399721
 10
1996.094222688299
 20
1040.510108429949
 10
1995.744601718645
 20
1040.054473511288
 10
1995.524820789208
 20
1039.523875410486
 10
1995.449857607123
 20
1038.954473511248
 10
1995.524820789365
 20
1038.385071612035
 10
1995.744601718947
 20
1037.85447351129
 10
1996.094222688726
 20
1037.398838592729
 10
1996.549857607385
 20
1037.049217623072
 10
1997.080455708189
 20
1036.82943669364
 10
1997.649857607424
 20
1036.754473511548
 10
1998.21925950664
 20
1036.829436693795
  0
LWPOLYLINE
  5
735
330
6F
100
AcDbEntity
  8
t1
100
AcDbPolyline
 90
       24
 70
     1
 43
0.0
 10
1945.492568866531
 20
925.3568344060052
 10
1945.283325510179
 20
924.8180705295073
 10
1944.941769596245
 20
924.3518207526079
 10
1944.491177595823
 20
923.9898592270924
 10
1943.962256609093
 20
923.7568530327573
 10
1943.391051727228
 20
923.6686811566819
 10
1942.816489618961
 20
923.7313523665076
 10
1942.27772574246
 20
923.9405957228616
 10
1941.811475965561
 20
924.2821516367948
 10
1941.449514440046
 20
924.7327436372168
 10
1941.21650824571
 20
925.2616646239447
 10
1941.128336369635
 20
925.8328695058118
 10
1941.191007579464
 20
926.4074316140792
 10
1941.400250935815
 20
926.9461954905796
 10
1941.741806849748
 20
927.4124452674772
 10
1942.192398850172
 20
927.7744067929916
 10
1942.7213198369
 20
928.0074129873275
 10
1943.292524718765
 20
928.0955848634052
 10
1943.867086827034
 20
928.0329136535776
 10
1944.405850703533
 20
927.8236702972222
 10
1944.872100480433
 20
927.4821143832904
 10
1945.234062005947
 20
927.0315223828673
 10
1945.467068200284
 20
926.5026013961392
 10
1945.555240076359
 20
925.9313965142752
  0
LWPOLYLINE
  5
736
330
6F
100
AcDbEntity
  8
t1
100
AcDbPolyline
 90
       24
 70
     1
 43
0.0
 10
2019.75512336787
 20
1036.054479245943
 10
2019.405502398092
 20
1036.510114164516
 10
2018.949867479435
 20
1036.859735134163
 10
2018.419269378629
 20
1037.0795160636
 10
2017.849867479394
 20
1037.154479245681
 10
2017.280465580178
 20
1037.079516063444
 10
2016.749867479433
 20
1036.859735133858
 10
2016.29423256087
 20
1036.510114164084
 10
2015.944611591218
 20
1036.054479245424
 10
2015.724830661781
 20
1035.523881144622
 10
2015.649867479695
 20
1034.954479245384
 10
2015.724830661937
 20
1034.385077346171
 10
2015.944611591519
 20
1033.854479245425
 10
2016.294232561298
 20
1033.398844326865
 10
2016.749867479957
 20
1033.049223357207
 10
2017.280465580763
 20
1032.829442427775
 10
2017.849867479998
 20
1032.754479245684
 10
2018.419269379213
 20
1032.829442427932
 10
2018.949867479957
 20
1033.049223357513
 10
2019.40550239852
 20
1033.398844327296
 10
2019.755123368171
 20
1033.854479245942
 10
2019.974904297609
 20
1034.385077346754
 10
2020.049867479695
 20
1034.954479245987
 10
2019.974904297454
 20
1035.523881145206
  0
LWPOLYLINE
  5
739
330
6F
100
AcDbEntity
  8
t1
100
AcDbPolyline
 90
       24
 70
     1
 43
0.0
 10
2074.35014851331
 20
931.0801977774296
 10
2073.988493632281
 20
930.9300660728267
 10
2073.600304898066
 20
930.8786531529712
 10
2073.21203673139
 20
930.9294627233866
 10
2072.850148966169
 20
931.0790321958158
 10
2072.539303655556
 20
931.3171686578893
 10
2072.300684393771
 20
931.6276435032543
 10
2072.150552689168
 20
931.9892983842832
 10
2072.099139769313
 20
932.3774871184978
 10
2072.149949339728
 20
932.7657552851727
 10
2072.299518812158
 20
933.1276430503937
 10
2072.537655274231
 20
933.4384883610077
 10
2072.848130119595
 20
933.6771076227924
 10
2073.209785000626
 20
933.8272393273944
 10
2073.59797373484
 20
933.878652247251
 10
2073.986241901515
 20
933.8278426768356
 10
2074.348129666736
 20
933.6782732044056
 10
2074.658974977349
 20
933.4401367423332
 10
2074.897594239136
 20
933.1296618969679
 10
2075.047725943737
 20
932.7680070159386
 10
2075.099138863593
 20
932.379818281724
 10
2075.048329293177
 20
931.9915501150486
 10
2074.898759820747
 20
931.629662349828
 10
2074.660623358675
 20
931.3188170392148
  0
LWPOLYLINE
  5
73A
330
6F
100
AcDbEntity
  8
t1
100
AcDbPolyline
 90
       24
 70
     1
 43
0.0
 10
1990.223441395992
 20
961.0504380922682
 10
1989.90342313684
 20
961.276097338718
 10
1989.652714146124
 20
961.5768942530541
 10
1989.488399827249
 20
961.9323300226545
 10
1989.4216779295
 20
962.3181822872064
 10
1989.457095439949
 20
962.7081558525324
 10
1989.592238713785
 20
963.0756746646159
 10
1989.817897960236
 20
963.3956929237688
 10
1990.118694874571
 20
963.6464019144831
 10
1990.474130644172
 20
963.8107162333596
 10
1990.859982908724
 20
963.8774381311076
 10
1991.24995647405
 20
963.84202062066
 10
1991.617475286133
 20
963.7068773468227
 10
1991.937493545286
 20
963.4812181003733
 10
1992.188202536001
 20
963.1804211860373
 10
1992.352516854878
 20
962.8249854164367
 10
1992.419238752625
 20
962.4391331518848
 10
1992.383821242177
 20
962.0491595865583
 10
1992.248677968341
 20
961.6816407744751
 10
1992.023018721891
 20
961.3616225153222
 10
1991.722221807554
 20
961.1109135246076
 10
1991.366786037955
 20
960.9465992057316
 10
1990.980933773402
 20
960.8798773079834
 10
1990.590960208077
 20
960.9152948184307
  0
LWPOLYLINE
  5
73C
330
6F
100
AcDbEntity
  8
t1
100
AcDbPolyline
 90
       24
 70
     1
 43
0.0
 10
2036.513712393714
 20
1000.651613645498
 10
2037.083114297
 20
1000.726576796791
 10
2037.61371240969
 20
1000.946357697531
 10
2038.069347347259
 20
1001.29597864254
 10
2038.418968341677
 20
1001.75161354219
 10
2038.638749299956
 20
1002.282211631048
 10
2038.713712512989
 20
1002.851613526218
 10
2038.638749361697
 20
1003.421015429498
 10
2038.418968460955
 20
1003.95161354219
 10
2038.069347515943
 20
1004.407248479752
 10
2037.613712616288
 20
1004.756869474179
 10
2037.083114527428
 20
1004.976650432455
 10
2036.513712632271
 20
1005.051613645486
 10
2035.944310728977
 20
1004.976650494197
 10
2035.413712616289
 20
1004.756869593458
 10
2034.958077678725
 20
1004.407248648442
 10
2034.608456684305
 20
1003.951613748789
 10
2034.388675726029
 20
1003.421015659927
 10
2034.313712512989
 20
1002.851613764766
 10
2034.38867566428
 20
1002.282211861482
 10
2034.608456565027
 20
1001.751613748793
 10
2034.958077510038
 20
1001.295978811232
 10
2035.413712409692
 20
1000.946357816812
 10
2035.944310498551
 20
1000.726576858536
  0
LWPOLYLINE
  5
73D
330
6F
100
AcDbEntity
  8
t1
100
AcDbPolyline
 90
       24
 70
     1
 43
0.0
 10
2079.813731008143
 20
986.7568490680783
 10
2080.269365916598
 20
986.4072280851317
 10
2080.618986873078
 20
985.9515931563631
 10
2080.838767787174
 20
985.4209950492066
 10
2080.913730952798
 20
984.8515931478019
 10
2080.838767754093
 20
984.2821912507558
 10
2080.618986809171
 20
983.751593156365
 10
2080.269365826219
 20
983.2959582479125
 10
2079.813730897453
 20
982.9463372914281
 10
2079.283132790294
 20
982.7265563773366
 10
2078.713730888891
 20
982.6515932117073
 10
2078.144328991843
 20
982.7265564104166
 10
2077.613730897453
 20
982.9463373553384
 10
2077.158095988997
 20
983.2959583382946
 10
2076.80847503252
 20
983.7515932670491
 10
2076.588694118422
 20
984.2821913742147
 10
2076.513730952798
 20
984.8515932756155
 10
2076.588694151503
 20
985.4209951726662
 10
2076.808475096426
 20
985.95159326705
 10
2077.158096079378
 20
986.4072281755143
 10
2077.613731008143
 20
986.7568491319886
 10
2078.144329115303
 20
986.9766300460858
 10
2078.713731016705
 20
987.0515932117038
 10
2079.283132913753
 20
986.9766300130052
  0
LWPOLYLINE
  5
73E
330
6F
100
AcDbEntity
  8
t1
100
AcDbPolyline
 90
       24
 70
     1
 43
0.0
 10
1990.815533254641
 20
934.8823319775219
 10
1990.43183089055
 20
934.9604746514556
 10
1990.081427679714
 20
935.1352641578207
 10
1989.788203021885
 20
935.3947888806132
 10
1989.572139692917
 20
935.7213626388581
 10
1989.447962051617
 20
936.0927299706208
 10
1989.424132599027
 20
936.4835828059547
 10
1989.502275272961
 20
936.8672851700466
 10
1989.677064779326
 20
937.2176883808819
 10
1989.936589502118
 20
937.5109130387103
 10
1990.263163260363
 20
937.7269763676787
 10
1990.634530592125
 20
937.8511540089784
 10
1991.025383427459
 20
937.8749834615687
 10
1991.409085791552
 20
937.7968407876357
 10
1991.759489002387
 20
937.6220512812697
 10
1992.052713660216
 20
937.3625265584776
 10
1992.268776989184
 20
937.0359528002326
 10
1992.392954630484
 20
936.6645854684703
 10
1992.416784083075
 20
936.2737326331364
 10
1992.338641409141
 20
935.8900302690443
 10
1992.163851902775
 20
935.5396270582089
 10
1991.904327179983
 20
935.2464024003802
 10
1991.577753421738
 20
935.0303390714122
 10
1991.206386089974
 20
934.9061614301119
  0
LWPOLYLINE
  5
740
330
6F
100
AcDbEntity
  8
t1
100
AcDbPolyline
 90
       24
 70
     1
 43
0.0
 10
2083.168532243191
 20
915.7570836331464
 10
2082.59913033097
 20
915.6821205496584
 10
2082.029728444742
 20
915.757083830506
 10
2081.499130382052
 20
915.9768648519664
 10
2081.043495524032
 20
916.3264859006403
 10
2080.693874633285
 20
916.7821208798452
 10
2080.474093795723
 20
917.3127190187113
 10
2080.399130712238
 20
917.8821209309255
 10
2080.474093993083
 20
918.4515228171568
 10
2080.693875014546
 20
918.9821208798434
 10
2081.043496063227
 20
919.4377557378603
 10
2081.499131042429
 20
919.7873766286203
 10
2082.029729181292
 20
920.0071574661736
 10
2082.599131093504
 20
920.082120549654
 10
2083.168532979739
 20
920.0071572688155
 10
2083.699131042426
 20
919.7873762473474
 10
2084.154765900447
 20
919.4377551986686
 10
2084.504386791199
 20
918.9821202194664
 10
2084.724167628755
 20
918.4515220806053
 10
2084.799130712239
 20
917.8821201683902
 10
2084.724167431399
 20
917.3127182821597
 10
2084.504386409938
 20
916.7821202194716
 10
2084.154765361252
 20
916.3264853614492
 10
2083.699130382054
 20
915.9768644706936
  0
LWPOLYLINE
  5
741
330
6F
100
AcDbEntity
  8
t1
100
AcDbPolyline
 90
       24
 70
     1
 43
0.0
 10
1930.446702452057
 20
941.8749884809907
 10
1930.83040481615
 20
941.7968458070575
 10
1931.180808026985
 20
941.622056300692
 10
1931.474032684814
 20
941.3625315778997
 10
1931.690096013782
 20
941.0359578196546
 10
1931.814273655081
 20
940.6645904878923
 10
1931.838103107672
 20
940.2737376525584
 10
1931.759960433738
 20
939.8900352884664
 10
1931.585170927372
 20
939.5396320776308
 10
1931.32564620458
 20
939.2464074198022
 10
1930.999072446336
 20
939.0303440908342
 10
1930.627705114572
 20
938.9061664495336
 10
1930.236852279239
 20
938.8823369969438
 10
1929.853149915147
 20
938.9604796708772
 10
1929.502746704312
 20
939.1352691772427
 10
1929.209522046482
 20
939.3947939000351
 10
1928.993458717514
 20
939.7213676582799
 10
1928.869281076215
 20
940.0927349900426
 10
1928.845451623625
 20
940.4835878253766
 10
1928.923594297559
 20
940.8672901894684
 10
1929.098383803924
 20
941.2176934003039
 10
1929.357908526716
 20
941.5109180581323
 10
1929.684482284961
 20
941.7269813871007
 10
1930.055849616724
 20
941.8511590284007
  0
LWPOLYLINE
  5
743
330
6F
100
AcDbEntity
  8
t1
100
AcDbPolyline
 90
       24
 70
     1
 43
0.0
 10
2015.944611775958
 20
1033.854478405234
 10
2016.294232745736
 20
1033.398843486673
 10
2016.749867664395
 20
1033.049222517016
 10
2017.280465765201
 20
1032.829441587583
 10
2017.849867664436
 20
1032.754478405491
 10
2018.419269563652
 20
1032.829441587739
 10
2018.949867664395
 20
1033.049222517322
 10
2019.405502582958
 20
1033.398843487103
 10
2019.755123552609
 20
1033.854478405752
 10
2019.974904482047
 20
1034.385076506563
 10
2020.049867664134
 20
1034.954478405796
 10
2019.974904481893
 20
1035.523880305015
 10
2019.755123552308
 20
1036.054478405752
 10
2019.405502582531
 20
1036.510113324323
 10
2018.949867663872
 20
1036.85973429397
 10
2018.419269563068
 20
1037.079515223408
 10
2017.849867663833
 20
1037.15447840549
 10
2017.280465764617
 20
1037.079515223253
 10
2016.749867663872
 20
1036.859734293665
 10
2016.294232745309
 20
1036.510113323893
 10
2015.944611775656
 20
1036.054478405235
 10
2015.724830846219
 20
1035.52388030443
 10
2015.649867664134
 20
1034.954478405193
 10
2015.724830846376
 20
1034.38507650598
  0
LWPOLYLINE
  5
744
330
6F
100
AcDbEntity
  8
t1
100
AcDbPolyline
 90
       24
 70
     1
 43
0.0
 10
1956.674129951773
 20
964.9159454872259
 10
1956.284226229673
 20
964.8797671899773
 10
1955.898244522383
 20
964.9457361473483
 10
1955.542488845389
 20
965.1093566839149
 10
1955.241203360165
 20
965.3594783305043
 10
1955.014920174632
 20
965.679055710248
 10
1954.879060113932
 20
966.0463101528433
 10
1954.842881816682
 20
966.436213874943
 10
1954.908850774054
 20
966.8221955822335
 10
1955.07247131062
 20
967.1779512592266
 10
1955.32259295721
 20
967.4792367444501
 10
1955.642170336953
 20
967.7055199299839
 10
1956.009424779549
 20
967.8413799906838
 10
1956.399328501649
 20
967.8775582879332
 10
1956.78531020894
 20
967.8115893305616
 10
1957.141065885932
 20
967.6479687939957
 10
1957.442351371156
 20
967.3978471474059
 10
1957.668634556689
 20
967.0782697676616
 10
1957.804494617389
 20
966.7110153250666
 10
1957.840672914639
 20
966.3211116029671
 10
1957.774703957268
 20
965.9351298956764
 10
1957.611083420701
 20
965.5793742186833
 10
1957.360961774111
 20
965.27808873346
 10
1957.041384394367
 20
965.051805547926
  0
LWPOLYLINE
  5
745
330
6F
100
AcDbEntity
  8
t1
100
AcDbPolyline
 90
       24
 70
     1
 43
0.0
 10
2037.724836162343
 20
1056.385080595281
 10
2037.649872965769
 20
1056.954482492614
 10
2037.724836133524
 20
1057.523884393732
 10
2037.944617049608
 20
1058.054482500069
 10
2038.294238007793
 20
1058.510117427521
 10
2038.749872917555
 20
1058.859738408773
 10
2039.280471012768
 20
1059.079519351707
 10
2039.849872910095
 20
1059.154482548281
 10
2040.419274811217
 20
1059.079519380527
 10
2040.949872917555
 20
1058.859738464444
 10
2041.405507845012
 20
1058.510117506261
 10
2041.755128826256
 20
1058.054482596497
 10
2041.974909769195
 20
1057.52388450128
 10
2042.049872965769
 20
1056.954482603955
 10
2041.974909798014
 20
1056.385080702831
 10
2041.755128881929
 20
1055.854482596498
 10
2041.405507923745
 20
1055.398847669043
 10
2040.949873013984
 20
1055.049226687797
 10
2040.41927491877
 20
1054.829445744863
 10
2039.849873021442
 20
1054.754482548287
 10
2039.280471120321
 20
1054.829445716041
 10
2038.749873013983
 20
1055.049226632124
 10
2038.294238086525
 20
1055.398847590304
 10
2037.944617105281
 20
1055.854482500069
  0
LWPOLYLINE
  5
746
330
6F
100
AcDbEntity
  8
t1
100
AcDbPolyline
 90
       24
 70
     1
 43
0.0
 10
2059.621764796952
 20
978.9377009563127
 10
2059.091166689792
 20
978.7179200422215
 10
2058.521764788389
 20
978.6429568765923
 10
2057.952362891341
 20
978.7179200753016
 10
2057.421764796951
 20
978.937701020224
 10
2056.966129888497
 20
979.28732200318
 10
2056.616508932017
 20
979.7429569319344
 10
2056.39672801792
 20
980.2735550391002
 10
2056.321764852297
 20
980.8429569405012
 10
2056.396728051001
 20
981.4123588375515
 10
2056.616508995924
 20
981.9429569319353
 10
2056.966129978877
 20
982.3985918404003
 10
2057.421764907641
 20
982.7482127968742
 10
2057.952363014801
 20
982.9679937109712
 10
2058.521764916204
 20
983.0429568765897
 10
2059.091166813251
 20
982.9679936778909
 10
2059.621764907641
 20
982.7482127329632
 10
2060.077399816098
 20
982.398591750017
 10
2060.427020772577
 20
981.9429568212482
 10
2060.646801686672
 20
981.4123587140922
 10
2060.721764852297
 20
980.842956812687
 10
2060.646801653592
 20
980.2735549156411
 10
2060.427020708671
 20
979.74295682125
 10
2060.077399725718
 20
979.2873219127967
  0
LWPOLYLINE
  5
749
330
6F
100
AcDbEntity
  8
t1
100
AcDbPolyline
 90
       25
 70
     1
 43
0.0
 10
1983.716854149865
 20
989.0775046355832
 10
1983.186256011031
 20
988.8577237979877
 10
1982.730621031856
 20
988.5081029071903
 10
1982.380999983199
 20
988.0524680491504
 10
1982.161218961744
 20
987.5218699864481
 10
1982.086255680909
 20
986.9524681001989
 10
1982.161218764394
 20
986.383066187988
 10
1982.380999601938
 20
985.8524680491376
 10
1982.730620492673
 20
985.3968330699515
 10
1983.186255350677
 20
985.0472120213137
 10
1983.716853413335
 20
984.8274309998931
 10
1984.286255299539
 20
984.7524677190802
 10
1984.855657211731
 20
984.8274308026176
 10
1985.386255350566
 20
985.0472116402091
 10
1985.841890329737
 20
985.3968325309946
 10
1986.1915113784
 20
985.8524673890471
 10
1986.411292399852
 20
986.3830654517599
 10
1986.486255680688
 20
986.9524673379988
 10
1986.411292597204
 20
987.5218692502144
 10
1986.200203623181
 20
988.0314833639836
 10
1985.841890868934
 20
988.50810236822
 10
1985.386256010928
 20
988.8577234168739
 10
1985.226470267889
 20
988.923908871156
 10
1984.855657948263
 20
989.0775044383099
 10
1984.286256062056
 20
989.152467719102
  0
LWPOLYLINE
  5
74D
330
6F
100
AcDbEntity
  8
scritte
100
AcDbPolyline
 90
       18
 70
     1
 43
0.0
 10
2019.724931000317
 20
1056.009862909353
 10
2019.841645102166
 20
1055.885572730231
 10
2019.975877738821
 20
1055.796794366295
 10
2020.127629430465
 20
1055.743527546615
 10
2020.296900697287
 20
1055.725772000262
 10
2020.585095295861
 20
1055.783536862786
 10
2020.80826433365
 20
1055.956832606323
 10
2020.951256912022
 20
1056.227350090429
 10
2020.998920899307
 20
1056.576782101272
 10
2020.951256912022
 20
1056.955570211254
 10
2020.80826433365
 20
1057.243448767939
 10
2020.580676181006
 20
1057.42526723875
 10
2020.27922392961
 20
1057.485873010363
 10
2019.98566316942
 20
1057.432842996325
 10
2019.736294636681
 20
1057.273751798242
 10
2019.565839860033
 20
1057.040166016721
 10
2019.509021909408
 20
1056.763650788141
 10
2019.562998950942
 20
1056.340355102402
  0
LWPOLYLINE
  5
74F
330
6F
100
AcDbEntity
  8
t1
100
AcDbPolyline
 90
       24
 70
     1
 43
0.0
 10
1930.012279232674
 20
964.9152998378527
 10
1929.64476042059
 20
965.05044311169
 10
1929.324742161437
 20
965.2761023581399
 10
1929.074033170721
 20
965.5768992724759
 10
1928.909718851847
 20
965.9323350420763
 10
1928.842996954097
 20
966.3181873066283
 10
1928.878414464546
 20
966.7081608719543
 10
1929.013557738383
 20
967.0756796840375
 10
1929.239216984833
 20
967.3956979431906
 10
1929.540013899169
 20
967.6464069339051
 10
1929.895449668769
 20
967.8107212527818
 10
1930.281301933321
 20
967.8774431505292
 10
1930.671275498647
 20
967.8420256400819
 10
1931.038794310731
 20
967.7068823662448
 10
1931.358812569884
 20
967.4812231197952
 10
1931.609521560599
 20
967.1804262054592
 10
1931.773835879475
 20
966.8249904358587
 10
1931.840557777222
 20
966.4391381713068
 10
1931.805140266776
 20
966.0491646059806
 10
1931.669996992939
 20
965.6816457938973
 10
1931.444337746489
 20
965.361627534744
 10
1931.143540832153
 20
965.1109185440297
 10
1930.788105062553
 20
964.9466042251537
 10
1930.402252798
 20
964.8798823274052
  0
LWPOLYLINE
  5
750
330
6F
100
AcDbEntity
  8
t1
100
AcDbPolyline
 90
       24
 70
     1
 43
0.0
 10
2004.668391988369
 20
1010.426312838165
 10
2004.340513460903
 20
1009.954790194228
 10
2004.145846156819
 20
1009.414473071084
 10
2004.097656331187
 20
1008.84218318776
 10
2004.199228040986
 20
1008.276921154052
 10
2004.44363934205
 20
1007.757208643415
 10
2004.814234008119
 20
1007.318463204585
 10
2005.285756625136
 20
1006.990584614156
 10
2005.826073705983
 20
1006.795917256222
 10
2006.398363534513
 20
1006.747727389522
 10
2006.963625504665
 20
1006.849299073835
 10
2007.483337947315
 20
1007.09371036673
 10
2007.922083318361
 20
1007.464305042504
 10
2008.249961845827
 20
1007.935827686442
 10
2008.444629149911
 20
1008.476144809585
 10
2008.492818975543
 20
1009.048434692909
 10
2008.391247265743
 20
1009.613696726618
 10
2008.146835964679
 20
1010.133409237255
 10
2007.776241298611
 20
1010.572154676085
 10
2007.304718681592
 20
1010.900033266514
 10
2006.764401600746
 20
1011.094700624448
 10
2006.192111772218
 20
1011.142890491148
 10
2005.626849802064
 20
1011.041318806835
 10
2005.107137359415
 20
1010.79690751394
  0
LWPOLYLINE
  5
751
330
6F
100
AcDbEntity
  8
scritte
100
AcDbPolyline
 90
       10
 70
     1
 43
0.0
 10
1937.119682462211
 20
956.8854188468163
 10
1938.367157209685
 20
957.1960249074228
 10
1938.367157209685
 20
953.738954200352
 10
1939.11463195716
 20
953.738954200352
 10
1939.11463195716
 20
953.3652168266144
 10
1937.119682462211
 20
953.3652168266144
 10
1937.119682462211
 20
953.738954200352
 10
1937.867157209685
 20
953.738954200352
 10
1937.867157209685
 20
956.688449149847
 10
1937.119682462211
 20
956.5015804629783
  0
LWPOLYLINE
  5
752
330
6F
100
AcDbEntity
  8
scritte
100
AcDbPolyline
 90
       48
 70
     1
 43
0.0
 10
2020.219642867804
 20
1058.881272518213
 10
2020.025750406923
 20
1058.809895168591
 10
2019.861687852737
 20
1058.690932707293
 10
2019.727455096873
 20
1058.524384960924
 10
2019.623052030961
 20
1058.310251756088
 10
2019.548478546627
 20
1058.04853291939
 10
2019.488819889206
 20
1057.382337656828
 10
2019.678371888077
 20
1057.584516337363
 10
2019.890966045595
 20
1057.728929143903
 10
2020.126603286533
 20
1057.815576509936
 10
2020.385284535672
 20
1057.844458868949
 10
2020.619107685766
 20
1057.824178093551
 10
2020.830676181006
 20
1057.763335555431
 10
2021.01999077277
 20
1057.661930936695
 10
2021.187052212439
 20
1057.519963919454
 10
2021.323495196432
 20
1057.346273655783
 10
2021.420954112913
 20
1057.149698979866
 10
2021.479429250874
 20
1056.930239096976
 10
2021.498920899307
 20
1056.687893212383
 10
2021.477061826632
 20
1056.409167829126
 10
2021.411484415943
 20
1056.156327305358
 10
2021.30218837825
 20
1055.929370745204
 10
2021.149173424561
 20
1055.728297252787
 10
2020.96254130672
 20
1055.563681824807
 10
2020.752393429788
 20
1055.446099812876
 10
2020.518728984585
 20
1055.375550864336
 10
2020.261547161933
 20
1055.352034626525
 10
2019.969090573573
 20
1055.383126565016
 10
2019.710410412974
 20
1055.476402691458
 10
2019.485505697562
 20
1055.631863472302
 10
2019.294375444761
 20
1055.849509374
 10
2019.141912803364
 20
1056.122394753165
 10
2019.03301134601
 20
1056.443574539279
 10
2018.967670725912
 20
1056.813050025581
 10
2018.945890596277
 20
1057.230822505313
 10
2018.970906176811
 20
1057.689788278847
 10
2019.045953188138
 20
1058.094459408401
 10
2019.171032034847
 20
1058.444837338936
 10
2019.346143121529
 20
1058.740923515414
 10
2019.566708406875
 20
1058.976246265389
 10
2019.828150311964
 20
1059.144333299904
 10
2020.130469934967
 20
1059.245185139143
 10
2020.473668374055
 20
1059.278802303293
 10
2020.848668142861
 20
1059.243448922068
 10
2021.307001707388
 20
1059.137388161879
 10
2021.307001707388
 20
1058.703044727535
 10
2020.827203419331
 20
1058.854560148776
 10
2020.443365343752
 20
1058.905064929555
  0
LWPOLYLINE
  5
753
330
6F
100
AcDbEntity
  8
scritte
100
AcDbPolyline
 90
       55
 70
     1
 43
0.0
 10
2062.781282680407
 20
926.7427778079879
 10
2063.259818265137
 20
926.583686638804
 10
2063.624717023841
 20
926.5306565958667
 10
2063.947633921702
 20
926.582739669107
 10
2064.204262478387
 20
926.7389899292
 10
2064.371876345945
 20
926.9779417952728
 10
2064.427747326872
 20
927.2781313433412
 10
2064.410504730265
 20
927.4627911865334
 10
2064.358776858563
 20
927.6228294184337
 10
2064.272563588944
 20
927.7582461311585
 10
2064.151864798586
 20
927.869041416824
 10
2063.807010164369
 20
928.0167680754427
 10
2063.324211973338
 20
928.0660101312204
 10
2063.127242276367
 20
928.0660101312204
 10
2063.127242276367
 20
928.4018687170787
 10
2063.301484700609
 20
928.404393969604
 10
2063.754453346188
 20
928.4500060110003
 10
2064.078001162223
 20
928.5868425783107
 10
2064.191242566216
 20
928.689470266897
 10
2064.27212913129
 20
928.8149043362171
 10
2064.336838235963
 20
929.1341919494019
 10
2064.29422494639
 20
929.3849819144439
 10
2064.166384615284
 20
929.56411692394
 10
2063.953316549062
 20
929.6715975269748
 10
2063.655020054145
 20
929.7074242726344
 10
2063.262343402065
 20
929.6550255524616
 10
2062.831787730912
 20
929.4978283130383
 10
2062.831787730912
 20
929.9321717473821
 10
2063.267393752986
 20
930.0439143257536
 10
2063.690373589498
 20
930.0811616463718
 10
2064.191953519582
 20
930.0270269644002
 10
2064.389002199329
 20
929.9593584547967
 10
2064.550223538574
 20
929.864622359768
 10
2064.675617674589
 20
929.7428185745548
 10
2064.765184744643
 20
929.593946994397
 10
2064.818924886012
 20
929.4180075145352
 10
2064.836838235963
 20
929.2150000302099
 10
2064.78806964336
 20
928.9091280378098
 10
2064.641763403163
 20
928.6506056284288
 10
2064.397918821789
 20
928.4394319350896
 10
2064.05653520566
 20
928.2756060908161
 10
2064.45205426959
 20
928.1351389841223
 10
2064.734566741724
 20
927.923334076391
 10
2064.904073546836
 20
927.6401904283977
 10
2064.960575609701
 20
927.2857071009172
 10
2064.938795480065
 20
927.0360221704677
 10
2064.873454859967
 20
926.814747230415
 10
2064.764553402614
 20
926.621881518543
 10
2064.612090761215
 20
926.4574242726343
 10
2064.421591792648
 20
926.325952890472
 10
2064.198580968464
 20
926.2320451091408
 10
2063.943057363887
 20
926.1757006469304
 10
2063.655020054145
 20
926.1569192221292
 10
2063.263606143924
 20
926.1872221007111
 10
2062.781282680407
 20
926.2781313433412
  0
LWPOLYLINE
  5
754
330
6F
100
AcDbEntity
  8
t1
100
AcDbPolyline
 90
       24
 70
     1
 43
0.0
 10
1981.891047723058
 20
1021.958945535388
 10
1982.421645911049
 20
1021.739164816439
 10
1982.877280968408
 20
1021.389544027538
 10
1983.226902118928
 20
1020.933909247669
 10
1983.44668325901
 20
1020.403311234114
 10
1983.521646667132
 20
1019.833909364634
 10
1983.446683710924
 20
1019.264507435664
 10
1983.226902991979
 20
1018.733909247672
 10
1982.877282203079
 20
1018.278274190316
 10
1982.421647423212
 20
1017.928653039788
 10
1981.891049409656
 20
1017.708871899716
 10
1981.321647540178
 20
1017.633908491593
 10
1980.752245611201
 20
1017.708871447797
 10
1980.22164742321
 20
1017.928652166744
 10
1979.766012365858
 20
1018.278272955644
 10
1979.416391215328
 20
1018.733907735514
 10
1979.196610075255
 20
1019.26450574907
 10
1979.121646667132
 20
1019.833907618546
 10
1979.19660962333
 20
1020.403309547523
 10
1979.416390342277
 20
1020.933907735515
 10
1979.766011131188
 20
1021.389542792865
 10
1980.221645911057
 20
1021.739163943395
 10
1980.752243924612
 20
1021.958945083466
 10
1981.321645794077
 20
1022.03390849159
  0
LWPOLYLINE
  5
75A
330
6F
100
AcDbEntity
  8
t1
100
AcDbPolyline
 90
       24
 70
     1
 43
0.0
 10
1962.11419008706
 20
997.0728294689306
 10
1961.54478820482
 20
997.147792664397
 10
1960.97538632264
 20
997.0728294996613
 10
1960.444788237816
 20
996.8530485905223
 10
1959.989153332963
 20
996.5034276427283
 10
1959.639532373884
 20
996.0477927460964
 10
1959.419751451165
 20
995.5171946658627
 10
1959.344788271479
 20
994.9477927843387
 10
1959.419751451642
 20
994.3783908987677
 10
1959.639532374803
 20
993.8477928066703
 10
1959.989153334262
 20
993.392157891172
 10
1960.444788239403
 20
993.0425369187886
 10
1960.975386324412
 20
992.8227559810093
 10
1961.544788206653
 20
992.7477927855459
 10
1962.114190088834
 20
992.8227559502792
 10
1962.64478817366
 20
993.0425368594208
 10
1963.100423078509
 20
993.3921578072144
 10
1963.450044037586
 20
993.8477927038443
 10
1963.669824960307
 20
994.378390784079
 10
1963.744788139996
 20
994.947792665603
 10
1963.669824959831
 20
995.5171945511754
 10
1963.450044036668
 20
996.0477926432702
 10
1963.100423077212
 20
996.5034275587708
 10
1962.644788172069
 20
996.8530485311557
  0
LWPOLYLINE
  5
76C
330
6F
100
AcDbEntity
  8
t2
100
AcDbPolyline
 90
       25
 70
     1
 43
0.0
 10
1963.960841734011
 20
970.8648639922587
 10
1959.937410975613
 20
974.8882947406585
 10
1927.725592217537
 20
974.8883004749215
 10
1923.702160308464
 20
970.864869008156
 10
1923.702154105686
 20
935.8695250105467
 10
1929.320945954607
 20
927.8421318082598
 10
1933.301774241407
 20
927.8421324209686
 10
1933.301774221141
 20
919.9221324339607
 10
1929.301774227637
 20
919.9221331176802
 10
1929.301772894592
 20
911.842131709178
 10
1933.301774248529
 20
911.8421324200138
 10
1933.301774322483
 20
903.9221324339591
 10
1929.301774357256
 20
903.9221331176763
 10
1929.301765689265
 20
893.8421404893079
 10
1953.381764999917
 20
893.8421378077446
 10
1953.38177813798
 20
924.5236771055246
 10
1957.301772364574
 20
924.5236767333588
 10
1957.302159308237
 20
911.8474364459407
 10
1968.566187496279
 20
911.8365396978452
 10
1968.566187554228
 20
915.8450682203078
 10
1976.387285481152
 20
915.845068293852
 10
1976.386289034502
 20
939.9221295950347
 10
1973.301769895749
 20
939.9221226826895
 10
1973.301769212028
 20
935.9221227793772
 10
1963.960835795854
 20
935.9221244252561
  0
LWPOLYLINE
  5
76D
330
6F
100
AcDbEntity
  8
t2
100
AcDbPolyline
 90
       25
 70
     1
 43
0.0
 10
2017.88084028364
 20
907.8474314265188
 10
2017.880453339977
 20
920.5236717139367
 10
2013.960459113384
 20
920.5236720861028
 10
2013.96044597532
 20
889.8421327883227
 10
1989.880446664667
 20
889.8421354698857
 10
1989.880455332658
 20
899.9221280982544
 10
1993.880455297886
 20
899.9221274145371
 10
1993.880455223932
 20
907.8421274005917
 10
1989.880453869993
 20
907.842126689756
 10
1989.88045520304
 20
915.9221280982583
 10
1993.880455196543
 20
915.9221274145386
 10
1993.880455216809
 20
923.8421274015468
 10
1989.89962693001
 20
923.8421267888377
 10
1984.280835081089
 20
931.8695199911251
 10
1984.280841283867
 20
966.8648639887344
 10
1988.304273192938
 20
970.8882954554995
 10
2020.516091951016
 20
970.8882897212363
 10
2024.539522709414
 20
966.8648589728366
 10
2024.539516771257
 20
931.9221194058343
 10
2033.88045018743
 20
931.9221177599553
 10
2033.880450871152
 20
935.9221176632679
 10
2036.964970009902
 20
935.9221245756128
 10
2036.965966456556
 20
911.8450632744302
 10
2029.14486852963
 20
911.8450632008856
 10
2029.144868471682
 20
907.8365346784233
  0
LWPOLYLINE
  5
76E
330
6F
100
AcDbEntity
  8
t2
100
AcDbPolyline
 90
       28
 70
     1
 43
0.0
 10
2090.559131846555
 20
931.9221126438462
 10
2090.559131162832
 20
927.9221127405335
 10
2081.218197746659
 20
927.9221143864123
 10
2081.218203684818
 20
962.864853953415
 10
2077.19477292642
 20
966.8882847018148
 10
2044.982954168342
 20
966.8882904360776
 10
2040.95952225927
 20
962.8648589693126
 10
2040.959516056492
 20
927.8695149717032
 10
2046.578307905412
 20
919.8421217694155
 10
2050.559136192212
 20
919.8421223821252
 10
2050.559136171946
 20
911.9221223951168
 10
2046.559136178442
 20
911.9221230788363
 10
2046.559134845395
 20
903.8421216703342
 10
2050.559136199334
 20
903.8421223811701
 10
2050.559136273288
 20
895.9221223951155
 10
2046.55913630806
 20
895.9221230788326
 10
2046.55912764007
 20
885.8421304504641
 10
2070.63912695272
 20
885.8421277689004
 10
2070.639140604757
 20
921.9365699764296
 10
2074.559133604605
 20
921.936569604264
 10
2074.55913021212
 20
885.84212872906
 10
2087.61361196395
 20
885.8421255548277
 10
2093.639129578444
 20
890.8633878209851
 10
2093.640307620516
 20
903.9251015426296
 10
2085.823549448241
 20
903.9166118406473
 10
2085.823549505033
 20
907.8450581814639
 10
2093.644647431958
 20
907.8450582550082
 10
2093.643650985306
 20
931.9221195561906
  0
LWPOLYLINE
  5
76F
330
6F
100
AcDbEntity
  8
t2
100
AcDbPolyline
 90
       22
 70
     1
 43
0.0
 10
2076.473942406577
 20
1001.573328863971
 10
2076.4739010357
 20
1014.183319535514
 10
2084.561645355595
 20
1014.183320866131
 10
2084.561645052756
 20
980.8405542994659
 10
2078.540425304283
 20
970.811640225126
 10
2044.473646124538
 20
970.81170582937
 10
2044.473646240189
 20
978.8116674675402
 10
2040.55364624019
 20
978.8116668331083
 10
2040.55364612454
 20
970.8117060644493
 10
2036.497145286194
 20
970.8116087595135
 10
2026.473713566153
 20
980.835040398588
 10
2026.473732062074
 20
1012.891610138392
 10
2032.473730314462
 20
1012.891614245844
 10
2034.513730314465
 20
1012.891614600357
 10
2038.593730314467
 20
1012.891615260689
 10
2036.553730314466
 20
1012.891614930523
 10
2044.563648982688
 20
1012.891616917594
 10
2044.563660286442
 20
1006.986408813866
 10
2048.484957074002
 20
1006.986427845208
 10
2048.48494510169
 20
1014.891636334505
 10
2068.559901048559
 20
1014.891632705317
 10
2068.559918949149
 20
1001.573315574139
  0
LWPOLYLINE
  5
770
330
6F
100
AcDbEntity
  8
t2
100
AcDbPolyline
 90
       16
 70
     1
 43
0.0
 10
2014.248405049661
 20
1022.987860529923
 10
2017.345211217733
 20
1022.98653042797
 10
2017.327620573412
 20
998.8983027369094
 10
2009.506674349819
 20
998.904664892297
 10
2009.510817193081
 20
995.002306568826
 10
2017.332332355161
 20
995.0106105522847
 10
2017.328081069745
 20
981.9342650370836
 10
2011.30256792787
 20
976.9130063505112
 10
1998.288023628727
 20
976.9130101343124
 10
1974.247057669984
 20
976.9131754617786
 10
1974.247284949419
 20
998.9896609207614
 10
1994.314524128121
 20
998.9892440168441
 10
1994.31432888792
 20
984.992819534376
 10
1998.24811960895
 20
984.9930478531211
 10
1998.263488695817
 20
1019.007700609286
 10
2014.246332485539
 20
1018.994317259499
  0
LWPOLYLINE
  5
771
330
6F
100
AcDbEntity
  8
t2
100
AcDbPolyline
 90
       12
 70
     1
 43
0.0
 10
1979.881280213325
 20
1029.873886831895
 10
1973.98164476186
 20
1029.873885164746
 10
1973.981643436741
 20
1009.793885164741
 10
1979.862522608921
 20
1009.793886827328
 10
1979.862524524764
 20
1001.803318558864
 10
1989.361645364823
 20
1001.80332086928
 10
1989.361643448978
 20
1009.793889139325
 10
1992.361658518783
 20
1009.793889869001
 10
1992.361658193974
 20
1029.873889869001
 10
1989.361644749632
 20
1029.873889139324
 10
1989.361642847576
 20
1037.806096933624
 10
1979.881278311272
 20
1037.806094627768
  0
LWPOLYLINE
  5
772
330
6F
100
AcDbEntity
  8
t2
100
AcDbPolyline
 90
       25
 70
     1
 43
0.0
 10
2039.866439662784
 20
1024.914478058371
 10
2049.889871276074
 20
1034.937909011107
 10
2049.889853706959
 20
1066.994478750915
 10
2043.849855475476
 20
1066.994483060371
 10
2039.849855454563
 20
1066.994483823397
 10
2035.849855877899
 20
1066.994484771163
 10
2031.798764315163
 20
1066.994484691375
 10
2031.798764199517
 20
1058.994483406586
 10
2027.878768294832
 20
1058.994484759261
 10
2027.878763620968
 20
1068.994875242118
 10
2007.809856732345
 20
1068.994865405952
 10
2007.80985756462
 20
1058.994475202874
 10
1999.88986843467
 20
1058.994487943148
 10
1999.889893343003
 20
1068.286565576205
 10
1991.809892690065
 20
1068.286566804167
 10
1991.809891992084
 20
1034.943401791895
 10
1997.827231864263
 20
1024.914481007314
 10
1999.889868444888
 20
1024.914475007152
 10
1999.889854809097
 20
1034.914470015379
 10
2007.809854027728
 20
1034.914474000371
 10
2007.809853530568
 20
1024.914467982427
 10
2027.878763352854
 20
1024.914479510651
 10
2027.878763850013
 20
1034.914485495136
 10
2031.798763850014
 20
1034.914484747375
 10
2031.798763352856
 20
1024.91447872797
  0
LWPOLYLINE
  5
773
330
6F
100
AcDbEntity
  8
t2
100
AcDbPolyline
 90
       15
 70
     1
 43
0.0
 10
1962.893597887249
 20
1004.982321187199
 10
1962.890128462981
 20
1012.901634737216
 10
1951.706109784159
 20
1012.903783720944
 10
1951.700932218665
 20
1020.996687912551
 10
1960.760953633107
 20
1020.994472413969
 10
1970.789874670886
 20
1014.976252732334
 10
1970.788608198649
 20
976.9131738112672
 10
1962.890232527051
 20
976.9134454078743
 10
1962.887447583064
 20
984.9134416523494
 10
1927.702686271542
 20
984.9134808090765
 10
1927.702336069819
 20
990.9095353160465
 10
1923.702334634119
 20
990.909417299095
 10
1923.702159890575
 20
998.9883017795031
 10
1927.702164133261
 20
998.9881927654012
 10
1927.702672705904
 20
1004.982161391037
  0
LWPOLYLINE
  5
774
330
6F
100
AcDbEntity
  8
t1
100
AcDbPolyline
 90
        4
 70
     1
 43
0.0
 10
1945.73646327284
 20
989.8134187859513
 10
1929.756461569867
 20
989.8134220308591
 10
1929.756461596646
 20
1000.082210889785
 10
1945.73646101798
 20
1000.082209369005
  0
LWPOLYLINE
  5
775
330
6F
100
AcDbEntity
  8
t1
100
AcDbPolyline
 90
       24
 70
     1
 43
0.0
 10
2011.065810394812
 20
989.061831421899
 10
2009.90772018274
 20
989.6407546592396
 10
2008.639254578252
 20
989.900215762792
 10
2007.346857416052
 20
989.8225328871337
 10
2006.118603426964
 20
989.4129999918607
 10
2005.038196090552
 20
988.6995260670026
 10
2004.179263381335
 20
987.7307331814654
 10
2003.600340143993
 20
986.5726429693935
 10
2003.340879040442
 20
985.304177364906
 10
2003.418561916101
 20
984.0117802027087
 10
2003.828094811372
 20
982.7835262136183
 10
2004.541568736229
 20
981.7031188772059
 10
2005.510361621769
 20
980.8441861679899
 10
2006.66845183384
 20
980.26526293065
 10
2007.936917438329
 20
980.005801827097
 10
2009.229314600526
 20
980.083484702755
 10
2010.457568589618
 20
980.4930175980283
 10
2011.537975926028
 20
981.2064915228868
 10
2012.396908635246
 20
982.175284408423
 10
2012.975831872587
 20
983.333374620496
 10
2013.235292976138
 20
984.6018402249844
 10
2013.157610100481
 20
985.8942373871796
 10
2012.748077205209
 20
987.1224913762716
 10
2012.034603280348
 20
988.202898712684
  0
LWPOLYLINE
  5
776
330
6F
100
AcDbEntity
  8
t1
100
AcDbPolyline
 90
        4
 70
     1
 43
0.0
 10
2048.485668310359
 20
988.8012740641743
 10
2048.484808574051
 20
992.8812439336347
 10
2068.55388038374
 20
992.8850346103446
 10
2068.554527405104
 20
988.8050346615823
  0
LWPOLYLINE
  5
777
330
6F
100
AcDbEntity
  8
t1
100
AcDbPolyline
 90
       24
 70
     1
 43
0.0
 10
2087.399021414567
 20
891.0947750009128
 10
2088.02828431981
 20
891.9148463606585
 10
2088.423855525256
 20
892.8698396906979
 10
2088.558777506982
 20
893.8946737737776
 10
2088.423855554887
 20
894.9195078607628
 10
2088.028284377047
 20
895.8745012022342
 10
2087.399021495512
 20
896.6945725801839
 10
2086.578950135766
 20
897.3238354854215
 10
2085.623956805729
 20
897.7194066908706
 10
2084.599122722639
 20
897.8543286725971
 10
2083.574288635662
 20
897.7194067205013
 10
2082.619295294186
 20
897.3238355426621
 10
2081.799223916238
 20
896.6945726611319
 10
2081.169961010999
 20
895.8745013013762
 10
2080.774389805549
 20
894.9195079713382
 10
2080.63946782383
 20
893.894673888257
 10
2080.774389775916
 20
892.8698398012754
 10
2081.169960953761
 20
891.9148464598011
 10
2081.799223835293
 20
891.0947750818591
 10
2082.619295195046
 20
890.4655121766156
 10
2083.574288525084
 20
890.0699409711632
 10
2084.599122608164
 20
889.9350189894445
 10
2085.623956695149
 20
890.0699409415341
 10
2086.578950036622
 20
890.465512119376
  0
LWPOLYLINE
  5
778
330
6F
100
AcDbEntity
  8
t1
100
AcDbPolyline
 90
       24
 70
     1
 43
0.0
 10
2057.594651516899
 20
957.1413493990831
 10
2060.741436883529
 20
957.5181638915898
 10
2063.878524906075
 20
957.0676907578889
 10
2066.792128220087
 20
955.8206289975984
 10
2069.28368957467
 20
953.8619638088166
 10
2071.18341318101
 20
951.3251749873122
 10
2072.361836014776
 20
948.3831404990278
 10
2072.738650507282
 20
945.2363551323976
 10
2072.288177373581
 20
942.099267109852
 10
2071.04111561329
 20
939.1856637958406
 10
2069.082450424508
 20
936.694102441257
 10
2066.545661603004
 20
934.7943788349184
 10
2063.603627114718
 20
933.6159560011527
 10
2060.456841748089
 20
933.2391415086464
 10
2057.319753725542
 20
933.689614642348
 10
2054.406150411532
 20
934.9366764026383
 10
2051.914589056948
 20
936.8953415914191
 10
2050.014865450609
 20
939.4321304129235
 10
2048.836442616845
 20
942.3741649012086
 10
2048.459628124337
 20
945.5209502678386
 10
2048.910101258038
 20
948.6580382903847
 10
2050.157163018328
 20
951.5716416043956
 10
2052.115828207111
 20
954.0632029589794
 10
2054.652617028615
 20
955.9629265653184
  0
ENDSEC
  0
SECTION
  2
OBJECTS
  0
DICTIONARY
  5
C
330
0
100
AcDbDictionary
281
     1
  3
ACAD_CIP_PREVIOUS_PRODUCT_INFO
350
65D
  3
ACAD_COLOR
350
62
  3
ACAD_DETAILVIEWSTYLE
350
69
  3
ACAD_GROUP
350
D
  3
ACAD_LAYOUT
350
61
  3
ACAD_MATERIAL
350
10
  3
ACAD_MLEADERSTYLE
350
65
  3
ACAD_MLINESTYLE
350
5E
  3
ACAD_PLOTSETTINGS
350
60
  3
ACAD_PLOTSTYLENAME
350
E
  3
ACAD_SCALELIST
350
42
  3
ACAD_SECTIONVIEWSTYLE
350
67
  3
ACAD_TABLESTYLE
350
63
  3
ACAD_VISUALSTYLE
350
29
  3
ACDB_RECOMPOSE_DATA
350
7B2
  3
AcDbVariableDictionary
350
675
  0
DICTIONARY
  5
66F
330
2
100
AcDbDictionary
280
     1
281
     1
  3
ACAD_LAYERSTATES
360
670
  0
DICTIONARY
  5
664
330
54
100
AcDbDictionary
280
     1
281
     1
  3
ADSK_XREC_LAYER_RECONCILED
360
665
  0
DICTIONARY
  5
666
330
73
100
AcDbDictionary
280
     1
281
     1
  3
ADSK_XREC_LAYER_RECONCILED
360
667
  0
DICTIONARY
  5
668
330
660
100
AcDbDictionary
280
     1
281
     1
  3
ADSK_XREC_LAYER_RECONCILED
360
669
  0
DICTIONARY
  5
66A
330
663
100
AcDbDictionary
280
     1
281
     1
  3
ADSK_XREC_LAYER_RECONCILED
360
66B
  0
DICTIONARY
  5
65E
330
6F
100
AcDbDictionary
280
     1
281
     1
  3
ACAD_SORTENTS
360
65F
  0
XRECORD
  5
65D
102
{ACAD_REACTORS
330
C
102
}
330
C
100
AcDbXrecord
280
     1
300
ACDMAC
300
2014
300
ACD_F_S
  0
DICTIONARY
  5
62
102
{ACAD_REACTORS
330
C
102
}
330
C
100
AcDbDictionary
281
     1
  0
DICTIONARY
  5
69
102
{ACAD_REACTORS
330
C
102
}
330
C
100
AcDbDictionary
281
     1
  3
Imperial24
350
6A
  0
DICTIONARY
  5
D
102
{ACAD_REACTORS
330
C
102
}
330
C
100
AcDbDictionary
281
     1
  0
DICTIONARY
  5
61
102
{ACAD_REACTORS
330
C
102
}
330
C
100
AcDbDictionary
281
     1
  3
Layout1
350
6E
  3
Model
350
72
  0
DICTIONARY
  5
10
102
{ACAD_REACTORS
330
C
102
}
330
C
100
AcDbDictionary
281
     1
  3
ByBlock
350
19
  3
ByLayer
350
11
  3
Global
350
21
  0
DICTIONARY
  5
65
102
{ACAD_REACTORS
330
C
102
}
330
C
100
AcDbDictionary
281
     1
  3
Standard
350
66
  0
DICTIONARY
  5
5E
102
{ACAD_REACTORS
330
C
102
}
330
C
100
AcDbDictionary
281
     1
  3
Standard
350
5F
  0
DICTIONARY
  5
60
102
{ACAD_REACTORS
330
C
102
}
330
C
100
AcDbDictionary
281
     1
  0
ACDBDICTIONARYWDFLT
  5
E
102
{ACAD_REACTORS
330
C
102
}
330
C
100
AcDbDictionary
281
     1
  3
Normal
350
F
100
AcDbDictionaryWithDefault
340
F
  0
DICTIONARY
  5
42
102
{ACAD_REACTORS
330
C
102
}
330
C
100
AcDbDictionary
281
     1
  3
A0
350
43
  3
A1
350
44
  3
A2
350
45
  3
A3
350
46
  3
A4
350
47
  3
A5
350
48
  3
A6
350
49
  3
A7
350
4A
  3
A8
350
4B
  3
A9
350
4C
  3
B0
350
4D
  3
B1
350
4E
  3
B2
350
4F
  3
B3
350
50
  3
B4
350
51
  3
B5
350
52
  3
B6
350
53
  0
DICTIONARY
  5
67
102
{ACAD_REACTORS
330
C
102
}
330
C
100
AcDbDictionary
281
     1
  3
Imperial24
350
68
  0
DICTIONARY
  5
63
102
{ACAD_REACTORS
330
C
102
}
330
C
100
AcDbDictionary
281
     1
  3
Standard
350
64
  0
DICTIONARY
  5
29
102
{ACAD_REACTORS
330
C
102
}
330
C
100
AcDbDictionary
281
     1
  3
2dWireframe
350
2F
  3
Basic
350
2E
  3
Brighten
350
35
  3
ColorChange
350
39
  3
Conceptual
350
32
  3
Dim
350
34
  3
EdgeColorOff
350
41
  3
Facepattern
350
38
  3
Flat
350
2A
  3
FlatWithEdges
350
2B
  3
Gouraud
350
2C
  3
GouraudWithEdges
350
2D
  3
Hidden
350
31
  3
JitterOff
350
3F
  3
Linepattern
350
37
  3
OverhangOff
350
40
  3
Realistic
350
33
  3
Shaded
350
3E
  3
Shaded with edges
350
3D
  3
Shades of Gray
350
3A
  3
Sketchy
350
3B
  3
Thicken
350
36
  3
Wireframe
350
30
  3
X-Ray
350
3C
  0
XRECORD
  5
7B2
102
{ACAD_REACTORS
330
C
102
}
330
C
100
AcDbXrecord
280
     1
 90
        1
330
64
330
68
330
6A
  0
DICTIONARY
  5
675
102
{ACAD_REACTORS
330
C
102
}
330
C
100
AcDbDictionary
281
     1
  3
CANNOSCALE
350
67B
  3
CMLEADERSTYLE
350
677
  3
CTABLESTYLE
350
676
  3
CVIEWDETAILSTYLE
350
678
  3
CVIEWSECTIONSTYLE
350
679
  3
LAYEREVAL
350
67D
  3
LAYERNOTIFY
350
67E
  3
LIGHTINGUNITS
350
67C
  3
MSLTSCALE
350
67A
  0
DICTIONARY
  5
670
102
{ACAD_REACTORS
330
66F
102
}
330
66F
100
AcDbDictionary
281
     1
  0
XRECORD
  5
665
102
{ACAD_REACTORS
330
664
102
}
330
664
100
AcDbXrecord
280
     1
290
     1
  0
XRECORD
  5
667
102
{ACAD_REACTORS
330
666
102
}
330
666
100
AcDbXrecord
280
     1
290
     1
  0
XRECORD
  5
669
102
{ACAD_REACTORS
330
668
102
}
330
668
100
AcDbXrecord
280
     1
290
     1
  0
XRECORD
  5
66B
102
{ACAD_REACTORS
330
66A
102
}
330
66A
100
AcDbXrecord
280
     1
290
     1
  0
SORTENTSTABLE
  5
65F
102
{ACAD_REACTORS
330
65E
102
}
330
65E
100
AcDbSortentsTable
330
6F
331
710
  5
71A
331
741
  5
74D
331
735
  5
740
331
774
  5
776
331
76E
  5
73C
331
69D
  5
69D
331
723
  5
736
331
6CE
  5
6DB
331
75A
  5
778
331
754
  5
774
331
717
  5
723
331
71D
  5
732
331
6B6
  5
6B6
331
6FF
  5
702
331
73C
  5
745
331
736
  5
741
331
775
  5
756
331
76F
  5
721
331
6A4
  5
6A4
331
69E
  5
69E
331
72A
  5
73A
331
698
  5
698
331
74F
  5
76C
331
749
  5
758
331
743
  5
74F
331
776
  5
6C4
331
700
  5
707
331
73D
  5
746
331
770
  5
759
331
725
  5
739
331
69F
  5
69F
331
699
  5
699
331
6C4
  5
6CE
331
750
  5
76E
331
744
  5
752
331
6BE
  5
6BE
331
70D
  5
714
331
777
  5
71C
331
6B2
  5
6B2
331
73E
  5
747
331
6AC
  5
6AC
331
732
  5
73D
331
771
  5
775
331
6A6
  5
6A6
331
6A0
  5
6A0
331
69A
  5
69A
331
751
  5
76F
331
71A
  5
725
331
70E
  5
715
331
745
  5
753
331
702
  5
709
331
778
  5
70E
331
739
  5
743
331
772
  5
700
331
76C
  5
749
331
6A1
  5
6A1
331
721
  5
735
331
69B
  5
69B
331
752
  5
772
331
715
  5
71D
331
746
  5
754
331
740
  5
74A
331
709
  5
710
331
73A
  5
744
331
6EF
  5
6FF
331
773
  5
777
331
6A8
  5
6A8
331
6E9
  5
6EF
331
76D
  5
73E
331
69C
  5
69C
331
6DB
  5
6E9
331
753
  5
773
331
74D
  5
75A
331
71C
  5
72A
  0
ACDBDETAILVIEWSTYLE
  5
6A
102
{ACAD_XDICTIONARY
360
691
102
}
102
{ACAD_REACTORS
330
69
102
}
330
69
100
AcDbModelDocViewStyle
 70
     0
  3
Imperial24
290
     0
100
AcDbDetailViewStyle
 70
     0
 71
     0
 90
        3
 71
     1
340
55
 62
   256
 40
0.24
340
0
 62
   256
 40
0.24
300

 40
0.36
280
     3
 71
     2
340
5C
 90
       25
 62
   256
 71
     3
340
55
 62
   256
 40
0.24
 90
        1
 40
0.75
 90
        1
300
%<\AcVar ViewType \f "%tc1">% %<\AcVar ViewDetailId>%\PSCALE %<\AcVar ViewScale \f "%sn">%
 71
     4
340
5C
 90
       25
 62
   256
340
5C
 90
       25
 62
   256
280
     0
  0
LAYOUT
  5
6E
102
{ACAD_REACTORS
330
61
102
}
330
61
100
AcDbPlotSettings
  1

  2
HP_Photosmart_C4100_series
  4

  6

 40
0.0
 41
0.0
 42
0.0
 43
0.0
 44
0.0
 45
0.0
 46
0.0
 47
0.0
 48
0.0
 49
0.0
140
0.0
141
0.0
142
1.0
143
1.0
 70
   688
 72
     0
 73
     0
 74
     5
  7

 75
    16
147
1.0
 76
     0
 77
     2
 78
   300
148
0.0
149
0.0
100
AcDbLayout
  1
Layout1
 70
     1
 71
     1
 10
0.0
 20
0.0
 11
12.0
 21
9.0
 12
0.0
 22
0.0
 32
0.0
 14
1.000000000000000E+20
 24
1.000000000000000E+20
 34
1.000000000000000E+20
 15
-1.000000000000000E+20
 25
-1.000000000000000E+20
 35
-1.000000000000000E+20
146
0.0
 13
0.0
 23
0.0
 33
0.0
 16
1.0
 26
0.0
 36
0.0
 17
0.0
 27
1.0
 37
0.0
 76
     0
330
6B
  0
LAYOUT
  5
72
102
{ACAD_REACTORS
330
61
102
}
330
61
100
AcDbPlotSettings
  1

  2
HP_Photosmart_C4100_series
  4

  6

 40
0.0
 41
0.0
 42
0.0
 43
0.0
 44
0.0
 45
0.0
 46
0.0
 47
0.0
 48
0.0
 49
0.0
140
0.0
141
0.0
142
1.0
143
1.0
 70
  1712
 72
     0
 73
     0
 74
     0
  7

 75
     0
147
1.0
 76
     0
 77
     2
 78
   300
148
0.0
149
0.0
100
AcDbLayout
  1
Model
 70
     1
 71
     0
 10
0.0
 20
0.0
 11
12.0
 21
9.0
 12
0.0
 22
0.0
 32
0.0
 14
0.0
 24
0.0
 34
0.0
 15
0.0
 25
0.0
 35
0.0
146
0.0
 13
0.0
 23
0.0
 33
0.0
 16
1.0
 26
0.0
 36
0.0
 17
0.0
 27
1.0
 37
0.0
 76
     0
330
6F
331
65C
  0
MATERIAL
  5
19
102
{ACAD_XDICTIONARY
360
1A
102
}
102
{ACAD_REACTORS
330
10
102
}
330
10
100
AcDbMaterial
  1
ByBlock
 72
     0
 43
0.0208333333333333
 43
0.0
 43
0.0
 43
0.0
 43
0.0
 43
0.0208333333333333
 43
0.0
 43
0.0
 43
0.0
 43
0.0
 43
1.0
 43
0.0
 43
0.0
 43
0.0
 43
0.0
 43
1.0
 77
     0
 47
0.0208333333333333
 47
0.0
 47
0.0
 47
0.0
 47
0.0
 47
0.0208333333333333
 47
0.0
 47
0.0
 47
0.0
 47
0.0
 47
1.0
 47
0.0
 47
0.0
 47
0.0
 47
0.0
 47
1.0
171
     0
 49
0.0208333333333333
 49
0.0
 49
0.0
 49
0.0
 49
0.0
 49
0.0208333333333333
 49
0.0
 49
0.0
 49
0.0
 49
0.0
 49
1.0
 49
0.0
 49
0.0
 49
0.0
 49
0.0
 49
1.0
175
     0
142
0.0208333333333333
142
0.0
142
0.0
142
0.0
142
0.0
142
0.0208333333333333
142
0.0
142
0.0
142
0.0
142
0.0
142
1.0
142
0.0
142
0.0
142
0.0
142
0.0
142
1.0
179
     0
144
0.0208333333333333
144
0.0
144
0.0
144
0.0
144
0.0
144
0.0208333333333333
144
0.0
144
0.0
144
0.0
144
0.0
144
1.0
144
0.0
144
0.0
144
0.0
144
0.0
144
1.0
147
0.0208333333333333
147
0.0
147
0.0
147
0.0
147
0.0
147
0.0208333333333333
147
0.0
147
0.0
147
0.0
147
0.0
147
1.0
147
0.0
147
0.0
147
0.0
147
0.0
147
1.0
  0
MATERIAL
  5
11
102
{ACAD_XDICTIONARY
360
12
102
}
102
{ACAD_REACTORS
330
10
102
}
330
10
100
AcDbMaterial
  1
ByLayer
 72
     0
 43
0.0208333333333333
 43
0.0
 43
0.0
 43
0.0
 43
0.0
 43
0.0208333333333333
 43
0.0
 43
0.0
 43
0.0
 43
0.0
 43
1.0
 43
0.0
 43
0.0
 43
0.0
 43
0.0
 43
1.0
 77
     0
 47
0.0208333333333333
 47
0.0
 47
0.0
 47
0.0
 47
0.0
 47
0.0208333333333333
 47
0.0
 47
0.0
 47
0.0
 47
0.0
 47
1.0
 47
0.0
 47
0.0
 47
0.0
 47
0.0
 47
1.0
171
     0
 49
0.0208333333333333
 49
0.0
 49
0.0
 49
0.0
 49
0.0
 49
0.0208333333333333
 49
0.0
 49
0.0
 49
0.0
 49
0.0
 49
1.0
 49
0.0
 49
0.0
 49
0.0
 49
0.0
 49
1.0
175
     0
142
0.0208333333333333
142
0.0
142
0.0
142
0.0
142
0.0
142
0.0208333333333333
142
0.0
142
0.0
142
0.0
142
0.0
142
1.0
142
0.0
142
0.0
142
0.0
142
0.0
142
1.0
179
     0
144
0.0208333333333333
144
0.0
144
0.0
144
0.0
144
0.0
144
0.0208333333333333
144
0.0
144
0.0
144
0.0
144
0.0
144
1.0
144
0.0
144
0.0
144
0.0
144
0.0
144
1.0
147
0.0208333333333333
147
0.0
147
0.0
147
0.0
147
0.0
147
0.0208333333333333
147
0.0
147
0.0
147
0.0
147
0.0
147
1.0
147
0.0
147
0.0
147
0.0
147
0.0
147
1.0
  0
MATERIAL
  5
21
102
{ACAD_XDICTIONARY
360
22
102
}
102
{ACAD_REACTORS
330
10
102
}
330
10
100
AcDbMaterial
  1
Global
 72
     0
 43
0.0208333333333333
 43
0.0
 43
0.0
 43
0.0
 43
0.0
 43
0.0208333333333333
 43
0.0
 43
0.0
 43
0.0
 43
0.0
 43
1.0
 43
0.0
 43
0.0
 43
0.0
 43
0.0
 43
1.0
 77
     0
 47
0.0208333333333333
 47
0.0
 47
0.0
 47
0.0
 47
0.0
 47
0.0208333333333333
 47
0.0
 47
0.0
 47
0.0
 47
0.0
 47
1.0
 47
0.0
 47
0.0
 47
0.0
 47
0.0
 47
1.0
171
     0
 49
0.0208333333333333
 49
0.0
 49
0.0
 49
0.0
 49
0.0
 49
0.0208333333333333
 49
0.0
 49
0.0
 49
0.0
 49
0.0
 49
1.0
 49
0.0
 49
0.0
 49
0.0
 49
0.0
 49
1.0
175
     0
142
0.0208333333333333
142
0.0
142
0.0
142
0.0
142
0.0
142
0.0208333333333333
142
0.0
142
0.0
142
0.0
142
0.0
142
1.0
142
0.0
142
0.0
142
0.0
142
0.0
142
1.0
179
     0
144
0.0208333333333333
144
0.0
144
0.0
144
0.0
144
0.0
144
0.0208333333333333
144
0.0
144
0.0
144
0.0
144
0.0
144
1.0
144
0.0
144
0.0
144
0.0
144
0.0
144
1.0
147
0.0208333333333333
147
0.0
147
0.0
147
0.0
147
0.0
147
0.0208333333333333
147
0.0
147
0.0
147
0.0
147
0.0
147
1.0
147
0.0
147
0.0
147
0.0
147
0.0
147
1.0
  0
MLEADERSTYLE
  5
66
102
{ACAD_REACTORS
330
65
102
}
330
65
100
AcDbMLeaderStyle
179
     2
170
     2
171
     1
172
     0
 90
        2
 40
0.0
 41
0.0
173
     1
 91
-1056964608
340
5A
 92
       -2
290
     1
 42
0.09
291
     1
 43
0.36
  3
Standard
 44
0.18
300

342
55
174
     1
178
     6
175
     1
176
     0
 93
-1056964608
 45
0.18
292
     0
297
     0
 46
0.18
 94
-1056964608
 47
1.0
 49
1.0
140
1.0
293
     1
141
0.0
294
     1
177
     0
142
1.0
295
     0
296
     0
143
0.125
271
     0
272
     9
273
     9
298
     0
  0
MLINESTYLE
  5
5F
102
{ACAD_REACTORS
330
5E
102
}
330
5E
100
AcDbMlineStyle
  2
STANDARD
 70
     0
  3

 62
   256
 51
90.0
 52
90.0
 71
     2
 49
0.5
 62
   256
  6
BYLAYER
 49
-0.5
 62
   256
  6
BYLAYER
  0
ACDBPLACEHOLDER
  5
F
102
{ACAD_REACTORS
330
E
102
}
330
E
  0
SCALE
  5
43
102
{ACAD_REACTORS
330
42
102
}
330
42
100
AcDbScale
 70
     0
300
1:1
140
1.0
141
1.0
290
     1
  0
SCALE
  5
44
102
{ACAD_REACTORS
330
42
102
}
330
42
100
AcDbScale
 70
     0
300
1/128" = 1'-0"
140
0.0078125
141
12.0
290
     0
  0
SCALE
  5
45
102
{ACAD_REACTORS
330
42
102
}
330
42
100
AcDbScale
 70
     0
300
1/64" = 1'-0"
140
0.015625
141
12.0
290
     0
  0
SCALE
  5
46
102
{ACAD_REACTORS
330
42
102
}
330
42
100
AcDbScale
 70
     0
300
1/32" = 1'-0"
140
0.03125
141
12.0
290
     0
  0
SCALE
  5
47
102
{ACAD_REACTORS
330
42
102
}
330
42
100
AcDbScale
 70
     0
300
1/16" = 1'-0"
140
0.0625
141
12.0
290
     0
  0
SCALE
  5
48
102
{ACAD_REACTORS
330
42
102
}
330
42
100
AcDbScale
 70
     0
300
3/32" = 1'-0"
140
0.09375
141
12.0
290
     0
  0
SCALE
  5
49
102
{ACAD_REACTORS
330
42
102
}
330
42
100
AcDbScale
 70
     0
300
1/8" = 1'-0"
140
0.125
141
12.0
290
     0
  0
SCALE
  5
4A
102
{ACAD_REACTORS
330
42
102
}
330
42
100
AcDbScale
 70
     0
300
3/16" = 1'-0"
140
0.1875
141
12.0
290
     0
  0
SCALE
  5
4B
102
{ACAD_REACTORS
330
42
102
}
330
42
100
AcDbScale
 70
     0
300
1/4" = 1'-0"
140
0.25
141
12.0
290
     0
  0
SCALE
  5
4C
102
{ACAD_REACTORS
330
42
102
}
330
42
100
AcDbScale
 70
     0
300
3/8" = 1'-0"
140
0.375
141
12.0
290
     0
  0
SCALE
  5
4D
102
{ACAD_REACTORS
330
42
102
}
330
42
100
AcDbScale
 70
     0
300
1/2" = 1'-0"
140
0.5
141
12.0
290
     0
  0
SCALE
  5
4E
102
{ACAD_REACTORS
330
42
102
}
330
42
100
AcDbScale
 70
     0
300
3/4" = 1'-0"
140
0.75
141
12.0
290
     0
  0
SCALE
  5
4F
102
{ACAD_REACTORS
330
42
102
}
330
42
100
AcDbScale
 70
     0
300
1" = 1'-0"
140
1.0
141
12.0
290
     0
  0
SCALE
  5
50
102
{ACAD_REACTORS
330
42
102
}
330
42
100
AcDbScale
 70
     0
300
1-1/2" = 1'-0"
140
1.5
141
12.0
290
     0
  0
SCALE
  5
51
102
{ACAD_REACTORS
330
42
102
}
330
42
100
AcDbScale
 70
     0
300
3" = 1'-0"
140
3.0
141
12.0
290
     0
  0
SCALE
  5
52
102
{ACAD_REACTORS
330
42
102
}
330
42
100
AcDbScale
 70
     0
300
6" = 1'-0"
140
6.0
141
12.0
290
     0
  0
SCALE
  5
53
102
{ACAD_REACTORS
330
42
102
}
330
42
100
AcDbScale
 70
     0
300
1'-0" = 1'-0"
140
12.0
141
12.0
290
     0
  0
ACDBSECTIONVIEWSTYLE
  5
68
102
{ACAD_XDICTIONARY
360
68F
102
}
102
{ACAD_REACTORS
330
67
102
}
330
67
100
AcDbModelDocViewStyle
 70
     0
  3
Imperial24
290
     0
100
AcDbSectionViewStyle
 70
     0
 71
     0
 90
       78
 71
     1
340
55
 62
   256
 40
0.24
340
0
340
0
 62
   256
 40
0.24
300
I, O, Q, S, X, Z
 40
0.48
 90
        3
 40
0.18
 90
        1
 71
     2
340
5C
 90
       25
 62
   256
340
5C
 90
       50
 62
   256
 40
0.24
 40
0.0
 40
0.24
 71
     3
340
55
 62
   256
 40
0.24
 90
        1
 40
0.75
 90
        1
300
%<\AcVar ViewType \f "%tc1">% %<\AcVar ViewSectionStartId>%-%<\AcVar ViewSectionEndId>%\PSCALE %<\AcVar ViewScale \f "%sn">%
 71
     4
 62
   256
 62
   257
300
ANSI31
 40
1.0
 90
        0
290
     0
290
     0
 90
        6
 40
0.0
 40
1.570796326794896
 40
0.2617993877991494
 40
1.308996938995747
 40
-0.2617993877991494
 40
1.832595714594044
  0
TABLESTYLE
  5
64
102
{ACAD_XDICTIONARY
360
68D
102
}
102
{ACAD_REACTORS
330
63
102
}
330
63
100
AcDbTableStyle
280
     0
  3
Standard
 70
     0
 71
     0
 40
0.06
 41
0.06
280
     0
281
     0
  7
Standard
140
0.18
170
     2
 62
     0
 63
     7
283
     0
 90
      512
 91
        0
  1

274
    -2
284
     1
 64
     0
275
    -2
285
     1
 65
     0
276
    -2
286
     1
 66
     0
277
    -2
287
     1
 67
     0
278
    -2
288
     1
 68
     0
279
    -2
289
     1
 69
     0
  7
Standard
140
0.25
170
     5
 62
     0
 63
     7
283
     0
 90
      512
 91
        0
  1

274
    -2
284
     1
 64
     0
275
    -2
285
     1
 65
     0
276
    -2
286
     1
 66
     0
277
    -2
287
     1
 67
     0
278
    -2
288
     1
 68
     0
279
    -2
289
     1
 69
     0
  7
Standard
140
0.18
170
     5
 62
     0
 63
     7
283
     0
 90
      512
 91
        0
  1

274
    -2
284
     1
 64
     0
275
    -2
285
     1
 65
     0
276
    -2
286
     1
 66
     0
277
    -2
287
     1
 67
     0
278
    -2
288
     1
 68
     0
279
    -2
289
     1
 69
     0
  0
VISUALSTYLE
  5
2F
102
{ACAD_REACTORS
330
29
102
}
330
29
100
AcDbVisualStyle
  2
2dWireframe
 70
     4
177
     3
291
     0
 70
    58
 90
        0
176
     1
 90
        2
176
     1
 90
        0
176
     1
 90
        0
176
     1
 40
0.6
176
     1
 40
30.0
176
     1
 62
     7
420
 16777215
176
     1
 90
        1
176
     1
 90
        4
176
     1
 62
     7
176
     1
 62
   257
176
     1
 90
        1
176
     1
 90
        1
176
     1
 40
1.0
176
     1
 90
        0
176
     1
 62
   257
176
     1
 40
1.0
176
     1
 90
        1
176
     1
 90
        6
176
     1
 90
        2
176
     1
 62
     7
176
     1
 90
        5
176
     1
 90
        0
176
     1
 90
        0
176
     1
290
     0
176
     1
 90
        1
176
     1
 40
0.0
176
     1
 90
        0
176
     1
290
     1
176
     1
290
     1
176
     1
290
     0
176
     1
290
     0
176
     1
290
     0
176
     1
290
     0
176
     1
290
     0
176
     1
290
     0
176
     1
290
     0
176
     1
 90
       50
176
     1
 40
0.0
176
     1
 40
1.0
176
     1
 90
        0
176
     1
 62
    18
176
     1
 90
       50
176
     1
 90
        3
176
     1
 62
     5
420
      255
176
     1
290
     0
176
     1
 90
       50
176
     1
 90
       50
176
     1
 90
       50
176
     1
290
     0
176
     1
 90
       50
176
     1
 62
   256
176
     0
 40
1.0
176
     0
 90
        2
176
     1
  1
strokes_ogs.tif
176
     1
290
     0
176
     1
 40
1.0
176
     1
 40
1.0
176
     1
  0
VISUALSTYLE
  5
2E
102
{ACAD_REACTORS
330
29
102
}
330
29
100
AcDbVisualStyle
  2
Basic
 70
     7
177
     3
291
     1
 70
    58
 90
        1
176
     1
 90
        0
176
     1
 90
        1
176
     1
 90
        0
176
     1
 40
0.6
176
     1
 40
30.0
176
     1
 62
     7
420
 16777215
176
     1
 90
        0
176
     1
 90
        4
176
     1
 62
     7
176
     1
 62
   257
176
     1
 90
        1
176
     1
 90
        1
176
     1
 40
1.0
176
     1
 90
        8
176
     1
 62
     7
176
     1
 40
1.0
176
     1
 90
        1
176
     1
 90
        6
176
     1
 90
        2
176
     1
 62
     7
176
     1
 90
        5
176
     1
 90
        0
176
     1
 90
        0
176
     1
290
     0
176
     1
 90
        1
176
     1
 40
0.0
176
     1
 90
        0
176
     1
290
     0
176
     1
290
     1
176
     1
290
     1
176
     1
290
     0
176
     1
290
     0
176
     1
290
     0
176
     1
290
     0
176
     1
290
     0
176
     1
290
     0
176
     1
 90
       50
176
     1
 40
0.0
176
     1
 40
1.0
176
     1
 90
        0
176
     1
 62
    18
176
     1
 90
       50
176
     1
 90
        3
176
     1
 62
     5
420
      255
176
     1
290
     0
176
     1
 90
       50
176
     1
 90
       50
176
     1
 90
       50
176
     1
290
     0
176
     1
 90
       50
176
     1
 62
   256
176
     0
 40
1.0
176
     0
 90
        2
176
     1
  1
strokes_ogs.tif
176
     1
290
     0
176
     1
 40
1.0
176
     1
 40
1.0
176
     1
  0
VISUALSTYLE
  5
35
102
{ACAD_REACTORS
330
29
102
}
330
29
100
AcDbVisualStyle
  2
Brighten
 70
    12
177
     3
291
     1
 70
    58
 90
        2
176
     1
 90
        2
176
     1
 90
        0
176
     1
 90
        0
176
     1
 40
0.6
176
     1
 40
30.0
176
     1
 62
     7
420
 16777215
176
     1
 90
        1
176
     1
 90
        4
176
     1
 62
     7
176
     1
 62
   257
176
     1
 90
        1
176
     1
 90
        1
176
     1
 40
1.0
176
     1
 90
        8
176
     1
 62
     7
176
     1
 40
1.0
176
     1
 90
        1
176
     1
 90
        6
176
     1
 90
        2
176
     1
 62
     7
176
     1
 90
        5
176
     1
 90
        0
176
     1
 90
        0
176
     1
290
     0
176
     1
 90
        1
176
     1
 40
50.0
176
     1
 90
        0
176
     1
290
     0
176
     1
290
     1
176
     1
290
     1
176
     1
290
     0
176
     1
290
     0
176
     1
290
     0
176
     1
290
     0
176
     1
290
     0
176
     1
290
     0
176
     1
 90
       50
176
     1
 40
0.0
176
     1
 40
1.0
176
     1
 90
        0
176
     1
 62
    18
176
     1
 90
       50
176
     1
 90
        3
176
     1
 62
     5
420
      255
176
     1
290
     0
176
     1
 90
       50
176
     1
 90
       50
176
     1
 90
       50
176
     1
290
     0
176
     1
 90
       50
176
     1
 62
   256
176
     0
 40
1.0
176
     0
 90
        2
176
     1
  1
strokes_ogs.tif
176
     1
290
     0
176
     1
 40
1.0
176
     1
 40
1.0
176
     1
  0
VISUALSTYLE
  5
39
102
{ACAD_REACTORS
330
29
102
}
330
29
100
AcDbVisualStyle
  2
ColorChange
 70
    16
177
     3
291
     1
 70
    58
 90
        2
176
     1
 90
        2
176
     1
 90
        3
176
     1
 90
        0
176
     1
 40
0.6
176
     1
 40
30.0
176
     1
 62
     8
420
  8421504
176
     1
 90
        1
176
     1
 90
        4
176
     1
 62
     7
176
     1
 62
   257
176
     1
 90
        1
176
     1
 90
        1
176
     1
 40
1.0
176
     1
 90
        8
176
     1
 62
     8
420
  8421504
176
     1
 40
1.0
176
     1
 90
        1
176
     1
 90
        6
176
     1
 90
        2
176
     1
 62
     7
176
     1
 90
        5
176
     1
 90
        0
176
     1
 90
        0
176
     1
290
     0
176
     1
 90
        1
176
     1
 40
0.0
176
     1
 90
        0
176
     1
290
     0
176
     1
290
     1
176
     1
290
     1
176
     1
290
     0
176
     1
290
     0
176
     1
290
     0
176
     1
290
     0
176
     1
290
     0
176
     1
290
     0
176
     1
 90
       50
176
     1
 40
0.0
176
     1
 40
1.0
176
     1
 90
        0
176
     1
 62
    18
176
     1
 90
       50
176
     1
 90
        3
176
     1
 62
     5
420
      255
176
     1
290
     0
176
     1
 90
       50
176
     1
 90
       50
176
     1
 90
       50
176
     1
290
     0
176
     1
 90
       50
176
     1
 62
   256
176
     0
 40
1.0
176
     0
 90
        2
176
     1
  1
strokes_ogs.tif
176
     1
290
     0
176
     1
 40
1.0
176
     1
 40
1.0
176
     1
  0
VISUALSTYLE
  5
32
102
{ACAD_REACTORS
330
29
102
}
330
29
100
AcDbVisualStyle
  2
Conceptual
 70
     9
177
     3
291
     0
 70
    58
 90
        3
176
     1
 90
        2
176
     1
 90
        0
176
     1
 90
        0
176
     1
 40
0.6
176
     1
 40
30.0
176
     1
 62
     7
420
 16777215
176
     1
 90
        2
176
     1
 90
        2
176
     1
 62
     7
176
     1
 62
   257
176
     1
 90
        1
176
     1
 90
        1
176
     1
 40
179.0
176
     1
 90
        8
176
     1
 62
     7
176
     1
 40
1.0
176
     1
 90
        1
176
     1
 90
        6
176
     1
 90
        2
176
     1
 62
     7
176
     1
 90
        3
176
     1
 90
        0
176
     1
 90
        0
176
     1
290
     0
176
     1
 90
        1
176
     1
 40
0.0
176
     1
 90
        0
176
     1
290
     0
176
     1
290
     1
176
     1
290
     1
176
     1
290
     0
176
     1
290
     0
176
     1
290
     0
176
     1
290
     0
176
     1
290
     0
176
     1
290
     0
176
     1
 90
       50
176
     1
 40
0.0
176
     1
 40
1.0
176
     1
 90
        0
176
     1
 62
    18
176
     1
 90
       50
176
     1
 90
        3
176
     1
 62
     5
420
      255
176
     1
290
     0
176
     1
 90
       50
176
     1
 90
       50
176
     1
 90
       50
176
     1
290
     0
176
     1
 90
       50
176
     1
 62
   256
176
     0
 40
1.0
176
     0
 90
        2
176
     1
  1
strokes_ogs.tif
176
     1
290
     0
176
     1
 40
1.0
176
     1
 40
1.0
176
     1
  0
VISUALSTYLE
  5
34
102
{ACAD_REACTORS
330
29
102
}
330
29
100
AcDbVisualStyle
  2
Dim
 70
    11
177
     3
291
     1
 70
    58
 90
        2
176
     1
 90
        2
176
     1
 90
        0
176
     1
 90
        0
176
     1
 40
0.6
176
     1
 40
30.0
176
     1
 62
     7
420
 16777215
176
     1
 90
        1
176
     1
 90
        4
176
     1
 62
     7
176
     1
 62
   257
176
     1
 90
        1
176
     1
 90
        1
176
     1
 40
1.0
176
     1
 90
        8
176
     1
 62
     7
176
     1
 40
1.0
176
     1
 90
        1
176
     1
 90
        6
176
     1
 90
        2
176
     1
 62
     7
176
     1
 90
        5
176
     1
 90
        0
176
     1
 90
        0
176
     1
290
     0
176
     1
 90
        1
176
     1
 40
-50.0
176
     1
 90
        0
176
     1
290
     0
176
     1
290
     1
176
     1
290
     1
176
     1
290
     0
176
     1
290
     0
176
     1
290
     0
176
     1
290
     0
176
     1
290
     0
176
     1
290
     0
176
     1
 90
       50
176
     1
 40
0.0
176
     1
 40
1.0
176
     1
 90
        0
176
     1
 62
    18
176
     1
 90
       50
176
     1
 90
        3
176
     1
 62
     5
420
      255
176
     1
290
     0
176
     1
 90
       50
176
     1
 90
       50
176
     1
 90
       50
176
     1
290
     0
176
     1
 90
       50
176
     1
 62
   256
176
     0
 40
1.0
176
     0
 90
        2
176
     1
  1
strokes_ogs.tif
176
     1
290
     0
176
     1
 40
1.0
176
     1
 40
1.0
176
     1
  0
VISUALSTYLE
  5
41
102
{ACAD_REACTORS
330
29
102
}
330
29
100
AcDbVisualStyle
  2
EdgeColorOff
 70
    22
177
     3
291
     1
 70
    58
 90
        2
176
     0
 90
        2
176
     0
 90
        0
176
     0
 90
        0
176
     0
 40
0.6
176
     0
 40
30.0
176
     0
 62
     7
420
 16777215
176
     0
 90
        1
176
     0
 90
        4
176
     0
 62
     7
176
     0
 62
   257
176
     0
 90
        1
176
     0
 90
        1
176
     0
 40
1.0
176
     0
 90
        8
176
     2
 62
     7
176
     0
 40
1.0
176
     0
 90
        1
176
     0
 90
        6
176
     0
 90
        2
176
     0
 62
     7
176
     0
 90
        5
176
     0
 90
        0
176
     0
 90
        0
176
     0
290
     0
176
     0
 90
        1
176
     0
 40
0.0
176
     0
 90
        0
176
     0
290
     0
176
     1
290
     1
176
     1
290
     1
176
     1
290
     0
176
     1
290
     0
176
     1
290
     0
176
     1
290
     0
176
     1
290
     0
176
     1
290
     0
176
     1
 90
       50
176
     0
 40
0.0
176
     0
 40
1.0
176
     0
 90
        0
176
     0
 62
    18
176
     0
 90
       50
176
     0
 90
        3
176
     0
 62
     5
420
      255
176
     0
290
     0
176
     1
 90
       50
176
     0
 90
       50
176
     0
 90
       50
176
     0
290
     0
176
     1
 90
       50
176
     0
 62
   256
176
     0
 40
1.0
176
     0
 90
        2
176
     0
  1
strokes_ogs.tif
176
     0
290
     0
176
     1
 40
1.0
176
     0
 40
1.0
176
     0
  0
VISUALSTYLE
  5
38
102
{ACAD_REACTORS
330
29
102
}
330
29
100
AcDbVisualStyle
  2
Facepattern
 70
    15
177
     3
291
     1
 70
    58
 90
        2
176
     1
 90
        2
176
     1
 90
        0
176
     1
 90
        0
176
     1
 40
0.6
176
     1
 40
30.0
176
     1
 62
     7
420
 16777215
176
     1
 90
        1
176
     1
 90
        4
176
     1
 62
     7
176
     1
 62
   257
176
     1
 90
        1
176
     1
 90
        1
176
     1
 40
1.0
176
     1
 90
        8
176
     1
 62
     7
176
     1
 40
1.0
176
     1
 90
        1
176
     1
 90
        6
176
     1
 90
        2
176
     1
 62
     7
176
     1
 90
        5
176
     1
 90
        0
176
     1
 90
        0
176
     1
290
     0
176
     1
 90
        1
176
     1
 40
0.0
176
     1
 90
        0
176
     1
290
     0
176
     1
290
     1
176
     1
290
     1
176
     1
290
     0
176
     1
290
     0
176
     1
290
     0
176
     1
290
     0
176
     1
290
     0
176
     1
290
     0
176
     1
 90
       50
176
     1
 40
0.0
176
     1
 40
1.0
176
     1
 90
        0
176
     1
 62
    18
176
     1
 90
       50
176
     1
 90
        3
176
     1
 62
     5
420
      255
176
     1
290
     0
176
     1
 90
       50
176
     1
 90
       50
176
     1
 90
       50
176
     1
290
     0
176
     1
 90
       50
176
     1
 62
   256
176
     0
 40
1.0
176
     0
 90
        2
176
     1
  1
strokes_ogs.tif
176
     1
290
     0
176
     1
 40
1.0
176
     1
 40
1.0
176
     1
  0
VISUALSTYLE
  5
2A
102
{ACAD_REACTORS
330
29
102
}
330
29
100
AcDbVisualStyle
  2
Flat
 70
     0
177
     3
291
     1
 70
    58
 90
        2
176
     1
 90
        1
176
     1
 90
        1
176
     1
 90
        2
176
     1
 40
0.6
176
     1
 40
30.0
176
     1
 62
     7
420
 16777215
176
     1
 90
        0
176
     1
 90
        0
176
     1
 62
     7
176
     1
 62
   257
176
     1
 90
        1
176
     1
 90
        1
176
     1
 40
1.0
176
     1
 90
        8
176
     1
 62
     7
176
     1
 40
1.0
176
     1
 90
        1
176
     1
 90
        6
176
     1
 90
        2
176
     1
 62
     7
176
     1
 90
        5
176
     1
 90
        0
176
     1
 90
        0
176
     1
290
     0
176
     1
 90
       13
176
     1
 40
0.0
176
     1
 90
        0
176
     1
290
     0
176
     1
290
     1
176
     1
290
     1
176
     1
290
     0
176
     1
290
     0
176
     1
290
     0
176
     1
290
     0
176
     1
290
     0
176
     1
290
     0
176
     1
 90
       50
176
     1
 40
0.0
176
     1
 40
1.0
176
     1
 90
        0
176
     1
 62
    18
176
     1
 90
       50
176
     1
 90
        3
176
     1
 62
     5
420
      255
176
     1
290
     0
176
     1
 90
       50
176
     1
 90
       50
176
     1
 90
       50
176
     1
290
     0
176
     1
 90
       50
176
     1
 62
   256
176
     0
 40
1.0
176
     0
 90
        2
176
     1
  1
strokes_ogs.tif
176
     1
290
     0
176
     1
 40
1.0
176
     1
 40
1.0
176
     1
  0
VISUALSTYLE
  5
2B
102
{ACAD_REACTORS
330
29
102
}
330
29
100
AcDbVisualStyle
  2
FlatWithEdges
 70
     1
177
     3
291
     1
 70
    58
 90
        2
176
     1
 90
        1
176
     1
 90
        1
176
     1
 90
        2
176
     1
 40
0.6
176
     1
 40
30.0
176
     1
 62
     7
420
 16777215
176
     1
 90
        1
176
     1
 90
        0
176
     1
 62
     7
176
     1
 62
   257
176
     1
 90
        1
176
     1
 90
        1
176
     1
 40
1.0
176
     1
 90
        0
176
     1
 62
   257
176
     1
 40
1.0
176
     1
 90
        1
176
     1
 90
        6
176
     1
 90
        2
176
     1
 62
     7
176
     1
 90
        5
176
     1
 90
        0
176
     1
 90
        0
176
     1
290
     0
176
     1
 90
       13
176
     1
 40
0.0
176
     1
 90
        0
176
     1
290
     0
176
     1
290
     1
176
     1
290
     1
176
     1
290
     0
176
     1
290
     0
176
     1
290
     0
176
     1
290
     0
176
     1
290
     0
176
     1
290
     0
176
     1
 90
       50
176
     1
 40
0.0
176
     1
 40
1.0
176
     1
 90
        0
176
     1
 62
    18
176
     1
 90
       50
176
     1
 90
        3
176
     1
 62
     5
420
      255
176
     1
290
     0
176
     1
 90
       50
176
     1
 90
       50
176
     1
 90
       50
176
     1
290
     0
176
     1
 90
       50
176
     1
 62
   256
176
     0
 40
1.0
176
     0
 90
        2
176
     1
  1
strokes_ogs.tif
176
     1
290
     0
176
     1
 40
1.0
176
     1
 40
1.0
176
     1
  0
VISUALSTYLE
  5
2C
102
{ACAD_REACTORS
330
29
102
}
330
29
100
AcDbVisualStyle
  2
Gouraud
 70
     2
177
     3
291
     1
 70
    58
 90
        2
176
     1
 90
        2
176
     1
 90
        1
176
     1
 90
        2
176
     1
 40
0.6
176
     1
 40
30.0
176
     1
 62
     7
420
 16777215
176
     1
 90
        0
176
     1
 90
        0
176
     1
 62
     7
176
     1
 62
   257
176
     1
 90
        1
176
     1
 90
        1
176
     1
 40
1.0
176
     1
 90
        0
176
     1
 62
     7
176
     1
 40
1.0
176
     1
 90
        1
176
     1
 90
        6
176
     1
 90
        2
176
     1
 62
     7
176
     1
 90
        5
176
     1
 90
        0
176
     1
 90
        0
176
     1
290
     0
176
     1
 90
       13
176
     1
 40
0.0
176
     1
 90
        0
176
     1
290
     0
176
     1
290
     1
176
     1
290
     1
176
     1
290
     0
176
     1
290
     0
176
     1
290
     0
176
     1
290
     0
176
     1
290
     0
176
     1
290
     0
176
     1
 90
       50
176
     1
 40
0.0
176
     1
 40
1.0
176
     1
 90
        0
176
     1
 62
    18
176
     1
 90
       50
176
     1
 90
        3
176
     1
 62
     5
420
      255
176
     1
290
     0
176
     1
 90
       50
176
     1
 90
       50
176
     1
 90
       50
176
     1
290
     0
176
     1
 90
       50
176
     1
 62
   256
176
     0
 40
1.0
176
     0
 90
        2
176
     1
  1
strokes_ogs.tif
176
     1
290
     0
176
     1
 40
1.0
176
     1
 40
1.0
176
     1
  0
VISUALSTYLE
  5
2D
102
{ACAD_REACTORS
330
29
102
}
330
29
100
AcDbVisualStyle
  2
GouraudWithEdges
 70
     3
177
     3
291
     1
 70
    58
 90
        2
176
     1
 90
        2
176
     1
 90
        1
176
     1
 90
        2
176
     1
 40
0.6
176
     1
 40
30.0
176
     1
 62
     7
420
 16777215
176
     1
 90
        1
176
     1
 90
        0
176
     1
 62
     7
176
     1
 62
   257
176
     1
 90
        1
176
     1
 90
        1
176
     1
 40
1.0
176
     1
 90
        0
176
     1
 62
   257
176
     1
 40
1.0
176
     1
 90
        1
176
     1
 90
        6
176
     1
 90
        2
176
     1
 62
     7
176
     1
 90
        5
176
     1
 90
        0
176
     1
 90
        0
176
     1
290
     0
176
     1
 90
       13
176
     1
 40
0.0
176
     1
 90
        0
176
     1
290
     0
176
     1
290
     1
176
     1
290
     1
176
     1
290
     0
176
     1
290
     0
176
     1
290
     0
176
     1
290
     0
176
     1
290
     0
176
     1
290
     0
176
     1
 90
       50
176
     1
 40
0.0
176
     1
 40
1.0
176
     1
 90
        0
176
     1
 62
    18
176
     1
 90
       50
176
     1
 90
        3
176
     1
 62
     5
420
      255
176
     1
290
     0
176
     1
 90
       50
176
     1
 90
       50
176
     1
 90
       50
176
     1
290
     0
176
     1
 90
       50
176
     1
 62
   256
176
     0
 40
1.0
176
     0
 90
        2
176
     1
  1
strokes_ogs.tif
176
     1
290
     0
176
     1
 40
1.0
176
     1
 40
1.0
176
     1
  0
VISUALSTYLE
  5
31
102
{ACAD_REACTORS
330
29
102
}
330
29
100
AcDbVisualStyle
  2
Hidden
 70
     6
177
     3
291
     0
 70
    58
 90
        1
176
     1
 90
        2
176
     1
 90
        2
176
     1
 90
        0
176
     1
 40
0.6
176
     1
 40
30.0
176
     1
 62
     7
420
 16777215
176
     1
 90
        2
176
     1
 90
        2
176
     1
 62
     7
176
     1
 62
   257
176
     1
 90
        2
176
     1
 90
        1
176
     1
 40
40.0
176
     1
 90
        0
176
     1
 62
   257
176
     1
 40
1.0
176
     1
 90
        1
176
     1
 90
        6
176
     1
 90
        2
176
     1
 62
     7
176
     1
 90
        3
176
     1
 90
        0
176
     1
 90
        0
176
     1
290
     0
176
     1
 90
        1
176
     1
 40
0.0
176
     1
 90
        0
176
     1
290
     0
176
     1
290
     1
176
     1
290
     1
176
     1
290
     0
176
     1
290
     0
176
     1
290
     0
176
     1
290
     0
176
     1
290
     0
176
     1
290
     0
176
     1
 90
       50
176
     1
 40
0.0
176
     1
 40
1.0
176
     1
 90
        0
176
     1
 62
    18
176
     1
 90
       50
176
     1
 90
        3
176
     1
 62
     5
420
      255
176
     1
290
     0
176
     1
 90
       50
176
     1
 90
       50
176
     1
 90
       50
176
     1
290
     0
176
     1
 90
       50
176
     1
 62
   256
176
     0
 40
1.0
176
     0
 90
        2
176
     1
  1
strokes_ogs.tif
176
     1
290
     0
176
     1
 40
1.0
176
     1
 40
1.0
176
     1
  0
VISUALSTYLE
  5
3F
102
{ACAD_REACTORS
330
29
102
}
330
29
100
AcDbVisualStyle
  2
JitterOff
 70
    20
177
     3
291
     1
 70
    58
 90
        2
176
     0
 90
        2
176
     0
 90
        0
176
     0
 90
        0
176
     0
 40
0.6
176
     0
 40
30.0
176
     0
 62
     7
420
 16777215
176
     0
 90
        1
176
     0
 90
        4
176
     0
 62
     7
176
     0
 62
   257
176
     0
 90
        1
176
     0
 90
        1
176
     0
 40
1.0
176
     0
 90
       10
176
     2
 62
     7
176
     0
 40
1.0
176
     0
 90
        1
176
     0
 90
        6
176
     0
 90
        2
176
     0
 62
     7
176
     0
 90
        5
176
     0
 90
        0
176
     0
 90
        0
176
     0
290
     0
176
     0
 90
        1
176
     0
 40
0.0
176
     0
 90
        0
176
     0
290
     0
176
     1
290
     1
176
     1
290
     1
176
     1
290
     0
176
     1
290
     0
176
     1
290
     0
176
     1
290
     0
176
     1
290
     0
176
     1
290
     0
176
     1
 90
       50
176
     0
 40
0.0
176
     0
 40
1.0
176
     0
 90
        0
176
     0
 62
    18
176
     0
 90
       50
176
     0
 90
        3
176
     0
 62
     5
420
      255
176
     0
290
     0
176
     1
 90
       50
176
     0
 90
       50
176
     0
 90
       50
176
     0
290
     0
176
     1
 90
       50
176
     0
 62
   256
176
     0
 40
1.0
176
     0
 90
        2
176
     0
  1
strokes_ogs.tif
176
     0
290
     0
176
     1
 40
1.0
176
     0
 40
1.0
176
     0
  0
VISUALSTYLE
  5
37
102
{ACAD_REACTORS
330
29
102
}
330
29
100
AcDbVisualStyle
  2
Linepattern
 70
    14
177
     3
291
     1
 70
    58
 90
        2
176
     1
 90
        2
176
     1
 90
        0
176
     1
 90
        0
176
     1
 40
0.6
176
     1
 40
30.0
176
     1
 62
     7
420
 16777215
176
     1
 90
        1
176
     1
 90
        4
176
     1
 62
     7
176
     1
 62
   257
176
     1
 90
        7
176
     1
 90
        7
176
     1
 40
1.0
176
     1
 90
        8
176
     1
 62
     7
176
     1
 40
1.0
176
     1
 90
        1
176
     1
 90
        6
176
     1
 90
        2
176
     1
 62
     7
176
     1
 90
        5
176
     1
 90
        0
176
     1
 90
        0
176
     1
290
     0
176
     1
 90
        1
176
     1
 40
0.0
176
     1
 90
        0
176
     1
290
     0
176
     1
290
     1
176
     1
290
     1
176
     1
290
     0
176
     1
290
     0
176
     1
290
     0
176
     1
290
     0
176
     1
290
     0
176
     1
290
     0
176
     1
 90
       50
176
     1
 40
0.0
176
     1
 40
1.0
176
     1
 90
        0
176
     1
 62
    18
176
     1
 90
       50
176
     1
 90
        3
176
     1
 62
     5
420
      255
176
     1
290
     0
176
     1
 90
       50
176
     1
 90
       50
176
     1
 90
       50
176
     1
290
     0
176
     1
 90
       50
176
     1
 62
   256
176
     0
 40
1.0
176
     0
 90
        2
176
     1
  1
strokes_ogs.tif
176
     1
290
     0
176
     1
 40
1.0
176
     1
 40
1.0
176
     1
  0
VISUALSTYLE
  5
40
102
{ACAD_REACTORS
330
29
102
}
330
29
100
AcDbVisualStyle
  2
OverhangOff
 70
    21
177
     3
291
     1
 70
    58
 90
        2
176
     0
 90
        2
176
     0
 90
        0
176
     0
 90
        0
176
     0
 40
0.6
176
     0
 40
30.0
176
     0
 62
     7
420
 16777215
176
     0
 90
        1
176
     0
 90
        4
176
     0
 62
     7
176
     0
 62
   257
176
     0
 90
        1
176
     0
 90
        1
176
     0
 40
1.0
176
     0
 90
        9
176
     2
 62
     7
176
     0
 40
1.0
176
     0
 90
        1
176
     0
 90
        6
176
     0
 90
        2
176
     0
 62
     7
176
     0
 90
        5
176
     0
 90
        0
176
     0
 90
        0
176
     0
290
     0
176
     0
 90
        1
176
     0
 40
0.0
176
     0
 90
        0
176
     0
290
     0
176
     1
290
     1
176
     1
290
     1
176
     1
290
     0
176
     1
290
     0
176
     1
290
     0
176
     1
290
     0
176
     1
290
     0
176
     1
290
     0
176
     1
 90
       50
176
     0
 40
0.0
176
     0
 40
1.0
176
     0
 90
        0
176
     0
 62
    18
176
     0
 90
       50
176
     0
 90
        3
176
     0
 62
     5
420
      255
176
     0
290
     0
176
     1
 90
       50
176
     0
 90
       50
176
     0
 90
       50
176
     0
290
     0
176
     1
 90
       50
176
     0
 62
   256
176
     0
 40
1.0
176
     0
 90
        2
176
     0
  1
strokes_ogs.tif
176
     0
290
     0
176
     1
 40
1.0
176
     0
 40
1.0
176
     0
  0
VISUALSTYLE
  5
33
102
{ACAD_REACTORS
330
29
102
}
330
29
100
AcDbVisualStyle
  2
Realistic
 70
     8
177
     3
291
     0
 70
    58
 90
        2
176
     1
 90
        3
176
     1
 90
        0
176
     1
 90
        2
176
     1
 40
0.6
176
     1
 40
30.0
176
     1
 62
     7
420
 16777215
176
     1
 90
        0
176
     1
 90
        0
176
     1
 62
     7
176
     1
 62
   257
176
     1
 90
        1
176
     1
 90
        1
176
     1
 40
1.0
176
     1
 90
        8
176
     1
 62
   257
176
     1
 40
1.0
176
     1
 90
        1
176
     1
 90
        6
176
     1
 90
        2
176
     1
 62
     7
176
     1
 90
        3
176
     1
 90
        0
176
     1
 90
        0
176
     1
290
     0
176
     1
 90
       13
176
     1
 40
0.0
176
     1
 90
        0
176
     1
290
     0
176
     1
290
     1
176
     1
290
     1
176
     1
290
     0
176
     1
290
     0
176
     1
290
     0
176
     1
290
     0
176
     1
290
     0
176
     1
290
     0
176
     1
 90
       50
176
     1
 40
0.0
176
     1
 40
1.0
176
     1
 90
        0
176
     1
 62
    18
176
     1
 90
       50
176
     1
 90
        3
176
     1
 62
     5
420
      255
176
     1
290
     0
176
     1
 90
       50
176
     1
 90
       50
176
     1
 90
       50
176
     1
290
     0
176
     1
 90
       50
176
     1
 62
   256
176
     0
 40
1.0
176
     0
 90
        2
176
     1
  1
strokes_ogs.tif
176
     1
290
     0
176
     1
 40
1.0
176
     1
 40
1.0
176
     1
  0
VISUALSTYLE
  5
3E
102
{ACAD_REACTORS
330
29
102
}
330
29
100
AcDbVisualStyle
  2
Shaded
 70
    27
177
     3
291
     0
 70
    58
 90
        2
176
     1
 90
        2
176
     1
 90
        1
176
     1
 90
        2
176
     1
 40
0.6
176
     1
 40
30.0
176
     1
 62
     7
420
 16777215
176
     1
 90
        0
176
     1
 90
        4
176
     1
 62
     7
176
     1
 62
   257
176
     1
 90
        1
176
     1
 90
        1
176
     1
 40
1.0
176
     1
 90
        8
176
     1
 62
   257
176
     1
 40
1.0
176
     1
 90
        1
176
     1
 90
        6
176
     1
 90
        2
176
     1
 62
     8
420
  7895160
176
     1
 90
        3
176
     1
 90
        0
176
     1
 90
        0
176
     1
290
     0
176
     1
 90
        5
176
     1
 40
0.0
176
     1
 90
        0
176
     1
290
     0
176
     1
290
     1
176
     1
290
     1
176
     1
290
     0
176
     1
290
     0
176
     1
290
     0
176
     1
290
     0
176
     1
290
     0
176
     1
290
     0
176
     1
 90
       50
176
     1
 40
0.0
176
     1
 40
1.0
176
     1
 90
        0
176
     1
 62
    18
176
     1
 90
       50
176
     1
 90
        3
176
     1
 62
     5
420
      255
176
     1
290
     0
176
     1
 90
       50
176
     1
 90
       50
176
     1
 90
       50
176
     1
290
     0
176
     1
 90
       50
176
     1
 62
   256
176
     0
 40
1.0
176
     0
 90
        2
176
     1
  1
strokes_ogs.tif
176
     1
290
     0
176
     1
 40
1.0
176
     1
 40
1.0
176
     1
  0
VISUALSTYLE
  5
3D
102
{ACAD_REACTORS
330
29
102
}
330
29
100
AcDbVisualStyle
  2
Shaded with edges
 70
    26
177
     3
291
     0
 70
    58
 90
        2
176
     1
 90
        2
176
     1
 90
        1
176
     1
 90
        2
176
     1
 40
0.6
176
     1
 40
30.0
176
     1
 62
     7
420
 16777215
176
     1
 90
        1
176
     1
 90
       10
176
     1
 62
     7
176
     1
 62
   257
176
     1
 90
        2
176
     1
 90
        1
176
     1
 40
1.0
176
     1
 90
        8
176
     1
 62
   257
176
     1
 40
1.0
176
     1
 90
        1
176
     1
 90
        6
176
     1
 90
        2
176
     1
 62
     7
176
     1
 90
        3
176
     1
 90
        0
176
     1
 90
        0
176
     1
290
     0
176
     1
 90
        5
176
     1
 40
0.0
176
     1
 90
        0
176
     1
290
     0
176
     1
290
     1
176
     1
290
     1
176
     1
290
     0
176
     1
290
     0
176
     1
290
     0
176
     1
290
     0
176
     1
290
     0
176
     1
290
     0
176
     1
 90
       50
176
     1
 40
0.0
176
     1
 40
1.0
176
     1
 90
        0
176
     1
 62
    18
176
     1
 90
       50
176
     1
 90
        3
176
     1
 62
     5
420
      255
176
     1
290
     0
176
     1
 90
       50
176
     1
 90
       50
176
     1
 90
       50
176
     1
290
     0
176
     1
 90
       50
176
     1
 62
   256
176
     0
 40
1.0
176
     0
 90
        2
176
     1
  1
strokes_ogs.tif
176
     1
290
     0
176
     1
 40
1.0
176
     1
 40
1.0
176
     1
  0
VISUALSTYLE
  5
3A
102
{ACAD_REACTORS
330
29
102
}
330
29
100
AcDbVisualStyle
  2
Shades of Gray
 70
    23
177
     3
291
     0
 70
    58
 90
        2
176
     1
 90
        2
176
     1
 90
        3
176
     1
 90
        0
176
     1
 40
0.6
176
     1
 40
30.0
176
     1
 62
     7
420
 16777215
176
     1
 90
        2
176
     1
 90
        2
176
     1
 62
     7
176
     1
 62
     7
176
     1
 90
        1
176
     1
 90
        1
176
     1
 40
40.0
176
     1
 90
        8
176
     1
 62
     7
176
     1
 40
1.0
176
     1
 90
        1
176
     1
 90
        6
176
     1
 90
        2
176
     1
 62
     7
176
     1
 90
        3
176
     1
 90
        0
176
     1
 90
        0
176
     1
290
     0
176
     1
 90
        1
176
     1
 40
0.0
176
     1
 90
        0
176
     1
290
     0
176
     1
290
     1
176
     1
290
     1
176
     1
290
     0
176
     1
290
     0
176
     1
290
     0
176
     1
290
     0
176
     1
290
     0
176
     1
290
     0
176
     1
 90
       50
176
     1
 40
0.0
176
     1
 40
1.0
176
     1
 90
        0
176
     1
 62
    18
176
     1
 90
       50
176
     1
 90
        3
176
     1
 62
     5
420
      255
176
     1
290
     0
176
     1
 90
       50
176
     1
 90
       50
176
     1
 90
       50
176
     1
290
     0
176
     1
 90
       50
176
     1
 62
   256
176
     0
 40
1.0
176
     0
 90
        2
176
     1
  1
strokes_ogs.tif
176
     1
290
     0
176
     1
 40
1.0
176
     1
 40
1.0
176
     1
  0
VISUALSTYLE
  5
3B
102
{ACAD_REACTORS
330
29
102
}
330
29
100
AcDbVisualStyle
  2
Sketchy
 70
    24
177
     3
291
     0
 70
    58
 90
        1
176
     1
 90
        2
176
     1
 90
        2
176
     1
 90
        0
176
     1
 40
0.6
176
     1
 40
30.0
176
     1
 62
     7
420
 16777215
176
     1
 90
        2
176
     1
 90
        2
176
     1
 62
     7
176
     1
 62
     7
176
     1
 90
        1
176
     1
 90
        1
176
     1
 40
40.0
176
     1
 90
       11
176
     1
 62
     7
176
     1
 40
1.0
176
     1
 90
        1
176
     1
 90
        6
176
     1
 90
        2
176
     1
 62
     7
176
     1
 90
        6
176
     1
 90
        0
176
     1
 90
        0
176
     1
290
     0
176
     1
 90
        1
176
     1
 40
0.0
176
     1
 90
        0
176
     1
290
     0
176
     1
290
     1
176
     1
290
     1
176
     1
290
     0
176
     1
290
     0
176
     1
290
     0
176
     1
290
     0
176
     1
290
     0
176
     1
290
     0
176
     1
 90
       50
176
     1
 40
0.0
176
     1
 40
1.0
176
     1
 90
        0
176
     1
 62
    18
176
     1
 90
       50
176
     1
 90
        3
176
     1
 62
     5
420
      255
176
     1
290
     0
176
     1
 90
       50
176
     1
 90
       50
176
     1
 90
       50
176
     1
290
     0
176
     1
 90
       50
176
     1
 62
   256
176
     0
 40
1.0
176
     0
 90
        2
176
     1
  1
strokes_ogs.tif
176
     1
290
     0
176
     1
 40
1.0
176
     1
 40
1.0
176
     1
  0
VISUALSTYLE
  5
36
102
{ACAD_REACTORS
330
29
102
}
330
29
100
AcDbVisualStyle
  2
Thicken
 70
    13
177
     3
291
     1
 70
    58
 90
        2
176
     1
 90
        2
176
     1
 90
        0
176
     1
 90
        0
176
     1
 40
0.6
176
     1
 40
30.0
176
     1
 62
     7
420
 16777215
176
     1
 90
        1
176
     1
 90
        4
176
     1
 62
     7
176
     1
 62
   257
176
     1
 90
        1
176
     1
 90
        1
176
     1
 40
1.0
176
     1
 90
       12
176
     1
 62
     7
176
     1
 40
1.0
176
     1
 90
        1
176
     1
 90
        6
176
     1
 90
        2
176
     1
 62
     7
176
     1
 90
        5
176
     1
 90
        0
176
     1
 90
        0
176
     1
290
     0
176
     1
 90
        1
176
     1
 40
0.0
176
     1
 90
        0
176
     1
290
     0
176
     1
290
     1
176
     1
290
     1
176
     1
290
     0
176
     1
290
     0
176
     1
290
     0
176
     1
290
     0
176
     1
290
     0
176
     1
290
     0
176
     1
 90
       50
176
     1
 40
0.0
176
     1
 40
1.0
176
     1
 90
        0
176
     1
 62
    18
176
     1
 90
       50
176
     1
 90
        3
176
     1
 62
     5
420
      255
176
     1
290
     0
176
     1
 90
       50
176
     1
 90
       50
176
     1
 90
       50
176
     1
290
     0
176
     1
 90
       50
176
     1
 62
   256
176
     0
 40
1.0
176
     0
 90
        2
176
     1
  1
strokes_ogs.tif
176
     1
290
     0
176
     1
 40
1.0
176
     1
 40
1.0
176
     1
  0
VISUALSTYLE
  5
30
102
{ACAD_REACTORS
330
29
102
}
330
29
100
AcDbVisualStyle
  2
Wireframe
 70
     5
177
     3
291
     0
 70
    58
 90
        0
176
     1
 90
        2
176
     1
 90
        0
176
     1
 90
        0
176
     1
 40
0.6
176
     1
 40
30.0
176
     1
 62
     7
420
 16777215
176
     1
 90
        1
176
     1
 90
        4
176
     1
 62
     7
176
     1
 62
   257
176
     1
 90
        1
176
     1
 90
        1
176
     1
 40
1.0
176
     1
 90
        0
176
     1
 62
   257
176
     1
 40
1.0
176
     1
 90
        1
176
     1
 90
        6
176
     1
 90
        2
176
     1
 62
     7
176
     1
 90
        3
176
     1
 90
        0
176
     1
 90
        0
176
     1
290
     0
176
     1
 90
        1
176
     1
 40
0.0
176
     1
 90
        0
176
     1
290
     0
176
     1
290
     1
176
     1
290
     1
176
     1
290
     0
176
     1
290
     0
176
     1
290
     0
176
     1
290
     0
176
     1
290
     0
176
     1
290
     0
176
     1
 90
       50
176
     1
 40
0.0
176
     1
 40
1.0
176
     1
 90
        0
176
     1
 62
    18
176
     1
 90
       50
176
     1
 90
        3
176
     1
 62
     5
420
      255
176
     1
290
     0
176
     1
 90
       50
176
     1
 90
       50
176
     1
 90
       50
176
     1
290
     0
176
     1
 90
       50
176
     1
 62
   256
176
     0
 40
1.0
176
     0
 90
        2
176
     1
  1
strokes_ogs.tif
176
     1
290
     0
176
     1
 40
1.0
176
     1
 40
1.0
176
     1
  0
VISUALSTYLE
  5
3C
102
{ACAD_REACTORS
330
29
102
}
330
29
100
AcDbVisualStyle
  2
X-Ray
 70
    25
177
     3
291
     0
 70
    58
 90
        2
176
     1
 90
        2
176
     1
 90
        1
176
     1
 90
        1
176
     1
 40
0.5
176
     1
 40
30.0
176
     1
 62
     7
420
 16777215
176
     1
 90
        1
176
     1
 90
        0
176
     1
 62
     7
176
     1
 62
   257
176
     1
 90
        1
176
     1
 90
        1
176
     1
 40
1.0
176
     1
 90
        8
176
     1
 62
     7
176
     1
 40
1.0
176
     1
 90
        1
176
     1
 90
        6
176
     1
 90
        2
176
     1
 62
     7
176
     1
 90
        3
176
     1
 90
        0
176
     1
 90
        0
176
     1
290
     0
176
     1
 90
       13
176
     1
 40
0.0
176
     1
 90
        0
176
     1
290
     0
176
     1
290
     1
176
     1
290
     1
176
     1
290
     0
176
     1
290
     0
176
     1
290
     0
176
     1
290
     0
176
     1
290
     0
176
     1
290
     0
176
     1
 90
       50
176
     1
 40
0.0
176
     1
 40
1.0
176
     1
 90
        0
176
     1
 62
    18
176
     1
 90
       50
176
     1
 90
        3
176
     1
 62
     5
420
      255
176
     1
290
     0
176
     1
 90
       50
176
     1
 90
       50
176
     1
 90
       50
176
     1
290
     0
176
     1
 90
       50
176
     1
 62
   256
176
     0
 40
1.0
176
     0
 90
        2
176
     1
  1
strokes_ogs.tif
176
     1
290
     0
176
     1
 40
1.0
176
     1
 40
1.0
176
     1
  0
DICTIONARYVAR
  5
67B
102
{ACAD_REACTORS
330
675
102
}
330
675
100
DictionaryVariables
280
     0
  1
1:1
  0
DICTIONARYVAR
  5
677
102
{ACAD_REACTORS
330
675
102
}
330
675
100
DictionaryVariables
280
     0
  1
STANDARD
  0
DICTIONARYVAR
  5
676
102
{ACAD_REACTORS
330
675
102
}
330
675
100
DictionaryVariables
280
     0
  1
STANDARD
  0
DICTIONARYVAR
  5
678
102
{ACAD_REACTORS
330
675
102
}
330
675
100
DictionaryVariables
280
     0
  1
Imperial24
  0
DICTIONARYVAR
  5
679
102
{ACAD_REACTORS
330
675
102
}
330
675
100
DictionaryVariables
280
     0
  1
Imperial24
  0
DICTIONARYVAR
  5
67D
102
{ACAD_REACTORS
330
675
102
}
330
675
100
DictionaryVariables
280
     0
  1
1
  0
DICTIONARYVAR
  5
67E
102
{ACAD_REACTORS
330
675
102
}
330
675
100
DictionaryVariables
280
     0
  1
15
  0
DICTIONARYVAR
  5
67C
102
{ACAD_REACTORS
330
675
102
}
330
675
100
DictionaryVariables
280
     0
  1
0
  0
DICTIONARYVAR
  5
67A
102
{ACAD_REACTORS
330
675
102
}
330
675
100
DictionaryVariables
280
     0
  1
0
  0
DICTIONARY
  5
691
330
6A
100
AcDbDictionary
280
     1
281
     1
  3
ACAD_XREC_ROUNDTRIP
360
7B1
  0
DICTIONARY
  5
1A
330
19
100
AcDbDictionary
280
     1
281
     1
  3
BUMPTILE
360
1C
  3
DIFFUSETILE
360
1B
  3
OPACITYTILE
360
1F
  3
REFLECTIONTILE
360
1E
  3
REFRACTIONTILE
360
20
  3
SPECULARTILE
360
1D
  0
DICTIONARY
  5
12
330
11
100
AcDbDictionary
280
     1
281
     1
  3
BUMPTILE
360
14
  3
DIFFUSETILE
360
13
  3
OPACITYTILE
360
17
  3
REFLECTIONTILE
360
16
  3
REFRACTIONTILE
360
18
  3
SPECULARTILE
360
15
  0
DICTIONARY
  5
22
330
21
100
AcDbDictionary
280
     1
281
     1
  3
BUMPTILE
360
24
  3
DIFFUSETILE
360
23
  3
OPACITYTILE
360
27
  3
REFLECTIONTILE
360
26
  3
REFRACTIONTILE
360
28
  3
SPECULARTILE
360
25
  0
DICTIONARY
  5
68F
330
68
100
AcDbDictionary
280
     1
281
     1
  3
ACAD_XREC_ROUNDTRIP
360
7B0
  0
DICTIONARY
  5
68D
330
64
100
AcDbDictionary
280
     1
281
     1
  3
ACAD_ROUNDTRIP_2008_TABLESTYLE_CELLSTYLEMAP
360
7AF
  0
XRECORD
  5
7B1
102
{ACAD_REACTORS
330
691
102
}
330
691
100
AcDbXrecord
280
     1
102
DISPLAYNAME
  1
Imperial24
102
FLAGS
 90
        0
  0
XRECORD
  5
1C
102
{ACAD_REACTORS
330
1A
102
}
330
1A
100
AcDbXrecord
280
     1
270
     1
271
     1
  0
XRECORD
  5
1B
102
{ACAD_REACTORS
330
1A
102
}
330
1A
100
AcDbXrecord
280
     1
270
     1
271
     1
  0
XRECORD
  5
1F
102
{ACAD_REACTORS
330
1A
102
}
330
1A
100
AcDbXrecord
280
     1
270
     1
271
     1
  0
XRECORD
  5
1E
102
{ACAD_REACTORS
330
1A
102
}
330
1A
100
AcDbXrecord
280
     1
270
     1
271
     1
  0
XRECORD
  5
20
102
{ACAD_REACTORS
330
1A
102
}
330
1A
100
AcDbXrecord
280
     1
270
     1
271
     1
  0
XRECORD
  5
1D
102
{ACAD_REACTORS
330
1A
102
}
330
1A
100
AcDbXrecord
280
     1
270
     1
271
     1
  0
XRECORD
  5
14
102
{ACAD_REACTORS
330
12
102
}
330
12
100
AcDbXrecord
280
     1
270
     1
271
     1
  0
XRECORD
  5
13
102
{ACAD_REACTORS
330
12
102
}
330
12
100
AcDbXrecord
280
     1
270
     1
271
     1
  0
XRECORD
  5
17
102
{ACAD_REACTORS
330
12
102
}
330
12
100
AcDbXrecord
280
     1
270
     1
271
     1
  0
XRECORD
  5
16
102
{ACAD_REACTORS
330
12
102
}
330
12
100
AcDbXrecord
280
     1
270
     1
271
     1
  0
XRECORD
  5
18
102
{ACAD_REACTORS
330
12
102
}
330
12
100
AcDbXrecord
280
     1
270
     1
271
     1
  0
XRECORD
  5
15
102
{ACAD_REACTORS
330
12
102
}
330
12
100
AcDbXrecord
280
     1
270
     1
271
     1
  0
XRECORD
  5
24
102
{ACAD_REACTORS
330
22
102
}
330
22
100
AcDbXrecord
280
     1
270
     1
271
     1
  0
XRECORD
  5
23
102
{ACAD_REACTORS
330
22
102
}
330
22
100
AcDbXrecord
280
     1
270
     1
271
     1
  0
XRECORD
  5
27
102
{ACAD_REACTORS
330
22
102
}
330
22
100
AcDbXrecord
280
     1
270
     1
271
     1
  0
XRECORD
  5
26
102
{ACAD_REACTORS
330
22
102
}
330
22
100
AcDbXrecord
280
     1
270
     1
271
     1
  0
XRECORD
  5
28
102
{ACAD_REACTORS
330
22
102
}
330
22
100
AcDbXrecord
280
     1
270
     1
271
     1
  0
XRECORD
  5
25
102
{ACAD_REACTORS
330
22
102
}
330
22
100
AcDbXrecord
280
     1
270
     1
271
     1
  0
XRECORD
  5
7B0
102
{ACAD_REACTORS
330
68F
102
}
330
68F
100
AcDbXrecord
280
     1
102
DISPLAYNAME
  1
Imperial24
102
FLAGS
 90
        0
  0
CELLSTYLEMAP
  5
7AF
102
{ACAD_REACTORS
330
68D
102
}
330
68D
100
AcDbCellStyleMap
 90
        3
300
CELLSTYLE
  1
TABLEFORMAT_BEGIN
 90
        5
170
     1
 91
        0
 92
    32768
 62
   257
 93
        1
300
CONTENTFORMAT
  1
CONTENTFORMAT_BEGIN
 90
        0
 91
        0
 92
      512
 93
        0
300

 40
0.0
140
1.0
 94
        5
 62
     0
340
55
144
0.25
309
CONTENTFORMAT_END
171
     1
301
MARGIN
  1
CELLMARGIN_BEGIN
 40
0.06
 40
0.06
 40
0.06
 40
0.06
 40
0.18
 40
0.18
309
CELLMARGIN_END
 94
        6
 95
        1
302
GRIDFORMAT
  1
GRIDFORMAT_BEGIN
 90
        0
 91
        1
 62
     0
 92
       -2
340
0
 93
        0
 40
0.045
309
GRIDFORMAT_END
 95
        2
302
GRIDFORMAT
  1
GRIDFORMAT_BEGIN
 90
        0
 91
        1
 62
     0
 92
       -2
340
0
 93
        0
 40
0.045
309
GRIDFORMAT_END
 95
        4
302
GRIDFORMAT
  1
GRIDFORMAT_BEGIN
 90
        0
 91
        1
 62
     0
 92
       -2
340
0
 93
        0
 40
0.045
309
GRIDFORMAT_END
 95
        8
302
GRIDFORMAT
  1
GRIDFORMAT_BEGIN
 90
        0
 91
        1
 62
     0
 92
       -2
340
0
 93
        0
 40
0.045
309
GRIDFORMAT_END
 95
       16
302
GRIDFORMAT
  1
GRIDFORMAT_BEGIN
 90
        0
 91
        1
 62
     0
 92
       -2
340
0
 93
        0
 40
0.045
309
GRIDFORMAT_END
 95
       32
302
GRIDFORMAT
  1
GRIDFORMAT_BEGIN
 90
        0
 91
        1
 62
     0
 92
       -2
340
0
 93
        0
 40
0.045
309
GRIDFORMAT_END
309
TABLEFORMAT_END
  1
CELLSTYLE_BEGIN
 90
        1
 91
        1
300
_TITLE
309
CELLSTYLE_END
300
CELLSTYLE
  1
TABLEFORMAT_BEGIN
 90
        5
170
     1
 91
        0
 92
        0
 62
   257
 93
        1
300
CONTENTFORMAT
  1
CONTENTFORMAT_BEGIN
 90
        0
 91
        0
 92
      512
 93
        0
300

 40
0.0
140
1.0
 94
        5
 62
     0
340
55
144
0.18
309
CONTENTFORMAT_END
171
     1
301
MARGIN
  1
CELLMARGIN_BEGIN
 40
0.06
 40
0.06
 40
0.06
 40
0.06
 40
0.18
 40
0.18
309
CELLMARGIN_END
 94
        6
 95
        1
302
GRIDFORMAT
  1
GRIDFORMAT_BEGIN
 90
        0
 91
        1
 62
     0
 92
       -2
340
0
 93
        0
 40
0.045
309
GRIDFORMAT_END
 95
        2
302
GRIDFORMAT
  1
GRIDFORMAT_BEGIN
 90
        0
 91
        1
 62
     0
 92
       -2
340
0
 93
        0
 40
0.045
309
GRIDFORMAT_END
 95
        4
302
GRIDFORMAT
  1
GRIDFORMAT_BEGIN
 90
        0
 91
        1
 62
     0
 92
       -2
340
0
 93
        0
 40
0.045
309
GRIDFORMAT_END
 95
        8
302
GRIDFORMAT
  1
GRIDFORMAT_BEGIN
 90
        0
 91
        1
 62
     0
 92
       -2
340
0
 93
        0
 40
0.045
309
GRIDFORMAT_END
 95
       16
302
GRIDFORMAT
  1
GRIDFORMAT_BEGIN
 90
        0
 91
        1
 62
     0
 92
       -2
340
0
 93
        0
 40
0.045
309
GRIDFORMAT_END
 95
       32
302
GRIDFORMAT
  1
GRIDFORMAT_BEGIN
 90
        0
 91
        1
 62
     0
 92
       -2
340
0
 93
        0
 40
0.045
309
GRIDFORMAT_END
309
TABLEFORMAT_END
  1
CELLSTYLE_BEGIN
 90
        2
 91
        1
300
_HEADER
309
CELLSTYLE_END
300
CELLSTYLE
  1
TABLEFORMAT_BEGIN
 90
        5
170
     1
 91
        0
 92
        0
 62
   257
 93
        1
300
CONTENTFORMAT
  1
CONTENTFORMAT_BEGIN
 90
        0
 91
        0
 92
      512
 93
        0
300

 40
0.0
140
1.0
 94
        2
 62
     0
340
55
144
0.18
309
CONTENTFORMAT_END
171
     1
301
MARGIN
  1
CELLMARGIN_BEGIN
 40
0.06
 40
0.06
 40
0.06
 40
0.06
 40
0.18
 40
0.18
309
CELLMARGIN_END
 94
        6
 95
        1
302
GRIDFORMAT
  1
GRIDFORMAT_BEGIN
 90
        0
 91
        1
 62
     0
 92
       -2
340
0
 93
        0
 40
0.045
309
GRIDFORMAT_END
 95
        2
302
GRIDFORMAT
  1
GRIDFORMAT_BEGIN
 90
        0
 91
        1
 62
     0
 92
       -2
340
0
 93
        0
 40
0.045
309
GRIDFORMAT_END
 95
        4
302
GRIDFORMAT
  1
GRIDFORMAT_BEGIN
 90
        0
 91
        1
 62
     0
 92
       -2
340
0
 93
        0
 40
0.045
309
GRIDFORMAT_END
 95
        8
302
GRIDFORMAT
  1
GRIDFORMAT_BEGIN
 90
        0
 91
        1
 62
     0
 92
       -2
340
0
 93
        0
 40
0.045
309
GRIDFORMAT_END
 95
       16
302
GRIDFORMAT
  1
GRIDFORMAT_BEGIN
 90
        0
 91
        1
 62
     0
 92
       -2
340
0
 93
        0
 40
0.045
309
GRIDFORMAT_END
 95
       32
302
GRIDFORMAT
  1
GRIDFORMAT_BEGIN
 90
        0
 91
        1
 62
     0
 92
       -2
340
0
 93
        0
 40
0.045
309
GRIDFORMAT_END
309
TABLEFORMAT_END
  1
CELLSTYLE_BEGIN
 90
        3
 91
        2
300
_DATA
309
CELLSTYLE_END
  0
ENDSEC
  0
SECTION
  2
ACDSDATA
 70
     2
 71
     6
  0
ACDSSCHEMA
 90
        0
  1
AcDb_Thumbnail_Schema
  2
AcDbDs::ID
280
    10
 91
        8
  2
Thumbnail_Data
280
    15
 91
        0
101
ACDSRECORD
 95
        0
 90
        1
  2
AcDbDs::TreatedAsObjectData
280
     1
291
     1
101
ACDSRECORD
 95
        0
 90
        2
  2
AcDbDs::Legacy
280
     1
291
     1
101
ACDSRECORD
  1
AcDbDs::ID
 90
        3
  2
AcDs:Indexable
280
     1
291
     1
101
ACDSRECORD
  1
AcDbDs::ID
 90
        4
  2
AcDbDs::HandleAttribute
280
     7
282
     1
  0
ACDSSCHEMA
 90
        1
  1
AcDbDs::TreatedAsObjectDataSchema
  2
AcDbDs::TreatedAsObjectData
280
     1
 91
        0
  0
ACDSSCHEMA
 90
        2
  1
AcDbDs::LegacySchema
  2
AcDbDs::Legacy
280
     1
 91
        0
  0
ACDSSCHEMA
 90
        3
  1
AcDbDs::IndexedPropertySchema
  2
AcDs:Indexable
280
     1
 91
        0
  0
ACDSSCHEMA
 90
        4
  1
AcDbDs::HandleAttributeSchema
  2
AcDbDs::HandleAttribute
280
     7
 91
        1
284
     1
  0
ACDSRECORD
 90
        0
  2
AcDbDs::ID
280
    10
320
72
  2
Thumbnail_Data
280
    15
 94
     1937
310
89504E470D0A1A0A0000000D4948445200000100000000BA0803000000768A63F300000300504C54452128300000000000000000000000000000000000000000000000000000000000000000330000660000990000CC0000FF0033000033330033660033990033CC0033FF0066000066330066660066990066CC0066FF0099
310
000099330099660099990099CC0099FF00CC0000CC3300CC6600CC9900CCCC00CCFF00FF0000FF3300FF6600FF9900FFCC00FFFF3300003300333300663300993300CC3300FF3333003333333333663333993333CC3333FF3366003366333366663366993366CC3366FF3399003399333399663399993399CC3399FF33CC00
310
33CC3333CC6633CC9933CCCC33CCFF33FF0033FF3333FF6633FF9933FFCC33FFFF6600006600336600666600996600CC6600FF6633006633336633666633996633CC6633FF6666006666336666666666996666CC6666FF6699006699336699666699996699CC6699FF66CC0066CC3366CC6666CC9966CCCC66CCFF66FF0066
310
FF3366FF6666FF9966FFCC66FFFF9900009900339900669900999900CC9900FF9933009933339933669933999933CC9933FF9966009966339966669966999966CC9966FF9999009999339999669999999999CC9999FF99CC0099CC3399CC6699CC9999CCCC99CCFF99FF0099FF3399FF6699FF9999FFCC99FFFFCC0000CC00
310
33CC0066CC0099CC00CCCC00FFCC3300CC3333CC3366CC3399CC33CCCC33FFCC6600CC6633CC6666CC6699CC66CCCC66FFCC9900CC9933CC9966CC9999CC99CCCC99FFCCCC00CCCC33CCCC66CCCC99CCCCCCCCCCFFCCFF00CCFF33CCFF66CCFF99CCFFCCCCFFFFFF0000FF0033FF0066FF0099FF00CCFF00FFFF3300FF3333
310
FF3366FF3399FF33CCFF33FFFF6600FF6633FF6666FF6699FF66CCFF66FFFF9900FF9933FF9966FF9999FF99CCFF99FFFFCC00FFCC33FFCC66FFCC99FFCCCCFFCCFFFFFF00FFFF33FFFF66FFFF99FFFFCCFFFFFF0000000D0D0D1A1A1A2828283535354343435050505D5D5D6B6B6B787878868686939393A1A1A1AEAEAEBB
310
BBBBC9C9C9D6D6D6E4E4E4F1F1F1FFFFFF000000000000000000000000000000000000000000000000000000000000544354A8000003BF4944415478DAED9C5B6EE3300C007503DEFF32FCC9C59AC6B2453DED60B14045CEA0DDA6ED7ED4638A2225C52901000000000000000000FC27F497F3AB9EDF4512603ECF9F847231
310
14607F8900040410700CF7D79BE3BB9444249080CC2B1BF845524401E9BAFEF409806802BEFCA5230122C7903F6FBE8413903FEDF08F282007426001E717099A03CA9758026C020C350B1CF59F8A09F9600272DD5F0240DA9731049445915CFF7E7A81144540FEC8C9F0EA06DD078059089BB6C3EAFDF65F973B16E03EFE8F
310
EE772AC0790D70AD7FFC8E80765538C27AA80E5A7EFF8BC0E6CE7E0A400927A05CE655016B0AB40DA0E54EDB85DF388BC0DA4DF56B01F57699831829D7B210606783B66A74112359C07557F38C7025C451983814D0BC30BD4F5001A308501702B46324C0E6806A61E0DC2EDB58C0A220509D094856C0CB1CA3D850809C989D
310
3F9DCD8EB308D8B65278DFB7F3526A01DACD765D3C3C8EA7BFDEF354028E0E4017EDBF5F01C7BF9FE13D14E03E02D269602CA09B13F24E89D8ADD32D7340730D6928208F8C4640F7CACF345872FDB908FCFE7018016B01A908F87CBBCE01722A725109EA3123E48A57D21301493C75837585338F8012FE9B46C033019FE13E
310
DC0EA8B74E1D0998670BAD7AC16AFA70B1666696FEBBDC509503EAA00E1A25C17F0812DD34E0BFBF0A7523406F7E368B8FF128D93300A4CAF5B5001F51BE16504D63B9157C161F1E02A03D03D644C0B5436A7EADBEA2E3E61EB77A64BD2EA2FE04CC2360191D8E04ACEA4191326E7616D054FDBD80EA3F3402F2E159FF025E
310
E38EA05E4F8B3604BA353104441350CD020840C09E026E4AE1000286CDD07CB37B9204371E02C376F83A1FBC2A85AD0157B3C0B5273E6D86AE3DF3ED0BA1F9DFBC8C00555B0ACBC6A5F0AD80717C1401C9ECAB5F276B5C18D01B3D9780DC2898DDE3CD041C37AC7A7374B9765D09E87AC5EE00E93E3120C580D86A60111F9A
310
06CDF296B9D01C05280FC72827C775161FFA755EF9F359404755607D2ED01C9AD5C148DA5040FD97CF04B401A2363ACC39920DEB211DA7B6D1F277FFFC9CEE1C891301F6BD437A2BC06104E86D80E8A3F4B1630E6837B90602CA216AF520E0A6FF1F09789C3E5C081804C8C3F4B19780F9DBE1E77E6ED2C756394064DACE2E
310
04A83A88006DD6822695F2F8EEBA9805D6457CF5EC8C9002727CCC05984268CB47AB3C12B0CA01B614960D57C66E4EF92C0554D1719D29F77590EA5E80C9012E052C02A4AF03E23C6974510A077AF2741D1D311FBC0D0000000000000000000000000000000000000000000000000000000000000000000000005FF103F987
310
34E2D5D45F7E0000000049454E44AE426082C13CD1B88D483DA4F63137FA85805512D483A1B46DC64525B8DAE1B914506649AAD1A01301FF224A4675809B08F81751322C840EF9E681C558E0902F2332059CF25D4C5D1339F0BBA8000000000000000000000000000000000000000000000000000098F20721C04269A66826
310
B90000000049454E44AE4260826C7775D3CC7F040000000049454E44AE426082
  0
ENDSEC
  0
EOF
