 0
SECTION
 2
ENTITIES
  0
LINE
 8
Layer0
10
1244.78730410123
20
993.613048996362
30
621.016190065112
11
1244.78730408973
21
993.095410906157
31
620.94804171769
  0
LINE
 8
Layer0
10
1244.78734101973
20
671.095416387213
30
622.948011370577
11
1244.78734108402
21
671.027268039791
31
622.430373280372
  0
LINE
 8
Layer0
10
1244.7873037036
20
994.50962446853
30
624.362255280063
11
1244.78730376965
21
994.827461713726
31
623.94804171769
  0
LINE
 8
Layer0
10
1244.78730382213
20
991.163559253579
30
622.430403627485
11
1244.7873037525
21
991.095410906157
31
622.94804171769
  0
LINE
 8
Layer0
10
1244.78730390953
20
995.095410906157
30
622.94804171769
11
1244.78730397382
21
995.027262558735
31
622.430403627485
  0
LINE
 8
Layer0
10
1244.78733859298
20
907.509626526753
30
387.362217601371
11
1244.78733865904
21
907.827463771948
31
386.948004038998
  0
LINE
 8
Layer0
10
1244.78730406947
20
994.50962446853
30
621.533828155317
11
1244.78730409433
21
994.095410906157
31
621.215990910121
  0
LINE
 8
Layer0
10
1244.78730359255
20
991.681197343784
30
624.362255280063
11
1244.7873035677
21
992.095410906157
31
624.680092525259
  0
LINE
 8
Layer0
10
1244.78734075642
20
670.095416387213
30
624.680062178146
11
1244.7873408138
21
670.509629949586
31
624.36222493295
  0
LINE
 8
Layer0
10
1244.7873385776
20
904.163561311801
30
386.465642129203
11
1244.78733852305
21
904.36336215681
31
386.948004038998
  0
LINE
 8
Layer0
10
1244.78734074386
20
667.363365579644
30
473.948011650095
11
1244.78734070275
21
667.68120282484
31
474.362225212468
  0
LINE
 8
Layer0
10
1244.7873406825
20
669.095416387213
30
474.948011650095
11
1244.78734071164
21
669.613054477418
31
474.879863302673
  0
LINE
 8
Layer0
10
1244.78734113857
20
670.827467194782
30
471.948011650095
11
1244.78734117967
21
670.509629949586
31
471.533798087722
  0
LINE
 8
Layer0
10
1244.78734100257
20
667.363365579644
30
471.948011650095
11
1244.78734093233
21
667.163564734635
31
472.43037355989
  0
LINE
 8
Layer0
10
1244.7873408627
20
667.095416387213
30
472.948011650095
11
1244.78734079841
21
667.163564734635
31
473.4656497403
  0
LINE
 8
Layer0
10
1244.78734117079
20
668.577778297008
30
471.016159997517
11
1244.78734112601
21
668.095416387213
31
471.215960842526
  0
LINE
 8
Layer0
10
1244.78734106863
20
667.68120282484
30
621.533797808204
11
1244.78734100257
21
667.363365579644
31
621.948011370577
  0
LINE
 8
Layer0
10
1244.7873406779
20
668.095416387213
30
474.680062457664
11
1244.78734067099
21
668.577778297008
31
474.879863302673
  0
LINE
 8
Layer0
10
1244.78733894998
20
905.577774874174
30
384.01615238642
11
1244.7873389052
21
905.095412964379
31
384.215953231429
  0
LINE
 8
Layer0
10
1244.7873409501
20
671.027268039791
30
623.465649460782
11
1244.78734101973
21
671.095416387213
31
622.948011370577
  0
LINE
 8
Layer0
10
1244.7873408138
20
670.509629949586
30
624.36222493295
11
1244.78734087985
21
670.827467194782
31
623.948011370577
  0
LINE
 8
Layer0
10
1244.78734087985
20
670.827467194782
30
623.948011370577
11
1244.7873409501
21
671.027268039791
31
623.465649460782
  0
LINE
 8
Layer0
10
1244.78733894999
20
755.577775153692
30
384.01615238642
11
1244.78733890521
21
755.095413243897
31
384.21595323143
  0
LINE
 8
Layer0
10
1244.78733890521
20
755.095413243897
30
384.21595323143
11
1244.78733884783
21
754.681199681524
31
384.533790476625
  0
LINE
 8
Layer0
10
1244.78733857761
20
754.163561591319
30
386.465642129203
11
1244.78733852306
21
754.363362436328
31
386.948004038998
  0
LINE
 8
Layer0
10
1244.78733884783
20
754.681199681524
30
384.533790476625
11
1244.78733878177
21
754.363362436328
31
384.948004038998
  0
LINE
 8
Layer0
10
1244.78733897913
20
756.095413243897
30
383.948004038998
11
1244.78733894999
21
755.577775153692
31
384.01615238642
  0
LINE
 8
Layer0
10
1244.78733878177
20
754.363362436328
30
384.948004038998
11
1244.78733871153
21
754.163561591319
31
385.430365948793
  0
LINE
 8
Layer0
10
1244.78733871153
20
754.163561591319
30
385.430365948793
11
1244.7873386419
21
754.095413243897
31
385.948004038998
  0
LINE
 8
Layer0
10
1244.7873386419
20
754.095413243897
30
385.948004038998
11
1244.78733857761
21
754.163561591319
31
386.465642129203
  0
LINE
 8
Layer0
10
1244.78733852306
20
754.363362436328
30
386.948004038998
11
1244.78733848196
21
754.681199681524
31
387.362217601371
  0
LINE
 8
Layer0
10
1244.78733848196
20
754.681199681524
30
387.362217601371
11
1244.7873384571
21
755.095413243897
31
387.680054846567
  0
LINE
 8
Layer0
10
1244.7873384571
20
755.095413243897
30
387.680054846567
11
1244.78733845019
21
755.577775153692
31
387.879855691576
  0
LINE
 8
Layer0
10
1244.78733845019
20
755.577775153692
30
387.879855691576
11
1244.7873384617
21
756.095413243897
31
387.948004038998
  0
LINE
 8
Layer0
10
1244.7873384617
20
756.095413243897
30
387.948004038998
11
1244.78733849084
21
756.613051334102
31
387.879855691576
  0
LINE
 8
Layer0
10
1244.78733849084
20
756.613051334102
30
387.879855691576
11
1244.78733853562
21
757.095413243897
31
387.680054846567
  0
LINE
 8
Layer0
10
1244.78733853562
20
757.095413243897
30
387.680054846567
11
1244.787338593
21
757.50962680627
31
387.362217601371
  0
LINE
 8
Layer0
10
1244.787338593
20
757.50962680627
30
387.362217601371
11
1244.78733865906
21
757.827464051466
31
386.948004038998
  0
LINE
 8
Layer0
10
1244.78733865906
20
757.827464051466
30
386.948004038998
11
1244.7873387293
21
758.027264896475
31
386.465642129203
  0
LINE
 8
Layer0
10
1244.7873387293
20
758.027264896475
30
386.465642129203
11
1244.78733879893
21
758.095413243897
31
385.948004038998
  0
LINE
 8
Layer0
10
1244.78733879893
20
758.095413243897
30
385.948004038998
11
1244.78733886322
21
758.027264896475
31
385.430365948793
  0
LINE
 8
Layer0
10
1244.78733886322
20
758.027264896475
30
385.430365948793
11
1244.78733891777
21
757.827464051466
31
384.948004038998
  0
LINE
 8
Layer0
10
1244.78733891777
20
757.827464051466
30
384.948004038998
11
1244.78733895887
21
757.50962680627
31
384.533790476625
  0
LINE
 8
Layer0
10
1244.78733895887
20
757.50962680627
30
384.533790476625
11
1244.78733898373
21
757.095413243897
31
384.21595323143
  0
LINE
 8
Layer0
10
1244.78734121143
20
669.613054477418
30
471.016159997517
11
1244.78734119993
21
669.095416387213
31
470.948011650095
  0
LINE
 8
Layer0
10
1244.78734112601
20
668.095416387213
30
471.215960842526
11
1244.78734106863
21
667.68120282484
31
471.533798087722
  0
LINE
 8
Layer0
10
1244.78734106863
20
667.68120282484
30
471.533798087722
11
1244.78734100257
21
667.363365579644
31
471.948011650095
  0
LINE
 8
Layer0
10
1244.78734071164
20
669.613054477418
30
474.879863302673
11
1244.78734075642
21
670.095416387213
31
474.680062457664
  0
LINE
 8
Layer0
10
1244.78734079841
20
667.163564734635
30
623.465649460782
11
1244.78734074386
21
667.363365579644
31
623.948011370577
  0
LINE
 8
Layer0
10
1244.78733879892
20
908.095412964379
30
385.948004038998
11
1244.7873388632
21
908.027264616957
31
385.430365948793
  0
LINE
 8
Layer0
10
1244.7873406825
20
669.095416387213
30
624.948011370577
11
1244.78734071164
21
669.613054477418
31
624.879863023155
  0
LINE
 8
Layer0
10
1244.78733871152
20
904.163561311801
30
385.430365948793
11
1244.78733864188
21
904.095412964379
31
385.948004038998
  0
LINE
 8
Layer0
10
1244.78733897912
20
906.095412964379
30
383.948004038998
11
1244.78733894998
21
905.577774874174
31
384.01615238642
  0
LINE
 8
Layer0
10
1244.78730382213
20
991.163559253579
30
472.430403907003
11
1244.7873037525
21
991.095410906157
31
472.948041997208
  0
LINE
 8
Layer0
10
1244.7873037525
20
991.095410906157
30
472.948041997208
11
1244.78730368821
21
991.163559253579
31
473.465680087413
  0
LINE
 8
Layer0
10
1244.78730356079
20
992.577772815952
30
624.879893370268
11
1244.7873035723
21
993.095410906157
31
624.94804171769
  0
LINE
 8
Layer0
10
1244.78730363366
20
991.363360098588
30
623.94804171769
11
1244.78730359255
21
991.681197343784
31
624.362255280063
  0
LINE
 8
Layer0
10
1244.78730376965
20
994.827461713726
30
623.94804171769
11
1244.7873038399
21
995.027262558735
31
623.465679807895
  0
LINE
 8
Layer0
10
1244.78733845709
20
905.095412964379
30
387.680054846567
11
1244.78733845018
21
905.577774874174
31
387.879855691576
  0
LINE
 8
Layer0
10
1244.7873037525
20
991.095410906157
30
622.94804171769
11
1244.78730368821
21
991.163559253579
31
623.465679807895
  0
LINE
 8
Layer0
10
1244.78733852305
20
904.36336215681
30
386.948004038998
11
1244.78733848194
21
904.681199402006
31
387.362217601371
  0
LINE
 8
Layer0
10
1244.78734067099
20
668.577778297008
30
624.879863023155
11
1244.7873406825
21
669.095416387213
31
624.948011370577
  0
LINE
 8
Layer0
10
1244.78733899062
20
906.613051054584
30
384.01615238642
11
1244.78733897912
21
906.095412964379
31
383.948004038998
  0
LINE
 8
Layer0
10
1244.78734117967
20
670.509629949586
30
621.533797808204
11
1244.78734120453
21
670.095416387213
31
621.215960563008
  0
LINE
 8
Layer0
10
1244.78733848194
20
904.681199402006
30
387.362217601371
11
1244.78733845709
21
905.095412964379
31
387.680054846567
  0
LINE
 8
Layer0
10
1244.78733878176
20
904.36336215681
30
384.948004038998
11
1244.78733871152
21
904.163561311801
31
385.430365948793
  0
LINE
 8
Layer0
10
1244.7873389052
20
905.095412964379
30
384.215953231429
11
1244.78733884782
21
904.681199402006
31
384.533790476625
  0
LINE
 8
Layer0
10
1244.7873406779
20
668.095416387213
30
624.680062178146
11
1244.78734067099
21
668.577778297008
31
624.879863023155
  0
LINE
 8
Layer0
10
1244.78734108402
20
671.027268039791
30
622.430373280372
11
1244.78734113857
21
670.827467194782
31
621.948011370577
  0
LINE
 8
Layer0
10
1244.78734112601
20
668.095416387213
30
621.215960563008
11
1244.78734106863
21
667.68120282484
31
621.533797808204
  0
LINE
 8
Layer0
10
1244.78734100257
20
667.363365579644
30
621.948011370577
11
1244.78734093233
21
667.163564734635
31
622.430373280372
  0
LINE
 8
Layer0
10
1244.78734081379
20
670.509629949586
30
474.362225212468
11
1244.78734087985
21
670.827467194782
31
473.948011650095
  0
LINE
 8
Layer0
10
1244.78730395843
20
991.681197343784
30
471.533828434835
11
1244.78730389237
21
991.363360098588
31
471.948041997208
  0
LINE
 8
Layer0
10
1244.78730395843
20
991.681197343784
30
621.533828155317
11
1244.78730389237
21
991.363360098588
31
621.94804171769
  0
LINE
 8
Layer0
10
1244.78734119993
20
669.095416387213
30
620.948011370577
11
1244.78734117079
21
668.577778297008
31
621.016159717999
  0
LINE
 8
Layer0
10
1244.78734071164
20
669.613054477418
30
624.879863023155
11
1244.78734075642
21
670.095416387213
31
624.680062178146
  0
LINE
 8
Layer0
10
1244.78733898373
20
757.095413243897
30
384.21595323143
11
1244.78733899064
21
756.613051334102
31
384.01615238642
  0
LINE
 8
Layer0
10
1244.78733899064
20
756.613051334102
30
384.01615238642
11
1244.78733897913
21
756.095413243897
31
383.948004038998
  0
LINE
 8
Layer0
10
1244.78730356079
20
992.577772815952
30
474.879893649786
11
1244.7873035723
21
993.095410906157
31
474.948041997208
  0
LINE
 8
Layer0
10
1244.78734087985
20
670.827467194782
30
473.948011650095
11
1244.7873409501
21
671.027268039791
31
473.4656497403
  0
LINE
 8
Layer0
10
1244.78730408973
20
993.095410906157
30
620.94804171769
11
1244.78730406059
21
992.577772815952
31
621.016190065112
  0
LINE
 8
Layer0
10
1244.78734093233
20
667.163564734635
30
472.43037355989
11
1244.7873408627
21
667.095416387213
31
472.948011650095
  0
LINE
 8
Layer0
10
1244.78734108402
20
671.027268039791
30
472.43037355989
11
1244.78734113857
21
670.827467194782
31
471.948011650095
  0
LINE
 8
Layer0
10
1244.78734070275
20
667.68120282484
30
474.362225212468
11
1244.7873406779
21
668.095416387213
31
474.680062457664
  0
LINE
 8
Layer0
10
1244.78734101973
20
671.095416387213
30
472.948011650095
11
1244.78734108402
21
671.027268039791
31
472.43037355989
  0
LINE
 8
Layer0
10
1244.78734079841
20
667.163564734635
30
473.4656497403
11
1244.78734074386
21
667.363365579644
31
473.948011650095
  0
LINE
 8
Layer0
10
1244.78734117967
20
670.509629949586
30
471.533798087722
11
1244.78734120453
21
670.095416387213
31
471.215960842526
  0
LINE
 8
Layer0
10
1244.7873409501
20
671.027268039791
30
473.4656497403
11
1244.78734101973
21
671.095416387213
31
472.948011650095
  0
LINE
 8
Layer0
10
1244.78730368821
20
991.163559253579
30
473.465680087413
11
1244.78730363366
21
991.363360098588
31
473.948041997208
  0
LINE
 8
Layer0
10
1244.78730363366
20
991.363360098588
30
473.948041997208
11
1244.78730359255
21
991.681197343784
31
474.362255559581
  0
LINE
 8
Layer0
10
1244.78730359255
20
991.681197343784
30
474.362255559581
11
1244.7873035677
21
992.095410906157
31
474.680092804777
  0
LINE
 8
Layer0
10
1244.7873035677
20
992.095410906157
30
474.680092804777
11
1244.78730356079
21
992.577772815952
31
474.879893649786
  0
LINE
 8
Layer0
10
1244.78730406059
20
992.577772815952
30
621.016190065112
11
1244.78730401581
21
992.095410906157
31
621.215990910121
  0
LINE
 8
Layer0
10
1244.7873035723
20
993.095410906157
30
624.94804171769
11
1244.78730360144
21
993.613048996362
31
624.879893370268
  0
LINE
 8
Layer0
10
1244.7873038399
20
995.027262558735
30
623.465679807895
11
1244.78730390953
21
995.095410906157
31
622.94804171769
  0
LINE
 8
Layer0
10
1244.78730401581
20
992.095410906157
30
621.215990910121
11
1244.78730395843
21
991.681197343784
31
621.533828155317
  0
LINE
 8
Layer0
10
1244.78734074386
20
667.363365579644
30
623.948011370577
11
1244.78734070275
21
667.68120282484
31
624.36222493295
  0
LINE
 8
Layer0
10
1244.78734067099
20
668.577778297008
30
474.879863302673
11
1244.7873406825
21
669.095416387213
31
474.948011650095
  0
LINE
 8
Layer0
10
1244.78734120453
20
670.095416387213
30
471.215960842526
11
1244.78734121143
21
669.613054477418
31
471.016159997517
  0
LINE
 8
Layer0
10
1244.78734119993
20
669.095416387213
30
470.948011650095
11
1244.78734117079
21
668.577778297008
31
471.016159997517
  0
LINE
 8
Layer0
10
1244.78733872928
20
908.027264616957
30
386.465642129203
11
1244.78733879892
21
908.095412964379
31
385.948004038998
  0
LINE
 8
Layer0
10
1244.78730397382
20
995.027262558735
30
622.430403627485
11
1244.78730402837
21
994.827461713726
31
621.94804171769
  0
LINE
 8
Layer0
10
1244.78730389237
20
991.363360098588
30
621.94804171769
11
1244.78730382213
21
991.163559253579
31
622.430403627485
  0
LINE
 8
Layer0
10
1244.78730368821
20
991.163559253579
30
623.465679807895
11
1244.78730363366
21
991.363360098588
31
623.94804171769
  0
LINE
 8
Layer0
10
1244.7873035677
20
992.095410906157
30
624.680092525259
11
1244.78730356079
21
992.577772815952
31
624.879893370268
  0
LINE
 8
Layer0
10
1244.78733845018
20
905.577774874174
30
387.879855691576
11
1244.78733846169
21
906.095412964379
31
387.948004038998
  0
LINE
 8
Layer0
10
1244.78730360144
20
993.613048996362
30
624.879893370268
11
1244.78730364622
21
994.095410906157
31
624.680092525259
  0
LINE
 8
Layer0
10
1244.7873388632
20
908.027264616957
30
385.430365948793
11
1244.78733891776
21
907.827463771948
31
384.948004038998
  0
LINE
 8
Layer0
10
1244.78733884782
20
904.681199402006
30
384.533790476625
11
1244.78733878176
21
904.36336215681
31
384.948004038998
  0
LINE
 8
Layer0
10
1244.78733849082
20
906.613051054584
30
387.879855691576
11
1244.78733853561
21
907.095412964379
31
387.680054846567
  0
LINE
 8
Layer0
10
1244.78734070275
20
667.68120282484
30
624.36222493295
11
1244.7873406779
21
668.095416387213
31
624.680062178146
  0
LINE
 8
Layer0
10
1244.78733865904
20
907.827463771948
30
386.948004038998
11
1244.78733872928
21
908.027264616957
31
386.465642129203
  0
LINE
 8
Layer0
10
1244.78730364622
20
994.095410906157
30
624.680092525259
11
1244.7873037036
21
994.50962446853
31
624.362255280063
  0
LINE
 8
Layer0
10
1244.78730409433
20
994.095410906157
30
621.215990910121
11
1244.78730410123
21
993.613048996362
31
621.016190065112
  0
LINE
 8
Layer0
10
1244.78733898371
20
907.095412964379
30
384.215953231429
11
1244.78733899062
21
906.613051054584
31
384.01615238642
  0
LINE
 8
Layer0
10
1244.78733895886
20
907.509626526753
30
384.533790476625
11
1244.78733898371
21
907.095412964379
31
384.215953231429
  0
LINE
 8
Layer0
10
1244.78734121143
20
669.613054477418
30
621.016159717999
11
1244.78734119993
21
669.095416387213
31
620.948011370577
  0
LINE
 8
Layer0
10
1244.78734113857
20
670.827467194782
30
621.948011370577
11
1244.78734117967
21
670.509629949586
31
621.533797808204
  0
LINE
 8
Layer0
10
1244.78733864188
20
904.095412964379
30
385.948004038998
11
1244.7873385776
21
904.163561311801
31
386.465642129203
  0
LINE
 8
Layer0
10
1244.78733853561
20
907.095412964379
30
387.680054846567
11
1244.78733859298
21
907.509626526753
31
387.362217601371
  0
LINE
 8
Layer0
10
1244.78734093233
20
667.163564734635
30
622.430373280372
11
1244.7873408627
21
667.095416387213
31
622.948011370577
  0
LINE
 8
Layer0
10
1244.7873408627
20
667.095416387213
30
622.948011370577
11
1244.78734079841
21
667.163564734635
31
623.465649460782
  0
LINE
 8
Layer0
10
1244.78734117079
20
668.577778297008
30
621.016159717999
11
1244.78734112601
21
668.095416387213
31
621.215960563008
  0
LINE
 8
Layer0
10
1244.78730402837
20
994.827461713726
30
621.94804171769
11
1244.78730406947
21
994.50962446853
31
621.533828155317
  0
LINE
 8
Layer0
10
1244.78734120453
20
670.095416387213
30
621.215960563008
11
1244.78734121143
21
669.613054477418
31
621.016159717999
  0
LINE
 8
Layer0
10
1244.78734075642
20
670.095416387213
30
474.680062457664
11
1244.78734081379
21
670.509629949586
31
474.362225212468
  0
LINE
 8
Layer0
10
1244.78730360144
20
993.613048996362
30
474.879893649786
11
1244.78730364622
21
994.095410906157
31
474.680092804777
  0
LINE
 8
Layer0
10
1244.78730364622
20
994.095410906157
30
474.680092804777
11
1244.78730370359
21
994.50962446853
31
474.362255559581
  0
LINE
 8
Layer0
10
1244.78730370359
20
994.50962446853
30
474.362255559581
11
1244.78730376965
21
994.827461713726
31
473.948041997208
  0
LINE
 8
Layer0
10
1244.78730376965
20
994.827461713726
30
473.948041997208
11
1244.78730383989
21
995.027262558735
31
473.465680087413
  0
LINE
 8
Layer0
10
1244.78730383989
20
995.027262558735
30
473.465680087413
11
1244.78730390953
21
995.095410906157
31
472.948041997208
  0
LINE
 8
Layer0
10
1244.78730390953
20
995.095410906157
30
472.948041997208
11
1244.78730397382
21
995.027262558735
31
472.430403907003
  0
LINE
 8
Layer0
10
1244.78730397382
20
995.027262558735
30
472.430403907003
11
1244.78730402837
21
994.827461713726
31
471.948041997208
  0
LINE
 8
Layer0
10
1244.78730402837
20
994.827461713726
30
471.948041997208
11
1244.78730406947
21
994.50962446853
31
471.533828434835
  0
LINE
 8
Layer0
10
1244.78730406947
20
994.50962446853
30
471.533828434835
11
1244.78730409433
21
994.095410906157
31
471.215991189639
  0
LINE
 8
Layer0
10
1244.78730409433
20
994.095410906157
30
471.215991189639
11
1244.78730410123
21
993.613048996362
31
471.01619034463
  0
LINE
 8
Layer0
10
1244.78730410123
20
993.613048996362
30
471.01619034463
11
1244.78730408973
21
993.095410906157
31
470.948041997208
  0
LINE
 8
Layer0
10
1244.78730408973
20
993.095410906157
30
470.948041997208
11
1244.78730406059
21
992.577772815952
31
471.01619034463
  0
LINE
 8
Layer0
10
1244.78730406059
20
992.577772815952
30
471.01619034463
11
1244.78730401581
21
992.095410906157
31
471.215991189639
  0
LINE
 8
Layer0
10
1244.78730401581
20
992.095410906157
30
471.215991189639
11
1244.78730395843
21
991.681197343784
31
471.533828434835
  0
LINE
 8
Layer0
10
1244.78730389237
20
991.363360098588
30
471.948041997208
11
1244.78730382213
21
991.163559253579
31
472.430403907003
  0
LINE
 8
Layer0
10
1244.7873035723
20
993.095410906157
30
474.948041997208
11
1244.78730360144
21
993.613048996362
31
474.879893649786
  0
LINE
 8
Layer0
10
1244.78733891776
20
907.827463771948
30
384.948004038998
11
1244.78733895886
21
907.509626526753
31
384.533790476625
  0
LINE
 8
Layer0
10
1244.78733846169
20
906.095412964379
30
387.948004038998
11
1244.78733849082
21
906.613051054584
31
387.879855691576
  0
LINE
 8
Layer0
10
1244.78733833627
20
653.395407201415
30
371.947992193398
11
1244.78735199165
21
1010.69542172181
31
371.947993102278
  0
LINE
 8
Layer0
10
1244.78730734711
20
1010.69537670126
30
719.947968856391
11
1244.78735199165
21
1010.69542172181
31
371.947993102278
  0
LINE
 8
Layer0
10
1244.78729294819
20
653.395366758548
30
719.94796794751
11
1244.78730734711
21
1010.69537670126
31
719.947968856391
  0
LINE
 8
Layer0
10
1244.78733833627
20
653.395407201415
30
371.947992193398
11
1244.78729294819
21
653.395366758548
31
719.94796794751
 0
ENDSEC
 0
EOF
