 0
SECTION
 2
ENTITIES
  0
LINE
 8
Layer0
10
885.387299128286
20
1010.69536455995
30
719.947967535769
11
885.387343772821
21
1010.69540958049
31
371.947991781656
  0
LINE
 8
Layer0
10
885.387330117443
20
653.395395064821
30
371.947990872776
11
885.387343772821
21
1010.69540958049
31
371.947991781656
  0
LINE
 8
Layer0
10
885.387284729359
20
653.395354621954
30
719.947966626888
11
885.387299128286
21
1010.69536455995
31
719.947967535769
  0
LINE
 8
Layer0
10
885.387330117443
20
653.395395064821
30
371.947990872776
11
885.387284729359
21
653.395354621954
31
719.947966626888
  0
LINE
 8
Layer0
10
885.387326121337
20
667.681196696604
30
621.533796209305
11
885.387326055277
21
667.363359451408
31
621.948009771678
  0
LINE
 8
Layer0
10
885.387326072435
20
671.095410258977
30
622.948009771678
11
885.38732613672
21
671.027261911555
31
622.430371681473
  0
LINE
 8
Layer0
10
885.387325809124
20
670.095410258977
30
624.680060579247
11
885.3873258665
21
670.50962382135
31
624.362223334051
  0
LINE
 8
Layer0
10
885.387326191273
20
670.827461066546
30
621.948009771678
11
885.387326232377
21
670.50962382135
31
621.533796209305
  0
LINE
 8
Layer0
10
885.387325755459
20
667.681196696604
30
624.362223334051
11
885.387325730606
21
668.095410258977
31
624.680060579247
  0
LINE
 8
Layer0
10
885.387325851116
20
667.163558606399
30
473.465648141401
11
885.387325796562
21
667.363359451408
31
473.948010051196
  0
LINE
 8
Layer0
10
885.38732613672
20
671.027261911555
30
472.430371960991
11
885.387326191273
21
670.827461066546
31
471.948010051196
  0
LINE
 8
Layer0
10
885.387326055277
20
667.363359451408
30
621.948009771678
11
885.387325985036
21
667.163558606399
31
622.430371681473
  0
LINE
 8
Layer0
10
885.387324002696
20
755.577769025456
30
384.016150787521
11
885.387323957914
21
755.095407115661
31
384.21595163253
  0
LINE
 8
Layer0
10
885.3873258665
20
670.50962382135
30
624.362223334051
11
885.387325932559
21
670.827461066546
31
623.948009771678
  0
LINE
 8
Layer0
10
885.387325755459
20
667.681196696604
30
474.362223613569
11
885.387325730606
21
668.095410258977
31
474.680060858765
  0
LINE
 8
Layer0
10
885.387325723697
20
668.577772168772
30
474.879861703774
11
885.387325735203
21
669.095410258977
31
474.948010051196
  0
LINE
 8
Layer0
10
885.387325735203
20
669.095410258977
30
474.948010051196
11
885.387325764341
21
669.613048349182
31
474.879861703774
  0
LINE
 8
Layer0
10
885.387325764341
20
669.613048349182
30
474.879861703774
11
885.387325809123
21
670.095410258977
31
474.680060858765
  0
LINE
 8
Layer0
10
885.387325809123
20
670.095410258977
30
474.680060858765
11
885.387325866499
21
670.50962382135
31
474.362223613569
  0
LINE
 8
Layer0
10
885.387325866499
20
670.50962382135
30
474.362223613569
11
885.387325932559
21
670.827461066546
31
473.948010051196
  0
LINE
 8
Layer0
10
885.387325932559
20
670.827461066546
30
473.948010051196
11
885.3873260028
21
671.027261911555
31
473.465648141401
  0
LINE
 8
Layer0
10
885.3873260028
20
671.027261911555
30
473.465648141401
11
885.387326072435
21
671.095410258977
31
472.948010051196
  0
LINE
 8
Layer0
10
885.387326072435
20
671.095410258977
30
472.948010051196
11
885.38732613672
21
671.027261911555
31
472.430371960991
  0
LINE
 8
Layer0
10
885.387326191273
20
670.827461066546
30
471.948010051196
11
885.387326232377
21
670.50962382135
31
471.533796488823
  0
LINE
 8
Layer0
10
885.387326232377
20
670.50962382135
30
471.533796488823
11
885.38732625723
21
670.095410258977
31
471.215959243627
  0
LINE
 8
Layer0
10
885.38732625723
20
670.095410258977
30
471.215959243627
11
885.387326264139
21
669.613048349182
31
471.016158398618
  0
LINE
 8
Layer0
10
885.387326264139
20
669.613048349182
30
471.016158398618
11
885.387326252632
21
669.095410258977
31
470.948010051196
  0
LINE
 8
Layer0
10
885.387326252632
20
669.095410258977
30
470.948010051196
11
885.387326223495
21
668.577772168772
31
471.016158398618
  0
LINE
 8
Layer0
10
885.387326223495
20
668.577772168772
30
471.016158398618
11
885.387326178712
21
668.095410258977
31
471.215959243627
  0
LINE
 8
Layer0
10
885.387326178712
20
668.095410258977
30
471.215959243627
11
885.387326121336
21
667.681196696604
31
471.533796488823
  0
LINE
 8
Layer0
10
885.387326121336
20
667.681196696604
30
471.533796488823
11
885.387326055277
21
667.363359451408
31
471.948010051196
  0
LINE
 8
Layer0
10
885.387326055277
20
667.363359451408
30
471.948010051196
11
885.387325985036
21
667.163558606399
31
472.430371960991
  0
LINE
 8
Layer0
10
885.387325985036
20
667.163558606399
30
472.430371960991
11
885.3873259154
21
667.095410258977
31
472.948010051196
  0
LINE
 8
Layer0
10
885.3873259154
20
667.095410258977
30
472.948010051196
11
885.387325851116
21
667.163558606399
31
473.465648141401
  0
LINE
 8
Layer0
10
885.387325796562
20
667.363359451408
30
473.948010051196
11
885.387325755459
21
667.681196696604
31
474.362223613569
  0
LINE
 8
Layer0
10
885.387325730606
20
668.095410258977
30
474.680060858765
11
885.387325723697
21
668.577772168772
31
474.879861703774
  0
LINE
 8
Layer0
10
885.387325932559
20
670.827461066546
30
623.948009771678
11
885.3873260028
21
671.027261911555
31
623.465647861883
  0
LINE
 8
Layer0
10
885.387323630317
20
754.163555463083
30
386.465640530304
11
885.387323575764
21
754.363356308092
31
386.948002440099
  0
LINE
 8
Layer0
10
885.387325764341
20
669.613048349182
30
624.879861424256
11
885.387325809124
21
670.095410258977
31
624.680060579247
  0
LINE
 8
Layer0
10
885.38732613672
20
671.027261911555
30
622.430371681473
11
885.387326191273
21
670.827461066546
31
621.948009771678
  0
LINE
 8
Layer0
10
885.387325985036
20
667.163558606399
30
622.430371681473
11
885.387325915401
21
667.095410258977
31
622.948009771678
  0
LINE
 8
Layer0
10
885.387326178713
20
668.095410258977
30
621.215958964109
11
885.387326121337
21
667.681196696604
31
621.533796209305
  0
LINE
 8
Layer0
10
885.387326223495
20
668.577772168772
30
621.0161581191
11
885.387326178713
21
668.095410258977
31
621.215958964109
  0
LINE
 8
Layer0
10
885.387325730606
20
668.095410258977
30
624.680060579247
11
885.387325723697
21
668.577772168772
31
624.879861424256
  0
LINE
 8
Layer0
10
885.387325723697
20
668.577772168772
30
624.879861424256
11
885.387325735204
21
669.095410258977
31
624.948009771678
  0
LINE
 8
Layer0
10
885.387323957914
20
755.095407115661
30
384.21595163253
11
885.387323900538
21
754.681193553288
31
384.533788877726
  0
LINE
 8
Layer0
10
885.3873260028
20
671.027261911555
30
623.465647861883
11
885.387326072435
21
671.095410258977
31
622.948009771678
  0
LINE
 8
Layer0
10
885.387323900538
20
754.681193553288
30
384.533788877726
11
885.387323834478
21
754.363356308092
31
384.948002440099
  0
LINE
 8
Layer0
10
885.387324031834
20
756.095407115661
30
383.948002440099
11
885.387324002696
21
755.577769025456
31
384.016150787521
  0
LINE
 8
Layer0
10
885.387323834478
20
754.363356308092
30
384.948002440099
11
885.387323764237
21
754.163555463083
31
385.430364349894
  0
LINE
 8
Layer0
10
885.387323764237
20
754.163555463083
30
385.430364349894
11
885.387323694602
21
754.095407115661
31
385.948002440099
  0
LINE
 8
Layer0
10
885.387323694602
20
754.095407115661
30
385.948002440099
11
885.387323630317
21
754.163555463083
31
386.465640530304
  0
LINE
 8
Layer0
10
885.387323575764
20
754.363356308092
30
386.948002440099
11
885.38732353466
21
754.681193553288
31
387.362216002472
  0
LINE
 8
Layer0
10
885.38732353466
20
754.681193553288
30
387.362216002472
11
885.387323509807
21
755.095407115661
31
387.680053247668
  0
LINE
 8
Layer0
10
885.387323509807
20
755.095407115661
30
387.680053247668
11
885.387323502898
21
755.577769025456
31
387.879854092677
  0
LINE
 8
Layer0
10
885.387323502898
20
755.577769025456
30
387.879854092677
11
885.387323514405
21
756.095407115661
31
387.948002440099
  0
LINE
 8
Layer0
10
885.387323514405
20
756.095407115661
30
387.948002440099
11
885.387323543542
21
756.613045205866
31
387.879854092677
  0
LINE
 8
Layer0
10
885.387323543542
20
756.613045205866
30
387.879854092677
11
885.387323588325
21
757.095407115661
31
387.680053247668
  0
LINE
 8
Layer0
10
885.387323588325
20
757.095407115661
30
387.680053247668
11
885.387323645701
21
757.509620678034
31
387.362216002472
  0
LINE
 8
Layer0
10
885.387323645701
20
757.509620678034
30
387.362216002472
11
885.38732371176
21
757.82745792323
31
386.948002440099
  0
LINE
 8
Layer0
10
885.38732371176
20
757.82745792323
30
386.948002440099
11
885.387323782001
21
758.027258768239
31
386.465640530304
  0
LINE
 8
Layer0
10
885.387323782001
20
758.027258768239
30
386.465640530304
11
885.387323851637
21
758.095407115661
31
385.948002440099
  0
LINE
 8
Layer0
10
885.387323851637
20
758.095407115661
30
385.948002440099
11
885.387323915921
21
758.027258768239
31
385.430364349894
  0
LINE
 8
Layer0
10
885.387323915921
20
758.027258768239
30
385.430364349894
11
885.387323970475
21
757.82745792323
31
384.948002440099
  0
LINE
 8
Layer0
10
885.387323970475
20
757.82745792323
30
384.948002440099
11
885.387324011578
21
757.509620678034
31
384.533788877726
  0
LINE
 8
Layer0
10
885.387324011578
20
757.509620678034
30
384.533788877726
11
885.387324036431
21
757.095407115661
31
384.21595163253
  0
LINE
 8
Layer0
10
885.387324036431
20
757.095407115661
30
384.21595163253
11
885.38732404334
21
756.613045205866
31
384.016150787521
  0
LINE
 8
Layer0
10
885.38732404334
20
756.613045205866
30
384.016150787521
11
885.387324031834
21
756.095407115661
31
383.948002440099
  0
LINE
 8
Layer0
10
885.387326264139
20
669.613048349182
30
621.0161581191
11
885.387326252633
21
669.095410258977
31
620.948009771678
  0
LINE
 8
Layer0
10
885.387325915401
20
667.095410258977
30
622.948009771678
11
885.387325851116
21
667.163558606399
31
623.465647861883
  0
LINE
 8
Layer0
10
885.387325735204
20
669.095410258977
30
624.948009771678
11
885.387325764341
21
669.613048349182
31
624.879861424256
  0
LINE
 8
Layer0
10
885.387326232377
20
670.50962382135
30
621.533796209305
11
885.38732625723
21
670.095410258977
31
621.215958964109
  0
LINE
 8
Layer0
10
885.38732625723
20
670.095410258977
30
621.215958964109
11
885.387326264139
21
669.613048349182
31
621.0161581191
  0
LINE
 8
Layer0
10
885.387326252633
20
669.095410258977
30
620.948009771678
11
885.387326223495
21
668.577772168772
31
621.0161581191
  0
LINE
 8
Layer0
10
885.387325851116
20
667.163558606399
30
623.465647861883
11
885.387325796563
21
667.363359451408
31
623.948009771678
  0
LINE
 8
Layer0
10
885.387325796563
20
667.363359451408
30
623.948009771678
11
885.387325755459
21
667.681196696604
31
624.362223334051
  0
LINE
 8
Layer0
10
885.387288613497
20
992.577766687717
30
624.879891771368
11
885.387288625004
21
993.095404777922
31
624.94804011879
  0
LINE
 8
Layer0
10
885.387288625004
20
993.095404777922
30
624.94804011879
11
885.387288654141
21
993.613042868127
31
624.879891771368
  0
LINE
 8
Layer0
10
885.387288654141
20
993.613042868127
30
624.879891771368
11
885.387288698923
21
994.095404777922
31
624.680090926359
  0
LINE
 8
Layer0
10
885.387288698923
20
994.095404777922
30
624.680090926359
11
885.3872887563
21
994.509618340295
31
624.362253681163
  0
LINE
 8
Layer0
10
885.3872887563
20
994.509618340295
30
624.362253681163
11
885.387288822359
21
994.82745558549
31
623.94804011879
  0
LINE
 8
Layer0
10
885.387288822359
20
994.82745558549
30
623.94804011879
11
885.3872888926
21
995.0272564305
31
623.465678208995
  0
LINE
 8
Layer0
10
885.3872888926
20
995.0272564305
30
623.465678208995
11
885.387288962235
21
995.095404777922
31
622.94804011879
  0
LINE
 8
Layer0
10
885.387288962235
20
995.095404777922
30
622.94804011879
11
885.38728902652
21
995.0272564305
31
622.430402028585
  0
LINE
 8
Layer0
10
885.38728902652
20
995.0272564305
30
622.430402028585
11
885.387289081073
21
994.82745558549
31
621.94804011879
  0
LINE
 8
Layer0
10
885.387289081073
20
994.82745558549
30
621.94804011879
11
885.387289122177
21
994.509618340295
31
621.533826556417
  0
LINE
 8
Layer0
10
885.387289122177
20
994.509618340295
30
621.533826556417
11
885.38728914703
21
994.095404777922
31
621.215989311222
  0
LINE
 8
Layer0
10
885.38728914703
20
994.095404777922
30
621.215989311222
11
885.387289153939
21
993.613042868127
31
621.016188466212
  0
LINE
 8
Layer0
10
885.387289153939
20
993.613042868127
30
621.016188466212
11
885.387289142433
21
993.095404777922
31
620.94804011879
  0
LINE
 8
Layer0
10
885.387289142433
20
993.095404777922
30
620.94804011879
11
885.387289113295
21
992.577766687717
31
621.016188466212
  0
LINE
 8
Layer0
10
885.387289113295
20
992.577766687717
30
621.016188466212
11
885.387289068513
21
992.095404777922
31
621.215989311222
  0
LINE
 8
Layer0
10
885.387289068513
20
992.095404777922
30
621.215989311222
11
885.387289011136
21
991.681191215549
31
621.533826556417
  0
LINE
 8
Layer0
10
885.387289011136
20
991.681191215549
30
621.533826556417
11
885.387288945077
21
991.363353970353
31
621.94804011879
  0
LINE
 8
Layer0
10
885.387288945077
20
991.363353970353
30
621.94804011879
11
885.387288874836
21
991.163553125343
31
622.430402028585
  0
LINE
 8
Layer0
10
885.387288874836
20
991.163553125343
30
622.430402028585
11
885.387288805201
21
991.095404777922
31
622.94804011879
  0
LINE
 8
Layer0
10
885.387288805201
20
991.095404777922
30
622.94804011879
11
885.387288740916
21
991.163553125343
31
623.465678208995
  0
LINE
 8
Layer0
10
885.387288740916
20
991.163553125343
30
623.465678208995
11
885.387288686363
21
991.363353970353
31
623.94804011879
  0
LINE
 8
Layer0
10
885.387288686363
20
991.363353970353
30
623.94804011879
11
885.387288645259
21
991.681191215549
31
624.362253681163
  0
LINE
 8
Layer0
10
885.387288645259
20
991.681191215549
30
624.362253681163
11
885.387288620406
21
992.095404777922
31
624.680090926359
  0
LINE
 8
Layer0
10
885.387288620406
20
992.095404777922
30
624.680090926359
11
885.387288613497
21
992.577766687717
31
624.879891771368
  0
LINE
 8
Layer0
10
885.387288613497
20
992.577766687717
30
474.879892050887
11
885.387288625003
21
993.095404777922
31
474.948040398308
  0
LINE
 8
Layer0
10
885.387288625003
20
993.095404777922
30
474.948040398308
11
885.38728865414
21
993.613042868127
31
474.879892050887
  0
LINE
 8
Layer0
10
885.38728865414
20
993.613042868127
30
474.879892050887
11
885.387288698923
21
994.095404777922
31
474.680091205877
  0
LINE
 8
Layer0
10
885.387288698923
20
994.095404777922
30
474.680091205877
11
885.3872887563
21
994.509618340295
31
474.362253960682
  0
LINE
 8
Layer0
10
885.3872887563
20
994.509618340295
30
474.362253960682
11
885.387288822359
21
994.82745558549
31
473.948040398308
  0
LINE
 8
Layer0
10
885.387288822359
20
994.82745558549
30
473.948040398308
11
885.387288892599
21
995.0272564305
31
473.465678488514
  0
LINE
 8
Layer0
10
885.387288892599
20
995.0272564305
30
473.465678488514
11
885.387288962235
21
995.095404777922
31
472.948040398308
  0
LINE
 8
Layer0
10
885.387288962235
20
995.095404777922
30
472.948040398308
11
885.38728902652
21
995.0272564305
31
472.430402308103
  0
LINE
 8
Layer0
10
885.38728902652
20
995.0272564305
30
472.430402308103
11
885.387289081073
21
994.82745558549
31
471.948040398309
  0
LINE
 8
Layer0
10
885.387289081073
20
994.82745558549
30
471.948040398309
11
885.387289122177
21
994.509618340295
31
471.533826835935
  0
LINE
 8
Layer0
10
885.387289122177
20
994.509618340295
30
471.533826835935
11
885.387289147029
21
994.095404777922
31
471.21598959074
  0
LINE
 8
Layer0
10
885.387289147029
20
994.095404777922
30
471.21598959074
11
885.387289153938
21
993.613042868127
31
471.01618874573
  0
LINE
 8
Layer0
10
885.387289153938
20
993.613042868127
30
471.01618874573
11
885.387289142432
21
993.095404777922
31
470.948040398308
  0
LINE
 8
Layer0
10
885.387289142432
20
993.095404777922
30
470.948040398308
11
885.387289113295
21
992.577766687717
31
471.01618874573
  0
LINE
 8
Layer0
10
885.387289113295
20
992.577766687717
30
471.01618874573
11
885.387289068512
21
992.095404777922
31
471.21598959074
  0
LINE
 8
Layer0
10
885.387289068512
20
992.095404777922
30
471.21598959074
11
885.387289011136
21
991.681191215549
31
471.533826835935
  0
LINE
 8
Layer0
10
885.387289011136
20
991.681191215549
30
471.533826835935
11
885.387288945077
21
991.363353970353
31
471.948040398309
  0
LINE
 8
Layer0
10
885.387288945077
20
991.363353970353
30
471.948040398309
11
885.387288874836
21
991.163553125343
31
472.430402308103
  0
LINE
 8
Layer0
10
885.387288874836
20
991.163553125343
30
472.430402308103
11
885.3872888052
21
991.095404777922
31
472.948040398308
  0
LINE
 8
Layer0
10
885.3872888052
20
991.095404777922
30
472.948040398308
11
885.387288740916
21
991.163553125343
31
473.465678488514
  0
LINE
 8
Layer0
10
885.387288740916
20
991.163553125343
30
473.465678488514
11
885.387288686362
21
991.363353970353
31
473.948040398308
  0
LINE
 8
Layer0
10
885.387288686362
20
991.363353970353
30
473.948040398308
11
885.387288645259
21
991.681191215549
31
474.362253960682
  0
LINE
 8
Layer0
10
885.387288645259
20
991.681191215549
30
474.362253960682
11
885.387288620406
21
992.095404777922
31
474.680091205877
  0
LINE
 8
Layer0
10
885.387288620406
20
992.095404777922
30
474.680091205877
11
885.387288613497
21
992.577766687717
31
474.879892050887
  0
LINE
 8
Layer0
10
885.387324031821
20
906.095406836144
30
383.948002440099
11
885.387324002683
21
905.577768745939
31
384.016150787521
  0
LINE
 8
Layer0
10
885.387324002683
20
905.577768745939
30
384.016150787521
11
885.387323957901
21
905.095406836144
31
384.21595163253
  0
LINE
 8
Layer0
10
885.387323957901
20
905.095406836144
30
384.21595163253
11
885.387323900525
21
904.681193273771
31
384.533788877726
  0
LINE
 8
Layer0
10
885.387323900525
20
904.681193273771
30
384.533788877726
11
885.387323834465
21
904.363356028575
31
384.948002440099
  0
LINE
 8
Layer0
10
885.387323834465
20
904.363356028575
30
384.948002440099
11
885.387323764224
21
904.163555183566
31
385.430364349894
  0
LINE
 8
Layer0
10
885.387323764224
20
904.163555183566
30
385.430364349894
11
885.387323694589
21
904.095406836144
31
385.948002440099
  0
LINE
 8
Layer0
10
885.387323694589
20
904.095406836144
30
385.948002440099
11
885.387323630304
21
904.163555183566
31
386.465640530304
  0
LINE
 8
Layer0
10
885.387323630304
20
904.163555183566
30
386.465640530304
11
885.387323575751
21
904.363356028575
31
386.948002440099
  0
LINE
 8
Layer0
10
885.387323575751
20
904.363356028575
30
386.948002440099
11
885.387323534648
21
904.681193273771
31
387.362216002472
  0
LINE
 8
Layer0
10
885.387323534648
20
904.681193273771
30
387.362216002472
11
885.387323509794
21
905.095406836144
31
387.680053247668
  0
LINE
 8
Layer0
10
885.387323509794
20
905.095406836144
30
387.680053247668
11
885.387323502885
21
905.577768745939
31
387.879854092677
  0
LINE
 8
Layer0
10
885.387323502885
20
905.577768745939
30
387.879854092677
11
885.387323514392
21
906.095406836144
31
387.948002440099
  0
LINE
 8
Layer0
10
885.387323514392
20
906.095406836144
30
387.948002440099
11
885.387323543529
21
906.613044926349
31
387.879854092677
  0
LINE
 8
Layer0
10
885.387323543529
20
906.613044926349
30
387.879854092677
11
885.387323588312
21
907.095406836144
31
387.680053247668
  0
LINE
 8
Layer0
10
885.387323588312
20
907.095406836144
30
387.680053247668
11
885.387323645688
21
907.509620398517
31
387.362216002472
  0
LINE
 8
Layer0
10
885.387323645688
20
907.509620398517
30
387.362216002472
11
885.387323711747
21
907.827457643713
31
386.948002440099
  0
LINE
 8
Layer0
10
885.387323711747
20
907.827457643713
30
386.948002440099
11
885.387323781988
21
908.027258488722
31
386.465640530304
  0
LINE
 8
Layer0
10
885.387323781988
20
908.027258488722
30
386.465640530304
11
885.387323851624
21
908.095406836144
31
385.948002440099
  0
LINE
 8
Layer0
10
885.387323851624
20
908.095406836144
30
385.948002440099
11
885.387323915909
21
908.027258488722
31
385.430364349894
  0
LINE
 8
Layer0
10
885.387323915909
20
908.027258488722
30
385.430364349894
11
885.387323970462
21
907.827457643713
31
384.948002440099
  0
LINE
 8
Layer0
10
885.387323970462
20
907.827457643713
30
384.948002440099
11
885.387324011565
21
907.509620398517
31
384.533788877726
  0
LINE
 8
Layer0
10
885.387324011565
20
907.509620398517
30
384.533788877726
11
885.387324036418
21
907.095406836144
31
384.21595163253
  0
LINE
 8
Layer0
10
885.387324036418
20
907.095406836144
30
384.21595163253
11
885.387324043327
21
906.613044926349
31
384.016150787521
  0
LINE
 8
Layer0
10
885.387324043327
20
906.613044926349
30
384.016150787521
11
885.387324031821
21
906.095406836144
31
383.948002440099
 0
ENDSEC
 0
EOF
