 0
SECTION
 2
ENTITIES
  0
LINE
 8
Layer0
10
1227.6049585088
20
1012.69541373474
30
429.117933922255
11
1227.08732041859
21
1012.69541371684
31
429.186082269677
  0
LINE
 8
Layer0
10
1229.08732041859
20
1012.69541401893
30
427.186082269677
11
1229.01917207117
21
1012.69541394835
31
427.703720359882
  0
LINE
 8
Layer0
10
1228.18717254969
20
1012.69541878723
30
392.654368394066
11
1229.23582464738
21
1012.69541861041
31
392.69416044558
  0
LINE
 8
Layer0
10
1232.6324620932
20
1012.69541803768
30
393.063787244913
11
1233.15016141315
21
1012.69541795039
31
393.152657714466
  0
LINE
 8
Layer0
10
1227.37204766811
20
1012.69541892467
30
389.489507220124
11
1227.35689939969
21
1012.69541892723
31
389.585158788558
  0
LINE
 8
Layer0
10
1220.39252438217
20
1012.69542010153
30
393.280120696185
11
1220.77768227096
21
1012.69542003659
31
393.367574745336
  0
LINE
 8
Layer0
10
1221.31607670615
20
1012.69541994581
30
384.348178685695
11
1221.40617435434
21
1012.69541993061
31
385.869379792359
  0
LINE
 8
Layer0
10
1231.23777086602
20
1012.69541827285
30
387.788594338856
11
1231.23777084791
21
1012.69541827285
31
387.98963340276
  0
LINE
 8
Layer0
10
1233.66414805717
20
1012.69541786372
30
384.666511339477
11
1233.82968141992
21
1012.69541783581
31
383.338754192732
  0
LINE
 8
Layer0
10
1224.27279637355
20
1012.69541944726
30
390.309401495733
11
1224.27279625377
21
1012.69541944726
31
391.63890735379
  0
LINE
 8
Layer0
10
1221.09744042802
20
1012.69541998267
30
382.858436117837
11
1221.31607670615
21
1012.69541994581
31
384.348178685695
  0
LINE
 8
Layer0
10
1232.15464812153
20
1012.69541811825
30
380.415585475025
11
1231.90016240365
21
1012.69541816116
31
381.244467726948
  0
LINE
 8
Layer0
10
1225.77698038032
20
1012.69541919363
30
388.258369626716
11
1225.84171802186
21
1012.69541918271
31
388.323714660379
  0
LINE
 8
Layer0
10
1224.27293697796
20
1012.69541944723
30
392.806568575308
11
1224.97947815202
21
1012.6954193281
31
392.746893344464
  0
LINE
 8
Layer0
10
1230.63829201739
20
1012.69541837393
30
380.598711506799
11
1230.12853589834
21
1012.69541845988
31
380.621348151207
  0
LINE
 8
Layer0
10
1225.84171802186
20
1012.69541918271
30
388.323714660379
11
1225.92515690319
21
1012.69541916864
31
388.355451995185
  0
LINE
 8
Layer0
10
1224.27279615649
20
1012.69541944726
30
392.718617302794
11
1224.27293697796
21
1012.69541944723
31
392.806568575308
  0
LINE
 8
Layer0
10
1221.86745807587
20
1012.69541985283
30
380.11627808464
11
1221.29307589362
21
1012.69541994968
31
379.999212358755
  0
LINE
 8
Layer0
10
901.355280647336
20
1012.69540860564
30
426.186082269681
11
901.673117892532
21
1012.69540866657
31
425.771868707308
  0
LINE
 8
Layer0
10
901.155479802327
20
1012.69540839871
30
427.703720359886
11
901.087331454905
21
1012.69540846698
31
427.186082269681
  0
LINE
 8
Layer0
10
903.60496954511
20
1012.69540876869
30
425.254230617103
11
904.087331454905
21
1012.69540875006
31
425.454031462112
  0
LINE
 8
Layer0
10
903.087331454905
20
1012.6954082326
30
429.186082269681
11
902.5696933647
21
1012.69540823298
31
429.117933922259
  0
LINE
 8
Layer0
10
902.087331454905
20
1012.69540871621
30
425.454031462112
11
902.5696933647
21
1012.69540875117
31
425.254230617103
  0
LINE
 8
Layer0
10
901.087331454905
20
1012.69540846698
30
427.186082269681
11
901.155479802327
21
1012.69540853756
31
426.668444179476
  0
LINE
 8
Layer0
10
901.355280647336
20
1012.6954083374
30
428.186082269681
11
901.155479802327
21
1012.69540839871
31
427.703720359886
  0
LINE
 8
Layer0
10
901.673117892532
20
1012.69540866657
30
425.771868707308
11
902.087331454905
21
1012.69540871621
31
425.454031462112
  0
LINE
 8
Layer0
10
905.019183107483
20
1012.69540860296
30
426.668444179476
11
905.087331454905
21
1012.69540853469
31
427.186082269681
  0
LINE
 8
Layer0
10
904.087331454905
20
1012.69540875006
30
425.454031462112
11
904.501545017278
21
1012.69540871444
31
425.771868707308
  0
LINE
 8
Layer0
10
905.019183107483
20
1012.69540846411
30
427.703720359886
11
904.819382262474
21
1012.69540839604
31
428.186082269681
  0
LINE
 8
Layer0
10
1233.60393851757
20
1012.69541787388
30
387.259172102489
11
1233.60393856912
21
1012.69541787388
31
386.686983997531
  0
LINE
 8
Layer0
10
1229.23582464738
20
1012.69541861041
30
392.69416044558
11
1230.27546845039
21
1012.69541843511
31
392.767814436927
  0
LINE
 8
Layer0
10
1221.40617435434
20
1012.69541993061
30
385.869379792359
11
1221.40685017267
21
1012.6954199305
31
386.207582053897
  0
LINE
 8
Layer0
10
1221.29307589362
20
1012.69541994968
30
379.999212358755
11
1220.72256023977
21
1012.69542004588
31
379.871750334015
  0
LINE
 8
Layer0
10
1233.60393845626
20
1012.69541787388
30
387.939612011089
11
1233.60393847437
21
1012.69541787388
31
387.738572947184
  0
LINE
 8
Layer0
10
1227.29964808824
20
1012.69541893688
30
389.656173829771
11
1227.21326762543
21
1012.69541895144
31
389.687889558871
  0
LINE
 8
Layer0
10
1227.37204837097
20
1012.69541892467
30
381.688545557983
11
1227.37204819665
21
1012.69541892467
31
383.623243329999
  0
LINE
 8
Layer0
10
1227.37204769924
20
1012.69541892467
30
389.144034309675
11
1227.37204766811
21
1012.69541892467
31
389.489507220124
  0
LINE
 8
Layer0
10
1233.82968141992
20
1012.69541783581
30
383.338754192732
11
1234.07789670159
21
1012.69541779396
31
382.076295936325
  0
LINE
 8
Layer0
10
1221.07156540296
20
1012.69541998703
30
390.883873308129
11
1220.76600153417
21
1012.69542003856
31
392.135476470358
  0
LINE
 8
Layer0
10
1223.4753196082
20
1012.69541958172
30
382.880819563518
11
1223.20928985676
21
1012.69541962658
31
381.603345442472
  0
LINE
 8
Layer0
10
1230.27546845039
20
1012.69541843511
30
392.767814436927
11
1230.66515009727
21
1012.6954183694
31
392.793971840498
  0
LINE
 8
Layer0
10
1223.49323633445
20
1012.6954195787
30
390.730437239837
11
1223.67672146421
21
1012.69541954776
31
389.529370999674
  0
LINE
 8
Layer0
10
1225.75562148014
20
1012.69541919723
30
388.169212898222
11
1225.77698038032
21
1012.69541919363
31
388.258369626716
  0
LINE
 8
Layer0
10
1220.40661524748
20
1012.69542009916
30
380.284403243448
11
1220.78328133634
21
1012.69542003564
31
381.477921250012
  0
LINE
 8
Layer0
10
1220.20926724166
20
1012.69542013243
30
379.782099491303
11
1220.21946149484
21
1012.69542013071
31
379.815749693671
  0
LINE
 8
Layer0
10
1223.67599126708
20
1012.69541954789
30
384.309545192985
11
1223.4753196082
21
1012.69541958172
31
382.880819563518
  0
LINE
 8
Layer0
10
1224.55050339944
20
1012.69541940043
30
389.689250378172
11
1224.4089505933
21
1012.6954194243
31
389.705556934844
  0
LINE
 8
Layer0
10
1223.77030577367
20
1012.69541953198
30
385.789714695716
11
1223.67599126708
21
1012.69541954789
31
384.309545192985
  0
LINE
 8
Layer0
10
1227.46329930043
20
1012.69541890929
30
380.694046025878
11
1227.37695349187
21
1012.69541892385
31
380.69250076389
  0
LINE
 8
Layer0
10
1233.65721729254
20
1012.69541786489
30
389.024862300345
11
1233.60393845626
21
1012.69541787388
31
387.939612011089
  0
LINE
 8
Layer0
10
1220.72256023977
20
1012.69542004588
30
379.871750334015
11
1220.20740176168
21
1012.69542013275
31
379.748577910674
  0
LINE
 8
Layer0
10
1225.75562169486
20
1012.69541919723
30
385.786035010164
11
1225.75562156593
21
1012.69541919723
31
387.216967501057
  0
LINE
 8
Layer0
10
1233.80703646044
20
1012.69541783963
30
390.176286810708
11
1233.65721729254
21
1012.69541786489
31
389.024862300345
  0
LINE
 8
Layer0
10
1221.28898327947
20
1012.69541995037
30
389.601279248976
11
1221.07156540296
21
1012.69541998703
31
390.883873308129
  0
LINE
 8
Layer0
10
1230.67138512689
20
1012.69541836835
30
391.502338875853
11
1230.67138560719
21
1012.69541836835
31
386.171499046719
  0
LINE
 8
Layer0
10
1221.4068500259
20
1012.6954199305
30
387.836555195084
11
1221.39802245464
21
1012.69541993199
31
388.363662332379
  0
LINE
 8
Layer0
10
1223.24876906855
20
1012.69541961992
30
391.837008651484
11
1223.49323633445
21
1012.6954195787
31
390.730437239837
  0
LINE
 8
Layer0
10
1223.77282347015
20
1012.69541953156
30
386.737004716622
11
1223.77282351656
21
1012.69541953156
31
386.221911705812
  0
LINE
 8
Layer0
10
1221.39802245464
20
1012.69541993199
30
388.363662332379
11
1221.28898327947
21
1012.69541995037
31
389.601279248976
  0
LINE
 8
Layer0
10
904.819382262474
20
1012.69540839604
30
428.186082269681
11
904.501545017278
21
1012.6954083351
31
428.600295832054
  0
LINE
 8
Layer0
10
903.60496954511
20
1012.6954082505
30
429.117933922259
11
903.087331454905
21
1012.6954082326
31
429.186082269681
  0
LINE
 8
Layer0
10
902.5696933647
20
1012.69540875117
30
425.254230617103
11
903.087331454905
21
1012.69540876907
31
425.186082269681
  0
LINE
 8
Layer0
10
903.087331454905
20
1012.69540876907
30
425.186082269681
11
903.60496954511
21
1012.69540876869
31
425.254230617103
  0
LINE
 8
Layer0
10
904.819382262474
20
1012.69540866427
30
426.186082269681
11
905.019183107483
21
1012.69540860296
31
426.668444179476
  0
LINE
 8
Layer0
10
902.087331454905
20
1012.69540825161
30
428.91813307725
11
901.673117892532
21
1012.69540828723
31
428.600295832054
  0
LINE
 8
Layer0
10
901.673117892532
20
1012.69540828723
30
428.600295832054
11
901.355280647336
21
1012.6954083374
31
428.186082269681
  0
LINE
 8
Layer0
10
904.501545017278
20
1012.69540871444
30
425.771868707308
11
904.819382262474
21
1012.69540866427
31
426.186082269681
  0
LINE
 8
Layer0
10
904.501545017278
20
1012.6954083351
30
428.600295832054
11
904.087331454905
21
1012.69540828546
31
428.91813307725
  0
LINE
 8
Layer0
10
904.087331454905
20
1012.69540828546
30
428.91813307725
11
903.60496954511
21
1012.6954082505
31
429.117933922259
  0
LINE
 8
Layer0
10
902.5696933647
20
1012.69540823298
30
429.117933922259
11
902.087331454905
21
1012.69540825161
31
428.91813307725
  0
LINE
 8
Layer0
10
1225.75604677958
20
1012.69541919716
30
385.161149035159
11
1225.75562169486
21
1012.69541919723
31
385.786035010164
  0
LINE
 8
Layer0
10
1223.67672146421
20
1012.69541954776
30
389.529370999674
11
1223.76802370638
21
1012.69541953237
31
388.313389511487
  0
LINE
 8
Layer0
10
1227.34703657376
20
1012.69541892889
30
388.417418594002
11
1227.37133117804
21
1012.69541892479
31
388.489196872116
  0
LINE
 8
Layer0
10
1231.23777100396
20
1012.69541827285
30
386.257604544507
11
1231.23777096077
21
1012.69541827285
31
386.737005389202
  0
LINE
 8
Layer0
10
901.155479802327
20
1012.69540853756
30
426.668444179476
11
901.355280647336
21
1012.69540860564
31
426.186082269681
  0
LINE
 8
Layer0
10
905.087331454905
20
1012.69540853469
30
427.186082269681
11
905.019183107483
21
1012.69540846411
31
427.703720359886
  0
LINE
 8
Layer0
10
1224.27279625377
20
1012.69541944726
30
391.63890735379
11
1224.27279615649
21
1012.69541944726
31
392.718617302794
  0
LINE
 8
Layer0
10
1244.78725882025
20
1012.69541272391
30
438.648167024824
11
885.387294300656
21
1012.69540669778
31
438.648180629875
  0
LINE
 8
Layer0
10
885.387294300656
20
1012.69540669778
30
438.648180629875
11
885.387338545777
21
1012.69541559357
31
371.94799177165
  0
LINE
 8
Layer0
10
885.387338545777
20
1012.69541559357
30
371.94799177165
11
1244.78735195776
21
1012.69542172181
31
371.947993370549
  0
LINE
 8
Layer0
10
1244.78735195776
20
1012.69542172181
30
371.947993370549
11
1244.78725882025
21
1012.69541272391
31
438.648167024824
  0
LINE
 8
Layer0
10
1227.3504914785
20
1012.69541892831
30
384.867565561254
11
1227.29127968504
21
1012.69541893829
31
384.951486664065
  0
LINE
 8
Layer0
10
1225.78774801771
20
1012.69541919181
30
385.072219189759
11
1225.75604677958
21
1012.69541919716
31
385.161149035159
  0
LINE
 8
Layer0
10
1223.77282336924
20
1012.69541953156
30
387.857008806176
11
1223.77282341363
21
1012.69541953156
31
387.36437031235
  0
LINE
 8
Layer0
10
1227.12209989289
20
1012.69541896682
30
392.649342687566
11
1228.18717254969
21
1012.69541878723
31
392.654368394066
  0
LINE
 8
Layer0
10
1227.35689939969
20
1012.69541892723
30
389.585158788558
11
1227.29964808824
21
1012.69541893688
31
389.656173829771
  0
LINE
 8
Layer0
10
1224.97947815202
20
1012.6954193281
30
392.746893344464
11
1226.04611657768
21
1012.69541914825
31
392.680279917913
  0
LINE
 8
Layer0
10
1220.77768227096
20
1012.69542003659
30
393.367574745336
11
1221.34187778679
21
1012.69541994145
31
393.250637416087
  0
LINE
 8
Layer0
10
1228.50153398096
20
1012.69541381934
30
428.60029583205
11
1228.08732041859
21
1012.6954137697
31
428.918133077246
  0
LINE
 8
Layer0
10
1225.35526961102
20
1012.69541408987
30
426.186082269677
11
1225.67310685622
21
1012.69541415081
31
425.771868707304
  0
LINE
 8
Layer0
10
1228.50153398096
20
1012.69541419868
30
425.771868707304
11
1228.81937122616
21
1012.69541414851
31
426.186082269677
  0
LINE
 8
Layer0
10
1226.56968232839
20
1012.69541371722
30
429.117933922255
11
1226.08732041859
21
1012.69541373585
31
428.918133077246
  0
LINE
 8
Layer0
10
1227.6049585088
20
1012.69541425293
30
425.254230617099
11
1228.08732041859
21
1012.6954142343
31
425.454031462108
  0
LINE
 8
Layer0
10
1225.35526961102
20
1012.69541382164
30
428.186082269677
11
1225.15546876601
21
1012.69541388295
31
427.703720359882
  0
LINE
 8
Layer0
10
1228.08732041859
20
1012.6954137697
30
428.918133077246
11
1227.6049585088
21
1012.69541373474
31
429.117933922255
  0
LINE
 8
Layer0
10
1225.67310685622
20
1012.69541377147
30
428.60029583205
11
1225.35526961102
21
1012.69541382164
31
428.186082269677
  0
LINE
 8
Layer0
10
1228.08732041859
20
1012.6954142343
30
425.454031462108
11
1228.50153398096
21
1012.69541419868
31
425.771868707304
  0
LINE
 8
Layer0
10
1228.81937122616
20
1012.69541388028
30
428.186082269677
11
1228.50153398096
21
1012.69541381934
31
428.60029583205
  0
LINE
 8
Layer0
10
1229.01917207117
20
1012.69541394835
30
427.703720359882
11
1228.81937122616
21
1012.69541388028
31
428.186082269677
  0
LINE
 8
Layer0
10
1225.67310685622
20
1012.69541415081
30
425.771868707304
11
1226.08732041859
21
1012.69541420045
31
425.454031462108
  0
LINE
 8
Layer0
10
1226.08732041859
20
1012.69541420045
30
425.454031462108
11
1226.56968232839
21
1012.69541423541
31
425.254230617099
  0
LINE
 8
Layer0
10
1226.56968232839
20
1012.69541423541
30
425.254230617099
11
1227.08732041859
21
1012.69541425331
31
425.186082269677
  0
LINE
 8
Layer0
10
1230.67138560719
20
1012.69541836835
30
386.171499046719
11
1230.67138604319
21
1012.69541836835
31
381.332316520358
  0
LINE
 8
Layer0
10
1220.20740176168
20
1012.69542013275
30
379.748577910674
11
1220.20926724166
21
1012.69542013243
31
379.782099491303
  0
LINE
 8
Layer0
10
1223.76802370638
20
1012.69541953237
30
388.313389511487
11
1223.77282336924
21
1012.69541953156
31
387.857008806176
  0
LINE
 8
Layer0
10
1227.19144029874
20
1012.69541895513
30
388.356199128947
11
1227.28548439632
21
1012.69541893927
31
388.369703824273
  0
LINE
 8
Layer0
10
1223.77282351656
20
1012.69541953156
30
386.221911705812
11
1223.77030577367
21
1012.69541953198
31
385.789714695716
  0
LINE
 8
Layer0
10
1232.11198293108
20
1012.69541812544
30
392.983198021771
11
1232.6324620932
21
1012.69541803768
31
393.063787244913
  0
LINE
 8
Layer0
10
1234.03836966912
20
1012.69541780062
30
391.338055602042
11
1233.80703646044
21
1012.69541783963
31
390.176286810708
  0
LINE
 8
Layer0
10
1233.19414526083
20
1012.69541794297
30
380.258228284021
11
1232.67580933977
21
1012.69541803037
31
380.341149488777
  0
LINE
 8
Layer0
10
1234.38615188504
20
1012.69541774198
30
380.932159857885
11
1234.73180495318
21
1012.6954176837
31
379.959369245039
  0
LINE
 8
Layer0
10
1232.67580933977
20
1012.69541803037
30
380.341149488777
11
1232.15464812153
21
1012.69541811825
31
380.415585475025
  0
LINE
 8
Layer0
10
1230.66938575414
20
1012.69541836869
30
380.681189299594
11
1230.6578015741
21
1012.69541837064
31
380.638125688546
  0
LINE
 8
Layer0
10
1227.37204819665
20
1012.69541892467
30
383.623243329999
11
1227.37204809347
21
1012.69541892467
31
384.768455890185
  0
LINE
 8
Layer0
10
1233.60393861231
20
1012.69541787388
30
386.207583152836
11
1233.60393863043
21
1012.69541787388
31
386.006544088932
  0
LINE
 8
Layer0
10
1220.21946149484
20
1012.69542013071
30
379.815749693671
11
1220.40661524748
21
1012.69542009916
31
380.284403243448
  0
LINE
 8
Layer0
10
1221.40685006808
20
1012.6954199305
30
387.368412537967
11
1221.4068500259
21
1012.6954199305
31
387.836555195084
  0
LINE
 8
Layer0
10
1230.66515009727
20
1012.6954183694
30
392.793971840498
11
1230.67113449401
21
1012.69541836839
31
392.76174251768
  0
LINE
 8
Layer0
10
1225.75562156593
20
1012.69541919723
30
387.216967501057
11
1225.75562148014
21
1012.69541919723
31
388.169212898222
  0
LINE
 8
Layer0
10
1225.86203518597
20
1012.69541917928
30
385.010581676184
11
1225.78774801771
21
1012.69541919181
31
385.072219189759
  0
LINE
 8
Layer0
10
1231.6228992254
20
1012.69541820791
30
391.249929360687
11
1231.85985507576
21
1012.69541816796
31
392.20044321997
  0
LINE
 8
Layer0
10
1221.40685017267
20
1012.6954199305
30
386.207582053897
11
1221.40685012442
21
1012.6954199305
31
386.743088261965
  0
LINE
 8
Layer0
10
1230.67138604319
20
1012.69541836835
30
381.332316520358
11
1230.66938575414
21
1012.69541836869
31
380.681189299594
  0
LINE
 8
Layer0
10
1227.8239477881
20
1012.69541884847
30
380.699065052319
11
1227.64350044312
21
1012.6954188789
31
380.697068203405
  0
LINE
 8
Layer0
10
1220.78328133634
20
1012.69542003564
30
381.477921250012
11
1221.09744042802
21
1012.69541998267
31
382.858436117837
  0
LINE
 8
Layer0
10
1226.04611657768
20
1012.69541914825
30
392.680279917913
11
1227.12209989289
21
1012.69541896682
31
392.649342687566
  0
LINE
 8
Layer0
10
1233.60393847437
20
1012.69541787388
30
387.738572947184
11
1233.60393851757
21
1012.69541787388
31
387.259172102489
  0
LINE
 8
Layer0
10
1234.07789670159
20
1012.69541779396
30
382.076295936325
11
1234.38615188504
21
1012.69541774198
31
380.932159857885
  0
LINE
 8
Layer0
10
1226.77223794257
20
1012.69541902581
30
389.689250578347
11
1225.5205996118
21
1012.69541923686
31
389.689250465576
  0
LINE
 8
Layer0
10
1227.21236995842
20
1012.6954189516
30
384.990112727499
11
1226.93009611421
21
1012.69541899919
31
384.99037643901
  0
LINE
 8
Layer0
10
1223.77282341363
20
1012.69541953156
30
387.36437031235
11
1223.77282347015
21
1012.69541953156
31
386.737004716622
  0
LINE
 8
Layer0
10
1230.67113449401
20
1012.69541836839
30
392.76174251768
11
1230.67138512689
21
1012.69541836835
31
391.502338875853
  0
LINE
 8
Layer0
10
1233.60393863043
20
1012.69541787388
30
386.006544088932
11
1233.66414805717
21
1012.69541786372
31
384.666511339477
  0
LINE
 8
Layer0
10
1220.76600153417
20
1012.69542003856
30
392.135476470358
11
1220.39252438217
21
1012.69542010153
31
393.280120696185
  0
LINE
 8
Layer0
10
1224.27551533876
20
1012.6954194468
30
389.872667150501
11
1224.27279637355
21
1012.69541944726
31
390.309401495733
  0
LINE
 8
Layer0
10
1231.85985507576
20
1012.69541816796
30
392.20044321997
11
1232.11198293108
21
1012.69541812544
31
392.983198021771
  0
LINE
 8
Layer0
10
1233.15016141315
20
1012.69541795039
30
393.152657714466
11
1233.6649701635
21
1012.69541786358
31
393.249844396978
  0
LINE
 8
Layer0
10
1222.97452041795
20
1012.69541966617
30
392.769505654127
11
1223.24876906855
21
1012.69541961992
31
391.837008651484
  0
LINE
 8
Layer0
10
1226.17504100715
20
1012.69541912651
30
388.356199037371
11
1226.77224737057
21
1012.69541902581
31
388.356199091179
  0
LINE
 8
Layer0
10
1221.34187778679
20
1012.69541994145
30
393.250637416087
11
1221.909726025
21
1012.69541984571
31
393.143836041693
  0
LINE
 8
Layer0
10
1229.23559740008
20
1012.69541861045
30
380.67147374368
11
1228.33623573549
21
1012.69541876209
31
380.696593737084
  0
LINE
 8
Layer0
10
1234.33619062779
20
1012.69541775041
30
392.45433873421
11
1234.03836966912
21
1012.69541780062
31
391.338055602042
  0
LINE
 8
Layer0
10
1222.4810563371
20
1012.69541974937
30
393.047141146494
11
1222.97452041795
21
1012.69541966617
31
392.769505654127
  0
LINE
 8
Layer0
10
1227.37695349187
20
1012.69541892385
30
380.69250076389
11
1227.37205063027
21
1012.69541892467
31
380.724099693552
  0
LINE
 8
Layer0
10
1227.37204809347
20
1012.69541892467
30
384.768455890185
11
1227.3504914785
21
1012.69541892831
31
384.867565561254
  0
LINE
 8
Layer0
10
1224.32108567458
20
1012.69541943911
30
389.771916590271
11
1224.27551533876
21
1012.6954194468
31
389.872667150501
  0
LINE
 8
Layer0
10
1221.909726025
20
1012.69541984571
30
393.143836041693
11
1222.4810563371
21
1012.69541974937
31
393.047141146494
  0
LINE
 8
Layer0
10
1233.60393856912
20
1012.69541787388
30
386.686983997531
11
1233.60393861231
21
1012.69541787388
31
386.207583152836
  0
LINE
 8
Layer0
10
1230.6578015741
20
1012.69541837064
30
380.638125688546
11
1230.63829201739
21
1012.69541837393
31
380.598711506799
  0
LINE
 8
Layer0
10
1234.22218269631
20
1012.69541776963
30
380.067256573518
11
1233.70961625593
21
1012.69541785606
31
380.16690344939
  0
LINE
 8
Layer0
10
1221.40685012442
20
1012.6954199305
30
386.743088261965
11
1221.40685006808
21
1012.6954199305
31
387.368412537967
  0
LINE
 8
Layer0
10
1225.9601606233
20
1012.69541916274
30
384.99037635162
11
1225.86203518597
21
1012.69541917928
31
385.010581676184
  0
LINE
 8
Layer0
10
1234.68547304563
20
1012.69541769151
30
393.469306267075
11
1234.33619062779
21
1012.69541775041
31
392.45433873421
  0
LINE
 8
Layer0
10
1231.90016240365
20
1012.69541816116
30
381.244467726948
11
1231.65288560513
21
1012.69541820285
31
382.289862911218
  0
LINE
 8
Layer0
10
1231.2933436847
20
1012.69541826348
30
384.762767845796
11
1231.23777102208
21
1012.69541827285
31
386.056565480603
  0
LINE
 8
Layer0
10
1231.23777096077
20
1012.69541827285
30
386.737005389202
11
1231.23777090922
21
1012.69541827285
31
387.309193494161
  0
LINE
 8
Layer0
10
1228.33623573549
20
1012.69541876209
30
380.696593737084
11
1227.8239477881
21
1012.69541884847
31
380.699065052319
  0
LINE
 8
Layer0
10
1227.29127968504
20
1012.69541893829
30
384.951486664065
11
1227.21236995842
21
1012.6954189516
31
384.990112727499
  0
LINE
 8
Layer0
10
1234.73180495318
20
1012.6954176837
30
379.959369245039
11
1234.22218269631
21
1012.69541776963
31
380.067256573518
  0
LINE
 8
Layer0
10
1226.33462938878
20
1012.6954190996
30
384.99037638536
11
1225.9601606233
21
1012.69541916274
31
384.99037635162
  0
LINE
 8
Layer0
10
1227.37133117804
20
1012.69541892479
30
388.489196872116
11
1227.37204774139
21
1012.69541892467
31
388.676163123681
  0
LINE
 8
Layer0
10
1233.70961625593
20
1012.69541785606
30
380.16690344939
11
1233.19414526083
21
1012.69541794297
31
380.258228284021
  0
LINE
 8
Layer0
10
1222.91890107245
20
1012.69541967554
30
380.576930465008
11
1222.44554544617
21
1012.69541975536
31
380.222953717053
  0
LINE
 8
Layer0
10
1227.21326762543
20
1012.69541895144
30
389.687889558871
11
1226.77223794257
21
1012.69541902581
31
389.689250578347
  0
LINE
 8
Layer0
10
1223.20928985676
20
1012.69541962658
30
381.603345442472
11
1222.91890107245
21
1012.69541967554
31
380.576930465008
  0
LINE
 8
Layer0
10
1231.23777090922
20
1012.69541827285
30
387.309193494161
11
1231.23777086602
21
1012.69541827285
31
387.788594338856
  0
LINE
 8
Layer0
10
1227.37204774139
20
1012.69541892467
30
388.676163123681
11
1227.37204769924
21
1012.69541892467
31
389.144034309675
  0
LINE
 8
Layer0
10
1222.44554544617
20
1012.69541975536
30
380.222953717053
11
1221.86745807587
21
1012.69541985283
31
380.11627808464
  0
LINE
 8
Layer0
10
1227.37205063027
20
1012.69541892467
30
380.724099693552
11
1227.37204837097
21
1012.69541892467
31
381.688545557983
  0
LINE
 8
Layer0
10
1231.23777084791
20
1012.69541827285
30
387.98963340276
11
1231.28838639708
21
1012.69541826431
31
389.084744455598
  0
LINE
 8
Layer0
10
1224.4089505933
20
1012.6954194243
30
389.705556934844
11
1224.32108567458
21
1012.69541943911
31
389.771916590271
  0
LINE
 8
Layer0
10
1226.77224737057
20
1012.69541902581
30
388.356199091179
11
1227.19144029874
21
1012.69541895513
31
388.356199128947
  0
LINE
 8
Layer0
10
1231.28838639708
20
1012.69541826431
30
389.084744455598
11
1231.42458609438
21
1012.69541824135
31
390.191436440402
  0
LINE
 8
Layer0
10
1231.4411639556
20
1012.69541823855
30
383.484914970084
11
1231.2933436847
21
1012.69541826348
31
384.762767845796
  0
LINE
 8
Layer0
10
1225.92515690319
20
1012.69541916864
30
388.355451995185
11
1226.17504100715
21
1012.69541912651
31
388.356199037371
  0
LINE
 8
Layer0
10
1231.42458609438
20
1012.69541824135
30
390.191436440402
11
1231.6228992254
21
1012.69541820791
31
391.249929360687
  0
LINE
 8
Layer0
10
1226.93009611421
20
1012.69541899919
30
384.99037643901
11
1226.33462938878
21
1012.6954190996
31
384.99037638536
  0
LINE
 8
Layer0
10
1230.12853589834
20
1012.69541845988
30
380.621348151207
11
1229.23559740008
21
1012.69541861045
31
380.67147374368
  0
LINE
 8
Layer0
10
1234.17677761681
20
1012.69541777729
30
393.355382258998
11
1234.68547304563
21
1012.69541769151
31
393.469306267075
  0
LINE
 8
Layer0
10
1231.23777102208
20
1012.69541827285
30
386.056565480603
11
1231.23777100396
21
1012.69541827285
31
386.257604544507
  0
LINE
 8
Layer0
10
1227.28548439632
20
1012.69541893927
30
388.369703824273
11
1227.34703657376
21
1012.69541892889
31
388.417418594002
  0
LINE
 8
Layer0
10
1233.6649701635
20
1012.69541786358
30
393.249844396978
11
1234.17677761681
21
1012.69541777729
31
393.355382258998
  0
LINE
 8
Layer0
10
1231.65288560513
20
1012.69541820285
30
382.289862911218
11
1231.4411639556
21
1012.69541823855
31
383.484914970084
  0
LINE
 8
Layer0
10
1225.5205996118
20
1012.69541923686
30
389.689250465576
11
1224.55050339944
21
1012.69541940043
31
389.689250378172
  0
LINE
 8
Layer0
10
1227.64350044312
20
1012.6954188789
30
380.697068203405
11
1227.46329930043
21
1012.69541890929
31
380.694046025878
  0
LINE
 8
Layer0
10
1225.15546876601
20
1012.69541388295
30
427.703720359882
11
1225.08732041859
21
1012.69541395122
31
427.186082269677
  0
LINE
 8
Layer0
10
1225.08732041859
20
1012.69541395122
30
427.186082269677
11
1225.15546876601
21
1012.6954140218
31
426.668444179472
  0
LINE
 8
Layer0
10
1225.15546876601
20
1012.6954140218
30
426.668444179472
11
1225.35526961102
21
1012.69541408987
31
426.186082269677
  0
LINE
 8
Layer0
10
1227.08732041859
20
1012.69541425331
30
425.186082269677
11
1227.6049585088
21
1012.69541425293
31
425.254230617099
  0
LINE
 8
Layer0
10
1228.81937122616
20
1012.69541414851
30
426.186082269677
11
1229.01917207117
21
1012.6954140872
31
426.668444179472
  0
LINE
 8
Layer0
10
1226.08732041859
20
1012.69541373585
30
428.918133077246
11
1225.67310685622
21
1012.69541377147
31
428.60029583205
  0
LINE
 8
Layer0
10
1229.01917207117
20
1012.6954140872
30
426.668444179472
11
1229.08732041859
21
1012.69541401893
31
427.186082269677
  0
LINE
 8
Layer0
10
1227.08732041859
20
1012.69541371684
30
429.186082269677
11
1226.56968232839
21
1012.69541371722
31
429.117933922255
 0
ENDSEC
 0
EOF
