 0
SECTION
 2
ENTITIES
  0
LINE
 8
Layer0
10
1047.33268821175
20
651.395352029649
30
604.736496294946
11
1047.24089929435
21
651.395352012745
31
604.288970359675
  0
LINE
 8
Layer0
10
1043.93339124837
20
651.395352195056
30
605.43370234176
11
1044.13788076947
21
651.395352205747
31
605.84222248062
  0
LINE
 8
Layer0
10
1044.44113527136
20
651.395352103901
30
606.183896850717
11
1044.82248846088
21
651.395352206054
31
606.435440908375
  0
LINE
 8
Layer0
10
1043.84160233097
20
651.395352178152
30
604.986176406489
11
1043.93339124837
21
651.395352195056
31
605.43370234176
  0
LINE
 8
Layer0
10
1045.46230521559
20
651.395352028812
30
603.115793410331
11
1045.01477928032
21
651.395352050589
31
603.207582327728
  0
LINE
 8
Layer0
10
1046.90970577136
20
651.395352104493
30
606.007346350717
11
1047.16124982902
21
651.395352077142
31
605.625993161202
  0
LINE
 8
Layer0
10
1047.16124982902
20
651.395352077142
30
605.625993161202
11
1047.3055212624
21
651.395352051615
31
605.192529873709
  0
LINE
 8
Layer0
10
1047.3055212624
20
651.395352051615
30
605.192529873709
11
1047.33268821175
21
651.395352029649
31
604.736496294946
  0
LINE
 8
Layer0
10
1046.35180208184
20
651.395352001747
30
603.287231793061
11
1045.91833879435
21
651.395352012153
31
603.142960359676
  0
LINE
 8
Layer0
10
1046.73315527136
20
651.3953521039
30
603.538775850718
11
1046.35180208184
21
651.395352001747
31
603.287231793061
  0
LINE
 8
Layer0
10
1045.91833879435
20
651.395352012153
30
603.142960359676
11
1045.46230521559
21
651.395352028812
31
603.115793410331
  0
LINE
 8
Layer0
10
1044.82248846088
20
651.395352206054
30
606.435440908375
11
1045.25595174837
21
651.395352195648
31
606.579712341759
  0
LINE
 8
Layer0
10
1045.01477928032
20
651.395352050589
30
603.207582327728
11
1044.60625914146
21
651.395352075998
31
603.412071848832
  0
LINE
 8
Layer0
10
1047.24089929435
20
651.395352012745
30
604.288970359675
11
1047.03640977325
21
651.395352002054
31
603.880450220816
  0
LINE
 8
Layer0
10
1044.13788076947
20
651.395352205747
30
605.84222248062
11
1044.44113527136
21
651.395352103901
31
606.183896850717
  0
LINE
 8
Layer0
10
1044.26458477136
20
651.395352103308
30
603.715326350718
11
1044.0130407137
21
651.39535213066
31
604.096679540232
  0
LINE
 8
Layer0
10
1045.25595174837
20
651.395352195648
30
606.579712341759
11
1045.71198532713
21
651.39535217899
31
606.606879291104
  0
LINE
 8
Layer0
10
1047.03640977325
20
651.395352002054
30
603.880450220816
11
1046.73315527136
21
651.3953521039
31
603.538775850718
  0
LINE
 8
Layer0
10
1045.71198532713
20
651.39535217899
30
606.606879291104
11
1046.1595112624
21
651.395352157213
31
606.515090373708
  0
LINE
 8
Layer0
10
1046.1595112624
20
651.395352157213
30
606.515090373708
11
1046.56803140126
21
651.395352131804
31
606.310600852604
  0
LINE
 8
Layer0
10
1044.60625914146
20
651.395352075998
30
603.412071848832
11
1044.26458477136
21
651.395352103308
31
603.715326350718
  0
LINE
 8
Layer0
10
1044.0130407137
20
651.39535213066
30
604.096679540232
11
1043.86876928032
21
651.395352156187
31
604.530142827727
  0
LINE
 8
Layer0
10
1043.86876928032
20
651.395352156187
30
604.530142827727
11
1043.84160233097
21
651.395352178152
31
604.986176406489
  0
LINE
 8
Layer0
10
1046.56803140126
20
651.395352131804
30
606.310600852604
11
1046.90970577136
21
651.395352104493
31
606.007346350717
  0
LINE
 8
Layer0
10
1044.01304119666
20
651.395352130658
30
634.996679910822
11
1043.86876971333
21
651.395352156185
31
635.430143077726
  0
LINE
 8
Layer0
10
1115.85179814997
20
651.395352001774
30
603.287232310668
11
1115.41833506228
21
651.39535201218
31
603.142961359646
  0
LINE
 8
Layer0
10
1046.15951082939
20
651.395352157211
30
637.415090623709
11
1046.5680309183
21
651.395352131802
31
637.210601223195
  0
LINE
 8
Layer0
10
1113.34160174517
20
651.395352178179
30
604.986177820674
11
1113.4333909804
21
651.395352195084
31
605.433703341731
  0
LINE
 8
Layer0
10
1115.21198474133
20
651.395352179016
30
606.606877876862
11
1115.65951026239
21
651.39535215724
31
606.515088641628
  0
LINE
 8
Layer0
10
1044.60625962442
20
651.395352075996
30
634.312072478241
11
1044.26458527136
21
651.395352103306
31
634.615326850717
  0
LINE
 8
Layer0
10
1114.5147762803
20
651.395352050615
30
603.207584059748
11
1114.1062566238
21
651.395352076025
31
603.412073780654
  0
LINE
 8
Layer0
10
1083.04113527134
20
651.39535210394
30
606.183896850703
11
1083.42248846086
21
651.395352206094
31
606.435440908361
  0
LINE
 8
Layer0
10
1083.24102527136
20
651.395352073619
30
634.289146850703
11
1082.89223271858
21
651.395352100832
31
634.584184383451
  0
LINE
 8
Layer0
10
1114.32248839271
20
651.395352206082
30
606.435440390708
11
1114.7559514804
21
651.395352195675
31
606.579711341731
  0
LINE
 8
Layer0
10
1085.33315527134
20
651.395352103939
30
603.538775850702
11
1084.95180208183
21
651.395352001786
31
603.287231793045
  0
LINE
 8
Layer0
10
1116.40970377134
20
651.39535210452
30
606.007344350688
11
1116.66124731136
21
651.39535207717
31
605.625991229321
  0
LINE
 8
Layer0
10
1083.20625914144
20
651.395352076038
30
603.412071848817
11
1082.86458477134
21
651.395352103347
31
603.715326350703
  0
LINE
 8
Layer0
10
1084.10387631633
20
651.395352027104
30
634.013322911505
11
1083.6542943386
21
651.39535204847
31
634.094436633547
  0
LINE
 8
Layer0
10
1083.42248846086
20
651.395352206094
30
606.435440908361
11
1083.85595174835
21
651.395352195686
31
606.579712341745
  0
LINE
 8
Layer0
10
1181.21774917266
20
651.395402201746
30
692.323414698917
11
1180.80353539877
21
651.395402203443
31
692.00557772938
  0
LINE
 8
Layer0
10
1184.14960001705
20
651.395402030991
30
691.109000030414
11
1183.94979949305
21
651.39540206094
31
691.591362073174
  0
LINE
 8
Layer0
10
1165.91774917267
20
651.395402123246
30
692.323424881035
11
1165.43538739584
21
651.395402151338
31
692.523226047056
  0
LINE
 8
Layer0
10
1180.80353539877
20
651.395402203443
30
692.00557772938
11
1180.48569787792
21
651.39540219694
31
691.591364378527
  0
LINE
 8
Layer0
10
1180.2858967119
20
651.395402182679
30
691.109002601701
11
1180.21774801999
21
651.395402161634
31
690.591364556847
  0
LINE
 8
Layer0
10
1184.21774801999
20
651.395402004595
30
690.591361894855
11
1184.14960001705
21
651.395402030991
31
691.109000030414
  0
LINE
 8
Layer0
10
1116.80551826238
20
651.395352051641
30
605.192528141628
11
1116.83268479752
21
651.395352029676
31
604.736494880703
  0
LINE
 8
Layer0
10
1113.3687682803
20
651.395352156213
30
604.530144559748
11
1113.34160174517
21
651.395352178179
31
604.986177820674
  0
LINE
 8
Layer0
10
1162.91774801999
20
651.395402161653
30
690.59137606996
11
1162.91771467855
21
651.395393385017
31
640.491376069972
  0
LINE
 8
Layer0
10
1082.86458477134
20
651.395352103347
30
603.715326350703
11
1082.61304071368
21
651.395352130698
31
604.096679540218
  0
LINE
 8
Layer0
10
1163.50353539877
20
651.395402203462
30
692.005589242493
11
1163.18569787792
21
651.395402196959
31
691.59137589164
  0
LINE
 8
Layer0
10
1144.83455515652
20
651.395385666564
30
414.807382902089
11
1144.83454504096
21
651.395384970022
31
399.607382902093
  0
LINE
 8
Layer0
10
1163.18569787792
20
651.395402196959
30
691.59137589164
11
1162.9858967119
21
651.395402182698
31
691.109014114814
  0
LINE
 8
Layer0
10
1166.91774801999
20
651.395402004613
30
690.591373407969
11
1166.84960001706
21
651.395402031009
31
691.109011543528
  0
LINE
 8
Layer0
10
1084.31198532711
20
651.395352179028
30
606.606879291091
11
1084.75951126238
21
651.395352157252
31
606.515090373694
  0
LINE
 8
Layer0
10
1084.55913293574
20
651.395352010971
30
634.051333450691
11
1084.10387631633
21
651.395352027104
31
634.013322911505
  0
LINE
 8
Layer0
10
1116.66124731136
20
651.39535207717
30
605.625991229321
11
1116.80551826238
21
651.395352051641
31
605.192528141628
  0
LINE
 8
Layer0
10
1082.53339124835
20
651.395352195094
30
605.433702341745
11
1082.73788076946
21
651.395352205786
31
605.842222480605
  0
LINE
 8
Layer0
10
1046.5680309183
20
651.395352131802
30
637.210601223195
11
1046.90970527136
21
651.395352104492
31
636.907346850718
  0
LINE
 8
Layer0
10
902.305409762389
20
651.395374519747
30
568.580982706402
11
902.105608596367
21
651.395374505485
31
568.098620929574
  0
LINE
 8
Layer0
10
1083.99705635333
20
651.395389872369
30
418.937929526846
11
1076.99573219339
21
651.395389307925
31
406.421682680703
  0
LINE
 8
Layer0
10
1116.55933827136
20
651.395352103925
30
634.815216850688
11
1116.2643006875
21
651.39535199837
31
634.466423909681
  0
LINE
 8
Layer0
10
1116.64260647639
20
651.395352079604
30
636.563232088923
11
1116.79715123203
21
651.395352053837
31
636.133325575727
  0
LINE
 8
Layer0
10
905.451674407988
20
651.395374415206
30
568.995194174944
11
905.037461057136
21
651.395374446033
31
569.313031695796
  0
LINE
 8
Layer0
10
1013.36458677136
20
651.395352103337
30
603.715328350716
11
1013.11304323134
21
651.395352130688
31
604.096681472082
  0
LINE
 8
Layer0
10
1113.37714231068
20
651.395352154014
30
635.389348125649
11
1113.33913153312
21
651.395352176369
31
635.844605055717
  0
LINE
 8
Layer0
10
1113.33913153312
20
651.395352176369
30
635.844605055717
11
1113.42024510531
21
651.395352193786
31
636.294187395219
  0
LINE
 8
Layer0
10
902.03745990446
20
651.395374484441
30
567.580982884721
11
902.105607907393
21
651.395374458044
31
567.063344749165
  0
LINE
 8
Layer0
10
1127.27074506322
20
651.395389245915
30
406.504669589329
11
1120.26942090328
21
651.395388681471
31
393.988422743186
  0
LINE
 8
Layer0
10
906.037459904459
20
651.395374327401
30
567.580980222729
11
905.969311901523
21
651.395374353798
31
568.098618358288
  0
LINE
 8
Layer0
10
902.305408431393
20
651.395374428097
30
566.580982706402
11
902.623245400929
21
651.395374396638
31
566.16676893251
  0
LINE
 8
Layer0
10
1229.45170389118
20
651.395421094705
30
621.533566282177
11
1229.76954141204
21
651.395421101208
31
621.947779633029
  0
LINE
 8
Layer0
10
1226.03749126996
20
651.395421293554
30
622.9477821167
11
1226.1056392729
21
651.395421267157
31
622.430143981142
  0
LINE
 8
Layer0
10
1229.45165730497
20
651.395369912735
30
543.295497529701
11
1229.03744395411
21
651.395369943562
31
543.613335050554
  0
LINE
 8
Layer0
10
992.769387111913
20
651.395377362478
30
384.947930024505
11
992.969188277933
21
651.395377376738
31
385.430291801333
  0
LINE
 8
Layer0
10
1142.45176681515
20
651.395388620703
30
711.362064022764
11
1142.0375534643
21
651.39538865153
31
711.679901543618
  0
LINE
 8
Layer0
10
905.03739577375
20
651.395357709266
30
471.215975560626
11
905.451609547644
21
651.39535770757
31
471.533812530163
  0
LINE
 8
Layer0
10
1227.03749242264
20
651.395421333665
30
624.67983225877
11
1226.62327864875
21
651.395421335362
31
624.361995289233
  0
LINE
 8
Layer0
10
1226.3054397969
20
651.395421237209
30
621.947781938381
11
1226.62327676644
21
651.39542120575
31
621.533568164489
  0
LINE
 8
Layer0
10
1012.94160609874
20
651.395352178178
30
635.886177967147
11
1013.03339523042
21
651.395352195082
31
636.333703408745
  0
LINE
 8
Layer0
10
904.555033730989
20
651.395357719048
30
471.016175036627
11
905.03739577375
21
651.395357709266
31
471.215975560626
  0
LINE
 8
Layer0
10
1015.83315527136
20
651.395352103926
30
634.438776850716
11
1015.4518022794
21
651.395352001773
31
634.187233293659
  0
LINE
 8
Layer0
10
1013.36458727136
20
651.395352103334
30
634.615328850715
11
1013.1130437143
21
651.395352130686
31
634.996681842672
  0
LINE
 8
Layer0
10
1014.35595523042
20
651.395352195674
30
637.479711408745
11
1014.81198838779
21
651.395352179014
31
637.506878023337
  0
LINE
 8
Layer0
10
1229.9692947985
20
651.395369851327
30
542.398921713046
11
1229.7694942745
21
651.395369881275
31
542.881283755808
  0
LINE
 8
Layer0
10
906.037396926425
20
651.395357749378
30
472.948025702695
11
905.969248923491
21
651.395357775775
31
473.465663838253
  0
LINE
 8
Layer0
10
902.623228297979
20
651.395369894542
30
540.46728790859
11
903.037441648833
21
651.395369863715
31
540.149450387736
  0
LINE
 8
Layer0
10
905.037441648833
20
651.395369785194
30
540.14944905674
11
905.451655422726
21
651.395369783499
31
540.467286026278
  0
LINE
 8
Layer0
10
904.555079606069
20
651.395369794976
30
539.949648532743
11
905.037441648833
21
651.395369785194
31
540.14944905674
  0
LINE
 8
Layer0
10
905.969348748175
20
651.395384053127
30
623.4656635587
11
905.769548224177
21
651.395384083076
31
623.948025601461
  0
LINE
 8
Layer0
10
1229.03744395411
20
651.395369943562
30
543.613335050554
11
1228.55508217728
21
651.395369971654
31
543.813136216575
  0
LINE
 8
Layer0
10
1229.45165542265
20
651.395369783121
30
540.467070404955
11
1229.76949294351
21
651.395369789625
31
540.881283755808
  0
LINE
 8
Layer0
10
902.105590804442
20
651.395369955948
30
541.363863725245
11
902.305391328442
21
651.395369926001
31
540.881501682483
  0
LINE
 8
Layer0
10
904.037441470513
20
651.395369812176
30
539.881500529807
11
904.555079606069
21
651.395369794976
31
539.949648532743
  0
LINE
 8
Layer0
10
1229.76949294351
20
651.395369789625
30
540.881283755808
11
1229.96929410953
21
651.395369803884
31
541.363645532636
  0
LINE
 8
Layer0
10
1228.03746123538
20
651.395374497195
30
569.580765932402
11
1227.51982309983
21
651.395374514396
31
569.512617929467
  0
LINE
 8
Layer0
10
1226.10560790732
20
651.395374457668
30
567.063129127842
11
1226.30540843132
21
651.39537442772
31
566.580767085079
  0
LINE
 8
Layer0
10
1143.03755231163
20
651.395388532897
30
709.947850070552
11
1142.96940430869
21
651.395388559294
31
710.46548820611
  0
LINE
 8
Layer0
10
1142.7696024537
20
651.395388497594
30
708.947850248872
11
1142.96940361971
21
651.395388511854
31
709.4302120257
  0
LINE
 8
Layer0
10
991.555191967022
20
651.395388679801
30
711.879802534323
11
991.037553922171
21
651.395388703247
31
711.947951226232
  0
LINE
 8
Layer0
10
903.519803425659
20
651.395369835621
30
539.949649221717
11
904.037441470513
21
651.395369812176
31
539.881500529807
  0
LINE
 8
Layer0
10
1228.03744147044
20
651.395369811799
30
539.881284908485
11
1228.555079606
21
651.395369794601
31
539.94943291142
  0
LINE
 8
Layer0
10
1227.51980342559
20
651.395369835245
30
539.949433600394
11
1228.03744147044
21
651.395369811799
31
539.881284908485
  0
LINE
 8
Layer0
10
1226.30540976232
20
651.395374519371
30
568.580767085079
11
1226.1056085963
21
651.39537450511
31
568.098405308251
  0
LINE
 8
Layer0
10
1113.42024510531
20
651.395352193786
30
636.294187395219
11
1113.61495527136
21
651.395352103926
31
636.707456850689
  0
LINE
 8
Layer0
10
1115.17041497638
20
651.39535218076
30
637.509352088925
11
1115.61999731589
21
651.395352159392
31
637.428238516734
  0
LINE
 8
Layer0
10
904.555099280306
20
651.395374474126
30
569.512832861816
11
904.037461235455
21
651.395374497571
31
569.580981553725
  0
LINE
 8
Layer0
10
904.55509670902
20
651.395374297072
30
565.649129556661
11
905.037458751782
21
651.39537428729
31
565.848930080659
  0
LINE
 8
Layer0
10
905.969311901523
20
651.395374353798
30
568.098618358288
11
905.769511377525
21
651.395374383746
31
568.580980401049
  0
LINE
 8
Layer0
10
903.037461057135
20
651.395374524553
30
569.313033026792
11
902.623247283243
21
651.39537452625
31
568.995196057256
  0
LINE
 8
Layer0
10
1184.21774801999
20
651.395402004595
30
690.591361894855
11
1184.21771467854
21
651.395393227959
31
640.491361894867
  0
LINE
 8
Layer0
10
1113.79223383035
20
651.395352100822
30
634.584182934547
11
1113.53168706633
21
651.395352128246
31
634.959441612453
  0
LINE
 8
Layer0
10
1116.79715123203
20
651.395352053837
30
636.133325575727
11
1116.83516200959
21
651.395352031483
31
635.678068645659
  0
LINE
 8
Layer0
10
904.037458573463
20
651.395374314271
30
565.580981553726
11
904.55509670902
21
651.395374297072
31
565.649129556661
  0
LINE
 8
Layer0
10
1114.28525153312
20
651.395352206687
30
637.316796555717
11
1114.71515804632
21
651.395352196892
31
637.47134131136
  0
LINE
 8
Layer0
10
1113.90999285522
20
651.39535220948
30
637.056249791695
11
1114.28525153312
21
651.395352206687
31
637.316796555717
  0
LINE
 8
Layer0
10
903.519820528611
20
651.395374337717
30
565.649130245636
11
904.037458573463
21
651.395374314271
31
565.580981553726
  0
LINE
 8
Layer0
10
903.519823099896
20
651.395374514771
30
569.51283355079
11
903.037461057135
21
651.395374524553
31
569.313033026792
  0
LINE
 8
Layer0
10
905.769511377525
20
651.395374383746
30
568.580980401049
11
905.451674407988
21
651.395374415206
31
568.995194174944
  0
LINE
 8
Layer0
10
1113.61495527136
20
651.395352103926
30
636.707456850689
11
1113.90999285522
21
651.39535220948
31
637.056249791695
  0
LINE
 8
Layer0
10
1120.26943754697
20
651.39538982763
30
418.997802863756
11
1127.27074506322
21
651.395389245915
31
406.504669589329
  0
LINE
 8
Layer0
10
1013.70626062382
20
651.395352076026
30
603.412073780682
11
1013.36458677136
21
651.395352103337
31
603.715328350716
  0
LINE
 8
Layer0
10
1016.3408995623
20
651.395352012774
30
604.288969359674
11
1016.1364098414
21
651.395352002082
31
603.880449703176
  0
LINE
 8
Layer0
10
1116.38205971236
20
651.395352107031
30
636.938490766829
11
1116.64260647639
21
651.395352079604
31
636.563232088923
  0
LINE
 8
Layer0
10
1114.71515804632
20
651.395352196892
30
637.47134131136
11
1115.17041497638
21
651.39535218076
31
637.509352088925
  0
LINE
 8
Layer0
10
1116.83516200959
20
651.395352031483
30
635.678068645659
11
1116.7540484374
21
651.395352014066
31
635.228486306157
  0
LINE
 8
Layer0
10
1113.53168706633
20
651.395352128246
30
634.959441612453
11
1113.37714231068
21
651.395352154014
31
635.389348125649
  0
LINE
 8
Layer0
10
1166.91774801999
20
651.395402004613
30
690.591373407969
11
1166.91771467854
21
651.395393227977
31
640.49137340798
  0
LINE
 8
Layer0
10
902.623247283243
20
651.39537452625
30
568.995196057256
11
902.305409762389
21
651.395374519747
31
568.580982706402
  0
LINE
 8
Layer0
10
905.96931121255
20
651.395374306356
30
567.063342177878
11
906.037459904459
21
651.395374327401
31
567.580980222729
  0
LINE
 8
Layer0
10
1015.6680339189
20
651.395352131832
30
606.310598920751
11
1016.00970777136
21
651.395352104521
31
606.007344350715
  0
LINE
 8
Layer0
10
1016.4055222624
20
651.395352051643
30
605.192528141656
11
1016.43268879753
21
651.395352029678
31
604.73649488073
  0
LINE
 8
Layer0
10
1115.61999731589
20
651.395352159392
30
637.428238516734
11
1116.03326677136
21
651.395352134244
31
637.233528350689
  0
LINE
 8
Layer0
10
1083.99705635333
20
651.395389872369
30
418.937929526846
11
1120.26943754697
21
651.39538982763
31
418.997802863756
  0
LINE
 8
Layer0
10
1115.00387856633
20
651.395352027092
30
634.013321612453
11
1114.55429622682
21
651.39535204846
31
634.094435184643
  0
LINE
 8
Layer0
10
905.451672525676
20
651.395374285593
30
566.166767050197
11
905.769510046529
21
651.395374292096
31
566.580980401049
  0
LINE
 8
Layer0
10
1116.2643006875
20
651.39535199837
30
634.466423909681
11
1115.88904200959
21
651.395352001164
31
634.205877145659
  0
LINE
 8
Layer0
10
1229.45170577349
20
651.395421224318
30
624.361993406921
11
1229.03749242264
21
651.395421255146
31
624.679830927774
  0
LINE
 8
Layer0
10
1229.96924344234
20
651.395394885557
30
473.465417869819
11
1229.76944291835
21
651.395394915506
31
473.947779912581
  0
LINE
 8
Layer0
10
904.037495420116
20
651.395384013601
30
620.948026754138
11
904.55513355567
21
651.395383996401
31
621.016174757073
  0
LINE
 8
Layer0
10
905.451657305036
20
651.395369913111
30
543.295713151024
11
905.037443954185
21
651.395369943938
31
543.613550671877
  0
LINE
 8
Layer0
10
1140.51991550706
20
651.395388720268
30
711.879703398613
11
1140.0375534643
21
651.395388730049
31
711.679902874615
  0
LINE
 8
Layer0
10
991.03733830084
20
651.395377567956
30
387.94793117718
11
990.519700165282
21
651.395377585153
31
387.879783174246
  0
LINE
 8
Layer0
10
1140.03755115895
20
651.395388571307
30
708.215801259477
11
1140.51991293578
21
651.395388543213
31
708.016000093458
  0
LINE
 8
Layer0
10
906.037442801507
20
651.395369825306
30
541.881499198811
11
905.969294798572
21
651.395369851703
31
542.399137334369
  0
LINE
 8
Layer0
10
1226.10553944821
20
651.395394989804
30
472.430144260696
11
1226.30533997221
21
651.395394959856
31
471.947782217934
  0
LINE
 8
Layer0
10
1142.0375534643
20
651.39538865153
30
711.679901543618
11
1141.55519168747
21
651.395388679622
31
711.87970270964
  0
LINE
 8
Layer0
10
989.037336969845
20
651.395377554824
30
385.947932508176
11
989.105484972781
21
651.395377528429
31
385.430294372619
  0
LINE
 8
Layer0
10
1230.03744280144
20
651.39536982493
30
541.881283577488
11
1229.9692947985
21
651.395369851327
31
542.398921713046
  0
LINE
 8
Layer0
10
1229.76954141204
20
651.395421101208
30
621.947779633029
11
1229.96934257805
21
651.395421115468
31
622.430141409856
  0
LINE
 8
Layer0
10
902.037396926428
20
651.395357906417
30
472.948028364687
11
902.10554492936
21
651.39535788002
31
472.43039022913
  0
LINE
 8
Layer0
10
1226.03745990439
20
651.395374484065
30
567.580767263399
11
1226.10560790732
21
651.395374457668
31
567.063129127842
  0
LINE
 8
Layer0
10
1141.55497349485
20
651.395377367275
30
384.015979355431
11
1142.03733553762
21
651.395377357495
31
384.21577987943
  0
LINE
 8
Layer0
10
992.969188277933
20
651.395377376738
30
385.430291801333
11
993.037336969843
21
651.395377397784
31
385.947929846184
  0
LINE
 8
Layer0
10
1141.03755098063
20
651.395388519768
30
707.947851401548
11
1141.55518911619
21
651.395388502567
31
708.015999404483
  0
LINE
 8
Layer0
10
1142.45176493284
20
651.395388491089
30
708.533636898019
11
1142.7696024537
21
651.395388497594
31
708.947850248872
  0
LINE
 8
Layer0
10
1226.10559080437
20
651.395369955573
30
541.363648103923
11
1226.30539132837
21
651.395369925625
31
540.88128606116
  0
LINE
 8
Layer0
10
1228.55508217728
20
651.395369971654
30
543.813136216575
11
1228.03744413243
21
651.3953699951
31
543.881284908483
  0
LINE
 8
Layer0
10
1226.62327864875
20
651.395421335362
30
624.361995289233
11
1226.30544112789
21
651.39542132886
31
623.94778193838
  0
LINE
 8
Layer0
10
1229.7694942745
20
651.395369881275
30
542.881283755808
11
1229.45165730497
21
651.395369912735
31
543.295497529701
  0
LINE
 8
Layer0
10
904.037498082108
20
651.3953841969
30
624.948026754138
11
903.519859946552
21
651.3953842141
31
624.879878751203
  0
LINE
 8
Layer0
10
1226.62322829791
20
651.395369894166
30
540.467072287267
11
1227.03744164876
21
651.395369863339
31
540.149234766413
  0
LINE
 8
Layer0
10
1228.55509670895
20
651.395374296696
30
565.648913935339
11
1229.03745875171
21
651.395374286914
31
565.848714459337
  0
LINE
 8
Layer0
10
1230.03745990439
20
651.395374327025
30
567.580764601406
11
1229.96931190145
21
651.395374353422
31
568.098402736965
  0
LINE
 8
Layer0
10
1014.81198838779
20
651.395352179014
30
637.506878023337
11
1015.25951382939
21
651.395352157238
31
637.415088891656
  0
LINE
 8
Layer0
10
1013.54113927136
20
651.395352103928
30
637.083896850716
11
1013.92249226332
21
651.395352206081
31
637.335440407773
  0
LINE
 8
Layer0
10
902.037442801509
20
651.395369982346
30
541.881501860802
11
902.105590804442
21
651.395369955948
31
541.363863725245
  0
LINE
 8
Layer0
10
903.037497903786
20
651.395384223883
30
624.680078227204
11
902.623284129894
21
651.39538422558
31
624.362241257667
  0
LINE
 8
Layer0
10
992.037553743851
20
651.395388651707
30
711.680001368302
11
991.555191967022
21
651.395388679801
31
711.879802534323
  0
LINE
 8
Layer0
10
1012.96877271333
20
651.395352156214
30
635.430144809775
11
1012.94160609874
21
651.395352178178
31
635.886177967147
  0
LINE
 8
Layer0
10
1229.45160594881
20
651.395394946964
30
474.361993686474
11
1229.03739259796
21
651.395394977792
31
474.679831207328
  0
LINE
 8
Layer0
10
905.037398079105
20
651.39535786801
30
474.680077175762
11
904.555036302274
21
651.395357896102
31
474.879878341782
  0
LINE
 8
Layer0
10
1227.51982309983
20
651.395374514396
30
569.512617929467
11
1227.03746105706
21
651.395374524177
31
569.312817405469
  0
LINE
 8
Layer0
10
1229.76951137745
20
651.39537438337
30
568.580764779727
11
1229.45167440792
21
651.39537441483
31
568.994978553621
  0
LINE
 8
Layer0
10
1229.96931190145
20
651.395374353422
30
568.098402736965
11
1229.76951137745
21
651.39537438337
31
568.580764779727
  0
LINE
 8
Layer0
10
1139.62333780809
20
651.395388602134
30
708.533638780331
11
1140.03755115895
21
651.395388571307
31
708.215801259477
  0
LINE
 8
Layer0
10
1226.62323018022
20
651.395370023779
30
543.295499412013
11
1226.30539265937
21
651.395370017276
31
542.88128606116
  0
LINE
 8
Layer0
10
1142.76960378469
20
651.395388589244
30
710.947850248872
11
1142.45176681515
21
651.395388620703
31
711.362064022764
  0
LINE
 8
Layer0
10
1141.55518911619
20
651.395388502567
30
708.015999404483
11
1142.03755115895
21
651.395388492787
31
708.215799928481
  0
LINE
 8
Layer0
10
991.555189395736
20
651.395388502747
30
708.016099229168
11
992.037551438499
21
651.395388492963
31
708.215899753165
  0
LINE
 8
Layer0
10
993.037552591175
20
651.395388533075
30
709.947949895236
11
992.969404588238
21
651.395388559472
31
710.465588030794
  0
LINE
 8
Layer0
10
989.623339969957
20
651.395388731924
30
711.362165729761
11
989.305502449103
21
651.395388725422
31
710.947952378908
  0
LINE
 8
Layer0
10
1141.55519168747
20
651.395388679622
30
711.87970270964
11
1141.03755364262
21
651.395388703069
31
711.947851401548
  0
LINE
 8
Layer0
10
989.105701283083
20
651.395388711162
30
710.46559060208
11
989.037552591177
21
651.395388690116
31
709.947952557228
  0
LINE
 8
Layer0
10
992.769602733245
20
651.395388497771
30
708.947950073556
11
992.969403899265
21
651.39538851203
31
709.430311850384
  0
LINE
 8
Layer0
10
992.451767094706
20
651.395388620881
30
711.362163847449
11
992.037553743851
21
651.395388651707
31
711.680001368302
  0
LINE
 8
Layer0
10
905.451655422726
20
651.395369783499
30
540.467286026278
11
905.769492943578
21
651.395369790001
31
540.881499377131
  0
LINE
 8
Layer0
10
1226.30533997221
20
651.395394959856
30
471.947782217934
11
1226.62317694175
21
651.395394928396
31
471.533568444041
  0
LINE
 8
Layer0
10
1226.30544112789
20
651.39542132886
30
623.94778193838
11
1226.10563996187
21
651.395421314598
31
623.465420161554
  0
LINE
 8
Layer0
10
1142.96918868736
20
651.395377424003
30
386.465468157059
11
1142.76938816336
21
651.395377453952
31
386.94783019982
  0
LINE
 8
Layer0
10
992.45154959106
20
651.395377355976
30
384.533716673652
11
992.769387111913
21
651.395377362478
31
384.947930024505
  0
LINE
 8
Layer0
10
1227.5198544654
20
651.395421323885
30
624.879632782769
11
1227.03749242264
21
651.395421333665
31
624.67983225877
  0
LINE
 8
Layer0
10
903.519857375262
20
651.395384037047
30
621.016175446047
11
904.037495420116
21
651.395384013601
31
620.948026754138
  0
LINE
 8
Layer0
10
1227.51980599687
20
651.3953700123
30
543.813136905549
11
1227.03744395411
21
651.395370022081
31
543.613336381551
  0
LINE
 8
Layer0
10
905.769494274574
20
651.39536988165
30
542.88149937713
11
905.451657305036
21
651.395369913111
31
543.295713151024
  0
LINE
 8
Layer0
10
1084.95180208183
20
651.395352001786
30
603.287231793045
11
1084.51833879433
21
651.395352012193
31
603.14296035966
  0
LINE
 8
Layer0
10
1116.23315127134
20
651.395352103928
30
603.538775850689
11
1115.85179814997
21
651.395352001774
31
603.287232310668
  0
LINE
 8
Layer0
10
1082.71495527136
20
651.395352103937
30
636.707456850703
11
1083.0099928041
21
651.395352209491
31
637.056249403481
  0
LINE
 8
Layer0
10
1183.21774917266
20
651.395402123227
30
692.323413367921
11
1182.73538739583
21
651.395402151319
31
692.523214533942
  0
LINE
 8
Layer0
10
1114.1062566238
20
651.395352076025
30
603.412073780654
11
1113.76458277134
21
651.395352103336
31
603.715328350688
  0
LINE
 8
Layer0
10
1085.50970577134
20
651.395352104532
30
606.007346350702
11
1085.761249829
21
651.395352077181
31
605.625993161187
  0
LINE
 8
Layer0
10
1045.25595149837
20
651.395352195645
30
637.479712408747
11
1045.71198497358
21
651.395352178987
31
637.506879437551
  0
LINE
 8
Layer0
10
1047.24089904435
20
651.395352012744
30
635.188971292689
11
1047.03640964383
21
651.395352002051
31
634.780451203779
  0
LINE
 8
Layer0
10
1164.91774935099
20
651.395402174783
30
692.591374738964
11
1164.40011121543
21
651.395402191984
31
692.523226736029
  0
LINE
 8
Layer0
10
1116.53640584138
20
651.395352002081
30
603.880449703148
11
1116.23315127134
21
651.395352103928
31
603.538775850689
  0
LINE
 8
Layer0
10
1044.82248833146
20
651.395352206052
30
637.335440925412
11
1045.25595149837
21
651.395352195645
31
637.479712408747
  0
LINE
 8
Layer0
10
1163.91774917267
20
651.395402201764
30
692.323426212031
11
1163.50353539877
21
651.395402203462
31
692.005589242493
  0
LINE
 8
Layer0
10
1180.21774801999
20
651.395402161634
30
690.591364556847
11
1180.21771467854
21
651.395393384999
31
640.491364556858
  0
LINE
 8
Layer0
10
1180.48569787792
20
651.39540219694
30
691.591364378527
11
1180.2858967119
21
651.395402182679
31
691.109002601701
  0
LINE
 8
Layer0
10
1116.83268479752
20
651.395352029676
30
604.736494880703
11
1116.74089556228
21
651.395352012773
31
604.288969359646
  0
LINE
 8
Layer0
10
1082.61304071368
20
651.395352130698
30
604.096679540218
11
1082.4687692803
21
651.395352156227
31
604.530142827712
  0
LINE
 8
Layer0
10
1083.38525133216
20
651.395352206698
30
637.316795805732
11
1083.81515760698
21
651.395352196902
31
637.471340250714
  0
LINE
 8
Layer0
10
1113.51303923132
20
651.395352130688
30
604.096681472055
11
1113.3687682803
21
651.395352156213
31
604.530144559748
  0
LINE
 8
Layer0
10
902.623184305211
20
651.395357948227
30
474.362241537221
11
902.305346784357
21
651.395357941724
31
473.948028186368
  0
LINE
 8
Layer0
10
989.623124348626
20
651.395377596633
30
387.36214568071
11
989.305286827771
21
651.395377590131
31
386.947932329856
  0
LINE
 8
Layer0
10
902.623230180292
20
651.395370024155
30
543.295715033336
11
902.305392659437
21
651.395370017652
31
542.881501682483
  0
LINE
 8
Layer0
10
902.037496751111
20
651.395384183771
30
622.948028085134
11
902.105644754046
21
651.395384157373
31
622.430389949576
  0
LINE
 8
Layer0
10
905.769492943578
20
651.395369790001
30
540.881499377131
11
905.9692941096
21
651.39536980426
31
541.363861153959
  0
LINE
 8
Layer0
10
903.519805996947
20
651.395370012676
30
543.813352526871
11
903.037443954184
21
651.395370022458
31
543.613552002873
  0
LINE
 8
Layer0
10
902.305445278045
20
651.395384127427
30
621.948027906815
11
902.623282247581
21
651.395384095967
31
621.533814132922
  0
LINE
 8
Layer0
10
1226.1056392729
20
651.395421267157
30
622.430143981142
11
1226.3054397969
21
651.395421237209
31
621.947781938381
  0
LINE
 8
Layer0
10
1229.96934257805
20
651.395421115468
30
622.430141409856
11
1230.03749126996
21
651.395421136514
31
622.947779454708
  0
LINE
 8
Layer0
10
1229.03749011729
20
651.395421096403
30
621.215729312639
11
1229.45170389118
21
651.395421094705
31
621.533566282177
  0
LINE
 8
Layer0
10
991.037335638846
20
651.395377384654
30
383.947931177181
11
991.554973774404
21
651.395377367455
31
384.016079180115
  0
LINE
 8
Layer0
10
904.555136126957
20
651.395384173456
30
624.879878062228
11
904.037498082108
21
651.3953841969
31
624.948026754138
  0
LINE
 8
Layer0
10
992.451765212392
20
651.395388491268
30
708.533736722703
11
992.769602733245
21
651.395388497771
31
708.947950073556
  0
LINE
 8
Layer0
10
903.519859946552
20
651.3953842141
30
624.879878751203
11
903.037497903786
21
651.395384223883
31
624.680078227204
  0
LINE
 8
Layer0
10
992.451551473374
20
651.39537748559
30
387.362143798397
11
992.03733812252
21
651.395377516415
31
387.679981319251
  0
LINE
 8
Layer0
10
989.105485661752
20
651.39537757587
30
386.465570553029
11
989.037336969845
21
651.395377554824
31
385.947932508176
  0
LINE
 8
Layer0
10
905.769448399492
20
651.395357805722
30
473.948025881016
11
905.451611429954
21
651.395357837183
31
474.362239654909
  0
LINE
 8
Layer0
10
902.305446609039
20
651.395384219076
30
623.948027906814
11
902.105645443019
21
651.395384204815
31
623.465666129987
  0
LINE
 8
Layer0
10
1228.03739011429
20
651.39539484603
30
470.947781065259
11
1228.55502824984
21
651.395394828831
31
471.015929068193
  0
LINE
 8
Layer0
10
990.037551438498
20
651.395388571485
30
708.215901084161
11
990.519913215327
21
651.395388543391
31
708.016099918141
  0
LINE
 8
Layer0
10
906.03749675111
20
651.395384026732
30
622.948025423143
11
905.969348748175
21
651.395384053127
31
623.4656635587
  0
LINE
 8
Layer0
10
1226.30534130321
20
651.395395051508
30
473.947782217934
11
1226.10554013719
21
651.395395037246
31
473.465420441106
  0
LINE
 8
Layer0
10
904.555036302274
20
651.395357896102
30
474.879878341782
11
904.037398257421
21
651.395357919548
31
474.948027033691
  0
LINE
 8
Layer0
10
1227.51975464072
20
651.39539504653
30
474.879633062322
11
1227.03739259796
21
651.39539505631
31
474.679832538324
  0
LINE
 8
Layer0
10
990.519913215327
20
651.395388543391
30
708.016099918141
11
991.037551260178
21
651.395388519946
31
707.947951226232
  0
LINE
 8
Layer0
10
1229.4516040665
20
651.395394817351
30
471.533566561729
11
1229.76944158735
21
651.395394823855
31
471.947779912582
  0
LINE
 8
Layer0
10
1227.51975206943
20
651.395394869476
30
471.015929757168
11
1228.03739011429
21
651.39539484603
31
470.947781065259
  0
LINE
 8
Layer0
10
902.105545618337
20
651.395357927462
30
473.46566640954
11
902.037396926428
21
651.395357906417
31
472.948028364687
  0
LINE
 8
Layer0
10
1228.55512807452
20
651.395421106185
30
621.015928788639
11
1229.03749011729
21
651.395421096403
31
621.215729312639
  0
LINE
 8
Layer0
10
991.037553922171
20
651.395388703247
30
711.947951226232
11
990.519915786614
21
651.395388720446
31
711.879803223297
  0
LINE
 8
Layer0
10
904.037398257421
20
651.395357919548
30
474.948027033691
11
903.519760121864
21
651.395357936748
31
474.879879030756
  0
LINE
 8
Layer0
10
904.555082177355
20
651.39536997203
30
543.813351837897
11
904.037444132504
21
651.395369995475
31
543.881500529806
  0
LINE
 8
Layer0
10
1229.03749242264
20
651.395421255146
30
624.679830927774
11
1228.55513064581
21
651.395421283239
31
624.879632093796
  0
LINE
 8
Layer0
10
1226.62317882406
20
651.39539505801
30
474.361995568787
11
1226.30534130321
21
651.395395051508
31
473.947782217934
  0
LINE
 8
Layer0
10
1016.3408993123
20
651.395352012772
30
635.188970292687
11
1016.13640971198
21
651.395352002079
31
634.780450686139
  0
LINE
 8
Layer0
10
905.451609547644
20
651.39535770757
30
471.533812530163
11
905.769447068497
21
651.395357714073
31
471.948025881016
  0
LINE
 8
Layer0
10
1228.55513064581
20
651.395421283239
30
624.879632093796
11
1228.03749260096
21
651.395421306684
31
624.947780785705
  0
LINE
 8
Layer0
10
989.305285496777
20
651.39537749848
30
384.947932329858
11
989.623122466312
21
651.395377467019
31
384.533718555965
  0
LINE
 8
Layer0
10
991.554973774404
20
651.395377367455
30
384.016079180115
11
992.037335817167
21
651.395377357671
31
384.215879704114
  0
LINE
 8
Layer0
10
905.451709372328
20
651.395383984923
30
621.53381225061
11
905.769546893181
21
651.395383991425
31
621.948025601462
  0
LINE
 8
Layer0
10
989.623122466312
20
651.395377467019
30
384.533718555965
11
990.037335817166
21
651.395377436194
31
384.215881035109
  0
LINE
 8
Layer0
10
1229.03739259796
20
651.395394977792
30
474.679831207328
11
1228.55503082113
21
651.395395005886
31
474.879632373347
  0
LINE
 8
Layer0
10
992.03733812252
20
651.395377516415
30
387.679981319251
11
991.55497634569
21
651.395377544509
31
387.879782485271
  0
LINE
 8
Layer0
10
905.769546893181
20
651.395383991425
30
621.948025601462
11
905.969348059202
21
651.395384005686
31
622.43038737829
  0
LINE
 8
Layer0
10
1228.55502824984
20
651.395394828831
30
471.015929068193
11
1229.0373902926
21
651.395394819049
31
471.215729592191
  0
LINE
 8
Layer0
10
905.969294798572
20
651.395369851703
30
542.399137334369
11
905.769494274574
21
651.39536988165
31
542.88149937713
  0
LINE
 8
Layer0
10
903.037441648833
20
651.395369863715
30
540.149450387736
11
903.519803425659
21
651.395369835621
31
539.949649221717
  0
LINE
 8
Layer0
10
904.55513355567
20
651.395383996401
30
621.016174757073
11
905.037495598437
21
651.395383986619
31
621.215975281073
  0
LINE
 8
Layer0
10
1142.03733553762
20
651.395377357495
30
384.21577987943
11
1142.45154931151
21
651.395377355798
31
384.533616848968
  0
LINE
 8
Layer0
10
905.969248923491
20
651.395357775775
30
473.465663838253
11
905.769448399492
21
651.395357805722
31
473.948025881016
  0
LINE
 8
Layer0
10
1226.10563996187
20
651.395421314598
30
623.465420161554
11
1226.03749126996
21
651.395421293554
31
622.9477821167
  0
LINE
 8
Layer0
10
990.037335817166
20
651.395377436194
30
384.215881035109
11
990.519697593995
21
651.3953774081
31
384.01607986909
  0
LINE
 8
Layer0
10
905.769548224177
20
651.395384083076
30
623.948025601461
11
905.451711254637
21
651.395384114536
31
624.362239375355
  0
LINE
 8
Layer0
10
903.037495598436
20
651.39538406514
30
621.215976612067
11
903.519857375262
21
651.395384037047
31
621.016175446047
  0
LINE
 8
Layer0
10
903.037395773752
20
651.395357787787
30
471.215976891621
11
903.519757550578
21
651.395357759693
31
471.016175725602
  0
LINE
 8
Layer0
10
1226.62317694175
20
651.395394928396
30
471.533568444041
11
1227.0373902926
21
651.395394897567
31
471.215730923187
  0
LINE
 8
Layer0
10
1226.10554013719
20
651.395395037246
30
473.465420441106
11
1226.03739144528
21
651.395395016201
31
472.947782396253
  0
LINE
 8
Layer0
10
905.969248234519
20
651.395357728331
30
472.430387657843
11
906.037396926425
21
651.395357749378
31
472.948025702695
  0
LINE
 8
Layer0
10
1227.0373902926
20
651.395394897567
30
471.215730923187
11
1227.51975206943
21
651.395394869476
31
471.015929757168
  0
LINE
 8
Layer0
10
1015.4518022794
20
651.395352001773
30
634.187233293659
11
1015.0183393123
21
651.39535201218
31
634.042962292686
  0
LINE
 8
Layer0
10
1015.25951382939
20
651.395352157238
30
637.415088891656
11
1015.66803343593
21
651.39535213183
31
637.210599291341
  0
LINE
 8
Layer0
10
1013.1130437143
20
651.395352130686
30
634.996681842672
11
1012.96877271333
21
651.395352156214
31
635.430144809775
  0
LINE
 8
Layer0
10
902.623282247581
20
651.395384095967
30
621.533814132922
11
903.037495598436
21
651.39538406514
31
621.215976612067
  0
LINE
 8
Layer0
10
1229.45167440792
20
651.39537441483
30
568.994978553621
11
1229.03746105706
21
651.395374445657
31
569.312816074474
  0
LINE
 8
Layer0
10
902.105644754046
20
651.395384157373
30
622.430389949576
11
902.305445278045
21
651.395384127427
31
621.948027906815
  0
LINE
 8
Layer0
10
1227.03739259796
20
651.39539505631
30
474.679832538324
11
1226.62317882406
21
651.39539505801
31
474.361995568787
  0
LINE
 8
Layer0
10
992.969188966907
20
651.39537742418
30
386.465567981743
11
992.769388442908
21
651.395377454129
31
386.947930024504
  0
LINE
 8
Layer0
10
1140.0375534643
20
651.395388730049
30
711.679902874615
11
1139.62333969041
21
651.395388731747
31
711.362065905077
  0
LINE
 8
Layer0
10
1016.00970727136
20
651.395352104518
30
636.907344850716
11
1016.26125082841
21
651.395352077168
31
636.525991858759
  0
LINE
 8
Layer0
10
1016.40552182939
20
651.395352051641
30
636.092528891656
11
1016.43268844398
21
651.395352029676
31
635.636495734286
  0
LINE
 8
Layer0
10
1139.10570100353
20
651.395388710983
30
710.465490777396
11
1139.03755231162
21
651.395388689938
31
709.947852732543
  0
LINE
 8
Layer0
10
1013.03339523042
20
651.395352195082
30
636.333703408745
11
1013.23788483073
21
651.395352205774
31
636.742223015293
  0
LINE
 8
Layer0
10
1226.62324728317
20
651.395374525874
30
568.994980435933
11
1226.30540976232
21
651.395374519371
31
568.580767085079
  0
LINE
 8
Layer0
10
1229.96931121248
20
651.39537430598
30
567.063126556555
11
1230.03745990439
21
651.395374327025
31
567.580764601406
  0
LINE
 8
Layer0
10
1227.03744395411
20
651.395370022081
30
543.613336381551
11
1226.62323018022
21
651.395370023779
31
543.295499412013
  0
LINE
 8
Layer0
10
1228.03744413243
20
651.3953699951
30
543.881284908483
11
1227.51980599687
21
651.3953700123
31
543.813136905549
  0
LINE
 8
Layer0
10
1229.96929410953
20
651.395369803884
30
541.363645532636
11
1230.03744280144
21
651.39536982493
31
541.881283577488
  0
LINE
 8
Layer0
10
1227.03745875171
20
651.395374365434
30
565.848715790332
11
1227.51982052854
21
651.39537433734
31
565.648914624313
  0
LINE
 8
Layer0
10
1139.62333969041
20
651.395388731747
30
711.362065905077
11
1139.30550216955
21
651.395388725243
31
710.947852554224
  0
LINE
 8
Layer0
10
992.76960406424
20
651.395388589421
30
710.947950073556
11
992.451767094706
21
651.395388620881
31
711.362163847449
  0
LINE
 8
Layer0
10
1139.30550216955
20
651.395388725243
30
710.947852554224
11
1139.10570100353
21
651.395388710983
31
710.465490777396
  0
LINE
 8
Layer0
10
1226.03744280144
20
651.39536998197
30
541.88128623948
11
1226.10559080437
21
651.395369955573
31
541.363648103923
  0
LINE
 8
Layer0
10
1226.30540843132
20
651.39537442772
30
566.580767085079
11
1226.62324540086
21
651.395374396261
31
566.166553311186
  0
LINE
 8
Layer0
10
1141.03755364262
20
651.395388703069
30
711.947851401548
11
1140.51991550706
21
651.395388720268
31
711.879703398613
  0
LINE
 8
Layer0
10
1142.96940361971
20
651.395388511854
30
709.4302120257
11
1143.03755231163
21
651.395388532897
31
709.947850070552
  0
LINE
 8
Layer0
10
1139.30550083856
20
651.395388633594
30
708.947852554224
11
1139.62333780809
21
651.395388602134
31
708.533638780331
  0
LINE
 8
Layer0
10
989.623338087643
20
651.395388602312
30
708.533738605016
11
990.037551438498
21
651.395388571485
31
708.215901084161
  0
LINE
 8
Layer0
10
1228.03745857339
20
651.395374313894
30
565.580765932403
11
1228.55509670895
21
651.395374296696
31
565.648913935339
  0
LINE
 8
Layer0
10
1228.555079606
20
651.395369794601
30
539.94943291142
11
1229.03744164876
21
651.395369784818
31
540.149233435418
  0
LINE
 8
Layer0
10
1227.51982052854
20
651.39537433734
30
565.648914624313
11
1228.03745857339
21
651.395374313894
31
565.580765932403
  0
LINE
 8
Layer0
10
989.305501118109
20
651.395388633771
30
708.947952378908
11
989.623338087643
21
651.395388602312
31
708.533738605016
  0
LINE
 8
Layer0
10
990.03755374385
20
651.395388730228
30
711.680002699298
11
989.623339969957
21
651.395388731924
31
711.362165729761
  0
LINE
 8
Layer0
10
991.037551260178
20
651.395388519946
30
707.947951226232
11
991.555189395736
21
651.395388502747
31
708.016099229168
  0
LINE
 8
Layer0
10
992.037551438499
20
651.395388492963
30
708.215899753165
11
992.451765212392
21
651.395388491268
31
708.533736722703
  0
LINE
 8
Layer0
10
989.037552591177
20
651.395388690116
30
709.947952557228
11
989.105700594112
21
651.39538866372
31
709.430314421671
  0
LINE
 8
Layer0
10
1140.51991293578
20
651.395388543213
30
708.016000093458
11
1141.03755098063
21
651.395388519768
31
707.947851401548
  0
LINE
 8
Layer0
10
992.969403899265
20
651.39538851203
30
709.430311850384
11
993.037552591175
21
651.395388533075
31
709.947949895236
  0
LINE
 8
Layer0
10
1227.03744164876
20
651.395369863339
30
540.149234766413
11
1227.51980342559
21
651.395369835245
31
539.949433600394
  0
LINE
 8
Layer0
10
1226.30539132837
20
651.395369925625
30
540.88128606116
11
1226.62322829791
21
651.395369894166
31
540.467072287267
  0
LINE
 8
Layer0
10
1228.55509928024
20
651.39537447375
30
569.512617240493
11
1228.03746123538
21
651.395374497195
31
569.580765932402
  0
LINE
 8
Layer0
10
1226.10559149335
20
651.395370003015
30
542.398924284332
11
1226.03744280144
21
651.39536998197
31
541.88128623948
  0
LINE
 8
Layer0
10
1226.30539265937
20
651.395370017276
30
542.88128606116
11
1226.10559149335
21
651.395370003015
31
542.398924284332
  0
LINE
 8
Layer0
10
1229.45167252561
20
651.395374285217
30
566.166551428874
11
1229.76951004646
21
651.39537429172
31
566.580764779727
  0
LINE
 8
Layer0
10
1229.76951004646
20
651.39537429172
30
566.580764779727
11
1229.96931121248
21
651.39537430598
31
567.063126556555
  0
LINE
 8
Layer0
10
1226.62324540086
20
651.395374396261
30
566.166553311186
11
1227.03745875171
21
651.395374365434
31
565.848715790332
  0
LINE
 8
Layer0
10
1229.03746105706
20
651.395374445657
30
569.312816074474
11
1228.55509928024
21
651.39537447375
31
569.512617240493
  0
LINE
 8
Layer0
10
1229.03745875171
20
651.395374286914
30
565.848714459337
11
1229.45167252561
21
651.395374285217
31
566.166551428874
  0
LINE
 8
Layer0
10
1142.96940430869
20
651.395388559294
30
710.46548820611
11
1142.76960378469
21
651.395388589244
31
710.947850248872
  0
LINE
 8
Layer0
10
989.305502449103
20
651.395388725422
30
710.947952378908
11
989.105701283083
21
651.395388711162
31
710.46559060208
  0
LINE
 8
Layer0
10
1227.03746105706
20
651.395374524177
30
569.312817405469
11
1226.62324728317
21
651.395374525874
31
568.994980435933
  0
LINE
 8
Layer0
10
1226.1056085963
20
651.39537450511
30
568.098405308251
11
1226.03745990439
21
651.395374484065
31
567.580767263399
  0
LINE
 8
Layer0
10
1229.03744164876
20
651.395369784818
30
540.149233435418
11
1229.45165542265
21
651.395369783121
31
540.467070404955
  0
LINE
 8
Layer0
10
1142.45154931151
20
651.395377355798
30
384.533616848968
11
1142.76938683236
21
651.395377362302
31
384.947830199821
  0
LINE
 8
Layer0
10
1141.0373353593
20
651.395377384476
30
383.947831352497
11
1141.55497349485
21
651.395377367275
31
384.015979355431
  0
LINE
 8
Layer0
10
1142.76938683236
20
651.395377362302
30
384.947830199821
11
1142.96918799838
21
651.395377376562
31
385.430191976648
  0
LINE
 8
Layer0
10
1142.96918799838
20
651.395377376562
30
385.430191976648
11
1143.03733669029
21
651.395377397606
31
385.9478300215
  0
LINE
 8
Layer0
10
1143.03733669029
20
651.395377397606
30
385.9478300215
11
1142.96918868736
21
651.395377424003
31
386.465468157059
  0
LINE
 8
Layer0
10
1142.76938816336
20
651.395377453952
30
386.94783019982
11
1142.45155119382
21
651.395377485411
31
387.362043973713
  0
LINE
 8
Layer0
10
1142.45155119382
20
651.395377485411
30
387.362043973713
11
1142.03733784297
21
651.395377516238
31
387.679881494566
  0
LINE
 8
Layer0
10
1142.03733784297
20
651.395377516238
30
387.679881494566
11
1141.55497606614
21
651.395377544331
31
387.879682660587
  0
LINE
 8
Layer0
10
1141.55497606614
20
651.395377544331
30
387.879682660587
11
1141.03733802129
21
651.395377567777
31
387.947831352496
  0
LINE
 8
Layer0
10
1141.03733802129
20
651.395377567777
30
387.947831352496
11
1140.51969988573
21
651.395377584975
31
387.879683349561
  0
LINE
 8
Layer0
10
1140.51969988573
20
651.395377584975
30
387.879683349561
11
1140.03733784297
21
651.395377594757
31
387.679882825563
  0
LINE
 8
Layer0
10
1140.03733784297
20
651.395377594757
30
387.679882825563
11
1139.62312406908
21
651.395377596457
31
387.362045856025
  0
LINE
 8
Layer0
10
1139.62312406908
20
651.395377596457
30
387.362045856025
11
1139.30528654822
21
651.395377589953
31
386.947832505172
  0
LINE
 8
Layer0
10
1139.30528654822
20
651.395377589953
30
386.947832505172
11
1139.1054853822
21
651.395377575692
31
386.465470728345
  0
LINE
 8
Layer0
10
1139.1054853822
20
651.395377575692
30
386.465470728345
11
1139.03733669029
21
651.395377554646
31
385.947832683492
  0
LINE
 8
Layer0
10
1139.03733669029
20
651.395377554646
30
385.947832683492
11
1139.10548469323
21
651.395377528251
31
385.430194547935
  0
LINE
 8
Layer0
10
1139.10548469323
20
651.395377528251
30
385.430194547935
11
1139.30528521723
21
651.395377498302
31
384.947832505173
  0
LINE
 8
Layer0
10
1139.30528521723
20
651.395377498302
30
384.947832505173
11
1139.62312218676
21
651.395377466842
31
384.533618731281
  0
LINE
 8
Layer0
10
1139.62312218676
20
651.395377466842
30
384.533618731281
11
1140.03733553762
21
651.395377436016
31
384.215781210425
  0
LINE
 8
Layer0
10
1140.03733553762
20
651.395377436016
30
384.215781210425
11
1140.51969731444
21
651.395377407922
31
384.015980044405
  0
LINE
 8
Layer0
10
1140.51969731444
20
651.395377407922
30
384.015980044405
11
1141.0373353593
21
651.395377384476
31
383.947831352497
  0
LINE
 8
Layer0
10
1139.10570031456
20
651.395388663543
30
709.430214596986
11
1139.30550083856
21
651.395388633594
31
708.947852554224
  0
LINE
 8
Layer0
10
1226.03739144528
20
651.395395016201
30
472.947782396253
11
1226.10553944821
21
651.395394989804
31
472.430144260696
  0
LINE
 8
Layer0
10
905.037443954185
20
651.395369943938
30
543.613550671877
11
904.555082177355
21
651.39536997203
31
543.813351837897
  0
LINE
 8
Layer0
10
902.305391328442
20
651.395369926001
30
540.881501682483
11
902.623228297979
21
651.395369894542
31
540.46728790859
  0
LINE
 8
Layer0
10
902.105591493417
20
651.39537000339
30
542.399139905655
11
902.037442801509
21
651.395369982346
31
541.881501860802
  0
LINE
 8
Layer0
10
902.623182422897
20
651.395357818614
30
471.533814412475
11
903.037395773752
21
651.395357787787
31
471.215976891621
  0
LINE
 8
Layer0
10
905.769447068497
20
651.395357714073
30
471.948025881016
11
905.969248234519
21
651.395357728331
31
472.430387657843
  0
LINE
 8
Layer0
10
1229.76944291835
20
651.395394915506
30
473.947779912581
11
1229.45160594881
21
651.395394946964
31
474.361993686474
  0
LINE
 8
Layer0
10
1227.51985189412
20
651.395421146829
30
621.015929477613
11
1228.03748993897
21
651.395421123382
31
620.947780785704
  0
LINE
 8
Layer0
10
902.105645443019
20
651.395384204815
30
623.465666129987
11
902.037496751111
21
651.395384183771
31
622.948028085134
  0
LINE
 8
Layer0
10
905.037495598437
20
651.395383986619
30
621.215975281073
11
905.451709372328
21
651.395383984923
31
621.53381225061
  0
LINE
 8
Layer0
10
1139.03755231162
20
651.395388689938
30
709.947852732543
11
1139.10570031456
21
651.395388663543
31
709.430214596986
  0
LINE
 8
Layer0
10
905.969348059202
20
651.395384005686
30
622.43038737829
11
906.03749675111
21
651.395384026732
31
622.948025423143
  0
LINE
 8
Layer0
10
992.769388442908
20
651.395377454129
30
386.947930024504
11
992.451551473374
21
651.39537748559
31
387.362143798397
  0
LINE
 8
Layer0
10
902.305392659437
20
651.395370017652
30
542.881501682483
11
902.105591493417
21
651.39537000339
31
542.399139905655
  0
LINE
 8
Layer0
10
903.037443954184
20
651.395370022458
30
543.613552002873
11
902.623230180292
21
651.395370024155
31
543.295715033336
  0
LINE
 8
Layer0
10
1229.76944158735
20
651.395394823855
30
471.947779912582
11
1229.96924275337
21
651.395394838115
31
472.430141689409
  0
LINE
 8
Layer0
10
1230.03739144528
20
651.395394859161
30
472.947779734262
11
1229.96924344234
21
651.395394885557
31
473.465417869819
  0
LINE
 8
Layer0
10
1229.96924275337
20
651.395394838115
30
472.430141689409
11
1230.03739144528
21
651.395394859161
31
472.947779734262
  0
LINE
 8
Layer0
10
990.519697593995
20
651.3953774081
30
384.01607986909
11
991.037335638846
21
651.395377384654
31
383.947931177181
  0
LINE
 8
Layer0
10
1229.0373902926
20
651.395394819049
30
471.215729592191
11
1229.4516040665
21
651.395394817351
31
471.533566561729
  0
LINE
 8
Layer0
10
989.105700594112
20
651.39538866372
30
709.430314421671
11
989.305501118109
21
651.395388633771
31
708.947952378908
  0
LINE
 8
Layer0
10
903.519760121864
20
651.395357936748
30
474.879879030756
11
903.037398079104
21
651.395357946531
31
474.680078506758
  0
LINE
 8
Layer0
10
1230.03749126996
20
651.395421136514
30
622.947779454708
11
1229.96934326703
21
651.395421162909
31
623.465417590268
  0
LINE
 8
Layer0
10
993.037336969843
20
651.395377397784
30
385.947929846184
11
992.969188966907
21
651.39537742418
31
386.465567981743
  0
LINE
 8
Layer0
10
990.519700165282
20
651.395377585153
30
387.879783174246
11
990.037338122519
21
651.395377594937
31
387.679982650247
  0
LINE
 8
Layer0
10
989.105484972781
20
651.395377528429
30
385.430294372619
11
989.305285496777
21
651.39537749848
31
384.947932329858
  0
LINE
 8
Layer0
10
992.037335817167
20
651.395377357671
30
384.215879704114
11
992.45154959106
21
651.395377355976
31
384.533716673652
  0
LINE
 8
Layer0
10
904.037444132504
20
651.395369995475
30
543.881500529806
11
903.519805996947
21
651.395370012676
31
543.813352526871
  0
LINE
 8
Layer0
10
1229.76954274303
20
651.395421192859
30
623.947779633027
11
1229.45170577349
21
651.395421224318
31
624.361993406921
  0
LINE
 8
Layer0
10
989.305286827771
20
651.395377590131
30
386.947932329856
11
989.105485661752
21
651.39537757587
31
386.465570553029
  0
LINE
 8
Layer0
10
905.451611429954
20
651.395357837183
30
474.362239654909
11
905.037398079105
21
651.39535786801
31
474.680077175762
  0
LINE
 8
Layer0
10
905.451711254637
20
651.395384114536
30
624.362239375355
11
905.037497903788
21
651.395384145362
31
624.680076896209
  0
LINE
 8
Layer0
10
1045.71198497358
20
651.395352178987
30
637.506879437551
11
1046.15951082939
21
651.395352157211
31
637.415090623709
  0
LINE
 8
Layer0
10
1085.63640977323
20
651.395352002092
30
603.8804502208
11
1085.33315527134
21
651.395352103939
31
603.538775850702
  0
LINE
 8
Layer0
10
1043.93339149837
20
651.395352195054
30
636.333702408746
11
1044.13788089888
21
651.395352205746
31
636.742222497657
  0
LINE
 8
Layer0
10
1083.85595174835
20
651.395352195686
30
606.579712341745
11
1084.31198532711
21
651.395352179028
31
606.606879291091
  0
LINE
 8
Layer0
10
1043.84160268452
20
651.39535217815
30
635.886176552936
11
1043.93339149837
21
651.395352195054
31
636.333702408746
  0
LINE
 8
Layer0
10
1179.53455515652
20
651.395385666526
30
414.807359809312
11
1144.83455515652
21
651.395385666564
31
414.807382902089
  0
LINE
 8
Layer0
10
1182.21774935098
20
651.395402174765
30
692.591363225851
11
1181.70011121543
21
651.395402191966
31
692.523215222915
  0
LINE
 8
Layer0
10
1043.86876971333
20
651.395352156185
30
635.430143077726
11
1043.84160268452
21
651.39535217815
31
635.886176552936
  0
LINE
 8
Layer0
10
1045.01477971333
20
651.395352050585
30
634.107583077726
11
1044.60625962442
21
651.395352075996
31
634.312072478241
  0
LINE
 8
Layer0
10
1166.64979949306
20
651.395402060959
30
691.591373586288
11
1166.33196252352
21
651.395402092418
31
692.005587360181
  0
LINE
 8
Layer0
10
1084.51833879433
20
651.395352012193
30
603.14296035966
11
1084.06230521557
21
651.395352028851
31
603.115793410315
  0
LINE
 8
Layer0
10
1085.65933527136
20
651.395352103937
30
634.815216850702
11
1085.36429773861
21
651.395351998383
31
634.466424297925
  0
LINE
 8
Layer0
10
1116.06802991888
20
651.39535213183
30
606.310598920724
11
1116.40970377134
21
651.39535210452
31
606.007344350688
  0
LINE
 8
Layer0
10
1082.89223271858
20
651.395352100832
30
634.584184383451
11
1082.63168631633
21
651.395352128257
31
634.959442911506
  0
LINE
 8
Layer0
10
1047.16124934605
20
651.39535207714
30
636.525993790612
11
1047.30552082939
21
651.395352051612
31
636.09253062371
  0
LINE
 8
Layer0
10
1181.70011121543
20
651.395402191966
30
692.523215222915
11
1181.21774917266
21
651.395402201746
31
692.323414698917
  0
LINE
 8
Layer0
10
1162.9858967119
20
651.395402182698
30
691.109014114814
11
1162.91774801999
21
651.395402161653
31
690.59137606996
  0
LINE
 8
Layer0
10
1164.40011121543
20
651.395402191984
30
692.523226736029
11
1163.91774917267
21
651.395402201764
31
692.323426212031
  0
LINE
 8
Layer0
10
1166.33196252352
20
651.395402092418
30
692.005587360181
11
1165.91774917267
21
651.395402123246
31
692.323424881035
  0
LINE
 8
Layer0
10
1183.94979949305
20
651.39540206094
30
691.591362073174
11
1183.63196252352
21
651.395402092399
31
692.005575847067
  0
LINE
 8
Layer0
10
1179.53454504095
20
651.395384969984
30
399.607359809316
11
1179.53455515652
21
651.395385666526
31
414.807359809312
  0
LINE
 8
Layer0
10
1182.73538739583
20
651.395402151319
30
692.523214533942
11
1182.21774935098
21
651.395402174765
31
692.591363225851
  0
LINE
 8
Layer0
10
1183.63196252352
20
651.395402092399
30
692.005575847067
11
1183.21774917266
21
651.395402123227
31
692.323413367921
  0
LINE
 8
Layer0
10
1228.55503082113
20
651.395395005886
30
474.879632373347
11
1228.03739277628
21
651.395395029331
31
474.947781065257
  0
LINE
 8
Layer0
10
1228.03749260096
20
651.395421306684
30
624.947780785705
11
1227.5198544654
21
651.395421323885
31
624.879632782769
  0
LINE
 8
Layer0
10
902.623284129894
20
651.39538422558
30
624.362241257667
11
902.305446609039
21
651.395384219076
31
623.948027906814
  0
LINE
 8
Layer0
10
902.305345453359
20
651.395357850073
30
471.948028186368
11
902.623182422897
21
651.395357818614
31
471.533814412475
  0
LINE
 8
Layer0
10
905.9692941096
20
651.39536980426
30
541.363861153959
11
906.037442801507
21
651.395369825306
31
541.881499198811
  0
LINE
 8
Layer0
10
1226.62327676644
20
651.39542120575
30
621.533568164489
11
1227.03749011729
21
651.395421174922
31
621.215730643634
  0
LINE
 8
Layer0
10
902.305346784357
20
651.395357941724
30
473.948028186368
11
902.105545618337
21
651.395357927462
31
473.46566640954
  0
LINE
 8
Layer0
10
903.037398079104
20
651.395357946531
30
474.680078506758
11
902.623184305211
21
651.395357948227
31
474.362241537221
  0
LINE
 8
Layer0
10
1228.03748993897
20
651.395421123382
30
620.947780785704
11
1228.55512807452
21
651.395421106185
31
621.015928788639
  0
LINE
 8
Layer0
10
991.55497634569
20
651.395377544509
30
387.879782485271
11
991.03733830084
21
651.395377567956
31
387.94793117718
  0
LINE
 8
Layer0
10
905.037497903788
20
651.395384145362
30
624.680076896209
11
904.555136126957
21
651.395384173456
31
624.879878062228
  0
LINE
 8
Layer0
10
903.519757550578
20
651.395357759693
30
471.016175725602
11
904.037395595432
21
651.395357736248
31
470.948027033693
  0
LINE
 8
Layer0
10
1229.96934326703
20
651.395421162909
30
623.465417590268
11
1229.76954274303
21
651.395421192859
31
623.947779633027
  0
LINE
 8
Layer0
10
902.10554492936
20
651.39535788002
30
472.43039022913
11
902.305345453359
21
651.395357850073
31
471.948028186368
  0
LINE
 8
Layer0
10
904.037395595432
20
651.395357736248
30
470.948027033693
11
904.555033730989
21
651.395357719048
31
471.016175036627
  0
LINE
 8
Layer0
10
990.037338122519
20
651.395377594937
30
387.679982650247
11
989.623124348626
21
651.395377596633
31
387.36214568071
  0
LINE
 8
Layer0
10
1228.03739277628
20
651.395395029331
30
474.947781065257
11
1227.51975464072
21
651.39539504653
31
474.879633062322
  0
LINE
 8
Layer0
10
1227.03749011729
20
651.395421174922
30
621.215730643634
11
1227.51985189412
21
651.395421146829
31
621.015929477613
  0
LINE
 8
Layer0
10
903.037458751783
20
651.39537436581
30
565.848931411656
11
903.519820528611
21
651.395374337717
31
565.649130245636
  0
LINE
 8
Layer0
10
902.105608596367
20
651.395374505485
30
568.098620929574
11
902.03745990446
21
651.395374484441
31
567.580982884721
  0
LINE
 8
Layer0
10
885.387606652714
20
651.395411383739
30
719.947966718436
11
885.387330038921
21
651.39539506482
31
371.947990964426
  0
LINE
 8
Layer0
10
1244.7876115636
20
651.395396901911
30
719.947726371747
11
885.387606652714
21
651.395411383739
31
719.947966718436
  0
LINE
 8
Layer0
10
1244.78733952748
20
651.39538132654
30
371.947750617735
11
885.387330038921
21
651.39539506482
31
371.947990964426
  0
LINE
 8
Layer0
10
1244.78733952748
20
651.39538132654
30
371.947750617735
11
1244.7876115636
21
651.395396901911
31
719.947726371747
  0
LINE
 8
Layer0
10
1046.90970527136
20
651.395352104492
30
636.907346850718
11
1047.16124934605
21
651.39535207714
31
636.525993790612
  0
LINE
 8
Layer0
10
1114.96230180135
20
651.395352028839
30
603.115794824515
11
1114.5147762803
21
651.395352050615
31
603.207584059748
  0
LINE
 8
Layer0
10
1047.30552082939
20
651.395352051612
30
636.09253062371
11
1047.33268785819
21
651.395352029647
31
635.6364971485
  0
LINE
 8
Layer0
10
1044.26458527136
20
651.395352103306
30
634.615326850717
11
1044.01304119666
21
651.395352130658
31
634.996679910822
  0
LINE
 8
Layer0
10
1085.90552126238
20
651.395352051654
30
605.192529873693
11
1085.93268821173
21
651.395352029689
31
604.73649629493
  0
LINE
 8
Layer0
10
1085.36429773861
20
651.395351998383
30
634.466424297925
11
1084.98903921055
21
651.395352001177
31
634.205877895674
  0
LINE
 8
Layer0
10
1085.93268821173
20
651.395352029689
30
604.73649629493
11
1085.84089929433
21
651.395352012785
31
604.28897035966
  0
LINE
 8
Layer0
10
1085.48205782414
20
651.395352107042
30
636.938489317954
11
1085.74260422639
21
651.395352079617
31
636.563230789899
  0
LINE
 8
Layer0
10
1083.81515760698
20
651.395352196902
30
637.471340250714
11
1084.27041422638
21
651.395352180771
31
637.5093507899
  0
LINE
 8
Layer0
10
1115.41833506228
20
651.39535201218
30
603.142961359646
11
1114.96230180135
21
651.395352028839
31
603.115794824515
  0
LINE
 8
Layer0
10
1082.43913133216
20
651.395352176379
30
635.844605805732
11
1082.5202450542
21
651.395352193797
31
636.294187783462
  0
LINE
 8
Layer0
10
1083.6147792803
20
651.395352050627
30
603.207582327713
11
1083.20625914144
21
651.395352076038
31
603.412071848817
  0
LINE
 8
Layer0
10
1044.44113527136
20
651.3953521039
30
637.083896850718
11
1044.82248833146
21
651.395352206052
31
637.335440925412
  0
LINE
 8
Layer0
10
1085.74260422639
20
651.395352079617
30
636.563230789899
11
1085.89714867137
21
651.395352053848
31
636.13332451508
  0
LINE
 8
Layer0
10
1085.89714867137
20
651.395352053848
30
636.13332451508
11
1085.93515921055
21
651.395352031495
31
635.678067895674
  0
LINE
 8
Layer0
10
1084.06230521557
20
651.395352028851
30
603.115793410315
11
1083.6147792803
21
651.395352050627
31
603.207582327713
  0
LINE
 8
Layer0
10
1082.73788076946
20
651.395352205786
30
605.842222480605
11
1083.04113527134
21
651.39535210394
31
606.183896850703
  0
LINE
 8
Layer0
10
1045.91833904435
20
651.395352012151
30
634.042961292688
11
1045.46230556914
21
651.395352028809
31
634.015794263884
  0
LINE
 8
Layer0
10
1082.47714187135
20
651.395352154026
30
635.389349186325
11
1082.43913133216
21
651.395352176379
31
635.844605805732
  0
LINE
 8
Layer0
10
1044.13788089888
20
651.395352205746
30
636.742222497657
11
1044.44113527136
21
651.3953521039
31
637.083896850718
  0
LINE
 8
Layer0
10
1113.76458277134
20
651.395352103336
30
603.715328350688
11
1113.51303923132
21
651.395352130688
31
604.096681472055
  0
LINE
 8
Layer0
10
1047.03640964383
20
651.395352002051
30
634.780451203779
11
1046.73315527136
21
651.395352103898
31
634.438776850718
  0
LINE
 8
Layer0
10
1082.44160233095
20
651.39535217819
30
604.986176406475
11
1082.53339124835
21
651.395352195094
31
605.433702341745
  0
LINE
 8
Layer0
10
1082.4687692803
20
651.395352156227
30
604.530142827712
11
1082.44160233095
21
651.39535217819
31
604.986176406475
  0
LINE
 8
Layer0
10
1085.93515921055
20
651.395352031495
30
635.678067895674
11
1085.85404548851
21
651.395352014076
31
635.228485917943
  0
LINE
 8
Layer0
10
1085.85404548851
20
651.395352014076
30
635.228485917943
11
1085.65933527136
21
651.395352103937
31
634.815216850702
  0
LINE
 8
Layer0
10
1046.73315527136
20
651.395352103898
30
634.438776850718
11
1046.35180221125
21
651.395352001745
31
634.187232776024
  0
LINE
 8
Layer0
10
1085.84089929433
20
651.395352012785
30
604.28897035966
11
1085.63640977323
21
651.395352002092
31
603.8804502208
  0
LINE
 8
Layer0
10
1082.5202450542
20
651.395352193797
30
636.294187783462
11
1082.71495527136
21
651.395352103937
31
636.707456850703
  0
LINE
 8
Layer0
10
1084.71999620411
20
651.395352159404
30
637.428237067859
11
1085.13326527136
21
651.395352134256
31
637.233526850702
  0
LINE
 8
Layer0
10
1047.33268785819
20
651.395352029647
30
635.6364971485
11
1047.24089904435
21
651.395352012744
31
635.188971292689
  0
LINE
 8
Layer0
10
1085.13326527136
20
651.395352134256
30
637.233526850702
11
1085.48205782414
21
651.395352107042
31
636.938489317954
  0
LINE
 8
Layer0
10
1114.7559514804
20
651.395352195675
30
606.579711341731
11
1115.21198474133
21
651.395352179016
31
606.606877876862
  0
LINE
 8
Layer0
10
1083.6542943386
20
651.39535204847
30
634.094436633547
11
1083.24102527136
21
651.395352073619
31
634.289146850703
  0
LINE
 8
Layer0
10
1084.27041422638
20
651.395352180771
30
637.5093507899
11
1084.71999620411
21
651.395352159404
31
637.428237067859
  0
LINE
 8
Layer0
10
1082.63168631633
20
651.395352128257
30
634.959442911506
11
1082.47714187135
21
651.395352154026
31
635.389349186325
  0
LINE
 8
Layer0
10
1045.46230556914
20
651.395352028809
30
634.015794263884
11
1045.01477971333
21
651.395352050585
31
634.107583077726
  0
LINE
 8
Layer0
10
1113.4333909804
20
651.395352195084
30
605.433703341731
11
1113.63788070131
21
651.395352205774
31
605.84222299823
  0
LINE
 8
Layer0
10
1085.16803140125
20
651.395352131844
30
606.310600852589
11
1085.50970577134
21
651.395352104532
31
606.007346350702
  0
LINE
 8
Layer0
10
1085.761249829
20
651.395352077181
30
605.625993161187
11
1085.90552126238
21
651.395352051654
31
605.192529873693
  0
LINE
 8
Layer0
10
1116.74089556228
20
651.395352012773
30
604.288969359646
11
1116.53640584138
21
651.395352002081
31
603.880449703148
  0
LINE
 8
Layer0
10
1084.75951126238
20
651.395352157252
30
606.515090373694
11
1085.16803140125
21
651.395352131844
31
606.310600852589
  0
LINE
 8
Layer0
10
1115.65951026239
20
651.39535215724
30
606.515088641628
11
1116.06802991888
21
651.39535213183
31
606.310598920724
  0
LINE
 8
Layer0
10
1083.0099928041
20
651.395352209491
30
637.056249403481
11
1083.38525133216
21
651.395352206698
31
637.316795805732
  0
LINE
 8
Layer0
10
1046.35180221125
20
651.395352001745
30
634.187232776024
11
1045.91833904435
21
651.395352012151
31
634.042961292688
  0
LINE
 8
Layer0
10
1113.63788070131
20
651.395352205774
30
605.84222299823
11
1113.94113527134
21
651.395352103927
31
606.183896850689
  0
LINE
 8
Layer0
10
1084.98903921055
20
651.395352001177
30
634.205877895674
11
1084.55913293574
21
651.395352010971
31
634.051333450691
  0
LINE
 8
Layer0
10
1113.94113527134
20
651.395352103927
30
606.183896850689
11
1114.32248839271
21
651.395352206082
31
606.435440390708
  0
LINE
 8
Layer0
10
905.769510046529
20
651.395374292096
30
566.580980401049
11
905.96931121255
21
651.395374306356
31
567.063342177878
  0
LINE
 8
Layer0
10
1120.26942090328
20
651.395388681471
30
393.988422743186
11
1083.99703970964
21
651.39538872621
31
393.928549406276
  0
LINE
 8
Layer0
10
1116.7540484374
20
651.395352014066
30
635.228486306157
11
1116.55933827136
21
651.395352103925
31
634.815216850688
  0
LINE
 8
Layer0
10
1114.55429622682
20
651.39535204846
30
634.094435184643
11
1114.14102677136
21
651.395352073606
31
634.289145350688
  0
LINE
 8
Layer0
10
1114.14102677136
20
651.395352073606
30
634.289145350688
11
1113.79223383035
21
651.395352100822
31
634.584182934547
  0
LINE
 8
Layer0
10
1115.88904200959
20
651.395352001164
30
634.205877145659
11
1115.4591354964
21
651.39535201096
31
634.051332390017
  0
LINE
 8
Layer0
10
1115.4591354964
20
651.39535201096
30
634.051332390017
11
1115.00387856633
21
651.395352027092
31
634.013321612453
  0
LINE
 8
Layer0
10
1014.11478028032
20
651.395352050616
30
603.207584059777
11
1013.70626062382
21
651.395352076026
31
603.412073780682
  0
LINE
 8
Layer0
10
1116.03326677136
20
651.395352134244
30
637.233528350689
11
1116.38205971236
21
651.395352107031
31
636.938490766829
  0
LINE
 8
Layer0
10
902.623245400929
20
651.395374396638
30
566.16676893251
11
903.037458751783
21
651.39537436581
31
565.848931411656
  0
LINE
 8
Layer0
10
905.037461057136
20
651.395374446033
30
569.313031695796
11
904.555099280306
21
651.395374474126
31
569.512832861816
  0
LINE
 8
Layer0
10
905.037458751782
20
651.39537428729
30
565.848930080659
11
905.451672525676
21
651.395374285593
31
566.166767050197
  0
LINE
 8
Layer0
10
1083.99703970964
20
651.39538872621
30
393.928549406276
11
1076.99573219339
21
651.395389307925
31
406.421682680703
  0
LINE
 8
Layer0
10
904.037461235455
20
651.395374497571
30
569.580981553725
11
903.519823099896
21
651.395374514771
31
569.51283355079
  0
LINE
 8
Layer0
10
1015.45180214999
20
651.395352001775
30
603.287232310696
11
1015.0183390623
21
651.395352012183
31
603.142961359674
  0
LINE
 8
Layer0
10
1012.96877228032
20
651.395352156216
30
604.530144559776
11
1012.94160574519
21
651.395352178179
31
604.986177820701
  0
LINE
 8
Layer0
10
1015.83315527136
20
651.395352103927
30
603.538775850716
11
1015.45180214999
21
651.395352001775
31
603.287232310696
  0
LINE
 8
Layer0
10
1013.11304323134
20
651.395352130688
30
604.096681472082
11
1012.96877228032
21
651.395352156216
31
604.530144559776
  0
LINE
 8
Layer0
10
1144.83454504096
20
651.395384970022
30
399.607382902093
11
1179.53454504095
21
651.395384969984
31
399.607359809316
  0
LINE
 8
Layer0
10
1016.26125131138
20
651.39535207717
30
605.625991229349
11
1016.4055222624
21
651.395352051643
31
605.192528141656
  0
LINE
 8
Layer0
10
1013.03339498042
20
651.395352195084
30
605.433703341758
11
1013.23788470133
21
651.395352205776
31
605.842222998255
  0
LINE
 8
Layer0
10
1014.35595548042
20
651.395352195676
30
606.579711341758
11
1014.81198874135
21
651.395352179016
31
606.60687787689
  0
LINE
 8
Layer0
10
1014.81198874135
20
651.395352179016
30
606.60687787689
11
1015.2595142624
21
651.395352157241
31
606.515088641655
  0
LINE
 8
Layer0
10
1013.23788470133
20
651.395352205776
30
605.842222998255
11
1013.54113927136
21
651.39535210393
31
606.183896850716
  0
LINE
 8
Layer0
10
1014.56230580137
20
651.395352028841
30
603.115794824542
11
1014.11478028032
21
651.395352050616
31
603.207584059777
  0
LINE
 8
Layer0
10
1015.0183390623
20
651.395352012183
30
603.142961359674
11
1014.56230580137
21
651.395352028841
31
603.115794824542
  0
LINE
 8
Layer0
10
1013.92249239273
20
651.395352206084
30
606.435440390735
11
1014.35595548042
21
651.395352195676
31
606.579711341758
  0
LINE
 8
Layer0
10
1015.2595142624
20
651.395352157241
30
606.515088641655
11
1015.6680339189
21
651.395352131832
31
606.310598920751
  0
LINE
 8
Layer0
10
1016.43268879753
20
651.395352029678
30
604.73649488073
11
1016.3408995623
21
651.395352012774
31
604.288969359674
  0
LINE
 8
Layer0
10
1016.1364098414
20
651.395352002082
30
603.880449703176
11
1015.83315527136
21
651.395352103927
31
603.538775850716
  0
LINE
 8
Layer0
10
1012.94160574519
20
651.395352178179
30
604.986177820701
11
1013.03339498042
21
651.395352195084
31
605.433703341758
  0
LINE
 8
Layer0
10
1016.00970777136
20
651.395352104521
30
606.007344350715
11
1016.26125131138
21
651.39535207717
31
605.625991229349
  0
LINE
 8
Layer0
10
1013.54113927136
20
651.39535210393
30
606.183896850716
11
1013.92249239273
21
651.395352206084
31
606.435440390735
  0
LINE
 8
Layer0
10
1016.26125082841
20
651.395352077168
30
636.525991858759
11
1016.40552182939
21
651.395352051641
31
636.092528891656
  0
LINE
 8
Layer0
10
990.519915786614
20
651.395388720446
30
711.879803223297
11
990.03755374385
21
651.395388730228
31
711.680002699298
  0
LINE
 8
Layer0
10
1016.43268844398
20
651.395352029676
30
635.636495734286
11
1016.3408993123
21
651.395352012772
31
635.188970292687
  0
LINE
 8
Layer0
10
1013.92249226332
20
651.395352206081
30
637.335440407773
11
1014.35595523042
21
651.395352195674
31
637.479711408745
  0
LINE
 8
Layer0
10
1142.03755115895
20
651.395388492787
30
708.215799928481
11
1142.45176493284
21
651.395388491089
31
708.533636898019
  0
LINE
 8
Layer0
10
1013.70626110678
20
651.395352076025
30
634.312074410091
11
1013.36458727136
21
651.395352103334
31
634.615328850715
  0
LINE
 8
Layer0
10
1016.13640971198
20
651.395352002079
30
634.780450686139
11
1015.83315527136
21
651.395352103926
31
634.438776850716
  0
LINE
 8
Layer0
10
1014.56230615493
20
651.395352028839
30
634.015795678095
11
1014.11478071333
21
651.395352050614
31
634.107584809776
  0
LINE
 8
Layer0
10
1014.11478071333
20
651.395352050614
30
634.107584809776
11
1013.70626110678
21
651.395352076025
31
634.312074410091
  0
LINE
 8
Layer0
10
992.969404588238
20
651.395388559472
30
710.465588030794
11
992.76960406424
21
651.395388589421
31
710.947950073556
  0
LINE
 8
Layer0
10
1015.0183393123
20
651.39535201218
30
634.042962292686
11
1014.56230615493
21
651.395352028839
31
634.015795678095
  0
LINE
 8
Layer0
10
1015.66803343593
20
651.39535213183
30
637.210599291341
11
1016.00970727136
21
651.395352104518
31
636.907344850716
  0
LINE
 8
Layer0
10
1013.23788483073
20
651.395352205774
30
636.742223015293
11
1013.54113927136
21
651.395352103928
31
637.083896850716
  0
LINE
 8
Layer0
10
902.105607907393
20
651.395374458044
30
567.063344749165
11
902.305408431393
21
651.395374428097
31
566.580982706402
  0
LINE
 8
Layer0
10
1166.33192729976
20
651.395393186169
30
639.077160235449
11
1166.64976482062
21
651.395393192672
31
639.491373586301
  0
LINE
 8
Layer0
10
1162.98586268148
20
651.395393358621
30
639.973737934414
11
1163.18566320548
21
651.395393328673
31
639.491375891652
  0
LINE
 8
Layer0
10
1183.63192729976
20
651.39539318615
30
639.077148722335
11
1183.94976482061
21
651.395393192653
31
639.491362073187
  0
LINE
 8
Layer0
10
1166.84956598664
20
651.395393206932
30
639.973735363128
11
1166.91771467854
21
651.395393227977
31
640.49137340798
  0
LINE
 8
Layer0
10
1162.91771467855
20
651.395393385017
30
640.491376069972
11
1162.98586268148
21
651.395393358621
31
639.973737934414
  0
LINE
 8
Layer0
10
1164.91771334755
20
651.395393214847
30
638.491374738976
11
1165.43535148311
21
651.395393197648
31
638.559522741911
  0
LINE
 8
Layer0
10
1163.91771352587
20
651.395393266386
30
638.759324596906
11
1164.4000753027
21
651.395393238292
31
638.559523430885
  0
LINE
 8
Layer0
10
1163.50350017502
20
651.395393297214
30
639.077162117762
11
1163.91771352587
21
651.395393266386
31
638.759324596906
  0
LINE
 8
Layer0
10
1164.4000753027
20
651.395393238292
30
638.559523430885
11
1164.91771334755
21
651.395393214847
31
638.491374738976
  0
LINE
 8
Layer0
10
1165.43535148311
20
651.395393197648
30
638.559522741911
11
1165.91771352587
21
651.395393187867
31
638.75932326591
  0
LINE
 8
Layer0
10
1165.91771352587
20
651.395393187867
30
638.75932326591
11
1166.33192729976
21
651.395393186169
31
639.077160235449
  0
LINE
 8
Layer0
10
1163.18566320548
20
651.395393328673
30
639.491375891652
11
1163.50350017502
21
651.395393297214
31
639.077162117762
  0
LINE
 8
Layer0
10
1166.64976482062
20
651.395393192672
30
639.491373586301
11
1166.84956598664
21
651.395393206932
31
639.973735363128
  0
LINE
 8
Layer0
10
1180.48566320548
20
651.395393328654
30
639.491364378539
11
1180.80350017501
21
651.395393297195
31
639.077150604647
  0
LINE
 8
Layer0
10
1183.94976482061
20
651.395393192653
30
639.491362073187
11
1184.14956598663
21
651.395393206913
31
639.973723850014
  0
LINE
 8
Layer0
10
1180.28586268148
20
651.395393358602
30
639.973726421301
11
1180.48566320548
21
651.395393328654
31
639.491364378539
  0
LINE
 8
Layer0
10
1184.14956598663
20
651.395393206913
30
639.973723850014
11
1184.21771467854
21
651.395393227959
31
640.491361894867
  0
LINE
 8
Layer0
10
1183.21771352587
20
651.395393187848
30
638.759311752797
11
1183.63192729976
21
651.39539318615
31
639.077148722335
  0
LINE
 8
Layer0
10
1182.7353514831
20
651.39539319763
30
638.559511228798
11
1183.21771352587
21
651.395393187848
31
638.759311752797
  0
LINE
 8
Layer0
10
1181.70007530269
20
651.395393238274
30
638.559511917772
11
1182.21771334755
21
651.395393214828
31
638.491363225863
  0
LINE
 8
Layer0
10
1180.80350017501
20
651.395393297195
30
639.077150604647
11
1181.21771352587
21
651.395393266367
31
638.759313083793
  0
LINE
 8
Layer0
10
1182.21771334755
20
651.395393214828
30
638.491363225863
11
1182.7353514831
21
651.39539319763
31
638.559511228798
  0
LINE
 8
Layer0
10
1181.21771352587
20
651.395393266367
30
638.759313083793
11
1181.70007530269
21
651.395393238274
31
638.559511917772
  0
LINE
 8
Layer0
10
1180.21771467854
20
651.395393384999
30
640.491364556858
11
1180.28586268148
21
651.395393358602
31
639.973726421301
  0
LINE
 8
Layer0
10
1165.43538739584
20
651.395402151338
30
692.523226047056
11
1164.91774935099
21
651.395402174783
31
692.591374738964
  0
LINE
 8
Layer0
10
1166.84960001706
20
651.395402031009
30
691.109011543528
11
1166.64979949306
21
651.395402060959
31
691.591373586288
 0
ENDSEC
 0
EOF
