 0
SECTION
 2
ENTITIES
  0
LINE
 8
Layer0
10
923.490729949512
20
670.5386338844
30
650.127095333592
11
923.515090058877
21
670.519941715043
31
650.127104124978
  0
LINE
 8
Layer0
10
923.104840421676
20
670.698474560407
30
650.127095320031
11
923.490729949512
21
670.5386338844
31
650.127095333592
  0
LINE
 8
Layer0
10
922.690729949513
20
670.752993238345
30
650.127095255794
11
923.104840421676
21
670.698474560407
31
650.127095320031
  0
LINE
 8
Layer0
10
922.276619477348
20
670.698474560407
30
650.127095145259
11
922.690729949513
21
670.752993238345
31
650.127095255794
  0
LINE
 8
Layer0
10
921.890729949512
20
670.5386338844
30
650.127094995959
11
922.276619477348
21
670.698474560407
31
650.127095145259
  0
LINE
 8
Layer0
10
921.559359099614
20
670.284364088244
30
650.127094818069
11
921.890729949512
21
670.5386338844
31
650.127094995959
  0
LINE
 8
Layer0
10
921.305089303458
20
669.952993238346
30
650.127094623711
11
921.559359099614
21
670.284364088244
31
650.127094818069
  0
LINE
 8
Layer0
10
921.14524862745
20
669.56710371051
30
650.127094426131
11
921.305089303458
21
669.952993238346
31
650.127094623711
  0
LINE
 8
Layer0
10
921.090729949513
20
669.152993238346
30
650.127094238793
11
921.14524862745
21
669.56710371051
31
650.127094426131
  0
LINE
 8
Layer0
10
921.14524862745
20
668.738882766182
30
650.127094074464
11
921.090729949513
21
669.152993238346
31
650.127094238793
  0
LINE
 8
Layer0
10
1226.77655783794
20
975.198515894011
30
650.127312440087
11
1227.19066825115
21
975.253035019712
31
650.127312597797
  0
LINE
 8
Layer0
10
1226.39066848294
20
975.038674800757
30
650.127312147173
11
1226.77655783794
21
975.198515894011
31
650.127312440087
  0
LINE
 8
Layer0
10
1226.05929790798
20
974.784404646304
30
650.127311739019
11
1226.39066848294
21
975.038674800757
31
650.127312147173
  0
LINE
 8
Layer0
10
1225.80502847013
20
974.453033521478
30
650.127311243439
11
1226.05929790798
21
974.784404646304
31
650.127311739019
  0
LINE
 8
Layer0
10
1225.64518821138
20
974.067143820818
30
650.127310694206
11
1225.80502847013
21
974.453033521478
31
650.127311243439
  0
LINE
 8
Layer0
10
1225.5906699812
20
973.653033289711
30
650.12731012875
11
1225.64518821138
21
974.067143820818
31
650.127310694206
  0
LINE
 8
Layer0
10
1225.64518910691
20
973.238922876504
30
650.127309585605
11
1225.5906699812
21
973.653033289711
31
650.12731012875
  0
LINE
 8
Layer0
10
1200.16912396674
20
1002.095403904
30
650.127297908721
11
1175.19066998186
21
983.153030278409
31
650.127297325902
  0
LINE
 8
Layer0
10
1210.47080728454
20
693.703031623482
30
650.127191775235
11
1209.67621417155
21
694.738565529414
31
650.127191775235
  0
LINE
 8
Layer0
10
929.240719665572
20
971.102995211979
30
650.127248673224
11
929.070348797017
21
972.397090437491
31
650.127249698082
  0
LINE
 8
Layer0
10
929.070348797017
20
972.397090437491
30
650.127249698082
11
928.570846684495
21
973.602995211979
31
650.127250496724
  0
LINE
 8
Layer0
10
928.570846684495
20
973.602995211979
30
650.127250496724
11
927.776253571505
21
974.638529117911
31
650.127251014721
  0
LINE
 8
Layer0
10
927.776253571505
20
974.638529117911
30
650.127251014721
11
926.740719665572
21
975.4331222309
31
650.127251216773
  0
LINE
 8
Layer0
10
926.740719665572
20
975.4331222309
30
650.127251216773
11
925.534814891085
21
975.932624343424
31
650.127251089112
  0
LINE
 8
Layer0
10
1203.8465865343
20
976.932622849202
30
650.127311362594
11
1202.64068175981
21
976.43312073668
31
650.127310473683
  0
LINE
 8
Layer0
10
1202.64068175981
20
976.43312073668
30
650.127310473683
11
1201.60514785388
21
975.63852762369
31
650.127309638424
  0
LINE
 8
Layer0
10
1201.60514785388
20
975.63852762369
30
650.127309638424
11
1200.81055474089
21
974.602993717758
31
650.12730891374
  0
LINE
 8
Layer0
10
1200.81055474089
20
974.602993717758
30
650.12730891374
11
1200.31105262837
21
973.39708894327
31
650.127308349015
  0
LINE
 8
Layer0
10
1200.31105262837
20
973.39708894327
30
650.127308349015
11
1200.14068175981
21
972.102993717757
31
650.127307982736
  0
LINE
 8
Layer0
10
1200.14068175981
20
972.102993717757
30
650.127307982736
11
1200.31105262837
21
970.808898492246
31
650.127307839863
  0
LINE
 8
Layer0
10
1200.31105262837
20
970.808898492246
30
650.127307839863
11
1200.81055474089
21
969.602993717758
31
650.127307930133
  0
LINE
 8
Layer0
10
1200.81055474089
20
969.602993717758
30
650.127307930133
11
1201.60514785388
21
968.567459811825
31
650.127308247395
  0
LINE
 8
Layer0
10
1201.60514785388
20
968.567459811825
30
650.127308247395
11
1202.64068175982
21
967.772866698835
31
650.127308770027
  0
LINE
 8
Layer0
10
1202.64068175982
20
967.772866698835
30
650.127308770027
11
1203.8465865343
21
967.273364586312
31
650.127309462413
  0
LINE
 8
Layer0
10
1203.8465865343
20
967.273364586312
30
650.127309462413
11
1205.14068175982
21
967.102993717757
31
650.127310277367
  0
LINE
 8
Layer0
10
1205.14068175982
20
967.102993717757
30
650.127310277367
11
1206.43477698533
21
967.273364586312
31
650.127311159354
  0
LINE
 8
Layer0
10
1206.43477698533
20
967.273364586312
30
650.127311159354
11
1207.64068175981
21
967.772866698834
31
650.127312048265
  0
LINE
 8
Layer0
10
1207.64068175981
20
967.772866698834
30
650.127312048265
11
1208.67621566575
21
968.567459811823
31
650.127312883524
  0
LINE
 8
Layer0
10
903.990679786155
20
975.038624080065
30
650.127222328878
11
904.322050636054
21
974.784354283908
31
650.127222287693
  0
LINE
 8
Layer0
10
903.604790258319
20
975.198464756073
30
650.127222317048
11
903.990679786155
21
975.038624080065
31
650.127222328878
  0
LINE
 8
Layer0
10
903.190679786156
20
975.25298343401
30
650.127222253007
11
903.604790258319
21
975.198464756073
31
650.127222317048
  0
LINE
 8
Layer0
10
902.776569313992
20
975.198464756073
30
650.127222141121
11
903.190679786156
21
975.25298343401
31
650.127222253007
  0
LINE
 8
Layer0
10
902.390679786156
20
975.038624080066
30
650.127221989013
11
902.776569313992
21
975.198464756073
31
650.127222141121
  0
LINE
 8
Layer0
10
902.059308936258
20
974.78435428391
30
650.12722180705
11
902.390679786156
21
975.038624080066
31
650.127221989013
  0
LINE
 8
Layer0
10
1226.0593492953
20
689.784414251572
30
650.127166903618
11
1226.3907201452
21
690.038684047728
31
650.127167087201
  0
LINE
 8
Layer0
10
921.559306290548
20
994.28435305991
30
650.12725483823
11
921.890676865508
21
994.538623214363
31
650.127254717737
  0
LINE
 8
Layer0
10
921.305036852696
20
993.952981935083
30
650.127254872839
11
921.559306290548
21
994.28435305991
31
650.12725483823
  0
LINE
 8
Layer0
10
923.490729949511
20
667.767352592291
30
650.127094156893
11
923.104840421675
21
667.607511916284
31
650.127094007593
  0
LINE
 8
Layer0
10
923.515075101344
20
667.786033284313
30
650.127102620536
11
923.490729949511
21
667.767352592291
31
650.127094156893
  0
LINE
 8
Layer0
10
1226.05930035461
20
972.521662946545
30
650.127308710263
11
1225.82375949375
21
972.828625085505
31
650.127315022065
  0
LINE
 8
Layer0
10
1226.39067147944
20
972.267393508693
30
650.127308437719
11
1226.05930035461
21
972.521662946545
31
650.127308710263
  0
LINE
 8
Layer0
10
1226.7765611801
20
972.107553249937
30
650.127308302728
11
1226.39067147944
21
972.267393508693
31
650.127308437719
  0
LINE
 8
Layer0
10
1227.19067171121
20
972.053035019765
30
650.127308314488
11
1226.7765611801
21
972.107553249937
31
650.127308302728
  0
LINE
 8
Layer0
10
1227.60478212442
20
972.107554145465
30
650.127308472199
11
1227.19067171121
21
972.053035019765
31
650.127308314488
  0
LINE
 8
Layer0
10
930.070347302821
20
691.497128343268
30
650.127126791233
11
929.570845190298
21
692.703033117756
31
650.127127680144
  0
LINE
 8
Layer0
10
1226.3907201452
20
690.038684047728
30
650.127167087201
11
1226.77660967303
21
690.198524723736
31
650.127167241475
  0
LINE
 8
Layer0
10
921.14519659394
20
993.567092234422
30
650.127254819206
11
921.305036852696
21
993.952981935083
31
650.127254872839
  0
LINE
 8
Layer0
10
921.090678363768
20
993.152981703316
30
650.127254680985
11
921.14519659394
21
993.567092234422
31
650.127254819206
  0
LINE
 8
Layer0
10
921.145197489468
20
992.738871290107
30
650.127254467596
11
921.090678363768
21
993.152981703316
31
650.127254680985
  0
LINE
 8
Layer0
10
921.305038582723
20
992.352981935108
30
650.127254193581
11
921.145197489468
21
992.738871290107
31
650.127254467596
  0
LINE
 8
Layer0
10
921.559308737175
20
992.021611360148
30
650.127253877614
11
921.305038582723
21
992.352981935108
31
650.127254193581
  0
LINE
 8
Layer0
10
921.890679862002
20
991.767341922297
30
650.127253541227
11
921.559308737175
21
992.021611360148
31
650.127253877614
  0
LINE
 8
Layer0
10
922.276569562663
20
991.607501663541
30
650.127253207345
11
921.890679862002
21
991.767341922297
31
650.127253541227
  0
LINE
 8
Layer0
10
922.69068009377
20
991.552983433368
30
650.127252898721
11
922.276569562663
21
991.607501663541
31
650.127253207345
  0
LINE
 8
Layer0
10
923.104790506978
20
991.607502559069
30
650.127252636387
11
922.69068009377
21
991.552983433368
31
650.127252898721
  0
LINE
 8
Layer0
10
923.490679861977
20
991.767343652324
30
650.127252438222
11
923.104790506978
21
991.607502559069
31
650.127252636387
  0
LINE
 8
Layer0
10
923.515088297973
20
991.786072945917
30
650.127258378465
11
923.490679861977
21
991.767343652324
31
650.127252438222
  0
LINE
 8
Layer0
10
901.590729950189
20
688.652990085902
30
650.127117709139
11
901.645248180362
21
689.067100617009
31
650.127117523812
  0
LINE
 8
Layer0
10
901.645249075889
20
688.238879672694
30
650.127117919031
11
901.590729950189
21
688.652990085902
31
650.127117709139
  0
LINE
 8
Layer0
10
901.805090169144
20
687.852990317694
30
650.127118139183
11
901.645249075889
21
688.238879672694
31
650.127117919031
  0
LINE
 8
Layer0
10
902.059360323597
20
687.521619742734
30
650.127118354594
11
901.805090169144
21
687.852990317694
31
650.127118139183
  0
LINE
 8
Layer0
10
902.390731448424
20
687.267350304882
30
650.127118550583
11
902.059360323597
21
687.521619742734
31
650.127118354594
  0
LINE
 8
Layer0
10
902.776621149084
20
687.107510046127
30
650.127118713793
11
902.390731448424
21
687.267350304882
31
650.127118550583
  0
LINE
 8
Layer0
10
903.190731680191
20
687.052991815954
30
650.127118833103
11
902.776621149084
21
687.107510046127
31
650.127118713793
  0
LINE
 8
Layer0
10
903.604842093399
20
687.107510941655
30
650.127118900381
11
903.190731680191
21
687.052991815954
31
650.127118833103
  0
LINE
 8
Layer0
10
903.990731448398
20
687.267352034909
30
650.127118911043
11
903.604842093399
21
687.107510941655
31
650.127118900381
  0
LINE
 8
Layer0
10
904.322102023358
20
687.521622189362
30
650.127118864362
11
903.990731448398
21
687.267352034909
31
650.127118911043
  0
LINE
 8
Layer0
10
904.576371461211
20
687.852993314188
30
650.127118763519
11
904.322102023358
21
687.521622189362
31
650.127118864362
  0
LINE
 8
Layer0
10
904.736211719966
20
688.238883014849
30
650.127118615386
11
904.576371461211
21
687.852993314188
31
650.127118763519
  0
LINE
 8
Layer0
10
904.790729950139
20
688.652993545956
30
650.127118430059
11
904.736211719966
21
688.238883014849
31
650.127118615386
  0
LINE
 8
Layer0
10
904.736210824438
20
689.067103959164
30
650.127118220167
11
904.790729950139
21
688.652993545956
31
650.127118430059
  0
LINE
 8
Layer0
10
904.576369731184
20
689.452993314163
30
650.127118000014
11
904.736210824438
21
689.067103959164
31
650.127118220167
  0
LINE
 8
Layer0
10
904.557640437587
20
689.477401750158
30
650.127123933266
11
904.576369731184
21
689.452993314163
31
650.127118000014
  0
LINE
 8
Layer0
10
904.322099576731
20
689.784363889123
30
650.127117784604
11
904.557640437587
21
689.477401750158
31
650.127123933266
  0
LINE
 8
Layer0
10
903.990728451904
20
690.038633326976
30
650.127117588615
11
904.322099576731
21
689.784363889123
31
650.127117784604
  0
LINE
 8
Layer0
10
903.604838751244
20
690.198473585731
30
650.127117425404
11
903.990728451904
21
690.038633326976
31
650.127117588615
  0
LINE
 8
Layer0
10
903.190728220137
20
690.252991815904
30
650.127117306095
11
903.604838751244
21
690.198473585731
31
650.127117425404
  0
LINE
 8
Layer0
10
902.776617806929
20
690.198472690203
30
650.127117238816
11
903.190728220137
21
690.252991815904
31
650.127117306095
  0
LINE
 8
Layer0
10
921.740719665573
20
975.433122230901
30
650.127248922142
11
920.70518575964
21
974.638529117912
31
650.127247769621
  0
LINE
 8
Layer0
10
922.94662444006
20
975.932624343424
30
650.127249901323
11
921.740719665573
21
975.433122230901
31
650.127248922142
  0
LINE
 8
Layer0
10
927.740718171376
20
694.533160136677
30
650.127129240088
11
926.534813396889
21
695.0326622492
31
650.127129804812
  0
LINE
 8
Layer0
10
1228.73615085545
20
974.067147162973
30
650.127311326681
11
1228.79066998116
21
973.653036749766
31
650.127310783536
  0
LINE
 8
Layer0
10
1228.5763097622
20
974.453036517972
30
650.127311810501
11
1228.73615085545
21
974.067147162973
31
650.127311326681
  0
LINE
 8
Layer0
10
1228.32203960775
20
974.784407092931
30
650.127312202023
11
1228.5763097622
21
974.453036517972
31
650.127311810501
  0
LINE
 8
Layer0
10
1227.99066848292
20
975.038676530784
30
650.127312474566
11
1228.32203960775
21
974.784407092931
31
650.127312202023
  0
LINE
 8
Layer0
10
1227.60477878226
20
975.198516789539
30
650.127312609558
11
1227.99066848292
21
975.038676530784
31
650.127312474566
  0
LINE
 8
Layer0
10
1227.19066825115
20
975.253035019712
30
650.127312597797
11
1227.60477878226
21
975.198516789539
31
650.127312609558
  0
LINE
 8
Layer0
10
922.740718171378
20
685.872906098835
30
650.127124545619
11
923.946622945865
21
685.373403986312
31
650.127123980894
  0
LINE
 8
Layer0
10
1208.64068026562
20
686.87290460456
30
650.127191775235
11
1209.67621417155
21
687.667497717549
31
650.127191775235
  0
LINE
 8
Layer0
10
1208.49066998184
20
994.538674243392
30
650.127296156262
11
1208.82204083174
21
994.284404447236
31
650.127296117745
  0
LINE
 8
Layer0
10
1208.104780454
20
994.6985149194
30
650.127296141605
11
1208.49066998184
21
994.538674243392
31
650.127296156262
  0
LINE
 8
Layer0
10
1207.69066998184
20
994.753033597337
30
650.127296074772
11
1208.104780454
21
994.6985149194
31
650.127296141605
  0
LINE
 8
Layer0
10
1207.27655950968
20
994.698514919401
30
650.127295960318
11
1207.69066998184
21
994.753033597337
31
650.127296074772
  0
LINE
 8
Layer0
10
1206.89066998184
20
994.538674243393
30
650.127295806044
11
1207.27655950968
21
994.698514919401
31
650.127295960318
  0
LINE
 8
Layer0
10
901.590679786156
20
973.652983434012
30
650.127221211056
11
901.645198464094
21
974.067093906175
31
650.12722140435
  0
LINE
 8
Layer0
10
901.645198464093
20
973.238872961848
30
650.127221040924
11
901.590679786156
21
973.652983434012
31
650.127221211056
  0
LINE
 8
Layer0
10
901.805039140101
20
972.852983434012
30
650.127220905547
11
901.645198464093
21
973.238872961848
31
650.127221040924
  0
LINE
 8
Layer0
10
901.823719832125
20
972.828638282174
30
650.127229349407
11
901.805039140101
21
972.852983434012
31
650.127220905547
  0
LINE
 8
Layer0
10
1129.81891769826
20
716.141634768136
30
650.127253579798
11
1200.1907215676
21
660.095408400267
31
650.127168760659
  0
LINE
 8
Layer0
10
1064.81891769826
20
716.141634768136
30
650.127253579798
11
999.818917698265
21
716.141634768136
31
650.127253579798
  0
LINE
 8
Layer0
10
924.240719665573
20
966.102995211981
30
650.127242116747
11
925.534814891085
21
966.273366080536
31
650.12724285586
  0
LINE
 8
Layer0
10
925.534814891085
20
966.273366080536
30
650.12724285586
11
926.740719665573
21
966.772868193058
31
650.127243835042
  0
LINE
 8
Layer0
10
926.740719665573
20
966.772868193058
30
650.127243835042
11
927.776253571505
21
967.567461306048
31
650.127244987562
  0
LINE
 8
Layer0
10
927.776253571505
20
967.567461306048
30
650.127244987562
11
928.570846684495
21
968.602995211981
31
650.127246234879
  0
LINE
 8
Layer0
10
1208.67621566575
20
968.567459811823
30
650.127312883524
11
1209.47080877874
21
969.602993717756
31
650.127313608208
  0
LINE
 8
Layer0
10
1210.14068175981
20
972.102993717756
30
650.127314539212
11
1209.97031089126
21
973.397088943268
31
650.127314682085
  0
LINE
 8
Layer0
10
902.390728451929
20
690.038631596949
30
650.127117228155
11
902.776617806929
21
690.198472690203
31
650.127117238816
  0
LINE
 8
Layer0
10
902.05935787697
20
689.784361442496
30
650.127117274836
11
902.390728451929
21
690.038631596949
31
650.127117228155
  0
LINE
 8
Layer0
10
901.823819758578
20
689.477401503109
30
650.127123924438
11
902.05935787697
21
689.784361442496
31
650.127117274836
  0
LINE
 8
Layer0
10
901.805088439117
20
689.452990317669
30
650.127117375679
11
901.823819758578
21
689.477401503109
31
650.127123924438
  0
LINE
 8
Layer0
10
913.190729949508
20
721.152991815924
30
650.127130927051
11
913.190683105082
21
941.152983434032
31
650.12722292905
  0
LINE
 8
Layer0
10
904.790679786155
20
973.65298343401
30
650.127221890788
11
904.736161108217
21
973.238872961847
31
650.127221697494
  0
LINE
 8
Layer0
10
904.736161108217
20
974.067093906175
30
650.12722206092
11
904.790679786155
21
973.65298343401
31
650.127221890788
  0
LINE
 8
Layer0
10
1228.57631149223
20
972.853036517999
30
650.127309668846
11
1228.55758017276
21
972.828625332553
31
650.127316188526
  0
LINE
 8
Layer0
10
1228.73615175098
20
973.238926218659
30
650.127310218079
11
1228.57631149223
21
972.853036517999
31
650.127309668846
  0
LINE
 8
Layer0
10
1228.79066998116
20
973.653036749766
30
650.127310783536
11
1228.73615175098
21
973.238926218659
31
650.127310218079
  0
LINE
 8
Layer0
10
955.190678363742
20
983.152983433998
30
650.127253006136
11
930.190678363741
21
1002.09539883256
31
650.127261128118
  0
LINE
 8
Layer0
10
928.776252077309
20
693.738567023688
30
650.127128515403
11
927.740718171376
21
694.533160136677
31
650.127129240088
  0
LINE
 8
Layer0
10
1209.97031089126
20
973.397088943268
30
650.127314682085
11
1209.47080877874
21
974.602993717756
31
650.127314591815
  0
LINE
 8
Layer0
10
1209.47080877874
20
974.602993717756
30
650.127314591815
11
1208.67621566575
21
975.638527623689
31
650.127314274553
  0
LINE
 8
Layer0
10
921.305089303458
20
668.352993238346
30
650.127093944343
11
921.14524862745
21
668.738882766182
31
650.127094074464
  0
LINE
 8
Layer0
10
921.559359099614
20
668.021622388448
30
650.127093857298
11
921.305089303458
21
668.352993238346
31
650.127093944343
  0
LINE
 8
Layer0
10
921.890729949512
20
667.767352592292
30
650.12709381926
11
921.559359099614
21
668.021622388448
31
650.127093857298
  0
LINE
 8
Layer0
10
922.276619477348
20
667.607511916284
30
650.127093832821
11
921.890729949512
21
667.767352592292
31
650.12709381926
  0
LINE
 8
Layer0
10
922.690729949512
20
667.552993238346
30
650.127093897058
11
922.276619477348
21
667.607511916284
31
650.127093832821
  0
LINE
 8
Layer0
10
923.104840421675
20
667.607511916284
30
650.127094007593
11
922.690729949512
21
667.552993238346
31
650.127093897058
  0
LINE
 8
Layer0
10
923.515088050924
20
994.519893624926
30
650.127260146139
11
923.822047990309
21
994.284355506538
31
650.127253278345
  0
LINE
 8
Layer0
10
923.490676865483
20
994.538624944391
30
650.127253614732
11
923.515088050924
21
994.519893624926
31
650.127260146139
  0
LINE
 8
Layer0
10
923.104787164822
20
994.698465203146
30
650.127253948614
11
923.490676865483
21
994.538624944391
31
650.127253614732
  0
LINE
 8
Layer0
10
922.690676633715
20
994.752983433318
30
650.127254257238
11
923.104787164822
21
994.698465203146
31
650.127253948614
  0
LINE
 8
Layer0
10
1200.16912396674
20
1002.095403904
30
650.127297908721
11
1215.19066998184
21
1002.095403904
31
650.127297884544
  0
LINE
 8
Layer0
10
915.190729949514
20
681.152991815935
30
650.127106954431
11
894.169128289269
21
681.152991815931
31
650.12720471025
  0
LINE
 8
Layer0
10
1228.73620146726
20
688.23893292951
30
650.127166814573
11
1228.57636079125
21
687.853043401674
31
650.127166611053
  0
LINE
 8
Layer0
10
1228.7907201452
20
688.653043401673
30
650.127167007365
11
1228.73620146726
21
688.23893292951
31
650.127166814573
  0
LINE
 8
Layer0
10
1228.73620146726
20
689.067153873837
30
650.12716717629
11
1228.7907201452
21
688.653043401673
31
650.127167007365
  0
LINE
 8
Layer0
10
1228.57636079125
20
689.453043401673
30
650.127167309836
11
1228.73620146726
21
689.067153873837
31
650.12716717629
  0
LINE
 8
Layer0
10
1228.3220909951
20
689.784414251571
30
650.127167398902
11
1228.57636079125
21
689.453043401673
31
650.127167309836
  0
LINE
 8
Layer0
10
904.57632043221
20
974.45298343401
30
650.127222196297
11
904.736161108217
21
974.067093906175
31
650.12722206092
  0
LINE
 8
Layer0
10
904.322050636054
20
974.784354283908
30
650.127222287693
11
904.57632043221
21
974.45298343401
31
650.127222196297
  0
LINE
 8
Layer0
10
1206.14518865978
20
993.567144069503
30
650.127295218562
11
1206.30502933579
21
993.953033597338
31
650.127295422082
  0
LINE
 8
Layer0
10
1206.09066998184
20
993.153033597339
30
650.12729502577
11
1206.14518865978
21
993.567144069503
31
650.127295218562
  0
LINE
 8
Layer0
10
1206.14518865978
20
992.738923125175
30
650.127294856845
11
1206.09066998184
21
993.153033597339
31
650.12729502577
  0
LINE
 8
Layer0
10
1206.30502933579
20
992.353033597339
30
650.127294723299
11
1206.14518865978
21
992.738923125175
31
650.127294856845
  0
LINE
 8
Layer0
10
926.534813396889
20
695.0326622492
30
650.127129804812
11
925.240718171377
21
695.203033117755
31
650.127130171092
  0
LINE
 8
Layer0
10
925.240718171377
20
695.203033117755
30
650.127130171092
11
923.946622945865
21
695.0326622492
31
650.127130313964
  0
LINE
 8
Layer0
10
1225.80503020016
20
972.853033521504
30
650.127309101785
11
1225.64518910691
21
973.238922876504
31
650.127309585605
  0
LINE
 8
Layer0
10
1225.64523882314
20
689.067153873838
30
650.127166499719
11
1225.80507949914
21
689.453043401674
31
650.127166703239
  0
LINE
 8
Layer0
10
1225.5907201452
20
688.653043401674
30
650.127166306927
11
1225.64523882314
21
689.067153873838
31
650.127166499719
  0
LINE
 8
Layer0
10
1225.64523882314
20
688.23893292951
30
650.127166138002
11
1225.5907201452
21
688.653043401674
31
650.127166306927
  0
LINE
 8
Layer0
10
1225.80507949914
20
687.853043401675
30
650.127166004456
11
1225.64523882314
21
688.23893292951
31
650.127166138002
  0
LINE
 8
Layer0
10
1226.0593492953
20
687.521672551777
30
650.12716591539
11
1225.80507949914
21
687.853043401675
31
650.127166004456
  0
LINE
 8
Layer0
10
1226.3907201452
20
687.26740275562
30
650.127165876873
11
1226.0593492953
21
687.521672551777
31
650.12716591539
  0
LINE
 8
Layer0
10
1226.77660967303
20
687.107562079612
30
650.12716589153
11
1226.3907201452
21
687.26740275562
31
650.127165876873
  0
LINE
 8
Layer0
10
1227.1907201452
20
687.053043401675
30
650.127165958363
11
1226.77660967303
21
687.107562079612
31
650.12716589153
  0
LINE
 8
Layer0
10
1225.82375949375
20
972.828625085505
30
650.127315022065
11
1225.80503020016
21
972.853033521504
31
650.127309101785
  0
LINE
 8
Layer0
10
1227.60483061736
20
687.107562079612
30
650.127166072817
11
1227.1907201452
21
687.053043401675
31
650.127165958363
  0
LINE
 8
Layer0
10
1227.9907201452
20
687.267402755619
30
650.127166227092
11
1227.60483061736
21
687.107562079612
31
650.127166072817
  0
LINE
 8
Layer0
10
1228.32209099509
20
687.521672551776
30
650.127166410674
11
1227.9907201452
21
687.267402755619
31
650.127166227092
  0
LINE
 8
Layer0
10
1228.57636079125
20
687.853043401674
30
650.127166611053
11
1228.32209099509
21
687.521672551776
31
650.127166410674
  0
LINE
 8
Layer0
10
1215.1907215676
20
681.153043401674
30
650.127172948295
11
1215.1907215676
21
660.09540839928
31
650.127235333131
  0
LINE
 8
Layer0
10
1209.97031089126
20
970.808898492243
30
650.127314172933
11
1210.14068175981
21
972.102993717756
31
650.127314539212
  0
LINE
 8
Layer0
10
1210.97030939706
20
692.497126848994
30
650.127191775235
11
1210.47080728454
21
693.703031623482
31
650.127191775235
  0
LINE
 8
Layer0
10
930.240718171376
20
690.203033117756
30
650.127125909247
11
930.070347302821
21
691.497128343268
31
650.127126791233
  0
LINE
 8
Layer0
10
923.946622945865
20
685.373403986312
30
650.127123980894
11
925.240718171377
21
685.203033117757
31
650.127123614615
  0
LINE
 8
Layer0
10
1236.16912396607
20
981.153035019736
30
650.127307917444
11
1236.16912396508
21
966.095403903778
31
650.127297708407
  0
LINE
 8
Layer0
10
1208.67621566575
20
975.638527623689
30
650.127314274553
11
1207.64068175981
21
976.433120736678
31
650.127313751921
  0
LINE
 8
Layer0
10
1206.43477698533
20
976.932622849202
30
650.127313059535
11
1205.14068175981
21
977.102993717757
31
650.12731224458
  0
LINE
 8
Layer0
10
1203.64068026562
20
695.533158642404
30
650.127191775235
11
1202.60514635969
21
694.738565529414
31
650.127191775235
  0
LINE
 8
Layer0
10
1215.19066998184
20
1002.095403904
30
650.127297884544
11
1215.19066998183
21
981.15303501974
31
650.127303689649
  0
LINE
 8
Layer0
10
1201.31105113417
20
692.497126848994
30
650.127191775235
11
1201.14068026562
21
691.203031623482
31
650.127191775235
  0
LINE
 8
Layer0
10
1209.67621417155
20
687.667497717549
30
650.127191775235
11
1210.47080728454
21
688.703031623482
31
650.127191775235
  0
LINE
 8
Layer0
10
1206.55929913194
20
992.021662747441
30
650.127294634233
11
1206.30502933579
21
992.353033597339
31
650.127294723299
  0
LINE
 8
Layer0
10
1206.86630987247
20
991.786085120633
30
650.12730339273
11
1206.55929913194
21
992.021662747441
31
650.127294634233
  0
LINE
 8
Layer0
10
1206.89066998184
20
991.767392951285
30
650.127294595716
11
1206.86630987247
21
991.786085120633
31
650.12730339273
  0
LINE
 8
Layer0
10
1207.27655950968
20
991.607552275277
30
650.127294610373
11
1206.89066998184
21
991.767392951285
31
650.127294595716
  0
LINE
 8
Layer0
10
1207.69066998184
20
991.553033597339
30
650.127294677206
11
1207.27655950968
21
991.607552275277
31
650.127294610373
  0
LINE
 8
Layer0
10
923.822050436937
20
992.021613806777
30
650.127252317728
11
923.515088297973
21
991.786072945917
31
650.127258378465
  0
LINE
 8
Layer0
10
924.076319874789
20
992.352984931603
30
650.127252283119
11
923.822050436937
21
992.021613806777
31
650.127252317728
  0
LINE
 8
Layer0
10
924.236160133544
20
992.738874632264
30
650.127252336753
11
924.076319874789
21
992.352984931603
31
650.127252283119
  0
LINE
 8
Layer0
10
924.290678363717
20
993.152985163371
30
650.127252474974
11
924.236160133544
21
992.738874632264
31
650.127252336753
  0
LINE
 8
Layer0
10
924.236159238016
20
993.567095576579
30
650.127252688363
11
924.290678363717
21
993.152985163371
31
650.127252474974
  0
LINE
 8
Layer0
10
924.076318144762
20
993.952984931579
30
650.127252962378
11
924.236159238016
21
993.567095576579
31
650.127252688363
  0
LINE
 8
Layer0
10
925.534814891085
20
975.932624343424
30
650.127251089112
11
924.240719665573
21
976.102995211978
31
650.127250640437
  0
LINE
 8
Layer0
10
924.240719665573
20
976.102995211978
30
650.127250640437
11
922.94662444006
21
975.932624343424
31
650.127249901323
  0
LINE
 8
Layer0
10
1208.104780454
20
991.607552275276
30
650.12729479166
11
1207.69066998184
21
991.553033597339
31
650.127294677206
  0
LINE
 8
Layer0
10
1208.49066998184
20
991.767392951284
30
650.127294945935
11
1208.104780454
21
991.607552275276
31
650.12729479166
  0
LINE
 8
Layer0
10
1208.82204083174
20
992.02166274744
30
650.127295129517
11
1208.49066998184
21
991.767392951284
31
650.127294945935
  0
LINE
 8
Layer0
10
1209.07631062789
20
992.353033597339
30
650.127295329896
11
1208.82204083174
21
992.02166274744
31
650.127295129517
  0
LINE
 8
Layer0
10
929.570845190298
20
692.703033117756
30
650.127127680144
11
928.776252077309
21
693.738567023688
31
650.127128515403
  0
LINE
 8
Layer0
10
1204.84658504011
20
686.373402492036
30
650.127191775235
11
1206.14068026562
21
686.203031623482
31
650.127191775235
  0
LINE
 8
Layer0
10
1201.8105532467
20
693.703031623482
30
650.127191775235
11
1201.31105113417
21
692.497126848994
31
650.127191775235
  0
LINE
 8
Layer0
10
1209.47080877874
20
969.602993717756
30
650.127313608208
11
1209.97031089126
21
970.808898492243
31
650.127314172933
  0
LINE
 8
Layer0
10
913.190729949508
20
721.152991815924
30
650.127130927051
11
894.169128290251
21
696.095403329045
31
650.127297708407
  0
LINE
 8
Layer0
10
923.822047990309
20
994.284355506538
30
650.127253278345
11
924.076318144762
21
993.952984931579
31
650.127252962378
  0
LINE
 8
Layer0
10
915.190678363746
20
981.152983434001
30
650.127237695785
11
915.190678363742
21
1002.09539883354
31
650.127277294563
  0
LINE
 8
Layer0
10
1206.30508005656
20
669.953041904066
30
650.12717200866
11
1206.55934949441
21
670.284413028892
31
650.127172443066
  0
LINE
 8
Layer0
10
1206.1452397978
20
669.567152203405
30
650.127171655491
11
1206.30508005656
21
669.953041904066
31
650.12717200866
  0
LINE
 8
Layer0
10
1206.09072156763
20
669.153041672299
30
650.127171407627
11
1206.1452397978
21
669.567152203405
31
650.127171655491
  0
LINE
 8
Layer0
10
1206.14524069333
20
668.73893125909
30
650.127171281959
11
1206.09072156763
21
669.153041672299
31
650.127171407627
  0
LINE
 8
Layer0
10
1206.30508178658
20
668.35304190409
30
650.127171287051
11
1206.14524069333
21
668.73893125909
31
650.127171281959
  0
LINE
 8
Layer0
10
1206.55935194104
20
668.021671329131
30
650.127171422557
11
1206.30508178658
21
668.35304190409
31
650.127171287051
  0
LINE
 8
Layer0
10
1206.89072306586
20
667.767401891278
30
650.127171679241
11
1206.55935194104
21
668.021671329131
31
650.127171422557
  0
LINE
 8
Layer0
10
1207.27661276652
20
667.607561632523
30
650.127172039611
11
1206.89072306586
21
667.767401891278
31
650.127171679241
  0
LINE
 8
Layer0
10
1207.69072329763
20
667.55304340235
30
650.127172479109
11
1207.27661276652
21
667.607561632523
31
650.127172039611
  0
LINE
 8
Layer0
10
1208.10483371084
20
667.60756252805
30
650.127172967784
11
1207.69072329763
21
667.55304340235
31
650.127172479109
  0
LINE
 8
Layer0
10
1208.49072306584
20
667.767403621304
30
650.127173472332
11
1208.10483371084
21
667.60756252805
31
650.127172967784
  0
LINE
 8
Layer0
10
1208.8220936408
20
668.021673775757
30
650.127173958371
11
1208.49072306584
21
667.767403621304
31
650.127173472332
  0
LINE
 8
Layer0
10
1209.07636307865
20
668.353044900584
30
650.127174392776
11
1208.8220936408
21
668.021673775757
31
650.127173958371
  0
LINE
 8
Layer0
10
923.946622945865
20
695.0326622492
30
650.127130313964
11
922.740718171378
21
694.533160136677
31
650.127130223694
  0
LINE
 8
Layer0
10
920.240718171378
20
690.203033117756
30
650.12712787646
11
920.411089039933
21
688.908937892244
31
650.127126994474
  0
LINE
 8
Layer0
10
920.411089039933
20
688.908937892244
30
650.127126994474
11
920.910591152456
21
687.703033117756
31
650.127126105562
  0
LINE
 8
Layer0
10
920.910591152456
20
687.703033117756
30
650.127126105562
11
921.705184265446
21
686.667499211824
31
650.127125270304
  0
LINE
 8
Layer0
10
921.705184265446
20
686.667499211824
30
650.127125270304
11
922.740718171378
21
685.872906098835
31
650.127124545619
  0
LINE
 8
Layer0
10
1236.1907187228
20
696.153043401643
30
650.127182796147
11
1217.19071682626
21
716.152718100849
31
650.127198383914
  0
LINE
 8
Layer0
10
1211.14068026562
20
691.203031623482
30
650.127191775235
11
1210.97030939706
21
692.497126848994
31
650.127191775235
  0
LINE
 8
Layer0
10
1200.1907215676
20
660.095408400267
30
650.127168760659
11
1215.1907215676
21
660.09540839928
31
650.127235333131
  0
LINE
 8
Layer0
10
1210.97030939706
20
689.908936397969
30
650.127191775235
11
1211.14068026562
21
691.203031623482
31
650.127191775235
  0
LINE
 8
Layer0
10
1201.14068026562
20
691.203031623482
30
650.127191775235
11
1201.31105113417
21
689.908936397969
31
650.127191775235
  0
LINE
 8
Layer0
10
894.190681208546
20
966.152983434033
30
650.127226810326
11
894.169128472326
21
981.160630462431
31
650.127297856234
  0
LINE
 8
Layer0
10
894.190681208546
20
966.152983434033
30
650.127226810326
11
913.190683105082
21
941.152983434032
31
650.12722292905
  0
LINE
 8
Layer0
10
1225.80507949914
20
689.453043401674
30
650.127166703239
11
1226.0593492953
21
689.784414251572
31
650.127166903618
  0
LINE
 8
Layer0
10
1209.2362033374
20
668.738934601244
30
650.127174745945
11
1209.07636307865
21
668.353044900584
31
650.127174392776
  0
LINE
 8
Layer0
10
1209.29072156758
20
669.153045132351
30
650.127174993809
11
1209.2362033374
21
668.738934601244
31
650.127174745945
  0
LINE
 8
Layer0
10
1209.23620244187
20
669.567155545559
30
650.127175119478
11
1209.29072156758
21
669.153045132351
31
650.127174993809
  0
LINE
 8
Layer0
10
1207.69071983757
20
670.753043402299
30
650.127173922327
11
1208.10483036868
21
670.698525172127
31
650.127174361825
  0
LINE
 8
Layer0
10
1207.27660942437
20
670.698524276599
30
650.127173433653
11
1207.69071983757
21
670.753043402299
31
650.127173922327
  0
LINE
 8
Layer0
10
1206.89072006937
20
670.538683183345
30
650.127172929105
11
1207.27660942437
21
670.698524276599
31
650.127173433653
  0
LINE
 8
Layer0
10
1206.55934949441
20
670.284413028892
30
650.127172443066
11
1206.89072006937
21
670.538683183345
31
650.127172929105
  0
LINE
 8
Layer0
10
1227.9907201452
20
690.038684047728
30
650.127167437419
11
1228.3220909951
21
689.784414251571
31
650.127167398902
  0
LINE
 8
Layer0
10
1227.60483061736
20
690.198524723735
30
650.127167422762
11
1227.9907201452
21
690.038684047728
31
650.127167437419
  0
LINE
 8
Layer0
10
1227.1907201452
20
690.253043401673
30
650.127167355929
11
1227.60483061736
21
690.198524723735
31
650.127167422762
  0
LINE
 8
Layer0
10
1226.77660967303
20
690.198524723736
30
650.127167241475
11
1227.1907201452
21
690.253043401673
31
650.127167355929
  0
LINE
 8
Layer0
10
929.570845190299
20
687.703033117756
30
650.127124401906
11
930.070347302822
21
688.908937892244
31
650.127125094292
  0
LINE
 8
Layer0
10
894.169128472326
20
981.160630462431
30
650.127297856234
11
915.190678363746
21
981.152983434001
31
650.127237695785
  0
LINE
 8
Layer0
10
1129.81891769826
20
716.141634768136
30
650.127253579798
11
1064.81891769826
21
716.141634768136
31
650.127253579798
  0
LINE
 8
Layer0
10
1236.1907187228
20
696.153043401643
30
650.127182796147
11
1236.16912903652
21
681.142708107669
31
650.127297886
  0
LINE
 8
Layer0
10
1202.60514635969
20
687.667497717549
30
650.127191775235
11
1203.64068026562
21
686.87290460456
31
650.127191775235
  0
LINE
 8
Layer0
10
1207.64068175981
20
976.433120736678
30
650.127313751921
11
1206.43477698533
21
976.932622849202
31
650.127313059535
  0
LINE
 8
Layer0
10
1209.07636134862
20
669.953044900559
30
650.127175114385
11
1209.23620244187
21
669.567155545559
31
650.127175119478
  0
LINE
 8
Layer0
10
1208.82209119417
20
670.284415475518
30
650.12717497888
11
1209.07636134862
21
669.953044900559
31
650.127175114385
  0
LINE
 8
Layer0
10
922.740718171378
20
694.533160136677
30
650.127130223694
11
921.705184265445
21
693.738567023688
31
650.127129906433
  0
LINE
 8
Layer0
10
921.705184265445
20
693.738567023688
30
650.127129906433
11
920.910591152456
21
692.703033117755
31
650.127129383801
  0
LINE
 8
Layer0
10
920.910591152456
20
692.703033117755
30
650.127129383801
11
920.411089039933
21
691.497128343268
31
650.127128691415
  0
LINE
 8
Layer0
10
920.411089039933
20
691.497128343268
30
650.127128691415
11
920.240718171378
21
690.203033117756
31
650.12712787646
  0
LINE
 8
Layer0
10
1215.19066998183
20
981.15303501974
30
650.127303689649
11
1236.16912396607
21
981.153035019736
31
650.127307917444
  0
LINE
 8
Layer0
10
955.190678363742
20
983.152983433998
30
650.127253006136
11
1175.19066998186
21
983.153030278409
31
650.127297325902
  0
LINE
 8
Layer0
10
1202.60514635969
20
694.738565529414
30
650.127191775235
11
1201.8105532467
21
693.703031623482
31
650.127191775235
  0
LINE
 8
Layer0
10
1205.14068175981
20
977.102993717757
30
650.12731224458
11
1203.8465865343
21
976.932622849202
31
650.127311362594
  0
LINE
 8
Layer0
10
930.190729949485
20
660.095403328822
30
650.127102587621
11
915.190729949513
21
660.052991815949
31
650.127081972575
  0
LINE
 8
Layer0
10
1208.49072006934
20
670.538684913371
30
650.127174722196
11
1208.82209119417
21
670.284415475518
31
650.12717497888
  0
LINE
 8
Layer0
10
1227.99067147941
20
972.26739523872
30
650.127308765112
11
1227.60478212442
21
972.107554145465
31
650.127308472199
  0
LINE
 8
Layer0
10
1228.32204205437
20
972.521665393172
30
650.127309173266
11
1227.99067147941
21
972.26739523872
31
650.127308765112
  0
LINE
 8
Layer0
10
1228.55758017276
20
972.828625332553
30
650.127316188526
11
1228.32204205437
21
972.521665393172
31
650.127309173266
  0
LINE
 8
Layer0
10
1206.14068026562
20
686.203031623482
30
650.127191775235
11
1207.43477549113
21
686.373402492036
31
650.127191775235
  0
LINE
 8
Layer0
10
1217.19066998184
20
946.152787941448
30
650.127290781608
11
1217.19071682626
21
716.152718100849
31
650.127198383914
  0
LINE
 8
Layer0
10
1236.16912903652
20
681.142708107669
30
650.127297886
11
1215.1907215676
21
681.153043401674
31
650.127172948295
  0
LINE
 8
Layer0
10
930.190729949485
20
660.095403328822
30
650.127102587621
11
999.818917698265
21
716.141634768136
31
650.127253579798
  0
LINE
 8
Layer0
10
1201.31105113417
20
689.908936397969
30
650.127191775235
11
1201.8105532467
21
688.703031623482
31
650.127191775235
  0
LINE
 8
Layer0
10
894.169128290251
20
696.095403329045
30
650.127297708407
11
894.169128289269
21
681.152991815931
31
650.12720471025
  0
LINE
 8
Layer0
10
1217.19066998184
20
946.152787941448
30
650.127290781608
11
1236.16912396508
21
966.095403903778
31
650.127297708407
  0
LINE
 8
Layer0
10
1208.10483036868
20
670.698525172127
30
650.127174361825
11
1208.49072006934
21
670.538684913371
31
650.127174722196
  0
LINE
 8
Layer0
10
1203.64068026562
20
686.87290460456
30
650.127191775235
11
1204.84658504011
21
686.373402492036
31
650.127191775235
  0
LINE
 8
Layer0
10
1207.43477549113
20
686.373402492036
30
650.127191775235
11
1208.64068026562
21
686.87290460456
31
650.127191775235
  0
LINE
 8
Layer0
10
1206.55929913194
20
994.284404447237
30
650.127295622461
11
1206.86632483
21
994.519993551363
31
650.127304243131
  0
LINE
 8
Layer0
10
1206.30502933579
20
993.953033597338
30
650.127295422082
11
1206.55929913194
21
994.284404447237
31
650.127295622461
  0
LINE
 8
Layer0
10
915.190729949513
20
660.052991815949
30
650.127081972575
11
915.190729949514
21
681.152991815935
31
650.127106954431
  0
LINE
 8
Layer0
10
1210.47080728454
20
688.703031623482
30
650.127191775235
11
1210.97030939706
21
689.908936397969
31
650.127191775235
  0
LINE
 8
Layer0
10
1204.84658504011
20
696.032660754927
30
650.127191775235
11
1203.64068026562
21
695.533158642404
31
650.127191775235
  0
LINE
 8
Layer0
10
1209.67621417155
20
694.738565529414
30
650.127191775235
11
1208.64068026562
21
695.533158642404
31
650.127191775235
  0
LINE
 8
Layer0
10
930.190678363741
20
1002.09539883256
30
650.127261128118
11
915.190678363742
21
1002.09539883354
31
650.127277294563
  0
LINE
 8
Layer0
10
923.515090058877
20
670.519941715043
30
650.127104124978
11
923.822100799411
21
670.284364088243
31
650.127095295554
  0
LINE
 8
Layer0
10
923.822100799411
20
670.284364088243
30
650.127095295554
11
924.076370595566
21
669.952993238345
31
650.127095208509
  0
LINE
 8
Layer0
10
924.076370595566
20
669.952993238345
30
650.127095208509
11
924.236211271574
21
669.567103710509
31
650.127095078388
  0
LINE
 8
Layer0
10
924.236211271574
20
669.567103710509
30
650.127095078388
11
924.290729949511
21
669.152993238345
31
650.127094914059
  0
LINE
 8
Layer0
10
924.290729949511
20
669.152993238345
30
650.127094914059
11
924.236211271574
21
668.738882766181
31
650.127094726721
  0
LINE
 8
Layer0
10
924.236211271574
20
668.738882766181
30
650.127094726721
11
924.076370595566
21
668.352993238346
31
650.127094529141
  0
LINE
 8
Layer0
10
924.076370595566
20
668.352993238346
30
650.127094529141
11
923.822100799409
21
668.021622388447
31
650.127094334783
  0
LINE
 8
Layer0
10
923.822100799409
20
668.021622388447
30
650.127094334783
11
923.515075101344
21
667.786033284313
31
650.127102620536
  0
LINE
 8
Layer0
10
901.645248180362
20
689.067100617009
30
650.127117523812
11
901.805088439117
21
689.452990317669
31
650.127117375679
  0
LINE
 8
Layer0
10
921.890676865508
20
994.538623214363
30
650.127254717737
11
922.276566220507
21
994.698464307617
31
650.127254519572
  0
LINE
 8
Layer0
10
922.276566220507
20
994.698464307617
30
650.127254519572
11
922.690676633715
21
994.752983433318
31
650.127254257238
  0
LINE
 8
Layer0
10
901.645198464094
20
974.067093906175
30
650.12722140435
11
901.805039140101
21
974.452983434011
31
650.127221607632
  0
LINE
 8
Layer0
10
901.805039140101
20
974.452983434011
30
650.127221607632
11
902.059308936258
21
974.78435428391
31
650.12722180705
  0
LINE
 8
Layer0
10
904.736161108217
20
973.238872961847
30
650.127221697494
11
904.57632043221
21
972.852983434011
31
650.127221494212
  0
LINE
 8
Layer0
10
904.57632043221
20
972.852983434011
30
650.127221494212
11
904.557628262855
21
972.82862332464
31
650.127230273734
  0
LINE
 8
Layer0
10
904.557628262855
20
972.82862332464
30
650.127230273734
11
904.322050636053
21
972.521612584113
31
650.127221294794
  0
LINE
 8
Layer0
10
904.322050636053
20
972.521612584113
30
650.127221294794
11
903.990679786155
21
972.267342787957
31
650.127221112831
  0
LINE
 8
Layer0
10
903.990679786155
20
972.267342787957
30
650.127221112831
11
903.604790258319
21
972.107502111949
31
650.127220960723
  0
LINE
 8
Layer0
10
903.604790258319
20
972.107502111949
30
650.127220960723
11
903.190679786155
21
972.052983434012
31
650.127220848837
  0
LINE
 8
Layer0
10
903.190679786155
20
972.052983434012
30
650.127220848837
11
902.776569313991
21
972.10750211195
31
650.127220784796
  0
LINE
 8
Layer0
10
902.776569313991
20
972.10750211195
30
650.127220784796
11
902.390679786155
21
972.267342787957
31
650.127220772966
  0
LINE
 8
Layer0
10
902.390679786155
20
972.267342787957
30
650.127220772966
11
902.059308936257
21
972.521612584114
31
650.127220814152
  0
LINE
 8
Layer0
10
902.059308936257
20
972.521612584114
30
650.127220814152
11
901.823719832125
21
972.828638282174
31
650.127229349407
  0
LINE
 8
Layer0
10
1206.86632483
20
994.519993551363
30
650.127304243131
11
1206.89066998184
21
994.538674243393
31
650.127295806044
  0
LINE
 8
Layer0
10
1208.82204083174
20
994.284404447236
30
650.127296117745
11
1209.07631062789
21
993.953033597338
31
650.127296028679
  0
LINE
 8
Layer0
10
1209.07631062789
20
993.953033597338
30
650.127296028679
11
1209.2361513039
21
993.567144069502
31
650.127295895133
  0
LINE
 8
Layer0
10
1209.2361513039
20
993.567144069502
30
650.127295895133
11
1209.29066998184
21
993.153033597338
31
650.127295726208
  0
LINE
 8
Layer0
10
1209.29066998184
20
993.153033597338
30
650.127295726208
11
1209.2361513039
21
992.738923125174
31
650.127295533416
  0
LINE
 8
Layer0
10
1209.2361513039
20
992.738923125174
30
650.127295533416
11
1209.07631062789
21
992.353033597339
31
650.127295329896
  0
LINE
 8
Layer0
10
929.070348797017
20
969.808899986468
30
650.127247491989
11
929.240719665572
21
971.102995211979
31
650.127248673224
  0
LINE
 8
Layer0
10
928.570846684495
20
968.602995211981
30
650.127246234879
11
929.070348797017
21
969.808899986468
31
650.127247491989
  0
LINE
 8
Layer0
10
922.94662444006
20
966.273366080536
30
650.127241668072
11
924.240719665573
21
966.102995211981
31
650.127242116747
  0
LINE
 8
Layer0
10
921.740719665573
20
966.772868193059
30
650.12724154041
11
922.94662444006
21
966.273366080536
31
650.127241668072
  0
LINE
 8
Layer0
10
920.70518575964
20
967.567461306048
30
650.127241742463
11
921.740719665573
21
966.772868193059
31
650.12724154041
  0
LINE
 8
Layer0
10
919.910592646651
20
968.602995211981
30
650.12724226046
11
920.70518575964
21
967.567461306048
31
650.127241742463
  0
LINE
 8
Layer0
10
919.411090534128
20
969.808899986468
30
650.127243059101
11
919.910592646651
21
968.602995211981
31
650.12724226046
  0
LINE
 8
Layer0
10
919.240719665573
20
971.10299521198
30
650.12724408396
11
919.411090534128
21
969.808899986468
31
650.127243059101
  0
LINE
 8
Layer0
10
919.411090534128
20
972.397090437492
30
650.127245265194
11
919.240719665573
21
971.10299521198
31
650.12724408396
  0
LINE
 8
Layer0
10
919.910592646651
20
973.602995211979
30
650.127246522305
11
919.411090534128
21
972.397090437492
31
650.127245265194
  0
LINE
 8
Layer0
10
920.70518575964
20
974.638529117912
30
650.127247769621
11
919.910592646651
21
973.602995211979
31
650.127246522305
  0
LINE
 8
Layer0
10
1201.8105532467
20
688.703031623482
30
650.127191775235
11
1202.60514635969
21
687.667497717549
31
650.127191775235
  0
LINE
 8
Layer0
10
1206.14068026562
20
696.203031623481
30
650.127191775235
11
1204.84658504011
21
696.032660754927
31
650.127191775235
  0
LINE
 8
Layer0
10
1207.43477549113
20
696.032660754927
30
650.127191775235
11
1206.14068026562
21
696.203031623481
31
650.127191775235
  0
LINE
 8
Layer0
10
1208.64068026562
20
695.533158642404
30
650.127191775235
11
1207.43477549113
21
696.032660754927
31
650.127191775235
  0
LINE
 8
Layer0
10
930.070347302822
20
688.908937892244
30
650.127125094292
11
930.240718171376
21
690.203033117756
31
650.127125909247
  0
LINE
 8
Layer0
10
928.776252077309
20
686.667499211824
30
650.127123879274
11
929.570845190299
21
687.703033117756
31
650.127124401906
  0
LINE
 8
Layer0
10
927.740718171376
20
685.872906098834
30
650.127123562012
11
928.776252077309
21
686.667499211824
31
650.127123879274
  0
LINE
 8
Layer0
10
926.53481339689
20
685.373403986312
30
650.127123471742
11
927.740718171376
21
685.872906098834
31
650.127123562012
  0
LINE
 8
Layer0
10
925.240718171377
20
685.203033117757
30
650.127123614615
11
926.53481339689
21
685.373403986312
31
650.127123471742
 0
ENDSEC
 0
EOF
