 0
SECTION
 2
ENTITIES
  0
LINE
 8
Layer0
10
1202.92930670466
20
838.842941811075
30
388.647954776903
11
1199.92930670466
21
838.842941811076
31
388.647955512376
  0
LINE
 8
Layer0
10
1027.74131486239
20
893.30861629932
30
388.647972267418
11
1027.74131486239
21
889.308616299321
31
388.647973948778
  0
LINE
 8
Layer0
10
971.141314862393
20
889.308616299337
30
388.647987824708
11
971.141314862394
21
893.308616299336
31
388.647986143348
  0
LINE
 8
Layer0
10
1027.74131486239
20
889.308616299321
30
388.647973948778
11
971.141314862393
21
889.308616299337
31
388.647987824708
  0
LINE
 8
Layer0
10
1199.92930670466
20
844.842941811074
30
388.647952990336
11
1202.92930670466
21
844.842941811073
31
388.647952254862
  0
LINE
 8
Layer0
10
1205.9293067046
20
844.842941811105
30
388.647951519389
11
1208.9293067046
21
844.842941811104
31
388.647950783916
  0
LINE
 8
Layer0
10
1208.9293067046
20
844.842941811104
30
388.647950783916
11
1208.9293067046
21
838.842941811106
31
388.647953305956
  0
LINE
 8
Layer0
10
1205.9293067046
20
838.842941811108
30
388.64795404143
11
1205.9293067046
21
844.842941811105
31
388.647951519389
  0
LINE
 8
Layer0
10
1199.92930670466
20
838.842941811076
30
388.647955512376
11
1199.92930670466
21
844.842941811074
31
388.647952990336
  0
LINE
 8
Layer0
10
971.141314862394
20
893.308616299336
30
388.647986143348
11
1027.74131486239
21
893.30861629932
31
388.647972267418
  0
LINE
 8
Layer0
10
1208.9293067046
20
838.842941811106
30
388.647953305956
11
1205.9293067046
21
838.842941811108
31
388.64795404143
  0
LINE
 8
Layer0
10
1159.69220070631
20
696.122144198173
30
388.648025368093
11
1159.69220070631
21
760.522144198172
31
388.647998298189
  0
LINE
 8
Layer0
10
1156.79220070631
20
696.122144198174
30
388.648026079051
11
1159.69220070631
21
696.122144198173
31
388.648025368093
  0
LINE
 8
Layer0
10
1202.92930670466
20
844.842941811073
30
388.647952254862
11
1202.92930670466
21
838.842941811075
31
388.647954776903
  0
LINE
 8
Layer0
10
1156.79220070631
20
760.522144198174
30
388.647999009147
11
1156.79220070631
21
696.122144198174
31
388.648026079051
  0
LINE
 8
Layer0
10
1159.69220070631
20
760.522144198172
30
388.647998298189
11
1156.79220070631
21
760.522144198174
31
388.647999009147
  0
LINE
 8
Layer0
10
1038.35196175523
20
696.89250449373
30
388.648048687354
11
1044.35196175523
21
696.892504493729
31
388.648047216408
  0
LINE
 8
Layer0
10
1017.10215057473
20
800.631500268644
30
388.648016395677
11
1017.10215057473
21
797.631500268648
31
388.648017656697
  0
LINE
 8
Layer0
10
1027.7413148623
20
949.308616299352
30
388.647948728371
11
971.141314862301
21
949.308616299321
31
388.647962604301
  0
LINE
 8
Layer0
10
1140.00215057472
20
799.631500268548
30
388.647986686127
11
1140.00215057472
21
796.631500268551
31
388.647987947147
  0
LINE
 8
Layer0
10
1037.7413148624
20
933.308616299335
30
388.647953002235
11
1037.7413148624
21
929.308616299336
31
388.647954683595
  0
LINE
 8
Layer0
10
1020.74958419086
20
705.914167679272
30
388.648055314975
11
1020.74958419086
21
702.714167679273
31
388.648056660064
  0
LINE
 8
Layer0
10
1037.7413148624
20
919.308616299332
30
388.647958886997
11
961.141314862397
21
919.308616299354
31
388.647977666082
  0
LINE
 8
Layer0
10
969.549584190864
20
702.714167679287
30
388.648069212142
11
969.549584190864
21
705.914167679286
31
388.648067867053
  0
LINE
 8
Layer0
10
1011.10215057473
20
797.631500268648
30
388.648019127644
11
1011.10215057473
21
800.631500268645
31
388.648017866623
  0
LINE
 8
Layer0
10
961.141314862397
20
923.308616299352
30
388.647975984721
11
1037.7413148624
21
923.30861629933
31
388.647957205636
  0
LINE
 8
Layer0
10
1117.69220070631
20
696.122144198155
30
388.64803566472
11
1117.69220070632
21
760.52214419812
31
388.648008594816
  0
LINE
 8
Layer0
10
1011.1021505747
20
806.631500268582
30
388.648015344583
11
1017.1021505747
21
806.631500268581
31
388.648013873636
  0
LINE
 8
Layer0
10
1020.74958419087
20
730.714167679269
30
388.64804489054
11
969.549584190866
21
730.714167679284
31
388.648057442618
  0
LINE
 8
Layer0
10
1140.00215057475
20
793.63150026861
30
388.647989208167
11
1140.00215057475
21
790.631500268613
31
388.647990469188
  0
LINE
 8
Layer0
10
961.141314862397
20
919.308616299354
30
388.647977666082
11
961.141314862397
21
923.308616299352
31
388.647975984721
  0
LINE
 8
Layer0
10
969.549584190866
20
726.914167679148
30
388.648059039911
11
1020.74958419087
21
726.914167679133
31
388.648046487833
  0
LINE
 8
Layer0
10
1037.7413148624
20
923.30861629933
30
388.647957205636
11
1037.7413148624
21
919.308616299332
31
388.647958886997
  0
LINE
 8
Layer0
10
1037.7413148624
20
909.308616299327
30
388.647963090398
11
961.141314862396
21
909.308616299349
31
388.647981869483
  0
LINE
 8
Layer0
10
1038.35196175523
20
693.892504493734
30
388.648049948374
11
1038.35196175523
21
696.89250449373
31
388.648048687354
  0
LINE
 8
Layer0
10
971.141314862301
20
949.308616299321
30
388.647962604301
11
971.141314862302
21
953.308616299318
31
388.64796092294
  0
LINE
 8
Layer0
10
1104.87997451133
20
825.944421431402
30
388.647984236224
11
1104.88641922157
21
825.895468997072
31
388.647984255221
  0
LINE
 8
Layer0
10
1104.88641922157
20
825.895468997072
30
388.647984255221
11
1104.83530796101
21
825.507240429419
31
388.64798443094
  0
LINE
 8
Layer0
10
1102.63641922157
20
814.596430891402
30
388.647989556265
11
1102.99819065392
21
814.446580257648
31
388.647989530562
  0
LINE
 8
Layer0
10
1028.83530796104
20
826.283697564746
30
388.648002736554
11
1028.87997451136
21
825.944421431423
31
388.648002868215
  0
LINE
 8
Layer0
10
934.449803878254
20
822.149831320708
30
388.648027613524
11
931.449803878256
21
822.149831320709
31
388.648028348997
  0
LINE
 8
Layer0
10
1028.87997451136
20
825.944421431423
30
388.648002868215
11
1028.8864192216
21
825.895468997093
31
388.648002887212
  0
LINE
 8
Layer0
10
1102.63641922158
20
827.194507102751
30
388.647984260788
11
1102.99819065392
21
827.34435773651
31
388.647984109109
  0
LINE
 8
Layer0
10
1028.8864192216
20
825.895468997093
30
388.648002887212
11
1028.83530796104
21
825.507240429439
31
388.64800306293
  0
LINE
 8
Layer0
10
1028.83530796104
20
825.507240429439
30
388.64800306293
11
1028.68545732728
21
825.145468997094
31
388.648003251734
  0
LINE
 8
Layer0
10
1027.77464778925
20
804.446580257668
30
388.6480121756
11
1027.3864192216
21
804.395468997101
31
388.648012292261
  0
LINE
 8
Layer0
10
1028.44707939339
20
816.956129168878
30
388.648006752483
11
1028.68545732728
21
816.645468997095
31
388.648006824625
  0
LINE
 8
Layer0
10
1028.83530796104
20
816.283697564748
30
388.648006939955
11
1028.8864192216
21
815.895468997094
31
388.648007090613
  0
LINE
 8
Layer0
10
1028.8864192216
20
805.895468997096
30
388.648011294014
11
1028.83530796104
21
805.507240429443
31
388.648011469733
  0
LINE
 8
Layer0
10
1104.68545732725
20
826.645468997072
30
388.647983989233
11
1104.83530796101
21
826.283697564725
31
388.647984104563
  0
LINE
 8
Layer0
10
1104.83530796101
20
826.283697564725
30
388.647984104563
11
1104.87997451133
21
825.944421431402
31
388.647984236224
  0
LINE
 8
Layer0
10
1104.44707939335
20
816.956129168853
30
388.647988120492
11
1104.68545732725
21
816.645468997073
31
388.647988192635
  0
LINE
 8
Layer0
10
1104.68545732725
20
816.645468997073
30
388.647988192635
11
1104.83530796101
21
816.283697564727
31
388.647988307965
  0
LINE
 8
Layer0
10
1028.8864192216
20
815.895468997094
30
388.648007090613
11
1028.83530796104
21
815.507240429441
31
388.648007266331
  0
LINE
 8
Layer0
10
1025.88641922161
20
825.895468997099
30
388.648003622685
11
1025.89286393185
21
825.944421431424
31
388.648003600529
  0
LINE
 8
Layer0
10
1025.89286393185
20
825.944421431424
30
388.648003600529
11
1025.93753048217
21
826.283697564752
31
388.648003446967
  0
LINE
 8
Layer0
10
1028.1364192216
20
824.596430891419
30
388.648003617118
11
1027.77464778926
21
824.446580257663
31
388.648003768797
  0
LINE
 8
Layer0
10
1028.68545732728
20
796.6454689971
30
388.648015231428
11
1028.44707939338
21
796.95612916888
31
388.648015159285
  0
LINE
 8
Layer0
10
1026.99819065395
20
827.34435773653
30
388.6480027411
11
1027.38641922161
21
827.395468997097
31
388.648002624438
  0
LINE
 8
Layer0
10
925.449803878317
20
822.149831320679
30
388.648029819944
11
925.449803878318
21
828.149831320676
31
388.648027297903
  0
LINE
 8
Layer0
10
1104.13641922158
20
827.194507102751
30
388.647983893052
11
1104.44707939335
21
826.956129168851
31
388.647983917091
  0
LINE
 8
Layer0
10
1104.44707939335
20
826.956129168851
30
388.647983917091
11
1104.68545732725
21
826.645468997072
31
388.647983989233
  0
LINE
 8
Layer0
10
1020.74958419087
20
758.714167681157
30
388.648033121017
11
969.549584190868
21
758.714167681172
31
388.648045673095
  0
LINE
 8
Layer0
10
1104.835307961
20
805.507240429423
30
388.647992837742
11
1104.68545732725
21
805.145468997078
31
388.647993026546
  0
LINE
 8
Layer0
10
1103.77464778922
20
804.446580257647
30
388.647993543609
11
1103.38641922157
21
804.395468997081
31
388.647993660271
  0
LINE
 8
Layer0
10
1026.08738111593
20
825.1454689971
30
388.648003888673
11
1025.93753048217
21
825.507240429446
31
388.648003773343
  0
LINE
 8
Layer0
10
1020.74958419087
20
751.714167680481
30
388.648036063398
11
969.549584190868
21
751.714167680495
31
388.648048615476
  0
LINE
 8
Layer0
10
1101.93753048214
20
806.283697564736
30
388.647993221779
11
1101.88641922157
21
805.895468997082
31
388.647993397497
  0
LINE
 8
Layer0
10
1138.69220070631
20
696.122144198163
30
388.648030516407
11
1138.69220070632
21
760.522144198146
31
388.648003446503
  0
LINE
 8
Layer0
10
1135.79220070632
20
760.522144198147
30
388.64800415746
11
1135.79220070631
21
696.122144198164
31
388.648031227364
  0
LINE
 8
Layer0
10
969.549584190867
20
740.914167679552
30
388.648053155149
11
1020.74958419087
21
740.914167679537
31
388.648040603071
  0
LINE
 8
Layer0
10
1020.74958419087
20
744.714167679942
30
388.648039005779
11
969.549584190867
21
744.714167679956
31
388.648051557856
  0
LINE
 8
Layer0
10
1199.9293067047
20
906.342941811128
30
388.647927139418
11
1202.9293067047
21
906.342941811126
31
388.647926403945
  0
LINE
 8
Layer0
10
985.102150574735
20
806.63150026859
30
388.648021718685
11
991.102150574733
21
806.631500268589
31
388.648020247738
  0
LINE
 8
Layer0
10
1199.9293067047
20
900.34294181113
30
388.647929661459
11
1199.9293067047
21
906.342941811128
31
388.647927139418
  0
LINE
 8
Layer0
10
1037.7413148624
20
943.308616299339
30
388.647948798834
11
1037.7413148624
21
939.308616299341
31
388.647950480194
  0
LINE
 8
Layer0
10
969.549584190868
20
747.914167679955
30
388.648050212768
11
1020.74958419087
21
747.914167679941
31
388.64803766069
  0
LINE
 8
Layer0
10
1128.79220070631
20
696.122144198161
30
388.648032943469
11
1131.69220070631
21
696.122144198161
31
388.648032232511
  0
LINE
 8
Layer0
10
1145.69220070631
20
696.122144198166
30
388.648028800302
11
1145.69220070632
21
760.522144198155
31
388.648001730398
  0
LINE
 8
Layer0
10
1142.79220070631
20
696.122144198166
30
388.64802951126
11
1145.69220070631
21
696.122144198166
31
388.648028800302
  0
LINE
 8
Layer0
10
1102.0873811159
20
815.145468997082
30
388.647989460083
11
1102.32575904979
21
814.8348088253
31
388.647989532226
  0
LINE
 8
Layer0
10
931.449803878256
20
822.149831320709
30
388.648028348997
11
931.449803878257
21
828.149831320706
31
388.648025826956
  0
LINE
 8
Layer0
10
1025.88641922161
20
815.895468997101
30
388.648007826086
11
1025.93753048217
21
816.283697564754
31
388.648007650368
  0
LINE
 8
Layer0
10
1026.32575904983
20
816.956129168882
30
388.648007272541
11
1026.63641922161
21
817.194507102776
31
388.64800709618
  0
LINE
 8
Layer0
10
1026.99819065395
20
817.344357736532
30
388.648006944501
11
1027.38641922161
21
817.395468997099
31
388.64800682784
  0
LINE
 8
Layer0
10
1101.93753048214
20
816.283697564733
30
388.647989018377
11
1101.88641922158
21
815.895468997079
31
388.647989194096
  0
LINE
 8
Layer0
10
1104.835307961
20
815.50724042942
30
388.647988634341
11
1104.68545732725
21
815.145468997075
31
388.647988823145
  0
LINE
 8
Layer0
10
1026.99819065395
20
804.44658025767
30
388.648012365954
11
1027.3864192216
21
804.395468997101
31
388.648012292261
  0
LINE
 8
Layer0
10
1027.77464778925
20
794.44658025767
30
388.648016379001
11
1028.1364192216
21
794.596430891426
31
388.648016227322
  0
LINE
 8
Layer0
10
1104.44707939335
20
804.834808825299
30
388.647993215569
11
1104.68545732725
21
805.145468997078
31
388.647993026546
  0
LINE
 8
Layer0
10
1102.32575904979
20
794.834808825304
30
388.647997939029
11
1102.63641922157
21
794.596430891405
31
388.647997963068
  0
LINE
 8
Layer0
10
1028.68545732728
20
826.645468997093
30
388.648002621224
11
1028.83530796104
21
826.283697564746
31
388.648002736554
  0
LINE
 8
Layer0
10
1103.77464778923
20
824.446580257642
30
388.647985136807
11
1103.38641922157
21
824.395468997076
31
388.647985253468
  0
LINE
 8
Layer0
10
1102.99819065392
20
824.446580257646
30
388.647985327161
11
1103.38641922157
21
824.395468997076
31
388.647985253468
  0
LINE
 8
Layer0
10
969.549584190869
20
754.914167680494
30
388.648047270387
11
1020.74958419087
21
754.914167680479
31
388.648034718309
  0
LINE
 8
Layer0
10
1020.74958419087
20
754.914167680479
30
388.648034718309
11
1020.74958419087
21
751.714167680481
31
388.648036063398
  0
LINE
 8
Layer0
10
1025.8864192216
20
795.895468997105
30
388.648016232889
11
1025.93753048217
21
795.507240429451
31
388.648016383547
  0
LINE
 8
Layer0
10
1101.93753048214
20
795.507240429431
30
388.647997751556
11
1102.08738111589
21
795.145468997083
31
388.647997866886
  0
LINE
 8
Layer0
10
1026.63641922161
20
827.194507102774
30
388.648002892779
11
1026.99819065395
21
827.34435773653
31
388.6480027411
  0
LINE
 8
Layer0
10
1102.63641922157
20
804.596430891404
30
388.647993759666
11
1102.99819065392
21
804.446580257648
31
388.647993733964
  0
LINE
 8
Layer0
10
1103.77464778922
20
804.446580257647
30
388.647993543609
11
1104.13641922157
21
804.596430891401
31
388.64799339193
  0
LINE
 8
Layer0
10
1025.93753048217
20
805.507240429449
30
388.648012180145
11
1026.08738111593
21
805.145468997105
31
388.648012295475
  0
LINE
 8
Layer0
10
1131.69220070632
20
760.522144198138
30
388.648005162607
11
1128.79220070632
21
760.522144198138
31
388.648005873565
  0
LINE
 8
Layer0
10
1131.69220070631
20
696.122144198161
30
388.648032232511
11
1131.69220070632
21
760.522144198138
31
388.648005162607
  0
LINE
 8
Layer0
10
1142.79220070632
20
760.522144198156
30
388.648002441356
11
1142.79220070631
21
696.122144198166
31
388.64802951126
  0
LINE
 8
Layer0
10
1145.69220070632
20
760.522144198155
30
388.648001730398
11
1142.79220070632
21
760.522144198156
31
388.648002441356
  0
LINE
 8
Layer0
10
1128.79220070632
20
760.522144198138
30
388.648005873565
11
1128.79220070631
21
696.122144198161
31
388.648032943469
  0
LINE
 8
Layer0
10
1020.74958419086
20
719.914167679129
30
388.648049430214
11
1020.74958419086
21
716.714167679129
31
388.648050775302
  0
LINE
 8
Layer0
10
1149.79220070632
20
760.522144198164
30
388.648000725251
11
1149.79220070631
21
696.122144198169
31
388.648027795155
  0
LINE
 8
Layer0
10
1037.7413148624
20
903.308616299321
30
388.647965612439
11
1037.7413148624
21
899.308616299322
31
388.647967293799
  0
LINE
 8
Layer0
10
1152.69220070631
20
696.122144198169
30
388.648027084198
11
1152.69220070631
21
760.522144198163
31
388.648000014294
  0
LINE
 8
Layer0
10
1152.69220070631
20
760.522144198163
30
388.648000014294
11
1149.79220070632
21
760.522144198164
31
388.648000725251
  0
LINE
 8
Layer0
10
991.102150574732
20
803.631500268593
30
388.648021508758
11
985.102150574734
21
803.631500268594
31
388.648022979705
  0
LINE
 8
Layer0
10
1121.79220070631
20
696.122144198157
30
388.648034659573
11
1124.69220070631
21
696.122144198157
31
388.648033948615
  0
LINE
 8
Layer0
10
1135.79220070631
20
696.122144198164
30
388.648031227364
11
1138.69220070631
21
696.122144198163
31
388.648030516407
  0
LINE
 8
Layer0
10
1037.7413148624
20
899.308616299322
30
388.647967293799
11
961.141314862395
21
899.308616299344
31
388.647986072884
  0
LINE
 8
Layer0
10
985.102150574734
20
803.631500268594
30
388.648022979705
11
985.102150574735
21
806.63150026859
31
388.648021718685
  0
LINE
 8
Layer0
10
1208.92930670464
20
906.342941811157
30
388.647924932998
11
1208.92930670464
21
900.342941811159
31
388.647927455039
  0
LINE
 8
Layer0
10
1124.69220070632
20
760.522144198128
30
388.648006878711
11
1121.79220070632
21
760.522144198129
31
388.648007589669
  0
LINE
 8
Layer0
10
969.549584190867
20
744.714167679956
30
388.648051557856
11
969.549584190868
21
747.914167679955
31
388.648050212768
  0
LINE
 8
Layer0
10
961.141314862398
20
939.308616299363
30
388.64796925928
11
961.141314862399
21
943.308616299361
31
388.647967577919
  0
LINE
 8
Layer0
10
1138.69220070632
20
760.522144198146
30
388.648003446503
11
1135.79220070632
21
760.522144198147
31
388.64800415746
  0
LINE
 8
Layer0
10
1020.74958419087
20
737.714167679538
30
388.648041948159
11
969.549584190866
21
737.714167679553
31
388.648054500237
  0
LINE
 8
Layer0
10
1037.7413148624
20
913.308616299326
30
388.647961409037
11
1037.7413148624
21
909.308616299327
31
388.647963090398
  0
LINE
 8
Layer0
10
1011.10215057473
20
800.631500268645
30
388.648017866623
11
1017.10215057473
21
800.631500268644
31
388.648016395677
  0
LINE
 8
Layer0
10
985.102150574766
20
797.631500268655
30
388.648025501746
11
985.102150574766
21
800.631500268652
31
388.648024240725
  0
LINE
 8
Layer0
10
1121.79220070632
20
760.522144198129
30
388.648007589669
11
1121.79220070631
21
696.122144198157
31
388.648034659573
  0
LINE
 8
Layer0
10
1205.92930670464
20
900.34294181116
30
388.647928190512
11
1205.92930670464
21
906.342941811158
31
388.647925668471
  0
LINE
 8
Layer0
10
969.549584190865
20
719.914167679144
30
388.648061982291
11
1020.74958419086
21
719.914167679129
31
388.648049430214
  0
LINE
 8
Layer0
10
961.141314862399
20
943.308616299361
30
388.647967577919
11
1037.7413148624
21
943.308616299339
31
388.647948798834
  0
LINE
 8
Layer0
10
1205.92930670464
20
906.342941811158
30
388.647925668471
11
1208.92930670464
21
906.342941811157
31
388.647924932998
  0
LINE
 8
Layer0
10
1026.99819065394
20
764.446580257677
30
388.648029179559
11
1026.6364192216
21
764.596430891435
31
388.648029205262
  0
LINE
 8
Layer0
10
1028.83530796103
20
766.283697564757
30
388.648027956962
11
1028.68545732728
21
766.645468997105
31
388.648027841632
  0
LINE
 8
Layer0
10
1028.1364192216
20
764.596430891431
30
388.648028837525
11
1028.44707939338
21
764.834808825328
31
388.648028661165
  0
LINE
 8
Layer0
10
1028.68545732727
20
765.145468997106
30
388.648028472142
11
1028.83530796103
21
765.50724042945
31
388.648028283338
  0
LINE
 8
Layer0
10
1027.3864192216
20
767.395468997106
30
388.648027844846
11
1026.99819065395
21
767.344357736542
31
388.648027961507
  0
LINE
 8
Layer0
10
1026.08738111593
20
766.645468997111
30
388.64802847857
11
1025.93753048217
21
766.283697564763
31
388.648028667374
  0
LINE
 8
Layer0
10
1025.93753048217
20
765.507240429456
30
388.64802899375
11
1026.08738111592
21
765.145468997112
31
388.64802910908
  0
LINE
 8
Layer0
10
1026.99819065394
20
764.446580257677
30
388.648029179559
11
1027.3864192216
21
764.395468997108
31
388.648029105866
  0
LINE
 8
Layer0
10
1104.44707939335
20
766.956129168864
30
388.648009137498
11
1104.13641922157
21
767.194507102759
31
388.648009113459
  0
LINE
 8
Layer0
10
1026.6364192216
20
767.194507102786
30
388.648028113186
11
1026.32575904982
21
766.956129168888
31
388.648028289547
  0
LINE
 8
Layer0
10
1101.93753048214
20
765.507240429436
30
388.64801036176
11
1102.08738111589
21
765.145468997088
31
388.64801047709
  0
LINE
 8
Layer0
10
1025.93753048217
20
766.283697564763
30
388.648028667374
11
1025.8864192216
21
765.89546899711
31
388.648028843093
  0
LINE
 8
Layer0
10
1026.32575904982
20
756.95612916889
30
388.648032492948
11
1026.08738111593
21
756.645468997112
31
388.648032681971
  0
LINE
 8
Layer0
10
1026.08738111593
20
756.645468997112
30
388.648032681971
11
1025.93753048217
21
756.283697564765
31
388.648032870776
  0
LINE
 8
Layer0
10
1025.93753048217
20
756.283697564765
30
388.648032870776
11
1025.8864192216
21
755.895468997112
31
388.648033046494
  0
LINE
 8
Layer0
10
1026.08738111592
20
755.145468997114
30
388.648033312482
11
1026.32575904982
21
754.834808825332
31
388.648033384624
  0
LINE
 8
Layer0
10
1026.32575904982
20
754.834808825332
30
388.648033384624
11
1026.6364192216
21
754.596430891436
31
388.648033408663
  0
LINE
 8
Layer0
10
1026.6364192216
20
754.596430891436
30
388.648033408663
11
1026.99819065394
21
754.446580257679
31
388.648033382961
  0
LINE
 8
Layer0
10
1026.99819065394
20
754.446580257679
30
388.648033382961
11
1027.3864192216
21
754.39546899711
31
388.648033309267
  0
LINE
 8
Layer0
10
1027.3864192216
20
754.39546899711
30
388.648033309267
11
1027.77464778925
21
754.446580257677
31
388.648033192606
  0
LINE
 8
Layer0
10
1027.77464778925
20
754.446580257677
30
388.648033192606
11
1028.1364192216
21
754.596430891433
31
388.648033040927
  0
LINE
 8
Layer0
10
1028.1364192216
20
754.596430891433
30
388.648033040927
11
1028.44707939338
21
754.834808825329
31
388.648032864566
  0
LINE
 8
Layer0
10
1028.44707939338
20
754.834808825329
30
388.648032864566
11
1028.68545732727
21
755.145468997108
31
388.648032675543
  0
LINE
 8
Layer0
10
1028.68545732727
20
755.145468997108
30
388.648032675543
11
1028.83530796103
21
755.507240429452
31
388.648032486739
  0
LINE
 8
Layer0
10
1028.83530796103
20
755.507240429452
30
388.648032486739
11
1028.8864192216
21
755.895468997105
31
388.648032311021
  0
LINE
 8
Layer0
10
1028.8864192216
20
755.895468997105
30
388.648032311021
11
1028.83530796103
21
756.283697564759
31
388.648032160363
  0
LINE
 8
Layer0
10
1028.83530796103
20
756.283697564759
30
388.648032160363
11
1028.68545732728
21
756.645468997107
31
388.648032045033
  0
LINE
 8
Layer0
10
1028.68545732728
20
756.645468997107
30
388.648032045033
11
1028.44707939338
21
756.956129168888
31
388.64803197289
  0
LINE
 8
Layer0
10
1028.44707939338
20
756.956129168888
30
388.64803197289
11
1028.1364192216
21
757.194507102785
31
388.648031948851
  0
LINE
 8
Layer0
10
1028.1364192216
20
757.194507102785
30
388.648031948851
11
1027.77464778926
21
757.344357736542
31
388.648031974554
  0
LINE
 8
Layer0
10
1027.77464778926
20
757.344357736542
30
388.648031974554
11
1027.3864192216
21
757.395468997108
31
388.648032048247
  0
LINE
 8
Layer0
10
1027.3864192216
20
757.395468997108
30
388.648032048247
11
1026.99819065395
21
757.344357736544
31
388.648032164908
  0
LINE
 8
Layer0
10
1026.99819065395
20
757.344357736544
30
388.648032164908
11
1026.6364192216
21
757.194507102788
31
388.648032316588
  0
LINE
 8
Layer0
10
1026.6364192216
20
757.194507102788
30
388.648032316588
11
1026.32575904982
21
756.95612916889
31
388.648032492948
  0
LINE
 8
Layer0
10
1103.38641922157
20
757.395468997087
30
388.648013416256
11
1102.99819065392
21
757.344357736522
31
388.648013532918
  0
LINE
 8
Layer0
10
1102.99819065392
20
757.344357736522
30
388.648013532918
11
1102.63641922157
21
757.194507102763
31
388.648013684597
  0
LINE
 8
Layer0
10
1102.63641922157
20
757.194507102763
30
388.648013684597
11
1102.32575904979
21
756.956129168869
31
388.648013860958
  0
LINE
 8
Layer0
10
1102.32575904979
20
756.956129168869
30
388.648013860958
11
1102.08738111589
21
756.645468997088
31
388.648014049981
  0
LINE
 8
Layer0
10
1102.08738111589
20
756.645468997088
30
388.648014049981
11
1101.93753048214
21
756.283697564745
31
388.648014238785
  0
LINE
 8
Layer0
10
1101.93753048214
20
756.283697564745
30
388.648014238785
11
1101.88641922157
21
755.895468997091
31
388.648014414503
  0
LINE
 8
Layer0
10
1101.88641922157
20
755.895468997091
30
388.648014414503
11
1101.93753048214
21
755.507240429438
31
388.648014565161
  0
LINE
 8
Layer0
10
1102.08738111589
20
755.14546899709
30
388.648014680491
11
1102.32575904978
21
754.834808825312
31
388.648014752634
  0
LINE
 8
Layer0
10
1102.32575904978
20
754.834808825312
30
388.648014752634
11
1102.63641922157
21
754.596430891412
31
388.648014776673
  0
LINE
 8
Layer0
10
1102.63641922157
20
754.596430891412
30
388.648014776673
11
1102.99819065391
21
754.446580257657
31
388.64801475097
  0
LINE
 8
Layer0
10
1102.99819065391
20
754.446580257657
30
388.64801475097
11
1103.38641922157
21
754.39546899709
31
388.648014677277
  0
LINE
 8
Layer0
10
1103.38641922157
20
754.39546899709
30
388.648014677277
11
1103.77464778922
21
754.446580257655
31
388.648014560615
  0
LINE
 8
Layer0
10
1103.77464778922
20
754.446580257655
30
388.648014560615
11
1104.13641922157
21
754.59643089141
31
388.648014408936
  0
LINE
 8
Layer0
10
1104.13641922157
20
754.59643089141
30
388.648014408936
11
1104.44707939334
21
754.834808825308
31
388.648014232576
  0
LINE
 8
Layer0
10
1104.44707939334
20
754.834808825308
30
388.648014232576
11
1104.68545732724
21
755.145468997087
31
388.648014043552
  0
LINE
 8
Layer0
10
1104.68545732724
20
755.145468997087
30
388.648014043552
11
1104.835307961
21
755.507240429432
31
388.648013854748
  0
LINE
 8
Layer0
10
1104.835307961
20
755.507240429432
30
388.648013854748
11
1104.88641922157
21
755.895468997086
31
388.64801367903
  0
LINE
 8
Layer0
10
1104.88641922157
20
755.895468997086
30
388.64801367903
11
1104.835307961
21
756.283697564739
31
388.648013528372
  0
LINE
 8
Layer0
10
1104.835307961
20
756.283697564739
30
388.648013528372
11
1104.68545732724
21
756.645468997085
31
388.648013413042
  0
LINE
 8
Layer0
10
1104.68545732724
20
756.645468997085
30
388.648013413042
11
1104.44707939335
21
756.956129168865
31
388.648013340899
  0
LINE
 8
Layer0
10
1104.44707939335
20
756.956129168865
30
388.648013340899
11
1104.13641922157
21
757.194507102761
31
388.64801331686
  0
LINE
 8
Layer0
10
1104.13641922157
20
757.194507102761
30
388.64801331686
11
1103.77464778922
21
757.34435773652
31
388.648013342563
  0
LINE
 8
Layer0
10
969.549584190866
20
737.714167679553
30
388.648054500237
11
969.549584190867
21
740.914167679552
31
388.648053155149
  0
LINE
 8
Layer0
10
1103.77464778922
20
757.34435773652
30
388.648013342563
11
1103.38641922157
21
757.395468997087
31
388.648013416256
  0
LINE
 8
Layer0
10
1020.74958419086
20
716.714167679129
30
388.648050775302
11
969.549584190864
21
716.714167679144
31
388.64806332738
  0
LINE
 8
Layer0
10
1051.43187032647
20
720.106331161419
30
388.648041827439
11
1051.48639106457
21
720.520441362198
31
388.648041640005
  0
LINE
 8
Layer0
10
1051.43187032647
20
720.106331161419
30
388.648041827439
11
1051.27202773075
21
719.72044242893
31
388.64804202883
  0
LINE
 8
Layer0
10
1051.27202773075
20
719.72044242893
30
388.64804202883
11
1051.01775628613
21
719.389072844136
31
388.648042230454
  0
LINE
 8
Layer0
10
1051.01775628613
20
719.389072844136
30
388.648042230454
11
1050.72445541565
21
719.164016404308
31
388.64804239696
  0
LINE
 8
Layer0
10
1050.72445541565
20
719.164016404308
30
388.64804239696
11
1050.68639106515
21
719.134808676067
31
388.648042418569
  0
LINE
 8
Layer0
10
1050.30050153731
20
718.974968000059
30
388.64804258036
11
1050.68639106515
21
719.134808676067
31
388.648042418569
  0
LINE
 8
Layer0
10
1049.88639106515
20
718.92044932212
30
388.648042704799
11
1050.30050153731
21
718.974968000059
31
388.64804258036
  0
LINE
 8
Layer0
10
1049.47228059299
20
718.974968000058
30
388.648042783405
11
1049.84960229092
21
718.925292656153
31
388.648042711782
  0
LINE
 8
Layer0
10
1049.08639106515
20
719.134808676069
30
388.648042810821
11
1049.47228059299
21
718.974968000058
31
388.648042783405
  0
LINE
 8
Layer0
10
1048.75502021525
20
719.389078472224
30
388.648042785179
11
1049.08639106515
21
719.134808676069
31
388.648042810821
  0
LINE
 8
Layer0
10
1048.5007504191
20
719.72044932212
30
388.648042708227
11
1048.75502021525
21
719.389078472224
31
388.648042785179
  0
LINE
 8
Layer0
10
1048.28639106515
20
720.520449322123
30
388.648042424507
11
1048.34090974309
21
720.106338849959
31
388.648042585208
  0
LINE
 8
Layer0
10
1048.28639106507
20
730.520449322005
30
388.648038221106
11
1048.28639106515
21
720.520449322123
31
388.648042424507
  0
LINE
 8
Layer0
10
1048.34090974301
20
730.934559794169
30
388.648038033673
11
1048.28639106507
21
730.520449322005
31
388.648038221106
  0
LINE
 8
Layer0
10
1048.50075041902
20
731.320449322002
30
388.648037832282
11
1048.34090974301
21
730.934559794169
31
388.648038033673
  0
LINE
 8
Layer0
10
1048.50075041902
20
731.320449322002
30
388.648037832282
11
1048.53416581028
21
731.363996995537
31
388.648037805785
  0
LINE
 8
Layer0
10
1048.53416581028
20
731.363996995537
30
388.648037805785
11
1048.75502584409
21
731.651825799988
31
388.648037630653
  0
LINE
 8
Layer0
10
1049.08639795885
20
731.906093947497
30
388.648037442536
11
1048.75502584409
21
731.651825799988
31
388.648037630653
  0
LINE
 8
Layer0
10
1049.08639795885
20
731.906093947497
30
388.648037442536
11
1049.47228828174
21
732.065932703657
31
388.648037280745
  0
LINE
 8
Layer0
10
1049.84960229085
20
732.120449321403
30
388.648037165328
11
1049.47228828174
21
732.065932703657
31
388.648037280745
  0
LINE
 8
Layer0
10
1049.88639902498
20
732.120449321396
30
388.648037156307
11
1050.30050922576
21
732.0659285833
31
388.648037077702
  0
LINE
 8
Layer0
10
1050.30050922576
20
732.0659285833
30
388.648037077702
11
1050.68639795826
21
731.906085987572
31
388.648037050287
  0
LINE
 8
Layer0
10
1050.68639795826
20
731.906085987572
30
388.648037050287
11
1051.01776754306
21
731.651814542957
31
388.648037075929
  0
LINE
 8
Layer0
10
1051.01776754306
20
731.651814542957
30
388.648037075929
11
1051.07203811059
21
731.581087034061
31
388.648037092354
  0
LINE
 8
Layer0
10
1051.07203811059
20
731.581087034061
30
388.648037092354
11
1051.27203569057
21
731.320442428206
31
388.648037152882
  0
LINE
 8
Layer0
10
1051.27203569057
20
731.320442428206
30
388.648037152882
11
1051.43187444674
21
730.934552105315
31
388.648037275902
  0
LINE
 8
Layer0
10
1020.74958419087
20
747.914167679941
30
388.64803766069
11
1020.74958419087
21
744.714167679942
31
388.648039005779
  0
LINE
 8
Layer0
10
1051.43187444674
20
730.934552105315
30
388.648037275902
11
1051.48639106448
21
730.520441362079
31
388.648037436604
  0
LINE
 8
Layer0
10
1082.43187032642
20
720.106331161481
30
388.648034227548
11
1082.48639106452
21
720.52044136226
31
388.648034040114
  0
LINE
 8
Layer0
10
1082.43187032642
20
720.106331161481
30
388.648034227548
11
1082.2720277307
21
719.720442428992
31
388.648034428939
  0
LINE
 8
Layer0
10
1082.2720277307
20
719.720442428992
30
388.648034428939
11
1082.01775628608
21
719.389072844198
31
388.648034630563
  0
LINE
 8
Layer0
10
1082.01775628608
20
719.389072844198
30
388.648034630563
11
1081.7244554156
21
719.16401640437
31
388.648034797069
  0
LINE
 8
Layer0
10
1081.7244554156
20
719.16401640437
30
388.648034797069
11
1081.6863910651
21
719.134808676128
31
388.648034818678
  0
LINE
 8
Layer0
10
1081.30050153726
20
718.974968000121
30
388.648034980469
11
1081.6863910651
21
719.134808676128
31
388.648034818678
  0
LINE
 8
Layer0
10
1080.8863910651
20
718.920449322182
30
388.648035104908
11
1081.30050153726
21
718.974968000121
31
388.648034980469
  0
LINE
 8
Layer0
10
1080.47228059294
20
718.97496800012
30
388.648035183514
11
1080.84960229087
21
718.925292656215
31
388.648035111891
  0
LINE
 8
Layer0
10
1080.0863910651
20
719.134808676132
30
388.64803521093
11
1080.47228059294
21
718.97496800012
31
388.648035183514
  0
LINE
 8
Layer0
10
1079.7550202152
20
719.389078472286
30
388.648035185288
11
1080.0863910651
21
719.134808676132
31
388.64803521093
  0
LINE
 8
Layer0
10
1079.50075041905
20
719.720449322182
30
388.648035108336
11
1079.7550202152
21
719.389078472286
31
388.648035185288
  0
LINE
 8
Layer0
10
1079.34090974304
20
720.106338850021
30
388.648034985318
11
1079.50075041905
21
719.720449322182
31
388.648035108336
  0
LINE
 8
Layer0
10
1079.2863910651
20
720.520449322185
30
388.648034824616
11
1079.34090974304
21
720.106338850021
31
388.648034985318
  0
LINE
 8
Layer0
10
1079.28639106501
20
730.520449322066
30
388.648030621215
11
1079.2863910651
21
720.520449322185
31
388.648034824616
  0
LINE
 8
Layer0
10
1079.34090974295
20
730.93455979423
30
388.648030433782
11
1079.28639106501
21
730.520449322066
31
388.648030621215
  0
LINE
 8
Layer0
10
1079.50075041895
20
731.320449322064
30
388.648030232391
11
1079.34090974295
21
730.93455979423
31
388.648030433782
  0
LINE
 8
Layer0
10
1079.50075041895
20
731.320449322064
30
388.648030232391
11
1079.53416581022
21
731.363996995599
31
388.648030205894
  0
LINE
 8
Layer0
10
1079.53416581022
20
731.363996995599
30
388.648030205894
11
1079.75502584403
21
731.65182580005
31
388.648030030762
  0
LINE
 8
Layer0
10
1080.08639795878
20
731.906093947557
30
388.648029842645
11
1079.75502584403
21
731.65182580005
31
388.648030030762
  0
LINE
 8
Layer0
10
1080.08639795878
20
731.906093947557
30
388.648029842645
11
1080.47228828168
21
732.065932703719
31
388.648029680854
  0
LINE
 8
Layer0
10
1080.84960229079
20
732.120449321464
30
388.648029565437
11
1080.47228828168
21
732.065932703719
31
388.648029680854
  0
LINE
 8
Layer0
10
1080.88639902491
20
732.120449321457
30
388.648029556416
11
1081.3005092257
21
732.065928583362
31
388.648029477811
  0
LINE
 8
Layer0
10
1081.3005092257
20
732.065928583362
30
388.648029477811
11
1081.6863979582
21
731.906085987633
31
388.648029450396
  0
LINE
 8
Layer0
10
1081.6863979582
20
731.906085987633
30
388.648029450396
11
1082.01776754299
21
731.651814543018
31
388.648029476038
  0
LINE
 8
Layer0
10
1082.01776754299
20
731.651814543018
30
388.648029476038
11
1082.07203811052
21
731.58108703412
31
388.648029492463
  0
LINE
 8
Layer0
10
1082.07203811052
20
731.58108703412
30
388.648029492463
11
1082.27203569051
21
731.320442428267
31
388.648029552991
  0
LINE
 8
Layer0
10
1082.27203569051
20
731.320442428267
30
388.648029552991
11
1082.43187444668
21
730.934552105376
31
388.648029676011
  0
LINE
 8
Layer0
10
1020.74958419087
20
740.914167679537
30
388.648040603071
11
1020.74958419087
21
737.714167679538
31
388.648041948159
  0
LINE
 8
Layer0
10
1082.43187444668
20
730.934552105376
30
388.648029676011
11
1082.48639106442
21
730.520441362141
31
388.648029836713
  0
LINE
 8
Layer0
10
1051.43187032651
20
751.106328666061
30
388.648028796896
11
1051.4863910646
21
751.520438866839
31
388.648028609463
  0
LINE
 8
Layer0
10
1051.43187032651
20
751.106328666061
30
388.648028796896
11
1051.27202773078
21
750.720439933571
31
388.648028998287
  0
LINE
 8
Layer0
10
1051.27202773078
20
750.720439933571
30
388.648028998287
11
1051.01775628616
21
750.389070348777
31
388.648029199912
  0
LINE
 8
Layer0
10
1051.01775628616
20
750.389070348777
30
388.648029199912
11
1050.72445541568
21
750.164013908949
31
388.648029366417
  0
LINE
 8
Layer0
10
1050.72445541568
20
750.164013908949
30
388.648029366417
11
1050.68639106518
21
750.134806180708
31
388.648029388026
  0
LINE
 8
Layer0
10
1050.30050153735
20
749.9749655047
30
388.648029549817
11
1050.68639106518
21
750.134806180708
31
388.648029388026
  0
LINE
 8
Layer0
10
1049.88639106518
20
749.920446826764
30
388.648029674256
11
1050.30050153735
21
749.9749655047
31
388.648029549817
  0
LINE
 8
Layer0
10
1049.47228059302
20
749.974965504699
30
388.648029752862
11
1049.84960229096
21
749.925290160797
31
388.648029681239
  0
LINE
 8
Layer0
10
1049.08639106518
20
750.134806180709
30
388.648029780278
11
1049.47228059302
21
749.974965504699
31
388.648029752862
  0
LINE
 8
Layer0
10
1048.75502021529
20
750.389075976865
30
388.648029754637
11
1049.08639106518
21
750.134806180709
31
388.648029780278
  0
LINE
 8
Layer0
10
1048.50075041913
20
750.720446826762
30
388.648029677684
11
1048.75502021529
21
750.389075976865
31
388.648029754637
  0
LINE
 8
Layer0
10
1048.34090974312
20
751.1063363546
30
388.648029554666
11
1048.50075041913
21
750.720446826762
31
388.648029677684
  0
LINE
 8
Layer0
10
1149.79220070631
20
696.122144198169
30
388.648027795155
11
1152.69220070631
21
696.122144198169
31
388.648027084198
  0
LINE
 8
Layer0
10
1048.28639106519
20
751.520446826764
30
388.648029393964
11
1048.34090974312
21
751.1063363546
31
388.648029554666
  0
LINE
 8
Layer0
10
1048.34090974304
20
761.934557298811
30
388.64802500313
11
1048.2863910651
21
761.520446826647
31
388.648025190563
  0
LINE
 8
Layer0
10
1048.50075041905
20
762.320446826645
30
388.648024801739
11
1048.34090974304
21
761.934557298811
31
388.64802500313
  0
LINE
 8
Layer0
10
1048.53416581031
20
762.36399450018
30
388.648024775242
11
1048.75502584412
21
762.651823304631
31
388.64802460011
  0
LINE
 8
Layer0
10
1049.08639795888
20
762.906091452137
30
388.648024411993
11
1048.75502584412
21
762.651823304631
31
388.64802460011
  0
LINE
 8
Layer0
10
1049.08639795888
20
762.906091452137
30
388.648024411993
11
1049.47228828177
21
763.0659302083
31
388.648024250202
  0
LINE
 8
Layer0
10
1049.84960229088
20
763.120446826048
30
388.648024134785
11
1049.47228828177
21
763.0659302083
31
388.648024250202
  0
LINE
 8
Layer0
10
1049.88639902501
20
763.120446826041
30
388.648024125764
11
1050.3005092258
21
763.065926087943
31
388.648024047159
  0
LINE
 8
Layer0
10
1050.3005092258
20
763.065926087943
30
388.648024047159
11
1050.68639795829
21
762.906083492214
31
388.648024019744
  0
LINE
 8
Layer0
10
1050.68639795829
20
762.906083492214
30
388.648024019744
11
1051.01776754309
21
762.651812047599
31
388.648024045386
  0
LINE
 8
Layer0
10
1051.01776754309
20
762.651812047599
30
388.648024045386
11
1051.07203811062
21
762.581084538702
31
388.648024061811
  0
LINE
 8
Layer0
10
1051.07203811062
20
762.581084538702
30
388.648024061811
11
1051.2720356906
21
762.320439932848
31
388.64802412234
  0
LINE
 8
Layer0
10
1051.2720356906
20
762.320439932848
30
388.64802412234
11
1051.43187444677
21
761.934549609957
31
388.648024245359
  0
LINE
 8
Layer0
10
1051.43187444677
20
761.934549609957
30
388.648024245359
11
1051.48639106452
21
761.520438866722
31
388.648024406061
  0
LINE
 8
Layer0
10
1051.4863910646
20
751.520438866839
30
388.648028609463
11
1051.48639106452
21
761.520438866722
31
388.648024406061
  0
LINE
 8
Layer0
10
1082.48639106455
20
751.520438866902
30
388.648021009572
11
1082.48639106445
21
761.520438866784
31
388.64801680617
  0
LINE
 8
Layer0
10
1078.38641852657
20
735.89546495513
30
388.648028582515
11
1078.38641852651
21
745.895464955016
31
388.648024379114
  0
LINE
 8
Layer0
10
1052.3864185266
20
735.895464955133
30
388.648034956617
11
1052.38641852654
21
745.895464955019
31
388.648030753216
  0
LINE
 8
Layer0
10
1082.43187032645
20
751.106328666123
30
388.648021197005
11
1082.48639106455
21
751.520438866902
31
388.648021009572
  0
LINE
 8
Layer0
10
1082.43187032645
20
751.106328666123
30
388.648021197005
11
1082.27202773073
21
750.720439933634
31
388.648021398396
  0
LINE
 8
Layer0
10
1082.27202773073
20
750.720439933634
30
388.648021398396
11
1082.01775628611
21
750.389070348839
31
388.648021600021
  0
LINE
 8
Layer0
10
1082.01775628611
20
750.389070348839
30
388.648021600021
11
1081.72445541563
21
750.164013909011
31
388.648021766526
  0
LINE
 8
Layer0
10
1081.72445541563
20
750.164013909011
30
388.648021766526
11
1081.68639106513
21
750.13480618077
31
388.648021788135
  0
LINE
 8
Layer0
10
1081.30050153729
20
749.974965504763
30
388.648021949926
11
1081.68639106513
21
750.13480618077
31
388.648021788135
  0
LINE
 8
Layer0
10
1080.88639106513
20
749.920446826824
30
388.648022074365
11
1081.30050153729
21
749.974965504763
31
388.648021949926
  0
LINE
 8
Layer0
10
1080.47228059297
20
749.974965504762
30
388.648022152971
11
1080.8496022909
21
749.925290160859
31
388.648022081348
  0
LINE
 8
Layer0
10
1080.08639106513
20
750.134806180771
30
388.648022180387
11
1080.47228059297
21
749.974965504762
31
388.648022152971
  0
LINE
 8
Layer0
10
1079.75502021523
20
750.389075976927
30
388.648022154746
11
1080.08639106513
21
750.134806180771
31
388.648022180387
  0
LINE
 8
Layer0
10
1079.50075041908
20
750.720446826824
30
388.648022077793
11
1079.75502021523
21
750.389075976927
31
388.648022154746
  0
LINE
 8
Layer0
10
1079.34090974307
20
751.106336354663
30
388.648021954775
11
1079.50075041908
21
750.720446826824
31
388.648022077793
  0
LINE
 8
Layer0
10
1079.28639106513
20
751.520446826826
30
388.648021794073
11
1079.34090974307
21
751.106336354663
31
388.648021954775
  0
LINE
 8
Layer0
10
1078.38641852657
20
735.89546495513
30
388.648028582515
11
1077.94345426833
21
732.5308173688
31
388.648030105408
  0
LINE
 8
Layer0
10
1077.94345426833
20
732.5308173688
30
388.648030105408
11
1076.64474877577
21
729.395464955141
31
388.64803174171
  0
LINE
 8
Layer0
10
1076.64474877577
20
729.395464955141
30
388.64803174171
11
1074.578806682
21
726.703076799715
31
388.64803337991
  0
LINE
 8
Layer0
10
1074.578806682
20
726.703076799715
30
388.64803337991
11
1071.88641852658
21
724.637134705946
31
388.648034908369
  0
LINE
 8
Layer0
10
1071.88641852658
20
724.637134705946
30
388.648034908369
11
1068.75106611291
21
723.33842921339
31
388.648036222923
  0
LINE
 8
Layer0
10
1068.75106611291
20
723.33842921339
30
388.648036222923
11
1065.38641852659
21
722.895464955147
31
388.648037233988
  0
LINE
 8
Layer0
10
1065.38641852659
20
722.895464955147
30
388.648037233988
11
1062.02177094025
21
723.338429213389
31
388.648037872662
  0
LINE
 8
Layer0
10
1062.02177094025
20
723.338429213389
30
388.648037872662
11
1058.88641852659
21
724.637134705946
31
388.64803809542
  0
LINE
 8
Layer0
10
1058.88641852659
20
724.637134705946
30
388.64803809542
11
1056.19403037117
21
726.703076799719
31
388.648037887081
  0
LINE
 8
Layer0
10
1056.19403037117
20
726.703076799719
30
388.648037887081
11
1054.1280882774
21
729.395464955141
31
388.648037261844
  0
LINE
 8
Layer0
10
1054.1280882774
20
729.395464955141
30
388.648037261844
11
1052.82938278484
21
732.530817368804
31
388.648036262318
  0
LINE
 8
Layer0
10
1052.82938278484
20
732.530817368804
30
388.648036262318
11
1052.3864185266
21
735.895464955133
31
388.648034956617
  0
LINE
 8
Layer0
10
1080.84960229082
20
763.120446826109
30
388.648016534894
11
1080.47228828171
21
763.065930208362
31
388.648016650311
  0
LINE
 8
Layer0
10
1173.38634664687
20
672.770435262077
30
388.648038128285
11
957.136372438249
21
672.770435261119
31
388.648107600381
  0
LINE
 8
Layer0
10
1082.27203569054
20
762.32043993291
30
388.648016522449
11
1082.43187444671
21
761.934549610019
31
388.648016645468
  0
LINE
 8
Layer0
10
1079.34090974298
20
761.934557298873
30
388.648017403239
11
1079.28639106504
21
761.520446826708
31
388.648017590672
  0
LINE
 8
Layer0
10
1080.88639902495
20
763.1204468261
30
388.648016525873
11
1081.30050922573
21
763.065926088005
31
388.648016447268
  0
LINE
 8
Layer0
10
1080.08639795881
20
762.906091452198
30
388.648016812102
11
1079.75502584406
21
762.651823304692
31
388.648017000219
  0
LINE
 8
Layer0
10
1082.43187444671
20
761.934549610019
30
388.648016645468
11
1082.48639106445
21
761.520438866784
31
388.64801680617
  0
LINE
 8
Layer0
10
1081.30050922573
20
763.065926088005
30
388.648016447268
11
1081.68639795823
21
762.906083492276
31
388.648016419853
  0
LINE
 8
Layer0
10
1081.68639795823
20
762.906083492276
30
388.648016419853
11
1082.01776754303
21
762.65181204766
31
388.648016445496
  0
LINE
 8
Layer0
10
1080.08639795881
20
762.906091452198
30
388.648016812102
11
1080.47228828171
21
763.065930208362
31
388.648016650311
  0
LINE
 8
Layer0
10
1082.07203811055
20
762.581084538763
30
388.64801646192
11
1082.27203569054
21
762.32043993291
31
388.648016522449
  0
LINE
 8
Layer0
10
1082.01776754303
20
762.65181204766
30
388.648016445496
11
1082.07203811055
21
762.581084538763
31
388.64801646192
  0
LINE
 8
Layer0
10
1079.53416581025
20
762.363994500242
30
388.648017175351
11
1079.75502584406
21
762.651823304692
31
388.648017000219
  0
LINE
 8
Layer0
10
1062.0217709402
20
758.452500696763
30
388.648023112809
11
1065.38641852653
21
758.895464955004
31
388.648022101743
  0
LINE
 8
Layer0
10
1058.88641852653
20
757.153795204203
30
388.648024427363
11
1062.0217709402
21
758.452500696763
31
388.648023112809
  0
LINE
 8
Layer0
10
1056.19403037111
20
755.087853110435
30
388.648025955821
11
1058.88641852653
21
757.153795204203
31
388.648024427363
  0
LINE
 8
Layer0
10
1054.12808827734
20
752.395464955013
30
388.648027594021
11
1056.19403037111
21
755.087853110435
31
388.648025955821
  0
LINE
 8
Layer0
10
1052.82938278478
20
749.26011254135
30
388.648029230324
11
1054.12808827734
21
752.395464955013
31
388.648027594021
  0
LINE
 8
Layer0
10
1052.38641852654
20
745.895464955019
30
388.648030753216
11
1052.82938278478
21
749.26011254135
31
388.648029230324
  0
LINE
 8
Layer0
10
1077.94345426827
20
749.260112541343
30
388.648023073414
11
1078.38641852651
21
745.895464955016
31
388.648024379114
  0
LINE
 8
Layer0
10
1076.64474877571
20
752.395464955009
30
388.648022073887
11
1077.94345426827
21
749.260112541343
31
388.648023073414
  0
LINE
 8
Layer0
10
1074.57880668194
20
755.08785311043
30
388.64802144865
11
1076.64474877571
21
752.395464955009
31
388.648022073887
  0
LINE
 8
Layer0
10
1071.88641852652
20
757.153795204202
30
388.648021240312
11
1074.57880668194
21
755.08785311043
31
388.64802144865
  0
LINE
 8
Layer0
10
1068.75106611286
20
758.452500696762
30
388.64802146307
11
1071.88641852652
21
757.153795204202
31
388.648021240312
  0
LINE
 8
Layer0
10
1065.38641852653
20
758.895464955004
30
388.648022101743
11
1068.75106611286
21
758.452500696762
31
388.64802146307
  0
LINE
 8
Layer0
10
957.136402522591
20
989.270455472777
30
388.647950174877
11
957.136445836949
21
959.27045547277
31
388.64795424934
  0
LINE
 8
Layer0
10
1193.63473589509
20
722.770410891455
30
388.647995788387
11
1223.63646038391
21
722.770411338983
31
388.64799346046
  0
LINE
 8
Layer0
10
1173.38645581642
20
702.770413705152
30
388.648026083781
11
1193.63473589509
21
722.770410891455
31
388.647995788387
  0
LINE
 8
Layer0
10
957.136418531466
20
702.770435417564
30
388.648073287409
11
957.136372438249
21
672.770435261119
31
388.648107600381
  0
LINE
 8
Layer0
10
937.136376606693
20
722.770438196747
30
388.648065211295
11
957.136418531466
21
702.770435417564
31
388.648073287409
  0
LINE
 8
Layer0
10
907.136421467105
20
722.770439586318
30
388.648044672076
11
937.136376606693
21
722.770438196747
31
388.648065211295
  0
LINE
 8
Layer0
10
907.136421467105
20
722.770439586318
30
388.648044672076
11
907.136421467118
21
939.020480218853
31
388.647973909976
  0
LINE
 8
Layer0
10
937.131053997381
20
939.020474346625
30
388.648019671839
11
907.136421467118
21
939.020480218853
31
388.647973909976
  0
LINE
 8
Layer0
10
957.136445836949
20
959.27045547277
30
388.64795424934
11
937.131053997381
21
939.020474346625
31
388.648019671839
  0
LINE
 8
Layer0
10
957.136402522591
20
989.270455472777
30
388.647950174877
11
1173.38648785909
21
989.270455472726
31
388.647886316259
  0
LINE
 8
Layer0
10
1193.63644167839
20
939.020448176404
30
388.647925534818
11
1173.3864819856
21
959.270433914839
31
388.64789697951
  0
LINE
 8
Layer0
10
1223.6364416778
20
939.020344992258
30
388.647918154091
11
1193.63644167839
21
939.020448176404
31
388.647925534818
  0
LINE
 8
Layer0
10
1223.6364416778
20
939.020344992258
30
388.647918154091
11
1223.63646038391
21
722.770411338983
31
388.64799346046
  0
LINE
 8
Layer0
10
991.102150574763
20
797.631500268655
30
388.648024030799
11
985.102150574766
21
797.631500268655
31
388.648025501746
  0
LINE
 8
Layer0
10
1104.13641922157
20
764.596430891408
30
388.648010205535
11
1104.44707939335
21
764.834808825306
31
388.648010029174
  0
LINE
 8
Layer0
10
1104.44707939335
20
764.834808825306
30
388.648010029174
11
1104.68545732724
21
765.145468997085
31
388.648009840151
  0
LINE
 8
Layer0
10
1103.77464778922
20
764.446580257654
30
388.648010357214
11
1104.13641922157
21
764.596430891408
31
388.648010205535
  0
LINE
 8
Layer0
10
1102.63641922157
20
764.596430891411
30
388.648010573272
11
1102.99819065391
21
764.446580257656
31
388.648010547569
  0
LINE
 8
Layer0
10
1025.8864192216
20
765.89546899711
30
388.648028843093
11
1025.93753048217
21
765.507240429456
31
388.64802899375
  0
LINE
 8
Layer0
10
1027.77464778925
20
764.446580257675
30
388.648028989205
11
1028.1364192216
21
764.596430891431
31
388.648028837525
  0
LINE
 8
Layer0
10
1104.13641922157
20
767.194507102759
30
388.648009113459
11
1103.77464778922
21
767.344357736518
31
388.648009139162
  0
LINE
 8
Layer0
10
1028.1364192216
20
767.194507102783
30
388.64802774545
11
1027.77464778926
21
767.34435773654
31
388.648027771153
  0
LINE
 8
Layer0
10
1026.08738111592
20
765.145468997112
30
388.64802910908
11
1026.32575904982
21
764.83480882533
31
388.648029181223
  0
LINE
 8
Layer0
10
1102.08738111589
20
766.645468997087
30
388.648009846579
11
1101.93753048214
21
766.283697564743
31
388.648010035384
  0
LINE
 8
Layer0
10
1101.93753048214
20
766.283697564743
30
388.648010035384
11
1101.88641922157
21
765.895468997089
31
388.648010211102
  0
LINE
 8
Layer0
10
1103.38641922157
20
767.395468997085
30
388.648009212855
11
1103.77464778922
21
767.344357736518
31
388.648009139162
  0
LINE
 8
Layer0
10
1026.99819065395
20
767.344357736542
30
388.648027961507
11
1026.6364192216
21
767.194507102786
31
388.648028113186
  0
LINE
 8
Layer0
10
1101.88641922157
20
765.895468997089
30
388.648010211102
11
1101.93753048214
21
765.507240429436
31
388.64801036176
  0
LINE
 8
Layer0
10
1103.77464778922
20
774.446580257652
30
388.648006153813
11
1104.13641922157
21
774.596430891407
31
388.648006002134
  0
LINE
 8
Layer0
10
1102.63641922157
20
774.596430891409
30
388.64800636987
11
1102.99819065391
21
774.446580257654
31
388.648006344167
  0
LINE
 8
Layer0
10
1028.83530796104
20
776.283697564755
30
388.64802375356
11
1028.68545732728
21
776.645468997104
31
388.64802363823
  0
LINE
 8
Layer0
10
1102.99819065392
20
777.344357736518
30
388.648005126115
11
1102.63641922157
21
777.19450710276
31
388.648005277795
  0
LINE
 8
Layer0
10
1101.88641922157
20
775.895468997088
30
388.648006007701
11
1101.93753048214
21
775.507240429435
31
388.648006158358
  0
LINE
 8
Layer0
10
1101.93753048214
20
776.283697564741
30
388.648005831982
11
1101.88641922157
21
775.895468997088
31
388.648006007701
  0
LINE
 8
Layer0
10
1102.08738111589
20
775.145468997087
30
388.648006273688
11
1102.32575904979
21
774.834808825308
31
388.648006345831
  0
LINE
 8
Layer0
10
1102.99819065391
20
774.446580257654
30
388.648006344167
11
1103.38641922157
21
774.395468997086
31
388.648006270474
  0
LINE
 8
Layer0
10
1028.8864192216
20
775.895468997102
30
388.648023904218
11
1028.83530796103
21
775.507240429448
31
388.648024079936
  0
LINE
 8
Layer0
10
1028.83530796103
20
775.507240429448
30
388.648024079936
11
1028.68545732728
21
775.145468997105
31
388.648024268741
  0
LINE
 8
Layer0
10
1028.68545732728
20
775.145468997105
30
388.648024268741
11
1028.44707939338
21
774.834808825326
31
388.648024457764
  0
LINE
 8
Layer0
10
1028.44707939338
20
774.834808825326
30
388.648024457764
11
1028.1364192216
21
774.596430891429
31
388.648024634124
  0
LINE
 8
Layer0
10
1028.1364192216
20
774.596430891429
30
388.648024634124
11
1027.77464778925
21
774.446580257673
31
388.648024785804
  0
LINE
 8
Layer0
10
1027.77464778925
20
774.446580257673
30
388.648024785804
11
1027.3864192216
21
774.395468997106
31
388.648024902465
  0
LINE
 8
Layer0
10
1027.3864192216
20
774.395468997106
30
388.648024902465
11
1026.99819065395
21
774.446580257675
31
388.648024976158
  0
LINE
 8
Layer0
10
1026.99819065395
20
774.446580257675
30
388.648024976158
11
1026.6364192216
21
774.596430891433
31
388.648025001861
  0
LINE
 8
Layer0
10
1026.6364192216
20
777.194507102784
30
388.648023909785
11
1026.99819065395
21
777.34435773654
31
388.648023758106
  0
LINE
 8
Layer0
10
1026.6364192216
20
774.596430891433
30
388.648025001861
11
1026.32575904982
21
774.834808825329
31
388.648024977822
  0
LINE
 8
Layer0
10
1026.32575904982
20
774.834808825329
30
388.648024977822
11
1026.08738111592
21
775.14546899711
31
388.648024905679
  0
LINE
 8
Layer0
10
1026.08738111592
20
775.14546899711
30
388.648024905679
11
1025.93753048217
21
775.507240429455
31
388.648024790349
  0
LINE
 8
Layer0
10
1025.93753048217
20
775.507240429455
30
388.648024790349
11
1025.8864192216
21
775.895468997108
31
388.648024639691
  0
LINE
 8
Layer0
10
1025.8864192216
20
775.895468997108
30
388.648024639691
11
1025.93753048217
21
776.283697564761
31
388.648024463973
  0
LINE
 8
Layer0
10
1025.93753048217
20
776.283697564761
30
388.648024463973
11
1026.08738111593
21
776.645468997109
31
388.648024275169
  0
LINE
 8
Layer0
10
1026.08738111593
20
776.645468997109
30
388.648024275169
11
1026.32575904982
21
776.956129168887
31
388.648024086146
  0
LINE
 8
Layer0
10
1026.32575904982
20
776.956129168887
30
388.648024086146
11
1026.6364192216
21
777.194507102784
31
388.648023909785
  0
LINE
 8
Layer0
10
1026.99819065395
20
777.34435773654
30
388.648023758106
11
1027.3864192216
21
777.395468997104
31
388.648023641445
  0
LINE
 8
Layer0
10
1027.3864192216
20
777.395468997104
30
388.648023641445
11
1027.77464778926
21
777.344357736538
31
388.648023567751
  0
LINE
 8
Layer0
10
1027.77464778926
20
777.344357736538
30
388.648023567751
11
1028.1364192216
21
777.194507102781
31
388.648023542049
  0
LINE
 8
Layer0
10
1028.1364192216
20
777.194507102781
30
388.648023542049
11
1028.44707939338
21
776.956129168884
31
388.648023566088
  0
LINE
 8
Layer0
10
1028.44707939338
20
776.956129168884
30
388.648023566088
11
1028.68545732728
21
776.645468997104
31
388.64802363823
  0
LINE
 8
Layer0
10
1028.83530796104
20
776.283697564755
30
388.64802375356
11
1028.8864192216
21
775.895468997102
31
388.648023904218
  0
LINE
 8
Layer0
10
1028.8864192216
20
765.895468997104
30
388.648028107619
11
1028.83530796103
21
765.50724042945
31
388.648028283338
  0
LINE
 8
Layer0
10
1028.68545732727
20
765.145468997106
30
388.648028472142
11
1028.44707939338
21
764.834808825328
31
388.648028661165
  0
LINE
 8
Layer0
10
1027.77464778925
20
764.446580257675
30
388.648028989205
11
1027.3864192216
21
764.395468997108
31
388.648029105866
  0
LINE
 8
Layer0
10
1026.6364192216
20
764.596430891435
30
388.648029205262
11
1026.32575904982
21
764.83480882533
31
388.648029181223
  0
LINE
 8
Layer0
10
1026.08738111593
20
766.645468997111
30
388.64802847857
11
1026.32575904982
21
766.956129168888
31
388.648028289547
  0
LINE
 8
Layer0
10
1027.3864192216
20
767.395468997106
30
388.648027844846
11
1027.77464778926
21
767.34435773654
31
388.648027771153
  0
LINE
 8
Layer0
10
1028.1364192216
20
767.194507102783
30
388.64802774545
11
1028.44707939338
21
766.956129168886
31
388.648027769489
  0
LINE
 8
Layer0
10
1028.44707939338
20
766.956129168886
30
388.648027769489
11
1028.68545732728
21
766.645468997105
31
388.648027841632
  0
LINE
 8
Layer0
10
1028.83530796103
20
766.283697564757
30
388.648027956962
11
1028.8864192216
21
765.895468997104
31
388.648028107619
  0
LINE
 8
Layer0
10
1104.88641922157
20
775.895468997082
30
388.648005272227
11
1104.835307961
21
775.507240429429
31
388.648005447946
  0
LINE
 8
Layer0
10
1104.835307961
20
775.507240429429
30
388.648005447946
11
1104.68545732724
21
775.145468997083
31
388.64800563675
  0
LINE
 8
Layer0
10
1102.99819065392
20
777.344357736518
30
388.648005126115
11
1103.38641922157
21
777.395468997083
31
388.648005009454
  0
LINE
 8
Layer0
10
1104.68545732724
20
775.145468997083
30
388.64800563675
11
1104.44707939335
21
774.834808825304
31
388.648005825773
  0
LINE
 8
Layer0
10
1104.44707939335
20
774.834808825304
30
388.648005825773
11
1104.13641922157
21
774.596430891407
31
388.648006002134
  0
LINE
 8
Layer0
10
1103.77464778922
20
774.446580257652
30
388.648006153813
11
1103.38641922157
21
774.395468997086
31
388.648006270474
  0
LINE
 8
Layer0
10
1102.63641922157
20
774.596430891409
30
388.64800636987
11
1102.32575904979
21
774.834808825308
31
388.648006345831
  0
LINE
 8
Layer0
10
1102.08738111589
20
775.145468997087
30
388.648006273688
11
1101.93753048214
21
775.507240429435
31
388.648006158358
  0
LINE
 8
Layer0
10
1101.93753048214
20
776.283697564741
30
388.648005831982
11
1102.0873811159
21
776.645468997085
31
388.648005643178
  0
LINE
 8
Layer0
10
1102.0873811159
20
776.645468997085
30
388.648005643178
11
1102.32575904979
21
776.956129168866
31
388.648005454155
  0
LINE
 8
Layer0
10
1102.32575904979
20
776.956129168866
30
388.648005454155
11
1102.63641922157
21
777.19450710276
31
388.648005277795
  0
LINE
 8
Layer0
10
1103.38641922157
20
777.395468997083
30
388.648005009454
11
1103.77464778923
21
777.344357736516
31
388.648004935761
  0
LINE
 8
Layer0
10
1103.77464778923
20
777.344357736516
30
388.648004935761
11
1104.13641922157
21
777.194507102757
31
388.648004910058
  0
LINE
 8
Layer0
10
1104.13641922157
20
777.194507102757
30
388.648004910058
11
1104.44707939335
21
776.956129168862
31
388.648004934097
  0
LINE
 8
Layer0
10
1104.44707939335
20
776.956129168862
30
388.648004934097
11
1104.68545732725
21
776.645468997082
31
388.64800500624
  0
LINE
 8
Layer0
10
1104.68545732725
20
776.645468997082
30
388.64800500624
11
1104.835307961
21
776.283697564736
31
388.64800512157
  0
LINE
 8
Layer0
10
1104.835307961
20
776.283697564736
30
388.64800512157
11
1104.88641922157
21
775.895468997082
31
388.648005272227
  0
LINE
 8
Layer0
10
1103.38641922157
20
764.395468997088
30
388.648010473875
11
1102.99819065391
21
764.446580257656
31
388.648010547569
  0
LINE
 8
Layer0
10
1102.63641922157
20
764.596430891411
30
388.648010573272
11
1102.32575904979
21
764.83480882531
31
388.648010549232
  0
LINE
 8
Layer0
10
1102.32575904979
20
764.83480882531
30
388.648010549232
11
1102.08738111589
21
765.145468997088
31
388.64801047709
  0
LINE
 8
Layer0
10
1102.08738111589
20
766.645468997087
30
388.648009846579
11
1102.32575904979
21
766.956129168868
31
388.648009657556
  0
LINE
 8
Layer0
10
1102.32575904979
20
766.956129168868
30
388.648009657556
11
1102.63641922157
21
767.194507102761
31
388.648009481196
  0
LINE
 8
Layer0
10
1102.63641922157
20
767.194507102761
30
388.648009481196
11
1102.99819065392
21
767.34435773652
31
388.648009329516
  0
LINE
 8
Layer0
10
1102.99819065392
20
767.34435773652
30
388.648009329516
11
1103.38641922157
21
767.395468997085
31
388.648009212855
  0
LINE
 8
Layer0
10
1104.44707939335
20
766.956129168864
30
388.648009137498
11
1104.68545732724
21
766.645468997083
31
388.648009209641
  0
LINE
 8
Layer0
10
1104.68545732724
20
766.645468997083
30
388.648009209641
11
1104.835307961
21
766.283697564737
31
388.648009324971
  0
LINE
 8
Layer0
10
1104.835307961
20
766.283697564737
30
388.648009324971
11
1104.88641922157
21
765.895468997084
31
388.648009475629
  0
LINE
 8
Layer0
10
1104.88641922157
20
765.895468997084
30
388.648009475629
11
1104.835307961
21
765.507240429431
31
388.648009651347
  0
LINE
 8
Layer0
10
1104.835307961
20
765.507240429431
30
388.648009651347
11
1104.68545732724
21
765.145468997085
31
388.648009840151
  0
LINE
 8
Layer0
10
1103.77464778922
20
764.446580257654
30
388.648010357214
11
1103.38641922157
21
764.395468997088
31
388.648010473875
  0
LINE
 8
Layer0
10
1026.08738111593
20
785.145468997108
30
388.648020702278
11
1025.93753048217
21
785.507240429453
31
388.648020586948
  0
LINE
 8
Layer0
10
1102.63641922157
20
787.194507102758
30
388.648001074393
11
1102.99819065392
21
787.344357736516
31
388.648000922714
  0
LINE
 8
Layer0
10
933.615193558627
20
777.039835907331
30
388.648046779676
11
933.615193558626
21
774.039835907334
31
388.648048040697
  0
LINE
 8
Layer0
10
927.615193558629
20
777.039835907332
30
388.648048250623
11
933.615193558627
21
777.039835907331
31
388.648046779676
  0
LINE
 8
Layer0
10
927.615193558628
20
774.039835907334
30
388.648049511643
11
927.615193558629
21
777.039835907332
31
388.648048250623
  0
LINE
 8
Layer0
10
933.615193558626
20
774.039835907334
30
388.648048040697
11
927.615193558628
21
774.039835907334
31
388.648049511643
  0
LINE
 8
Layer0
10
933.615193558659
20
771.039835907392
30
388.648049301717
11
933.615193558658
21
768.039835907394
31
388.648050562737
  0
LINE
 8
Layer0
10
927.615193558661
20
771.039835907392
30
388.648050772664
11
933.615193558659
21
771.039835907392
31
388.648049301717
  0
LINE
 8
Layer0
10
927.61519355866
20
768.039835907394
30
388.648052033684
11
927.615193558661
21
771.039835907392
31
388.648050772664
  0
LINE
 8
Layer0
10
933.615193558658
20
768.039835907394
30
388.648050562737
11
927.61519355866
21
768.039835907394
31
388.648052033684
  0
LINE
 8
Layer0
10
991.102150574765
20
800.631500268652
30
388.648022769779
11
991.102150574763
21
797.631500268655
31
388.648024030799
  0
LINE
 8
Layer0
10
1079.28639106504
20
761.520446826708
30
388.648017590672
11
1079.28639106513
21
751.520446826826
31
388.648021794073
  0
LINE
 8
Layer0
10
1082.48639106452
20
720.52044136226
30
388.648034040114
11
1082.48639106442
21
730.520441362141
31
388.648029836713
  0
LINE
 8
Layer0
10
1048.2863910651
20
761.520446826647
30
388.648025190563
11
1048.28639106519
21
751.520446826764
31
388.648029393964
  0
LINE
 8
Layer0
10
1051.48639106457
20
720.520441362198
30
388.648041640005
11
1051.48639106448
21
730.520441362079
31
388.648037436604
  0
LINE
 8
Layer0
10
1025.93753048217
20
755.507240429458
30
388.648033197152
11
1026.08738111592
21
755.145468997114
31
388.648033312482
  0
LINE
 8
Layer0
10
1025.8864192216
20
755.895468997112
30
388.648033046494
11
1025.93753048217
21
755.507240429458
31
388.648033197152
  0
LINE
 8
Layer0
10
1048.34090974309
20
720.106338849959
30
388.648042585208
11
1048.5007504191
21
719.72044932212
31
388.648042708227
  0
LINE
 8
Layer0
10
1101.93753048214
20
755.507240429438
30
388.648014565161
11
1102.08738111589
21
755.14546899709
31
388.648014680491
  0
LINE
 8
Layer0
10
1048.50075041905
20
762.320446826645
30
388.648024801739
11
1048.53416581031
21
762.36399450018
31
388.648024775242
  0
LINE
 8
Layer0
10
1079.50075041898
20
762.320446826707
30
388.648017201848
11
1079.34090974298
21
761.934557298873
31
388.648017403239
  0
LINE
 8
Layer0
10
1079.50075041898
20
762.320446826707
30
388.648017201848
11
1079.53416581025
21
762.363994500242
31
388.648017175351
  0
LINE
 8
Layer0
10
1173.3864819856
20
959.270433914839
30
388.64789697951
11
1173.38648785909
21
989.270455472726
31
388.647886316259
  0
LINE
 8
Layer0
10
1173.38634664687
20
672.770435262077
30
388.648038128285
11
1173.38645581642
21
702.770413705152
31
388.648026083781
  0
LINE
 8
Layer0
10
1049.88639902501
20
763.120446826041
30
388.648024125764
11
1049.84960229088
21
763.120446826048
31
388.648024134785
  0
LINE
 8
Layer0
10
1049.84960229096
20
749.925290160797
30
388.648029681239
11
1049.88639106518
21
749.920446826764
31
388.648029674256
  0
LINE
 8
Layer0
10
1080.88639902495
20
763.1204468261
30
388.648016525873
11
1080.84960229082
21
763.120446826109
31
388.648016534894
  0
LINE
 8
Layer0
10
1080.8496022909
20
749.925290160859
30
388.648022081348
11
1080.88639106513
21
749.920446826824
31
388.648022074365
  0
LINE
 8
Layer0
10
1049.88639902498
20
732.120449321396
30
388.648037156307
11
1049.84960229085
21
732.120449321403
31
388.648037165328
  0
LINE
 8
Layer0
10
1049.84960229092
20
718.925292656153
30
388.648042711782
11
1049.88639106515
21
718.92044932212
31
388.648042704799
  0
LINE
 8
Layer0
10
1080.88639902491
20
732.120449321457
30
388.648029556416
11
1080.84960229079
21
732.120449321464
31
388.648029565437
  0
LINE
 8
Layer0
10
1080.84960229087
20
718.925292656215
30
388.648035111891
11
1080.8863910651
21
718.920449322182
31
388.648035104908
  0
LINE
 8
Layer0
10
1026.63641922161
20
787.194507102782
30
388.648019706384
11
1026.99819065395
21
787.344357736538
31
388.648019554705
  0
LINE
 8
Layer0
10
1026.99819065395
20
787.344357736538
30
388.648019554705
11
1027.38641922161
21
787.395468997102
31
388.648019438043
  0
LINE
 8
Layer0
10
1027.38641922161
20
787.395468997102
30
388.648019438043
11
1027.77464778926
21
787.344357736537
31
388.64801936435
  0
LINE
 8
Layer0
10
1027.77464778926
20
787.344357736537
30
388.64801936435
11
1028.1364192216
21
787.194507102779
31
388.648019338647
  0
LINE
 8
Layer0
10
1028.1364192216
20
787.194507102779
30
388.648019338647
11
1028.44707939338
21
786.956129168882
31
388.648019362686
  0
LINE
 8
Layer0
10
1028.44707939338
20
786.956129168882
30
388.648019362686
11
1028.68545732728
21
786.645468997102
31
388.648019434829
  0
LINE
 8
Layer0
10
1028.68545732728
20
786.645468997102
30
388.648019434829
11
1028.83530796103
21
786.283697564754
31
388.648019550159
  0
LINE
 8
Layer0
10
1028.83530796103
20
786.283697564754
30
388.648019550159
11
1028.87997451136
21
785.94442143143
31
388.64801968182
  0
LINE
 8
Layer0
10
1028.87997451136
20
785.94442143143
30
388.64801968182
11
1028.8864192216
21
785.8954689971
31
388.648019700817
  0
LINE
 8
Layer0
10
1028.8864192216
20
785.8954689971
30
388.648019700817
11
1028.83530796103
21
785.507240429447
31
388.648019876535
  0
LINE
 8
Layer0
10
1028.83530796103
20
785.507240429447
30
388.648019876535
11
1028.68545732728
21
785.145468997103
31
388.648020065339
  0
LINE
 8
Layer0
10
1028.68545732728
20
785.145468997103
30
388.648020065339
11
1028.44707939338
21
784.834808825324
31
388.648020254362
  0
LINE
 8
Layer0
10
1028.44707939338
20
784.834808825324
30
388.648020254362
11
1028.1364192216
21
784.596430891428
31
388.648020430723
  0
LINE
 8
Layer0
10
1028.1364192216
20
784.596430891428
30
388.648020430723
11
1027.77464778925
21
784.446580257672
31
388.648020582402
  0
LINE
 8
Layer0
10
1027.77464778925
20
784.446580257672
30
388.648020582402
11
1027.3864192216
21
784.395468997105
31
388.648020699064
  0
LINE
 8
Layer0
10
1027.3864192216
20
784.395468997105
30
388.648020699064
11
1026.99819065395
21
784.446580257673
31
388.648020772757
  0
LINE
 8
Layer0
10
1026.99819065395
20
784.446580257673
30
388.648020772757
11
1026.6364192216
21
784.596430891431
31
388.64802079846
  0
LINE
 8
Layer0
10
1026.6364192216
20
784.596430891431
30
388.64802079846
11
1026.32575904982
21
784.834808825327
31
388.648020774421
  0
LINE
 8
Layer0
10
1026.32575904982
20
784.834808825327
30
388.648020774421
11
1026.08738111593
21
785.145468997108
31
388.648020702278
  0
LINE
 8
Layer0
10
1025.93753048217
20
785.507240429453
30
388.648020586948
11
1025.8864192216
21
785.895468997106
31
388.64802043629
  0
LINE
 8
Layer0
10
1025.8864192216
20
785.895468997106
30
388.64802043629
11
1025.89286393185
21
785.944421431431
31
388.648020414133
  0
LINE
 8
Layer0
10
1025.89286393185
20
785.944421431431
30
388.648020414133
11
1025.93753048217
21
786.28369756476
31
388.648020260572
  0
LINE
 8
Layer0
10
1025.93753048217
20
786.28369756476
30
388.648020260572
11
1026.08738111593
21
786.645468997107
31
388.648020071768
  0
LINE
 8
Layer0
10
1026.08738111593
20
786.645468997107
30
388.648020071768
11
1026.32575904983
21
786.956129168885
31
388.648019882745
  0
LINE
 8
Layer0
10
1026.32575904983
20
786.956129168885
30
388.648019882745
11
1026.63641922161
21
787.194507102782
31
388.648019706384
  0
LINE
 8
Layer0
10
1101.89286393181
20
785.944421431411
30
388.648001782143
11
1101.93753048214
21
786.283697564739
31
388.648001628581
  0
LINE
 8
Layer0
10
1101.93753048214
20
786.283697564739
30
388.648001628581
11
1102.0873811159
21
786.645468997083
31
388.648001439777
  0
LINE
 8
Layer0
10
1102.0873811159
20
786.645468997083
30
388.648001439777
11
1102.32575904979
21
786.956129168864
31
388.648001250754
  0
LINE
 8
Layer0
10
1102.32575904979
20
786.956129168864
30
388.648001250754
11
1102.63641922157
21
787.194507102758
31
388.648001074393
  0
LINE
 8
Layer0
10
1102.99819065392
20
787.344357736516
30
388.648000922714
11
1103.38641922157
21
787.395468997082
31
388.648000806053
  0
LINE
 8
Layer0
10
1103.38641922157
20
787.395468997082
30
388.648000806053
11
1103.77464778923
21
787.344357736515
31
388.648000732359
  0
LINE
 8
Layer0
10
1103.77464778923
20
787.344357736515
30
388.648000732359
11
1104.13641922157
21
787.194507102756
31
388.648000706657
  0
LINE
 8
Layer0
10
1104.13641922157
20
787.194507102756
30
388.648000706657
11
1104.44707939335
21
786.95612916886
31
388.648000730696
  0
LINE
 8
Layer0
10
1104.44707939335
20
786.95612916886
30
388.648000730696
11
1104.68545732725
21
786.64546899708
31
388.648000802838
  0
LINE
 8
Layer0
10
1104.68545732725
20
786.64546899708
30
388.648000802838
11
1104.835307961
21
786.283697564734
31
388.648000918168
  0
LINE
 8
Layer0
10
1104.835307961
20
786.283697564734
30
388.648000918168
11
1104.87997451133
21
785.944421431411
31
388.648001049829
  0
LINE
 8
Layer0
10
1104.87997451133
20
785.944421431411
30
388.648001049829
11
1104.88641922157
21
785.895468997081
31
388.648001068826
  0
LINE
 8
Layer0
10
1104.88641922157
20
785.895468997081
30
388.648001068826
11
1104.835307961
21
785.507240429427
31
388.648001244545
  0
LINE
 8
Layer0
10
1104.835307961
20
785.507240429427
30
388.648001244545
11
1104.68545732724
21
785.145468997081
31
388.648001433349
  0
LINE
 8
Layer0
10
1104.68545732724
20
785.145468997081
30
388.648001433349
11
1104.44707939335
21
784.834808825302
31
388.648001622372
  0
LINE
 8
Layer0
10
1104.44707939335
20
784.834808825302
30
388.648001622372
11
1104.13641922157
21
784.596430891405
31
388.648001798732
  0
LINE
 8
Layer0
10
1103.77464778922
20
784.44658025765
30
388.648001950412
11
1104.13641922157
21
784.596430891405
31
388.648001798732
  0
LINE
 8
Layer0
10
1103.77464778922
20
784.44658025765
30
388.648001950412
11
1103.38641922157
21
784.395468997085
31
388.648002067073
  0
LINE
 8
Layer0
10
1102.99819065392
20
784.446580257652
30
388.648002140766
11
1103.38641922157
21
784.395468997085
31
388.648002067073
  0
LINE
 8
Layer0
10
1102.63641922157
20
784.596430891407
30
388.648002166469
11
1102.99819065392
21
784.446580257652
31
388.648002140766
  0
LINE
 8
Layer0
10
1102.63641922157
20
784.596430891407
30
388.648002166469
11
1102.32575904979
21
784.834808825306
31
388.64800214243
  0
LINE
 8
Layer0
10
1102.08738111589
20
785.145468997085
30
388.648002070287
11
1102.32575904979
21
784.834808825306
31
388.64800214243
  0
LINE
 8
Layer0
10
1102.08738111589
20
785.145468997085
30
388.648002070287
11
1101.93753048214
21
785.507240429433
31
388.648001954957
  0
LINE
 8
Layer0
10
1101.88641922157
20
785.895468997086
30
388.648001804299
11
1101.93753048214
21
785.507240429433
31
388.648001954957
  0
LINE
 8
Layer0
10
1101.88641922157
20
785.895468997086
30
388.648001804299
11
1101.89286393181
21
785.944421431411
31
388.648001782143
  0
LINE
 8
Layer0
10
1124.69220070631
20
696.122144198157
30
388.648033948615
11
1124.69220070632
21
760.522144198128
31
388.648006878711
  0
LINE
 8
Layer0
10
985.102150574766
20
800.631500268652
30
388.648024240725
11
991.102150574765
21
800.631500268652
31
388.648022769779
  0
LINE
 8
Layer0
10
1027.77464778926
20
817.34435773653
30
388.648006754146
11
1028.13641922161
21
817.194507102772
31
388.648006728444
  0
LINE
 8
Layer0
10
1202.9293067047
20
906.342941811126
30
388.647926403945
11
1202.9293067047
21
900.342941811129
31
388.647928925985
  0
LINE
 8
Layer0
10
961.141314862396
20
903.308616299344
30
388.647984391524
11
1037.7413148624
21
903.308616299321
31
388.647965612439
  0
LINE
 8
Layer0
10
969.549584190864
20
716.714167679144
30
388.64806332738
11
969.549584190865
21
719.914167679144
31
388.648061982291
  0
LINE
 8
Layer0
10
1114.79220070632
20
760.522144198121
30
388.648009305773
11
1114.79220070631
21
696.122144198155
31
388.648036375677
  0
LINE
 8
Layer0
10
969.549584190866
20
733.914167679283
30
388.64805609753
11
1020.74958419087
21
733.914167679269
31
388.648043545452
  0
LINE
 8
Layer0
10
1020.74958419087
20
726.914167679133
30
388.648046487833
11
1020.74958419086
21
723.714167679134
31
388.648047832921
  0
LINE
 8
Layer0
10
1020.74958419086
20
702.714167679273
30
388.648056660064
11
969.549584190864
21
702.714167679287
31
388.648069212142
  0
LINE
 8
Layer0
10
969.549584190865
20
723.714167679148
30
388.648060384999
11
969.549584190866
21
726.914167679148
31
388.648059039911
  0
LINE
 8
Layer0
10
1020.74958419086
20
723.714167679134
30
388.648047832921
11
969.549584190865
21
723.714167679148
31
388.648060384999
  0
LINE
 8
Layer0
10
991.102150574733
20
806.631500268589
30
388.648020247738
11
991.102150574732
21
803.631500268593
31
388.648021508758
  0
LINE
 8
Layer0
10
1202.9293067047
20
900.342941811129
30
388.647928925985
11
1199.9293067047
21
900.34294181113
31
388.647929661459
  0
LINE
 8
Layer0
10
1037.7413148624
20
939.308616299341
30
388.647950480194
11
961.141314862398
21
939.308616299363
31
388.64796925928
  0
LINE
 8
Layer0
10
961.141314862395
20
899.308616299344
30
388.647986072884
11
961.141314862396
21
903.308616299344
31
388.647984391524
  0
LINE
 8
Layer0
10
1026.08738111593
20
806.645468997103
30
388.648011664965
11
1026.32575904983
21
806.956129168881
31
388.648011475942
  0
LINE
 8
Layer0
10
1027.38641922161
20
807.395468997099
30
388.648011031241
11
1027.77464778926
21
807.344357736533
31
388.648010957548
  0
LINE
 8
Layer0
10
1028.83530796104
20
806.28369756475
30
388.648011143357
11
1028.8864192216
21
805.895468997096
31
388.648011294014
  0
LINE
 8
Layer0
10
1104.88641922157
20
815.895468997074
30
388.647988458622
11
1104.835307961
21
815.50724042942
31
388.647988634341
  0
LINE
 8
Layer0
10
1026.63641922161
20
817.194507102776
30
388.64800709618
11
1026.99819065395
21
817.344357736532
31
388.648006944501
  0
LINE
 8
Layer0
10
1028.44707939338
20
796.95612916888
30
388.648015159285
11
1028.1364192216
21
797.194507102777
31
388.648015135246
  0
LINE
 8
Layer0
10
1028.1364192216
20
797.194507102777
30
388.648015135246
11
1027.77464778926
21
797.344357736535
31
388.648015160949
  0
LINE
 8
Layer0
10
1027.3864192216
20
814.395468997101
30
388.64800808886
11
1026.99819065395
21
814.446580257667
31
388.648008162553
  0
LINE
 8
Layer0
10
928.449803878315
20
828.149831320674
30
388.64802656243
11
928.449803878313
21
822.149831320677
31
388.648029084471
  0
LINE
 8
Layer0
10
934.449803878255
20
828.149831320705
30
388.648025091483
11
934.449803878254
21
822.149831320708
31
388.648027613524
  0
LINE
 8
Layer0
10
969.549584190869
20
761.91416768117
30
388.648044328006
11
1020.74958419087
21
761.914167681155
31
388.648031775928
  0
LINE
 8
Layer0
10
1027.77464778926
20
797.344357736535
30
388.648015160949
11
1027.38641922161
21
797.395468997101
31
388.648015234642
  0
LINE
 8
Layer0
10
1027.38641922161
20
797.395468997101
30
388.648015234642
11
1026.99819065395
21
797.344357736536
31
388.648015351303
  0
LINE
 8
Layer0
10
1103.77464778923
20
827.344357736506
30
388.647983918755
11
1104.13641922158
21
827.194507102751
31
388.647983893052
  0
LINE
 8
Layer0
10
1102.3257590498
20
826.956129168856
30
388.647984437149
11
1102.63641922158
21
827.194507102751
31
388.647984260788
  0
LINE
 8
Layer0
10
1102.99819065392
20
827.34435773651
30
388.647984109109
11
1103.38641922158
21
827.395468997073
31
388.647983992448
  0
LINE
 8
Layer0
10
1103.38641922158
20
827.395468997073
30
388.647983992448
11
1103.77464778923
21
827.344357736506
31
388.647983918755
  0
LINE
 8
Layer0
10
1104.835307961
20
796.283697564732
30
388.647996714767
11
1104.68545732725
21
796.645468997078
31
388.647996599437
  0
LINE
 8
Layer0
10
1025.93753048217
20
826.283697564752
30
388.648003446967
11
1026.08738111593
21
826.645468997099
31
388.648003258163
  0
LINE
 8
Layer0
10
1026.08738111593
20
826.645468997099
30
388.648003258163
11
1026.32575904983
21
826.95612916888
31
388.64800306914
  0
LINE
 8
Layer0
10
1102.3257590498
20
816.956129168858
30
388.64798864055
11
1102.63641922158
21
817.194507102752
31
388.64798846419
  0
LINE
 8
Layer0
10
1103.38641922158
20
817.395468997075
30
388.647988195849
11
1103.77464778923
21
817.344357736508
31
388.647988122156
  0
LINE
 8
Layer0
10
1104.44707939335
20
806.956129168856
30
388.647992323893
11
1104.13641922157
21
807.194507102752
31
388.647992299854
  0
LINE
 8
Layer0
10
1028.83530796104
20
815.507240429441
30
388.648007266331
11
1028.68545732728
21
815.145468997096
31
388.648007455136
  0
LINE
 8
Layer0
10
1025.88641922161
20
805.895468997103
30
388.648012029488
11
1025.93753048217
21
805.507240429449
31
388.648012180145
  0
LINE
 8
Layer0
10
1027.77464778925
20
804.446580257668
30
388.6480121756
11
1028.1364192216
21
804.596430891424
31
388.648012023921
  0
LINE
 8
Layer0
10
1102.99819065392
20
794.44658025765
30
388.647997937365
11
1103.38641922157
21
794.395468997083
31
388.647997863672
  0
LINE
 8
Layer0
10
1103.38641922157
20
794.395468997083
30
388.647997863672
11
1103.77464778922
21
794.446580257648
31
388.64799774701
  0
LINE
 8
Layer0
10
1104.88641922157
20
795.895468997079
30
388.647996865425
11
1104.835307961
21
796.283697564732
31
388.647996714767
  0
LINE
 8
Layer0
10
1104.13641922157
20
797.194507102754
30
388.647996503255
11
1103.77464778923
21
797.344357736513
31
388.647996528958
  0
LINE
 8
Layer0
10
1104.68545732725
20
796.645468997078
30
388.647996599437
11
1104.44707939335
21
796.956129168858
31
388.647996527294
  0
LINE
 8
Layer0
10
1104.44707939335
20
796.956129168858
30
388.647996527294
11
1104.13641922157
21
797.194507102754
31
388.647996503255
  0
LINE
 8
Layer0
10
1104.44707939335
20
794.8348088253
30
388.647997418971
11
1104.68545732724
21
795.145468997079
31
388.647997229947
  0
LINE
 8
Layer0
10
1104.68545732724
20
795.145468997079
30
388.647997229947
11
1104.835307961
21
795.507240429425
31
388.647997041143
  0
LINE
 8
Layer0
10
1026.99819065395
20
807.344357736534
30
388.648011147902
11
1026.63641922161
21
807.194507102779
31
388.648011299582
  0
LINE
 8
Layer0
10
1101.88641922157
20
805.895468997082
30
388.647993397497
11
1101.93753048214
21
805.507240429429
31
388.647993548155
  0
LINE
 8
Layer0
10
1103.77464778923
20
814.446580257644
30
388.647989340208
11
1104.13641922157
21
814.596430891402
31
388.647989188529
  0
LINE
 8
Layer0
10
1104.13641922157
20
807.194507102752
30
388.647992299854
11
1103.77464778923
21
807.344357736511
31
388.647992325557
  0
LINE
 8
Layer0
10
1026.08738111593
20
805.145468997105
30
388.648012295475
11
1026.32575904982
21
804.834808825323
31
388.648012367618
  0
LINE
 8
Layer0
10
1104.13641922157
20
794.596430891403
30
388.647997595331
11
1104.44707939335
21
794.8348088253
31
388.647997418971
  0
LINE
 8
Layer0
10
1102.63641922157
20
794.596430891405
30
388.647997963068
11
1102.99819065392
21
794.44658025765
31
388.647997937365
  0
LINE
 8
Layer0
10
1028.83530796104
20
816.283697564748
30
388.648006939955
11
1028.68545732728
21
816.645468997095
31
388.648006824625
  0
LINE
 8
Layer0
10
1102.99819065392
20
817.344357736512
30
388.64798831251
11
1102.63641922158
21
817.194507102752
31
388.64798846419
  0
LINE
 8
Layer0
10
1102.08738111589
20
795.145468997083
30
388.647997866886
11
1102.32575904979
21
794.834808825304
31
388.647997939029
  0
LINE
 8
Layer0
10
1101.88641922157
20
795.895468997084
30
388.647997600898
11
1101.93753048214
21
795.507240429431
31
388.647997751556
  0
LINE
 8
Layer0
10
1103.77464778923
20
797.344357736513
30
388.647996528958
11
1103.38641922157
21
797.39546899708
31
388.647996602651
  0
LINE
 8
Layer0
10
1104.13641922157
20
804.596430891401
30
388.64799339193
11
1104.44707939335
21
804.834808825299
31
388.647993215569
  0
LINE
 8
Layer0
10
1028.13641922161
20
807.194507102775
30
388.648010931845
11
1027.77464778926
21
807.344357736533
31
388.648010957548
  0
LINE
 8
Layer0
10
1102.0873811159
20
816.64546899708
30
388.647988829573
11
1102.3257590498
21
816.956129168858
31
388.64798864055
  0
LINE
 8
Layer0
10
1026.08738111593
20
815.145468997102
30
388.648008092074
11
1025.93753048217
21
815.507240429447
31
388.648007976744
  0
LINE
 8
Layer0
10
1103.38641922157
20
807.395468997078
30
388.64799239925
11
1103.77464778923
21
807.344357736511
31
388.647992325557
  0
LINE
 8
Layer0
10
1104.44707939335
20
814.834808825296
30
388.647989012168
11
1104.13641922157
21
814.596430891402
31
388.647989188529
  0
LINE
 8
Layer0
10
1103.77464778923
20
814.446580257644
30
388.647989340208
11
1103.38641922157
21
814.395468997078
31
388.647989456869
  0
LINE
 8
Layer0
10
1102.63641922157
20
814.596430891402
30
388.647989556265
11
1102.32575904979
21
814.8348088253
31
388.647989532226
  0
LINE
 8
Layer0
10
1028.68545732728
20
825.145468997094
30
388.648003251734
11
1028.44707939338
21
824.834808825318
31
388.648003440757
  0
LINE
 8
Layer0
10
1028.44707939338
20
824.834808825318
30
388.648003440757
11
1028.1364192216
21
824.596430891419
31
388.648003617118
  0
LINE
 8
Layer0
10
1101.93753048214
20
826.283697564731
30
388.647984814976
11
1102.0873811159
21
826.645468997078
31
388.647984626172
  0
LINE
 8
Layer0
10
1102.0873811159
20
826.645468997078
30
388.647984626172
11
1102.3257590498
21
826.956129168856
31
388.647984437149
  0
LINE
 8
Layer0
10
1027.38641922161
20
817.395468997099
30
388.64800682784
11
1027.77464778926
21
817.34435773653
31
388.648006754146
  0
LINE
 8
Layer0
10
1104.835307961
20
795.507240429425
30
388.647997041143
11
1104.88641922157
21
795.895468997079
31
388.647996865425
  0
LINE
 8
Layer0
10
1104.44707939335
20
824.834808825294
30
388.647984808767
11
1104.13641922157
21
824.5964308914
31
388.647984985127
  0
LINE
 8
Layer0
10
1103.77464778923
20
824.446580257642
30
388.647985136807
11
1104.13641922157
21
824.5964308914
31
388.647984985127
  0
LINE
 8
Layer0
10
1028.83530796104
20
795.507240429445
30
388.648015673134
11
1028.8864192216
21
795.895468997098
31
388.648015497416
  0
LINE
 8
Layer0
10
1028.1364192216
20
794.596430891426
30
388.648016227322
11
1028.44707939338
21
794.834808825322
31
388.648016050961
  0
LINE
 8
Layer0
10
1028.44707939338
20
794.834808825322
30
388.648016050961
11
1028.68545732728
21
795.145468997101
31
388.648015861938
  0
LINE
 8
Layer0
10
1102.0873811159
20
806.64546899708
30
388.647993032975
11
1101.93753048214
21
806.283697564736
31
388.647993221779
  0
LINE
 8
Layer0
10
1027.77464778926
20
824.446580257663
30
388.648003768797
11
1027.3864192216
21
824.3954689971
31
388.648003885459
  0
LINE
 8
Layer0
10
1027.3864192216
20
824.3954689971
30
388.648003885459
11
1026.99819065395
21
824.446580257665
31
388.648003959152
  0
LINE
 8
Layer0
10
925.449803878318
20
828.149831320676
30
388.648027297903
11
928.449803878315
21
828.149831320674
31
388.64802656243
  0
LINE
 8
Layer0
10
928.449803878313
20
822.149831320677
30
388.648029084471
11
925.449803878317
21
822.149831320679
31
388.648029819944
  0
LINE
 8
Layer0
10
1104.83530796101
20
825.507240429419
30
388.64798443094
11
1104.68545732725
21
825.145468997073
31
388.647984619744
  0
LINE
 8
Layer0
10
1104.68545732725
20
825.145468997073
30
388.647984619744
11
1104.44707939335
21
824.834808825294
31
388.647984808767
  0
LINE
 8
Layer0
10
1026.32575904983
20
826.95612916888
30
388.64800306914
11
1026.63641922161
21
827.194507102774
31
388.648002892779
  0
LINE
 8
Layer0
10
1101.89286393182
20
825.944421431403
30
388.647984968538
11
1101.93753048214
21
826.283697564731
31
388.647984814976
  0
LINE
 8
Layer0
10
1101.88641922158
20
825.895468997077
30
388.647984990695
11
1101.93753048214
21
825.507240429424
31
388.647985141352
  0
LINE
 8
Layer0
10
1101.88641922158
20
825.895468997077
30
388.647984990695
11
1101.89286393182
21
825.944421431403
31
388.647984968538
  0
LINE
 8
Layer0
10
1102.0873811159
20
825.14546899708
30
388.647985256682
11
1102.32575904979
21
824.834808825298
31
388.647985328825
  0
LINE
 8
Layer0
10
931.449803878257
20
828.149831320706
30
388.648025826956
11
934.449803878255
21
828.149831320705
31
388.648025091483
  0
LINE
 8
Layer0
10
1102.0873811159
20
825.14546899708
30
388.647985256682
11
1101.93753048214
21
825.507240429424
31
388.647985141352
  0
LINE
 8
Layer0
10
1028.13641922161
20
827.194507102771
30
388.648002525042
11
1028.44707939339
21
826.956129168876
31
388.648002549081
  0
LINE
 8
Layer0
10
1028.44707939339
20
826.956129168876
30
388.648002549081
11
1028.68545732728
21
826.645468997093
31
388.648002621224
  0
LINE
 8
Layer0
10
969.549584190868
20
758.714167681172
30
388.648045673095
11
969.549584190869
21
761.91416768117
31
388.648044328006
  0
LINE
 8
Layer0
10
1104.44707939335
20
806.956129168856
30
388.647992323893
11
1104.68545732725
21
806.645468997076
31
388.647992396036
  0
LINE
 8
Layer0
10
1104.68545732725
20
806.645468997076
30
388.647992396036
11
1104.83530796101
21
806.28369756473
31
388.647992511366
  0
LINE
 8
Layer0
10
1102.63641922157
20
807.194507102754
30
388.647992667591
11
1102.99819065392
21
807.344357736513
31
388.647992515911
  0
LINE
 8
Layer0
10
1102.99819065392
20
807.344357736513
30
388.647992515911
11
1103.38641922157
21
807.395468997078
31
388.64799239925
  0
LINE
 8
Layer0
10
1103.77464778922
20
794.446580257648
30
388.64799774701
11
1104.13641922157
21
794.596430891403
31
388.647997595331
  0
LINE
 8
Layer0
10
1102.32575904979
20
806.95612916886
30
388.647992843951
11
1102.63641922157
21
807.194507102754
31
388.647992667591
  0
LINE
 8
Layer0
10
1104.83530796101
20
816.283697564727
30
388.647988307965
11
1104.88641922157
21
815.895468997074
31
388.647988458622
  0
LINE
 8
Layer0
10
1103.38641922157
20
804.395468997081
30
388.647993660271
11
1102.99819065392
21
804.446580257648
31
388.647993733964
  0
LINE
 8
Layer0
10
1026.32575904982
20
824.834808825322
30
388.648003960816
11
1026.08738111593
21
825.1454689971
31
388.648003888673
  0
LINE
 8
Layer0
10
1025.93753048217
20
825.507240429446
30
388.648003773343
11
1025.88641922161
21
825.895468997099
31
388.648003622685
  0
LINE
 8
Layer0
10
1103.77464778923
20
817.344357736508
30
388.647988122156
11
1104.13641922157
21
817.194507102752
31
388.647988096453
  0
LINE
 8
Layer0
10
1104.13641922157
20
817.194507102752
30
388.647988096453
11
1104.44707939335
21
816.956129168853
31
388.647988120492
  0
LINE
 8
Layer0
10
1025.93753048217
20
806.283697564756
30
388.648011853769
11
1025.88641922161
21
805.895468997103
31
388.648012029488
  0
LINE
 8
Layer0
10
1102.99819065392
20
814.446580257648
30
388.647989530562
11
1103.38641922157
21
814.395468997078
31
388.647989456869
  0
LINE
 8
Layer0
10
1028.13641922161
20
807.194507102775
30
388.648010931845
11
1028.44707939338
21
806.956129168878
31
388.648010955884
  0
LINE
 8
Layer0
10
1028.44707939338
20
806.956129168878
30
388.648010955884
11
1028.68545732728
21
806.645468997098
31
388.648011028027
  0
LINE
 8
Layer0
10
1028.83530796104
20
806.28369756475
30
388.648011143357
11
1028.68545732728
21
806.645468997098
31
388.648011028027
  0
LINE
 8
Layer0
10
1102.63641922157
20
804.596430891404
30
388.647993759666
11
1102.32575904979
21
804.834808825303
31
388.647993735627
  0
LINE
 8
Layer0
10
1102.32575904979
20
804.834808825303
30
388.647993735627
11
1102.0873811159
21
805.145468997081
31
388.647993663485
  0
LINE
 8
Layer0
10
1102.0873811159
20
806.64546899708
30
388.647993032975
11
1102.32575904979
21
806.95612916886
31
388.647992843951
  0
LINE
 8
Layer0
10
1028.68545732728
20
805.145468997099
30
388.648011658537
11
1028.44707939338
21
804.83480882532
31
388.64801184756
  0
LINE
 8
Layer0
10
1026.6364192216
20
804.596430891428
30
388.648012391657
11
1026.32575904982
21
804.834808825323
31
388.648012367618
  0
LINE
 8
Layer0
10
1025.93753048217
20
795.507240429451
30
388.648016383547
11
1026.08738111593
21
795.145468997106
31
388.648016498877
  0
LINE
 8
Layer0
10
1026.99819065395
20
824.446580257665
30
388.648003959152
11
1026.6364192216
21
824.596430891423
31
388.648003984855
  0
LINE
 8
Layer0
10
1026.6364192216
20
824.596430891423
30
388.648003984855
11
1026.32575904982
21
824.834808825322
31
388.648003960816
  0
LINE
 8
Layer0
10
1102.63641922157
20
824.5964308914
30
388.647985352864
11
1102.99819065392
21
824.446580257646
31
388.647985327161
  0
LINE
 8
Layer0
10
1102.63641922157
20
824.5964308914
30
388.647985352864
11
1102.32575904979
21
824.834808825298
31
388.647985328825
  0
LINE
 8
Layer0
10
1102.99819065392
20
817.344357736512
30
388.64798831251
11
1103.38641922158
21
817.395468997075
31
388.647988195849
  0
LINE
 8
Layer0
10
1104.68545732725
20
815.145468997075
30
388.647988823145
11
1104.44707939335
21
814.834808825296
31
388.647989012168
  0
LINE
 8
Layer0
10
1102.0873811159
20
815.145468997082
30
388.647989460083
11
1101.93753048214
21
815.507240429426
31
388.647989344753
  0
LINE
 8
Layer0
10
1101.93753048214
20
816.283697564733
30
388.647989018377
11
1102.0873811159
21
816.64546899708
31
388.647988829573
  0
LINE
 8
Layer0
10
1102.99819065392
20
797.344357736514
30
388.647996719313
11
1102.63641922157
21
797.194507102756
31
388.647996870992
  0
LINE
 8
Layer0
10
1028.68545732728
20
805.145468997099
30
388.648011658537
11
1028.83530796104
21
805.507240429443
31
388.648011469733
  0
LINE
 8
Layer0
10
1028.1364192216
20
804.596430891424
30
388.648012023921
11
1028.44707939338
21
804.83480882532
31
388.64801184756
  0
LINE
 8
Layer0
10
1027.38641922161
20
807.395468997099
30
388.648011031241
11
1026.99819065395
21
807.344357736534
31
388.648011147902
  0
LINE
 8
Layer0
10
1026.08738111593
20
796.645468997105
30
388.648015868366
11
1025.93753048217
21
796.283697564758
31
388.648016057171
  0
LINE
 8
Layer0
10
1027.38641922161
20
827.395468997097
30
388.648002624438
11
1027.77464778926
21
827.344357736528
31
388.648002550745
  0
LINE
 8
Layer0
10
1027.77464778926
20
827.344357736528
30
388.648002550745
11
1028.13641922161
21
827.194507102771
31
388.648002525042
  0
LINE
 8
Layer0
10
1028.68545732728
20
815.145468997096
30
388.648007455136
11
1028.44707939338
21
814.83480882532
31
388.648007644159
  0
LINE
 8
Layer0
10
1028.44707939338
20
814.83480882532
30
388.648007644159
11
1028.1364192216
21
814.596430891421
31
388.648007820519
  0
LINE
 8
Layer0
10
1027.77464778926
20
814.446580257665
30
388.648007972199
11
1027.3864192216
21
814.395468997101
31
388.64800808886
  0
LINE
 8
Layer0
10
1025.93753048217
20
796.283697564758
30
388.648016057171
11
1025.8864192216
21
795.895468997105
31
388.648016232889
  0
LINE
 8
Layer0
10
1026.08738111593
20
795.145468997106
30
388.648016498877
11
1026.32575904982
21
794.834808825325
31
388.648016571019
  0
LINE
 8
Layer0
10
1025.93753048217
20
815.507240429447
30
388.648007976744
11
1025.88641922161
21
815.895468997101
31
388.648007826086
  0
LINE
 8
Layer0
10
1026.99819065395
20
804.44658025767
30
388.648012365954
11
1026.6364192216
21
804.596430891428
31
388.648012391657
  0
LINE
 8
Layer0
10
1026.99819065395
20
794.446580257671
30
388.648016569356
11
1027.3864192216
21
794.395468997103
31
388.648016495662
  0
LINE
 8
Layer0
10
1104.83530796101
20
806.28369756473
30
388.647992511366
11
1104.88641922157
21
805.895468997077
31
388.647992662024
  0
LINE
 8
Layer0
10
1104.88641922157
20
805.895468997077
30
388.647992662024
11
1104.835307961
21
805.507240429423
31
388.647992837742
  0
LINE
 8
Layer0
10
1026.32575904982
20
794.834808825325
30
388.648016571019
11
1026.6364192216
21
794.596430891429
31
388.648016595058
  0
LINE
 8
Layer0
10
1026.6364192216
20
794.596430891429
30
388.648016595058
11
1026.99819065395
21
794.446580257671
31
388.648016569356
  0
LINE
 8
Layer0
10
1026.32575904983
20
796.956129168883
30
388.648015679343
11
1026.08738111593
21
796.645468997105
31
388.648015868366
  0
LINE
 8
Layer0
10
1026.63641922161
20
797.19450710278
30
388.648015502983
11
1026.32575904983
21
796.956129168883
31
388.648015679343
  0
LINE
 8
Layer0
10
1103.38641922157
20
797.39546899708
30
388.647996602651
11
1102.99819065392
21
797.344357736514
31
388.647996719313
  0
LINE
 8
Layer0
10
1026.63641922161
20
807.194507102779
30
388.648011299582
11
1026.32575904983
21
806.956129168881
31
388.648011475942
  0
LINE
 8
Layer0
10
1026.99819065395
20
797.344357736536
30
388.648015351303
11
1026.63641922161
21
797.19450710278
31
388.648015502983
  0
LINE
 8
Layer0
10
1026.08738111593
20
806.645468997103
30
388.648011664965
11
1025.93753048217
21
806.283697564756
31
388.648011853769
  0
LINE
 8
Layer0
10
1101.93753048214
20
805.507240429429
30
388.647993548155
11
1102.0873811159
21
805.145468997081
31
388.647993663485
  0
LINE
 8
Layer0
10
1028.68545732728
20
795.145468997101
30
388.648015861938
11
1028.83530796104
21
795.507240429445
31
388.648015673134
  0
LINE
 8
Layer0
10
1027.3864192216
20
794.395468997103
30
388.648016495662
11
1027.77464778925
21
794.44658025767
31
388.648016379001
  0
LINE
 8
Layer0
10
1026.08738111593
20
816.6454689971
30
388.648007461564
11
1026.32575904983
21
816.956129168882
31
388.648007272541
  0
LINE
 8
Layer0
10
1028.8864192216
20
795.895468997098
30
388.648015497416
11
1028.83530796104
21
796.283697564752
31
388.648015346758
  0
LINE
 8
Layer0
10
1028.83530796104
20
796.283697564752
30
388.648015346758
11
1028.68545732728
21
796.6454689971
31
388.648015231428
  0
LINE
 8
Layer0
10
1101.93753048214
20
796.283697564738
30
388.64799742518
11
1101.88641922157
21
795.895468997084
31
388.647997600898
  0
LINE
 8
Layer0
10
1028.13641922161
20
817.194507102772
30
388.648006728444
11
1028.44707939339
21
816.956129168878
31
388.648006752483
  0
LINE
 8
Layer0
10
1025.93753048217
20
816.283697564754
30
388.648007650368
11
1026.08738111593
21
816.6454689971
31
388.648007461564
  0
LINE
 8
Layer0
10
1102.63641922157
20
797.194507102756
30
388.647996870992
11
1102.32575904979
21
796.956129168862
31
388.647997047353
  0
LINE
 8
Layer0
10
1101.88641922158
20
815.895468997079
30
388.647989194096
11
1101.93753048214
21
815.507240429426
31
388.647989344753
  0
LINE
 8
Layer0
10
1102.32575904979
20
796.956129168862
30
388.647997047353
11
1102.0873811159
21
796.645468997081
31
388.647997236376
  0
LINE
 8
Layer0
10
1102.0873811159
20
796.645468997081
30
388.647997236376
11
1101.93753048214
21
796.283697564738
31
388.64799742518
  0
LINE
 8
Layer0
10
1028.1364192216
20
814.596430891421
30
388.648007820519
11
1027.77464778926
21
814.446580257665
31
388.648007972199
  0
LINE
 8
Layer0
10
1026.99819065395
20
814.446580257667
30
388.648008162553
11
1026.6364192216
21
814.596430891425
31
388.648008188256
  0
LINE
 8
Layer0
10
1026.6364192216
20
814.596430891425
30
388.648008188256
11
1026.32575904982
21
814.834808825324
31
388.648008164217
  0
LINE
 8
Layer0
10
1026.32575904982
20
814.834808825324
30
388.648008164217
11
1026.08738111593
21
815.145468997102
31
388.648008092074
  0
LINE
 8
Layer0
10
1020.74958419086
20
709.714167679136
30
388.648053717683
11
969.549584190864
21
709.71416767915
31
388.648066269761
  0
LINE
 8
Layer0
10
969.549584190864
20
709.71416767915
30
388.648066269761
11
969.549584190864
21
712.91416767915
31
388.648064924672
  0
LINE
 8
Layer0
10
1020.74958419086
20
712.914167679135
30
388.648052372594
11
1020.74958419086
21
709.714167679136
31
388.648053717683
  0
LINE
 8
Layer0
10
969.549584190864
20
712.91416767915
30
388.648064924672
11
1020.74958419086
21
712.914167679135
31
388.648052372594
  0
LINE
 8
Layer0
10
969.549584190866
20
730.714167679284
30
388.648057442618
11
969.549584190866
21
733.914167679283
31
388.64805609753
  0
LINE
 8
Layer0
10
961.141314862396
20
913.308616299348
30
388.647980188123
11
1037.7413148624
21
913.308616299326
31
388.647961409037
  0
LINE
 8
Layer0
10
1017.1021505747
20
803.631500268585
30
388.648015134656
11
1011.1021505747
21
803.631500268586
31
388.648016605603
  0
LINE
 8
Layer0
10
1134.00215057476
20
793.631500268611
30
388.647990679114
11
1140.00215057475
21
793.63150026861
31
388.647989208167
  0
LINE
 8
Layer0
10
1017.10215057473
20
797.631500268648
30
388.648017656697
11
1011.10215057473
21
797.631500268648
31
388.648019127644
  0
LINE
 8
Layer0
10
961.141314862396
20
909.308616299349
30
388.647981869483
11
961.141314862396
21
913.308616299348
31
388.647980188123
  0
LINE
 8
Layer0
10
1027.7413148623
20
953.308616299349
30
388.64794704701
11
1027.7413148623
21
949.308616299352
31
388.647948728371
  0
LINE
 8
Layer0
10
961.141314862398
20
933.308616299357
30
388.64797178132
11
1037.7413148624
21
933.308616299335
31
388.647953002235
  0
LINE
 8
Layer0
10
1140.00215057472
20
796.631500268551
30
388.647987947147
11
1134.00215057472
21
796.631500268553
31
388.647989418094
  0
LINE
 8
Layer0
10
1140.00215057475
20
790.631500268613
30
388.647990469188
11
1134.00215057476
21
790.631500268614
31
388.647991940134
  0
LINE
 8
Layer0
10
1037.7413148624
20
929.308616299336
30
388.647954683595
11
961.141314862398
21
929.308616299359
31
388.647973462681
  0
LINE
 8
Layer0
10
1017.1021505747
20
806.631500268581
30
388.648013873636
11
1017.1021505747
21
803.631500268585
31
388.648015134656
  0
LINE
 8
Layer0
10
971.141314862302
20
953.308616299318
30
388.64796092294
11
1027.7413148623
21
953.308616299349
31
388.64794704701
  0
LINE
 8
Layer0
10
1134.00215057476
20
790.631500268614
30
388.647991940134
11
1134.00215057476
21
793.631500268611
31
388.647990679114
  0
LINE
 8
Layer0
10
1134.00215057472
20
796.631500268553
30
388.647989418094
11
1134.00215057472
21
799.631500268549
31
388.647988157073
  0
LINE
 8
Layer0
10
1044.35196175526
20
687.892504493797
30
388.648050999469
11
1038.35196175526
21
687.892504493797
31
388.648052470415
  0
LINE
 8
Layer0
10
1134.00215057472
20
799.631500268549
30
388.647988157073
11
1140.00215057472
21
799.631500268548
31
388.647986686127
  0
LINE
 8
Layer0
10
1011.1021505747
20
803.631500268586
30
388.648016605603
11
1011.1021505747
21
806.631500268582
31
388.648015344583
  0
LINE
 8
Layer0
10
1117.69220070632
20
760.52214419812
30
388.648008594816
11
1114.79220070632
21
760.522144198121
31
388.648009305773
  0
LINE
 8
Layer0
10
1038.35196175526
20
687.892504493797
30
388.648052470415
11
1038.35196175526
21
690.892504493793
31
388.648051209395
  0
LINE
 8
Layer0
10
1044.35196175526
20
690.892504493793
30
388.648049738448
11
1044.35196175526
21
687.892504493797
31
388.648050999469
  0
LINE
 8
Layer0
10
1044.35196175523
20
696.892504493729
30
388.648047216408
11
1044.35196175523
21
693.892504493733
31
388.648048477428
  0
LINE
 8
Layer0
10
1044.35196175523
20
693.892504493733
30
388.648048477428
11
1038.35196175523
21
693.892504493734
31
388.648049948374
  0
LINE
 8
Layer0
10
1038.35196175526
20
690.892504493793
30
388.648051209395
11
1044.35196175526
21
690.892504493793
31
388.648049738448
  0
LINE
 8
Layer0
10
969.549584190864
20
705.914167679286
30
388.648067867053
11
1020.74958419086
21
705.914167679272
31
388.648055314975
  0
LINE
 8
Layer0
10
1020.74958419087
20
733.914167679269
30
388.648043545452
11
1020.74958419087
21
730.714167679269
31
388.64804489054
  0
LINE
 8
Layer0
10
1114.79220070631
20
696.122144198155
30
388.648036375677
11
1117.69220070631
21
696.122144198155
31
388.64803566472
  0
LINE
 8
Layer0
10
961.141314862398
20
929.308616299359
30
388.647973462681
11
961.141314862398
21
933.308616299357
31
388.64797178132
  0
LINE
 8
Layer0
10
969.549584190868
20
751.714167680495
30
388.648048615476
11
969.549584190869
21
754.914167680494
31
388.648047270387
  0
LINE
 8
Layer0
10
1020.74958419087
20
761.914167681155
30
388.648031775928
11
1020.74958419087
21
758.714167681157
31
388.648033121017
  0
LINE
 8
Layer0
10
1208.92930670464
20
900.342941811159
30
388.647927455039
11
1205.92930670464
21
900.34294181116
31
388.647928190512
 0
ENDSEC
 0
EOF
