solid FallaSLS
facet normal -3.552818853975153e-07 -3.3391166809227563e-07 -0.9999999999998812
outer loop
vertex 867.5063249889135 21.8771117797906 363.19307861553773
vertex 867.5063249889141 23.873494013083686 363.19307794892256
vertex 867.6377393424907 22.875302896437095 363.19307823554107
endloop
endfacet
facet normal -3.552818853975153e-07 -3.3391166809227563e-07 -0.9999999999998812
outer loop
vertex 867.5063249889141 23.873494013083686 363.19307794892256
vertex 867.5063249889135 21.8771117797906 363.19307861553773
vertex 867.121037599211 20.946945738154664 363.1930790630172
endloop
endfacet
facet normal -3.552818853975153e-07 -3.3391166809227563e-07 -0.9999999999998812
outer loop
vertex 867.5063249889141 23.873494013083686 363.19307794892256
vertex 867.121037599211 20.946945738154664 363.1930790630172
vertex 867.1210375992101 24.80366005471952 363.193077775215
endloop
endfacet
facet normal -3.552818853975153e-07 -3.3391166809227563e-07 -0.9999999999998812
outer loop
vertex 867.1210375992101 24.80366005471952 363.193077775215
vertex 867.121037599211 20.946945738154664 363.1930790630172
vertex 866.5081338722687 20.148194050094848 363.1930795474829
endloop
endfacet
facet normal -3.552818853975153e-07 -3.3391166809227563e-07 -0.9999999999998812
outer loop
vertex 867.1210375992101 24.80366005471952 363.193077775215
vertex 866.5081338722687 20.148194050094848 363.1930795474829
vertex 866.5310241630539 22.87530349077537 363.19307915264955
endloop
endfacet
facet normal -3.552818853975153e-07 -3.3391166809227563e-07 -0.9999999999998812
outer loop
vertex 866.5310241630539 22.87530349077537 363.19307915264955
vertex 866.5081338722687 20.148194050094848 363.1930795474829
vertex 866.4373201853488 22.16355111674345 363.1930794870186
endloop
endfacet
facet normal -3.552818853975153e-07 -3.3391166809227563e-07 -0.9999999999998812
outer loop
vertex 866.4373201853488 22.16355111674345 363.1930794870186
vertex 866.5081338722687 20.148194050094848 363.1930795474829
vertex 865.7093821842093 19.53529032315282 363.19308003592056
endloop
endfacet
facet normal -3.552818853975153e-07 -3.3391166809227563e-07 -0.9999999999998812
outer loop
vertex 866.4373201853488 22.16355111674345 363.1930794870186
vertex 865.7093821842093 19.53529032315282 363.19308003592056
vertex 866.1625940234607 21.500303490775373 363.1930798352135
endloop
endfacet
facet normal -3.552818853975153e-07 -3.3391166809227563e-07 -0.9999999999998812
outer loop
vertex 866.1625940234607 21.500303490775373 363.1930798352135
vertex 865.7093821842093 19.53529032315282 363.19308003592056
vertex 865.7255678113186 20.930759842512302 363.1930801735049
endloop
endfacet
facet normal -3.552818853975153e-07 -3.3391166809227563e-07 -0.9999999999998812
outer loop
vertex 865.7255678113186 20.930759842512302 363.1930801735049
vertex 865.7093821842093 19.53529032315282 363.19308003592056
vertex 865.1560241630535 20.493733630368105 363.1930804788392
endloop
endfacet
facet normal -3.552818853975153e-07 -3.3391166809227563e-07 -0.9999999999998812
outer loop
vertex 865.1560241630535 20.493733630368105 363.1930804788392
vertex 865.7093821842093 19.53529032315282 363.19308003592056
vertex 864.7792161425739 19.150002933448352 363.1930804950438
endloop
endfacet
facet normal -3.552818853975153e-07 -3.3391166809227563e-07 -0.9999999999998812
outer loop
vertex 865.1560241630535 20.493733630368105 363.1930804788392
vertex 864.7792161425739 19.150002933448352 363.1930804950438
vertex 864.4927765370862 20.219007468480275 363.19308073040827
endloop
endfacet
facet normal -3.552818853975153e-07 -3.3391166809227563e-07 -0.9999999999998812
outer loop
vertex 864.4927765370862 20.219007468480275 363.19308073040827
vertex 864.7792161425739 19.150002933448352 363.1930804950438
vertex 863.7810250259276 19.01858857987226 363.1930808935638
endloop
endfacet
facet normal -3.552818853975153e-07 -3.3391166809227563e-07 -0.9999999999998812
outer loop
vertex 864.4927765370862 20.219007468480275 363.19308073040827
vertex 863.7810250259276 19.01858857987226 363.1930808935638
vertex 863.7810241630536 20.125303490775153 363.19308091106785
endloop
endfacet
facet normal -3.552818853975153e-07 -3.3391166809227563e-07 -0.9999999999998812
outer loop
vertex 863.7810241630536 20.125303490775153 363.19308091106785
vertex 863.7810250259276 19.01858857987226 363.1930808935638
vertex 862.7828339092811 19.150002933448405 363.193081204322
endloop
endfacet
facet normal -3.552818853975153e-07 -3.3391166809227563e-07 -0.9999999999998812
outer loop
vertex 863.7810241630536 20.125303490775153 363.19308091106785
vertex 862.7828339092811 19.150002933448405 363.193081204322
vertex 863.0692717890223 20.21900746848013 363.19308100850674
endloop
endfacet
facet normal -3.552818853975153e-07 -3.3391166809227563e-07 -0.9999999999998812
outer loop
vertex 863.0692717890223 20.21900746848013 363.19308100850674
vertex 862.7828339092811 19.150002933448405 363.193081204322
vertex 862.4060241630536 20.493733630367817 363.1930810160842
endloop
endfacet
facet normal -3.552818853975153e-07 -3.3391166809227563e-07 -0.9999999999998812
outer loop
vertex 862.4060241630536 20.493733630367817 363.1930810160842
vertex 862.7828339092811 19.150002933448405 363.193081204322
vertex 861.8526678676442 19.535290323152907 363.19308140614163
endloop
endfacet
facet normal -3.552818853975153e-07 -3.3391166809227563e-07 -0.9999999999998812
outer loop
vertex 862.4060241630536 20.493733630367817 363.1930810160842
vertex 861.8526678676442 19.535290323152907 363.19308140614163
vertex 861.8364805147905 20.930759842511975 363.19308093328414
endloop
endfacet
facet normal -3.552818853975153e-07 -3.3391166809227563e-07 -0.9999999999998812
outer loop
vertex 861.8364805147905 20.930759842511975 363.19308093328414
vertex 861.8526678676442 19.535290323152907 363.19308140614163
vertex 861.0539161795821 20.148194050094993 363.19308148526756
endloop
endfacet
facet normal -3.552818853975153e-07 -3.3391166809227563e-07 -0.9999999999998812
outer loop
vertex 861.8364805147905 20.930759842511975 363.19308093328414
vertex 861.0539161795821 20.148194050094993 363.19308148526756
vertex 861.3994543026462 21.500303490774936 363.19308076574896
endloop
endfacet
facet normal -3.552818853975153e-07 -3.3391166809227563e-07 -0.9999999999998812
outer loop
vertex 861.3994543026462 21.500303490774936 363.19308076574896
vertex 861.0539161795821 20.148194050094993 363.19308148526756
vertex 861.1247281407584 22.163551116742948 363.1930805248963
endloop
endfacet
facet normal -3.552818853975153e-07 -3.3391166809227563e-07 -0.9999999999998812
outer loop
vertex 861.1247281407584 22.163551116742948 363.1930805248963
vertex 861.0539161795821 20.148194050094993 363.19308148526756
vertex 861.031024163052 22.87530349077485 363.1930802271395
endloop
endfacet
facet normal -3.552818853975153e-07 -3.3391166809227563e-07 -0.9999999999998812
outer loop
vertex 861.031024163052 22.87530349077485 363.1930802271395
vertex 861.0539161795821 20.148194050094993 363.19308148526756
vertex 860.4410124526413 20.946945738154824 363.19308143630866
endloop
endfacet
facet normal -3.552818853975153e-07 -3.3391166809227563e-07 -0.9999999999998812
outer loop
vertex 866.5310241630539 22.87530349077537 363.19307915264955
vertex 866.5081338722671 25.60241174277937 363.193077726256
vertex 867.1210375992101 24.80366005471952 363.193077775215
endloop
endfacet
facet normal -3.552818853975153e-07 -3.3391166809227563e-07 -0.9999999999998812
outer loop
vertex 866.5081338722671 25.60241174277937 363.193077726256
vertex 866.5310241630539 22.87530349077537 363.19307915264955
vertex 866.4373201853491 23.587055864807265 363.1930788548927
endloop
endfacet
facet normal -3.552818853975153e-07 -3.3391166809227563e-07 -0.9999999999998812
outer loop
vertex 866.5081338722671 25.60241174277937 363.193077726256
vertex 866.4373201853491 23.587055864807265 363.1930788548927
vertex 865.7093821842086 26.215315469721475 363.193077805382
endloop
endfacet
facet normal -3.552818853975153e-07 -3.3391166809227563e-07 -0.9999999999998812
outer loop
vertex 865.7093821842086 26.215315469721475 363.193077805382
vertex 866.4373201853491 23.587055864807265 363.1930788548927
vertex 866.1625940234604 24.2503034907753 363.1930786140401
endloop
endfacet
facet normal -3.552818853975153e-07 -3.3391166809227563e-07 -0.9999999999998812
outer loop
vertex 865.7093821842086 26.215315469721475 363.193077805382
vertex 866.1625940234604 24.2503034907753 363.1930786140401
vertex 865.7255678113168 24.819847139038245 363.1930784465049
endloop
endfacet
facet normal -3.552818853975153e-07 -3.3391166809227563e-07 -0.9999999999998812
outer loop
vertex 865.7093821842086 26.215315469721475 363.193077805382
vertex 865.7255678113168 24.819847139038245 363.1930784465049
vertex 865.1560241630533 25.256873351182396 363.19307836370507
endloop
endfacet
facet normal -3.552818853975153e-07 -3.3391166809227563e-07 -0.9999999999998812
outer loop
vertex 865.7093821842086 26.215315469721475 363.193077805382
vertex 865.1560241630533 25.256873351182396 363.19307836370507
vertex 864.7792161425715 26.60060285942594 363.1930780072014
endloop
endfacet
facet normal -3.552818853975153e-07 -3.3391166809227563e-07 -0.9999999999998812
outer loop
vertex 864.7792161425715 26.60060285942594 363.1930780072014
vertex 865.1560241630533 25.256873351182396 363.19307836370507
vertex 864.4927765370851 25.531599513070088 363.1930783712824
endloop
endfacet
facet normal -3.552818853975153e-07 -3.3391166809227563e-07 -0.9999999999998812
outer loop
vertex 864.7792161425715 26.60060285942594 363.1930780072014
vertex 864.4927765370851 25.531599513070088 363.1930783712824
vertex 863.7810250259242 26.732017213002052 363.19307831795993
endloop
endfacet
facet normal -3.552818853975153e-07 -3.3391166809227563e-07 -0.9999999999998812
outer loop
vertex 863.7810250259242 26.732017213002052 363.19307831795993
vertex 864.4927765370851 25.531599513070088 363.1930783712824
vertex 863.7810241630531 25.625303490775035 363.19307846872107
endloop
endfacet
facet normal -3.552818853975153e-07 -3.3391166809227563e-07 -0.9999999999998812
outer loop
vertex 863.7810250259242 26.732017213002052 363.19307831795993
vertex 863.7810241630531 25.625303490775035 363.19307846872107
vertex 862.7828339092791 26.600602859425997 363.19307871648016
endloop
endfacet
facet normal -3.552818853975153e-07 -3.3391166809227563e-07 -0.9999999999998812
outer loop
vertex 862.7828339092791 26.600602859425997 363.19307871648016
vertex 863.7810241630531 25.625303490775035 363.19307846872107
vertex 863.0692717890223 25.531599513069942 363.1930786493808
endloop
endfacet
facet normal -3.552818853975153e-07 -3.3391166809227563e-07 -0.9999999999998812
outer loop
vertex 862.7828339092791 26.600602859425997 363.19307871648016
vertex 863.0692717890223 25.531599513069942 363.1930786493808
vertex 862.4060241630534 25.25687335118213 363.19307890094984
endloop
endfacet
facet normal -3.552818853975153e-07 -3.3391166809227563e-07 -0.9999999999998812
outer loop
vertex 862.7828339092791 26.600602859425997 363.19307871648016
vertex 862.4060241630534 25.25687335118213 363.19307890094984
vertex 861.8526678676429 26.215315469721503 363.193079175603
endloop
endfacet
facet normal -3.552818853975153e-07 -3.3391166809227563e-07 -0.9999999999998812
outer loop
vertex 861.8526678676429 26.215315469721503 363.193079175603
vertex 862.4060241630534 25.25687335118213 363.19307890094984
vertex 861.8364805147902 24.819847139037893 363.19307920628415
endloop
endfacet
facet normal -3.552818853975153e-07 -3.3391166809227563e-07 -0.9999999999998812
outer loop
vertex 861.8526678676429 26.215315469721503 363.193079175603
vertex 861.8364805147902 24.819847139037893 363.19307920628415
vertex 861.0539161795812 25.602411742779534 363.1930796640409
endloop
endfacet
facet normal -3.552818853975153e-07 -3.3391166809227563e-07 -0.9999999999998812
outer loop
vertex 861.0539161795812 25.602411742779534 363.1930796640409
vertex 861.8364805147902 24.819847139037893 363.19307920628415
vertex 861.3994543026463 24.250303490774872 363.1930795445756
endloop
endfacet
facet normal -3.552818853975153e-07 -3.3391166809227563e-07 -0.9999999999998812
outer loop
vertex 861.0539161795812 25.602411742779534 363.1930796640409
vertex 861.3994543026463 24.250303490774872 363.1930795445756
vertex 861.1247281407585 23.587055864806775 363.1930798927704
endloop
endfacet
facet normal -3.552818853975153e-07 -3.3391166809227563e-07 -0.9999999999998812
outer loop
vertex 861.0539161795812 25.602411742779534 363.1930796640409
vertex 861.1247281407585 23.587055864806775 363.1930798927704
vertex 861.031024163052 22.87530349077485 363.1930802271395
endloop
endfacet
facet normal -3.552818853975153e-07 -3.3391166809227563e-07 -0.9999999999998812
outer loop
vertex 861.0539161795812 25.602411742779534 363.1930796640409
vertex 861.031024163052 22.87530349077485 363.1930802271395
vertex 860.4410124526399 24.803660054719685 363.193080148507
endloop
endfacet
facet normal -3.552818853975153e-07 -3.3391166809227563e-07 -0.9999999999998812
outer loop
vertex 860.4410124526399 24.803660054719685 363.193080148507
vertex 861.031024163052 22.87530349077485 363.1930802271395
vertex 860.4410124526413 20.946945738154824 363.19308143630866
endloop
endfacet
facet normal -3.552818853975153e-07 -3.3391166809227563e-07 -0.9999999999998812
outer loop
vertex 860.4410124526399 24.803660054719685 363.193080148507
vertex 860.4410124526413 20.946945738154824 363.19308143630866
vertex 860.0557250629366 21.877111779790734 363.193081262601
endloop
endfacet
facet normal -3.552818853975153e-07 -3.3391166809227563e-07 -0.9999999999998812
outer loop
vertex 860.4410124526399 24.803660054719685 363.193080148507
vertex 860.0557250629366 21.877111779790734 363.193081262601
vertex 860.0557250629345 23.873494013083818 363.19308059598586
endloop
endfacet
facet normal -3.552818853975153e-07 -3.3391166809227563e-07 -0.9999999999998812
outer loop
vertex 860.0557250629345 23.873494013083818 363.19308059598586
vertex 860.0557250629366 21.877111779790734 363.193081262601
vertex 859.9243107093606 22.87530289643725 363.19308097598235
endloop
endfacet
facet normal 3.5621532414495034e-07 3.3326869847315134e-07 0.9999999999998812
outer loop
vertex 866.5033872052298 25.597665815110293 367.59886929379735
vertex 866.5310260976618 22.875304707542455 367.59887063357684
vertex 867.1152239022324 24.800304707542107 367.59886934158715
endloop
endfacet
facet normal 3.5621532414495034e-07 3.3326869847315134e-07 0.9999999999998812
outer loop
vertex 866.5310260976618 22.875304707542455 367.59887063357684
vertex 866.5033872052298 25.597665815110293 367.59886929379735
vertex 866.4373221199569 23.587057081574354 367.5988703358201
endloop
endfacet
facet normal 3.5621532414495034e-07 3.3326869847315134e-07 0.9999999999998812
outer loop
vertex 866.4373221199569 23.587057081574354 367.5988703358201
vertex 866.5033872052298 25.597665815110293 367.59886929379735
vertex 865.7060260976617 26.2095025121122 367.5988693739235
endloop
endfacet
facet normal 3.5621532414495034e-07 3.3326869847315134e-07 0.9999999999998812
outer loop
vertex 866.4373221199569 23.587057081574354 367.5988703358201
vertex 865.7060260976617 26.2095025121122 367.5988693739235
vertex 866.162595958069 24.2503047075424 367.5988700949675
endloop
endfacet
facet normal 3.5621532414495034e-07 3.3326869847315134e-07 0.9999999999998812
outer loop
vertex 866.162595958069 24.2503047075424 367.5988700949675
vertex 865.7060260976617 26.2095025121122 367.5988693739235
vertex 865.7255697459257 24.819848355805348 367.59886992743236
endloop
endfacet
facet normal 3.5621532414495034e-07 3.3326869847315134e-07 0.9999999999998812
outer loop
vertex 865.7255697459257 24.819848355805348 367.59886992743236
vertex 865.7060260976617 26.2095025121122 367.5988693739235
vertex 865.1560260976619 25.256874567949477 367.5988698446322
endloop
endfacet
facet normal 3.5621532414495034e-07 3.3326869847315134e-07 0.9999999999998812
outer loop
vertex 865.1560260976619 25.256874567949477 367.5988698446322
vertex 865.7060260976617 26.2095025121122 367.5988693739235
vertex 864.777479421307 26.594119138755016 367.5988695765055
endloop
endfacet
facet normal 3.5621532414495034e-07 3.3326869847315134e-07 0.9999999999998812
outer loop
vertex 865.1560260976619 25.256874567949477 367.5988698446322
vertex 864.777479421307 26.594119138755016 367.5988695765055
vertex 864.4927784716934 25.53160072983718 367.59886985220976
endloop
endfacet
facet normal 3.5621532414495034e-07 3.3326869847315134e-07 0.9999999999998812
outer loop
vertex 864.4927784716934 25.53160072983718 367.59886985220976
vertex 864.777479421307 26.594119138755016 367.5988695765055
vertex 863.7810260976622 26.725304707542072 367.59886988773724
endloop
endfacet
facet normal 3.5621532414495034e-07 3.3326869847315134e-07 0.9999999999998812
outer loop
vertex 864.4927784716934 25.53160072983718 367.59886985220976
vertex 863.7810260976622 26.725304707542072 367.59886988773724
vertex 863.7810260976611 25.625304707542156 367.59886994964853
endloop
endfacet
facet normal 3.5621532414495034e-07 3.3326869847315134e-07 0.9999999999998812
outer loop
vertex 863.7810260976611 25.625304707542156 367.59886994964853
vertex 863.7810260976622 26.725304707542072 367.59886988773724
vertex 863.0692737236291 25.53160072983703 367.5988701303083
endloop
endfacet
facet normal 3.5621532414495034e-07 3.3326869847315134e-07 0.9999999999998812
outer loop
vertex 863.0692737236291 25.53160072983703 367.5988701303083
vertex 863.7810260976622 26.725304707542072 367.59886988773724
vertex 862.784572774017 26.594119138755087 367.59887028640907
endloop
endfacet
facet normal 3.5621532414495034e-07 3.3326869847315134e-07 0.9999999999998812
outer loop
vertex 863.0692737236291 25.53160072983703 367.5988701303083
vertex 862.784572774017 26.594119138755087 367.59887028640907
vertex 862.4060260976618 25.256874567949232 367.59887038187713
endloop
endfacet
facet normal 3.5621532414495034e-07 3.3326869847315134e-07 0.9999999999998812
outer loop
vertex 862.4060260976618 25.256874567949232 367.59887038187713
vertex 862.784572774017 26.594119138755087 367.59887028640907
vertex 861.8560260976626 26.20950251211225 367.5988707453526
endloop
endfacet
facet normal 3.5621532414495034e-07 3.3326869847315134e-07 0.9999999999998812
outer loop
vertex 862.4060260976618 25.256874567949232 367.59887038187713
vertex 861.8560260976626 26.20950251211225 367.5988707453526
vertex 861.8364824493997 24.819848355805007 367.5988706872115
endloop
endfacet
facet normal 3.5621532414495034e-07 3.3326869847315134e-07 0.9999999999998812
outer loop
vertex 861.8364824493997 24.819848355805007 367.5988706872115
vertex 861.8560260976626 26.20950251211225 367.5988707453526
vertex 861.0586649900939 25.59766581511039 367.59887123329094
endloop
endfacet
facet normal 3.5621532414495034e-07 3.3326869847315134e-07 0.9999999999998812
outer loop
vertex 861.8364824493997 24.819848355805007 367.5988706872115
vertex 861.0586649900939 25.59766581511039 367.59887123329094
vertex 861.399456237255 24.250304707541964 367.598871025503
endloop
endfacet
facet normal 3.5621532414495034e-07 3.3326869847315134e-07 0.9999999999998812
outer loop
vertex 861.399456237255 24.250304707541964 367.598871025503
vertex 861.0586649900939 25.59766581511039 367.59887123329094
vertex 861.1247300753672 23.587057081573857 367.5988713736977
endloop
endfacet
facet normal 3.5621532414495034e-07 3.3326869847315134e-07 0.9999999999998812
outer loop
vertex 861.1247300753672 23.587057081573857 367.5988713736977
vertex 861.0586649900939 25.59766581511039 367.59887123329094
vertex 861.0310260976621 22.87530470754196 367.59887170806695
endloop
endfacet
facet normal 3.5621532414495034e-07 3.3326869847315134e-07 0.9999999999998812
outer loop
vertex 861.0310260976621 22.87530470754196 367.59887170806695
vertex 861.0586649900939 25.59766581511039 367.59887123329094
vertex 860.446828293092 24.800304707542256 367.5988717169719
endloop
endfacet
facet normal 3.5621532414495034e-07 3.3326869847315134e-07 0.9999999999998812
outer loop
vertex 861.0310260976621 22.87530470754196 367.59887170806695
vertex 860.446828293092 24.800304707542256 367.5988717169719
vertex 860.4468282930925 20.950304707542298 367.59887300005636
endloop
endfacet
facet normal 3.5621532414495034e-07 3.3326869847315134e-07 0.9999999999998812
outer loop
vertex 860.4468282930925 20.950304707542298 367.59887300005636
vertex 860.446828293092 24.800304707542256 367.5988717169719
vertex 860.0622116664498 21.87885138389759 367.5988728276071
endloop
endfacet
facet normal 3.5621532414495034e-07 3.3326869847315134e-07 0.9999999999998812
outer loop
vertex 860.0622116664498 21.87885138389759 367.5988728276071
vertex 860.446828293092 24.800304707542256 367.5988717169719
vertex 860.0622116664495 23.87175803118697 367.5988721634338
endloop
endfacet
facet normal 3.5621532414495034e-07 3.3326869847315134e-07 0.9999999999998812
outer loop
vertex 860.0622116664498 21.87885138389759 367.5988728276071
vertex 860.0622116664495 23.87175803118697 367.5988721634338
vertex 859.9310260976616 22.87530470754229 367.5988725422509
endloop
endfacet
facet normal 3.5621532414495034e-07 3.3326869847315134e-07 0.9999999999998812
outer loop
vertex 867.4998405288742 23.871758031186843 367.5988695140366
vertex 867.4998405288753 21.87885138389743 367.5988701782099
vertex 867.631026097661 22.875304707542128 367.59886979939284
endloop
endfacet
facet normal 3.5621532414495034e-07 3.3326869847315134e-07 0.9999999999998812
outer loop
vertex 867.4998405288753 21.87885138389743 367.5988701782099
vertex 867.4998405288742 23.871758031186843 367.5988695140366
vertex 867.1152239022326 20.950304707542163 367.5988706246719
endloop
endfacet
facet normal 3.5621532414495034e-07 3.3326869847315134e-07 0.9999999999998812
outer loop
vertex 867.1152239022326 20.950304707542163 367.5988706246719
vertex 867.4998405288742 23.871758031186843 367.5988695140366
vertex 867.1152239022324 24.800304707542107 367.59886934158715
endloop
endfacet
facet normal 3.5621532414495034e-07 3.3326869847315134e-07 0.9999999999998812
outer loop
vertex 867.1152239022326 20.950304707542163 367.5988706246719
vertex 867.1152239022324 24.800304707542107 367.59886934158715
vertex 866.503387205231 20.15294359997397 367.59887110835274
endloop
endfacet
facet normal 3.5621532414495034e-07 3.3326869847315134e-07 0.9999999999998812
outer loop
vertex 866.503387205231 20.15294359997397 367.59887110835274
vertex 867.1152239022324 24.800304707542107 367.59886934158715
vertex 866.5310260976618 22.875304707542455 367.59887063357684
endloop
endfacet
facet normal 3.5621532414495034e-07 3.3326869847315134e-07 0.9999999999998812
outer loop
vertex 866.503387205231 20.15294359997397 367.59887110835274
vertex 866.5310260976618 22.875304707542455 367.59887063357684
vertex 866.4373221199578 22.163552333510534 367.59887096794586
endloop
endfacet
facet normal 3.5621532414495034e-07 3.3326869847315134e-07 0.9999999999998812
outer loop
vertex 866.503387205231 20.15294359997397 367.59887110835274
vertex 866.4373221199578 22.163552333510534 367.59887096794586
vertex 865.7060260976625 19.541106902972114 367.59887159629096
endloop
endfacet
facet normal 3.5621532414495034e-07 3.3326869847315134e-07 0.9999999999998812
outer loop
vertex 865.7060260976625 19.541106902972114 367.59887159629096
vertex 866.4373221199578 22.163552333510534 367.59887096794586
vertex 866.1625959580697 21.500304707542455 367.5988713161408
endloop
endfacet
facet normal 3.5621532414495034e-07 3.3326869847315134e-07 0.9999999999998812
outer loop
vertex 865.7060260976625 19.541106902972114 367.59887159629096
vertex 866.1625959580697 21.500304707542455 367.5988713161408
vertex 865.725569745926 20.930761059279412 367.5988716544322
endloop
endfacet
facet normal 3.5621532414495034e-07 3.3326869847315134e-07 0.9999999999998812
outer loop
vertex 865.7060260976625 19.541106902972114 367.59887159629096
vertex 865.725569745926 20.930761059279412 367.5988716544322
vertex 865.1560260976628 20.493734847135183 367.59887195976665
endloop
endfacet
facet normal 3.5621532414495034e-07 3.3326869847315134e-07 0.9999999999998812
outer loop
vertex 865.7060260976625 19.541106902972114 367.59887159629096
vertex 865.1560260976628 20.493734847135183 367.59887195976665
vertex 864.7774794213076 19.156490276329325 367.5988720552342
endloop
endfacet
facet normal 3.5621532414495034e-07 3.3326869847315134e-07 0.9999999999998812
outer loop
vertex 864.7774794213076 19.156490276329325 367.5988720552342
vertex 865.1560260976628 20.493734847135183 367.59887195976665
vertex 864.4927784716951 20.21900868524739 367.5988722113356
endloop
endfacet
facet normal 3.5621532414495034e-07 3.3326869847315134e-07 0.9999999999998812
outer loop
vertex 864.7774794213076 19.156490276329325 367.5988720552342
vertex 864.4927784716951 20.21900868524739 367.5988722113356
vertex 863.7810260976631 19.02530470754226 367.59887245390627
endloop
endfacet
facet normal 3.5621532414495034e-07 3.3326869847315134e-07 0.9999999999998812
outer loop
vertex 863.7810260976631 19.02530470754226 367.59887245390627
vertex 864.4927784716951 20.21900868524739 367.5988722113356
vertex 863.7810260976627 20.125304707542263 367.5988723919951
endloop
endfacet
facet normal 3.5621532414495034e-07 3.3326869847315134e-07 0.9999999999998812
outer loop
vertex 863.7810260976631 19.02530470754226 367.59887245390627
vertex 863.7810260976627 20.125304707542263 367.5988723919951
vertex 862.7845727740183 19.156490276329336 367.59887276513814
endloop
endfacet
facet normal 3.5621532414495034e-07 3.3326869847315134e-07 0.9999999999998812
outer loop
vertex 862.7845727740183 19.156490276329336 367.59887276513814
vertex 863.7810260976627 20.125304707542263 367.5988723919951
vertex 863.0692737236305 20.21900868524724 367.59887248943403
endloop
endfacet
facet normal 3.5621532414495034e-07 3.3326869847315134e-07 0.9999999999998812
outer loop
vertex 862.7845727740183 19.156490276329336 367.59887276513814
vertex 863.0692737236305 20.21900868524724 367.59887248943403
vertex 862.4060260976627 20.493734847134935 367.59887249701154
endloop
endfacet
facet normal 3.5621532414495034e-07 3.3326869847315134e-07 0.9999999999998812
outer loop
vertex 862.7845727740183 19.156490276329336 367.59887276513814
vertex 862.4060260976627 20.493734847134935 367.59887249701154
vertex 861.8560260976633 19.541106902972185 367.5988729677199
endloop
endfacet
facet normal 3.5621532414495034e-07 3.3326869847315134e-07 0.9999999999998812
outer loop
vertex 861.8560260976633 19.541106902972185 367.5988729677199
vertex 862.4060260976627 20.493734847134935 367.59887249701154
vertex 861.8364824493998 20.930761059279057 367.5988724142114
endloop
endfacet
facet normal 3.5621532414495034e-07 3.3326869847315134e-07 0.9999999999998812
outer loop
vertex 861.8560260976633 19.541106902972185 367.5988729677199
vertex 861.8364824493998 20.930761059279057 367.5988724142114
vertex 861.0586649900939 20.152943599974115 367.5988730478463
endloop
endfacet
facet normal 3.5621532414495034e-07 3.3326869847315134e-07 0.9999999999998812
outer loop
vertex 861.0586649900939 20.152943599974115 367.5988730478463
vertex 861.8364824493998 20.930761059279057 367.5988724142114
vertex 861.3994562372554 21.500304707542025 367.5988722466765
endloop
endfacet
facet normal 3.5621532414495034e-07 3.3326869847315134e-07 0.9999999999998812
outer loop
vertex 861.0586649900939 20.152943599974115 367.5988730478463
vertex 861.3994562372554 21.500304707542025 367.5988722466765
vertex 861.1247300753683 22.163552333510044 367.59887200582347
endloop
endfacet
facet normal 3.5621532414495034e-07 3.3326869847315134e-07 0.9999999999998812
outer loop
vertex 861.0586649900939 20.152943599974115 367.5988730478463
vertex 861.1247300753683 22.163552333510044 367.59887200582347
vertex 861.0310260976621 22.87530470754196 367.59887170806695
endloop
endfacet
facet normal 3.5621532414495034e-07 3.3326869847315134e-07 0.9999999999998812
outer loop
vertex 861.0586649900939 20.152943599974115 367.5988730478463
vertex 861.0310260976621 22.87530470754196 367.59887170806695
vertex 860.4468282930925 20.950304707542298 367.59887300005636
endloop
endfacet
facet normal 0.4999994274817214 -0.8660243930218599 0.0015242076860136555
outer loop
vertex 865.7093821842093 19.53529032315282 363.19308003592056
vertex 866.503387205231 20.15294359997397 367.59887110835274
vertex 865.7060260976625 19.541106902972114 367.59887159629096
endloop
endfacet
facet normal 0.7071059578058575 -0.7071059620587995 0.0015240919789617394
outer loop
vertex 866.503387205231 20.15294359997397 367.59887110835274
vertex 865.7093821842093 19.53529032315282 363.19308003592056
vertex 866.5081338722687 20.148194050094848 363.1930795474829
endloop
endfacet
facet normal 0.9659247090757207 0.2588187298915125 0.001523631953093586
outer loop
vertex 867.5063249889141 23.873494013083686 363.19307794892256
vertex 867.1152239022324 24.800304707542107 367.59886934158715
vertex 867.4998405288742 23.871758031186843 367.5988695140366
endloop
endfacet
facet normal 0.8660243892356179 0.49999943602248637 0.0015235571110681705
outer loop
vertex 867.1152239022324 24.800304707542107 367.59886934158715
vertex 867.5063249889141 23.873494013083686 363.19307794892256
vertex 867.1210375992101 24.80366005471952 363.193077775215
endloop
endfacet
facet normal -0.8660243969293523 0.49999942141252657 0.0015239784415124848
outer loop
vertex 860.446828293092 24.800304707542256 367.5988717169719
vertex 860.0557250629345 23.873494013083818 363.19308059598586
vertex 860.0622116664495 23.87175803118697 367.5988721634338
endloop
endfacet
facet normal -0.9659247060403671 0.25881873845274744 0.0015241018859399357
outer loop
vertex 860.0557250629345 23.873494013083818 363.19308059598586
vertex 860.446828293092 24.800304707542256 367.5988717169719
vertex 860.4410124526399 24.803660054719685 363.193080148507
endloop
endfacet
facet normal 0.9999988391226811 -1.1166987145730769e-08 0.0015237300581048227
outer loop
vertex 867.6377393424907 22.875302896437095 363.19307823554107
vertex 867.4998405288753 21.87885138389743 367.5988701782099
vertex 867.5063249889135 21.8771117797906 363.19307861553773
endloop
endfacet
facet normal 0.9659247067553997 -0.25881873729832994 0.0015238447404339296
outer loop
vertex 867.4998405288753 21.87885138389743 367.5988701782099
vertex 867.6377393424907 22.875302896437095 363.19307823554107
vertex 867.631026097661 22.875304707542128 367.59886979939284
endloop
endfacet
facet normal -0.4999999869397473 -0.8660254113246574 4.5872700030409293e-07
outer loop
vertex 865.1560241630533 25.256873351182396 363.19307836370507
vertex 865.7255697459257 24.819848355805348 367.59886992743236
vertex 865.1560260976619 25.256874567949477 367.5988698446322
endloop
endfacet
facet normal -0.7071067917066555 -0.7071067706662585 5.057795613674171e-07
outer loop
vertex 865.7255697459257 24.819848355805348 367.59886992743236
vertex 865.1560241630533 25.256873351182396 363.19307836370507
vertex 865.7255678113168 24.819847139038245 363.1930784465049
endloop
endfacet
facet normal -0.7071067917066555 -0.7071067706662585 5.057795613674171e-07
outer loop
vertex 865.7255697459257 24.819848355805348 367.59886992743236
vertex 866.1625940234604 24.2503034907753 363.1930786140401
vertex 866.162595958069 24.2503047075424 367.5988700949675
endloop
endfacet
facet normal -0.8660253969537963 -0.5000000118307505 5.183639865562835e-07
outer loop
vertex 866.1625940234604 24.2503034907753 363.1930786140401
vertex 865.7255697459257 24.819848355805348 367.59886992743236
vertex 865.7255678113168 24.819847139038245 363.1930784465049
endloop
endfacet
facet normal 0.7071067831252481 -0.7071067792478375 -1.1520991997656726e-07
outer loop
vertex 861.8364805147902 24.819847139037893 363.19307920628415
vertex 862.4060260976618 25.256874567949232 367.59887038187713
vertex 861.8364824493997 24.819848355805007 367.5988706872115
endloop
endfacet
facet normal 0.49999999437200415 -0.8660254070337634 1.9621228936708075e-08
outer loop
vertex 862.4060260976618 25.256874567949232 367.59887038187713
vertex 861.8364805147902 24.819847139037893 363.19307920628415
vertex 862.4060241630534 25.25687335118213 363.19307890094984
endloop
endfacet
facet normal -1.2458817701574369e-08 0.9999999999999618 -2.761744567312483e-07
outer loop
vertex 863.7810260976627 20.125304707542263 367.5988723919951
vertex 863.0692717890223 20.21900746848013 363.19308100850674
vertex 863.0692737236305 20.21900868524724 367.59887248943403
endloop
endfacet
facet normal 0.25881905887183426 0.9659258225995169 -3.8041300616979437e-07
outer loop
vertex 863.0692717890223 20.21900746848013 363.19308100850674
vertex 863.7810260976627 20.125304707542263 367.5988723919951
vertex 863.7810241630536 20.125303490775153 363.19308091106785
endloop
endfacet
facet normal 0.2588187262747541 0.9659247102320024 0.0015235132871070413
outer loop
vertex 864.777479421307 26.594119138755016 367.5988695765055
vertex 863.7810250259242 26.732017213002052 363.19307831795993
vertex 863.7810260976622 26.725304707542072 367.59886988773724
endloop
endfacet
facet normal 1.7492591541521112e-08 0.9999988393783781 0.0015235622391458203
outer loop
vertex 863.7810250259242 26.732017213002052 363.19307831795993
vertex 864.777479421307 26.594119138755016 367.5988695765055
vertex 864.7792161425715 26.60060285942594 363.1930780072014
endloop
endfacet
facet normal 0.707105946185629 0.7071059749318191 0.001523510632631148
outer loop
vertex 866.5033872052298 25.597665815110293 367.59886929379735
vertex 865.7093821842086 26.215315469721475 363.193077805382
vertex 865.7060260976617 26.2095025121122 367.5988693739235
endloop
endfacet
facet normal 0.49999943769506655 0.8660243883780148 0.0015234956851136994
outer loop
vertex 865.7093821842086 26.215315469721475 363.193077805382
vertex 866.5033872052298 25.597665815110293 367.59886929379735
vertex 866.5081338722671 25.60241174277937 363.193077726256
endloop
endfacet
facet normal -0.49999940105640556 -0.8660244078503586 0.0015244509410083833
outer loop
vertex 861.8526678676442 19.535290323152907 363.19308140614163
vertex 862.7845727740183 19.156490276329336 367.59887276513814
vertex 861.8560260976633 19.541106902972185 367.5988729677199
endloop
endfacet
facet normal -0.2588187628237035 -0.9659246989871428 0.001524433338915724
outer loop
vertex 862.7845727740183 19.156490276329336 367.59887276513814
vertex 861.8526678676442 19.535290323152907 363.19308140614163
vertex 862.7828339092811 19.150002933448405 363.193081204322
endloop
endfacet
facet normal 0.8660254031831442 -0.500000001041414 -2.421896041920006e-07
outer loop
vertex 861.3994543026463 24.250303490774872 363.1930795445756
vertex 861.8364824493997 24.819848355805007 367.5988706872115
vertex 861.399456237255 24.250304707541964 367.598871025503
endloop
endfacet
facet normal 0.7071067792479645 -0.7071067831251213 -1.1520991720322168e-07
outer loop
vertex 861.8364824493997 24.819848355805007 367.5988706872115
vertex 861.3994543026463 24.250303490774872 363.1930795445756
vertex 861.8364805147902 24.819847139037893 363.19307920628415
endloop
endfacet
facet normal 0.5000000056283285 -0.8660254005349213 1.9621222199169807e-08
outer loop
vertex 862.4060241630534 25.25687335118213 363.19307890094984
vertex 863.0692737236291 25.53160072983703 367.5988701303083
vertex 862.4060260976618 25.256874567949232 367.59887038187713
endloop
endfacet
facet normal 0.25881903562391406 -0.9659258288288411 1.5311517188891194e-07
outer loop
vertex 863.0692737236291 25.53160072983703 367.5988701303083
vertex 862.4060241630534 25.25687335118213 363.19307890094984
vertex 863.0692717890223 25.531599513069942 363.1930786493808
endloop
endfacet
facet normal 0.8660243976588772 -0.4999994201802141 0.0015239681849475478
outer loop
vertex 867.121037599211 20.946945738154664 363.1930790630172
vertex 866.503387205231 20.15294359997397 367.59887110835274
vertex 866.5081338722687 20.148194050094848 363.1930795474829
endloop
endfacet
facet normal 0.7071059578058575 -0.7071059620587995 0.0015240919789617394
outer loop
vertex 866.503387205231 20.15294359997397 367.59887110835274
vertex 867.121037599211 20.946945738154664 363.1930790630172
vertex 867.1152239022326 20.950304707542163 367.5988706246719
endloop
endfacet
facet normal -0.9999999999999036 8.581451894361316e-09 4.391056940578195e-07
outer loop
vertex 866.5310260976618 22.875304707542455 367.59887063357684
vertex 866.4373201853488 22.16355111674345 363.1930794870186
vertex 866.4373221199578 22.163552333510534 367.59887096794586
endloop
endfacet
facet normal -0.9659258275997804 0.25881904021063606 3.526644603943523e-07
outer loop
vertex 866.4373201853488 22.16355111674345 363.1930794870186
vertex 866.5310260976618 22.875304707542455 367.59887063357684
vertex 866.5310241630539 22.87530349077537 363.19307915264955
endloop
endfacet
facet normal 1.2458932138052451e-08 -0.9999999999999618 2.761744691618248e-07
outer loop
vertex 863.7810241630531 25.625303490775035 363.19307846872107
vertex 864.4927784716934 25.53160072983718 367.59886985220976
vertex 863.7810260976611 25.625304707542156 367.59886994964853
endloop
endfacet
facet normal -0.2588190588717928 -0.9659258225995278 3.8041297636022845e-07
outer loop
vertex 864.4927784716934 25.53160072983718 367.59886985220976
vertex 863.7810241630531 25.625303490775035 363.19307846872107
vertex 864.4927765370851 25.531599513070088 363.1930783712824
endloop
endfacet
facet normal -0.9659247082739206 -0.2588187288638873 0.0015243146731741648
outer loop
vertex 860.0622116664498 21.87885138389759 367.5988728276071
vertex 859.9243107093606 22.87530289643725 363.19308097598235
vertex 860.0557250629366 21.877111779790734 363.193081262601
endloop
endfacet
facet normal -0.9999988383812518 -1.116758546669165e-08 0.0015242165682105152
outer loop
vertex 859.9243107093606 22.87530289643725 363.19308097598235
vertex 860.0622116664498 21.87885138389759 367.5988728276071
vertex 859.9310260976616 22.87530470754229 367.5988725422509
endloop
endfacet
facet normal 0.4999994020624374 0.8660244089505228 0.0015234956851139104
outer loop
vertex 865.7060260976617 26.2095025121122 367.5988693739235
vertex 864.7792161425715 26.60060285942594 363.1930780072014
vertex 864.777479421307 26.594119138755016 367.5988695765055
endloop
endfacet
facet normal 0.25881876384337876 0.9659247001655198 0.0015235132871020405
outer loop
vertex 864.7792161425715 26.60060285942594 363.1930780072014
vertex 865.7060260976617 26.2095025121122 367.5988693739235
vertex 865.7093821842086 26.215315469721475 363.193077805382
endloop
endfacet
facet normal -0.8660254106149142 -0.49999998816900054 5.183639860201752e-07
outer loop
vertex 866.162595958069 24.2503047075424 367.5988700949675
vertex 866.4373201853491 23.587055864807265 363.1930788548927
vertex 866.4373221199569 23.587057081574354 367.5988703358201
endloop
endfacet
facet normal -0.9659258233090061 -0.2588190562237897 4.956227140644483e-07
outer loop
vertex 866.4373201853491 23.587055864807265 363.1930788548927
vertex 866.162595958069 24.2503047075424 367.5988700949675
vertex 866.1625940234604 24.2503034907753 363.1930786140401
endloop
endfacet
facet normal 0.49999998693993364 0.8660254113245499 -4.5872704532021324e-07
outer loop
vertex 862.4060260976627 20.493734847134935 367.59887249701154
vertex 861.8364805147905 20.930759842511975 363.19308093328414
vertex 861.8364824493998 20.930761059279057 367.5988724142114
endloop
endfacet
facet normal 0.7071067917065076 0.7071067706664064 -5.057796269873694e-07
outer loop
vertex 861.8364805147905 20.930759842511975 363.19308093328414
vertex 862.4060260976627 20.493734847134935 367.59887249701154
vertex 862.4060241630536 20.493733630367817 363.1930810160842
endloop
endfacet
facet normal 0.25881905458142507 -0.9659258237491914 1.531151621616934e-07
outer loop
vertex 863.0692717890223 25.531599513069942 363.1930786493808
vertex 863.7810260976611 25.625304707542156 367.59886994964853
vertex 863.0692737236291 25.53160072983703 367.5988701303083
endloop
endfacet
facet normal -1.2458488195641716e-08 -0.9999999999999618 2.7617448010320346e-07
outer loop
vertex 863.7810260976611 25.625304707542156 367.59886994964853
vertex 863.0692717890223 25.531599513069942 363.1930786493808
vertex 863.7810241630531 25.625303490775035 363.19307846872107
endloop
endfacet
facet normal -0.49999942662615526 0.8660243943406895 0.0015237389402554106
outer loop
vertex 861.8560260976626 26.20950251211225 367.5988707453526
vertex 861.0539161795812 25.602411742779534 363.1930796640409
vertex 861.0586649900939 25.59766581511039 367.59887123329094
endloop
endfacet
facet normal -0.7071059570250782 0.7071059633510821 0.001523854647470848
outer loop
vertex 861.0539161795812 25.602411742779534 363.1930796640409
vertex 861.8560260976626 26.20950251211225 367.5988707453526
vertex 861.8526678676429 26.215315469721503 363.193079175603
endloop
endfacet
facet normal -0.7071059452315307 -0.7071059738915554 0.0015244359935789478
outer loop
vertex 861.0539161795821 20.148194050094993 363.19308148526756
vertex 861.8560260976633 19.541106902972185 367.5988729677199
vertex 861.0586649900939 20.152943599974115 367.5988730478463
endloop
endfacet
facet normal -0.4999994366890054 -0.8660243872778675 0.0015244509410085947
outer loop
vertex 861.8560260976633 19.541106902972185 367.5988729677199
vertex 861.0539161795821 20.148194050094993 363.19308148526756
vertex 861.8526678676442 19.535290323152907 363.19308140614163
endloop
endfacet
facet normal 0.25881875794708276 -0.9659247004925468 0.0015243074209253112
outer loop
vertex 864.7792161425739 19.150002933448352 363.1930804950438
vertex 865.7060260976625 19.541106902972114 367.59887159629096
vertex 864.7774794213076 19.156490276329325 367.5988720552342
endloop
endfacet
facet normal 0.49999941212582993 -0.8660244018875878 0.001524207686021035
outer loop
vertex 865.7060260976625 19.541106902972114 367.59887159629096
vertex 864.7792161425739 19.150002933448352 363.1930804950438
vertex 865.7093821842093 19.53529032315282 363.19308003592056
endloop
endfacet
facet normal -0.7071059623144238 0.7071059580617364 0.0015238546474743095
outer loop
vertex 861.0586649900939 25.59766581511039 367.59887123329094
vertex 860.4410124526399 24.803660054719685 363.193080148507
vertex 860.446828293092 24.800304707542256 367.5988717169719
endloop
endfacet
facet normal -0.866024398569661 0.4999994185714287 0.001523978441514052
outer loop
vertex 860.4410124526399 24.803660054719685 363.193080148507
vertex 861.0586649900939 25.59766581511039 367.59887123329094
vertex 861.0539161795812 25.602411742779534 363.1930796640409
endloop
endfacet
facet normal 0.9659258292687762 0.2588190339816249 -4.956231088909093e-07
outer loop
vertex 861.1247281407584 22.163551116742948 363.1930805248963
vertex 861.0310260976621 22.87530470754196 367.59887170806695
vertex 861.1247300753683 22.163552333510044 367.59887200582347
endloop
endfacet
facet normal 0.9999999999999034 8.581567495798814e-09 -4.391060469885353e-07
outer loop
vertex 861.0310260976621 22.87530470754196 367.59887170806695
vertex 861.1247281407584 22.163551116742948 363.1930805248963
vertex 861.031024163052 22.87530349077485 363.1930802271395
endloop
endfacet
facet normal 0.9999999999999034 -8.58133834924072e-09 -4.3910604224856945e-07
outer loop
vertex 861.031024163052 22.87530349077485 363.1930802271395
vertex 861.1247300753672 23.587057081573857 367.5988713736977
vertex 861.0310260976621 22.87530470754196 367.59887170806695
endloop
endfacet
facet normal 0.9659258275996166 -0.25881904021124763 -3.5266452431858543e-07
outer loop
vertex 861.1247300753672 23.587057081573857 367.5988713736977
vertex 861.031024163052 22.87530349077485 363.1930802271395
vertex 861.1247281407585 23.587055864806775 363.1930798927704
endloop
endfacet
facet normal -0.5000000056279417 0.8660254005351448 -1.962119170512835e-08
outer loop
vertex 865.1560260976628 20.493734847135183 367.59887195976665
vertex 864.4927765370862 20.219007468480275 363.19308073040827
vertex 864.4927784716951 20.21900868524739 367.5988722113356
endloop
endfacet
facet normal -0.25881903562396025 0.9659258288288287 -1.5311508154169325e-07
outer loop
vertex 864.4927765370862 20.219007468480275 363.19308073040827
vertex 865.1560260976628 20.493734847135183 367.59887195976665
vertex 865.1560241630535 20.493733630368105 363.1930804788392
endloop
endfacet
facet normal -0.8660244069927505 -0.4999994027291044 0.0015243895151437106
outer loop
vertex 860.4468282930925 20.950304707542298 367.59887300005636
vertex 860.0557250629366 21.877111779790734 363.193081262601
vertex 860.4410124526413 20.946945738154824 363.19308143630866
endloop
endfacet
facet normal -0.9659247001434803 -0.2588187592071042 0.0015243146731846603
outer loop
vertex 860.0557250629366 21.877111779790734 363.193081262601
vertex 860.4468282930925 20.950304707542298 367.59887300005636
vertex 860.0622116664498 21.87885138389759 367.5988728276071
endloop
endfacet
facet normal -0.9659247024640206 0.258818751799854 0.001524101885933579
outer loop
vertex 860.0622116664495 23.87175803118697 367.5988721634338
vertex 859.9243107093606 22.87530289643725 363.19308097598235
vertex 859.9310260976616 22.87530470754229 367.5988725422509
endloop
endfacet
facet normal -0.9999988383812518 -1.116758546669165e-08 0.0015242165682105152
outer loop
vertex 859.9243107093606 22.87530289643725 363.19308097598235
vertex 860.0622116664495 23.87175803118697 367.5988721634338
vertex 860.0557250629345 23.873494013083818 363.19308059598586
endloop
endfacet
facet normal 0.8660244078720623 0.49999940374321766 0.0015235571110769064
outer loop
vertex 867.1210375992101 24.80366005471952 363.193077775215
vertex 866.5033872052298 25.597665815110293 367.59886929379735
vertex 867.1152239022324 24.800304707542107 367.59886934158715
endloop
endfacet
facet normal 0.707105946185629 0.7071059749318191 0.001523510632631148
outer loop
vertex 866.5033872052298 25.597665815110293 367.59886929379735
vertex 867.1210375992101 24.80366005471952 363.193077775215
vertex 866.5081338722671 25.60241174277937 363.193077726256
endloop
endfacet
facet normal -0.9659258249782043 0.25881904999449123 3.5266445654115707e-07
outer loop
vertex 866.4373221199578 22.163552333510534 367.59887096794586
vertex 866.1625940234607 21.500303490775373 363.1930798352135
vertex 866.1625959580697 21.500304707542455 367.5988713161408
endloop
endfacet
facet normal -0.8660254043857962 0.4999999989583597 2.421895699331151e-07
outer loop
vertex 866.1625940234607 21.500303490775373 363.1930798352135
vertex 866.4373221199578 22.163552333510534 367.59887096794586
vertex 866.4373201853488 22.16355111674345 363.1930794870186
endloop
endfacet
facet normal -0.8660254031834052 0.5000000010409615 2.4218956882997545e-07
outer loop
vertex 866.1625959580697 21.500304707542455 367.5988713161408
vertex 865.7255678113186 20.930759842512302 363.1930801735049
vertex 865.725569745926 20.930761059279412 367.5988716544322
endloop
endfacet
facet normal -0.7071067792480711 0.7071067831250148 1.15209806841392e-07
outer loop
vertex 865.7255678113186 20.930759842512302 363.1930801735049
vertex 866.1625959580697 21.500304707542455 367.5988713161408
vertex 866.1625940234607 21.500303490775373 363.1930798352135
endloop
endfacet
facet normal -0.7071067831253227 0.7071067792477631 1.1520980961471331e-07
outer loop
vertex 865.725569745926 20.930761059279412 367.5988716544322
vertex 865.1560241630535 20.493733630368105 363.1930804788392
vertex 865.1560260976628 20.493734847135183 367.59887195976665
endloop
endfacet
facet normal -0.499999994371612 0.8660254070339897 -1.962119844265916e-08
outer loop
vertex 865.1560241630535 20.493733630368105 363.1930804788392
vertex 865.725569745926 20.930761059279412 367.5988716544322
vertex 865.7255678113186 20.930759842512302 363.1930801735049
endloop
endfacet
facet normal -0.9659258292688815 -0.25881903398123113 4.956227105386297e-07
outer loop
vertex 866.4373221199569 23.587057081574354 367.5988703358201
vertex 866.5310241630539 22.87530349077537 363.19307915264955
vertex 866.5310260976618 22.875304707542455 367.59887063357684
endloop
endfacet
facet normal -0.9999999999999034 -8.581454788316465e-09 4.3910569879776674e-07
outer loop
vertex 866.5310241630539 22.87530349077537 363.19307915264955
vertex 866.4373221199569 23.587057081574354 367.5988703358201
vertex 866.4373201853491 23.587055864807265 363.1930788548927
endloop
endfacet
facet normal 0.9659247031790673 -0.2588187506453844 0.0015238447404402865
outer loop
vertex 867.5063249889135 21.8771117797906 363.19307861553773
vertex 867.1152239022326 20.950304707542163 367.5988706246719
vertex 867.121037599211 20.946945738154664 363.1930790630172
endloop
endfacet
facet normal 0.8660243992991624 -0.49999941733915687 0.001523968184945981
outer loop
vertex 867.1152239022326 20.950304707542163 367.5988706246719
vertex 867.5063249889135 21.8771117797906 363.19307861553773
vertex 867.4998405288753 21.87885138389743 367.5988701782099
endloop
endfacet
facet normal -1.649967252240819e-08 0.999998839378378 0.0015235622391540891
outer loop
vertex 863.7810260976622 26.725304707542072 367.59886988773724
vertex 862.7828339092791 26.600602859425997 363.19307871648016
vertex 862.784572774017 26.594119138755087 367.59887028640907
endloop
endfacet
facet normal -0.25881873115218007 0.9659247087264866 0.0015236392052081096
outer loop
vertex 862.7828339092791 26.600602859425997 363.19307871648016
vertex 863.7810260976622 26.725304707542072 367.59886988773724
vertex 863.7810250259242 26.732017213002052 363.19307831795993
endloop
endfacet
facet normal -0.2588187252550164 -0.9659247090536422 0.0015244333389107239
outer loop
vertex 862.7828339092811 19.150002933448405 363.193081204322
vertex 863.7810260976631 19.02530470754226 367.59887245390627
vertex 862.7845727740183 19.156490276329336 367.59887276513814
endloop
endfacet
facet normal -1.649941131166028e-08 -0.9999988381254454 0.0015243843869210084
outer loop
vertex 863.7810260976631 19.02530470754226 367.59887245390627
vertex 862.7828339092811 19.150002933448405 363.193081204322
vertex 863.7810250259276 19.01858857987226 363.1930808935638
endloop
endfacet
facet normal -0.2588187570140724 0.9659247017968133 0.0015236392052172495
outer loop
vertex 862.784572774017 26.594119138755087 367.59887028640907
vertex 861.8526678676429 26.215315469721503 363.193079175603
vertex 861.8560260976626 26.20950251211225 367.5988707453526
endloop
endfacet
facet normal -0.4999994112702973 0.8660244032063981 0.0015237389402480309
outer loop
vertex 861.8526678676429 26.215315469721503 363.193079175603
vertex 862.784572774017 26.594119138755087 367.59887028640907
vertex 862.7828339092791 26.600602859425997 363.19307871648016
endloop
endfacet
facet normal -0.7071059739344402 -0.7071059451886461 0.0015244359935741305
outer loop
vertex 861.0586649900939 20.152943599974115 367.5988730478463
vertex 860.4410124526413 20.946945738154824 363.19308143630866
vertex 861.0539161795821 20.148194050094993 363.19308148526756
endloop
endfacet
facet normal -0.866024388356307 -0.49999943500837135 0.0015243895151524462
outer loop
vertex 860.4410124526413 20.946945738154824 363.19308143630866
vertex 861.0586649900939 20.152943599974115 367.5988730478463
vertex 860.4468282930925 20.950304707542298 367.59887300005636
endloop
endfacet
facet normal 0.9999988391226811 -1.1166987145730769e-08 0.0015237300581048227
outer loop
vertex 867.6377393424907 22.875302896437095 363.19307823554107
vertex 867.4998405288742 23.871758031186843 367.5988695140366
vertex 867.631026097661 22.875304707542128 367.59886979939284
endloop
endfacet
facet normal 0.965924700945277 0.25881876023474165 0.0015236319530830909
outer loop
vertex 867.4998405288742 23.871758031186843 367.5988695140366
vertex 867.6377393424907 22.875302896437095 363.19307823554107
vertex 867.5063249889141 23.873494013083686 363.19307794892256
endloop
endfacet
facet normal -0.2588190545815549 0.9659258237491565 -1.5311507181442506e-07
outer loop
vertex 864.4927784716951 20.21900868524739 367.5988722113356
vertex 863.7810241630536 20.125303490775153 363.19308091106785
vertex 863.7810260976627 20.125304707542263 367.5988723919951
endloop
endfacet
facet normal 1.2458652676904179e-08 0.9999999999999618 -2.7617446767265557e-07
outer loop
vertex 863.7810241630536 20.125303490775153 363.19308091106785
vertex 864.4927784716951 20.21900868524739 367.5988722113356
vertex 864.4927765370862 20.219007468480275 363.19308073040827
endloop
endfacet
facet normal 0.2588190313328347 0.9659258299785695 -3.8041299611516484e-07
outer loop
vertex 863.0692737236305 20.21900868524724 367.59887248943403
vertex 862.4060241630536 20.493733630367817 363.1930810160842
vertex 862.4060260976627 20.493734847134935 367.59887249701154
endloop
endfacet
facet normal 0.5000000130597909 0.8660253962442432 -4.587270526248061e-07
outer loop
vertex 862.4060241630536 20.493733630367817 363.1930810160842
vertex 863.0692737236305 20.21900868524724 367.59887248943403
vertex 863.0692717890223 20.21900746848013 363.19308100850674
endloop
endfacet
facet normal 0.7071067917065076 0.7071067706664064 -5.057796269873694e-07
outer loop
vertex 861.8364805147905 20.930759842511975 363.19308093328414
vertex 861.3994562372554 21.500304707542025 367.5988722466765
vertex 861.8364824493998 20.930761059279057 367.5988724142114
endloop
endfacet
facet normal 0.8660253969538548 0.5000000118306495 -5.183641786330206e-07
outer loop
vertex 861.3994562372554 21.500304707542025 367.5988722466765
vertex 861.8364805147905 20.930759842511975 363.19308093328414
vertex 861.3994543026462 21.500303490774936 363.19308076574896
endloop
endfacet
facet normal 0.8660254106149875 0.49999998816887353 -5.183641780969349e-07
outer loop
vertex 861.3994543026462 21.500303490774936 363.19308076574896
vertex 861.1247300753683 22.163552333510044 367.59887200582347
vertex 861.3994562372554 21.500304707542025 367.5988722466765
endloop
endfacet
facet normal 0.9659258233088935 0.2588190562242095 -4.956231124167154e-07
outer loop
vertex 861.1247300753683 22.163552333510044 367.59887200582347
vertex 861.3994543026462 21.500303490774936 363.19308076574896
vertex 861.1247281407584 22.163551116742948 363.1930805248963
endloop
endfacet
facet normal 0.9659258249780397 -0.25881904999510535 -3.526645204653786e-07
outer loop
vertex 861.1247281407585 23.587055864806775 363.1930798927704
vertex 861.399456237255 24.250304707541964 367.598871025503
vertex 861.1247300753672 23.587057081573857 367.5988713736977
endloop
endfacet
facet normal 0.8660254043855369 -0.4999999989588088 -2.4218960529514e-07
outer loop
vertex 861.399456237255 24.250304707541964 367.598871025503
vertex 861.1247281407585 23.587055864806775 363.1930798927704
vertex 861.3994543026463 24.250303490774872 363.1930795445756
endloop
endfacet
facet normal -0.258819031332765 -0.9659258299785881 3.8041296630559066e-07
outer loop
vertex 864.4927765370851 25.531599513070088 363.1930783712824
vertex 865.1560260976619 25.256874567949477 367.5988698446322
vertex 864.4927784716934 25.53160072983718 367.59886985220976
endloop
endfacet
facet normal -0.5000000130595899 -0.8660253962443594 4.587270076086802e-07
outer loop
vertex 865.1560260976619 25.256874567949477 367.5988698446322
vertex 864.4927765370851 25.531599513070088 363.1930783712824
vertex 865.1560241630533 25.256873351182396 363.19307836370507
endloop
endfacet
facet normal 1.7492930754356615e-08 -0.9999988381254454 0.0015243843869127403
outer loop
vertex 863.7810250259276 19.01858857987226 363.1930808935638
vertex 864.7774794213076 19.156490276329325 367.5988720552342
vertex 863.7810260976631 19.02530470754226 367.59887245390627
endloop
endfacet
facet normal 0.25881873208517775 -0.9659247074222231 0.0015243074209344506
outer loop
vertex 864.7774794213076 19.156490276329325 367.5988720552342
vertex 863.7810250259276 19.01858857987226 363.1930808935638
vertex 864.7792161425739 19.150002933448352 363.1930804950438
endloop
endfacet
endsolid FallaSLS
