solid Falla3d_ver2
facet normal 0.5054897381384883 0.6938530104194945 -0.5128821741574643
outer loop
vertex 728.7602771721637 53.41175869883402 332.2110177559806
vertex 728.2664689435233 55.383937039500616 334.39238989746195
vertex 735.7483425620374 50.25979002341702 334.8342175036536
endloop
endfacet
facet normal 0.9731223802258993 -0.001555921132281458 0.230283330297507
outer loop
vertex 729.266468787695 66.5822671638429 335.09238996452865
vertex 729.2664688162992 57.2597900645232 335.0294020489872
vertex 729.6436952374358 55.88012841959783 333.4260114907026
endloop
endfacet
facet normal 0.24669645405616786 0.7625207525182024 -0.5980827380347868
outer loop
vertex 736.5509227082101 51.35979016057887 330.5119277098674
vertex 729.6436952374358 55.88012841959783 333.4260114907026
vertex 729.2664688162992 57.2597900645232 335.0294020489872
endloop
endfacet
facet normal -0.22857684801177355 -0.9196826943019926 0.3192747505745334
outer loop
vertex 741.5185710151895 45.659790197691805 322.3342172565873
vertex 745.7560627531693 45.65979017238898 325.3679444145595
vertex 732.5852609722041 49.7484959800317 327.7163030465871
endloop
endfacet
facet normal 0.6793022647461742 0.7338585920398553 -1.9859067455865144e-10
outer loop
vertex 735.7483425937725 51.25979009705203 374.0294044908707
vertex 729.2664688162992 57.2597900645232 335.0294020489872
vertex 729.2664687767752 57.259790095497024 374.02940449613305
endloop
endfacet
facet normal 0.6793022647461742 0.7338585920398553 -1.9859067455865144e-10
outer loop
vertex 729.2664688162992 57.2597900645232 335.0294020489872
vertex 735.7483425937725 51.25979009705203 374.0294044908707
vertex 735.7483425937725 51.25979006950761 339.27093182575754
endloop
endfacet
facet normal -0.6347473433044838 -0.7577140531585725 0.15154281181866613
outer loop
vertex 735.7483425491889 50.259790016398966 376.99889316884173
vertex 735.748342549189 50.65979002006722 378.99889317151843
vertex 728.2664688988757 56.927457090869375 378.9988931556139
endloop
endfacet
facet normal 1.0 -9.009777643559649e-10 4.363841731031227e-09
outer loop
vertex 755.2580914085289 55.685737944178975 373.3342172647267
vertex 755.2580913788242 50.65979000174327 378.99889322571147
vertex 755.2580914056737 50.65979000168614 373.3342172654398
endloop
endfacet
facet normal 1.0 -9.009777643559649e-10 4.363841731031227e-09
outer loop
vertex 755.2580913788242 50.65979000174327 378.99889322571147
vertex 755.2580914085289 55.685737944178975 373.3342172647267
vertex 755.2580913850252 55.68573794485264 378.9988932236504
endloop
endfacet
facet normal 0.23954441536317014 0.9494081605766491 -0.20308278533342172
outer loop
vertex 739.132990348195 50.15979016081879 327.94760445439846
vertex 733.5852606986514 51.65979018875827 328.41630302843976
vertex 736.5509227082101 51.35979016057887 330.5119277098674
endloop
endfacet
facet normal 0.6354183122409836 0.764279104777085 0.11009549704668994
outer loop
vertex 735.7483425780978 51.89890512046769 334.8342174991966
vertex 729.2664688162992 57.2597900645232 335.0294020489872
vertex 735.7483425937725 51.25979006950761 339.27093182575754
endloop
endfacet
facet normal -0.5310228040617939 -1.1575297452636664e-11 -0.8473575287718577
outer loop
vertex 739.132990348195 50.15979016081879 327.94760445439846
vertex 745.484032018478 64.78226726788616 323.9675277546317
vertex 745.48403205451 47.15979017042532 323.9675277322815
endloop
endfacet
facet normal -0.5310228040617939 -1.1575297452636664e-11 -0.8473575287718577
outer loop
vertex 745.484032018478 64.78226726788616 323.9675277546317
vertex 739.132990348195 50.15979016081879 327.94760445439846
vertex 739.1329903121633 66.18226725827962 327.94760447674844
endloop
endfacet
facet normal 0.5181526538882999 -2.7481106762014542e-11 0.8552881545236739
outer loop
vertex 743.6246494179687 64.78226737363782 322.3342172653522
vertex 733.5852606986514 51.65979018875827 328.41630302843976
vertex 743.6246494540006 47.15979027617707 322.334217243002
endloop
endfacet
facet normal 0.5181526538882999 -2.7481106762014542e-11 0.8552881545236739
outer loop
vertex 733.5852606986514 51.65979018875827 328.41630302843976
vertex 743.6246494179687 64.78226737363782 322.3342172653522
vertex 733.5852606626198 66.1822672862191 328.4163030507896
endloop
endfacet
facet normal -0.7046645395287721 -6.097461282033404e-10 -0.7095406166885049
outer loop
vertex 736.5509227082101 51.35979016057887 330.5119277098674
vertex 739.1329903121633 66.18226725827962 327.94760447674844
vertex 739.132990348195 50.15979016081879 327.94760445439846
endloop
endfacet
facet normal -0.7046645395287721 -6.097461282033404e-10 -0.7095406166885049
outer loop
vertex 739.1329903121633 66.18226725827962 327.94760447674844
vertex 736.5509227082101 51.35979016057887 330.5119277098674
vertex 736.5509226721787 66.5822672580397 330.5119277322171
endloop
endfacet
facet normal 0.7292265346454392 7.797632466964891e-10 0.6842723589105467
outer loop
vertex 733.5852606626198 66.1822672862191 328.4163030507896
vertex 730.8080975763713 54.30036066268215 331.3759155449299
vertex 733.5852606986514 51.65979018875827 328.41630302843976
endloop
endfacet
facet normal 0.7292265346454392 7.797632466964891e-10 0.6842723589105467
outer loop
vertex 730.8080975763713 54.30036066268215 331.3759155449299
vertex 733.5852606626198 66.1822672862191 328.4163030507896
vertex 730.8080975443625 66.58226725672812 331.37591556445403
endloop
endfacet
facet normal 5.293720328193318e-09 -1.084099061628483e-09 1.0
outer loop
vertex 743.6246494540006 47.15979027617707 322.334217243002
vertex 741.5185710151895 45.659790197691805 322.3342172565873
vertex 743.6246495080517 45.65979027617699 322.3342172372786
endloop
endfacet
facet normal 5.293720328193318e-09 -1.084099061628483e-09 1.0
outer loop
vertex 741.5185710151895 45.659790197691805 322.3342172565873
vertex 743.6246494540006 47.15979027617707 322.334217243002
vertex 743.6246494179687 64.78226737363782 322.3342172653522
endloop
endfacet
facet normal 5.293720328193318e-09 -1.084099061628483e-09 1.0
outer loop
vertex 741.5185710151895 45.659790197691805 322.3342172565873
vertex 743.6246494179687 64.78226737363782 322.3342172653522
vertex 743.6246494129094 67.58226737363782 322.3342172664901
endloop
endfacet
facet normal 5.293720328193318e-09 -1.084099061628483e-09 1.0
outer loop
vertex 741.5185710151895 45.659790197691805 322.3342172565873
vertex 743.6246494129094 67.58226737363782 322.3342172664901
vertex 741.5185706851696 67.58226732677295 322.3342172724768
endloop
endfacet
facet normal 0.13594609891471574 -0.9907155132326296 -0.0011958386504692588
outer loop
vertex 738.6531459754876 50.659790145621244 333.6721592364867
vertex 738.6633675918786 50.65979009999748 334.83421740592775
vertex 735.7483425620374 50.25979002341702 334.8342175036536
endloop
endfacet
facet normal 0.9816511683515008 2.6200946082856176e-09 -0.19068556231171166
outer loop
vertex 745.48403205451 47.15979017042532 323.9675277322815
vertex 745.7560627531693 45.65979017238898 325.3679444145595
vertex 745.4840320683404 45.65979017042534 323.9675276912277
endloop
endfacet
facet normal 0.9816511683515008 2.6200946082856176e-09 -0.19068556231171166
outer loop
vertex 745.7560627531693 45.65979017238898 325.3679444145595
vertex 745.48403205451 47.15979017042532 323.9675277322815
vertex 745.7560627022654 67.58226726984984 325.36794443829535
endloop
endfacet
facet normal 0.9816511683515008 2.6200946082856176e-09 -0.19068556231171166
outer loop
vertex 745.7560627022654 67.58226726984984 325.36794443829535
vertex 745.48403205451 47.15979017042532 323.9675277322815
vertex 745.484032018478 64.78226726788616 323.9675277546317
endloop
endfacet
facet normal 0.9816511683515008 2.6200946082856176e-09 -0.19068556231171166
outer loop
vertex 745.7560627022654 67.58226726984984 325.36794443829535
vertex 745.484032018478 64.78226726788616 323.9675277546317
vertex 745.4840320134188 67.58226726788615 323.96752775576954
endloop
endfacet
facet normal -0.08189317574692706 -0.9922711350461603 0.09322822705751584
outer loop
vertex 743.6246494179687 64.78226737363782 322.3342172653522
vertex 745.484032018478 64.78226726788616 323.9675277546317
vertex 733.5852606626198 66.1822672862191 328.4163030507896
endloop
endfacet
facet normal 2.763791950927055e-09 -1.8943899941850034e-10 -1.0
outer loop
vertex 753.7580913892244 50.659790003427595 376.99889321773446
vertex 753.8433550162974 55.685737945843506 376.9988932173934
vertex 753.8433550178303 50.659790003350764 376.998893217629
endloop
endfacet
facet normal 2.763791950927055e-09 -1.8943899941850034e-10 -1.0
outer loop
vertex 753.8433550162974 55.685737945843506 376.9988932173934
vertex 753.7580913892244 50.659790003427595 376.99889321773446
vertex 753.7580913920797 55.68573794592032 376.9988932170213
endloop
endfacet
facet normal 2.763791950927055e-09 -1.8943899941850034e-10 -1.0
outer loop
vertex 735.7483425491889 50.259790016398966 376.99889316884173
vertex 736.6483425577406 66.58226719246665 376.99889316658965
vertex 753.7580913892244 50.659790003427595 376.99889321773446
endloop
endfacet
facet normal 2.763791950927055e-09 -1.8943899941850034e-10 -1.0
outer loop
vertex 736.6483425577406 66.58226719246665 376.99889316658965
vertex 735.7483425491889 50.259790016398966 376.99889316884173
vertex 735.7483425577409 66.58226719451265 376.9988931664406
endloop
endfacet
facet normal 2.763791950927055e-09 -1.8943899941850034e-10 -1.0
outer loop
vertex 753.7580913920797 55.68573794592032 376.9988932170213
vertex 736.6483425577405 67.58226719125481 376.99889316658977
vertex 753.7580914002622 67.58226718032965 376.9988932153329
endloop
endfacet
facet normal 2.763791950927055e-09 -1.8943899941850034e-10 -1.0
outer loop
vertex 736.6483425577405 67.58226719125481 376.99889316658977
vertex 753.7580913920797 55.68573794592032 376.9988932170213
vertex 753.7580913892244 50.659790003427595 376.99889321773446
endloop
endfacet
facet normal 2.763791950927055e-09 -1.8943899941850034e-10 -1.0
outer loop
vertex 736.6483425577405 67.58226719125481 376.99889316658977
vertex 753.7580913892244 50.659790003427595 376.99889321773446
vertex 736.6483425577406 66.58226719246665 376.99889316658965
endloop
endfacet
facet normal 0.6344506177332065 0.7728421018459722 0.013693037364035472
outer loop
vertex 736.1496326509913 51.65979012909186 332.1730725580653
vertex 729.2664688162992 57.2597900645232 335.0294020489872
vertex 735.7483425937722 51.959790097604774 333.8342174062629
endloop
endfacet
facet normal -7.00609385217053e-08 -0.9999999999999976 1.5011500376801695e-08
outer loop
vertex 743.6246495080517 45.65979027617699 322.3342172372786
vertex 745.4840320683404 45.65979017042534 323.9675276912277
vertex 745.7560627531693 45.65979017238898 325.3679444145595
endloop
endfacet
facet normal 0.03180296906948482 -0.9258972185567503 0.37643447215583087
outer loop
vertex 745.484032018478 64.78226726788616 323.9675277546317
vertex 739.1329903121633 66.18226725827962 327.94760447674844
vertex 733.5852606626198 66.1822672862191 328.4163030507896
endloop
endfacet
facet normal -0.46077670517698976 -0.6178528125126858 0.6371363512125182
outer loop
vertex 728.2664689035386 56.92745709087149 335.8891938149759
vertex 728.2664689435233 55.383937039500616 334.39238989746195
vertex 735.7483425620374 50.25979002341702 334.8342175036536
endloop
endfacet
facet normal -0.6653171714748409 -0.7465608222648153 -3.269955891771708e-10
outer loop
vertex 735.7483425620374 50.25979002341702 334.8342175036536
vertex 735.7483425491889 50.259790016398966 376.99889316884173
vertex 728.2664688988757 56.927457090869375 378.9988931556139
endloop
endfacet
facet normal -0.9999999999999998 -1.1983905855645915e-08 2.445198172363801e-08
outer loop
vertex 728.2664689035386 56.92745709087149 335.8891938149759
vertex 728.2664687431759 67.58226719888698 334.39238995967986
vertex 728.2664689435233 55.383937039500616 334.39238989746195
endloop
endfacet
facet normal -0.9999999999999998 -1.1983905855645915e-08 2.445198172363801e-08
outer loop
vertex 728.2664687431759 67.58226719888698 334.39238995967986
vertex 728.2664689035386 56.92745709087149 335.8891938149759
vertex 728.2664688378627 67.58226719863156 335.88919381257404
endloop
endfacet
facet normal 0.42477725506166986 0.8697374997637287 -0.25123886062273687
outer loop
vertex 732.5852609722041 49.7484959800317 327.7163030465871
vertex 729.8080978395024 51.959790087685676 330.6759155612379
vertex 735.7483425620374 50.25979002341702 334.8342175036536
endloop
endfacet
facet normal 3.160088232469765e-10 1.559831135498395e-09 -1.0
outer loop
vertex 729.2664687767752 57.259790095497024 374.02940449613305
vertex 735.7483425577409 66.58226719451287 374.0294045132215
vertex 735.7483425937725 51.25979009705203 374.0294044908707
endloop
endfacet
facet normal 3.160088232469765e-10 1.559831135498395e-09 -1.0
outer loop
vertex 735.7483425577409 66.58226719451287 374.0294045132215
vertex 729.2664687767752 57.259790095497024 374.02940449613305
vertex 729.266468748235 66.58226719295789 374.0294045132215
endloop
endfacet
facet normal 0.4966013760596853 0.7738997259497308 -0.3930219936219333
outer loop
vertex 729.8080978395024 51.959790087685676 330.6759155612379
vertex 728.7602771721637 53.41175869883402 332.2110177559806
vertex 735.7483425620374 50.25979002341702 334.8342175036536
endloop
endfacet
facet normal -9.424068110653606e-10 -1.0 -1.6644006651629103e-10
outer loop
vertex 755.2580913788242 50.65979000174327 378.99889322571147
vertex 753.8433550178303 50.659790003350764 376.998893217629
vertex 755.2580914056737 50.65979000168614 373.3342172654398
endloop
endfacet
facet normal -9.424068110653606e-10 -1.0 -1.6644006651629103e-10
outer loop
vertex 753.8433550178303 50.659790003350764 376.998893217629
vertex 755.2580913788242 50.65979000174327 378.99889322571147
vertex 735.748342549189 50.65979002006722 378.99889317151843
endloop
endfacet
facet normal -9.424068110653606e-10 -1.0 -1.6644006651629103e-10
outer loop
vertex 753.8433550178303 50.659790003350764 376.998893217629
vertex 735.748342549189 50.65979002006722 378.99889317151843
vertex 753.7580913892244 50.659790003427595 376.99889321773446
endloop
endfacet
facet normal -9.424068110653606e-10 -1.0 -1.6644006651629103e-10
outer loop
vertex 755.2580914056737 50.65979000168614 373.3342172654398
vertex 753.8433550178303 50.659790003350764 376.998893217629
vertex 753.8433550276336 50.65979000311832 374.8148032522182
endloop
endfacet
facet normal -9.424068110653606e-10 -1.0 -1.6644006651629103e-10
outer loop
vertex 755.2580914056737 50.65979000168614 373.3342172654398
vertex 753.8433550276336 50.65979000311832 374.8148032522182
vertex 752.3433550276338 50.65979000311808 374.81480324548545
endloop
endfacet
facet normal -9.424068110653606e-10 -1.0 -1.6644006651629103e-10
outer loop
vertex 755.2580914056737 50.65979000168614 373.3342172654398
vertex 752.3433550276338 50.65979000311808 374.81480324548545
vertex 752.3433550342794 50.65979000296052 373.3342172520562
endloop
endfacet
facet normal 1.66720234101257e-08 2.30062691544665e-09 1.0
outer loop
vertex 735.7483425624182 66.58226719505191 334.83421743334793
vertex 735.7483425780978 51.89890512046769 334.8342174991966
vertex 736.648342562418 66.58226719300589 334.834217433497
endloop
endfacet
facet normal 1.66720234101257e-08 2.30062691544665e-09 1.0
outer loop
vertex 738.6633675409754 67.58226719745828 334.8342174296631
vertex 735.7483425620374 50.25979002341702 334.8342175036536
vertex 738.6633675918786 50.65979009999748 334.83421740592775
endloop
endfacet
facet normal 1.66720234101257e-08 2.30062691544665e-09 1.0
outer loop
vertex 735.7483425620374 50.25979002341702 334.8342175036536
vertex 738.6633675409754 67.58226719745828 334.8342174296631
vertex 736.648342562418 66.58226719300589 334.834217433497
endloop
endfacet
facet normal 1.66720234101257e-08 2.30062691544665e-09 1.0
outer loop
vertex 736.648342562418 66.58226719300589 334.834217433497
vertex 738.6633675409754 67.58226719745828 334.8342174296631
vertex 736.6483425674053 67.58226719357064 334.83421742989975
endloop
endfacet
facet normal 1.66720234101257e-08 2.30062691544665e-09 1.0
outer loop
vertex 735.7483425620374 50.25979002341702 334.8342175036536
vertex 736.648342562418 66.58226719300589 334.834217433497
vertex 735.7483425780978 51.89890512046769 334.8342174991966
endloop
endfacet
facet normal 0.021773721701794528 -0.9803482036623956 0.19606964226816667
outer loop
vertex 735.7483425491889 50.259790016398966 376.99889316884173
vertex 753.7580913892244 50.659790003427595 376.99889321773446
vertex 735.748342549189 50.65979002006722 378.99889317151843
endloop
endfacet
facet normal 0.3552676376046216 -0.6616390500223672 0.660317100457296
outer loop
vertex 738.9469257869534 48.448496016943295 331.2983769959111
vertex 738.6531459754876 50.659790145621244 333.6721592364867
vertex 735.7483425620374 50.25979002341702 334.8342175036536
endloop
endfacet
facet normal 0.014197492811673939 -0.9856765623448338 0.16804804563556647
outer loop
vertex 739.1329903121633 66.18226725827962 327.94760447674844
vertex 736.5509226721787 66.5822672580397 330.5119277322171
vertex 733.5852606626198 66.1822672862191 328.4163030507896
endloop
endfacet
facet normal 0.6599567318625291 1.497791057818304e-09 -0.7513036084495601
outer loop
vertex 743.6246494179687 64.78226737363782 322.3342172653522
vertex 745.4840320134188 67.58226726788615 323.96752775576954
vertex 745.484032018478 64.78226726788616 323.9675277546317
endloop
endfacet
facet normal 0.6599567318625291 1.497791057818304e-09 -0.7513036084495601
outer loop
vertex 745.4840320134188 67.58226726788615 323.96752775576954
vertex 743.6246494179687 64.78226737363782 322.3342172653522
vertex 743.6246494129094 67.58226737363782 322.3342172664901
endloop
endfacet
facet normal 1.0 7.166443119585335e-10 2.0018114841514912e-10
outer loop
vertex 735.7483425780978 51.89890512046769 334.8342174991966
vertex 735.7483425937725 51.25979006950761 339.27093182575754
vertex 735.7483425620374 50.25979002341702 334.8342175036536
endloop
endfacet
facet normal 1.0 7.166443119585335e-10 2.0018114841514912e-10
outer loop
vertex 735.7483425491889 50.259790016398966 376.99889316884173
vertex 735.7483425937725 51.25979009705203 374.0294044908707
vertex 735.7483425577409 66.58226719451265 376.9988931664406
endloop
endfacet
facet normal 1.0 7.166443119585335e-10 2.0018114841514912e-10
outer loop
vertex 735.7483425937725 51.25979009705203 374.0294044908707
vertex 735.7483425491889 50.259790016398966 376.99889316884173
vertex 735.7483425620374 50.25979002341702 334.8342175036536
endloop
endfacet
facet normal 1.0 7.166443119585335e-10 2.0018114841514912e-10
outer loop
vertex 735.7483425937725 51.25979009705203 374.0294044908707
vertex 735.7483425620374 50.25979002341702 334.8342175036536
vertex 735.7483425937725 51.25979006950761 339.27093182575754
endloop
endfacet
facet normal 1.0 7.166443119585335e-10 2.0018114841514912e-10
outer loop
vertex 735.7483425577409 66.58226719451265 376.9988931664406
vertex 735.7483425937725 51.25979009705203 374.0294044908707
vertex 735.7483425577409 66.58226719451287 374.0294045132215
endloop
endfacet
facet normal -2.1623315240806037e-10 -1.0 -5.900469823813318e-10
outer loop
vertex 729.266468787695 66.5822671638429 335.09238996452865
vertex 735.7483425577409 66.58226719451287 374.0294045132215
vertex 729.266468748235 66.58226719295789 374.0294045132215
endloop
endfacet
facet normal -2.1623315240806037e-10 -1.0 -5.900469823813318e-10
outer loop
vertex 735.7483425577409 66.58226719451265 376.9988931664406
vertex 736.648342562418 66.58226719300589 334.834217433497
vertex 736.6483425577406 66.58226719246665 376.99889316658965
endloop
endfacet
facet normal -2.1623315240806037e-10 -1.0 -5.900469823813318e-10
outer loop
vertex 736.648342562418 66.58226719300589 334.834217433497
vertex 735.7483425577409 66.58226719451265 376.9988931664406
vertex 735.7483425577409 66.58226719451287 374.0294045132215
endloop
endfacet
facet normal -2.1623315240806037e-10 -1.0 -5.900469823813318e-10
outer loop
vertex 736.648342562418 66.58226719300589 334.834217433497
vertex 735.7483425577409 66.58226719451287 374.0294045132215
vertex 729.266468787695 66.5822671638429 335.09238996452865
endloop
endfacet
facet normal -2.1623315240806037e-10 -1.0 -5.900469823813318e-10
outer loop
vertex 736.648342562418 66.58226719300589 334.834217433497
vertex 729.266468787695 66.5822671638429 335.09238996452865
vertex 735.7483425624182 66.58226719505191 334.83421743334793
endloop
endfacet
facet normal -2.1623315240806037e-10 -1.0 -5.900469823813318e-10
outer loop
vertex 735.7483425624182 66.58226719505191 334.83421743334793
vertex 729.266468787695 66.5822671638429 335.09238996452865
vertex 729.7602769194253 66.58226724631561 332.9110177575149
endloop
endfacet
facet normal -2.1623315240806037e-10 -1.0 -5.900469823813318e-10
outer loop
vertex 735.7483425624182 66.58226719505191 334.83421743334793
vertex 729.7602769194253 66.58226724631561 332.9110177575149
vertex 735.7483425577409 66.58226719506558 333.8342174286129
endloop
endfacet
facet normal -2.1623315240806037e-10 -1.0 -5.900469823813318e-10
outer loop
vertex 735.7483425577409 66.58226719506558 333.8342174286129
vertex 729.7602769194253 66.58226724631561 332.9110177575149
vertex 736.5509226721787 66.5822672580397 330.5119277322171
endloop
endfacet
facet normal -2.1623315240806037e-10 -1.0 -5.900469823813318e-10
outer loop
vertex 736.5509226721787 66.5822672580397 330.5119277322171
vertex 729.7602769194253 66.58226724631561 332.9110177575149
vertex 730.8080975443625 66.58226725672812 331.37591556445403
endloop
endfacet
facet normal -2.4017434930323515e-09 4.0388088142498744e-11 1.0
outer loop
vertex 728.2664687408943 67.58226719127505 378.99889316165724
vertex 753.7580913850248 55.685737946204185 378.9988932171048
vertex 753.7580913973177 67.58226718021989 378.9988932133728
endloop
endfacet
facet normal -2.4017434930323515e-09 4.0388088142498744e-11 1.0
outer loop
vertex 753.7580913850248 55.685737946204185 378.9988932171048
vertex 728.2664687408943 67.58226719127505 378.99889316165724
vertex 735.748342549189 50.65979002006722 378.99889317151843
endloop
endfacet
facet normal -2.4017434930323515e-09 4.0388088142498744e-11 1.0
outer loop
vertex 735.748342549189 50.65979002006722 378.99889317151843
vertex 728.2664687408943 67.58226719127505 378.99889316165724
vertex 728.2664688988757 56.927457090869375 378.9988931556139
endloop
endfacet
facet normal -2.4017434930323515e-09 4.0388088142498744e-11 1.0
outer loop
vertex 753.7580913850248 55.685737946204185 378.9988932171048
vertex 755.2580913788242 50.65979000174327 378.99889322571147
vertex 755.2580913850252 55.68573794485264 378.9988932236504
endloop
endfacet
facet normal -2.4017434930323515e-09 4.0388088142498744e-11 1.0
outer loop
vertex 755.2580913788242 50.65979000174327 378.99889322571147
vertex 753.7580913850248 55.685737946204185 378.9988932171048
vertex 735.748342549189 50.65979002006722 378.99889317151843
endloop
endfacet
facet normal -1.0 -1.640472646397175e-13 -4.4884993369278346e-09
outer loop
vertex 753.8433550178303 50.659790003350764 376.998893217629
vertex 753.8433550261007 55.68573794561119 374.81480325245997
vertex 753.8433550276336 50.65979000311832 374.8148032522182
endloop
endfacet
facet normal -1.0 -1.640472646397175e-13 -4.4884993369278346e-09
outer loop
vertex 753.8433550261007 55.68573794561119 374.81480325245997
vertex 753.8433550178303 50.659790003350764 376.998893217629
vertex 753.8433550162974 55.685737945843506 376.9988932173934
endloop
endfacet
facet normal 0.6374639073674161 0.7690560985822319 0.04682396862017314
outer loop
vertex 735.7483425937722 51.959790097604774 333.8342174062629
vertex 729.2664688162992 57.2597900645232 335.0294020489872
vertex 735.7483425780978 51.89890512046769 334.8342174991966
endloop
endfacet
facet normal 0.02338137613035865 -0.9875727995330277 0.15541324548682833
outer loop
vertex 733.5852606626198 66.1822672862191 328.4163030507896
vertex 736.5509226721787 66.5822672580397 330.5119277322171
vertex 730.8080975443625 66.58226725672812 331.37591556445403
endloop
endfacet
facet normal 0.26890295187898655 0.7774351917380093 -0.568582206121553
outer loop
vertex 736.5509227082101 51.35979016057887 330.5119277098674
vertex 729.7602769489421 55.463160609460544 332.91101773973526
vertex 729.6436952374358 55.88012841959783 333.4260114907026
endloop
endfacet
facet normal 0.659956731862528 2.664756688440438e-08 -0.7513036084495606
outer loop
vertex 743.6246495080517 45.65979027617699 322.3342172372786
vertex 745.48403205451 47.15979017042532 323.9675277322815
vertex 745.4840320683404 45.65979017042534 323.9675276912277
endloop
endfacet
facet normal 0.659956731862528 2.664756688440438e-08 -0.7513036084495606
outer loop
vertex 745.48403205451 47.15979017042532 323.9675277322815
vertex 743.6246495080517 45.65979027617699 322.3342172372786
vertex 743.6246494540006 47.15979027617707 322.334217243002
endloop
endfacet
facet normal 0.9924285707579551 3.047372577146485e-09 0.12282317347847126
outer loop
vertex 738.946925721606 67.58226725154881 331.298377020633
vertex 738.6531459754876 50.659790145621244 333.6721592364867
vertex 738.9469257869534 48.448496016943295 331.2983769959111
endloop
endfacet
facet normal 0.9924285707579551 3.047372577146485e-09 0.12282317347847126
outer loop
vertex 738.6531459754876 50.659790145621244 333.6721592364867
vertex 738.946925721606 67.58226725154881 331.298377020633
vertex 738.6531459245846 67.58226724308214 333.6721592602221
endloop
endfacet
facet normal 0.9999613162806704 3.020232358179262e-09 -0.008795791165616403
outer loop
vertex 738.6531459754876 50.659790145621244 333.6721592364867
vertex 738.6633675409754 67.58226719745828 334.8342174296631
vertex 738.6633675918786 50.65979009999748 334.83421740592775
endloop
endfacet
facet normal 0.9999613162806704 3.020232358179262e-09 -0.008795791165616403
outer loop
vertex 738.6633675409754 67.58226719745828 334.8342174296631
vertex 738.6531459754876 50.659790145621244 333.6721592364867
vertex 738.6531459245846 67.58226724308214 333.6721592602221
endloop
endfacet
facet normal 0.6344506177332124 0.7728421018459669 0.013693037364060766
outer loop
vertex 736.5509227082101 51.35979016057887 330.5119277098674
vertex 729.2664688162992 57.2597900645232 335.0294020489872
vertex 736.1496326509913 51.65979012909186 332.1730725580653
endloop
endfacet
facet normal 4.488437724255818e-09 -1.0641997060178769e-10 -1.0
outer loop
vertex 755.2580914056737 50.65979000168614 373.3342172654398
vertex 752.3433550327464 55.6857379454534 373.33421725182046
vertex 755.2580914085289 55.685737944178975 373.3342172647267
endloop
endfacet
facet normal 4.488437724255818e-09 -1.0641997060178769e-10 -1.0
outer loop
vertex 752.3433550327464 55.6857379454534 373.33421725182046
vertex 755.2580914056737 50.65979000168614 373.3342172654398
vertex 752.3433550342794 50.65979000296052 373.3342172520562
endloop
endfacet
facet normal -0.6653171701944612 -0.7465608234058592 -5.022535112641726e-10
outer loop
vertex 735.7483425620374 50.25979002341702 334.8342175036536
vertex 728.2664688988757 56.927457090869375 378.9988931556139
vertex 728.2664689035386 56.92745709087149 335.8891938149759
endloop
endfacet
facet normal 1.0 -8.538204815082585e-10 2.4997987697202604e-09
outer loop
vertex 753.7580914002622 67.58226718032965 376.9988932153329
vertex 753.7580913850248 55.685737946204185 378.9988932171048
vertex 753.7580913920797 55.68573794592032 376.9988932170213
endloop
endfacet
facet normal 1.0 -8.538204815082585e-10 2.4997987697202604e-09
outer loop
vertex 753.7580913850248 55.685737946204185 378.9988932171048
vertex 753.7580914002622 67.58226718032965 376.9988932153329
vertex 753.7580913973177 67.58226718021989 378.9988932133728
endloop
endfacet
facet normal 1.0 -2.273413602487555e-09 1.655849824548464e-10
outer loop
vertex 736.648342562418 66.58226719300589 334.834217433497
vertex 736.6483425577405 67.58226719125481 376.99889316658977
vertex 736.6483425577406 66.58226719246665 376.99889316658965
endloop
endfacet
facet normal 1.0 -2.273413602487555e-09 1.655849824548464e-10
outer loop
vertex 736.6483425577405 67.58226719125481 376.99889316658977
vertex 736.648342562418 66.58226719300589 334.834217433497
vertex 736.6483425674053 67.58226719357064 334.83421742989975
endloop
endfacet
facet normal 0.9753217205919424 2.2078015016791806e-09 0.22078845382304998
outer loop
vertex 729.7602769194253 66.58226724631561 332.9110177575149
vertex 729.6436952374358 55.88012841959783 333.4260114907026
vertex 729.7602769489421 55.463160609460544 332.91101773973526
endloop
endfacet
facet normal 0.9753217205919424 2.2078015016791806e-09 0.22078845382304998
outer loop
vertex 729.6436952374358 55.88012841959783 333.4260114907026
vertex 729.7602769194253 66.58226724631561 332.9110177575149
vertex 729.266468787695 66.5822671638429 335.09238996452865
endloop
endfacet
facet normal 0.6567740650060457 9.507767686681006e-10 0.7540874137229943
outer loop
vertex 745.7560627022654 67.58226726984984 325.36794443829535
vertex 738.9469257869534 48.448496016943295 331.2983769959111
vertex 745.7560627531693 45.65979017238898 325.3679444145595
endloop
endfacet
facet normal 0.6567740650060457 9.507767686681006e-10 0.7540874137229943
outer loop
vertex 738.9469257869534 48.448496016943295 331.2983769959111
vertex 745.7560627022654 67.58226726984984 325.36794443829535
vertex 738.946925721606 67.58226725154881 331.298377020633
endloop
endfacet
facet normal 0.37447338313709866 0.8440908781720191 -0.3837711228175531
outer loop
vertex 736.5509227082101 51.35979016057887 330.5119277098674
vertex 730.8080975763713 54.30036066268215 331.3759155449299
vertex 729.7602769489421 55.463160609460544 332.91101773973526
endloop
endfacet
facet normal 9.009777649752463e-10 1.0 -1.4191199008256405e-10
outer loop
vertex 755.2580914085289 55.685737944178975 373.3342172647267
vertex 753.7580913850248 55.685737946204185 378.9988932171048
vertex 755.2580913850252 55.68573794485264 378.9988932236504
endloop
endfacet
facet normal 9.009777649752463e-10 1.0 -1.4191199008256405e-10
outer loop
vertex 753.7580913850248 55.685737946204185 378.9988932171048
vertex 755.2580914085289 55.685737944178975 373.3342172647267
vertex 753.8433550162974 55.685737945843506 376.9988932173934
endloop
endfacet
facet normal 9.009777649752463e-10 1.0 -1.4191199008256405e-10
outer loop
vertex 753.8433550162974 55.685737945843506 376.9988932173934
vertex 755.2580914085289 55.685737944178975 373.3342172647267
vertex 753.8433550261007 55.68573794561119 374.81480325245997
endloop
endfacet
facet normal 9.009777649752463e-10 1.0 -1.4191199008256405e-10
outer loop
vertex 753.8433550261007 55.68573794561119 374.81480325245997
vertex 755.2580914085289 55.685737944178975 373.3342172647267
vertex 752.3433550261009 55.68573794561088 374.8148032457272
endloop
endfacet
facet normal 9.009777649752463e-10 1.0 -1.4191199008256405e-10
outer loop
vertex 752.3433550261009 55.68573794561088 374.8148032457272
vertex 755.2580914085289 55.685737944178975 373.3342172647267
vertex 752.3433550327464 55.6857379454534 373.33421725182046
endloop
endfacet
facet normal 9.009777649752463e-10 1.0 -1.4191199008256405e-10
outer loop
vertex 753.7580913920797 55.68573794592032 376.9988932170213
vertex 753.7580913850248 55.685737946204185 378.9988932171048
vertex 753.8433550162974 55.685737945843506 376.9988932173934
endloop
endfacet
facet normal -0.9753217127440414 -1.4892707979042796e-08 -0.22078848849074817
outer loop
vertex 728.2664689435233 55.383937039500616 334.39238989746195
vertex 728.7602769538263 67.58226720635425 332.2110177646394
vertex 728.7602771721637 53.41175869883402 332.2110177559806
endloop
endfacet
facet normal -0.9753217127440414 -1.4892707979042796e-08 -0.22078848849074817
outer loop
vertex 728.7602769538263 67.58226720635425 332.2110177646394
vertex 728.2664689435233 55.383937039500616 334.39238989746195
vertex 728.2664687431759 67.58226719888698 334.39238995967986
endloop
endfacet
facet normal 0.21847001841569416 0.9144523075195676 -0.3406579344820614
outer loop
vertex 745.48403205451 47.15979017042532 323.9675277322815
vertex 733.5852606986514 51.65979018875827 328.41630302843976
vertex 739.132990348195 50.15979016081879 327.94760445439846
endloop
endfacet
facet normal -1.0 -9.488553462112451e-09 -1.5812908905855784e-09
outer loop
vertex 728.2664688988757 56.927457090869375 378.9988931556139
vertex 728.2664688378627 67.58226719863156 335.88919381257404
vertex 728.2664689035386 56.92745709087149 335.8891938149759
endloop
endfacet
facet normal -1.0 -9.488553462112451e-09 -1.5812908905855784e-09
outer loop
vertex 728.2664688378627 67.58226719863156 335.88919381257404
vertex 728.2664688988757 56.927457090869375 378.9988931556139
vertex 728.2664687408943 67.58226719127505 378.99889316165724
endloop
endfacet
facet normal -0.972038940040504 -1.9946911064913183e-09 -0.23481971604815016
outer loop
vertex 736.1496326509913 51.65979012909186 332.1730725580653
vertex 736.5509226721787 66.5822672580397 330.5119277322171
vertex 736.5509227082101 51.35979016057887 330.5119277098674
endloop
endfacet
facet normal -0.972038940040504 -1.9946911064913183e-09 -0.23481971604815016
outer loop
vertex 736.5509226721787 66.5822672580397 330.5119277322171
vertex 736.1496326509913 51.65979012909186 332.1730725580653
vertex 735.7483425937722 51.959790097604774 333.8342174062629
endloop
endfacet
facet normal -0.972038940040504 -1.9946911064913183e-09 -0.23481971604815016
outer loop
vertex 736.5509226721787 66.5822672580397 330.5119277322171
vertex 735.7483425937722 51.959790097604774 333.8342174062629
vertex 735.7483425577409 66.58226719506558 333.8342174286129
endloop
endfacet
facet normal -0.8259367282539245 -1.2946664258042683e-08 -0.5637628232875975
outer loop
vertex 728.7602771721637 53.41175869883402 332.2110177559806
vertex 729.8080975787633 67.582267216767 330.67591557157857
vertex 729.8080978395024 51.959790087685676 330.6759155612379
endloop
endfacet
facet normal -0.8259367282539245 -1.2946664258042683e-08 -0.5637628232875975
outer loop
vertex 729.8080975787633 67.582267216767 330.67591557157857
vertex 728.7602771721637 53.41175869883402 332.2110177559806
vertex 728.7602769538263 67.58226720635425 332.2110177646394
endloop
endfacet
facet normal -0.5160529978836511 -7.255756567571235e-09 -0.8565566550878562
outer loop
vertex 732.5852609722041 49.7484959800317 327.7163030465871
vertex 741.5185706851696 67.58226732677295 322.3342172724768
vertex 741.5185710151895 45.659790197691805 322.3342172565873
endloop
endfacet
facet normal -0.5160529978836511 -7.255756567571235e-09 -0.8565566550878562
outer loop
vertex 741.5185706851696 67.58226732677295 322.3342172724768
vertex 732.5852609722041 49.7484959800317 327.7163030465871
vertex 732.5852606970208 67.58226724625773 327.71630305791393
endloop
endfacet
facet normal -0.3039713463358267 -0.9310287969021167 0.20195742112084408
outer loop
vertex 732.5852609722041 49.7484959800317 327.7163030465871
vertex 738.9469257869534 48.448496016943295 331.2983769959111
vertex 735.7483425620374 50.25979002341702 334.8342175036536
endloop
endfacet
facet normal -2.4043756523759396e-09 1.0 1.8064999896177907e-09
outer loop
vertex 753.7580914002622 67.58226718032965 376.9988932153329
vertex 728.2664687408943 67.58226719127505 378.99889316165724
vertex 753.7580913973177 67.58226718021989 378.9988932133728
endloop
endfacet
facet normal -2.4043756523759396e-09 1.0 1.8064999896177907e-09
outer loop
vertex 728.2664687408943 67.58226719127505 378.99889316165724
vertex 753.7580914002622 67.58226718032965 376.9988932153329
vertex 736.6483425577405 67.58226719125481 376.99889316658977
endloop
endfacet
facet normal -2.4043756523759396e-09 1.0 1.8064999896177907e-09
outer loop
vertex 728.2664687408943 67.58226719127505 378.99889316165724
vertex 736.6483425577405 67.58226719125481 376.99889316658977
vertex 728.2664688378627 67.58226719863156 335.88919381257404
endloop
endfacet
facet normal -2.4043756523759396e-09 1.0 1.8064999896177907e-09
outer loop
vertex 728.2664688378627 67.58226719863156 335.88919381257404
vertex 736.6483425577405 67.58226719125481 376.99889316658977
vertex 736.6483425674053 67.58226719357064 334.83421742989975
endloop
endfacet
facet normal -2.4043756523759396e-09 1.0 1.8064999896177907e-09
outer loop
vertex 728.2664688378627 67.58226719863156 335.88919381257404
vertex 736.6483425674053 67.58226719357064 334.83421742989975
vertex 728.2664687431759 67.58226719888698 334.39238995967986
endloop
endfacet
facet normal -2.4043756523759396e-09 1.0 1.8064999896177907e-09
outer loop
vertex 728.2664687431759 67.58226719888698 334.39238995967986
vertex 736.6483425674053 67.58226719357064 334.83421742989975
vertex 738.6633675409754 67.58226719745828 334.8342174296631
endloop
endfacet
facet normal -2.4043756523759396e-09 1.0 1.8064999896177907e-09
outer loop
vertex 728.2664687431759 67.58226719888698 334.39238995967986
vertex 738.6633675409754 67.58226719745828 334.8342174296631
vertex 738.6531459245846 67.58226724308214 333.6721592602221
endloop
endfacet
facet normal -2.4043756523759396e-09 1.0 1.8064999896177907e-09
outer loop
vertex 728.2664687431759 67.58226719888698 334.39238995967986
vertex 738.6531459245846 67.58226724308214 333.6721592602221
vertex 728.7602769538263 67.58226720635425 332.2110177646394
endloop
endfacet
facet normal -2.4043756523759396e-09 1.0 1.8064999896177907e-09
outer loop
vertex 728.7602769538263 67.58226720635425 332.2110177646394
vertex 738.6531459245846 67.58226724308214 333.6721592602221
vertex 738.946925721606 67.58226725154881 331.298377020633
endloop
endfacet
facet normal -2.4043756523759396e-09 1.0 1.8064999896177907e-09
outer loop
vertex 728.7602769538263 67.58226720635425 332.2110177646394
vertex 738.946925721606 67.58226725154881 331.298377020633
vertex 729.8080975787633 67.582267216767 330.67591557157857
endloop
endfacet
facet normal -2.4043756523759396e-09 1.0 1.8064999896177907e-09
outer loop
vertex 729.8080975787633 67.582267216767 330.67591557157857
vertex 738.946925721606 67.58226725154881 331.298377020633
vertex 745.7560627022654 67.58226726984984 325.36794443829535
endloop
endfacet
facet normal -2.4043756523759396e-09 1.0 1.8064999896177907e-09
outer loop
vertex 729.8080975787633 67.582267216767 330.67591557157857
vertex 745.7560627022654 67.58226726984984 325.36794443829535
vertex 732.5852606970208 67.58226724625773 327.71630305791393
endloop
endfacet
facet normal -2.4043756523759396e-09 1.0 1.8064999896177907e-09
outer loop
vertex 732.5852606970208 67.58226724625773 327.71630305791393
vertex 745.7560627022654 67.58226726984984 325.36794443829535
vertex 741.5185706851696 67.58226732677295 322.3342172724768
endloop
endfacet
facet normal -2.4043756523759396e-09 1.0 1.8064999896177907e-09
outer loop
vertex 741.5185706851696 67.58226732677295 322.3342172724768
vertex 745.7560627022654 67.58226726984984 325.36794443829535
vertex 745.4840320134188 67.58226726788615 323.96752775576954
endloop
endfacet
facet normal -2.4043756523759396e-09 1.0 1.8064999896177907e-09
outer loop
vertex 741.5185706851696 67.58226732677295 322.3342172724768
vertex 745.4840320134188 67.58226726788615 323.96752775576954
vertex 743.6246494129094 67.58226737363782 322.3342172664901
endloop
endfacet
facet normal -0.7292265357882218 -1.120853319013422e-08 -0.6842723576926875
outer loop
vertex 729.8080978395024 51.959790087685676 330.6759155612379
vertex 732.5852606970208 67.58226724625773 327.71630305791393
vertex 732.5852609722041 49.7484959800317 327.7163030465871
endloop
endfacet
facet normal -0.7292265357882218 -1.120853319013422e-08 -0.6842723576926875
outer loop
vertex 732.5852606970208 67.58226724625773 327.71630305791393
vertex 729.8080978395024 51.959790087685676 330.6759155612379
vertex 729.8080975787633 67.582267216767 330.67591557157857
endloop
endfacet
facet normal -1.0 -1.7630574765254085e-09 -5.552596782369275e-09
outer loop
vertex 735.7483425624182 66.58226719505191 334.83421743334793
vertex 735.7483425937722 51.959790097604774 333.8342174062629
vertex 735.7483425780978 51.89890512046769 334.8342174991966
endloop
endfacet
facet normal -1.0 -1.7630574765254085e-09 -5.552596782369275e-09
outer loop
vertex 735.7483425937722 51.959790097604774 333.8342174062629
vertex 735.7483425624182 66.58226719505191 334.83421743334793
vertex 735.7483425577409 66.58226719506558 333.8342174286129
endloop
endfacet
facet normal 0.3687356922818919 0.8381917964263825 -0.40183143436135965
outer loop
vertex 733.5852606986514 51.65979018875827 328.41630302843976
vertex 730.8080975763713 54.30036066268215 331.3759155449299
vertex 736.5509227082101 51.35979016057887 330.5119277098674
endloop
endfacet
facet normal 0.24613776624729286 0.92784725520856 -0.28020647927686204
outer loop
vertex 743.6246494540006 47.15979027617707 322.334217243002
vertex 733.5852606986514 51.65979018875827 328.41630302843976
vertex 745.48403205451 47.15979017042532 323.9675277322815
endloop
endfacet
facet normal 3.7266005775081227e-08 -0.9999999999999976 -6.039345770423756e-08
outer loop
vertex 743.6246495080517 45.65979027617699 322.3342172372786
vertex 745.7560627531693 45.65979017238898 325.3679444145595
vertex 741.5185710151895 45.659790197691805 322.3342172565873
endloop
endfacet
facet normal -4.488463082134456e-09 -5.366614755343977e-14 1.0
outer loop
vertex 753.8433550261007 55.68573794561119 374.81480325245997
vertex 752.3433550276338 50.65979000311808 374.81480324548545
vertex 753.8433550276336 50.65979000311832 374.8148032522182
endloop
endfacet
facet normal -4.488463082134456e-09 -5.366614755343977e-14 1.0
outer loop
vertex 752.3433550276338 50.65979000311808 374.81480324548545
vertex 753.8433550261007 55.68573794561119 374.81480325245997
vertex 752.3433550261009 55.68573794561088 374.8148032457272
endloop
endfacet
facet normal -1.0 -1.6404726465333834e-13 -4.488463082134456e-09
outer loop
vertex 752.3433550276338 50.65979000311808 374.81480324548545
vertex 752.3433550327464 55.6857379454534 373.33421725182046
vertex 752.3433550342794 50.65979000296052 373.3342172520562
endloop
endfacet
facet normal -1.0 -1.6404726465333834e-13 -4.488463082134456e-09
outer loop
vertex 752.3433550327464 55.6857379454534 373.33421725182046
vertex 752.3433550276338 50.65979000311808 374.81480324548545
vertex 752.3433550261009 55.68573794561088 374.8148032457272
endloop
endfacet
facet normal 0.8259367306318709 1.2719754953667534e-09 0.563762819803804
outer loop
vertex 730.8080975443625 66.58226725672812 331.37591556445403
vertex 729.7602769489421 55.463160609460544 332.91101773973526
vertex 730.8080975763713 54.30036066268215 331.3759155449299
endloop
endfacet
facet normal 0.8259367306318709 1.2719754953667534e-09 0.563762819803804
outer loop
vertex 729.7602769489421 55.463160609460544 332.91101773973526
vertex 730.8080975443625 66.58226725672812 331.37591556445403
vertex 729.7602769194253 66.58226724631561 332.9110177575149
endloop
endfacet
facet normal 1.0 3.0614509564345883e-09 1.0134332870366594e-09
outer loop
vertex 729.266468787695 66.5822671638429 335.09238996452865
vertex 729.2664687767752 57.259790095497024 374.02940449613305
vertex 729.2664688162992 57.2597900645232 335.0294020489872
endloop
endfacet
facet normal 1.0 3.0614509564345883e-09 1.0134332870366594e-09
outer loop
vertex 729.2664687767752 57.259790095497024 374.02940449613305
vertex 729.266468787695 66.5822671638429 335.09238996452865
vertex 729.266468748235 66.58226719295789 374.0294045132215
endloop
endfacet
facet normal -0.2714588311021493 -0.9527449268807808 0.1363349086609524
outer loop
vertex 745.7560627531693 45.65979017238898 325.3679444145595
vertex 738.9469257869534 48.448496016943295 331.2983769959111
vertex 732.5852609722041 49.7484959800317 327.7163030465871
endloop
endfacet
endsolid Falla3d_ver2
