solid Falla3d_ver2.1
facet normal 2.944440454497774e-11 -0.9950371903334903 -0.09950371778598913
  outer loop
    vertex 695.7567533991611 142.4635079657069 378.9988931709671
    vertex 701.3181587476607 142.8635079622632 374.9988931557945
    vertex 701.718158780793 142.46350796716297 378.9988931725109
  endloop
endfacet
facet normal 2.944440454497774e-11 -0.9950371903334903 -0.09950371778598913
  outer loop
    vertex 701.3181587476607 142.8635079622632 374.9988931557945
    vertex 695.7567533991611 142.4635079657069 378.9988931709671
    vertex 696.1567533939007 142.8635079622632 374.9988931708304
  endloop
endfacet
facet normal -2.6953472881798006e-11 0.9953189620331894 -0.09664452295487061
  outer loop
    vertex 701.7181587522548 151.78598506462382 378.99889315542407
    vertex 696.1567533940679 151.39758887523325 374.99889315412736
    vertex 695.7567533969252 151.78598506433318 378.998893155808
  endloop
endfacet
facet normal -2.6953472881798006e-11 0.9953189620331894 -0.09664452295487061
  outer loop
    vertex 696.1567533940679 151.39758887523325 374.99889315412736
    vertex 701.7181587522548 151.78598506462382 378.99889315542407
    vertex 701.318158747828 151.39758887523325 374.99889315466834
  endloop
endfacet
facet normal 2.589670512836921e-10 -1.7294807356412465e-09 -1.0
  outer loop
    vertex 695.7567533991611 142.4635079657069 378.9988931709671
    vertex 695.356753399259 142.06350796561094 378.99889317162
    vertex 695.3567533991612 142.46350796561094 378.9988931709281
  endloop
endfacet
facet normal 2.589670512836921e-10 -1.7294807356412465e-09 -1.0
  outer loop
    vertex 695.356753399259 142.06350796561094 378.99889317162
    vertex 695.7567533991611 142.4635079657069 378.9988931709671
    vertex 702.1181587808908 142.06350796838746 378.99889317324175
  endloop
endfacet
facet normal 2.589670512836921e-10 -1.7294807356412465e-09 -1.0
  outer loop
    vertex 702.1181587808908 142.06350796838746 378.99889317324175
    vertex 695.7567533991611 142.4635079657069 378.9988931709671
    vertex 701.718158780793 142.46350796716297 378.9988931725109
  endloop
endfacet
facet normal 2.589670512836921e-10 -1.7294807356412465e-09 -1.0
  outer loop
    vertex 702.1181587808908 142.06350796838746 378.99889317324175
    vertex 701.718158780793 142.46350796716297 378.9988931725109
    vertex 702.118158780793 142.46350796838746 378.9988931725499
  endloop
endfacet
facet normal -0.9950371903121525 -2.9777356676529737e-10 -0.09950371799936504
  outer loop
    vertex 696.1567533940679 151.39758887523325 374.99889315412736
    vertex 695.7567533991611 142.4635079657069 378.9988931709671
    vertex 695.7567533969252 151.78598506433318 378.998893155808
  endloop
endfacet
facet normal -0.9950371903121525 -2.9777356676529737e-10 -0.09950371799936504
  outer loop
    vertex 695.7567533991611 142.4635079657069 378.9988931709671
    vertex 696.1567533940679 151.39758887523325 374.99889315412736
    vertex 696.1567533939007 142.8635079622632 374.9988931708304
  endloop
endfacet
facet normal -1.0 -2.39843994462635e-10 -9.727915357562909e-11
  outer loop
    vertex 695.3567533969058 152.18598506423726 378.99889315507727
    vertex 695.35675339922 142.06350796630272 379.3988931716201
    vertex 695.3567533968668 152.18598506492899 379.39889315507736
  endloop
endfacet
facet normal -1.0 -2.39843994462635e-10 -9.727915357562909e-11
  outer loop
    vertex 695.35675339922 142.06350796630272 379.3988931716201
    vertex 695.3567533969058 152.18598506423726 378.99889315507727
    vertex 695.3567533991612 142.46350796561094 378.9988931709281
  endloop
endfacet
facet normal -1.0 -2.39843994462635e-10 -9.727915357562909e-11
  outer loop
    vertex 695.35675339922 142.06350796630272 379.3988931716201
    vertex 695.3567533991612 142.46350796561094 378.9988931709281
    vertex 695.356753399259 142.06350796561094 378.99889317162
  endloop
endfacet
facet normal -6.440874472959351e-11 -1.7294807356886218e-09 -1.0
  outer loop
    vertex 702.1181587522352 152.1859850658483 378.9988931547713
    vertex 695.7567533969252 151.78598506433318 378.998893155808
    vertex 695.7567533969057 152.18598506433318 378.99889315511626
  endloop
endfacet
facet normal -6.440874472959351e-11 -1.7294807356886218e-09 -1.0
  outer loop
    vertex 695.7567533969252 151.78598506433318 378.998893155808
    vertex 702.1181587522352 152.1859850658483 378.9988931547713
    vertex 701.7181587522548 151.78598506462382 378.99889315542407
  endloop
endfacet
facet normal -6.440874472959351e-11 -1.7294807356886218e-09 -1.0
  outer loop
    vertex 701.7181587522548 151.78598506462382 378.99889315542407
    vertex 702.1181587522352 152.1859850658483 378.9988931547713
    vertex 702.1181587522547 151.78598506584834 378.998893155463
  endloop
endfacet
facet normal -4.875499798507399e-11 1.0 -1.7294807356854819e-09
  outer loop
    vertex 702.1181587522352 152.1859850658483 378.9988931547713
    vertex 695.7567533969057 152.18598506433318 378.99889315511626
    vertex 702.1181587521962 152.18598506654007 379.3988931547714
  endloop
endfacet
facet normal -4.875499798507399e-11 1.0 -1.7294807356854819e-09
  outer loop
    vertex 702.1181587521962 152.18598506654007 379.3988931547714
    vertex 695.3567533969058 152.18598506423726 378.99889315507727
    vertex 695.3567533968668 152.18598506492899 379.39889315507736
  endloop
endfacet
facet normal -4.875499798507399e-11 1.0 -1.7294807356854819e-09
  outer loop
    vertex 695.3567533969058 152.18598506423726 378.99889315507727
    vertex 702.1181587521962 152.18598506654007 379.3988931547714
    vertex 695.7567533969057 152.18598506433318 378.99889315511626
  endloop
endfacet
facet normal 2.44249917189181e-10 -1.0 1.7294807357044994e-09
  outer loop
    vertex 695.35675339922 142.06350796630272 379.3988931716201
    vertex 702.1181587808908 142.06350796838746 378.99889317324175
    vertex 702.1181587808518 142.06350796907924 379.39889317324185
  endloop
endfacet
facet normal 2.44249917189181e-10 -1.0 1.7294807357044994e-09
  outer loop
    vertex 702.1181587808908 142.06350796838746 378.99889317324175
    vertex 695.35675339922 142.06350796630272 379.3988931716201
    vertex 695.356753399259 142.06350796561094 378.99889317162
  endloop
endfacet
facet normal -9.727915399043467e-11 1.7294807356807388e-09 1.0
  outer loop
    vertex 695.35675339922 142.06350796630272 379.3988931716201
    vertex 702.1181587521962 152.18598506654007 379.3988931547714
    vertex 695.3567533968668 152.18598506492899 379.39889315507736
  endloop
endfacet
facet normal -9.727915399043467e-11 1.7294807356807388e-09 1.0
  outer loop
    vertex 702.1181587521962 152.18598506654007 379.3988931547714
    vertex 695.35675339922 142.06350796630272 379.3988931716201
    vertex 702.1181587808518 142.06350796907924 379.39889317324185
  endloop
endfacet
facet normal 0.9950371897691933 1.5431435308419962e-09 -0.0995037234289588
  outer loop
    vertex 701.718158780793 142.46350796716297 378.9988931725109
    vertex 701.318158747828 151.39758887523325 374.99889315466834
    vertex 701.7181587522548 151.78598506462382 378.99889315542407
  endloop
endfacet
facet normal 0.9950371897691933 1.5431435308419962e-09 -0.0995037234289588
  outer loop
    vertex 701.318158747828 151.39758887523325 374.99889315466834
    vertex 701.718158780793 142.46350796716297 378.9988931725109
    vertex 701.3181587476607 142.8635079622632 374.9988931557945
  endloop
endfacet
facet normal 9.727915430694806e-11 -1.8328746183557583e-09 -1.0
  outer loop
    vertex 702.1181587522547 151.78598506584834 378.998893155463
    vertex 701.718158780793 142.46350796716297 378.9988931725109
    vertex 701.7181587522548 151.78598506462382 378.99889315542407
  endloop
endfacet
facet normal 9.727915430694806e-11 -1.8328746183557583e-09 -1.0
  outer loop
    vertex 701.718158780793 142.46350796716297 378.9988931725109
    vertex 702.1181587522547 151.78598506584834 378.998893155463
    vertex 702.118158780793 142.46350796838746 378.9988931725499
  endloop
endfacet
facet normal 1.0 3.061239113111056e-09 9.727914869608059e-11
  outer loop
    vertex 702.1181587808518 142.06350796907924 379.39889317324185
    vertex 702.1181587522352 152.1859850658483 378.9988931547713
    vertex 702.1181587521962 152.18598506654007 379.3988931547714
  endloop
endfacet
facet normal 1.0 3.061239113111056e-09 9.727914869608059e-11
  outer loop
    vertex 702.1181587522352 152.1859850658483 378.9988931547713
    vertex 702.1181587808518 142.06350796907924 379.39889317324185
    vertex 702.1181587522547 151.78598506584834 378.998893155463
  endloop
endfacet
facet normal 1.0 3.061239113111056e-09 9.727914869608059e-11
  outer loop
    vertex 702.1181587522547 151.78598506584834 378.998893155463
    vertex 702.1181587808518 142.06350796907924 379.39889317324185
    vertex 702.118158780793 142.46350796838746 378.9988931725499
  endloop
endfacet
facet normal 1.0 3.061239113111056e-09 9.727914869608059e-11
  outer loop
    vertex 702.118158780793 142.46350796838746 378.9988931725499
    vertex 702.1181587808518 142.06350796907924 379.39889317324185
    vertex 702.1181587808908 142.06350796838746 378.99889317324175
  endloop
endfacet
facet normal -1.404161991125055e-09 -1.04458950463876e-09 -1.0
  outer loop
    vertex 696.1567533940679 151.39758887523325 374.99889315412736
    vertex 701.3181587476607 142.8635079622632 374.9988931557945
    vertex 696.1567533939007 142.8635079622632 374.9988931708304
  endloop
endfacet
facet normal -1.404161991125055e-09 -1.04458950463876e-09 -1.0
  outer loop
    vertex 701.3181587476607 142.8635079622632 374.9988931557945
    vertex 696.1567533940679 151.39758887523325 374.99889315412736
    vertex 701.318158747828 151.39758887523325 374.99889315466834
  endloop
endfacet
facet normal 9.727915396563627e-11 -1.6260868530315706e-09 -1.0
  outer loop
    vertex 695.7567533969057 152.18598506433318 378.99889315511626
    vertex 695.3567533991612 142.46350796561094 378.9988931709281
    vertex 695.3567533969058 152.18598506423726 378.99889315507727
  endloop
endfacet
facet normal 9.727915396563627e-11 -1.6260868530315706e-09 -1.0
  outer loop
    vertex 695.3567533991612 142.46350796561094 378.9988931709281
    vertex 695.7567533969057 152.18598506433318 378.99889315511626
    vertex 695.7567533969252 151.78598506433318 378.998893155808
  endloop
endfacet
facet normal 9.727915396563627e-11 -1.6260868530315706e-09 -1.0
  outer loop
    vertex 695.3567533991612 142.46350796561094 378.9988931709281
    vertex 695.7567533969252 151.78598506433318 378.998893155808
    vertex 695.7567533991611 142.4635079657069 378.9988931709671
  endloop
endfacet
endsolid Falla3d_ver2.1
