solid Falla3d_ver2.1
facet normal 2.8608971830986523e-18 0.9993026484466683 0.037339212732388966
  outer loop
    vertex 1647.1409436702306 53.58777582306015 78.212887867724
    vertex 1657.075086070232 54.43953582306039 55.41738786772404
    vertex 1643.845086070232 54.43953582306039 55.41738786772404
  endloop
endfacet
facet normal 2.8608971830986523e-18 0.9993026484466683 0.037339212732388966
  outer loop
    vertex 1657.075086070232 54.43953582306039 55.41738786772404
    vertex 1647.1409436702306 53.58777582306015 78.212887867724
    vertex 1653.779228470231 53.58777582306015 78.212887867724
  endloop
endfacet
facet normal 0.9897088476370012 -1.6206243031420077e-15 0.14309576132450236
  outer loop
    vertex 1657.075086070232 54.43953582306039 55.41738786772404
    vertex 1653.779228470231 38.911295823059966 78.21288786772384
    vertex 1657.075086070232 38.05953582306037 55.41738786772386
  endloop
endfacet
facet normal 0.9897088476370012 -1.6206243031420077e-15 0.14309576132450236
  outer loop
    vertex 1653.779228470231 38.911295823059966 78.21288786772384
    vertex 1657.075086070232 54.43953582306039 55.41738786772404
    vertex 1653.779228470231 53.58777582306015 78.212887867724
  endloop
endfacet
facet normal -0.9897088476370165 -1.6181181667869958e-15 0.14309576132439758
  outer loop
    vertex 1647.1409436702306 38.911295823059966 78.21288786772384
    vertex 1643.845086070232 54.43953582306039 55.41738786772404
    vertex 1643.845086070232 38.05953582306037 55.41738786772386
  endloop
endfacet
facet normal -0.9897088476370165 -1.6181181667869958e-15 0.14309576132439758
  outer loop
    vertex 1643.845086070232 54.43953582306039 55.41738786772404
    vertex 1647.1409436702306 38.911295823059966 78.21288786772384
    vertex 1647.1409436702306 53.58777582306015 78.212887867724
  endloop
endfacet
facet normal 2.8608971816245232e-18 -0.9993026484466692 0.03733921273236092
  outer loop
    vertex 1653.779228470231 38.911295823059966 78.21288786772384
    vertex 1643.845086070232 38.05953582306037 55.41738786772386
    vertex 1657.075086070232 38.05953582306037 55.41738786772386
  endloop
endfacet
facet normal 2.8608971816245232e-18 -0.9993026484466692 0.03733921273236092
  outer loop
    vertex 1643.845086070232 38.05953582306037 55.41738786772386
    vertex 1653.779228470231 38.911295823059966 78.21288786772384
    vertex 1647.1409436702306 38.911295823059966 78.21288786772384
  endloop
endfacet
facet normal -0.1802640350032036 -0.9836182581084818 -1.0738190061665465e-14
  outer loop
    vertex 1650.933279162115 52.26908006392884 82.71738786772399
    vertex 1650.4600860702315 52.29292794872568 78.62238786772399
    vertex 1650.933279162115 52.26908006392888 78.62238786772399
  endloop
endfacet
facet normal -0.05033390536539734 -0.9987324456383038 -1.0904462609996932e-14
  outer loop
    vertex 1650.4600860702315 52.29292794872568 78.62238786772399
    vertex 1650.933279162115 52.26908006392884 82.71738786772399
    vertex 1650.4600860702315 52.29292794872564 82.71738786772399
  endloop
endfacet
facet normal -0.4287008252696996 -0.9034465133105991 -9.862902321258713e-15
  outer loop
    vertex 1651.5854257365645 52.058629233834374 82.71738786772397
    vertex 1650.933279162115 52.26908006392888 78.62238786772399
    vertex 1651.5854257365645 52.058629233834424 78.62238786772399
  endloop
endfacet
facet normal -0.1802640350032036 -0.9836182581084818 -1.0738190061665465e-14
  outer loop
    vertex 1650.933279162115 52.26908006392888 78.62238786772399
    vertex 1651.5854257365645 52.058629233834374 82.71738786772397
    vertex 1650.933279162115 52.26908006392884 82.71738786772399
  endloop
endfacet
facet normal -0.6479223627557266 -0.7617063816465219 -8.31727510811163e-15
  outer loop
    vertex 1652.1608822724652 51.68656138821626 82.71738786772397
    vertex 1651.5854257365645 52.058629233834424 78.62238786772399
    vertex 1652.1608822724652 51.686561388216305 78.62238786772399
  endloop
endfacet
facet normal -0.4287008252696996 -0.9034465133105991 -9.862902321258713e-15
  outer loop
    vertex 1651.5854257365645 52.058629233834424 78.62238786772399
    vertex 1652.1608822724652 51.68656138821626 82.71738786772397
    vertex 1651.5854257365645 52.058629233834374 82.71738786772397
  endloop
endfacet
facet normal -0.6479223627557266 -0.7617063816465219 -8.31727510811163e-15
  outer loop
    vertex 1652.1608822724652 51.68656138821626 82.71738786772397
    vertex 1652.6204323578825 51.17823233588216 78.62238786772399
    vertex 1652.6204323578825 51.178232335882115 82.71738786772397
  endloop
endfacet
facet normal -0.8229890619622617 -0.5680572188525349 -6.203831945962681e-15
  outer loop
    vertex 1652.6204323578825 51.17823233588216 78.62238786772399
    vertex 1652.1608822724652 51.68656138821626 82.71738786772397
    vertex 1652.1608822724652 51.686561388216305 78.62238786772399
  endloop
endfacet
facet normal -0.8229890619622617 -0.5680572188525349 -6.203831945962681e-15
  outer loop
    vertex 1652.6204323578825 51.178232335882115 82.71738786772397
    vertex 1652.9327584139369 50.568283861695186 78.62238786772397
    vertex 1652.9327584139369 50.56828386169514 82.71738786772397
  endloop
endfacet
facet normal -0.9419704166497143 -0.3356958953528678 -3.66662047060951e-15
  outer loop
    vertex 1652.9327584139369 50.568283861695186 78.62238786772397
    vertex 1652.6204323578825 51.178232335882115 82.71738786772397
    vertex 1652.6204323578825 51.17823233588216 78.62238786772399
  endloop
endfacet
facet normal -0.9419704166497143 -0.3356958953528678 -3.66662047060951e-15
  outer loop
    vertex 1652.9327584139369 50.56828386169514 82.71738786772397
    vertex 1653.0765759360527 49.89828294618359 78.62238786772397
    vertex 1653.0765759360527 49.89828294618355 82.71738786772396
  endloop
endfacet
facet normal -0.9967580441222958 -0.08045745134849429 -8.788189766185598e-16
  outer loop
    vertex 1653.0765759360527 49.89828294618359 78.62238786772397
    vertex 1652.9327584139369 50.56828386169514 82.71738786772397
    vertex 1652.9327584139369 50.568283861695186 78.62238786772397
  endloop
endfacet
facet normal -0.9967580441222958 -0.08045745134849429 -8.788189766185598e-16
  outer loop
    vertex 1653.0765759360527 49.89828294618355 82.71738786772396
    vertex 1653.0420839977662 49.21388904451072 78.62238786772396
    vertex 1653.0420839977662 49.21388904451068 82.71738786772394
  endloop
endfacet
facet normal -0.9836182581084728 0.18026403500325244 1.9700157083285804e-15
  outer loop
    vertex 1653.0420839977662 49.21388904451072 78.62238786772396
    vertex 1653.0765759360527 49.89828294618355 82.71738786772396
    vertex 1653.0765759360527 49.89828294618359 78.62238786772397
  endloop
endfacet
facet normal -0.9836182581084728 0.18026403500325244 1.9700157083285804e-15
  outer loop
    vertex 1653.0420839977662 49.21388904451068 82.71738786772394
    vertex 1652.8316331676717 48.561742470061134 78.62238786772394
    vertex 1652.8316331676717 48.561742470061084 82.71738786772394
  endloop
endfacet
facet normal -0.9034465133105797 0.42870082526974024 4.6813150043073464e-15
  outer loop
    vertex 1652.8316331676717 48.561742470061134 78.62238786772394
    vertex 1653.0420839977662 49.21388904451068 82.71738786772394
    vertex 1653.0420839977662 49.21388904451072 78.62238786772396
  endloop
endfacet
facet normal -0.9034465133105797 0.42870082526974024 4.6813150043073464e-15
  outer loop
    vertex 1652.8316331676717 48.561742470061084 82.71738786772394
    vertex 1652.4595653220538 47.98628593416043 78.62238786772394
    vertex 1652.4595653220538 47.986285934160385 82.71738786772393
  endloop
endfacet
facet normal -0.7617063816465764 0.6479223627556622 7.0737891105713075e-15
  outer loop
    vertex 1652.4595653220538 47.98628593416043 78.62238786772394
    vertex 1652.8316331676717 48.561742470061084 82.71738786772394
    vertex 1652.8316331676717 48.561742470061134 78.62238786772394
  endloop
endfacet
facet normal -0.5680572188526083 0.822989061962211 8.985419689144451e-15
  outer loop
    vertex 1651.9512362697196 47.52673584874325 82.71738786772391
    vertex 1652.4595653220538 47.98628593416043 78.62238786772394
    vertex 1651.9512362697196 47.52673584874329 78.62238786772393
  endloop
endfacet
facet normal -0.7617063816465764 0.6479223627556622 7.0737891105713075e-15
  outer loop
    vertex 1652.4595653220538 47.98628593416043 78.62238786772394
    vertex 1651.9512362697196 47.52673584874325 82.71738786772391
    vertex 1652.4595653220538 47.986285934160385 82.71738786772393
  endloop
endfacet
facet normal -0.33569589535275457 0.9419704166497547 1.0283810980769141e-14
  outer loop
    vertex 1651.3412877955327 47.21440979268849 82.71738786772391
    vertex 1651.9512362697196 47.52673584874329 78.62238786772393
    vertex 1651.3412877955327 47.214409792688535 78.62238786772393
  endloop
endfacet
facet normal -0.5680572188526083 0.822989061962211 8.985419689144451e-15
  outer loop
    vertex 1651.9512362697196 47.52673584874329 78.62238786772393
    vertex 1651.3412877955327 47.21440979268849 82.71738786772391
    vertex 1651.9512362697196 47.52673584874325 82.71738786772391
  endloop
endfacet
facet normal -0.0804574513483833 0.9967580441223047 1.0882889602302637e-14
  outer loop
    vertex 1650.6712868800212 47.07059227057305 82.71738786772391
    vertex 1651.3412877955327 47.214409792688535 78.62238786772393
    vertex 1650.6712868800212 47.070592270573094 78.62238786772393
  endloop
endfacet
facet normal -0.33569589535275457 0.9419704166497547 1.0283810980769141e-14
  outer loop
    vertex 1651.3412877955327 47.214409792688535 78.62238786772393
    vertex 1650.6712868800212 47.07059227057305 82.71738786772391
    vertex 1651.3412877955327 47.21440979268849 82.71738786772391
  endloop
endfacet
facet normal 0.05033390536533844 0.9987324456383067 1.090443109122279e-14
  outer loop
    vertex 1650.4600860702315 47.08123632406251 82.71738786772391
    vertex 1650.6712868800212 47.070592270573094 78.62238786772393
    vertex 1650.4600860702315 47.08123632406255 78.62238786772393
  endloop
endfacet
facet normal -0.0804574513483833 0.9967580441223047 1.0882889602302637e-14
  outer loop
    vertex 1650.6712868800212 47.070592270573094 78.62238786772393
    vertex 1650.4600860702315 47.08123632406251 82.71738786772391
    vertex 1650.6712868800212 47.07059227057305 82.71738786772391
  endloop
endfacet
facet normal 0.18026403500320362 0.9836182581084818 1.073944134377173e-14
  outer loop
    vertex 1649.9868929783481 47.105084208859324 82.71738786772391
    vertex 1650.4600860702315 47.08123632406255 78.62238786772393
    vertex 1649.9868929783481 47.10508420885937 78.62238786772393
  endloop
endfacet
facet normal 0.05033390536539734 0.9987324456383038 1.0904462609996932e-14
  outer loop
    vertex 1650.4600860702315 47.08123632406255 78.62238786772393
    vertex 1649.9868929783481 47.105084208859324 82.71738786772391
    vertex 1650.4600860702315 47.08123632406251 82.71738786772391
  endloop
endfacet
facet normal 0.42870082526969966 0.9034465133105991 9.860732098845456e-15
  outer loop
    vertex 1649.3347464038984 47.31553503895378 82.71738786772391
    vertex 1649.9868929783481 47.10508420885937 78.62238786772393
    vertex 1649.3347464038984 47.315535038953826 78.62238786772393
  endloop
endfacet
facet normal 0.18026403500320362 0.9836182581084818 1.073944134377173e-14
  outer loop
    vertex 1649.9868929783481 47.10508420885937 78.62238786772393
    vertex 1649.3347464038984 47.31553503895378 82.71738786772391
    vertex 1649.9868929783481 47.105084208859324 82.71738786772391
  endloop
endfacet
facet normal 0.6479223627557266 0.7617063816465219 8.31385360359211e-15
  outer loop
    vertex 1648.759289867998 47.68760288457189 82.71738786772391
    vertex 1649.3347464038984 47.315535038953826 78.62238786772393
    vertex 1648.759289867998 47.68760288457194 78.62238786772393
  endloop
endfacet
facet normal 0.42870082526969966 0.9034465133105991 9.860732098845456e-15
  outer loop
    vertex 1649.3347464038984 47.315535038953826 78.62238786772393
    vertex 1648.759289867998 47.68760288457189 82.71738786772391
    vertex 1649.3347464038984 47.31553503895378 82.71738786772391
  endloop
endfacet
facet normal 0.8229890619622617 0.5680572188525349 6.203367694995975e-15
  outer loop
    vertex 1648.2997397825807 48.19593193690609 78.62238786772394
    vertex 1648.759289867998 47.68760288457189 82.71738786772391
    vertex 1648.759289867998 47.68760288457194 78.62238786772393
  endloop
endfacet
facet normal 0.6479223627557266 0.7617063816465219 8.31385360359211e-15
  outer loop
    vertex 1648.759289867998 47.68760288457189 82.71738786772391
    vertex 1648.2997397825807 48.19593193690609 78.62238786772394
    vertex 1648.2997397825807 48.19593193690604 82.71738786772393
  endloop
endfacet
facet normal 0.9419704166497143 0.3356958953528678 3.66544449000731e-15
  outer loop
    vertex 1647.987413726526 48.805880411093064 78.62238786772396
    vertex 1648.2997397825807 48.19593193690604 82.71738786772393
    vertex 1648.2997397825807 48.19593193690609 78.62238786772394
  endloop
endfacet
facet normal 0.8229890619622617 0.5680572188525349 6.203367694995975e-15
  outer loop
    vertex 1648.2997397825807 48.19593193690604 82.71738786772393
    vertex 1647.987413726526 48.805880411093064 78.62238786772396
    vertex 1647.987413726526 48.805880411093014 82.71738786772394
  endloop
endfacet
facet normal 0.9967580441222958 0.08045745134849433 8.781974750904521e-16
  outer loop
    vertex 1647.8435962044102 49.47588132660465 78.62238786772396
    vertex 1647.987413726526 48.805880411093014 82.71738786772394
    vertex 1647.987413726526 48.805880411093064 78.62238786772396
  endloop
endfacet
facet normal 0.9419704166497143 0.3356958953528678 3.66544449000731e-15
  outer loop
    vertex 1647.987413726526 48.805880411093014 82.71738786772394
    vertex 1647.8435962044102 49.47588132660465 78.62238786772396
    vertex 1647.8435962044102 49.47588132660461 82.71738786772394
  endloop
endfacet
facet normal 0.9836182581084728 -0.18026403500325244 -1.9664535454686413e-15
  outer loop
    vertex 1647.8780881426967 50.16027522827752 78.62238786772397
    vertex 1647.8435962044102 49.47588132660461 82.71738786772394
    vertex 1647.8435962044102 49.47588132660465 78.62238786772396
  endloop
endfacet
facet normal 0.9967580441222958 0.08045745134849433 8.781974750904521e-16
  outer loop
    vertex 1647.8435962044102 49.47588132660461 82.71738786772394
    vertex 1647.8780881426967 50.16027522827752 78.62238786772397
    vertex 1647.8780881426967 50.16027522827748 82.71738786772396
  endloop
endfacet
facet normal 0.9034465133105797 -0.42870082526974024 -4.680055281487287e-15
  outer loop
    vertex 1648.0885389727914 50.812421802727116 78.62238786772399
    vertex 1647.8780881426967 50.16027522827748 82.71738786772396
    vertex 1647.8780881426967 50.16027522827752 78.62238786772397
  endloop
endfacet
facet normal 0.9836182581084728 -0.18026403500325244 -1.9664535454686413e-15
  outer loop
    vertex 1647.8780881426967 50.16027522827748 82.71738786772396
    vertex 1648.0885389727914 50.812421802727116 78.62238786772399
    vertex 1648.0885389727914 50.81242180272707 82.71738786772397
  endloop
endfacet
facet normal 0.7617063816465764 -0.6479223627556622 -7.07531823325374e-15
  outer loop
    vertex 1648.4606068184091 51.38787833862781 78.62238786772399
    vertex 1648.0885389727914 50.81242180272707 82.71738786772397
    vertex 1648.0885389727914 50.812421802727116 78.62238786772399
  endloop
endfacet
facet normal 0.9034465133105797 -0.42870082526974024 -4.680055281487287e-15
  outer loop
    vertex 1648.0885389727914 50.81242180272707 82.71738786772397
    vertex 1648.4606068184091 51.38787833862781 78.62238786772399
    vertex 1648.4606068184091 51.387878338627765 82.71738786772397
  endloop
endfacet
facet normal 0.5680572188526083 -0.822989061962211 -8.984736599894391e-15
  outer loop
    vertex 1648.9689358707435 51.84742842404491 82.71738786772397
    vertex 1648.4606068184091 51.38787833862781 78.62238786772399
    vertex 1648.9689358707435 51.84742842404495 78.62238786772399
  endloop
endfacet
facet normal 0.7617063816465764 -0.6479223627556622 -7.07531823325374e-15
  outer loop
    vertex 1648.4606068184091 51.38787833862781 78.62238786772399
    vertex 1648.9689358707435 51.84742842404491 82.71738786772397
    vertex 1648.4606068184091 51.387878338627765 82.71738786772397
  endloop
endfacet
facet normal 0.3356958953527545 -0.9419704166497548 -1.0283810980769141e-14
  outer loop
    vertex 1649.5788843449304 52.159754480099664 82.71738786772397
    vertex 1648.9689358707435 51.84742842404495 78.62238786772399
    vertex 1649.5788843449304 52.159754480099714 78.62238786772399
  endloop
endfacet
facet normal 0.5680572188526083 -0.822989061962211 -8.984736599894391e-15
  outer loop
    vertex 1648.9689358707435 51.84742842404495 78.62238786772399
    vertex 1649.5788843449304 52.159754480099664 82.71738786772397
    vertex 1648.9689358707435 51.84742842404491 82.71738786772397
  endloop
endfacet
facet normal 0.0804574513483833 -0.9967580441223047 -1.0882905497676851e-14
  outer loop
    vertex 1650.248885260442 52.3035720022151 82.71738786772399
    vertex 1649.5788843449304 52.159754480099714 78.62238786772399
    vertex 1650.248885260442 52.30357200221514 78.62238786772399
  endloop
endfacet
facet normal 0.3356958953527545 -0.9419704166497548 -1.0283810980769141e-14
  outer loop
    vertex 1649.5788843449304 52.159754480099714 78.62238786772399
    vertex 1650.248885260442 52.3035720022151 82.71738786772399
    vertex 1649.5788843449304 52.159754480099664 82.71738786772397
  endloop
endfacet
facet normal -0.050333905365338445 -0.9987324456383067 -1.0904462609996964e-14
  outer loop
    vertex 1650.4600860702315 52.29292794872564 82.71738786772399
    vertex 1650.248885260442 52.30357200221514 78.62238786772399
    vertex 1650.4600860702315 52.29292794872568 78.62238786772399
  endloop
endfacet
facet normal 0.0804574513483833 -0.9967580441223047 -1.0882905497676851e-14
  outer loop
    vertex 1650.248885260442 52.30357200221514 78.62238786772399
    vertex 1650.4600860702315 52.29292794872564 82.71738786772399
    vertex 1650.248885260442 52.3035720022151 82.71738786772399
  endloop
endfacet
facet normal -0.043045534026595944 -0.9990731114389804 -1.0908466335126153e-14
  outer loop
    vertex 1650.573080597051 45.43455642725335 82.7173878677239
    vertex 1650.4600860702315 45.424605283785084 78.6223878677239
    vertex 1650.573080597051 45.43455642725339 78.6223878677239
  endloop
endfacet
facet normal 0.087727935469661 -0.9961444721215046 -1.087612488215792e-14
  outer loop
    vertex 1650.4600860702315 45.424605283785084 78.6223878677239
    vertex 1650.573080597051 45.43455642725335 82.7173878677239
    vertex 1650.4600860702315 45.424605283785034 82.7173878677239
  endloop
endfacet
facet normal -0.3001579417128613 -0.9538895166772191 -1.0413857675172884e-14
  outer loop
    vertex 1651.2480006672276 45.31594949100376 82.7173878677239
    vertex 1650.573080597051 45.43455642725339 78.6223878677239
    vertex 1651.2480006672276 45.3159494910038 78.62238786772389
  endloop
endfacet
facet normal -0.043045534026595944 -0.9990731114389804 -1.0908466335126153e-14
  outer loop
    vertex 1650.573080597051 45.43455642725339 78.6223878677239
    vertex 1651.2480006672276 45.31594949100376 82.7173878677239
    vertex 1650.573080597051 45.43455642725335 82.7173878677239
  endloop
endfacet
facet normal -0.5368150817059537 -0.8436999277308433 -9.211229804236657e-15
  outer loop
    vertex 1651.8692256597094 45.026701820019554 82.7173878677239
    vertex 1651.2480006672276 45.3159494910038 78.62238786772389
    vertex 1651.8692256597094 45.026701820019596 78.62238786772389
  endloop
endfacet
facet normal -0.3001579417128613 -0.9538895166772191 -1.0413857675172884e-14
  outer loop
    vertex 1651.2480006672276 45.3159494910038 78.62238786772389
    vertex 1651.8692256597094 45.026701820019554 82.7173878677239
    vertex 1651.2480006672276 45.31594949100376 82.7173878677239
  endloop
endfacet
facet normal -0.736889161009594 -0.6760135829897036 -7.381701222653273e-15
  outer loop
    vertex 1652.3944201178815 44.58652516507399 82.7173878677239
    vertex 1651.8692256597094 45.026701820019596 78.62238786772389
    vertex 1652.3944201178815 44.58652516507403 78.62238786772389
  endloop
endfacet
facet normal -0.5368150817059537 -0.8436999277308433 -9.211229804236657e-15
  outer loop
    vertex 1651.8692256597094 45.026701820019596 78.62238786772389
    vertex 1652.3944201178815 44.58652516507399 82.7173878677239
    vertex 1651.8692256597094 45.026701820019554 82.7173878677239
  endloop
endfacet
facet normal -0.736889161009594 -0.6760135829897036 -7.381701222653273e-15
  outer loop
    vertex 1652.3944201178815 44.58652516507399 82.7173878677239
    vertex 1652.7877929073445 44.02541683777535 78.62238786772387
    vertex 1652.7877929073445 44.02541683777531 82.71738786772389
  endloop
endfacet
facet normal -0.88674546175736 -0.46225802973309876 -5.045547568287048e-15
  outer loop
    vertex 1652.7877929073445 44.02541683777535 78.62238786772387
    vertex 1652.3944201178815 44.58652516507399 82.7173878677239
    vertex 1652.3944201178815 44.58652516507403 78.62238786772389
  endloop
endfacet
facet normal -0.88674546175736 -0.46225802973309876 -5.045547568287048e-15
  outer loop
    vertex 1652.7877929073445 44.02541683777531 82.71738786772389
    vertex 1653.0225363225757 43.381615443353596 78.62238786772387
    vertex 1653.0225363225757 43.38161544335355 82.71738786772387
  endloop
endfacet
facet normal -0.976171524702544 -0.21700035566770545 -2.3677876521028628e-15
  outer loop
    vertex 1653.0225363225757 43.381615443353596 78.62238786772387
    vertex 1652.7877929073445 44.02541683777531 82.71738786772389
    vertex 1652.7877929073445 44.02541683777535 78.62238786772387
  endloop
endfacet
facet normal -0.976171524702544 -0.21700035566770545 -2.3677876521028628e-15
  outer loop
    vertex 1653.0225363225757 43.38161544335355 82.71738786772387
    vertex 1653.082652987759 42.69899498290646 78.62238786772387
    vertex 1653.082652987759 42.69899498290642 82.71738786772387
  endloop
endfacet
facet normal -0.9990731114389836 0.04304553402652089 4.696958670967013e-16
  outer loop
    vertex 1653.082652987759 42.69899498290646 78.62238786772387
    vertex 1653.0225363225757 43.38161544335355 82.71738786772387
    vertex 1653.0225363225757 43.381615443353596 78.62238786772387
  endloop
endfacet
facet normal -0.9990731114389836 0.04304553402652089 4.696958670967013e-16
  outer loop
    vertex 1653.082652987759 42.69899498290642 82.71738786772387
    vertex 1652.964046051509 42.02407491272984 78.62238786772386
    vertex 1652.964046051509 42.024074912729795 82.71738786772386
  endloop
endfacet
facet normal -0.9538895166772131 0.30015794171288 3.277425999236763e-15
  outer loop
    vertex 1652.964046051509 42.02407491272984 78.62238786772386
    vertex 1653.082652987759 42.69899498290642 82.71738786772387
    vertex 1653.082652987759 42.69899498290646 78.62238786772387
  endloop
endfacet
facet normal -0.9538895166772131 0.30015794171288 3.277425999236763e-15
  outer loop
    vertex 1652.964046051509 42.024074912729795 82.71738786772386
    vertex 1652.674798380525 41.402849920248045 78.62238786772384
    vertex 1652.674798380525 41.402849920247995 82.71738786772386
  endloop
endfacet
facet normal -0.8436999277308759 0.5368150817059026 5.862351630478599e-15
  outer loop
    vertex 1652.674798380525 41.402849920248045 78.62238786772384
    vertex 1652.964046051509 42.024074912729795 82.71738786772386
    vertex 1652.964046051509 42.02407491272984 78.62238786772386
  endloop
endfacet
facet normal -0.8436999277308759 0.5368150817059026 5.862351630478599e-15
  outer loop
    vertex 1652.674798380525 41.402849920247995 82.71738786772386
    vertex 1652.2346217255797 40.87765546207588 78.62238786772384
    vertex 1652.2346217255797 40.877655462075836 82.71738786772386
  endloop
endfacet
facet normal -0.6760135829896887 0.7368891610096076 8.046359177122663e-15
  outer loop
    vertex 1652.2346217255797 40.87765546207588 78.62238786772384
    vertex 1652.674798380525 41.402849920247995 82.71738786772386
    vertex 1652.674798380525 41.402849920248045 78.62238786772384
  endloop
endfacet
facet normal -0.46225802973307345 0.8867454617573732 9.681625329708778e-15
  outer loop
    vertex 1651.6735133982806 40.4842826726129 82.71738786772386
    vertex 1652.2346217255797 40.87765546207588 78.62238786772384
    vertex 1651.6735133982806 40.48428267261295 78.62238786772384
  endloop
endfacet
facet normal -0.6760135829896887 0.7368891610096076 8.046359177122663e-15
  outer loop
    vertex 1652.2346217255797 40.87765546207588 78.62238786772384
    vertex 1651.6735133982806 40.4842826726129 82.71738786772386
    vertex 1652.2346217255797 40.877655462075836 82.71738786772386
  endloop
endfacet
facet normal -0.21700035566764986 0.9761715247025563 1.0658006105164358e-14
  outer loop
    vertex 1651.029712003859 40.24953925738179 82.71738786772384
    vertex 1651.6735133982806 40.48428267261295 78.62238786772384
    vertex 1651.029712003859 40.24953925738184 78.62238786772384
  endloop
endfacet
facet normal -0.46225802973307345 0.8867454617573732 9.681625329708778e-15
  outer loop
    vertex 1651.6735133982806 40.48428267261295 78.62238786772384
    vertex 1651.029712003859 40.24953925738179 82.71738786772384
    vertex 1651.6735133982806 40.4842826726129 82.71738786772386
  endloop
endfacet
facet normal -0.08772793546987437 0.9961444721214858 1.0876206333180193e-14
  outer loop
    vertex 1650.4600860702315 40.19937373566703 82.71738786772384
    vertex 1651.029712003859 40.24953925738184 78.62238786772384
    vertex 1650.4600860702315 40.19937373566708 78.62238786772384
  endloop
endfacet
facet normal -0.21700035566764986 0.9761715247025563 1.0658006105164358e-14
  outer loop
    vertex 1651.029712003859 40.24953925738184 78.62238786772384
    vertex 1650.4600860702315 40.19937373566703 82.71738786772384
    vertex 1651.029712003859 40.24953925738179 82.71738786772384
  endloop
endfacet
facet normal 0.04304553402659595 0.9990731114389804 1.090780922967095e-14
  outer loop
    vertex 1650.3470915434118 40.18942259219872 82.71738786772384
    vertex 1650.4600860702315 40.19937373566708 78.62238786772384
    vertex 1650.3470915434118 40.18942259219876 78.62238786772384
  endloop
endfacet
facet normal -0.087727935469661 0.9961444721215046 1.0876112021877668e-14
  outer loop
    vertex 1650.4600860702315 40.19937373566708 78.62238786772384
    vertex 1650.3470915434118 40.18942259219872 82.71738786772384
    vertex 1650.4600860702315 40.19937373566703 82.71738786772384
  endloop
endfacet
facet normal 0.30015794171286136 0.9538895166772191 1.0415388545429974e-14
  outer loop
    vertex 1649.6721714732353 40.308029528448316 82.71738786772386
    vertex 1650.3470915434118 40.18942259219876 78.62238786772384
    vertex 1649.6721714732353 40.308029528448365 78.62238786772384
  endloop
endfacet
facet normal 0.04304553402659595 0.9990731114389804 1.090780922967095e-14
  outer loop
    vertex 1650.3470915434118 40.18942259219876 78.62238786772384
    vertex 1649.6721714732353 40.308029528448316 82.71738786772386
    vertex 1650.3470915434118 40.18942259219872 82.71738786772384
  endloop
endfacet
facet normal 0.5368150817059536 0.8436999277308433 9.214065586315994e-15
  outer loop
    vertex 1649.0509464807535 40.59727719943252 82.71738786772386
    vertex 1649.6721714732353 40.308029528448365 78.62238786772384
    vertex 1649.0509464807535 40.59727719943256 78.62238786772384
  endloop
endfacet
facet normal 0.30015794171286136 0.9538895166772191 1.0415388545429974e-14
  outer loop
    vertex 1649.6721714732353 40.308029528448365 78.62238786772384
    vertex 1649.0509464807535 40.59727719943252 82.71738786772386
    vertex 1649.6721714732353 40.308029528448316 82.71738786772386
  endloop
endfacet
facet normal 0.736889161009594 0.6760135829897036 7.382355514646064e-15
  outer loop
    vertex 1648.5257520225814 41.03745385437808 82.71738786772386
    vertex 1649.0509464807535 40.59727719943256 78.62238786772384
    vertex 1648.5257520225814 41.03745385437812 78.62238786772384
  endloop
endfacet
facet normal 0.5368150817059536 0.8436999277308433 9.214065586315994e-15
  outer loop
    vertex 1649.0509464807535 40.59727719943256 78.62238786772384
    vertex 1648.5257520225814 41.03745385437808 82.71738786772386
    vertex 1649.0509464807535 40.59727719943252 82.71738786772386
  endloop
endfacet
facet normal 0.88674546175736 0.46225802973309876 5.0475513235935276e-15
  outer loop
    vertex 1648.1323792331186 41.598562181676805 78.62238786772386
    vertex 1648.5257520225814 41.03745385437808 82.71738786772386
    vertex 1648.5257520225814 41.03745385437812 78.62238786772384
  endloop
endfacet
facet normal 0.736889161009594 0.6760135829897036 7.382355514646064e-15
  outer loop
    vertex 1648.5257520225814 41.03745385437808 82.71738786772386
    vertex 1648.1323792331186 41.598562181676805 78.62238786772386
    vertex 1648.1323792331186 41.59856218167676 82.71738786772386
  endloop
endfacet
facet normal 0.976171524702544 0.21700035566770545 2.369716458932e-15
  outer loop
    vertex 1647.8976358178872 42.242363576098555 78.62238786772387
    vertex 1648.1323792331186 41.59856218167676 82.71738786772386
    vertex 1648.1323792331186 41.598562181676805 78.62238786772386
  endloop
endfacet
facet normal 0.88674546175736 0.46225802973309876 5.0475513235935276e-15
  outer loop
    vertex 1648.1323792331186 41.59856218167676 82.71738786772386
    vertex 1647.8976358178872 42.242363576098555 78.62238786772387
    vertex 1647.8976358178872 42.24236357609851 82.71738786772386
  endloop
endfacet
facet normal 0.9990731114389836 -0.04304553402652089 -4.702724264527389e-16
  outer loop
    vertex 1647.837519152704 42.924984036545695 78.62238786772387
    vertex 1647.8976358178872 42.24236357609851 82.71738786772386
    vertex 1647.8976358178872 42.242363576098555 78.62238786772387
  endloop
endfacet
facet normal 0.976171524702544 0.21700035566770545 2.369716458932e-15
  outer loop
    vertex 1647.8976358178872 42.24236357609851 82.71738786772386
    vertex 1647.837519152704 42.924984036545695 78.62238786772387
    vertex 1647.837519152704 42.92498403654565 82.71738786772387
  endloop
endfacet
facet normal 0.9538895166772131 -0.30015794171288 -3.278389313994836e-15
  outer loop
    vertex 1647.9561260889539 43.59990410672232 78.62238786772387
    vertex 1647.837519152704 42.92498403654565 82.71738786772387
    vertex 1647.837519152704 42.924984036545695 78.62238786772387
  endloop
endfacet
facet normal 0.9990731114389836 -0.04304553402652089 -4.702724264527389e-16
  outer loop
    vertex 1647.837519152704 42.92498403654565 82.71738786772387
    vertex 1647.9561260889539 43.59990410672232 78.62238786772387
    vertex 1647.9561260889539 43.59990410672228 82.71738786772387
  endloop
endfacet
facet normal 0.8436999277308759 -0.5368150817059026 -5.861252004265706e-15
  outer loop
    vertex 1648.2453737599378 44.22112909920412 78.62238786772389
    vertex 1647.9561260889539 43.59990410672228 82.71738786772387
    vertex 1647.9561260889539 43.59990410672232 78.62238786772387
  endloop
endfacet
facet normal 0.9538895166772131 -0.30015794171288 -3.278389313994836e-15
  outer loop
    vertex 1647.9561260889539 43.59990410672228 82.71738786772387
    vertex 1648.2453737599378 44.22112909920412 78.62238786772389
    vertex 1648.2453737599378 44.22112909920407 82.71738786772389
  endloop
endfacet
facet normal 0.6760135829896886 -0.7368891610096074 -8.045382568331499e-15
  outer loop
    vertex 1648.6855504148834 44.74632355737628 78.62238786772389
    vertex 1648.2453737599378 44.22112909920407 82.71738786772389
    vertex 1648.2453737599378 44.22112909920412 78.62238786772389
  endloop
endfacet
facet normal 0.8436999277308759 -0.5368150817059026 -5.861252004265706e-15
  outer loop
    vertex 1648.2453737599378 44.22112909920407 82.71738786772389
    vertex 1648.6855504148834 44.74632355737628 78.62238786772389
    vertex 1648.6855504148834 44.746323557376236 82.7173878677239
  endloop
endfacet
facet normal 0.4622580297330734 -0.8867454617573732 -9.682469157489168e-15
  outer loop
    vertex 1649.2466587421823 45.139696346839166 82.7173878677239
    vertex 1648.6855504148834 44.74632355737628 78.62238786772389
    vertex 1649.2466587421823 45.139696346839216 78.62238786772389
  endloop
endfacet
facet normal 0.6760135829896886 -0.7368891610096074 -8.045382568331499e-15
  outer loop
    vertex 1648.6855504148834 44.74632355737628 78.62238786772389
    vertex 1649.2466587421823 45.139696346839166 82.7173878677239
    vertex 1648.6855504148834 44.746323557376236 82.7173878677239
  endloop
endfacet
facet normal 0.21700035566764986 -0.9761715247025563 -1.065839204512541e-14
  outer loop
    vertex 1649.8904601366041 45.37443976207028 82.7173878677239
    vertex 1649.2466587421823 45.139696346839216 78.62238786772389
    vertex 1649.8904601366041 45.374439762070324 78.62238786772389
  endloop
endfacet
facet normal 0.4622580297330734 -0.8867454617573732 -9.682469157489168e-15
  outer loop
    vertex 1649.2466587421823 45.139696346839216 78.62238786772389
    vertex 1649.8904601366041 45.37443976207028 82.7173878677239
    vertex 1649.2466587421823 45.139696346839166 82.7173878677239
  endloop
endfacet
facet normal 0.08772793546987435 -0.9961444721214858 -1.087645782998731e-14
  outer loop
    vertex 1650.4600860702315 45.424605283785034 82.7173878677239
    vertex 1649.8904601366041 45.374439762070324 78.62238786772389
    vertex 1650.4600860702315 45.424605283785084 78.6223878677239
  endloop
endfacet
facet normal 0.21700035566764986 -0.9761715247025563 -1.065839204512541e-14
  outer loop
    vertex 1649.8904601366041 45.374439762070324 78.62238786772389
    vertex 1650.4600860702315 45.424605283785034 82.7173878677239
    vertex 1649.8904601366041 45.37443976207028 82.7173878677239
  endloop
endfacet
facet normal 0.0 -1.1359544635657286e-14 1.0
  outer loop
    vertex 1647.9561260889539 43.59990410672228 82.71738786772387
    vertex 1647.8435962044102 49.47588132660461 82.71738786772394
    vertex 1647.837519152704 42.92498403654565 82.71738786772387
  endloop
endfacet
facet normal 0.0 -1.1359544635657286e-14 1.0
  outer loop
    vertex 1647.8435962044102 49.47588132660461 82.71738786772394
    vertex 1647.9561260889539 43.59990410672228 82.71738786772387
    vertex 1647.987413726526 48.805880411093014 82.71738786772394
  endloop
endfacet
facet normal 0.0 -1.1359544635657286e-14 1.0
  outer loop
    vertex 1647.987413726526 48.805880411093014 82.71738786772394
    vertex 1647.9561260889539 43.59990410672228 82.71738786772387
    vertex 1648.2453737599378 44.22112909920407 82.71738786772389
  endloop
endfacet
facet normal 0.0 -1.1359544635657286e-14 1.0
  outer loop
    vertex 1647.987413726526 48.805880411093014 82.71738786772394
    vertex 1648.2453737599378 44.22112909920407 82.71738786772389
    vertex 1648.2997397825807 48.19593193690604 82.71738786772393
  endloop
endfacet
facet normal 0.0 -1.1359544635657286e-14 1.0
  outer loop
    vertex 1648.2997397825807 48.19593193690604 82.71738786772393
    vertex 1648.2453737599378 44.22112909920407 82.71738786772389
    vertex 1648.6855504148834 44.746323557376236 82.7173878677239
  endloop
endfacet
facet normal 0.0 -1.1359544635657286e-14 1.0
  outer loop
    vertex 1648.2997397825807 48.19593193690604 82.71738786772393
    vertex 1648.6855504148834 44.746323557376236 82.7173878677239
    vertex 1648.759289867998 47.68760288457189 82.71738786772391
  endloop
endfacet
facet normal 0.0 -1.1359544635657286e-14 1.0
  outer loop
    vertex 1648.759289867998 47.68760288457189 82.71738786772391
    vertex 1648.6855504148834 44.746323557376236 82.7173878677239
    vertex 1649.2466587421823 45.139696346839166 82.7173878677239
  endloop
endfacet
facet normal 0.0 -1.1359544635657286e-14 1.0
  outer loop
    vertex 1648.759289867998 47.68760288457189 82.71738786772391
    vertex 1649.2466587421823 45.139696346839166 82.7173878677239
    vertex 1649.3347464038984 47.31553503895378 82.71738786772391
  endloop
endfacet
facet normal 0.0 -1.1359544635657286e-14 1.0
  outer loop
    vertex 1649.3347464038984 47.31553503895378 82.71738786772391
    vertex 1649.2466587421823 45.139696346839166 82.7173878677239
    vertex 1649.8904601366041 45.37443976207028 82.7173878677239
  endloop
endfacet
facet normal 0.0 -1.1359544635657286e-14 1.0
  outer loop
    vertex 1649.3347464038984 47.31553503895378 82.71738786772391
    vertex 1649.8904601366041 45.37443976207028 82.7173878677239
    vertex 1649.9868929783481 47.105084208859324 82.71738786772391
  endloop
endfacet
facet normal 0.0 -1.1359544635657286e-14 1.0
  outer loop
    vertex 1649.9868929783481 47.105084208859324 82.71738786772391
    vertex 1649.8904601366041 45.37443976207028 82.7173878677239
    vertex 1650.4600860702315 45.424605283785034 82.7173878677239
  endloop
endfacet
facet normal 0.0 -1.1359544635657286e-14 1.0
  outer loop
    vertex 1649.9868929783481 47.105084208859324 82.71738786772391
    vertex 1650.4600860702315 45.424605283785034 82.7173878677239
    vertex 1650.4600860702315 47.08123632406251 82.71738786772391
  endloop
endfacet
facet normal 0.0 -1.1359544635657286e-14 1.0
  outer loop
    vertex 1650.4600860702315 47.08123632406251 82.71738786772391
    vertex 1650.4600860702315 45.424605283785034 82.7173878677239
    vertex 1650.573080597051 45.43455642725335 82.7173878677239
  endloop
endfacet
facet normal 0.0 -1.1359544635657286e-14 1.0
  outer loop
    vertex 1650.4600860702315 47.08123632406251 82.71738786772391
    vertex 1650.573080597051 45.43455642725335 82.7173878677239
    vertex 1650.6712868800212 47.07059227057305 82.71738786772391
  endloop
endfacet
facet normal 0.0 -1.1359544635657286e-14 1.0
  outer loop
    vertex 1650.6712868800212 47.07059227057305 82.71738786772391
    vertex 1650.573080597051 45.43455642725335 82.7173878677239
    vertex 1651.2480006672276 45.31594949100376 82.7173878677239
  endloop
endfacet
facet normal 0.0 -1.1359544635657286e-14 1.0
  outer loop
    vertex 1650.6712868800212 47.07059227057305 82.71738786772391
    vertex 1651.2480006672276 45.31594949100376 82.7173878677239
    vertex 1651.3412877955327 47.21440979268849 82.71738786772391
  endloop
endfacet
facet normal 0.0 -1.1359544635657286e-14 1.0
  outer loop
    vertex 1651.3412877955327 47.21440979268849 82.71738786772391
    vertex 1651.2480006672276 45.31594949100376 82.7173878677239
    vertex 1651.8692256597094 45.026701820019554 82.7173878677239
  endloop
endfacet
facet normal 0.0 -1.1359544635657286e-14 1.0
  outer loop
    vertex 1651.3412877955327 47.21440979268849 82.71738786772391
    vertex 1651.8692256597094 45.026701820019554 82.7173878677239
    vertex 1651.9512362697196 47.52673584874325 82.71738786772391
  endloop
endfacet
facet normal 0.0 -1.1359544635657286e-14 1.0
  outer loop
    vertex 1651.9512362697196 47.52673584874325 82.71738786772391
    vertex 1651.8692256597094 45.026701820019554 82.7173878677239
    vertex 1652.3944201178815 44.58652516507399 82.7173878677239
  endloop
endfacet
facet normal 0.0 -1.1359544635657286e-14 1.0
  outer loop
    vertex 1651.9512362697196 47.52673584874325 82.71738786772391
    vertex 1652.3944201178815 44.58652516507399 82.7173878677239
    vertex 1652.4595653220538 47.986285934160385 82.71738786772393
  endloop
endfacet
facet normal 0.0 -1.1359544635657286e-14 1.0
  outer loop
    vertex 1652.4595653220538 47.986285934160385 82.71738786772393
    vertex 1652.3944201178815 44.58652516507399 82.7173878677239
    vertex 1652.7877929073445 44.02541683777531 82.71738786772389
  endloop
endfacet
facet normal 0.0 -1.1359544635657286e-14 1.0
  outer loop
    vertex 1652.4595653220538 47.986285934160385 82.71738786772393
    vertex 1652.7877929073445 44.02541683777531 82.71738786772389
    vertex 1652.8316331676717 48.561742470061084 82.71738786772394
  endloop
endfacet
facet normal 0.0 -1.1359544635657286e-14 1.0
  outer loop
    vertex 1652.8316331676717 48.561742470061084 82.71738786772394
    vertex 1652.7877929073445 44.02541683777531 82.71738786772389
    vertex 1653.0225363225757 43.38161544335355 82.71738786772387
  endloop
endfacet
facet normal 0.0 -1.1359544635657286e-14 1.0
  outer loop
    vertex 1652.8316331676717 48.561742470061084 82.71738786772394
    vertex 1653.0225363225757 43.38161544335355 82.71738786772387
    vertex 1653.0420839977662 49.21388904451068 82.71738786772394
  endloop
endfacet
facet normal 0.0 -1.1359544635657286e-14 1.0
  outer loop
    vertex 1653.0420839977662 49.21388904451068 82.71738786772394
    vertex 1653.0225363225757 43.38161544335355 82.71738786772387
    vertex 1653.082652987759 42.69899498290642 82.71738786772387
  endloop
endfacet
facet normal 0.0 -1.1359544635657286e-14 1.0
  outer loop
    vertex 1653.0420839977662 49.21388904451068 82.71738786772394
    vertex 1653.082652987759 42.69899498290642 82.71738786772387
    vertex 1653.0765759360527 49.89828294618355 82.71738786772396
  endloop
endfacet
facet normal 0.0 -1.1359544635657286e-14 1.0
  outer loop
    vertex 1647.1409436702306 38.911295823059916 82.71738786772383
    vertex 1647.837519152704 42.92498403654565 82.71738786772387
    vertex 1647.1409436702306 53.5877758230601 82.71738786772399
  endloop
endfacet
facet normal 0.0 -1.1359544635657286e-14 1.0
  outer loop
    vertex 1647.837519152704 42.92498403654565 82.71738786772387
    vertex 1647.1409436702306 38.911295823059916 82.71738786772383
    vertex 1647.8976358178872 42.24236357609851 82.71738786772386
  endloop
endfacet
facet normal 0.0 -1.1359544635657286e-14 1.0
  outer loop
    vertex 1647.8976358178872 42.24236357609851 82.71738786772386
    vertex 1647.1409436702306 38.911295823059916 82.71738786772383
    vertex 1648.1323792331186 41.59856218167676 82.71738786772386
  endloop
endfacet
facet normal 0.0 -1.1359544635657286e-14 1.0
  outer loop
    vertex 1648.1323792331186 41.59856218167676 82.71738786772386
    vertex 1647.1409436702306 38.911295823059916 82.71738786772383
    vertex 1648.5257520225814 41.03745385437808 82.71738786772386
  endloop
endfacet
facet normal 0.0 -1.1359544635657286e-14 1.0
  outer loop
    vertex 1648.5257520225814 41.03745385437808 82.71738786772386
    vertex 1647.1409436702306 38.911295823059916 82.71738786772383
    vertex 1649.0509464807535 40.59727719943252 82.71738786772386
  endloop
endfacet
facet normal 0.0 -1.1359544635657286e-14 1.0
  outer loop
    vertex 1649.0509464807535 40.59727719943252 82.71738786772386
    vertex 1647.1409436702306 38.911295823059916 82.71738786772383
    vertex 1649.6721714732353 40.308029528448316 82.71738786772386
  endloop
endfacet
facet normal 0.0 -1.1359544635657286e-14 1.0
  outer loop
    vertex 1649.6721714732353 40.308029528448316 82.71738786772386
    vertex 1647.1409436702306 38.911295823059916 82.71738786772383
    vertex 1653.779228470231 38.911295823059916 82.71738786772383
  endloop
endfacet
facet normal 0.0 -1.1359544635657286e-14 1.0
  outer loop
    vertex 1649.6721714732353 40.308029528448316 82.71738786772386
    vertex 1653.779228470231 38.911295823059916 82.71738786772383
    vertex 1650.3470915434118 40.18942259219872 82.71738786772384
  endloop
endfacet
facet normal 0.0 -1.1359544635657286e-14 1.0
  outer loop
    vertex 1650.3470915434118 40.18942259219872 82.71738786772384
    vertex 1653.779228470231 38.911295823059916 82.71738786772383
    vertex 1650.4600860702315 40.19937373566703 82.71738786772384
  endloop
endfacet
facet normal 0.0 -1.1359544635657286e-14 1.0
  outer loop
    vertex 1650.4600860702315 40.19937373566703 82.71738786772384
    vertex 1653.779228470231 38.911295823059916 82.71738786772383
    vertex 1651.029712003859 40.24953925738179 82.71738786772384
  endloop
endfacet
facet normal 0.0 -1.1359544635657286e-14 1.0
  outer loop
    vertex 1651.029712003859 40.24953925738179 82.71738786772384
    vertex 1653.779228470231 38.911295823059916 82.71738786772383
    vertex 1651.6735133982806 40.4842826726129 82.71738786772386
  endloop
endfacet
facet normal 0.0 -1.1359544635657286e-14 1.0
  outer loop
    vertex 1651.6735133982806 40.4842826726129 82.71738786772386
    vertex 1653.779228470231 38.911295823059916 82.71738786772383
    vertex 1652.2346217255797 40.877655462075836 82.71738786772386
  endloop
endfacet
facet normal 0.0 -1.1359544635657286e-14 1.0
  outer loop
    vertex 1652.2346217255797 40.877655462075836 82.71738786772386
    vertex 1653.779228470231 38.911295823059916 82.71738786772383
    vertex 1652.674798380525 41.402849920247995 82.71738786772386
  endloop
endfacet
facet normal 0.0 -1.1359544635657286e-14 1.0
  outer loop
    vertex 1652.674798380525 41.402849920247995 82.71738786772386
    vertex 1653.779228470231 38.911295823059916 82.71738786772383
    vertex 1652.964046051509 42.024074912729795 82.71738786772386
  endloop
endfacet
facet normal 0.0 -1.1359544635657286e-14 1.0
  outer loop
    vertex 1652.964046051509 42.024074912729795 82.71738786772386
    vertex 1653.779228470231 38.911295823059916 82.71738786772383
    vertex 1653.082652987759 42.69899498290642 82.71738786772387
  endloop
endfacet
facet normal 0.0 -1.1359544635657286e-14 1.0
  outer loop
    vertex 1647.1409436702306 53.5877758230601 82.71738786772399
    vertex 1649.5788843449304 52.159754480099664 82.71738786772397
    vertex 1653.779228470231 53.5877758230601 82.71738786772399
  endloop
endfacet
facet normal 0.0 -1.1359544635657286e-14 1.0
  outer loop
    vertex 1649.5788843449304 52.159754480099664 82.71738786772397
    vertex 1647.1409436702306 53.5877758230601 82.71738786772399
    vertex 1648.9689358707435 51.84742842404491 82.71738786772397
  endloop
endfacet
facet normal 0.0 -1.1359544635657286e-14 1.0
  outer loop
    vertex 1648.9689358707435 51.84742842404491 82.71738786772397
    vertex 1647.1409436702306 53.5877758230601 82.71738786772399
    vertex 1648.4606068184091 51.387878338627765 82.71738786772397
  endloop
endfacet
facet normal 0.0 -1.1359544635657286e-14 1.0
  outer loop
    vertex 1648.4606068184091 51.387878338627765 82.71738786772397
    vertex 1647.1409436702306 53.5877758230601 82.71738786772399
    vertex 1648.0885389727914 50.81242180272707 82.71738786772397
  endloop
endfacet
facet normal 0.0 -1.1359544635657286e-14 1.0
  outer loop
    vertex 1648.0885389727914 50.81242180272707 82.71738786772397
    vertex 1647.1409436702306 53.5877758230601 82.71738786772399
    vertex 1647.8780881426967 50.16027522827748 82.71738786772396
  endloop
endfacet
facet normal 0.0 -1.1359544635657286e-14 1.0
  outer loop
    vertex 1647.8780881426967 50.16027522827748 82.71738786772396
    vertex 1647.1409436702306 53.5877758230601 82.71738786772399
    vertex 1647.8435962044102 49.47588132660461 82.71738786772394
  endloop
endfacet
facet normal 0.0 -1.1359544635657286e-14 1.0
  outer loop
    vertex 1647.8435962044102 49.47588132660461 82.71738786772394
    vertex 1647.1409436702306 53.5877758230601 82.71738786772399
    vertex 1647.837519152704 42.92498403654565 82.71738786772387
  endloop
endfacet
facet normal 0.0 -1.1359544635657286e-14 1.0
  outer loop
    vertex 1653.779228470231 53.5877758230601 82.71738786772399
    vertex 1649.5788843449304 52.159754480099664 82.71738786772397
    vertex 1650.248885260442 52.3035720022151 82.71738786772399
  endloop
endfacet
facet normal 0.0 -1.1359544635657286e-14 1.0
  outer loop
    vertex 1653.779228470231 53.5877758230601 82.71738786772399
    vertex 1650.248885260442 52.3035720022151 82.71738786772399
    vertex 1650.4600860702315 52.29292794872564 82.71738786772399
  endloop
endfacet
facet normal 0.0 -1.1359544635657286e-14 1.0
  outer loop
    vertex 1653.779228470231 53.5877758230601 82.71738786772399
    vertex 1650.4600860702315 52.29292794872564 82.71738786772399
    vertex 1650.933279162115 52.26908006392884 82.71738786772399
  endloop
endfacet
facet normal 0.0 -1.1359544635657286e-14 1.0
  outer loop
    vertex 1653.779228470231 53.5877758230601 82.71738786772399
    vertex 1650.933279162115 52.26908006392884 82.71738786772399
    vertex 1651.5854257365645 52.058629233834374 82.71738786772397
  endloop
endfacet
facet normal 0.0 -1.1359544635657286e-14 1.0
  outer loop
    vertex 1653.779228470231 53.5877758230601 82.71738786772399
    vertex 1651.5854257365645 52.058629233834374 82.71738786772397
    vertex 1652.1608822724652 51.68656138821626 82.71738786772397
  endloop
endfacet
facet normal 0.0 -1.1359544635657286e-14 1.0
  outer loop
    vertex 1653.779228470231 53.5877758230601 82.71738786772399
    vertex 1652.1608822724652 51.68656138821626 82.71738786772397
    vertex 1652.6204323578825 51.178232335882115 82.71738786772397
  endloop
endfacet
facet normal 0.0 -1.1359544635657286e-14 1.0
  outer loop
    vertex 1653.779228470231 53.5877758230601 82.71738786772399
    vertex 1652.6204323578825 51.178232335882115 82.71738786772397
    vertex 1652.9327584139369 50.56828386169514 82.71738786772397
  endloop
endfacet
facet normal 0.0 -1.1359544635657286e-14 1.0
  outer loop
    vertex 1653.779228470231 53.5877758230601 82.71738786772399
    vertex 1652.9327584139369 50.56828386169514 82.71738786772397
    vertex 1653.0765759360527 49.89828294618355 82.71738786772396
  endloop
endfacet
facet normal 0.0 -1.1359544635657286e-14 1.0
  outer loop
    vertex 1653.779228470231 53.5877758230601 82.71738786772399
    vertex 1653.0765759360527 49.89828294618355 82.71738786772396
    vertex 1653.082652987759 42.69899498290642 82.71738786772387
  endloop
endfacet
facet normal 0.0 -1.1359544635657286e-14 1.0
  outer loop
    vertex 1653.779228470231 53.5877758230601 82.71738786772399
    vertex 1653.082652987759 42.69899498290642 82.71738786772387
    vertex 1653.779228470231 38.911295823059916 82.71738786772383
  endloop
endfacet
facet normal -1.0 0.0 0.0
  outer loop
    vertex 1647.1409436702306 53.5877758230601 82.71738786772399
    vertex 1647.1409436702306 38.911295823059966 78.21288786772384
    vertex 1647.1409436702306 38.911295823059916 82.71738786772383
  endloop
endfacet
facet normal -1.0 0.0 0.0
  outer loop
    vertex 1647.1409436702306 38.911295823059966 78.21288786772384
    vertex 1647.1409436702306 53.5877758230601 82.71738786772399
    vertex 1647.1409436702306 53.58777582306015 78.212887867724
  endloop
endfacet
facet normal 0.0 -1.0 -1.0918302151511398e-14
  outer loop
    vertex 1653.779228470231 38.911295823059916 82.71738786772383
    vertex 1647.1409436702306 38.911295823059966 78.21288786772384
    vertex 1653.779228470231 38.911295823059966 78.21288786772384
  endloop
endfacet
facet normal 0.0 -1.0 -1.0918302151511398e-14
  outer loop
    vertex 1647.1409436702306 38.911295823059966 78.21288786772384
    vertex 1653.779228470231 38.911295823059916 82.71738786772383
    vertex 1647.1409436702306 38.911295823059916 82.71738786772383
  endloop
endfacet
facet normal 1.0 0.0 0.0
  outer loop
    vertex 1653.779228470231 53.58777582306015 78.212887867724
    vertex 1653.779228470231 38.911295823059916 82.71738786772383
    vertex 1653.779228470231 38.911295823059966 78.21288786772384
  endloop
endfacet
facet normal 1.0 0.0 0.0
  outer loop
    vertex 1653.779228470231 38.911295823059916 82.71738786772383
    vertex 1653.779228470231 53.58777582306015 78.212887867724
    vertex 1653.779228470231 53.5877758230601 82.71738786772399
  endloop
endfacet
facet normal 0.0 1.0 1.0918302151511398e-14
  outer loop
    vertex 1647.1409436702306 53.5877758230601 82.71738786772399
    vertex 1653.779228470231 53.58777582306015 78.212887867724
    vertex 1647.1409436702306 53.58777582306015 78.212887867724
  endloop
endfacet
facet normal 0.0 1.0 1.0918302151511398e-14
  outer loop
    vertex 1653.779228470231 53.58777582306015 78.212887867724
    vertex 1647.1409436702306 53.5877758230601 82.71738786772399
    vertex 1653.779228470231 53.5877758230601 82.71738786772399
  endloop
endfacet
facet normal 0.0 1.1359544635657286e-14 -1.0
  outer loop
    vertex 1653.1196026924104 52.12941951155203 78.21288786772399
    vertex 1647.8005694480512 40.369652134568085 78.21288786772385
    vertex 1647.8005694480512 52.12941951155203 78.21288786772399
  endloop
endfacet
facet normal 0.0 1.1359544635657286e-14 -1.0
  outer loop
    vertex 1647.8005694480512 40.369652134568085 78.21288786772385
    vertex 1653.1196026924104 52.12941951155203 78.21288786772399
    vertex 1653.1196026924104 40.369652134568085 78.21288786772385
  endloop
endfacet
facet normal 0.0 1.1359544635657286e-14 -1.0
  outer loop
    vertex 1647.8780881426967 50.16027522827752 78.62238786772397
    vertex 1647.987413726526 48.805880411093064 78.62238786772396
    vertex 1647.8435962044102 49.47588132660465 78.62238786772396
  endloop
endfacet
facet normal 0.0 1.1359544635657286e-14 -1.0
  outer loop
    vertex 1647.987413726526 48.805880411093064 78.62238786772396
    vertex 1647.8780881426967 50.16027522827752 78.62238786772397
    vertex 1648.0885389727914 50.812421802727116 78.62238786772399
  endloop
endfacet
facet normal 0.0 1.1359544635657286e-14 -1.0
  outer loop
    vertex 1647.987413726526 48.805880411093064 78.62238786772396
    vertex 1648.0885389727914 50.812421802727116 78.62238786772399
    vertex 1648.2997397825807 48.19593193690609 78.62238786772394
  endloop
endfacet
facet normal 0.0 1.1359544635657286e-14 -1.0
  outer loop
    vertex 1648.2997397825807 48.19593193690609 78.62238786772394
    vertex 1648.0885389727914 50.812421802727116 78.62238786772399
    vertex 1648.4606068184091 51.38787833862781 78.62238786772399
  endloop
endfacet
facet normal 0.0 1.1359544635657286e-14 -1.0
  outer loop
    vertex 1648.2997397825807 48.19593193690609 78.62238786772394
    vertex 1648.4606068184091 51.38787833862781 78.62238786772399
    vertex 1648.759289867998 47.68760288457194 78.62238786772393
  endloop
endfacet
facet normal 0.0 1.1359544635657286e-14 -1.0
  outer loop
    vertex 1648.759289867998 47.68760288457194 78.62238786772393
    vertex 1648.4606068184091 51.38787833862781 78.62238786772399
    vertex 1648.9689358707435 51.84742842404495 78.62238786772399
  endloop
endfacet
facet normal 0.0 1.1359544635657286e-14 -1.0
  outer loop
    vertex 1648.759289867998 47.68760288457194 78.62238786772393
    vertex 1648.9689358707435 51.84742842404495 78.62238786772399
    vertex 1649.3347464038984 47.315535038953826 78.62238786772393
  endloop
endfacet
facet normal 0.0 1.1359544635657286e-14 -1.0
  outer loop
    vertex 1649.3347464038984 47.315535038953826 78.62238786772393
    vertex 1648.9689358707435 51.84742842404495 78.62238786772399
    vertex 1649.5788843449304 52.159754480099714 78.62238786772399
  endloop
endfacet
facet normal 0.0 1.1359544635657286e-14 -1.0
  outer loop
    vertex 1649.3347464038984 47.315535038953826 78.62238786772393
    vertex 1649.5788843449304 52.159754480099714 78.62238786772399
    vertex 1649.9868929783481 47.10508420885937 78.62238786772393
  endloop
endfacet
facet normal 0.0 1.1359544635657286e-14 -1.0
  outer loop
    vertex 1649.9868929783481 47.10508420885937 78.62238786772393
    vertex 1649.5788843449304 52.159754480099714 78.62238786772399
    vertex 1650.248885260442 52.30357200221514 78.62238786772399
  endloop
endfacet
facet normal 0.0 1.1359544635657286e-14 -1.0
  outer loop
    vertex 1649.9868929783481 47.10508420885937 78.62238786772393
    vertex 1650.248885260442 52.30357200221514 78.62238786772399
    vertex 1650.4600860702315 47.08123632406255 78.62238786772393
  endloop
endfacet
facet normal 0.0 1.1359544635657286e-14 -1.0
  outer loop
    vertex 1650.4600860702315 47.08123632406255 78.62238786772393
    vertex 1650.248885260442 52.30357200221514 78.62238786772399
    vertex 1650.4600860702315 52.29292794872568 78.62238786772399
  endloop
endfacet
facet normal 0.0 1.1359544635657286e-14 -1.0
  outer loop
    vertex 1650.4600860702315 47.08123632406255 78.62238786772393
    vertex 1650.4600860702315 52.29292794872568 78.62238786772399
    vertex 1650.933279162115 52.26908006392888 78.62238786772399
  endloop
endfacet
facet normal 0.0 1.1359544635657286e-14 -1.0
  outer loop
    vertex 1650.4600860702315 47.08123632406255 78.62238786772393
    vertex 1650.933279162115 52.26908006392888 78.62238786772399
    vertex 1650.6712868800212 47.070592270573094 78.62238786772393
  endloop
endfacet
facet normal 0.0 1.1359544635657286e-14 -1.0
  outer loop
    vertex 1650.6712868800212 47.070592270573094 78.62238786772393
    vertex 1650.933279162115 52.26908006392888 78.62238786772399
    vertex 1651.3412877955327 47.214409792688535 78.62238786772393
  endloop
endfacet
facet normal 0.0 1.1359544635657286e-14 -1.0
  outer loop
    vertex 1651.3412877955327 47.214409792688535 78.62238786772393
    vertex 1650.933279162115 52.26908006392888 78.62238786772399
    vertex 1651.5854257365645 52.058629233834424 78.62238786772399
  endloop
endfacet
facet normal 0.0 1.1359544635657286e-14 -1.0
  outer loop
    vertex 1651.3412877955327 47.214409792688535 78.62238786772393
    vertex 1651.5854257365645 52.058629233834424 78.62238786772399
    vertex 1651.9512362697196 47.52673584874329 78.62238786772393
  endloop
endfacet
facet normal 0.0 1.1359544635657286e-14 -1.0
  outer loop
    vertex 1651.9512362697196 47.52673584874329 78.62238786772393
    vertex 1651.5854257365645 52.058629233834424 78.62238786772399
    vertex 1652.1608822724652 51.686561388216305 78.62238786772399
  endloop
endfacet
facet normal 0.0 1.1359544635657286e-14 -1.0
  outer loop
    vertex 1651.9512362697196 47.52673584874329 78.62238786772393
    vertex 1652.1608822724652 51.686561388216305 78.62238786772399
    vertex 1652.4595653220538 47.98628593416043 78.62238786772394
  endloop
endfacet
facet normal 0.0 1.1359544635657286e-14 -1.0
  outer loop
    vertex 1652.4595653220538 47.98628593416043 78.62238786772394
    vertex 1652.1608822724652 51.686561388216305 78.62238786772399
    vertex 1652.6204323578825 51.17823233588216 78.62238786772399
  endloop
endfacet
facet normal 0.0 1.1359544635657286e-14 -1.0
  outer loop
    vertex 1652.4595653220538 47.98628593416043 78.62238786772394
    vertex 1652.6204323578825 51.17823233588216 78.62238786772399
    vertex 1652.8316331676717 48.561742470061134 78.62238786772394
  endloop
endfacet
facet normal 0.0 1.1359544635657286e-14 -1.0
  outer loop
    vertex 1652.8316331676717 48.561742470061134 78.62238786772394
    vertex 1652.6204323578825 51.17823233588216 78.62238786772399
    vertex 1652.9327584139369 50.568283861695186 78.62238786772397
  endloop
endfacet
facet normal 0.0 1.1359544635657286e-14 -1.0
  outer loop
    vertex 1652.8316331676717 48.561742470061134 78.62238786772394
    vertex 1652.9327584139369 50.568283861695186 78.62238786772397
    vertex 1653.0420839977662 49.21388904451072 78.62238786772396
  endloop
endfacet
facet normal 0.0 1.1359544635657286e-14 -1.0
  outer loop
    vertex 1653.0420839977662 49.21388904451072 78.62238786772396
    vertex 1652.9327584139369 50.568283861695186 78.62238786772397
    vertex 1653.0765759360527 49.89828294618359 78.62238786772397
  endloop
endfacet
facet normal 0.0 1.1359544635657286e-14 -1.0
  outer loop
    vertex 1647.9561260889539 43.59990410672232 78.62238786772387
    vertex 1647.8976358178872 42.242363576098555 78.62238786772387
    vertex 1647.837519152704 42.924984036545695 78.62238786772387
  endloop
endfacet
facet normal 0.0 1.1359544635657286e-14 -1.0
  outer loop
    vertex 1647.8976358178872 42.242363576098555 78.62238786772387
    vertex 1647.9561260889539 43.59990410672232 78.62238786772387
    vertex 1648.1323792331186 41.598562181676805 78.62238786772386
  endloop
endfacet
facet normal 0.0 1.1359544635657286e-14 -1.0
  outer loop
    vertex 1648.1323792331186 41.598562181676805 78.62238786772386
    vertex 1647.9561260889539 43.59990410672232 78.62238786772387
    vertex 1648.2453737599378 44.22112909920412 78.62238786772389
  endloop
endfacet
facet normal 0.0 1.1359544635657286e-14 -1.0
  outer loop
    vertex 1648.1323792331186 41.598562181676805 78.62238786772386
    vertex 1648.2453737599378 44.22112909920412 78.62238786772389
    vertex 1648.5257520225814 41.03745385437812 78.62238786772384
  endloop
endfacet
facet normal 0.0 1.1359544635657286e-14 -1.0
  outer loop
    vertex 1648.5257520225814 41.03745385437812 78.62238786772384
    vertex 1648.2453737599378 44.22112909920412 78.62238786772389
    vertex 1648.6855504148834 44.74632355737628 78.62238786772389
  endloop
endfacet
facet normal 0.0 1.1359544635657286e-14 -1.0
  outer loop
    vertex 1648.5257520225814 41.03745385437812 78.62238786772384
    vertex 1648.6855504148834 44.74632355737628 78.62238786772389
    vertex 1649.0509464807535 40.59727719943256 78.62238786772384
  endloop
endfacet
facet normal 0.0 1.1359544635657286e-14 -1.0
  outer loop
    vertex 1649.0509464807535 40.59727719943256 78.62238786772384
    vertex 1648.6855504148834 44.74632355737628 78.62238786772389
    vertex 1649.2466587421823 45.139696346839216 78.62238786772389
  endloop
endfacet
facet normal 0.0 1.1359544635657286e-14 -1.0
  outer loop
    vertex 1649.0509464807535 40.59727719943256 78.62238786772384
    vertex 1649.2466587421823 45.139696346839216 78.62238786772389
    vertex 1649.6721714732353 40.308029528448365 78.62238786772384
  endloop
endfacet
facet normal 0.0 1.1359544635657286e-14 -1.0
  outer loop
    vertex 1649.6721714732353 40.308029528448365 78.62238786772384
    vertex 1649.2466587421823 45.139696346839216 78.62238786772389
    vertex 1649.8904601366041 45.374439762070324 78.62238786772389
  endloop
endfacet
facet normal 0.0 1.1359544635657286e-14 -1.0
  outer loop
    vertex 1649.6721714732353 40.308029528448365 78.62238786772384
    vertex 1649.8904601366041 45.374439762070324 78.62238786772389
    vertex 1650.3470915434118 40.18942259219876 78.62238786772384
  endloop
endfacet
facet normal 0.0 1.1359544635657286e-14 -1.0
  outer loop
    vertex 1650.3470915434118 40.18942259219876 78.62238786772384
    vertex 1649.8904601366041 45.374439762070324 78.62238786772389
    vertex 1650.4600860702315 45.424605283785084 78.6223878677239
  endloop
endfacet
facet normal 0.0 1.1359544635657286e-14 -1.0
  outer loop
    vertex 1650.3470915434118 40.18942259219876 78.62238786772384
    vertex 1650.4600860702315 45.424605283785084 78.6223878677239
    vertex 1650.4600860702315 40.19937373566708 78.62238786772384
  endloop
endfacet
facet normal 0.0 1.1359544635657286e-14 -1.0
  outer loop
    vertex 1650.4600860702315 40.19937373566708 78.62238786772384
    vertex 1650.4600860702315 45.424605283785084 78.6223878677239
    vertex 1650.573080597051 45.43455642725339 78.6223878677239
  endloop
endfacet
facet normal 0.0 1.1359544635657286e-14 -1.0
  outer loop
    vertex 1650.4600860702315 40.19937373566708 78.62238786772384
    vertex 1650.573080597051 45.43455642725339 78.6223878677239
    vertex 1651.029712003859 40.24953925738184 78.62238786772384
  endloop
endfacet
facet normal 0.0 1.1359544635657286e-14 -1.0
  outer loop
    vertex 1651.029712003859 40.24953925738184 78.62238786772384
    vertex 1650.573080597051 45.43455642725339 78.6223878677239
    vertex 1651.2480006672276 45.3159494910038 78.62238786772389
  endloop
endfacet
facet normal 0.0 1.1359544635657286e-14 -1.0
  outer loop
    vertex 1651.029712003859 40.24953925738184 78.62238786772384
    vertex 1651.2480006672276 45.3159494910038 78.62238786772389
    vertex 1651.6735133982806 40.48428267261295 78.62238786772384
  endloop
endfacet
facet normal 0.0 1.1359544635657286e-14 -1.0
  outer loop
    vertex 1651.6735133982806 40.48428267261295 78.62238786772384
    vertex 1651.2480006672276 45.3159494910038 78.62238786772389
    vertex 1651.8692256597094 45.026701820019596 78.62238786772389
  endloop
endfacet
facet normal 0.0 1.1359544635657286e-14 -1.0
  outer loop
    vertex 1651.6735133982806 40.48428267261295 78.62238786772384
    vertex 1651.8692256597094 45.026701820019596 78.62238786772389
    vertex 1652.2346217255797 40.87765546207588 78.62238786772384
  endloop
endfacet
facet normal 0.0 1.1359544635657286e-14 -1.0
  outer loop
    vertex 1652.2346217255797 40.87765546207588 78.62238786772384
    vertex 1651.8692256597094 45.026701820019596 78.62238786772389
    vertex 1652.3944201178815 44.58652516507403 78.62238786772389
  endloop
endfacet
facet normal 0.0 1.1359544635657286e-14 -1.0
  outer loop
    vertex 1652.2346217255797 40.87765546207588 78.62238786772384
    vertex 1652.3944201178815 44.58652516507403 78.62238786772389
    vertex 1652.674798380525 41.402849920248045 78.62238786772384
  endloop
endfacet
facet normal 0.0 1.1359544635657286e-14 -1.0
  outer loop
    vertex 1652.674798380525 41.402849920248045 78.62238786772384
    vertex 1652.3944201178815 44.58652516507403 78.62238786772389
    vertex 1652.7877929073445 44.02541683777535 78.62238786772387
  endloop
endfacet
facet normal 0.0 1.1359544635657286e-14 -1.0
  outer loop
    vertex 1652.674798380525 41.402849920248045 78.62238786772384
    vertex 1652.7877929073445 44.02541683777535 78.62238786772387
    vertex 1652.964046051509 42.02407491272984 78.62238786772386
  endloop
endfacet
facet normal 0.0 1.1359544635657286e-14 -1.0
  outer loop
    vertex 1652.964046051509 42.02407491272984 78.62238786772386
    vertex 1652.7877929073445 44.02541683777535 78.62238786772387
    vertex 1653.0225363225757 43.381615443353596 78.62238786772387
  endloop
endfacet
facet normal 0.0 1.1359544635657286e-14 -1.0
  outer loop
    vertex 1652.964046051509 42.02407491272984 78.62238786772386
    vertex 1653.0225363225757 43.381615443353596 78.62238786772387
    vertex 1653.082652987759 42.69899498290646 78.62238786772387
  endloop
endfacet
facet normal 0.0 1.1359544635657286e-14 -1.0
  outer loop
    vertex 1643.845086070232 54.43953582306049 45.998887867724065
    vertex 1644.9071266409994 53.1246284497285 45.99888786772405
    vertex 1643.845086070232 38.05953582306047 45.99888786772388
  endloop
endfacet
facet normal 0.0 1.1359544635657286e-14 -1.0
  outer loop
    vertex 1644.9071266409994 53.1246284497285 45.99888786772405
    vertex 1643.845086070232 54.43953582306049 45.998887867724065
    vertex 1657.075086070232 54.43953582306049 45.998887867724065
  endloop
endfacet
facet normal 0.0 1.1359544635657286e-14 -1.0
  outer loop
    vertex 1644.9071266409994 53.1246284497285 45.99888786772405
    vertex 1657.075086070232 54.43953582306049 45.998887867724065
    vertex 1656.0130454994635 53.1246284497285 45.99888786772405
  endloop
endfacet
facet normal 0.0 1.1359544635657286e-14 -1.0
  outer loop
    vertex 1656.0130454994635 53.1246284497285 45.99888786772405
    vertex 1657.075086070232 54.43953582306049 45.998887867724065
    vertex 1656.0130454994635 39.37444319639241 45.998887867723894
  endloop
endfacet
facet normal 0.0 1.1359544635657286e-14 -1.0
  outer loop
    vertex 1643.845086070232 38.05953582306047 45.99888786772388
    vertex 1644.9071266409994 39.37444319639241 45.998887867723894
    vertex 1657.075086070232 38.05953582306047 45.99888786772388
  endloop
endfacet
facet normal 0.0 1.1359544635657286e-14 -1.0
  outer loop
    vertex 1644.9071266409994 39.37444319639241 45.998887867723894
    vertex 1643.845086070232 38.05953582306047 45.99888786772388
    vertex 1644.9071266409994 53.1246284497285 45.99888786772405
  endloop
endfacet
facet normal 0.0 1.1359544635657286e-14 -1.0
  outer loop
    vertex 1657.075086070232 38.05953582306047 45.99888786772388
    vertex 1644.9071266409994 39.37444319639241 45.998887867723894
    vertex 1656.0130454994635 39.37444319639241 45.998887867723894
  endloop
endfacet
facet normal 0.0 1.1359544635657286e-14 -1.0
  outer loop
    vertex 1657.075086070232 38.05953582306047 45.99888786772388
    vertex 1656.0130454994635 39.37444319639241 45.998887867723894
    vertex 1657.075086070232 54.43953582306049 45.998887867724065
  endloop
endfacet
facet normal -1.0 0.0 0.0
  outer loop
    vertex 1643.845086070232 54.43953582306039 55.41738786772404
    vertex 1643.845086070232 38.05953582306047 45.99888786772388
    vertex 1643.845086070232 38.05953582306037 55.41738786772386
  endloop
endfacet
facet normal -1.0 0.0 0.0
  outer loop
    vertex 1643.845086070232 38.05953582306047 45.99888786772388
    vertex 1643.845086070232 54.43953582306039 55.41738786772404
    vertex 1643.845086070232 54.43953582306049 45.998887867724065
  endloop
endfacet
facet normal 0.0 1.0 1.0918302151511398e-14
  outer loop
    vertex 1643.845086070232 54.43953582306039 55.41738786772404
    vertex 1657.075086070232 54.43953582306049 45.998887867724065
    vertex 1643.845086070232 54.43953582306049 45.998887867724065
  endloop
endfacet
facet normal 0.0 1.0 1.0918302151511398e-14
  outer loop
    vertex 1657.075086070232 54.43953582306049 45.998887867724065
    vertex 1643.845086070232 54.43953582306039 55.41738786772404
    vertex 1657.075086070232 54.43953582306039 55.41738786772404
  endloop
endfacet
facet normal 1.0 0.0 0.0
  outer loop
    vertex 1657.075086070232 54.43953582306049 45.998887867724065
    vertex 1657.075086070232 38.05953582306037 55.41738786772386
    vertex 1657.075086070232 38.05953582306047 45.99888786772388
  endloop
endfacet
facet normal 1.0 0.0 0.0
  outer loop
    vertex 1657.075086070232 38.05953582306037 55.41738786772386
    vertex 1657.075086070232 54.43953582306049 45.998887867724065
    vertex 1657.075086070232 54.43953582306039 55.41738786772404
  endloop
endfacet
facet normal 0.0 -1.0 -1.0918302151511398e-14
  outer loop
    vertex 1657.075086070232 38.05953582306037 55.41738786772386
    vertex 1643.845086070232 38.05953582306047 45.99888786772388
    vertex 1657.075086070232 38.05953582306047 45.99888786772388
  endloop
endfacet
facet normal 0.0 -1.0 -1.0918302151511398e-14
  outer loop
    vertex 1643.845086070232 38.05953582306047 45.99888786772388
    vertex 1657.075086070232 38.05953582306037 55.41738786772386
    vertex 1643.845086070232 38.05953582306037 55.41738786772386
  endloop
endfacet
facet normal 1.0 0.0 0.0
  outer loop
    vertex 1644.9071266409994 53.1246284497285 45.99888786772405
    vertex 1644.9071266409994 39.37444319639231 55.41738786772387
    vertex 1644.9071266409994 39.37444319639241 45.998887867723894
  endloop
endfacet
facet normal 1.0 0.0 0.0
  outer loop
    vertex 1644.9071266409994 39.37444319639231 55.41738786772387
    vertex 1644.9071266409994 53.1246284497285 45.99888786772405
    vertex 1644.9071266409994 53.1246284497284 55.417387867724024
  endloop
endfacet
facet normal 0.0 1.0 1.0918302151511398e-14
  outer loop
    vertex 1644.9071266409994 39.37444319639231 55.41738786772387
    vertex 1656.0130454994635 39.37444319639241 45.998887867723894
    vertex 1644.9071266409994 39.37444319639241 45.998887867723894
  endloop
endfacet
facet normal 0.0 1.0 1.0918302151511398e-14
  outer loop
    vertex 1656.0130454994635 39.37444319639241 45.998887867723894
    vertex 1644.9071266409994 39.37444319639231 55.41738786772387
    vertex 1656.0130454994635 39.37444319639231 55.41738786772387
  endloop
endfacet
facet normal -1.0 0.0 0.0
  outer loop
    vertex 1656.0130454994635 53.1246284497284 55.417387867724024
    vertex 1656.0130454994635 39.37444319639241 45.998887867723894
    vertex 1656.0130454994635 39.37444319639231 55.41738786772387
  endloop
endfacet
facet normal -1.0 0.0 0.0
  outer loop
    vertex 1656.0130454994635 39.37444319639241 45.998887867723894
    vertex 1656.0130454994635 53.1246284497284 55.417387867724024
    vertex 1656.0130454994635 53.1246284497285 45.99888786772405
  endloop
endfacet
facet normal 0.0 -1.0 -1.0918302151511398e-14
  outer loop
    vertex 1656.0130454994635 53.1246284497284 55.417387867724024
    vertex 1644.9071266409994 53.1246284497285 45.99888786772405
    vertex 1656.0130454994635 53.1246284497285 45.99888786772405
  endloop
endfacet
facet normal 0.0 -1.0 -1.0918302151511398e-14
  outer loop
    vertex 1644.9071266409994 53.1246284497285 45.99888786772405
    vertex 1656.0130454994635 53.1246284497284 55.417387867724024
    vertex 1644.9071266409994 53.1246284497284 55.417387867724024
  endloop
endfacet
facet normal -0.9920403838483273 1.421372451490984e-15 -0.12592012076734693
  outer loop
    vertex 1653.1196026924104 40.369652134568085 78.21288786772385
    vertex 1656.0130454994635 53.1246284497284 55.417387867724024
    vertex 1656.0130454994635 39.37444319639231 55.41738786772387
  endloop
endfacet
facet normal -0.9920403838483273 1.421372451490984e-15 -0.12592012076734693
  outer loop
    vertex 1656.0130454994635 53.1246284497284 55.417387867724024
    vertex 1653.1196026924104 40.369652134568085 78.21288786772385
    vertex 1653.1196026924104 52.12941951155203 78.21288786772399
  endloop
endfacet
facet normal 0.9920403838483347 1.4213724514906692e-15 -0.12592012076729012
  outer loop
    vertex 1644.9071266409994 53.1246284497284 55.417387867724024
    vertex 1647.8005694480512 40.369652134568085 78.21288786772385
    vertex 1644.9071266409994 39.37444319639231 55.41738786772387
  endloop
endfacet
facet normal 0.9920403838483347 1.4213724514906692e-15 -0.12592012076729012
  outer loop
    vertex 1647.8005694480512 40.369652134568085 78.21288786772385
    vertex 1644.9071266409994 53.1246284497284 55.417387867724024
    vertex 1647.8005694480512 52.12941951155203 78.21288786772399
  endloop
endfacet
facet normal 2.203089068625448e-18 0.9990483439735371 -0.043616584044753014
  outer loop
    vertex 1647.8005694480512 40.369652134568085 78.21288786772385
    vertex 1656.0130454994635 39.37444319639231 55.41738786772387
    vertex 1644.9071266409994 39.37444319639231 55.41738786772387
  endloop
endfacet
facet normal 2.203089068625448e-18 0.9990483439735371 -0.043616584044753014
  outer loop
    vertex 1656.0130454994635 39.37444319639231 55.41738786772387
    vertex 1647.8005694480512 40.369652134568085 78.21288786772385
    vertex 1653.1196026924104 40.369652134568085 78.21288786772385
  endloop
endfacet
facet normal 2.203089067914555e-18 -0.9990483439735361 -0.04361658404477898
  outer loop
    vertex 1653.1196026924104 52.12941951155203 78.21288786772399
    vertex 1644.9071266409994 53.1246284497284 55.417387867724024
    vertex 1656.0130454994635 53.1246284497284 55.417387867724024
  endloop
endfacet
facet normal 2.203089067914555e-18 -0.9990483439735361 -0.04361658404477898
  outer loop
    vertex 1644.9071266409994 53.1246284497284 55.417387867724024
    vertex 1653.1196026924104 52.12941951155203 78.21288786772399
    vertex 1647.8005694480512 52.12941951155203 78.21288786772399
  endloop
endfacet
endsolid Falla3d_ver2.1
