solid Falla3d_ver2~
facet normal 1.711896350279208e-06 -9.684334047283898e-07 0.9999999999980658
outer loop
vertex 537.6180747377058 348.8069000206955 151.10992504531345
vertex 539.1180745968508 355.1350128880246 151.10992860582496
vertex 537.6180745968509 355.1350128880255 151.10992922834632
endloop
endfacet
facet normal 1.711896350279208e-06 -9.684334047283898e-07 0.9999999999980658
outer loop
vertex 539.1180745968508 355.1350128880246 151.10992860582496
vertex 537.6180747377058 348.8069000206955 151.10992504531345
vertex 539.1180747377 348.8069000441003 151.1099205321456
endloop
endfacet
facet normal -0.9999999999999931 -3.047963460330394e-08 1.1408312642193215e-07
outer loop
vertex 530.9180428622242 329.47738659383856 140.6338629530821
vertex 530.9180409704117 331.535021201693 137.31199298728296
vertex 530.9180420325189 329.4773919504109 131.70989867111453
endloop
endfacet
facet normal -0.9999999999999931 -3.047963460330394e-08 1.1408312642193215e-07
outer loop
vertex 530.9180409704117 331.535021201693 137.31199298728296
vertex 530.9180428622242 329.47738659383856 140.6338629530821
vertex 530.9180427176706 336.9594528085981 140.6338629530821
endloop
endfacet
facet normal -0.9999999999999931 -3.047963460330394e-08 1.1408312642193215e-07
outer loop
vertex 530.9180409704117 331.535021201693 137.31199298728296
vertex 530.9180427176706 336.9594528085981 140.6338629530821
vertex 530.9180427176706 336.9594528085981 138.81198769533802
endloop
endfacet
facet normal -0.9999999999999931 -3.047963460330394e-08 1.1408312642193215e-07
outer loop
vertex 530.9180409704117 331.535021201693 137.31199298728296
vertex 530.9180427176706 336.9594528085981 138.81198769533802
vertex 530.9180420128648 346.9350212016922 137.31199690738126
endloop
endfacet
facet normal -0.9999999999999931 -3.047963460330394e-08 1.1408312642193215e-07
outer loop
vertex 530.9180420128648 346.9350212016922 137.31199690738126
vertex 530.9180427176706 336.9594528085981 138.81198769533802
vertex 530.9180422394784 349.3350215962332 138.81199528011499
endloop
endfacet
facet normal -0.9999999999999931 -3.047963460330394e-08 1.1408312642193215e-07
outer loop
vertex 530.9180420128648 346.9350212016922 137.31199690738126
vertex 530.9180422394784 349.3350215962332 138.81199528011499
vertex 530.9180420128648 346.9350229457141 133.3592433467732
endloop
endfacet
facet normal -0.9999999999999931 -3.047963460330394e-08 1.1408312642193215e-07
outer loop
vertex 530.9180420325189 329.4773919504109 131.70989867111453
vertex 530.9180409704117 331.53502294571484 133.35923942667492
vertex 530.9180412652195 349.3350276324945 131.70987069642274
endloop
endfacet
facet normal -0.9999999999999931 -3.047963460330394e-08 1.1408312642193215e-07
outer loop
vertex 530.9180409704117 331.53502294571484 133.35923942667492
vertex 530.9180420325189 329.4773919504109 131.70989867111453
vertex 530.9180409704117 331.535021201693 137.31199298728296
endloop
endfacet
facet normal -0.9999999999999931 -3.047963460330394e-08 1.1408312642193215e-07
outer loop
vertex 530.9180412652195 349.3350276324945 131.70987069642274
vertex 530.9180409704117 331.53502294571484 133.35923942667492
vertex 530.9180420128648 346.9350229457141 133.3592433467732
endloop
endfacet
facet normal -0.9999999999999931 -3.047963460330394e-08 1.1408312642193215e-07
outer loop
vertex 530.9180412652195 349.3350276324945 131.70987069642274
vertex 530.9180420128648 346.9350229457141 133.3592433467732
vertex 530.9180422394784 349.3350215962332 138.81199528011499
endloop
endfacet
facet normal 0.9999999999994753 -6.565740786850435e-07 -7.86333505236836e-07
outer loop
vertex 539.1180433602801 329.47738678086336 140.63385941293768
vertex 539.1180560074239 331.535021201693 137.31199298728276
vertex 539.1180433602798 336.9594528320029 140.63385843991426
endloop
endfacet
facet normal 0.9999999999994753 -6.565740786850435e-07 -7.86333505236836e-07
outer loop
vertex 539.1180560074239 331.535021201693 137.31199298728276
vertex 539.1180433602801 329.47738678086336 140.63385941293768
vertex 539.1180517646862 329.477393111641 131.7099045101631
endloop
endfacet
facet normal 0.9999999999994753 -6.565740786850435e-07 -7.86333505236836e-07
outer loop
vertex 539.1180433602798 336.9594528320029 140.63385843991426
vertex 539.1180560074239 331.535021201693 137.31199298728276
vertex 539.1180570498769 346.9350212016922 137.3119969073811
endloop
endfacet
facet normal 0.9999999999994753 -6.565740786850435e-07 -7.86333505236836e-07
outer loop
vertex 539.1180433602798 336.9594528320029 140.63385843991426
vertex 539.1180570498769 346.9350212016922 137.3119969073811
vertex 539.1180747377 348.8069000441003 151.1099205321456
endloop
endfacet
facet normal 0.9999999999994753 -6.565740786850435e-07 -7.86333505236836e-07
outer loop
vertex 539.1180747377 348.8069000441003 151.1099205321456
vertex 539.1180570498769 346.9350212016922 137.3119969073811
vertex 539.1180570498767 346.9350229457141 133.35924334677304
endloop
endfacet
facet normal 0.9999999999994753 -6.565740786850435e-07 -7.86333505236836e-07
outer loop
vertex 539.1180517646862 329.477393111641 131.7099045101631
vertex 539.1180560074238 331.53502294571484 133.35923942667492
vertex 539.1180560074239 331.535021201693 137.31199298728276
endloop
endfacet
facet normal 0.9999999999994753 -6.565740786850435e-07 -7.86333505236836e-07
outer loop
vertex 539.1180560074238 331.53502294571484 133.35923942667492
vertex 539.1180517646862 329.477393111641 131.7099045101631
vertex 539.1180517646815 349.3350267093358 131.70988676666798
endloop
endfacet
facet normal 0.9999999999994753 -6.565740786850435e-07 -7.86333505236836e-07
outer loop
vertex 539.1180560074238 331.53502294571484 133.35923942667492
vertex 539.1180517646815 349.3350267093358 131.70988676666798
vertex 539.1180570498767 346.9350229457141 133.35924334677304
endloop
endfacet
facet normal 0.9999999999994753 -6.565740786850435e-07 -7.86333505236836e-07
outer loop
vertex 539.1180570498767 346.9350229457141 133.35924334677304
vertex 539.1180517646815 349.3350267093358 131.70988676666798
vertex 539.1180747377 348.8069000441003 151.1099205321456
endloop
endfacet
facet normal 0.9999999999994753 -6.565740786850435e-07 -7.86333505236836e-07
outer loop
vertex 539.1180747377 348.8069000441003 151.1099205321456
vertex 539.1180517646815 349.3350267093358 131.70988676666798
vertex 539.118062729731 349.3350199779554 140.63387052223507
endloop
endfacet
facet normal 0.9999999999994753 -6.565740786850435e-07 -7.86333505236836e-07
outer loop
vertex 539.118062729731 349.3350199779554 140.63387052223507
vertex 539.1180745968508 355.1350128880246 151.10992860582496
vertex 539.1180747377 348.8069000441003 151.1099205321456
endloop
endfacet
facet normal 0.9999999999994753 -6.565740786850435e-07 -7.86333505236836e-07
outer loop
vertex 539.1180745968508 355.1350128880246 151.10992860582496
vertex 539.118062729731 349.3350199779554 140.63387052223507
vertex 539.1180630967364 355.1350199779543 140.63387413053098
endloop
endfacet
facet normal -1.5649801754616704e-07 0.9999999999997737 6.543670348662947e-07
outer loop
vertex 537.6180745968509 355.1350128880255 151.10992922834632
vertex 539.1180630967364 355.1350199779543 140.63387413053098
vertex 537.618043076722 355.1350195084589 140.63387413053064
endloop
endfacet
facet normal -1.5649801754616704e-07 0.9999999999997737 6.543670348662947e-07
outer loop
vertex 539.1180630967364 355.1350199779543 140.63387413053098
vertex 537.6180745968509 355.1350128880255 151.10992922834632
vertex 539.1180745968508 355.1350128880246 151.10992860582496
endloop
endfacet
facet normal -0.9999999999954152 -2.150774784669213e-08 3.028066987433824e-06
outer loop
vertex 537.6180747377058 348.8069000206955 151.10992504531345
vertex 537.6180427097166 349.33501950846005 140.63387052223473
vertex 537.6180433602857 336.9594528085981 140.63386295308192
endloop
endfacet
facet normal -0.9999999999954152 -2.150774784669213e-08 3.028066987433824e-06
outer loop
vertex 537.6180427097166 349.33501950846005 140.63387052223473
vertex 537.6180747377058 348.8069000206955 151.10992504531345
vertex 537.6180745968509 355.1350128880255 151.10992922834632
endloop
endfacet
facet normal -0.9999999999954152 -2.150774784669213e-08 3.028066987433824e-06
outer loop
vertex 537.6180427097166 349.33501950846005 140.63387052223473
vertex 537.6180745968509 355.1350128880255 151.10992922834632
vertex 537.618043076722 355.1350195084589 140.63387413053064
endloop
endfacet
facet normal 2.264313303141894e-06 -0.6624187820743437 0.7491337378265754
outer loop
vertex 539.1180433602798 336.9594528320029 140.63385843991426
vertex 537.6180747377058 348.8069000206955 151.10992504531345
vertex 537.6180433602857 336.9594528085981 140.63386295308192
endloop
endfacet
facet normal 2.264313303141894e-06 -0.6624187820743437 0.7491337378265754
outer loop
vertex 537.6180747377058 348.8069000206955 151.10992504531345
vertex 539.1180433602798 336.9594528320029 140.63385843991426
vertex 539.1180747377 348.8069000441003 151.1099205321456
endloop
endfacet
facet normal -4.591488820281128e-14 -6.221200072053285e-07 0.9999999999998065
outer loop
vertex 539.118062729731 349.3350199779554 140.63387052223507
vertex 537.618043076722 355.1350195084589 140.63387413053064
vertex 537.6180427097166 349.33501950846005 140.63387052223473
endloop
endfacet
facet normal -4.591488820281128e-14 -6.221200072053285e-07 0.9999999999998065
outer loop
vertex 537.618043076722 355.1350195084589 140.63387413053064
vertex 539.118062729731 349.3350199779554 140.63387052223507
vertex 539.1180630967364 355.1350199779543 140.63387413053098
endloop
endfacet
facet normal -0.2623937628319406 -6.027654438857089e-07 0.9649608868894801
outer loop
vertex 530.9180427176706 336.9594528085981 138.81198769533802
vertex 537.6180427097166 349.33501950846005 140.63387052223473
vertex 530.9180422394784 349.3350215962332 138.81199528011499
endloop
endfacet
facet normal -0.2623937628319406 -6.027654438857089e-07 0.9649608868894801
outer loop
vertex 537.6180427097166 349.33501950846005 140.63387052223473
vertex 530.9180427176706 336.9594528085981 138.81198769533802
vertex 537.6180433602857 336.9594528085981 140.63386295308192
endloop
endfacet
facet normal 0.0 -1.0 0.0
outer loop
vertex 530.9180427176706 336.9594528085981 140.6338629530821
vertex 530.9180427176706 336.9594528085981 138.81198769533802
vertex 537.6180433602857 336.9594528085981 140.63386295308192
endloop
endfacet
facet normal -0.25881904510243686 -0.9659258262890893 5.537587922871448e-08
outer loop
vertex 535.1786274068428 335.90634800254344 140.63386006590096
vertex 534.8680437569633 335.94723703377855 137.3119947910752
vertex 535.1786266110863 335.9063480253254 137.31199471639417
endloop
endfacet
facet normal -1.83568863850278e-15 -1.0 -6.858191991386612e-09
outer loop
vertex 534.8680437569633 335.94723703377855 137.3119947910752
vertex 535.1786274068428 335.90634800254344 140.63386006590096
vertex 534.8680445527197 335.94723701099656 140.633860140582
endloop
endfacet
facet normal 2.273224134379695e-14 -1.0 -6.858191991392499e-09
outer loop
vertex 534.8680445527197 335.94723701099656 140.633860140582
vertex 534.5574609028401 335.9063480253254 137.3119948651951
vertex 534.8680437569633 335.94723703377855 137.3119947910752
endloop
endfacet
facet normal 0.2588190451024445 -0.9659258262890863 -6.862488876219442e-08
outer loop
vertex 534.5574609028401 335.9063480253254 137.3119948651951
vertex 534.8680445527197 335.94723701099656 140.633860140582
vertex 534.5574616985966 335.90634800254344 140.63386021470208
endloop
endfacet
facet normal 0.25881904510243786 -0.9659258262890882 -6.862488876219284e-08
outer loop
vertex 534.5574616985966 335.90634800254344 140.63386021470208
vertex 534.2680437569633 335.78646751831997 137.31199493370323
vertex 534.5574609028401 335.9063480253254 137.3119948651951
endloop
endfacet
facet normal 0.4999999999999433 -0.8660254037844624 -1.2571491277322004e-07
outer loop
vertex 534.2680437569633 335.78646751831997 137.31199493370323
vertex 534.5574616985966 335.90634800254344 140.63386021470208
vertex 534.2680445527197 335.786467495538 140.63386028321003
endloop
endfacet
facet normal 0.4999999999999639 -0.8660254037844504 -1.2571491277322491e-07
outer loop
vertex 534.2680445527197 335.786467495538 140.63386028321003
vertex 534.0195156195394 335.5957651712025 137.31199499193062
vertex 534.2680437569633 335.78646751831997 137.31199493370323
endloop
endfacet
facet normal 0.7071067811865732 -0.7071067811865005 -1.7423767322971243e-07
outer loop
vertex 534.0195156195394 335.5957651712025 137.31199499193062
vertex 534.2680445527197 335.786467495538 140.63386028321003
vertex 534.0195164152959 335.5957651484205 140.6338603414374
endloop
endfacet
facet normal 0.8660254037843964 -0.5000000000000286 -2.1088642419721275e-07
outer loop
vertex 533.828813272422 335.3472370337786 137.3119950359091
vertex 534.0195164152959 335.5957651484205 140.6338603414374
vertex 533.8288140681785 335.3472370109966 140.6338603854159
endloop
endfacet
facet normal 0.7071067811865843 -0.7071067811864893 -1.7423767322971505e-07
outer loop
vertex 534.0195164152959 335.5957651484205 140.6338603414374
vertex 533.828813272422 335.3472370337786 137.3119950359091
vertex 534.0195156195394 335.5957651712025 137.31199499193062
endloop
endfacet
facet normal 0.9659258262890201 -0.25881904510259546 -2.3316361386480434e-07
outer loop
vertex 533.7089327654164 335.0578198879017 137.31199506264167
vertex 533.8288140681785 335.3472370109966 140.6338603854159
vertex 533.7089335611729 335.0578198651197 140.63386041214864
endloop
endfacet
facet normal 0.8660254037843971 -0.5000000000000276 -2.1088642419721288e-07
outer loop
vertex 533.8288140681785 335.3472370109966 140.6338603854159
vertex 533.7089327654164 335.0578198879017 137.31199506264167
vertex 533.828813272422 335.3472370337786 137.3119950359091
endloop
endfacet
facet normal 0.9999999999999715 -8.340798862324338e-15 -2.395510885670392e-07
outer loop
vertex 533.6680437569634 334.7472370337787 137.31199507030675
vertex 533.7089335611729 335.0578198651197 140.63386041214864
vertex 533.6680445527198 334.7472370109967 140.63386041981354
endloop
endfacet
facet normal 0.9659258262890228 -0.2588190451025855 -2.3316361386480487e-07
outer loop
vertex 533.7089335611729 335.0578198651197 140.63386041214864
vertex 533.6680437569634 334.7472370337787 137.31199507030675
vertex 533.7089327654164 335.0578198879017 137.31199506264167
endloop
endfacet
facet normal 0.9659258262890217 0.25881904510259324 -2.2961355246009053e-07
outer loop
vertex 533.7089327654164 334.4366541796556 137.31199505838165
vertex 533.6680445527198 334.7472370109967 140.63386041981354
vertex 533.7089335611729 334.4366541568736 140.63386040788845
endloop
endfacet
facet normal 0.9999999999999714 -1.2582487172652845e-14 -2.3955108856703914e-07
outer loop
vertex 533.6680445527198 334.7472370109967 140.63386041981354
vertex 533.7089327654164 334.4366541796556 137.31199505838165
vertex 533.6680437569634 334.7472370337787 137.31199507030675
endloop
endfacet
facet normal 0.8660254037843975 0.50000000000003 -2.0402823220661286e-07
outer loop
vertex 533.828813272422 334.1472370337787 137.3119950276793
vertex 533.7089335611729 334.4366541568736 140.63386040788845
vertex 533.8288140681785 334.1472370109967 140.6338603771861
endloop
endfacet
facet normal 0.9659258262890216 0.25881904510259374 -2.2961355246009048e-07
outer loop
vertex 533.7089335611729 334.4366541568736 140.63386040788845
vertex 533.828813272422 334.1472370337787 137.3119950276793
vertex 533.7089327654164 334.4366541796556 137.31199505838165
endloop
endfacet
facet normal 0.7071067811865861 0.70710678118649 -1.645387251012748e-07
outer loop
vertex 534.0195156195394 333.89870889635483 137.31199498029196
vertex 533.8288140681785 334.1472370109967 140.6338603771861
vertex 534.0195164152959 333.89870887357284 140.63386032979875
endloop
endfacet
facet normal 0.866025403784385 0.5000000000000515 -2.0402823220660965e-07
outer loop
vertex 533.8288140681785 334.1472370109967 140.6338603771861
vertex 534.0195156195394 333.89870889635483 137.31199498029196
vertex 533.828813272422 334.1472370337787 137.3119950276793
endloop
endfacet
facet normal 0.7071067811865861 0.70710678118649 -1.645387251012748e-07
outer loop
vertex 534.0195156195394 333.89870889635483 137.31199498029196
vertex 534.2680445527197 333.70800652645534 140.63386026895571
vertex 534.2680437569633 333.7080065492373 137.31199491944892
endloop
endfacet
facet normal 0.4999999999999575 0.8660254037844558 -1.1383617579319972e-07
outer loop
vertex 534.2680445527197 333.70800652645534 140.63386026895571
vertex 534.0195156195394 333.89870889635483 137.31199498029196
vertex 534.0195164152959 333.89870887357284 140.63386032979875
endloop
endfacet
facet normal 0.49999999999997513 0.8660254037844456 -1.1383617579320402e-07
outer loop
vertex 534.2680437569633 333.7080065492373 137.31199491944892
vertex 534.5574616985966 333.5881260194499 140.6338601988034
vertex 534.5574609028401 333.58812604223186 137.31199484929664
endloop
endfacet
facet normal 0.2588190451024514 0.9659258262890853 -5.537587922871802e-08
outer loop
vertex 534.5574616985966 333.5881260194499 140.6338601988034
vertex 534.2680437569633 333.7080065492373 137.31199491944892
vertex 534.2680445527197 333.70800652645534 140.63386026895571
endloop
endfacet
facet normal 0.25881904510243686 0.9659258262890893 -5.537587922871448e-08
outer loop
vertex 534.5574609028401 333.58812604223186 137.31199484929664
vertex 534.8680445527197 333.54723701099675 140.6338601241224
vertex 534.8680437569633 333.54723703377874 137.3119947746156
endloop
endfacet
facet normal 1.83568863850278e-15 1.0 6.858191991386612e-09
outer loop
vertex 534.8680445527197 333.54723701099675 140.6338601241224
vertex 534.5574609028401 333.58812604223186 137.31199484929664
vertex 534.5574616985966 333.5881260194499 140.6338601988034
endloop
endfacet
facet normal -2.273224134379695e-14 1.0 6.858191991392499e-09
outer loop
vertex 534.8680437569633 333.54723703377874 137.3119947746156
vertex 535.1786274068428 333.5881260194499 140.63386005000248
vertex 535.1786266110863 333.58812604223186 137.31199470049552
endloop
endfacet
facet normal -0.2588190451024445 0.9659258262890863 6.862488876219442e-08
outer loop
vertex 535.1786274068428 333.5881260194499 140.63386005000248
vertex 534.8680437569633 333.54723703377874 137.3119947746156
vertex 534.8680445527197 333.54723701099675 140.6338601241224
endloop
endfacet
facet normal -0.25881904510243786 0.9659258262890882 6.862488876219284e-08
outer loop
vertex 535.1786266110863 333.58812604223186 137.31199470049552
vertex 535.4680445527197 333.70800652645534 140.63385998149437
vertex 535.4680437569632 333.7080065492373 137.31199463198757
endloop
endfacet
facet normal -0.4999999999999433 0.8660254037844624 1.2571491277322004e-07
outer loop
vertex 535.4680445527197 333.70800652645534 140.63385998149437
vertex 535.1786266110863 333.58812604223186 137.31199470049552
vertex 535.1786274068428 333.5881260194499 140.63386005000248
endloop
endfacet
facet normal -0.4999999999999639 0.8660254037844504 1.2571491277322491e-07
outer loop
vertex 535.4680437569632 333.7080065492373 137.31199463198757
vertex 535.7165726901435 333.89870887357284 140.63385992326698
vertex 535.716571894387 333.89870889635483 137.3119945737602
endloop
endfacet
facet normal -0.7071067811865732 0.7071067811865005 1.7423767322971243e-07
outer loop
vertex 535.7165726901435 333.89870887357284 140.63385992326698
vertex 535.4680437569632 333.7080065492373 137.31199463198757
vertex 535.4680445527197 333.70800652645534 140.63385998149437
endloop
endfacet
facet normal -0.8660254037843964 0.5000000000000286 2.1088642419721275e-07
outer loop
vertex 535.9072750372609 334.1472370109967 140.63385987928848
vertex 535.716571894387 333.89870889635483 137.3119945737602
vertex 535.7165726901435 333.89870887357284 140.63385992326698
endloop
endfacet
facet normal -0.7071067811865843 0.7071067811864893 1.7423767322971505e-07
outer loop
vertex 535.716571894387 333.89870889635483 137.3119945737602
vertex 535.9072750372609 334.1472370109967 140.63385987928848
vertex 535.9072742415044 334.1472370337787 137.3119945297817
endloop
endfacet
facet normal -0.9659258262890201 0.25881904510259546 2.3316361386480434e-07
outer loop
vertex 536.0271555442665 334.4366541568736 140.63385985255593
vertex 535.9072742415044 334.1472370337787 137.3119945297817
vertex 535.9072750372609 334.1472370109967 140.63385987928848
endloop
endfacet
facet normal -0.8660254037843971 0.5000000000000278 2.1088642419721288e-07
outer loop
vertex 535.9072742415044 334.1472370337787 137.3119945297817
vertex 536.0271555442665 334.4366541568736 140.63385985255593
vertex 536.02715474851 334.4366541796556 137.31199450304896
endloop
endfacet
facet normal -0.9999999999999715 8.340798862324338e-15 2.395510885670392e-07
outer loop
vertex 536.0680445527196 334.7472370109967 140.63385984489085
vertex 536.02715474851 334.4366541796556 137.31199450304896
vertex 536.0271555442665 334.4366541568736 140.63385985255593
endloop
endfacet
facet normal -0.9659258262890228 0.2588190451025855 2.3316361386480487e-07
outer loop
vertex 536.02715474851 334.4366541796556 137.31199450304896
vertex 536.0680445527196 334.7472370109967 140.63385984489085
vertex 536.0680437569631 334.7472370337787 137.31199449538406
endloop
endfacet
facet normal -0.9659258262890217 -0.2588190451025932 2.2961355246009053e-07
outer loop
vertex 536.0271555442665 335.0578198651197 140.63385985681592
vertex 536.0680437569631 334.7472370337787 137.31199449538406
vertex 536.0680445527196 334.7472370109967 140.63385984489085
endloop
endfacet
facet normal -0.9999999999999714 1.2582487172652845e-14 2.3955108856703914e-07
outer loop
vertex 536.0680437569631 334.7472370337787 137.31199449538406
vertex 536.0271555442665 335.0578198651197 140.63385985681592
vertex 536.02715474851 335.0578198879017 137.31199450730915
endloop
endfacet
facet normal -0.8660254037843975 -0.50000000000003 2.040282322075859e-07
outer loop
vertex 535.9072750372609 335.3472370109966 140.63385988751827
vertex 536.02715474851 335.0578198879017 137.31199450730915
vertex 536.0271555442665 335.0578198651197 140.63385985681592
endloop
endfacet
facet normal -0.9659258262890216 -0.25881904510259374 2.2961355246009048e-07
outer loop
vertex 536.02715474851 335.0578198879017 137.31199450730915
vertex 535.9072750372609 335.3472370109966 140.63385988751827
vertex 535.9072742415044 335.3472370337786 137.3119945380115
endloop
endfacet
facet normal -0.7071067811865861 -0.70710678118649 1.6453872510224783e-07
outer loop
vertex 535.7165726901435 335.5957651484205 140.63385993490564
vertex 535.9072742415044 335.3472370337786 137.3119945380115
vertex 535.9072750372609 335.3472370109966 140.63385988751827
endloop
endfacet
facet normal -0.866025403784385 -0.5000000000000515 2.040282322075827e-07
outer loop
vertex 535.9072742415044 335.3472370337786 137.3119945380115
vertex 535.7165726901435 335.5957651484205 140.63385993490564
vertex 535.716571894387 335.5957651712025 137.31199458539885
endloop
endfacet
facet normal -0.7071067811865861 -0.70710678118649 1.6453872510224783e-07
outer loop
vertex 535.7165726901435 335.5957651484205 140.63385993490564
vertex 535.4680437569632 335.78646751831997 137.31199464624189
vertex 535.716571894387 335.5957651712025 137.31199458539885
endloop
endfacet
facet normal -0.4999999999999575 -0.8660254037844558 1.1383617579319972e-07
outer loop
vertex 535.4680437569632 335.78646751831997 137.31199464624189
vertex 535.7165726901435 335.5957651484205 140.63385993490564
vertex 535.4680445527197 335.786467495538 140.63385999574868
endloop
endfacet
facet normal -0.4999999999999752 -0.8660254037844456 1.1383617579320402e-07
outer loop
vertex 535.4680445527197 335.786467495538 140.63385999574868
vertex 535.1786266110863 335.9063480253254 137.31199471639417
vertex 535.4680437569632 335.78646751831997 137.31199464624189
endloop
endfacet
facet normal -0.25881904510245146 -0.9659258262890853 5.537587922871802e-08
outer loop
vertex 535.1786266110863 335.9063480253254 137.31199471639417
vertex 535.4680445527197 335.786467495538 140.63385999574868
vertex 535.1786274068428 335.90634800254344 140.63386006590096
endloop
endfacet
facet normal 4.0569361622756267e-07 -8.250181800788121e-08 0.9999999999999143
outer loop
vertex 530.9180428622242 329.47738659383856 140.6338629530821
vertex 533.7089335611729 334.4366541568736 140.63386040788845
vertex 533.6680445527198 334.7472370109967 140.63386041981354
endloop
endfacet
facet normal 4.0569361622756267e-07 -8.250181800788121e-08 0.9999999999999143
outer loop
vertex 533.7089335611729 334.4366541568736 140.63386040788845
vertex 530.9180428622242 329.47738659383856 140.6338629530821
vertex 533.8288140681785 334.1472370109967 140.6338603771861
endloop
endfacet
facet normal 4.0569361622756267e-07 -8.250181800788121e-08 0.9999999999999143
outer loop
vertex 533.8288140681785 334.1472370109967 140.6338603771861
vertex 530.9180428622242 329.47738659383856 140.6338629530821
vertex 534.0195164152959 333.89870887357284 140.63386032979875
endloop
endfacet
facet normal 4.0569361622756267e-07 -8.250181800788121e-08 0.9999999999999143
outer loop
vertex 534.0195164152959 333.89870887357284 140.63386032979875
vertex 530.9180428622242 329.47738659383856 140.6338629530821
vertex 539.1180433602801 329.47738678086336 140.63385941293768
endloop
endfacet
facet normal 4.0569361622756267e-07 -8.250181800788121e-08 0.9999999999999143
outer loop
vertex 534.0195164152959 333.89870887357284 140.63386032979875
vertex 539.1180433602801 329.47738678086336 140.63385941293768
vertex 534.2680445527197 333.70800652645534 140.63386026895571
endloop
endfacet
facet normal 4.0569361622756267e-07 -8.250181800788121e-08 0.9999999999999143
outer loop
vertex 534.2680445527197 333.70800652645534 140.63386026895571
vertex 539.1180433602801 329.47738678086336 140.63385941293768
vertex 534.5574616985966 333.5881260194499 140.6338601988034
endloop
endfacet
facet normal 4.0569361622756267e-07 -8.250181800788121e-08 0.9999999999999143
outer loop
vertex 534.5574616985966 333.5881260194499 140.6338601988034
vertex 539.1180433602801 329.47738678086336 140.63385941293768
vertex 534.8680445527197 333.54723701099675 140.6338601241224
endloop
endfacet
facet normal 4.0569361622756267e-07 -8.250181800788121e-08 0.9999999999999143
outer loop
vertex 534.8680445527197 333.54723701099675 140.6338601241224
vertex 539.1180433602801 329.47738678086336 140.63385941293768
vertex 535.1786274068428 333.5881260194499 140.63386005000248
endloop
endfacet
facet normal 4.0569361622756267e-07 -8.250181800788121e-08 0.9999999999999143
outer loop
vertex 535.1786274068428 333.5881260194499 140.63386005000248
vertex 539.1180433602801 329.47738678086336 140.63385941293768
vertex 535.4680445527197 333.70800652645534 140.63385998149437
endloop
endfacet
facet normal 4.0569361622756267e-07 -8.250181800788121e-08 0.9999999999999143
outer loop
vertex 535.4680445527197 333.70800652645534 140.63385998149437
vertex 539.1180433602801 329.47738678086336 140.63385941293768
vertex 535.7165726901435 333.89870887357284 140.63385992326698
endloop
endfacet
facet normal 4.0569361622756267e-07 -8.250181800788121e-08 0.9999999999999143
outer loop
vertex 535.7165726901435 333.89870887357284 140.63385992326698
vertex 539.1180433602801 329.47738678086336 140.63385941293768
vertex 535.9072750372609 334.1472370109967 140.63385987928848
endloop
endfacet
facet normal 4.0569361622756267e-07 -8.250181800788121e-08 0.9999999999999143
outer loop
vertex 535.9072750372609 334.1472370109967 140.63385987928848
vertex 539.1180433602801 329.47738678086336 140.63385941293768
vertex 536.0271555442665 334.4366541568736 140.63385985255593
endloop
endfacet
facet normal 4.0569361622756267e-07 -8.250181800788121e-08 0.9999999999999143
outer loop
vertex 536.0271555442665 334.4366541568736 140.63385985255593
vertex 539.1180433602801 329.47738678086336 140.63385941293768
vertex 536.0680445527196 334.7472370109967 140.63385984489085
endloop
endfacet
facet normal 4.0569361622756267e-07 -8.250181800788121e-08 0.9999999999999143
outer loop
vertex 536.0680445527196 334.7472370109967 140.63385984489085
vertex 539.1180433602801 329.47738678086336 140.63385941293768
vertex 537.6180433602857 336.9594528085981 140.63386295308192
endloop
endfacet
facet normal 4.0569361622756267e-07 -8.250181800788121e-08 0.9999999999999143
outer loop
vertex 537.6180433602857 336.9594528085981 140.63386295308192
vertex 539.1180433602801 329.47738678086336 140.63385941293768
vertex 539.1180433602798 336.9594528320029 140.63385843991426
endloop
endfacet
facet normal 4.0569361622756267e-07 -8.250181800788121e-08 0.9999999999999143
outer loop
vertex 530.9180427176706 336.9594528085981 140.6338629530821
vertex 534.5574616985966 335.90634800254344 140.63386021470208
vertex 537.6180433602857 336.9594528085981 140.63386295308192
endloop
endfacet
facet normal 4.0569361622756267e-07 -8.250181800788121e-08 0.9999999999999143
outer loop
vertex 534.5574616985966 335.90634800254344 140.63386021470208
vertex 530.9180427176706 336.9594528085981 140.6338629530821
vertex 534.2680445527197 335.786467495538 140.63386028321003
endloop
endfacet
facet normal 4.0569361622756267e-07 -8.250181800788121e-08 0.9999999999999143
outer loop
vertex 534.2680445527197 335.786467495538 140.63386028321003
vertex 530.9180427176706 336.9594528085981 140.6338629530821
vertex 534.0195164152959 335.5957651484205 140.6338603414374
endloop
endfacet
facet normal 4.0569361622756267e-07 -8.250181800788121e-08 0.9999999999999143
outer loop
vertex 534.0195164152959 335.5957651484205 140.6338603414374
vertex 530.9180427176706 336.9594528085981 140.6338629530821
vertex 533.8288140681785 335.3472370109966 140.6338603854159
endloop
endfacet
facet normal 4.0569361622756267e-07 -8.250181800788121e-08 0.9999999999999143
outer loop
vertex 533.8288140681785 335.3472370109966 140.6338603854159
vertex 530.9180427176706 336.9594528085981 140.6338629530821
vertex 530.9180428622242 329.47738659383856 140.6338629530821
endloop
endfacet
facet normal 4.0569361622756267e-07 -8.250181800788121e-08 0.9999999999999143
outer loop
vertex 533.8288140681785 335.3472370109966 140.6338603854159
vertex 530.9180428622242 329.47738659383856 140.6338629530821
vertex 533.7089335611729 335.0578198651197 140.63386041214864
endloop
endfacet
facet normal 4.0569361622756267e-07 -8.250181800788121e-08 0.9999999999999143
outer loop
vertex 533.7089335611729 335.0578198651197 140.63386041214864
vertex 530.9180428622242 329.47738659383856 140.6338629530821
vertex 533.6680445527198 334.7472370109967 140.63386041981354
endloop
endfacet
facet normal 4.0569361622756267e-07 -8.250181800788121e-08 0.9999999999999143
outer loop
vertex 537.6180433602857 336.9594528085981 140.63386295308192
vertex 534.5574616985966 335.90634800254344 140.63386021470208
vertex 534.8680445527197 335.94723701099656 140.633860140582
endloop
endfacet
facet normal 4.0569361622756267e-07 -8.250181800788121e-08 0.9999999999999143
outer loop
vertex 537.6180433602857 336.9594528085981 140.63386295308192
vertex 534.8680445527197 335.94723701099656 140.633860140582
vertex 535.1786274068428 335.90634800254344 140.63386006590096
endloop
endfacet
facet normal 4.0569361622756267e-07 -8.250181800788121e-08 0.9999999999999143
outer loop
vertex 537.6180433602857 336.9594528085981 140.63386295308192
vertex 535.1786274068428 335.90634800254344 140.63386006590096
vertex 535.4680445527197 335.786467495538 140.63385999574868
endloop
endfacet
facet normal 4.0569361622756267e-07 -8.250181800788121e-08 0.9999999999999143
outer loop
vertex 537.6180433602857 336.9594528085981 140.63386295308192
vertex 535.4680445527197 335.786467495538 140.63385999574868
vertex 535.7165726901435 335.5957651484205 140.63385993490564
endloop
endfacet
facet normal 4.0569361622756267e-07 -8.250181800788121e-08 0.9999999999999143
outer loop
vertex 537.6180433602857 336.9594528085981 140.63386295308192
vertex 535.7165726901435 335.5957651484205 140.63385993490564
vertex 535.9072750372609 335.3472370109966 140.63385988751827
endloop
endfacet
facet normal 4.0569361622756267e-07 -8.250181800788121e-08 0.9999999999999143
outer loop
vertex 537.6180433602857 336.9594528085981 140.63386295308192
vertex 535.9072750372609 335.3472370109966 140.63385988751827
vertex 536.0271555442665 335.0578198651197 140.63385985681592
endloop
endfacet
facet normal 4.0569361622756267e-07 -8.250181800788121e-08 0.9999999999999143
outer loop
vertex 537.6180433602857 336.9594528085981 140.63386295308192
vertex 536.0271555442665 335.0578198651197 140.63385985681592
vertex 536.0680445527196 334.7472370109967 140.63385984489085
endloop
endfacet
facet normal 8.221073564964503e-08 -0.9999999999997822 -6.548297730620636e-07
outer loop
vertex 539.1180517646862 329.477393111641 131.7099045101631
vertex 530.9180428622242 329.47738659383856 140.6338629530821
vertex 530.9180420325189 329.4773919504109 131.70989867111453
endloop
endfacet
facet normal 8.221073564964503e-08 -0.9999999999997822 -6.548297730620636e-07
outer loop
vertex 530.9180428622242 329.47738659383856 140.6338629530821
vertex 539.1180517646862 329.477393111641 131.7099045101631
vertex 539.1180433602801 329.47738678086336 140.63385941293768
endloop
endfacet
facet normal 1.3359309672470416e-06 -1.151148850016522e-06 -0.999999999998445
outer loop
vertex 539.1180517646815 349.3350267093358 131.70988676666798
vertex 530.9180420325189 329.4773919504109 131.70989867111453
vertex 530.9180412652195 349.3350276324945 131.70987069642274
endloop
endfacet
facet normal 1.3359309672470416e-06 -1.151148850016522e-06 -0.999999999998445
outer loop
vertex 530.9180420325189 329.4773919504109 131.70989867111453
vertex 539.1180517646815 349.3350267093358 131.70988676666798
vertex 539.1180517646862 329.477393111641 131.7099045101631
endloop
endfacet
facet normal 7.445926604733659e-08 0.9999999999996705 8.08522228021263e-07
outer loop
vertex 530.9180422394784 349.3350215962332 138.81199528011499
vertex 539.1180517646815 349.3350267093358 131.70988676666798
vertex 530.9180412652195 349.3350276324945 131.70987069642274
endloop
endfacet
facet normal 7.445926604733659e-08 0.9999999999996705 8.08522228021263e-07
outer loop
vertex 539.1180517646815 349.3350267093358 131.70988676666798
vertex 530.9180422394784 349.3350215962332 138.81199528011499
vertex 539.118062729731 349.3350199779554 140.63387052223507
endloop
endfacet
facet normal 7.445926604733659e-08 0.9999999999996705 8.08522228021263e-07
outer loop
vertex 539.118062729731 349.3350199779554 140.63387052223507
vertex 530.9180422394784 349.3350215962332 138.81199528011499
vertex 537.6180427097166 349.33501950846005 140.63387052223473
endloop
endfacet
facet normal -1.2103738804553822e-21 -0.9999999999999027 -4.4121694544040976e-07
outer loop
vertex 539.1180570498769 346.9350212016922 137.3119969073811
vertex 530.9180420128648 346.9350229457141 133.3592433467732
vertex 539.1180570498767 346.9350229457141 133.35924334677304
endloop
endfacet
facet normal -1.2103738804553822e-21 -0.9999999999999027 -4.4121694544040976e-07
outer loop
vertex 530.9180420128648 346.9350229457141 133.3592433467732
vertex 539.1180570498769 346.9350212016922 137.3119969073811
vertex 530.9180420128648 346.9350212016922 137.31199690738126
endloop
endfacet
facet normal 5.502363506745792e-15 -2.415889819307211e-07 0.9999999999999709
outer loop
vertex 539.1180560074238 331.53502294571484 133.35923942667492
vertex 530.9180420128648 346.9350229457141 133.3592433467732
vertex 530.9180409704117 331.53502294571484 133.35923942667492
endloop
endfacet
facet normal 5.502363506745792e-15 -2.415889819307211e-07 0.9999999999999709
outer loop
vertex 530.9180420128648 346.9350229457141 133.3592433467732
vertex 539.1180560074238 331.53502294571484 133.35923942667492
vertex 539.1180570498767 346.9350229457141 133.35924334677304
endloop
endfacet
facet normal -7.713139764950018e-08 1.8780776528519526e-07 -0.9999999999999796
outer loop
vertex 530.9180420128648 346.9350212016922 137.31199690738126
vertex 533.7089327654164 335.0578198879017 137.31199506264167
vertex 533.6680437569634 334.7472370337787 137.31199507030675
endloop
endfacet
facet normal -7.713139764950018e-08 1.8780776528519526e-07 -0.9999999999999796
outer loop
vertex 533.7089327654164 335.0578198879017 137.31199506264167
vertex 530.9180420128648 346.9350212016922 137.31199690738126
vertex 533.828813272422 335.3472370337786 137.3119950359091
endloop
endfacet
facet normal -7.713139764950018e-08 1.8780776528519526e-07 -0.9999999999999796
outer loop
vertex 533.828813272422 335.3472370337786 137.3119950359091
vertex 530.9180420128648 346.9350212016922 137.31199690738126
vertex 539.1180570498769 346.9350212016922 137.3119969073811
endloop
endfacet
facet normal -7.713139764950018e-08 1.8780776528519526e-07 -0.9999999999999796
outer loop
vertex 533.828813272422 335.3472370337786 137.3119950359091
vertex 539.1180570498769 346.9350212016922 137.3119969073811
vertex 534.0195156195394 335.5957651712025 137.31199499193062
endloop
endfacet
facet normal -7.713139764950018e-08 1.8780776528519526e-07 -0.9999999999999796
outer loop
vertex 534.0195156195394 335.5957651712025 137.31199499193062
vertex 539.1180570498769 346.9350212016922 137.3119969073811
vertex 534.2680437569633 335.78646751831997 137.31199493370323
endloop
endfacet
facet normal -7.713139764950018e-08 1.8780776528519526e-07 -0.9999999999999796
outer loop
vertex 534.2680437569633 335.78646751831997 137.31199493370323
vertex 539.1180570498769 346.9350212016922 137.3119969073811
vertex 534.5574609028401 335.9063480253254 137.3119948651951
endloop
endfacet
facet normal -7.713139764950018e-08 1.8780776528519526e-07 -0.9999999999999796
outer loop
vertex 534.5574609028401 335.9063480253254 137.3119948651951
vertex 539.1180570498769 346.9350212016922 137.3119969073811
vertex 534.8680437569633 335.94723703377855 137.3119947910752
endloop
endfacet
facet normal -7.713139764950018e-08 1.8780776528519526e-07 -0.9999999999999796
outer loop
vertex 534.8680437569633 335.94723703377855 137.3119947910752
vertex 539.1180570498769 346.9350212016922 137.3119969073811
vertex 535.1786266110863 335.9063480253254 137.31199471639417
endloop
endfacet
facet normal -7.713139764950018e-08 1.8780776528519526e-07 -0.9999999999999796
outer loop
vertex 535.1786266110863 335.9063480253254 137.31199471639417
vertex 539.1180570498769 346.9350212016922 137.3119969073811
vertex 535.4680437569632 335.78646751831997 137.31199464624189
endloop
endfacet
facet normal -7.713139764950018e-08 1.8780776528519526e-07 -0.9999999999999796
outer loop
vertex 535.4680437569632 335.78646751831997 137.31199464624189
vertex 539.1180570498769 346.9350212016922 137.3119969073811
vertex 535.716571894387 335.5957651712025 137.31199458539885
endloop
endfacet
facet normal -7.713139764950018e-08 1.8780776528519526e-07 -0.9999999999999796
outer loop
vertex 535.716571894387 335.5957651712025 137.31199458539885
vertex 539.1180570498769 346.9350212016922 137.3119969073811
vertex 535.9072742415044 335.3472370337786 137.3119945380115
endloop
endfacet
facet normal -7.713139764950018e-08 1.8780776528519526e-07 -0.9999999999999796
outer loop
vertex 535.9072742415044 335.3472370337786 137.3119945380115
vertex 539.1180570498769 346.9350212016922 137.3119969073811
vertex 536.02715474851 335.0578198879017 137.31199450730915
endloop
endfacet
facet normal -7.713139764950018e-08 1.8780776528519526e-07 -0.9999999999999796
outer loop
vertex 536.02715474851 335.0578198879017 137.31199450730915
vertex 539.1180570498769 346.9350212016922 137.3119969073811
vertex 536.0680437569631 334.7472370337787 137.31199449538406
endloop
endfacet
facet normal -7.713139764950018e-08 1.8780776528519526e-07 -0.9999999999999796
outer loop
vertex 536.0680437569631 334.7472370337787 137.31199449538406
vertex 539.1180570498769 346.9350212016922 137.3119969073811
vertex 539.1180560074239 331.535021201693 137.31199298728276
endloop
endfacet
facet normal -7.713139764950018e-08 1.8780776528519526e-07 -0.9999999999999796
outer loop
vertex 530.9180409704117 331.535021201693 137.31199298728296
vertex 534.2680437569633 333.7080065492373 137.31199491944892
vertex 539.1180560074239 331.535021201693 137.31199298728276
endloop
endfacet
facet normal -7.713139764950018e-08 1.8780776528519526e-07 -0.9999999999999796
outer loop
vertex 534.2680437569633 333.7080065492373 137.31199491944892
vertex 530.9180409704117 331.535021201693 137.31199298728296
vertex 534.0195156195394 333.89870889635483 137.31199498029196
endloop
endfacet
facet normal -7.713139764950018e-08 1.8780776528519526e-07 -0.9999999999999796
outer loop
vertex 534.0195156195394 333.89870889635483 137.31199498029196
vertex 530.9180409704117 331.535021201693 137.31199298728296
vertex 533.828813272422 334.1472370337787 137.3119950276793
endloop
endfacet
facet normal -7.713139764950018e-08 1.8780776528519526e-07 -0.9999999999999796
outer loop
vertex 533.828813272422 334.1472370337787 137.3119950276793
vertex 530.9180409704117 331.535021201693 137.31199298728296
vertex 533.7089327654164 334.4366541796556 137.31199505838165
endloop
endfacet
facet normal -7.713139764950018e-08 1.8780776528519526e-07 -0.9999999999999796
outer loop
vertex 533.7089327654164 334.4366541796556 137.31199505838165
vertex 530.9180409704117 331.535021201693 137.31199298728296
vertex 530.9180420128648 346.9350212016922 137.31199690738126
endloop
endfacet
facet normal -7.713139764950018e-08 1.8780776528519526e-07 -0.9999999999999796
outer loop
vertex 533.7089327654164 334.4366541796556 137.31199505838165
vertex 530.9180420128648 346.9350212016922 137.31199690738126
vertex 533.6680437569634 334.7472370337787 137.31199507030675
endloop
endfacet
facet normal -7.713139764950018e-08 1.8780776528519526e-07 -0.9999999999999796
outer loop
vertex 539.1180560074239 331.535021201693 137.31199298728276
vertex 534.2680437569633 333.7080065492373 137.31199491944892
vertex 534.5574609028401 333.58812604223186 137.31199484929664
endloop
endfacet
facet normal -7.713139764950018e-08 1.8780776528519526e-07 -0.9999999999999796
outer loop
vertex 539.1180560074239 331.535021201693 137.31199298728276
vertex 534.5574609028401 333.58812604223186 137.31199484929664
vertex 534.8680437569633 333.54723703377874 137.3119947746156
endloop
endfacet
facet normal -7.713139764950018e-08 1.8780776528519526e-07 -0.9999999999999796
outer loop
vertex 539.1180560074239 331.535021201693 137.31199298728276
vertex 534.8680437569633 333.54723703377874 137.3119947746156
vertex 535.1786266110863 333.58812604223186 137.31199470049552
endloop
endfacet
facet normal -7.713139764950018e-08 1.8780776528519526e-07 -0.9999999999999796
outer loop
vertex 539.1180560074239 331.535021201693 137.31199298728276
vertex 535.1786266110863 333.58812604223186 137.31199470049552
vertex 535.4680437569632 333.7080065492373 137.31199463198757
endloop
endfacet
facet normal -7.713139764950018e-08 1.8780776528519526e-07 -0.9999999999999796
outer loop
vertex 539.1180560074239 331.535021201693 137.31199298728276
vertex 535.4680437569632 333.7080065492373 137.31199463198757
vertex 535.716571894387 333.89870889635483 137.3119945737602
endloop
endfacet
facet normal -7.713139764950018e-08 1.8780776528519526e-07 -0.9999999999999796
outer loop
vertex 539.1180560074239 331.535021201693 137.31199298728276
vertex 535.716571894387 333.89870889635483 137.3119945737602
vertex 535.9072742415044 334.1472370337787 137.3119945297817
endloop
endfacet
facet normal -7.713139764950018e-08 1.8780776528519526e-07 -0.9999999999999796
outer loop
vertex 539.1180560074239 331.535021201693 137.31199298728276
vertex 535.9072742415044 334.1472370337787 137.3119945297817
vertex 536.02715474851 334.4366541796556 137.31199450304896
endloop
endfacet
facet normal -7.713139764950018e-08 1.8780776528519526e-07 -0.9999999999999796
outer loop
vertex 539.1180560074239 331.535021201693 137.31199298728276
vertex 536.02715474851 334.4366541796556 137.31199450304896
vertex 536.0680437569631 334.7472370337787 137.31199449538406
endloop
endfacet
facet normal 2.43041656252488e-21 0.9999999999999027 4.4121694544041236e-07
outer loop
vertex 530.9180409704117 331.535021201693 137.31199298728296
vertex 539.1180560074238 331.53502294571484 133.35923942667492
vertex 530.9180409704117 331.53502294571484 133.35923942667492
endloop
endfacet
facet normal 2.43041656252488e-21 0.9999999999999027 4.4121694544041236e-07
outer loop
vertex 539.1180560074238 331.53502294571484 133.35923942667492
vertex 530.9180409704117 331.535021201693 137.31199298728296
vertex 539.1180560074239 331.535021201693 137.31199298728276
endloop
endfacet
endsolid Falla3d_ver2~
