solid Falla3d_ver2
facet normal -6.8514518198161295e-09 0.8880220005224095 0.45980096410096605
outer loop
vertex 1820.7965743737107 1.6157032452596096 60.99889129322907
vertex 1730.7965743910195 2.2171366178926424 59.837330694021226
vertex 1730.7965743737109 1.615703245260419 60.99888995214731
endloop
endfacet
facet normal -6.2704426388658476e-09 0.9071491035772186 0.4208093438590083
outer loop
vertex 1730.7965743910195 2.2171366178926424 59.837330694021226
vertex 1820.7965743737107 1.6157032452596096 60.99889129322907
vertex 1820.7965743910197 2.217136617892555 59.83733203510302
endloop
endfacet
facet normal -2.5758045671772557e-09 0.9849460102235437 0.17286224846600642
outer loop
vertex 1820.7965744466699 3.3889525242521468 56.10262891074825
vertex 1730.7965744659962 3.558908489680128 54.80568617481868
vertex 1730.7965744466703 3.3889525242522343 56.102627569666865
endloop
endfacet
facet normal -1.2927754777610765e-09 0.9962293938204057 0.08675825544711702
outer loop
vertex 1730.7965744659962 3.558908489680128 54.80568617481868
vertex 1820.7965744466699 3.3889525242521468 56.10262891074825
vertex 1820.796574465996 3.5589084896804017 54.80568751590043
endloop
endfacet
facet normal -3.839408538154835e-09 0.9662349396012463 0.2576626505603328
outer loop
vertex 1730.7965744276373 3.1071170230043563 57.379933626213
vertex 1820.7965744466699 3.3889525242521468 56.10262891074825
vertex 1730.7965744466703 3.3889525242522343 56.102627569666865
endloop
endfacet
facet normal -2.5758045671772557e-09 0.9849460102235437 0.17286224846600642
outer loop
vertex 1820.7965744466699 3.3889525242521468 56.10262891074825
vertex 1730.7965744276373 3.1071170230043563 57.379933626213
vertex 1820.7965744276369 3.107117023003908 57.379934967293984
endloop
endfacet
facet normal 1.0 2.966710940706888e-14 1.4900937231577347e-08
outer loop
vertex 1827.2965743737107 1.6157032452603173 60.998891390085774
vertex 1827.2965745972247 8.61570324526026 45.99889139008634
vertex 1827.2965743737104 8.61570324526053 60.99889139008649
endloop
endfacet
facet normal 1.0 2.966710940706888e-14 1.4900937231577347e-08
outer loop
vertex 1827.2965745972247 8.61570324526026 45.99889139008634
vertex 1827.2965743737107 1.6157032452603173 60.998891390085774
vertex 1827.296574597225 1.6157032452604077 45.998891390085575
endloop
endfacet
facet normal -1.1420412629443791e-13 1.0 -2.0385732038784688e-14
outer loop
vertex 1827.2965743737104 8.61570324526053 60.99889139008649
vertex 1820.796574597225 8.615703245259484 45.99889129323009
vertex 1820.7965743737107 8.615703245259823 60.998891293229924
endloop
endfacet
facet normal -1.1420412629443791e-13 1.0 -2.0385732038784688e-14
outer loop
vertex 1820.796574597225 8.615703245259484 45.99889129323009
vertex 1827.2965743737104 8.61570324526053 60.99889139008649
vertex 1827.2965745972247 8.61570324526026 45.99889139008634
endloop
endfacet
facet normal 0.8506722870958696 -0.5256963571940387 1.2675807711477917e-08
outer loop
vertex 1821.7965745972247 -7.284296754740429 45.99889130813105
vertex 1827.2965743737107 1.6157032452603173 60.998891390085774
vertex 1821.7965743737109 -7.284296754740429 60.998891308130844
endloop
endfacet
facet normal 0.8506722870958696 -0.5256963571940387 1.2675807711477917e-08
outer loop
vertex 1827.2965743737107 1.6157032452603173 60.998891390085774
vertex 1821.7965745972247 -7.284296754740429 45.99889130813105
vertex 1827.296574597225 1.6157032452604077 45.998891390085575
endloop
endfacet
facet normal -6.2704426388658476e-09 0.9071491035772186 0.4208093438590083
outer loop
vertex 1730.7965743910195 2.2171366178926424 59.837330694021226
vertex 1820.7965744090404 2.715527367301407 58.62797324931883
vertex 1730.79657440904 2.7155273673007723 58.62797190823564
endloop
endfacet
facet normal -5.074058792078327e-09 0.9402372861105487 0.3405199638897407
outer loop
vertex 1820.7965744090404 2.715527367301407 58.62797324931883
vertex 1730.7965743910195 2.2171366178926424 59.837330694021226
vertex 1820.7965743910197 2.217136617892555 59.83733203510302
endloop
endfacet
facet normal 1.2927846135499999e-09 0.9962293938203962 -0.08675825544722635
outer loop
vertex 1730.7965745049403 3.558908489680489 52.19209372947394
vertex 1820.7965745242661 3.3889525242518537 50.89515367571003
vertex 1730.7965745242657 3.3889525242523018 50.89515233462792
endloop
endfacet
facet normal 2.5758147755050218e-09 0.9849460102235398 -0.17286224846602766
outer loop
vertex 1820.7965745242661 3.3889525242518537 50.89515367571003
vertex 1730.7965745049403 3.558908489680489 52.19209372947394
vertex 1820.7965745049405 3.5589084896802663 52.19209507055569
endloop
endfacet
facet normal -5.074058792078327e-09 0.9402372861105487 0.3405199638897407
outer loop
vertex 1820.7965744090404 2.715527367301407 58.62797324931883
vertex 1730.7965744276373 3.1071170230043563 57.379933626213
vertex 1730.79657440904 2.7155273673007723 58.62797190823564
endloop
endfacet
facet normal -3.839408538154835e-09 0.9662349396012463 0.2576626505603328
outer loop
vertex 1730.7965744276373 3.1071170230043563 57.379933626213
vertex 1820.7965744090404 2.715527367301407 58.62797324931883
vertex 1820.7965744276369 3.107117023003908 57.379934967293984
endloop
endfacet
facet normal -1.2927754777610765e-09 0.9962293938204057 0.08675825544711702
outer loop
vertex 1730.7965744659962 3.558908489680128 54.80568617481868
vertex 1820.796574485468 3.6157032452601925 53.49889129322824
vertex 1730.7965744854682 3.61570324526028 53.49888995214613
endloop
endfacet
facet normal 4.074364236715536e-15 1.0 -9.008140074159673e-14
outer loop
vertex 1820.796574485468 3.6157032452601925 53.49889129322824
vertex 1730.7965744659962 3.558908489680128 54.80568617481868
vertex 1820.796574465996 3.5589084896804017 54.80568751590043
endloop
endfacet
facet normal -1.0 -1.6365505242453899e-15 -1.490091489533897e-08
outer loop
vertex 1820.7965743737107 8.615703245259823 60.998891293229924
vertex 1820.7965743910197 2.217136617892555 59.83733203510302
vertex 1820.7965743737107 1.6157032452596096 60.99889129322907
endloop
endfacet
facet normal -1.0 -1.6365505242453899e-15 -1.490091489533897e-08
outer loop
vertex 1820.7965743910197 2.217136617892555 59.83733203510302
vertex 1820.7965743737107 8.615703245259823 60.998891293229924
vertex 1820.796574597225 8.615703245259484 45.99889129323009
endloop
endfacet
facet normal -1.0 -1.6365505242453899e-15 -1.490091489533897e-08
outer loop
vertex 1820.7965743910197 2.217136617892555 59.83733203510302
vertex 1820.796574597225 8.615703245259484 45.99889129323009
vertex 1820.7965744090404 2.715527367301407 58.62797324931883
endloop
endfacet
facet normal -1.0 -1.6365505242453899e-15 -1.490091489533897e-08
outer loop
vertex 1820.7965744090404 2.715527367301407 58.62797324931883
vertex 1820.796574597225 8.615703245259484 45.99889129323009
vertex 1820.7965744276369 3.107117023003908 57.379934967293984
endloop
endfacet
facet normal -1.0 -1.6365505242453899e-15 -1.490091489533897e-08
outer loop
vertex 1820.7965744276369 3.107117023003908 57.379934967293984
vertex 1820.796574597225 8.615703245259484 45.99889129323009
vertex 1820.7965744466699 3.3889525242521468 56.10262891074825
endloop
endfacet
facet normal -1.0 -1.6365505242453899e-15 -1.490091489533897e-08
outer loop
vertex 1820.7965744466699 3.3889525242521468 56.10262891074825
vertex 1820.796574597225 8.615703245259484 45.99889129323009
vertex 1820.796574465996 3.5589084896804017 54.80568751590043
endloop
endfacet
facet normal -1.0 -1.6365505242453899e-15 -1.490091489533897e-08
outer loop
vertex 1820.796574465996 3.5589084896804017 54.80568751590043
vertex 1820.796574597225 8.615703245259484 45.99889129323009
vertex 1820.796574485468 3.6157032452601925 53.49889129322824
endloop
endfacet
facet normal -1.0 -1.6365505242453899e-15 -1.490091489533897e-08
outer loop
vertex 1820.796574485468 3.6157032452601925 53.49889129322824
vertex 1820.796574597225 8.615703245259484 45.99889129323009
vertex 1820.7965745049405 3.5589084896802663 52.19209507055569
endloop
endfacet
facet normal -1.0 -1.6365505242453899e-15 -1.490091489533897e-08
outer loop
vertex 1820.7965745049405 3.5589084896802663 52.19209507055569
vertex 1820.796574597225 8.615703245259484 45.99889129323009
vertex 1820.7965745242661 3.3889525242518537 50.89515367571003
endloop
endfacet
facet normal -1.0 -1.6365505242453899e-15 -1.490091489533897e-08
outer loop
vertex 1820.7965745242661 3.3889525242518537 50.89515367571003
vertex 1820.796574597225 8.615703245259484 45.99889129323009
vertex 1820.7965745432996 3.1071170230041334 49.61784761916457
endloop
endfacet
facet normal -1.0 -1.6365505242453899e-15 -1.490091489533897e-08
outer loop
vertex 1820.7965745432996 3.1071170230041334 49.61784761916457
vertex 1820.796574597225 8.615703245259484 45.99889129323009
vertex 1820.796574561896 2.7155273672998503 48.3698093371409
endloop
endfacet
facet normal -1.0 -1.6365505242453899e-15 -1.490091489533897e-08
outer loop
vertex 1820.796574561896 2.7155273672998503 48.3698093371409
vertex 1820.796574597225 8.615703245259484 45.99889129323009
vertex 1820.7965745799163 2.217136617892194 47.16045055135328
endloop
endfacet
facet normal -1.0 -1.6365505242453899e-15 -1.490091489533897e-08
outer loop
vertex 1820.7965745799163 2.217136617892194 47.16045055135328
vertex 1820.796574597225 8.615703245259484 45.99889129323009
vertex 1820.7965745972247 1.615703245259632 45.99889129322923
endloop
endfacet
facet normal 4.074364386540635e-15 1.0 -1.0013613519300831e-13
outer loop
vertex 1730.7965744854682 3.61570324526028 53.49888995214613
vertex 1820.7965745049405 3.5589084896802663 52.19209507055569
vertex 1730.7965745049403 3.558908489680489 52.19209372947394
endloop
endfacet
facet normal 1.2927846135498816e-09 0.9962293938203968 -0.0867582554472184
outer loop
vertex 1820.7965745049405 3.5589084896802663 52.19209507055569
vertex 1730.7965744854682 3.61570324526028 53.49888995214613
vertex 1820.796574485468 3.6157032452601925 53.49889129322824
endloop
endfacet
facet normal 2.5758147755050218e-09 0.9849460102235398 -0.17286224846602766
outer loop
vertex 1820.7965745242661 3.3889525242518537 50.89515367571003
vertex 1730.7965745432996 3.107117023004221 49.617846278082865
vertex 1730.7965745242657 3.3889525242523018 50.89515233462792
endloop
endfacet
facet normal 3.839418878123666e-09 0.9662349396012495 -0.2576626505603208
outer loop
vertex 1730.7965745432996 3.107117023004221 49.617846278082865
vertex 1820.7965745242661 3.3889525242518537 50.89515367571003
vertex 1820.7965745432996 3.1071170230041334 49.61784761916457
endloop
endfacet
facet normal 3.839418878123811e-09 0.9662349396012468 -0.2576626505603305
outer loop
vertex 1820.7965745432996 3.1071170230041334 49.61784761916457
vertex 1730.7965745618967 2.715527367300795 48.369807996056984
vertex 1730.7965745432996 3.107117023004221 49.617846278082865
endloop
endfacet
facet normal 5.074069047685979e-09 0.9402372861105485 -0.3405199638897411
outer loop
vertex 1730.7965745618967 2.715527367300795 48.369807996056984
vertex 1820.7965745432996 3.1071170230041334 49.61784761916457
vertex 1820.796574561896 2.7155273672998503 48.3698093371409
endloop
endfacet
facet normal 5.074069047685979e-09 0.9402372861105485 -0.3405199638897411
outer loop
vertex 1730.7965745618967 2.715527367300795 48.369807996056984
vertex 1820.7965745799163 2.217136617892194 47.16045055135328
vertex 1730.7965745799168 2.217136617892778 47.160449210271395
endloop
endfacet
facet normal 6.270454653529323e-09 0.9071491035772563 -0.4208093438589266
outer loop
vertex 1820.7965745799163 2.217136617892194 47.16045055135328
vertex 1730.7965745618967 2.715527367300795 48.369807996056984
vertex 1820.796574561896 2.7155273672998503 48.3698093371409
endloop
endfacet
facet normal 1.0 -2.2728684901829136e-17 1.4900917141015434e-08
outer loop
vertex 1730.7965743910195 2.2171366178926424 59.837330694021226
vertex 1730.7965743737113 14.615703245260804 60.998889952146406
vertex 1730.7965743737109 1.615703245260419 60.99888995214731
endloop
endfacet
facet normal 1.0 -2.2728684901829136e-17 1.4900917141015434e-08
outer loop
vertex 1730.7965743737113 14.615703245260804 60.998889952146406
vertex 1730.7965743910195 2.2171366178926424 59.837330694021226
vertex 1730.7965745674232 14.615703245260578 47.99888995214657
endloop
endfacet
facet normal 1.0 -2.2728684901829136e-17 1.4900917141015434e-08
outer loop
vertex 1730.7965745674232 14.615703245260578 47.99888995214657
vertex 1730.7965743910195 2.2171366178926424 59.837330694021226
vertex 1730.79657440904 2.7155273673007723 58.62797190823564
endloop
endfacet
facet normal 1.0 -2.2728684901829136e-17 1.4900917141015434e-08
outer loop
vertex 1730.7965745674232 14.615703245260578 47.99888995214657
vertex 1730.79657440904 2.7155273673007723 58.62797190823564
vertex 1730.7965744276373 3.1071170230043563 57.379933626213
endloop
endfacet
facet normal 1.0 -2.2728684901829136e-17 1.4900917141015434e-08
outer loop
vertex 1730.7965745674232 14.615703245260578 47.99888995214657
vertex 1730.7965744276373 3.1071170230043563 57.379933626213
vertex 1730.7965744466703 3.3889525242522343 56.102627569666865
endloop
endfacet
facet normal 1.0 -2.2728684901829136e-17 1.4900917141015434e-08
outer loop
vertex 1730.7965745674232 14.615703245260578 47.99888995214657
vertex 1730.7965744466703 3.3889525242522343 56.102627569666865
vertex 1730.7965744659962 3.558908489680128 54.80568617481868
endloop
endfacet
facet normal 1.0 -2.2728684901829136e-17 1.4900917141015434e-08
outer loop
vertex 1730.7965745674232 14.615703245260578 47.99888995214657
vertex 1730.7965744659962 3.558908489680128 54.80568617481868
vertex 1730.7965744854682 3.61570324526028 53.49888995214613
endloop
endfacet
facet normal 1.0 -2.2728684901829136e-17 1.4900917141015434e-08
outer loop
vertex 1730.7965745674232 14.615703245260578 47.99888995214657
vertex 1730.7965744854682 3.61570324526028 53.49888995214613
vertex 1730.7965745049403 3.558908489680489 52.19209372947394
endloop
endfacet
facet normal 1.0 -2.2728684901829136e-17 1.4900917141015434e-08
outer loop
vertex 1730.7965745674232 14.615703245260578 47.99888995214657
vertex 1730.7965745049403 3.558908489680489 52.19209372947394
vertex 1730.7965745242657 3.3889525242523018 50.89515233462792
endloop
endfacet
facet normal 1.0 -2.2728684901829136e-17 1.4900917141015434e-08
outer loop
vertex 1730.7965745674232 14.615703245260578 47.99888995214657
vertex 1730.7965745242657 3.3889525242523018 50.89515233462792
vertex 1730.7965745432996 3.107117023004221 49.617846278082865
endloop
endfacet
facet normal 1.0 -2.2728684901829136e-17 1.4900917141015434e-08
outer loop
vertex 1730.7965745674232 14.615703245260578 47.99888995214657
vertex 1730.7965745432996 3.107117023004221 49.617846278082865
vertex 1730.7965745618967 2.715527367300795 48.369807996056984
endloop
endfacet
facet normal 1.0 -2.2728684901829136e-17 1.4900917141015434e-08
outer loop
vertex 1730.7965745674232 14.615703245260578 47.99888995214657
vertex 1730.7965745618967 2.715527367300795 48.369807996056984
vertex 1730.7965745799168 2.217136617892778 47.160449210271395
endloop
endfacet
facet normal 1.0 -2.2728684901829136e-17 1.4900917141015434e-08
outer loop
vertex 1730.7965745674232 14.615703245260578 47.99888995214657
vertex 1730.7965745799168 2.217136617892778 47.160449210271395
vertex 1730.796574597225 12.615703245260582 45.998889952146705
endloop
endfacet
facet normal 1.0 -2.2728684901829136e-17 1.4900917141015434e-08
outer loop
vertex 1730.796574597225 12.615703245260582 45.998889952146705
vertex 1730.7965745799168 2.217136617892778 47.160449210271395
vertex 1730.7965745972244 1.6157032452605542 45.99888995214747
endloop
endfacet
facet normal 6.270454653529422e-09 0.9071491035772534 -0.42080934385893326
outer loop
vertex 1730.7965745799168 2.217136617892778 47.160449210271395
vertex 1820.7965745972247 1.615703245259632 45.99889129322923
vertex 1730.7965745972244 1.6157032452605542 45.99888995214747
endloop
endfacet
facet normal 6.851465710946808e-09 0.888022000522489 -0.4598009641008123
outer loop
vertex 1820.7965745972247 1.615703245259632 45.99889129322923
vertex 1730.7965745799168 2.217136617892778 47.160449210271395
vertex 1820.7965745799163 2.217136617892194 47.16045055135328
endloop
endfacet
facet normal -2.0307980372601194e-07 -0.9999999999999731 -1.1316129201221913e-07
outer loop
vertex 1726.7965745972247 -7.884297245562048 45.99888989254501
vertex 1722.5965776115913 -7.884297241335647 53.49888226682273
vertex 1722.5965745972248 -7.884297241335941 45.9988897349428
endloop
endfacet
facet normal -3.601955710119721e-07 -0.997858945704974 0.06540278645767428
outer loop
vertex 1722.5965776115913 -7.884297241335647 53.49888226682273
vertex 1726.7965745972247 -7.884297245562048 45.99888989254501
vertex 1726.796573199245 -7.884298942980389 53.49888593767863
endloop
endfacet
facet normal 8.21705947437602e-14 1.0 -2.2348609419440753e-14
outer loop
vertex 1730.7965743737113 14.615703245260804 60.998889952146406
vertex 1726.7965908554174 14.615703245260837 47.99888989254435
vertex 1726.7965743737104 14.615703245261198 60.99889038337152
endloop
endfacet
facet normal 8.21705947437602e-14 1.0 -2.2348609419440753e-14
outer loop
vertex 1726.7965908554174 14.615703245260837 47.99888989254435
vertex 1730.7965743737113 14.615703245260804 60.998889952146406
vertex 1730.7965745674232 14.615703245260578 47.99888995214657
endloop
endfacet
facet normal -0.9999999999987818 1.316649662152748e-06 -8.383330660745332e-07
outer loop
vertex 1726.7965743737104 14.615703245261198 60.99889038337152
vertex 1726.7965708021948 7.115702081670016 53.498891671080315
vertex 1726.7965743737104 7.115702754436007 60.99889038337242
endloop
endfacet
facet normal -0.9999999999987818 1.316649662152748e-06 -8.383330660745332e-07
outer loop
vertex 1726.7965708021948 7.115702081670016 53.498891671080315
vertex 1726.7965743737104 14.615703245261198 60.99889038337152
vertex 1726.7965908554174 14.615703245260837 47.99888989254435
endloop
endfacet
facet normal -0.9999999999987818 1.316649662152748e-06 -8.383330660745332e-07
outer loop
vertex 1726.7965708021948 7.115702081670016 53.498891671080315
vertex 1726.7965908554174 14.615703245260837 47.99888989254435
vertex 1726.7965709471316 6.860146739540816 51.55774878377683
endloop
endfacet
facet normal -0.9999999999987818 1.316649662152748e-06 -8.383330660745332e-07
outer loop
vertex 1726.7965709471316 6.860146739540816 51.55774878377683
vertex 1726.7965908554174 14.615703245260837 47.99888989254435
vertex 1726.796571314217 6.110894486032826 49.74889132603369
endloop
endfacet
facet normal -0.9999999999987818 1.316649662152748e-06 -8.383330660745332e-07
outer loop
vertex 1726.796571314217 6.110894486032826 49.74889132603369
vertex 1726.7965908554174 14.615703245260837 47.99888989254435
vertex 1726.7965718784324 4.919005624024326 48.19558994431747
endloop
endfacet
facet normal -0.9999999999987818 1.316649662152748e-06 -8.383330660745332e-07
outer loop
vertex 1726.7965718784324 4.919005624024326 48.19558994431747
vertex 1726.7965908554174 14.615703245260837 47.99888989254435
vertex 1726.796572601328 3.3657054097722328 47.00369956084098
endloop
endfacet
facet normal -0.9999999999987818 1.316649662152748e-06 -8.383330660745332e-07
outer loop
vertex 1726.796572601328 3.3657054097722328 47.00369956084098
vertex 1726.7965908554174 14.615703245260837 47.99888989254435
vertex 1726.796590885219 12.61570324526084 45.99888989254449
endloop
endfacet
facet normal -0.9999999999987818 1.316649662152748e-06 -8.383330660745332e-07
outer loop
vertex 1726.796572601328 3.3657054097722328 47.00369956084098
vertex 1726.796590885219 12.61570324526084 45.99888989254449
vertex 1726.7965734336403 1.556848685927231 46.25444553554598
endloop
endfacet
facet normal -0.9999999999987818 1.316649662152748e-06 -8.383330660745332e-07
outer loop
vertex 1726.7965734336403 1.556848685927231 46.25444553554598
vertex 1726.796590885219 12.61570324526084 45.99888989254449
vertex 1726.7965743186492 -0.3842939510573269 45.9988882920544
endloop
endfacet
facet normal 1.4506658876989895e-07 0.0326841109714412 -0.9994657317236972
outer loop
vertex 1722.5965743186498 -0.38429386231091467 45.99888623409438
vertex 1726.7965734336403 1.556848685927231 46.25444553554598
vertex 1726.7965743186492 -0.3842939510573269 45.9988882920544
endloop
endfacet
facet normal 4.787633972748389e-07 0.25881949120418635 -0.9659257067562582
outer loop
vertex 1726.7965734336403 1.556848685927231 46.25444553554598
vertex 1722.5965743186498 -0.38429386231091467 45.99888623409438
vertex 1722.596573433641 1.5568487746736208 46.25444347758488
endloop
endfacet
facet normal 4.787633913340199e-07 0.2588195451318781 -0.9659256923063485
outer loop
vertex 1722.596573433641 1.5568487746736208 46.25444347758488
vertex 1726.796572601328 3.3657054097722328 47.00369956084098
vertex 1726.7965734336403 1.556848685927231 46.25444553554598
endloop
endfacet
facet normal 4.349092110921026e-07 0.5000004116248818 -0.8660251661324628
outer loop
vertex 1726.796572601328 3.3657054097722328 47.00369956084098
vertex 1722.596573433641 1.5568487746736208 46.25444347758488
vertex 1722.5965726013283 3.3657054985186226 47.00369750288059
endloop
endfacet
facet normal 4.349092045406307e-07 0.500000436652774 -0.8660251516825861
outer loop
vertex 1722.5965726013283 3.3657054985186226 47.00369750288059
vertex 1726.7965718784324 4.919005624024326 48.19558994431747
vertex 1726.796572601328 3.3657054097722328 47.00369956084098
endloop
endfacet
facet normal 3.614166640410555e-07 0.7071071274943929 -0.7071064348784403
outer loop
vertex 1726.7965718784324 4.919005624024326 48.19558994431747
vertex 1722.5965726013283 3.3657054985186226 47.00369750288059
vertex 1722.5965718784328 4.919005712770738 48.19558788635708
endloop
endfacet
facet normal 2.6329421720713086e-07 0.86602565588588 -0.4999995633471714
outer loop
vertex 1726.796571314217 6.110894486032826 49.74889132603369
vertex 1722.5965718784328 4.919005712770738 48.19558788635708
vertex 1722.5965713142175 6.110894574779147 49.748889268073846
endloop
endfacet
facet normal 3.6141666404107113e-07 0.7071071274943598 -0.7071064348784735
outer loop
vertex 1722.5965718784328 4.919005712770738 48.19558788635708
vertex 1726.796571314217 6.110894486032826 49.74889132603369
vertex 1726.7965718784324 4.919005624024326 48.19558994431747
endloop
endfacet
facet normal 1.4722871280972376e-07 0.965925960271322 -0.25881854507338353
outer loop
vertex 1726.7965709471316 6.860146739540816 51.55774878377683
vertex 1722.5965713142175 6.110894574779147 49.748889268073846
vertex 1722.596570947132 6.860146828287229 51.55774672581645
endloop
endfacet
facet normal 2.632942291652444e-07 0.866025641436023 -0.49999958837508623
outer loop
vertex 1722.5965713142175 6.110894574779147 49.748889268073846
vertex 1726.7965709471316 6.860146739540816 51.55774878377683
vertex 1726.796571314217 6.110894486032826 49.74889132603369
endloop
endfacet
facet normal 4.808987311522483e-08 0.9978589383816138 -0.06540289819202547
outer loop
vertex 1726.7965708021948 7.115702081670016 53.498891671080315
vertex 1722.596570947132 6.860146828287229 51.55774672581645
vertex 1722.596570802195 7.115702170416293 53.498889613120156
endloop
endfacet
facet normal 1.4722873892846005e-07 0.9659259458214653 -0.25881859900108845
outer loop
vertex 1722.596570947132 6.860146828287229 51.55774672581645
vertex 1726.7965708021948 7.115702081670016 53.498891671080315
vertex 1726.7965709471316 6.860146739540816 51.55774878377683
endloop
endfacet
facet normal -0.999999999999939 -3.456114116891776e-07 -5.253699644021605e-08
outer loop
vertex 1726.7965743737109 -16.384296754738653 60.998889892543765
vertex 1726.7965721230075 -5.68760248533488 58.80218766444112
vertex 1726.7965745972242 -16.384296754738653 45.998889892543566
endloop
endfacet
facet normal -0.999999999999939 -3.456114116891776e-07 -5.253699644021605e-08
outer loop
vertex 1726.7965721230075 -5.68760248533488 58.80218766444112
vertex 1726.7965743737109 -16.384296754738653 60.998889892543765
vertex 1726.7965714001118 -4.134302271082629 59.99407804791869
endloop
endfacet
facet normal -0.999999999999939 -3.456114116891776e-07 -5.253699644021605e-08
outer loop
vertex 1726.7965714001118 -4.134302271082629 59.99407804791869
vertex 1726.7965743737109 -16.384296754738653 60.998889892543765
vertex 1726.7965705677989 -2.3254455472377624 60.74333207321369
endloop
endfacet
facet normal -0.999999999999939 -3.456114116891776e-07 -5.253699644021605e-08
outer loop
vertex 1726.7965705677989 -2.3254455472377624 60.74333207321369
vertex 1726.7965743737109 -16.384296754738653 60.998889892543765
vertex 1726.79656968279 -0.3843029102532495 60.998889316703476
endloop
endfacet
facet normal -0.999999999999939 -3.456114116891776e-07 -5.253699644021605e-08
outer loop
vertex 1726.7965745972242 -16.384296754738653 45.998889892543566
vertex 1726.7965721230075 -5.68760248533488 58.80218766444112
vertex 1726.7965726872233 -6.879491347343311 57.248886282725806
endloop
endfacet
facet normal -0.999999999999939 -3.456114116891776e-07 -5.253699644021605e-08
outer loop
vertex 1726.7965745972242 -16.384296754738653 45.998889892543566
vertex 1726.7965726872233 -6.879491347343311 57.248886282725806
vertex 1726.7965730543076 -7.628743600851258 55.44002882498162
endloop
endfacet
facet normal -0.999999999999939 -3.456114116891776e-07 -5.253699644021605e-08
outer loop
vertex 1726.7965745972242 -16.384296754738653 45.998889892543566
vertex 1726.7965730543076 -7.628743600851258 55.44002882498162
vertex 1726.796573199245 -7.884298942980389 53.49888593767863
endloop
endfacet
facet normal -0.999999999999939 -3.456114116891776e-07 -5.253699644021605e-08
outer loop
vertex 1726.7965745972242 -16.384296754738653 45.998889892543566
vertex 1726.796573199245 -7.884298942980389 53.49888593767863
vertex 1726.7965745972247 -7.884297245562048 45.99888989254501
endloop
endfacet
facet normal -9.194201756123145e-07 -0.1305266777832061 0.9914447974476611
outer loop
vertex 1726.79656968279 -0.3843029102532495 60.998889316703476
vertex 1722.5965749801449 -2.3254438455928845 60.7433284023578
vertex 1726.7965705677989 -2.3254455472377624 60.74333207321369
endloop
endfacet
facet normal -9.490945264034105e-07 -0.2588194694086232 0.9659257125960248
outer loop
vertex 1722.5965749801449 -2.3254438455928845 60.7433284023578
vertex 1726.79656968279 -0.3843029102532495 60.998889316703476
vertex 1722.5965740951362 -0.3843012086084183 60.99888564584794
endloop
endfacet
facet normal -9.49094543075423e-07 -0.25881956692710983 0.9659256864659738
outer loop
vertex 1726.7965705677989 -2.3254455472377624 60.74333207321369
vertex 1722.596575812458 -4.134300569437751 59.99407437706208
vertex 1726.7965714001118 -4.134302271082629 59.99407804791869
endloop
endfacet
facet normal -9.594954922133833e-07 -0.5000004015096854 0.8660251719720581
outer loop
vertex 1722.596575812458 -4.134300569437751 59.99407437706208
vertex 1726.7965705677989 -2.3254455472377624 60.74333207321369
vertex 1722.5965749801449 -2.3254438455928845 60.7433284023578
endloop
endfacet
facet normal -9.594954877120207e-07 -0.5000004467681302 0.8660251458420534
outer loop
vertex 1726.7965714001118 -4.134302271082629 59.99407804791869
vertex 1722.596576535354 -5.687600783690025 58.802183993585594
vertex 1726.7965721230075 -5.68760248533488 58.80218766444112
endloop
endfacet
facet normal -9.04508349080845e-07 -0.7071071274942975 0.7071064348780496
outer loop
vertex 1722.596576535354 -5.687600783690025 58.802183993585594
vertex 1726.7965714001118 -4.134302271082629 59.99407804791869
vertex 1722.596575812458 -4.134300569437751 59.99407437706208
endloop
endfacet
facet normal -7.878804542546386e-07 -0.8660256617257976 0.4999995532315741
outer loop
vertex 1722.5965770995695 -6.879489645698501 57.24888261186906
vertex 1726.7965721230075 -5.68760248533488 58.80218766444112
vertex 1722.596576535354 -5.687600783690025 58.802183993585594
endloop
endfacet
facet normal -9.045083490808546e-07 -0.7071071274942763 0.7071064348780707
outer loop
vertex 1726.7965721230075 -5.68760248533488 58.80218766444112
vertex 1722.5965770995695 -6.879489645698501 57.24888261186906
vertex 1726.7965726872233 -6.879491347343311 57.248886282725806
endloop
endfacet
facet normal -6.175597888830847e-07 -0.9659259661112276 0.258818523277818
outer loop
vertex 1722.5965774666538 -7.62874189920638 55.44002515412608
vertex 1726.7965726872233 -6.879491347343311 57.248886282725806
vertex 1722.5965770995695 -6.879489645698501 57.24888261186906
endloop
endfacet
facet normal -7.878804832245838e-07 -0.8660256355957888 0.49999959849012826
outer loop
vertex 1726.7965726872233 -6.879491347343311 57.248886282725806
vertex 1722.5965774666538 -7.62874189920638 55.44002515412608
vertex 1726.7965730543076 -7.628743600851258 55.44002882498162
endloop
endfacet
facet normal -3.601955710119721e-07 -0.997858945704974 0.06540278645767428
outer loop
vertex 1722.5965776115913 -7.884297241335647 53.49888226682273
vertex 1726.7965730543076 -7.628743600851258 55.44002882498162
vertex 1722.5965774666538 -7.62874189920638 55.44002515412608
endloop
endfacet
facet normal -6.17559863529013e-07 -0.9659259399812704 0.2588186207963367
outer loop
vertex 1726.7965730543076 -7.628743600851258 55.44002882498162
vertex 1722.5965776115913 -7.884297241335647 53.49888226682273
vertex 1726.796573199245 -7.884298942980389 53.49888593767863
endloop
endfacet
facet normal 1.0 -2.114207814393346e-09 -8.285039887001175e-09
outer loop
vertex 1722.5965743737113 -13.384296665992247 60.99888783458374
vertex 1722.5965749801449 -2.3254438455928845 60.7433284023578
vertex 1722.5965740951362 -0.3843012086084183 60.99888564584794
endloop
endfacet
facet normal 1.0 -2.114207814393346e-09 -8.285039887001175e-09
outer loop
vertex 1722.5965749801449 -2.3254438455928845 60.7433284023578
vertex 1722.5965743737113 -13.384296665992247 60.99888783458374
vertex 1722.596575812458 -4.134300569437751 59.99407437706208
endloop
endfacet
facet normal 1.0 -2.114207814393346e-09 -8.285039887001175e-09
outer loop
vertex 1722.596575812458 -4.134300569437751 59.99407437706208
vertex 1722.5965743737113 -13.384296665992247 60.99888783458374
vertex 1722.596576535354 -5.687600783690025 58.802183993585594
endloop
endfacet
facet normal 1.0 -2.114207814393346e-09 -8.285039887001175e-09
outer loop
vertex 1722.596576535354 -5.687600783690025 58.802183993585594
vertex 1722.5965743737113 -13.384296665992247 60.99888783458374
vertex 1722.5965770995695 -6.879489645698501 57.24888261186906
endloop
endfacet
facet normal 1.0 -2.114207814393346e-09 -8.285039887001175e-09
outer loop
vertex 1722.5965770995695 -6.879489645698501 57.24888261186906
vertex 1722.5965743737113 -13.384296665992247 60.99888783458374
vertex 1722.5965745972248 -13.384296665992247 45.99888783458354
endloop
endfacet
facet normal 1.0 -2.114207814393346e-09 -8.285039887001175e-09
outer loop
vertex 1722.5965770995695 -6.879489645698501 57.24888261186906
vertex 1722.5965745972248 -13.384296665992247 45.99888783458354
vertex 1722.5965774666538 -7.62874189920638 55.44002515412608
endloop
endfacet
facet normal 1.0 -2.114207814393346e-09 -8.285039887001175e-09
outer loop
vertex 1722.5965774666538 -7.62874189920638 55.44002515412608
vertex 1722.5965745972248 -13.384296665992247 45.99888783458354
vertex 1722.5965776115913 -7.884297241335647 53.49888226682273
endloop
endfacet
facet normal 1.0 -2.114207814393346e-09 -8.285039887001175e-09
outer loop
vertex 1722.5965776115913 -7.884297241335647 53.49888226682273
vertex 1722.5965745972248 -13.384296665992247 45.99888783458354
vertex 1722.5965745972248 -7.884297241335941 45.9988897349428
endloop
endfacet
facet normal -0.9999999999997954 3.132306979423886e-07 -5.578340755366485e-07
outer loop
vertex 1718.596574373715 12.615708147435422 60.998885594861584
vertex 1718.596574597225 -13.384296657535357 45.998887867724
vertex 1718.5965743737113 -13.384296657535492 60.9988878677242
endloop
endfacet
facet normal -0.9999999999997954 3.132306979423886e-07 -5.578340755366485e-07
outer loop
vertex 1718.596574597225 -13.384296657535357 45.998887867724
vertex 1718.596574373715 12.615708147435422 60.998885594861584
vertex 1718.5965908852233 12.615708147435173 45.998885104034414
endloop
endfacet
facet normal -2.1142131573640503e-09 -1.0 -2.541951727262585e-15
outer loop
vertex 1722.5965745972248 -13.384296665992247 45.99888783458354
vertex 1718.5965743737113 -13.384296657535492 60.9988878677242
vertex 1718.596574597225 -13.384296657535357 45.998887867724
endloop
endfacet
facet normal -2.1142131573640503e-09 -1.0 -2.541951727262585e-15
outer loop
vertex 1718.5965743737113 -13.384296657535492 60.9988878677242
vertex 1722.5965745972248 -13.384296665992247 45.99888783458354
vertex 1722.5965743737113 -13.384296665992247 60.99888783458374
endloop
endfacet
facet normal 1.450665897275595e-07 0.03268411124411337 -0.9994657317147805
outer loop
vertex 1726.7965743186492 -0.3842939510573269 45.9988882920544
vertex 1730.7965745972244 1.6157032452605542 45.99888995214747
vertex 1820.7965745972247 1.615703245259632 45.99889129322923
endloop
endfacet
facet normal 3.0259379847551224e-08 -3.8780570920756435e-08 -0.9999999999999989
outer loop
vertex 1730.7965745972244 1.6157032452605542 45.99888995214747
vertex 1726.7965743186492 -0.3842939510573269 45.9988882920544
vertex 1726.796590885219 12.61570324526084 45.99888989254449
endloop
endfacet
facet normal 3.0259379847551224e-08 -3.8780570920756435e-08 -0.9999999999999989
outer loop
vertex 1730.7965745972244 1.6157032452605542 45.99888995214747
vertex 1726.796590885219 12.61570324526084 45.99888989254449
vertex 1730.796574597225 12.615703245260582 45.998889952146705
endloop
endfacet
facet normal 1.450665897275595e-07 0.03268411124411337 -0.9994657317147805
outer loop
vertex 1726.7965743186492 -0.3842939510573269 45.9988882920544
vertex 1827.296574597225 1.6157032452604077 45.998891390085575
vertex 1821.7965745972247 -7.284296754740429 45.99889130813105
endloop
endfacet
facet normal 3.0259379847551224e-08 -3.8780570920756435e-08 -0.9999999999999989
outer loop
vertex 1827.296574597225 1.6157032452604077 45.998891390085575
vertex 1726.7965743186492 -0.3842939510573269 45.9988882920544
vertex 1820.7965745972247 1.615703245259632 45.99889129322923
endloop
endfacet
facet normal 3.0259379847551224e-08 -3.8780570920756435e-08 -0.9999999999999989
outer loop
vertex 1827.296574597225 1.6157032452604077 45.998891390085575
vertex 1820.7965745972247 1.615703245259632 45.99889129322923
vertex 1820.796574597225 8.615703245259484 45.99889129323009
endloop
endfacet
facet normal 3.0259379847551224e-08 -3.8780570920756435e-08 -0.9999999999999989
outer loop
vertex 1827.296574597225 1.6157032452604077 45.998891390085575
vertex 1820.796574597225 8.615703245259484 45.99889129323009
vertex 1827.2965745972247 8.61570324526026 45.99889139008634
endloop
endfacet
facet normal 3.0259379847551224e-08 -3.8780570920756435e-08 -0.9999999999999989
outer loop
vertex 1718.596574597225 -13.384296657535357 45.998887867724
vertex 1722.5965745972248 -7.884297241335941 45.9988897349428
vertex 1722.5965745972248 -13.384296665992247 45.99888783458354
endloop
endfacet
facet normal 3.0259379847551224e-08 -3.8780570920756435e-08 -0.9999999999999989
outer loop
vertex 1722.5965745972248 -7.884297241335941 45.9988897349428
vertex 1718.596574597225 -13.384296657535357 45.998887867724
vertex 1718.5965908852233 12.615708147435173 45.998885104034414
endloop
endfacet
facet normal 3.0259379847551224e-08 -3.8780570920756435e-08 -0.9999999999999989
outer loop
vertex 1722.5965745972248 -7.884297241335941 45.9988897349428
vertex 1718.5965908852233 12.615708147435173 45.998885104034414
vertex 1722.5965743186498 -0.38429386231091467 45.99888623409438
endloop
endfacet
facet normal 3.0259379847551224e-08 -3.8780570920756435e-08 -0.9999999999999989
outer loop
vertex 1722.5965745972248 -7.884297241335941 45.9988897349428
vertex 1722.5965743186498 -0.38429386231091467 45.99888623409438
vertex 1821.7965745972247 -7.284296754740429 45.99889130813105
endloop
endfacet
facet normal 3.0259379847551224e-08 -3.8780570920756435e-08 -0.9999999999999989
outer loop
vertex 1821.7965745972247 -7.284296754740429 45.99889130813105
vertex 1722.5965743186498 -0.38429386231091467 45.99888623409438
vertex 1726.7965743186492 -0.3842939510573269 45.9988882920544
endloop
endfacet
facet normal 1.4506658876989895e-07 0.0326841109714412 -0.9994657317236972
outer loop
vertex 1722.5965743186498 -0.38429386231091467 45.99888623409438
vertex 1718.5965908852233 12.615708147435173 45.998885104034414
vertex 1722.5965908852195 12.615703334007257 45.99888783458365
endloop
endfacet
facet normal 3.0259379847551224e-08 -3.8780570920756435e-08 -0.9999999999999989
outer loop
vertex 1726.7965745972247 -7.884297245562048 45.99888989254501
vertex 1730.7965745972244 -16.384296754738692 45.99888995214711
vertex 1726.7965745972242 -16.384296754738653 45.998889892543566
endloop
endfacet
facet normal 3.0259379847551224e-08 -3.8780570920756435e-08 -0.9999999999999989
outer loop
vertex 1730.7965745972244 -16.384296754738692 45.99888995214711
vertex 1726.7965745972247 -7.884297245562048 45.99888989254501
vertex 1730.7965745972244 -13.384296754738696 45.99888995214711
endloop
endfacet
facet normal 3.0259379847551224e-08 -3.8780570920756435e-08 -0.9999999999999989
outer loop
vertex 1730.7965745972244 -13.384296754738696 45.99888995214711
vertex 1726.7965745972247 -7.884297245562048 45.99888989254501
vertex 1821.7965745972247 -7.284296754740429 45.99889130813105
endloop
endfacet
facet normal 3.0259379847551224e-08 -3.8780570920756435e-08 -0.9999999999999989
outer loop
vertex 1821.7965745972247 -7.284296754740429 45.99889130813105
vertex 1726.7965745972247 -7.884297245562048 45.99888989254501
vertex 1722.5965745972248 -7.884297241335941 45.9988897349428
endloop
endfacet
facet normal 0.999999999999043 -1.2033569739976503e-06 6.826373833016901e-07
outer loop
vertex 1722.596570802195 7.115702170416293 53.498889613120156
vertex 1722.596574373711 12.615703334007572 60.99888832541082
vertex 1722.59657437371 7.1157027586624295 60.99889071659801
endloop
endfacet
facet normal 0.999999999999043 -1.2033569739976503e-06 6.826373833016901e-07
outer loop
vertex 1722.596574373711 12.615703334007572 60.99888832541082
vertex 1722.596570802195 7.115702170416293 53.498889613120156
vertex 1722.5965908852195 12.615703334007257 45.99888783458365
endloop
endfacet
facet normal 0.999999999999043 -1.2033569739976503e-06 6.826373833016901e-07
outer loop
vertex 1722.5965908852195 12.615703334007257 45.99888783458365
vertex 1722.596570802195 7.115702170416293 53.498889613120156
vertex 1722.596570947132 6.860146828287229 51.55774672581645
endloop
endfacet
facet normal 0.999999999999043 -1.2033569739976503e-06 6.826373833016901e-07
outer loop
vertex 1722.5965908852195 12.615703334007257 45.99888783458365
vertex 1722.596570947132 6.860146828287229 51.55774672581645
vertex 1722.5965713142175 6.110894574779147 49.748889268073846
endloop
endfacet
facet normal 0.999999999999043 -1.2033569739976503e-06 6.826373833016901e-07
outer loop
vertex 1722.5965908852195 12.615703334007257 45.99888783458365
vertex 1722.5965713142175 6.110894574779147 49.748889268073846
vertex 1722.5965718784328 4.919005712770738 48.19558788635708
endloop
endfacet
facet normal 0.999999999999043 -1.2033569739976503e-06 6.826373833016901e-07
outer loop
vertex 1722.5965908852195 12.615703334007257 45.99888783458365
vertex 1722.5965718784328 4.919005712770738 48.19558788635708
vertex 1722.5965726013283 3.3657054985186226 47.00369750288059
endloop
endfacet
facet normal 0.999999999999043 -1.2033569739976503e-06 6.826373833016901e-07
outer loop
vertex 1722.5965908852195 12.615703334007257 45.99888783458365
vertex 1722.5965726013283 3.3657054985186226 47.00369750288059
vertex 1722.596573433641 1.5568487746736208 46.25444347758488
endloop
endfacet
facet normal 0.999999999999043 -1.2033569739976503e-06 6.826373833016901e-07
outer loop
vertex 1722.5965908852195 12.615703334007257 45.99888783458365
vertex 1722.596573433641 1.5568487746736208 46.25444347758488
vertex 1722.5965743186498 -0.38429386231091467 45.99888623409438
endloop
endfacet
facet normal 1.203356976150204e-06 0.9999999999992761 1.3030625811956278e-12
outer loop
vertex 1722.596574373711 12.615703334007572 60.99888832541082
vertex 1718.5965908852233 12.615708147435173 45.998885104034414
vertex 1718.596574373715 12.615708147435422 60.998885594861584
endloop
endfacet
facet normal 1.203356976150204e-06 0.9999999999992761 1.3030625811956278e-12
outer loop
vertex 1718.5965908852233 12.615708147435173 45.998885104034414
vertex 1722.596574373711 12.615703334007572 60.99888832541082
vertex 1722.5965908852195 12.615703334007257 45.99888783458365
endloop
endfacet
facet normal -2.574271254295569e-08 2.3158065423647112e-09 0.9999999999999997
outer loop
vertex 1730.7965743737107 -13.384296754738696 60.99888995214713
vertex 1726.7965743737109 -16.384296754738653 60.998889892543765
vertex 1730.7965743737107 -16.384296754738692 60.99888995214713
endloop
endfacet
facet normal -2.574271254295569e-08 2.3158065423647112e-09 0.9999999999999997
outer loop
vertex 1726.7965743737109 -16.384296754738653 60.998889892543765
vertex 1730.7965743737107 -13.384296754738696 60.99888995214713
vertex 1726.79656968279 -0.3843029102532495 60.998889316703476
endloop
endfacet
facet normal -2.574271254295569e-08 2.3158065423647112e-09 0.9999999999999997
outer loop
vertex 1726.79656968279 -0.3843029102532495 60.998889316703476
vertex 1730.7965743737107 -13.384296754738696 60.99888995214713
vertex 1821.7965743737109 -7.284296754740429 60.998891308130844
endloop
endfacet
facet normal -2.574271254295569e-08 2.3158065423647112e-09 0.9999999999999997
outer loop
vertex 1726.79656968279 -0.3843029102532495 60.998889316703476
vertex 1821.7965743737109 -7.284296754740429 60.998891308130844
vertex 1827.2965743737107 1.6157032452603173 60.998891390085774
endloop
endfacet
facet normal -2.574271254295569e-08 2.3158065423647112e-09 0.9999999999999997
outer loop
vertex 1726.79656968279 -0.3843029102532495 60.998889316703476
vertex 1827.2965743737107 1.6157032452603173 60.998891390085774
vertex 1722.5965740951362 -0.3843012086084183 60.99888564584794
endloop
endfacet
facet normal -2.574271254295569e-08 2.3158065423647112e-09 0.9999999999999997
outer loop
vertex 1722.5965740951362 -0.3843012086084183 60.99888564584794
vertex 1827.2965743737107 1.6157032452603173 60.998891390085774
vertex 1820.7965743737107 1.6157032452596096 60.99889129322907
endloop
endfacet
facet normal -2.574271254295569e-08 2.3158065423647112e-09 0.9999999999999997
outer loop
vertex 1820.7965743737107 1.6157032452596096 60.99889129322907
vertex 1827.2965743737107 1.6157032452603173 60.998891390085774
vertex 1820.7965743737107 8.615703245259823 60.998891293229924
endloop
endfacet
facet normal -2.574271254295569e-08 2.3158065423647112e-09 0.9999999999999997
outer loop
vertex 1820.7965743737107 8.615703245259823 60.998891293229924
vertex 1827.2965743737107 1.6157032452603173 60.998891390085774
vertex 1827.2965743737104 8.61570324526053 60.99889139008649
endloop
endfacet
facet normal -2.574271254295569e-08 2.3158065423647112e-09 0.9999999999999997
outer loop
vertex 1730.7965743737113 14.615703245260804 60.998889952146406
vertex 1726.7965743737104 7.115702754436007 60.99889038337242
vertex 1730.7965743737109 1.615703245260419 60.99888995214731
endloop
endfacet
facet normal -2.574271254295569e-08 2.3158065423647112e-09 0.9999999999999997
outer loop
vertex 1726.7965743737104 7.115702754436007 60.99889038337242
vertex 1730.7965743737113 14.615703245260804 60.998889952146406
vertex 1726.7965743737104 14.615703245261198 60.99889038337152
endloop
endfacet
facet normal -2.574271254295569e-08 2.3158065423647112e-09 0.9999999999999997
outer loop
vertex 1722.5965740951362 -0.3843012086084183 60.99888564584794
vertex 1718.5965743737113 -13.384296657535492 60.9988878677242
vertex 1722.5965743737113 -13.384296665992247 60.99888783458374
endloop
endfacet
facet normal -2.574271254295569e-08 2.3158065423647112e-09 0.9999999999999997
outer loop
vertex 1718.5965743737113 -13.384296657535492 60.9988878677242
vertex 1722.5965740951362 -0.3843012086084183 60.99888564584794
vertex 1718.596574373715 12.615708147435422 60.998885594861584
endloop
endfacet
facet normal -2.574271254295569e-08 2.3158065423647112e-09 0.9999999999999997
outer loop
vertex 1718.596574373715 12.615708147435422 60.998885594861584
vertex 1722.5965740951362 -0.3843012086084183 60.99888564584794
vertex 1722.59657437371 7.1157027586624295 60.99889071659801
endloop
endfacet
facet normal -2.574271254295569e-08 2.3158065423647112e-09 0.9999999999999997
outer loop
vertex 1722.59657437371 7.1157027586624295 60.99889071659801
vertex 1722.5965740951362 -0.3843012086084183 60.99888564584794
vertex 1730.7965743737109 1.615703245260419 60.99888995214731
endloop
endfacet
facet normal -2.574271254295569e-08 2.3158065423647112e-09 0.9999999999999997
outer loop
vertex 1730.7965743737109 1.615703245260419 60.99888995214731
vertex 1722.5965740951362 -0.3843012086084183 60.99888564584794
vertex 1820.7965743737107 1.6157032452596096 60.99889129322907
endloop
endfacet
facet normal -2.574271254295569e-08 2.3158065423647112e-09 0.9999999999999997
outer loop
vertex 1722.59657437371 7.1157027586624295 60.99889071659801
vertex 1730.7965743737109 1.615703245260419 60.99888995214731
vertex 1726.7965743737104 7.115702754436007 60.99889038337242
endloop
endfacet
facet normal -2.574271254295569e-08 2.3158065423647112e-09 0.9999999999999997
outer loop
vertex 1718.596574373715 12.615708147435422 60.998885594861584
vertex 1722.59657437371 7.1157027586624295 60.99889071659801
vertex 1722.596574373711 12.615703334007572 60.99888832541082
endloop
endfacet
facet normal 1.1068193096656795e-08 0.9999999999999964 -8.406747655248027e-08
outer loop
vertex 1722.59657437371 7.1157027586624295 60.99889071659801
vertex 1726.7965708021948 7.115702081670016 53.498891671080315
vertex 1722.596570802195 7.115702170416293 53.498889613120156
endloop
endfacet
facet normal 4.808987311522483e-08 0.9978589383816138 -0.06540289819202547
outer loop
vertex 1726.7965708021948 7.115702081670016 53.498891671080315
vertex 1722.59657437371 7.1157027586624295 60.99889071659801
vertex 1726.7965743737104 7.115702754436007 60.99889038337242
endloop
endfacet
facet normal 0.06688286909087093 -0.9977608339788516 9.96616493201329e-10
outer loop
vertex 1730.7965745972244 -13.384296754738696 45.99888995214711
vertex 1821.7965743737109 -7.284296754740429 60.998891308130844
vertex 1730.7965743737107 -13.384296754738696 60.99888995214713
endloop
endfacet
facet normal 0.06688286909087093 -0.9977608339788516 9.96616493201329e-10
outer loop
vertex 1821.7965743737109 -7.284296754740429 60.998891308130844
vertex 1730.7965745972244 -13.384296754738696 45.99888995214711
vertex 1821.7965745972247 -7.284296754740429 45.99889130813105
endloop
endfacet
facet normal -9.006716640525929e-15 -1.0 8.197152848509809e-17
outer loop
vertex 1730.7965745972244 -16.384296754738692 45.99888995214711
vertex 1726.7965743737109 -16.384296754738653 60.998889892543765
vertex 1726.7965745972242 -16.384296754738653 45.998889892543566
endloop
endfacet
facet normal -9.006716640525929e-15 -1.0 8.197152848509809e-17
outer loop
vertex 1726.7965743737109 -16.384296754738653 60.998889892543765
vertex 1730.7965745972244 -16.384296754738692 45.99888995214711
vertex 1730.7965743737107 -16.384296754738692 60.99888995214713
endloop
endfacet
facet normal 1.0 -9.006716639304477e-15 1.4900925199720355e-08
outer loop
vertex 1730.7965745972244 -16.384296754738692 45.99888995214711
vertex 1730.7965743737107 -13.384296754738696 60.99888995214713
vertex 1730.7965743737107 -16.384296754738692 60.99888995214713
endloop
endfacet
facet normal 1.0 -9.006716639304477e-15 1.4900925199720355e-08
outer loop
vertex 1730.7965743737107 -13.384296754738696 60.99888995214713
vertex 1730.7965745972244 -16.384296754738692 45.99888995214711
vertex 1730.7965745972244 -13.384296754738696 45.99888995214711
endloop
endfacet
facet normal 1.0536396081250543e-08 0.7071067811865226 -0.7071067811865726
outer loop
vertex 1726.796590885219 12.61570324526084 45.99888989254449
vertex 1730.7965745674232 14.615703245260578 47.99888995214657
vertex 1730.796574597225 12.615703245260582 45.998889952146705
endloop
endfacet
facet normal 1.0536396081250543e-08 0.7071067811865226 -0.7071067811865726
outer loop
vertex 1730.7965745674232 14.615703245260578 47.99888995214657
vertex 1726.796590885219 12.61570324526084 45.99888989254449
vertex 1726.7965908554174 14.615703245260837 47.99888989254435
endloop
endfacet
endsolid Falla3d_ver2
