solid Falla3d_ver2.1
facet normal -2.5469612977246227e-13 0.700931526803585 0.7132285711697164
  outer loop
    vertex 1608.7813824744603 -230.4765549273349 49.53638786764126
    vertex 1598.2834286462564 -228.30155492727076 47.39888786772063
    vertex 1598.2834286462576 -230.47655492733637 49.53638786764263
  endloop
endfacet
facet normal -2.5469612977246227e-13 0.700931526803585 0.7132285711697164
  outer loop
    vertex 1598.2834286462564 -228.30155492727076 47.39888786772063
    vertex 1608.7813824744603 -230.4765549273349 49.53638786764126
    vertex 1608.7813824744605 -229.75155492733506 48.82388786764036
  endloop
endfacet
facet normal -2.5469612977246227e-13 0.700931526803585 0.7132285711697164
  outer loop
    vertex 1598.2834286462564 -228.30155492727076 47.39888786772063
    vertex 1608.7813824744605 -229.75155492733506 48.82388786764036
    vertex 1733.2814359105168 -229.75155492726358 48.82388786769248
  endloop
endfacet
facet normal -2.5469612977246227e-13 0.700931526803585 0.7132285711697164
  outer loop
    vertex 1598.2834286462564 -228.30155492727076 47.39888786772063
    vertex 1733.2814359105168 -229.75155492726358 48.82388786769248
    vertex 1733.2814359105175 -228.3015549272639 47.398887867690675
  endloop
endfacet
facet normal -1.0 -5.419469752624755e-14 2.1686420590797526e-13
  outer loop
    vertex 1598.2834286462576 -230.47655492733637 49.53638786764263
    vertex 1598.2834286462564 -240.10155492727105 47.39888786772398
    vertex 1598.2834286462587 -237.92655492727224 49.53638786770181
  endloop
endfacet
facet normal -1.0 -5.419469752624755e-14 2.1686420590797526e-13
  outer loop
    vertex 1598.2834286462564 -240.10155492727105 47.39888786772398
    vertex 1598.2834286462576 -230.47655492733637 49.53638786764263
    vertex 1598.2834286462564 -228.30155492727076 47.39888786772063
  endloop
endfacet
facet normal -1.0 -5.419469752624755e-14 2.1686420590797526e-13
  outer loop
    vertex 1598.2834286462564 -240.10155492727105 47.39888786772398
    vertex 1598.2834286462564 -228.30155492727076 47.39888786772063
    vertex 1598.2834286462564 -240.10155492727128 45.99888786772394
  endloop
endfacet
facet normal -1.0 -5.419469752624755e-14 2.1686420590797526e-13
  outer loop
    vertex 1598.2834286462564 -240.10155492727128 45.99888786772394
    vertex 1598.2834286462564 -228.30155492727076 47.39888786772063
    vertex 1598.2834286462564 -228.30155492727098 45.99888786772059
  endloop
endfacet
facet normal 3.2877794612466597e-14 -1.0 1.6813211650710986e-13
  outer loop
    vertex 1733.2814359105168 -240.10155492726489 45.99888786769343
    vertex 1598.2834286462564 -240.10155492727105 47.39888786772398
    vertex 1598.2834286462564 -240.10155492727128 45.99888786772394
  endloop
endfacet
facet normal 3.2877794612466597e-14 -1.0 1.6813211650710986e-13
  outer loop
    vertex 1598.2834286462564 -240.10155492727105 47.39888786772398
    vertex 1733.2814359105168 -240.10155492726489 45.99888786769343
    vertex 1733.2814359105168 -240.10155492726466 47.39888786769348
  endloop
endfacet
facet normal 1.4586495569444697e-13 -0.7009315268189041 0.7132285711546615
  outer loop
    vertex 1733.2814359105175 -238.65155492726183 48.82388786769463
    vertex 1608.781382474461 -238.65155492727212 48.82388786769986
    vertex 1733.2814359105168 -240.10155492726466 47.39888786769348
  endloop
endfacet
facet normal 1.4586495569444697e-13 -0.7009315268189041 0.7132285711546615
  outer loop
    vertex 1598.2834286462564 -240.10155492727105 47.39888786772398
    vertex 1608.781382474461 -238.65155492727212 48.82388786769986
    vertex 1598.2834286462587 -237.92655492727224 49.53638786770181
  endloop
endfacet
facet normal 1.4586495569444697e-13 -0.7009315268189041 0.7132285711546615
  outer loop
    vertex 1608.781382474461 -238.65155492727212 48.82388786769986
    vertex 1598.2834286462564 -240.10155492727105 47.39888786772398
    vertex 1733.2814359105168 -240.10155492726466 47.39888786769348
  endloop
endfacet
facet normal 1.4586495569444697e-13 -0.7009315268189041 0.7132285711546615
  outer loop
    vertex 1598.2834286462587 -237.92655492727224 49.53638786770181
    vertex 1608.781382474461 -238.65155492727212 48.82388786769986
    vertex 1608.7813824744612 -237.92655492727076 49.53638786770044
  endloop
endfacet
facet normal -3.488313371203202e-14 1.0 -3.6150124673894357e-13
  outer loop
    vertex 1733.2814359105175 -228.3015549272639 47.398887867690675
    vertex 1598.2834286462564 -228.30155492727098 45.99888786772059
    vertex 1598.2834286462564 -228.30155492727076 47.39888786772063
  endloop
endfacet
facet normal -3.488313371203202e-14 1.0 -3.6150124673894357e-13
  outer loop
    vertex 1598.2834286462564 -228.30155492727098 45.99888786772059
    vertex 1733.2814359105175 -228.3015549272639 47.398887867690675
    vertex 1733.2814359105168 -228.30155492726468 45.998887867690094
  endloop
endfacet
facet normal -2.2660331824599542e-13 -2.839350984538761e-13 -1.0
  outer loop
    vertex 1598.2834286462564 -228.30155492727098 45.99888786772059
    vertex 1733.2814359105168 -240.10155492726489 45.99888786769343
    vertex 1598.2834286462564 -240.10155492727128 45.99888786772394
  endloop
endfacet
facet normal -2.2660331824599542e-13 -2.839350984538761e-13 -1.0
  outer loop
    vertex 1733.2814359105168 -240.10155492726489 45.99888786769343
    vertex 1598.2834286462564 -228.30155492727098 45.99888786772059
    vertex 1733.2814359105168 -228.30155492726468 45.998887867690094
  endloop
endfacet
facet normal -6.414571607118051e-14 1.0 1.4007236498364234e-12
  outer loop
    vertex 1608.781382474461 -236.78155492727805 48.82388786769941
    vertex 1733.2814359105168 -236.78155492726773 47.14888786769124
    vertex 1608.7813824744608 -236.78155492727342 47.14888786771399
  endloop
endfacet
facet normal -6.414571607118051e-14 1.0 1.4007236498364234e-12
  outer loop
    vertex 1733.2814359105168 -236.78155492726773 47.14888786769124
    vertex 1608.781382474461 -236.78155492727805 48.82388786769941
    vertex 1733.2814359105175 -236.78155492726776 48.82388786769418
  endloop
endfacet
facet normal 1.833770188254063e-13 3.921936301920102e-14 1.0
  outer loop
    vertex 1733.2814359105168 -236.78155492726773 47.14888786769124
    vertex 1608.7813824744605 -231.62155492727376 47.14888786771379
    vertex 1608.7813824744608 -236.78155492727342 47.14888786771399
  endloop
endfacet
facet normal 1.833770188254063e-13 3.921936301920102e-14 1.0
  outer loop
    vertex 1608.7813824744605 -231.62155492727376 47.14888786771379
    vertex 1733.2814359105168 -236.78155492726773 47.14888786769124
    vertex 1733.2814359105175 -231.62155492726788 47.148887867691045
  endloop
endfacet
facet normal 3.105812354437457e-13 -1.0 -1.9475446131387173e-11
  outer loop
    vertex 1733.2814359105175 -231.62155492726788 47.148887867691045
    vertex 1608.781382474461 -231.62155492733916 48.823887867640806
    vertex 1608.7813824744605 -231.62155492727376 47.14888786771379
  endloop
endfacet
facet normal 3.105812354437457e-13 -1.0 -1.9475446131387173e-11
  outer loop
    vertex 1608.781382474461 -231.62155492733916 48.823887867640806
    vertex 1733.2814359105175 -231.62155492726788 47.148887867691045
    vertex 1733.2814359105175 -231.6215549272677 48.82388786769293
  endloop
endfacet
facet normal 1.0 -1.4159218013294406e-14 -1.759392451518072e-13
  outer loop
    vertex 1733.2814359105168 -240.10155492726466 47.39888786769348
    vertex 1733.2814359105175 -236.78155492726776 48.82388786769418
    vertex 1733.2814359105175 -238.65155492726183 48.82388786769463
  endloop
endfacet
facet normal 1.0 -1.4159218013294406e-14 -1.759392451518072e-13
  outer loop
    vertex 1733.2814359105175 -236.78155492726776 48.82388786769418
    vertex 1733.2814359105168 -240.10155492726466 47.39888786769348
    vertex 1733.2814359105168 -236.78155492726773 47.14888786769124
  endloop
endfacet
facet normal 1.0 -1.4159218013294406e-14 -1.759392451518072e-13
  outer loop
    vertex 1733.2814359105168 -236.78155492726773 47.14888786769124
    vertex 1733.2814359105168 -240.10155492726466 47.39888786769348
    vertex 1733.2814359105168 -240.10155492726489 45.99888786769343
  endloop
endfacet
facet normal 1.0 -1.4159218013294406e-14 -1.759392451518072e-13
  outer loop
    vertex 1733.2814359105175 -231.62155492726788 47.148887867691045
    vertex 1733.2814359105168 -229.75155492726358 48.82388786769248
    vertex 1733.2814359105175 -231.6215549272677 48.82388786769293
  endloop
endfacet
facet normal 1.0 -1.4159218013294406e-14 -1.759392451518072e-13
  outer loop
    vertex 1733.2814359105168 -229.75155492726358 48.82388786769248
    vertex 1733.2814359105175 -231.62155492726788 47.148887867691045
    vertex 1733.2814359105175 -228.3015549272639 47.398887867690675
  endloop
endfacet
facet normal 1.0 -1.4159218013294406e-14 -1.759392451518072e-13
  outer loop
    vertex 1733.2814359105175 -228.3015549272639 47.398887867690675
    vertex 1733.2814359105175 -231.62155492726788 47.148887867691045
    vertex 1733.2814359105168 -228.30155492726468 45.998887867690094
  endloop
endfacet
facet normal 1.0 -1.4159218013294406e-14 -1.759392451518072e-13
  outer loop
    vertex 1733.2814359105168 -228.30155492726468 45.998887867690094
    vertex 1733.2814359105175 -231.62155492726788 47.148887867691045
    vertex 1733.2814359105168 -236.78155492726773 47.14888786769124
  endloop
endfacet
facet normal 1.0 -1.4159218013294406e-14 -1.759392451518072e-13
  outer loop
    vertex 1733.2814359105168 -228.30155492726468 45.998887867690094
    vertex 1733.2814359105168 -236.78155492726773 47.14888786769124
    vertex 1733.2814359105168 -240.10155492726489 45.99888786769343
  endloop
endfacet
facet normal 4.1993699716173617e-14 2.412805546572709e-13 1.0
  outer loop
    vertex 1733.2814359105175 -238.65155492726183 48.82388786769463
    vertex 1608.781382474461 -236.78155492727805 48.82388786769941
    vertex 1608.781382474461 -238.65155492727212 48.82388786769986
  endloop
endfacet
facet normal 4.1993699716173617e-14 2.412805546572709e-13 1.0
  outer loop
    vertex 1608.781382474461 -236.78155492727805 48.82388786769941
    vertex 1733.2814359105175 -238.65155492726183 48.82388786769463
    vertex 1733.2814359105175 -236.78155492726776 48.82388786769418
  endloop
endfacet
facet normal -4.1862327840072666e-13 2.412805546558113e-13 1.0
  outer loop
    vertex 1733.2814359105175 -231.6215549272677 48.82388786769293
    vertex 1608.7813824744605 -229.75155492733506 48.82388786764036
    vertex 1608.781382474461 -231.62155492733916 48.823887867640806
  endloop
endfacet
facet normal -4.1862327840072666e-13 2.412805546558113e-13 1.0
  outer loop
    vertex 1608.7813824744605 -229.75155492733506 48.82388786764036
    vertex 1733.2814359105175 -231.6215549272677 48.82388786769293
    vertex 1733.2814359105168 -229.75155492726358 48.82388786769248
  endloop
endfacet
facet normal 1.0 6.403539675342837e-14 -4.471828434530816e-14
  outer loop
    vertex 1608.7813824744608 -236.78155492727342 47.14888786771399
    vertex 1608.781382474461 -231.62155492733916 48.823887867640806
    vertex 1608.781382474461 -236.78155492727805 48.82388786769941
  endloop
endfacet
facet normal 1.0 6.403539675342837e-14 -4.471828434530816e-14
  outer loop
    vertex 1608.781382474461 -231.62155492733916 48.823887867640806
    vertex 1608.7813824744608 -236.78155492727342 47.14888786771399
    vertex 1608.7813824744605 -231.62155492727376 47.14888786771379
  endloop
endfacet
facet normal 1.0 6.403539675342837e-14 -4.471828434530816e-14
  outer loop
    vertex 1608.781382474461 -238.65155492727212 48.82388786769986
    vertex 1608.7813824744603 -230.4765549273349 49.53638786764126
    vertex 1608.7813824744612 -237.92655492727076 49.53638786770044
  endloop
endfacet
facet normal 1.0 6.403539675342837e-14 -4.471828434530816e-14
  outer loop
    vertex 1608.7813824744603 -230.4765549273349 49.53638786764126
    vertex 1608.781382474461 -238.65155492727212 48.82388786769986
    vertex 1608.781382474461 -236.78155492727805 48.82388786769941
  endloop
endfacet
facet normal 1.0 6.403539675342837e-14 -4.471828434530816e-14
  outer loop
    vertex 1608.7813824744603 -230.4765549273349 49.53638786764126
    vertex 1608.781382474461 -236.78155492727805 48.82388786769941
    vertex 1608.7813824744605 -229.75155492733506 48.82388786764036
  endloop
endfacet
facet normal 1.0 6.403539675342837e-14 -4.471828434530816e-14
  outer loop
    vertex 1608.7813824744605 -229.75155492733506 48.82388786764036
    vertex 1608.781382474461 -236.78155492727805 48.82388786769941
    vertex 1608.781382474461 -231.62155492733916 48.823887867640806
  endloop
endfacet
facet normal 1.3059267710961112e-13 7.943431388030385e-12 1.0
  outer loop
    vertex 1608.7813824744612 -237.92655492727076 49.53638786770044
    vertex 1598.2834286462576 -230.47655492733637 49.53638786764263
    vertex 1598.2834286462587 -237.92655492727224 49.53638786770181
  endloop
endfacet
facet normal 1.3059267710961112e-13 7.943431388030385e-12 1.0
  outer loop
    vertex 1598.2834286462576 -230.47655492733637 49.53638786764263
    vertex 1608.7813824744612 -237.92655492727076 49.53638786770044
    vertex 1608.7813824744603 -230.4765549273349 49.53638786764126
  endloop
endfacet
endsolid Falla3d_ver2.1
