solid Falla3d_ver2.1
facet normal -2.7277957307945826e-13 0.7009315268035073 0.7132285711697928
  outer loop
    vertex 1733.2814359105168 -230.0515549272636 48.823887867692484
    vertex 1598.2834286462564 -228.6015549272708 47.39888786772064
    vertex 1598.2834286462582 -230.05155492733584 48.82388786763703
  endloop
endfacet
facet normal -2.7277957307945826e-13 0.7009315268035073 0.7132285711697928
  outer loop
    vertex 1598.2834286462564 -228.6015549272708 47.39888786772064
    vertex 1733.2814359105168 -230.0515549272636 48.823887867692484
    vertex 1733.2814359105175 -228.60155492726395 47.39888786769068
  endloop
endfacet
facet normal -1.0 -1.4109973943332975e-15 7.68872974767128e-13
  outer loop
    vertex 1598.2834286462582 -230.05155492733584 48.82388786763703
    vertex 1598.2834286462564 -239.80155492727104 47.398887867723964
    vertex 1598.283428646259 -238.35155492727287 48.82388786769652
  endloop
endfacet
facet normal -1.0 -1.4109973943332975e-15 7.68872974767128e-13
  outer loop
    vertex 1598.2834286462564 -239.80155492727104 47.398887867723964
    vertex 1598.2834286462582 -230.05155492733584 48.82388786763703
    vertex 1598.2834286462564 -228.6015549272708 47.39888786772064
  endloop
endfacet
facet normal -1.0 -1.4109973943332975e-15 7.68872974767128e-13
  outer loop
    vertex 1598.2834286462564 -239.80155492727104 47.398887867723964
    vertex 1598.2834286462564 -228.6015549272708 47.39888786772064
    vertex 1598.2834286462564 -239.80155492727127 45.99888786772392
  endloop
endfacet
facet normal -1.0 -1.4109973943332975e-15 7.68872974767128e-13
  outer loop
    vertex 1598.2834286462564 -239.80155492727127 45.99888786772392
    vertex 1598.2834286462564 -228.6015549272708 47.39888786772064
    vertex 1598.2834286462564 -228.60155492727102 45.9988878677206
  endloop
endfacet
facet normal 4.745969202206089e-14 -1.0 1.6114094185987493e-13
  outer loop
    vertex 1733.2814359105168 -239.80155492726487 45.99888786769342
    vertex 1598.2834286462564 -239.80155492727104 47.398887867723964
    vertex 1598.2834286462564 -239.80155492727127 45.99888786772392
  endloop
endfacet
facet normal 4.745969202206089e-14 -1.0 1.6114094185987493e-13
  outer loop
    vertex 1598.2834286462564 -239.80155492727104 47.398887867723964
    vertex 1733.2814359105168 -239.80155492726487 45.99888786769342
    vertex 1733.2814359105168 -239.80155492726465 47.39888786769346
  endloop
endfacet
facet normal 1.3104045268753543e-13 -0.7009315268182963 0.7132285711552588
  outer loop
    vertex 1733.2814359105168 -239.80155492726465 47.39888786769346
    vertex 1598.283428646259 -238.35155492727287 48.82388786769652
    vertex 1598.2834286462564 -239.80155492727104 47.398887867723964
  endloop
endfacet
facet normal 1.3104045268753543e-13 -0.7009315268182963 0.7132285711552588
  outer loop
    vertex 1598.283428646259 -238.35155492727287 48.82388786769652
    vertex 1733.2814359105168 -239.80155492726465 47.39888786769346
    vertex 1733.2814359105175 -238.35155492726182 48.82388786769462
  endloop
endfacet
facet normal -4.879658475511858e-14 1.0 -3.545100720916813e-13
  outer loop
    vertex 1733.2814359105175 -228.60155492726395 47.39888786769068
    vertex 1598.2834286462564 -228.60155492727102 45.9988878677206
    vertex 1598.2834286462564 -228.6015549272708 47.39888786772064
  endloop
endfacet
facet normal -4.879658475511858e-14 1.0 -3.545100720916813e-13
  outer loop
    vertex 1598.2834286462564 -228.60155492727102 45.9988878677206
    vertex 1733.2814359105175 -228.60155492726395 47.39888786769068
    vertex 1733.2814359105168 -228.60155492726471 45.998887867690094
  endloop
endfacet
facet normal -2.2593487187948296e-13 -2.966000461108342e-13 -1.0
  outer loop
    vertex 1598.2834286462564 -228.60155492727102 45.9988878677206
    vertex 1733.2814359105168 -239.80155492726487 45.99888786769342
    vertex 1598.2834286462564 -239.80155492727127 45.99888786772392
  endloop
endfacet
facet normal -2.2593487187948296e-13 -2.966000461108342e-13 -1.0
  outer loop
    vertex 1733.2814359105168 -239.80155492726487 45.99888786769342
    vertex 1598.2834286462564 -228.60155492727102 45.9988878677206
    vertex 1733.2814359105168 -228.60155492726471 45.998887867690094
  endloop
endfacet
facet normal -6.414571607118051e-14 1.0 1.4007236498364234e-12
  outer loop
    vertex 1608.781382474461 -236.78155492727805 48.823887867699405
    vertex 1733.2814359105168 -236.78155492726773 47.148887867691236
    vertex 1608.7813824744608 -236.78155492727342 47.14888786771398
  endloop
endfacet
facet normal -6.414571607118051e-14 1.0 1.4007236498364234e-12
  outer loop
    vertex 1733.2814359105168 -236.78155492726773 47.148887867691236
    vertex 1608.781382474461 -236.78155492727805 48.823887867699405
    vertex 1733.2814359105175 -236.78155492726776 48.823887867694175
  endloop
endfacet
facet normal 1.833770188254063e-13 3.921936301920102e-14 1.0
  outer loop
    vertex 1733.2814359105168 -236.78155492726773 47.148887867691236
    vertex 1608.7813824744603 -231.62155492727376 47.14888786771378
    vertex 1608.7813824744608 -236.78155492727342 47.14888786771398
  endloop
endfacet
facet normal 1.833770188254063e-13 3.921936301920102e-14 1.0
  outer loop
    vertex 1608.7813824744603 -231.62155492727376 47.14888786771378
    vertex 1733.2814359105168 -236.78155492726773 47.148887867691236
    vertex 1733.2814359105175 -231.62155492726788 47.148887867691045
  endloop
endfacet
facet normal 3.105812354437457e-13 -1.0 -1.9475446131387173e-11
  outer loop
    vertex 1733.2814359105175 -231.62155492726788 47.148887867691045
    vertex 1608.781382474461 -231.62155492733916 48.823887867640806
    vertex 1608.7813824744603 -231.62155492727376 47.14888786771378
  endloop
endfacet
facet normal 3.105812354437457e-13 -1.0 -1.9475446131387173e-11
  outer loop
    vertex 1608.781382474461 -231.62155492733916 48.823887867640806
    vertex 1733.2814359105175 -231.62155492726788 47.148887867691045
    vertex 1733.2814359105175 -231.6215549272677 48.823887867692925
  endloop
endfacet
facet normal 1.0 -1.559859343502155e-14 -1.7593924515180949e-13
  outer loop
    vertex 1733.2814359105168 -239.80155492726465 47.39888786769346
    vertex 1733.2814359105175 -236.78155492726776 48.823887867694175
    vertex 1733.2814359105175 -238.35155492726182 48.82388786769462
  endloop
endfacet
facet normal 1.0 -1.559859343502155e-14 -1.7593924515180949e-13
  outer loop
    vertex 1733.2814359105175 -236.78155492726776 48.823887867694175
    vertex 1733.2814359105168 -239.80155492726465 47.39888786769346
    vertex 1733.2814359105168 -236.78155492726773 47.148887867691236
  endloop
endfacet
facet normal 1.0 -1.559859343502155e-14 -1.7593924515180949e-13
  outer loop
    vertex 1733.2814359105168 -236.78155492726773 47.148887867691236
    vertex 1733.2814359105168 -239.80155492726465 47.39888786769346
    vertex 1733.2814359105168 -239.80155492726487 45.99888786769342
  endloop
endfacet
facet normal 1.0 -1.559859343502155e-14 -1.7593924515180949e-13
  outer loop
    vertex 1733.2814359105175 -231.62155492726788 47.148887867691045
    vertex 1733.2814359105168 -230.0515549272636 48.823887867692484
    vertex 1733.2814359105175 -231.6215549272677 48.823887867692925
  endloop
endfacet
facet normal 1.0 -1.559859343502155e-14 -1.7593924515180949e-13
  outer loop
    vertex 1733.2814359105168 -230.0515549272636 48.823887867692484
    vertex 1733.2814359105175 -231.62155492726788 47.148887867691045
    vertex 1733.2814359105175 -228.60155492726395 47.39888786769068
  endloop
endfacet
facet normal 1.0 -1.559859343502155e-14 -1.7593924515180949e-13
  outer loop
    vertex 1733.2814359105175 -228.60155492726395 47.39888786769068
    vertex 1733.2814359105175 -231.62155492726788 47.148887867691045
    vertex 1733.2814359105168 -228.60155492726471 45.998887867690094
  endloop
endfacet
facet normal 1.0 -1.559859343502155e-14 -1.7593924515180949e-13
  outer loop
    vertex 1733.2814359105168 -228.60155492726471 45.998887867690094
    vertex 1733.2814359105175 -231.62155492726788 47.148887867691045
    vertex 1733.2814359105168 -236.78155492726773 47.148887867691236
  endloop
endfacet
facet normal 1.0 -1.559859343502155e-14 -1.7593924515180949e-13
  outer loop
    vertex 1733.2814359105168 -228.60155492726471 45.998887867690094
    vertex 1733.2814359105168 -236.78155492726773 47.148887867691236
    vertex 1733.2814359105168 -239.80155492726487 45.99888786769342
  endloop
endfacet
facet normal -1.9392237415458885e-13 4.2935353392898674e-12 1.0
  outer loop
    vertex 1733.2814359105175 -236.78155492726776 48.823887867694175
    vertex 1608.781382474461 -236.78155492727805 48.823887867699405
    vertex 1733.2814359105175 -238.35155492726182 48.82388786769462
  endloop
endfacet
facet normal -1.9392237415458885e-13 4.2935353392898674e-12 1.0
  outer loop
    vertex 1598.283428646259 -238.35155492727287 48.82388786769652
    vertex 1608.781382474461 -236.78155492727805 48.823887867699405
    vertex 1598.2834286462582 -230.05155492733584 48.82388786763703
  endloop
endfacet
facet normal -1.9392237415458885e-13 4.2935353392898674e-12 1.0
  outer loop
    vertex 1608.781382474461 -236.78155492727805 48.823887867699405
    vertex 1598.283428646259 -238.35155492727287 48.82388786769652
    vertex 1733.2814359105175 -238.35155492726182 48.82388786769462
  endloop
endfacet
facet normal -1.9392237415458885e-13 4.2935353392898674e-12 1.0
  outer loop
    vertex 1598.2834286462582 -230.05155492733584 48.82388786763703
    vertex 1608.781382474461 -236.78155492727805 48.823887867699405
    vertex 1608.781382474461 -231.62155492733916 48.823887867640806
  endloop
endfacet
facet normal -1.9392237415458885e-13 4.2935353392898674e-12 1.0
  outer loop
    vertex 1598.2834286462582 -230.05155492733584 48.82388786763703
    vertex 1608.781382474461 -231.62155492733916 48.823887867640806
    vertex 1733.2814359105175 -231.6215549272677 48.823887867692925
  endloop
endfacet
facet normal -1.9392237415458885e-13 4.2935353392898674e-12 1.0
  outer loop
    vertex 1598.2834286462582 -230.05155492733584 48.82388786763703
    vertex 1733.2814359105175 -231.6215549272677 48.823887867692925
    vertex 1733.2814359105168 -230.0515549272636 48.823887867692484
  endloop
endfacet
facet normal 1.0 1.748816423152764e-14 -2.693699326670269e-13
  outer loop
    vertex 1608.7813824744608 -236.78155492727342 47.14888786771398
    vertex 1608.781382474461 -231.62155492733916 48.823887867640806
    vertex 1608.781382474461 -236.78155492727805 48.823887867699405
  endloop
endfacet
facet normal 1.0 1.748816423152764e-14 -2.693699326670269e-13
  outer loop
    vertex 1608.781382474461 -231.62155492733916 48.823887867640806
    vertex 1608.7813824744608 -236.78155492727342 47.14888786771398
    vertex 1608.7813824744603 -231.62155492727376 47.14888786771378
  endloop
endfacet
endsolid Falla3d_ver2.1
