solid Falla3d_ver2
facet normal -1.4901317822022768e-08 1.9675154304708803e-13 1.0
outer loop
vertex 1579.9547286776651 -61.52932190339252 50.24888790545595
vertex 1579.9547286776692 -186.02937533944853 50.248887905478696
vertex 1580.4247286776565 -61.529321903391796 50.24888791243261
endloop
endfacet
facet normal -1.4901317822022768e-08 1.9675154304708803e-13 1.0
outer loop
vertex 1580.4247286776608 -196.52732916765186 50.24888791246311
vertex 1579.9547286776692 -186.02937533944853 50.248887905478696
vertex 1574.424728677665 -196.52732916765405 50.24888782305378
endloop
endfacet
facet normal -1.4901317822022768e-08 1.9675154304708803e-13 1.0
outer loop
vertex 1579.9547286776692 -186.02937533944853 50.248887905478696
vertex 1580.4247286776608 -196.52732916765186 50.24888791246311
vertex 1580.4247286776565 -61.529321903391796 50.24888791243261
endloop
endfacet
facet normal -1.4901317822022768e-08 1.9675154304708803e-13 1.0
outer loop
vertex 1574.424728677665 -196.52732916765405 50.24888782305378
vertex 1579.9547286776692 -186.02937533944853 50.248887905478696
vertex 1574.894728677669 -186.02937533944817 50.24888783007881
endloop
endfacet
facet normal -1.4901317822022768e-08 1.9675154304708803e-13 1.0
outer loop
vertex 1574.424728677665 -196.52732916765405 50.24888782305378
vertex 1574.894728677669 -186.02937533944817 50.24888783007881
vertex 1574.894728677665 -61.52932190339216 50.24888783005607
endloop
endfacet
facet normal -1.4901317822022768e-08 1.9675154304708803e-13 1.0
outer loop
vertex 1574.424728677665 -196.52732916765405 50.24888782305378
vertex 1574.894728677665 -61.52932190339216 50.24888783005607
vertex 1574.4247286776606 -61.529321903393964 50.24888782302436
endloop
endfacet
facet normal -0.7009315374501361 1.4356396618028504e-13 0.7132285607067265
outer loop
vertex 1574.4247286776606 -61.529321903393964 50.24888782302436
vertex 1571.5247287201344 -196.52732916765297 47.39888777983745
vertex 1574.424728677665 -196.52732916765405 50.24888782305378
endloop
endfacet
facet normal -0.7009315374501361 1.4356396618028504e-13 0.7132285607067265
outer loop
vertex 1571.5247287201344 -196.52732916765297 47.39888777983745
vertex 1574.4247286776606 -61.529321903393964 50.24888782302436
vertex 1571.5247287201294 -61.52932190339216 47.39888777980749
endloop
endfacet
facet normal 1.203498225930077e-14 -1.0 2.5040540906815655e-13
outer loop
vertex 1574.424728677665 -196.52732916765405 50.24888782305378
vertex 1583.3247287201345 -196.5273291676533 47.39888795567406
vertex 1580.4247286776608 -196.52732916765186 50.24888791246311
endloop
endfacet
facet normal 1.203498225930077e-14 -1.0 2.5040540906815655e-13
outer loop
vertex 1583.3247287201345 -196.5273291676533 47.39888795567406
vertex 1574.424728677665 -196.52732916765405 50.24888782305378
vertex 1571.5247287201344 -196.52732916765297 47.39888777983745
endloop
endfacet
facet normal 1.203498225930077e-14 -1.0 2.5040540906815655e-13
outer loop
vertex 1583.3247287201345 -196.5273291676533 47.39888795567406
vertex 1571.5247287201344 -196.52732916765297 47.39888777983745
vertex 1583.3247287409963 -196.5273291676533 45.99888795567402
endloop
endfacet
facet normal 1.203498225930077e-14 -1.0 2.5040540906815655e-13
outer loop
vertex 1583.3247287409963 -196.5273291676533 45.99888795567402
vertex 1571.5247287201344 -196.52732916765297 47.39888777983745
vertex 1571.5247287409961 -196.52732916765297 45.99888777983741
endloop
endfacet
facet normal 1.0 1.763231003125669e-14 1.4901292137628983e-08
outer loop
vertex 1583.324728740992 -61.529321903392876 45.99888795564352
vertex 1583.3247287201345 -196.5273291676533 47.39888795567406
vertex 1583.3247287409963 -196.5273291676533 45.99888795567402
endloop
endfacet
facet normal 1.0 1.763231003125669e-14 1.4901292137628983e-08
outer loop
vertex 1583.3247287201345 -196.5273291676533 47.39888795567406
vertex 1583.324728740992 -61.529321903392876 45.99888795564352
vertex 1583.3247287201302 -61.529321903392876 47.398887955643566
endloop
endfacet
facet normal 0.7009315161933757 1.739782703145484e-13 0.7132285815969911
outer loop
vertex 1583.3247287201302 -61.529321903392876 47.398887955643566
vertex 1580.4247286776608 -196.52732916765186 50.24888791246311
vertex 1583.3247287201345 -196.5273291676533 47.39888795567406
endloop
endfacet
facet normal 0.7009315161933757 1.739782703145484e-13 0.7132285815969911
outer loop
vertex 1580.4247286776608 -196.52732916765186 50.24888791246311
vertex 1583.3247287201302 -61.529321903392876 47.398887955643566
vertex 1580.4247286776565 -61.529321903391796 50.24888791243261
endloop
endfacet
facet normal -1.0 -1.9637649130822114e-14 -1.4901485506759217e-08
outer loop
vertex 1571.5247287201294 -61.52932190339216 47.39888777980749
vertex 1571.5247287409961 -196.52732916765297 45.99888777983741
vertex 1571.5247287201344 -196.52732916765297 47.39888777983745
endloop
endfacet
facet normal -1.0 -1.9637649130822114e-14 -1.4901485506759217e-08
outer loop
vertex 1571.5247287409961 -196.52732916765297 45.99888777983741
vertex 1571.5247287201294 -61.52932190339216 47.39888777980749
vertex 1571.5247287409918 -61.52932190339252 45.99888777980691
endloop
endfacet
facet normal 1.490140794061093e-08 -2.2660331824599983e-13 -1.0
outer loop
vertex 1571.5247287409961 -196.52732916765297 45.99888777983741
vertex 1583.324728740992 -61.529321903392876 45.99888795564352
vertex 1583.3247287409963 -196.5273291676533 45.99888795567402
endloop
endfacet
facet normal 1.490140794061093e-08 -2.2660331824599983e-13 -1.0
outer loop
vertex 1583.324728740992 -61.529321903392876 45.99888795564352
vertex 1571.5247287409961 -196.52732916765297 45.99888777983741
vertex 1571.5247287409918 -61.52932190339252 45.99888777980691
endloop
endfacet
facet normal -1.4231353210159278e-14 1.0 -1.0257883499753923e-13
outer loop
vertex 1580.4247286776565 -61.529321903391796 50.24888791243261
vertex 1579.9547287238586 -61.529321903392876 47.14888790542454
vertex 1579.9547286776651 -61.52932190339252 50.24888790545595
endloop
endfacet
facet normal -1.4231353210159278e-14 1.0 -1.0257883499753923e-13
outer loop
vertex 1579.9547287238586 -61.529321903392876 47.14888790542454
vertex 1580.4247286776565 -61.529321903391796 50.24888791243261
vertex 1583.3247287201302 -61.529321903392876 47.398887955643566
endloop
endfacet
facet normal -1.4231353210159278e-14 1.0 -1.0257883499753923e-13
outer loop
vertex 1579.9547287238586 -61.529321903392876 47.14888790542454
vertex 1583.3247287201302 -61.529321903392876 47.398887955643566
vertex 1583.324728740992 -61.529321903392876 45.99888795564352
endloop
endfacet
facet normal -1.4231353210159278e-14 1.0 -1.0257883499753923e-13
outer loop
vertex 1579.9547287238586 -61.529321903392876 47.14888790542454
vertex 1583.324728740992 -61.529321903392876 45.99888795564352
vertex 1574.8947287238586 -61.52932190339252 47.14888783002465
endloop
endfacet
facet normal -1.4231353210159278e-14 1.0 -1.0257883499753923e-13
outer loop
vertex 1574.8947287238586 -61.52932190339252 47.14888783002465
vertex 1574.4247286776606 -61.529321903393964 50.24888782302436
vertex 1574.894728677665 -61.52932190339216 50.24888783005607
endloop
endfacet
facet normal -1.4231353210159278e-14 1.0 -1.0257883499753923e-13
outer loop
vertex 1574.4247286776606 -61.529321903393964 50.24888782302436
vertex 1574.8947287238586 -61.52932190339252 47.14888783002465
vertex 1571.5247287201294 -61.52932190339216 47.39888777980749
endloop
endfacet
facet normal -1.4231353210159278e-14 1.0 -1.0257883499753923e-13
outer loop
vertex 1571.5247287201294 -61.52932190339216 47.39888777980749
vertex 1574.8947287238586 -61.52932190339252 47.14888783002465
vertex 1571.5247287409918 -61.52932190339252 45.99888777980691
endloop
endfacet
facet normal -1.4231353210159278e-14 1.0 -1.0257883499753923e-13
outer loop
vertex 1571.5247287409918 -61.52932190339252 45.99888777980691
vertex 1574.8947287238586 -61.52932190339252 47.14888783002465
vertex 1583.324728740992 -61.529321903392876 45.99888795564352
endloop
endfacet
facet normal -2.5861389729146163e-14 1.0 -1.2031857030741466e-13
outer loop
vertex 1579.9547287238624 -186.02937533944888 47.148887905447275
vertex 1574.894728677669 -186.02937533944817 50.24888783007881
vertex 1579.9547286776692 -186.02937533944853 50.248887905478696
endloop
endfacet
facet normal -2.5861389729146163e-14 1.0 -1.2031857030741466e-13
outer loop
vertex 1574.894728677669 -186.02937533944817 50.24888783007881
vertex 1579.9547287238624 -186.02937533944888 47.148887905447275
vertex 1574.8947287238625 -186.02937533944853 47.148887830047386
endloop
endfacet
facet normal -1.0 -2.002181532422931e-14 -1.4901103065590536e-08
outer loop
vertex 1579.9547286776692 -186.02937533944853 50.248887905478696
vertex 1579.9547287238586 -61.529321903392876 47.14888790542454
vertex 1579.9547287238624 -186.02937533944888 47.148887905447275
endloop
endfacet
facet normal -1.0 -2.002181532422931e-14 -1.4901103065590536e-08
outer loop
vertex 1579.9547287238586 -61.529321903392876 47.14888790542454
vertex 1579.9547286776692 -186.02937533944853 50.248887905478696
vertex 1579.9547286776651 -61.52932190339252 50.24888790545595
endloop
endfacet
facet normal -1.4901163224875496e-08 1.8337701882540692e-13 1.0
outer loop
vertex 1579.9547287238586 -61.529321903392876 47.14888790542454
vertex 1574.8947287238625 -186.02937533944853 47.148887830047386
vertex 1579.9547287238624 -186.02937533944888 47.148887905447275
endloop
endfacet
facet normal -1.4901163224875496e-08 1.8337701882540692e-13 1.0
outer loop
vertex 1574.8947287238625 -186.02937533944853 47.148887830047386
vertex 1579.9547287238586 -61.529321903392876 47.14888790542454
vertex 1574.8947287238586 -61.52932190339252 47.14888783002465
endloop
endfacet
facet normal 1.0 2.6976543956025378e-14 1.4901163224875496e-08
outer loop
vertex 1574.8947287238586 -61.52932190339252 47.14888783002465
vertex 1574.894728677669 -186.02937533944817 50.24888783007881
vertex 1574.8947287238625 -186.02937533944853 47.148887830047386
endloop
endfacet
facet normal 1.0 2.6976543956025378e-14 1.4901163224875496e-08
outer loop
vertex 1574.894728677669 -186.02937533944817 50.24888783007881
vertex 1574.8947287238586 -61.52932190339252 47.14888783002465
vertex 1574.894728677665 -61.52932190339216 50.24888783005607
endloop
endfacet
endsolid Falla3d_ver2
